<svg width="649" height="78" viewBox="0 0 649 78" fill="none" xmlns="http://www.w3.org/2000/svg">
<g clip-path="url(#clip0_488_64)">
<path d="M246.64 36.952V31.576H269.68V36.952H246.64ZM246.64 46.696V41.32H269.68V46.696H246.64ZM333.168 63.736C331.6 61.784 330.224 59.672 329.04 57.4C327.856 55.128 326.944 52.616 326.304 49.864C325.664 47.08 325.344 43.96 325.344 40.504C325.344 37.016 325.68 33.912 326.352 31.192C327.024 28.44 327.968 25.976 329.184 23.8C330.4 21.592 331.776 19.576 333.312 17.752H340.752C339.024 19.864 337.488 22.072 336.144 24.376C334.8 26.68 333.76 29.16 333.024 31.816C332.288 34.472 331.92 37.368 331.92 40.504C331.92 43.608 332.224 46.504 332.832 49.192C333.472 51.88 334.448 54.424 335.76 56.824C337.072 59.224 338.736 61.528 340.752 63.736H333.168ZM368.531 55V19.96H375.347V55H368.531ZM345.539 55V19.96H352.355V55H345.539ZM351.107 40.456V34.456H369.779V40.456H351.107ZM390.168 63.736C388.6 61.784 387.224 59.672 386.04 57.4C384.856 55.128 383.944 52.616 383.304 49.864C382.664 47.08 382.344 43.96 382.344 40.504C382.344 37.016 382.68 33.912 383.352 31.192C384.024 28.44 384.968 25.976 386.184 23.8C387.4 21.592 388.776 19.576 390.312 17.752H397.752C396.024 19.864 394.488 22.072 393.144 24.376C391.8 26.68 390.76 29.16 390.024 31.816C389.288 34.472 388.92 37.368 388.92 40.504C388.92 43.608 389.224 46.504 389.832 49.192C390.472 51.88 391.448 54.424 392.76 56.824C394.072 59.224 395.736 61.528 397.752 63.736H390.168ZM402.011 55V28.936H407.291V40.12H406.811C406.811 37.496 407.147 35.304 407.819 33.544C408.491 31.752 409.483 30.408 410.795 29.512C412.139 28.584 413.803 28.12 415.787 28.12H416.075C418.091 28.12 419.755 28.584 421.067 29.512C422.411 30.408 423.403 31.752 424.043 33.544C424.715 35.304 425.051 37.496 425.051 40.12H423.371C423.371 37.496 423.707 35.304 424.379 33.544C425.083 31.752 426.091 30.408 427.403 29.512C428.747 28.584 430.411 28.12 432.395 28.12H432.683C434.699 28.12 436.379 28.584 437.723 29.512C439.067 30.408 440.075 31.752 440.747 33.544C441.451 35.304 441.803 37.496 441.803 40.12V55H435.131V39.496C435.131 37.864 434.715 36.568 433.883 35.608C433.051 34.616 431.867 34.12 430.331 34.12C428.795 34.12 427.563 34.632 426.635 35.656C425.707 36.648 425.243 37.992 425.243 39.688V55H418.571V39.496C418.571 37.864 418.155 36.568 417.323 35.608C416.491 34.616 415.307 34.12 413.771 34.12C412.235 34.12 411.003 34.632 410.075 35.656C409.147 36.648 408.683 37.992 408.683 39.688V55H402.011ZM452.267 63.736H444.683C446.699 61.528 448.363 59.224 449.675 56.824C450.987 54.424 451.947 51.88 452.555 49.192C453.195 46.504 453.515 43.608 453.515 40.504C453.515 37.368 453.147 34.472 452.411 31.816C451.675 29.16 450.635 26.68 449.291 24.376C447.947 22.072 446.411 19.864 444.683 17.752H452.123C453.659 19.576 455.035 21.592 456.251 23.8C457.467 25.976 458.411 28.44 459.083 31.192C459.755 33.912 460.091 37.016 460.091 40.504C460.091 43.96 459.771 47.08 459.131 49.864C458.491 52.616 457.579 55.128 456.395 57.4C455.211 59.672 453.835 61.784 452.267 63.736ZM484.453 50.344V26.632H490.309V50.344H484.453ZM475.765 41.176V35.8H498.997V41.176H475.765ZM527.44 55.912C525.2 55.912 523.232 55.528 521.536 54.76C519.872 53.992 518.48 52.968 517.36 51.688C516.272 50.376 515.44 48.92 514.864 47.32C514.32 45.72 514.048 44.088 514.048 42.424V41.512C514.048 39.784 514.32 38.12 514.864 36.52C515.44 34.888 516.272 33.448 517.36 32.2C518.48 30.92 519.856 29.912 521.488 29.176C523.12 28.408 525.008 28.024 527.152 28.024C529.968 28.024 532.32 28.648 534.208 29.896C536.128 31.112 537.568 32.728 538.528 34.744C539.488 36.728 539.968 38.872 539.968 41.176V43.576H516.88V39.496H535.792L533.728 41.512C533.728 39.848 533.488 38.424 533.008 37.24C532.528 36.056 531.792 35.144 530.8 34.504C529.84 33.864 528.624 33.544 527.152 33.544C525.68 33.544 524.432 33.88 523.408 34.552C522.384 35.224 521.6 36.2 521.056 37.48C520.544 38.728 520.288 40.232 520.288 41.992C520.288 43.624 520.544 45.08 521.056 46.36C521.568 47.608 522.352 48.6 523.408 49.336C524.464 50.04 525.808 50.392 527.44 50.392C529.072 50.392 530.4 50.072 531.424 49.432C532.448 48.76 533.104 47.944 533.392 46.984H539.536C539.152 48.776 538.416 50.344 537.328 51.688C536.24 53.032 534.848 54.072 533.152 54.808C531.488 55.544 529.584 55.912 527.44 55.912ZM564.454 37.384L557.158 32.104V26.92L564.454 21.64L567.094 26.296L561.094 28.792V30.232L567.094 32.728L564.454 37.384ZM557.398 17.464L556.486 26.44L551.974 29.032L543.766 25.336L546.454 20.728L551.638 24.664L552.886 23.944L552.022 17.512L557.398 17.464ZM543.766 33.688L551.974 29.992L556.486 32.584L557.398 41.56L552.07 41.464L552.886 35.08L551.638 34.36L546.454 38.248L543.766 33.688ZM596.689 63.736H589.105C591.121 61.528 592.785 59.224 594.097 56.824C595.409 54.424 596.369 51.88 596.977 49.192C597.617 46.504 597.937 43.608 597.937 40.504C597.937 37.368 597.569 34.472 596.833 31.816C596.097 29.16 595.057 26.68 593.713 24.376C592.369 22.072 590.833 19.864 589.105 17.752H596.545C598.081 19.576 599.457 21.592 600.673 23.8C601.889 25.976 602.833 28.44 603.505 31.192C604.177 33.912 604.513 37.016 604.513 40.504C604.513 43.96 604.193 47.08 603.553 49.864C602.913 52.616 602.001 55.128 600.817 57.4C599.633 59.672 598.257 61.784 596.689 63.736Z" fill="#0C071D" fill-opacity="0.67"/>
<path d="M304.704 55L295.968 42.808H292.08L303.168 28.936H310.128L299.904 41.752L300.048 38.392L312.24 55H304.704ZM286.464 55V19.96H293.136V55H286.464ZM572.87 55V28.936H578.15V39.976H578.006C578.006 36.232 578.806 33.4 580.406 31.48C582.006 29.56 584.358 28.6 587.462 28.6H588.422V34.408H586.598C584.358 34.408 582.614 35.016 581.366 36.232C580.15 37.416 579.542 39.144 579.542 41.416V55H572.87Z" fill="#0C071D" fill-opacity="0.67"/>
<path d="M300.864 20.128V16.24H311.376V20.128H300.864ZM316.218 25V10.552L317.274 11.368H312.954V7.48H320.682V25H316.218Z" fill="#0C071D" fill-opacity="0.67"/>
<path d="M30.04 47V6.12H37.824V47H30.04ZM36.704 47V40.28H55.24V47H36.704ZM36.704 29.584V22.864H53.784V29.584H36.704ZM36.704 12.84V6.12H54.792V12.84H36.704ZM81.4406 48.064C77.7446 48.064 74.5712 47.4107 71.9206 46.104C69.2699 44.7973 67.1046 43.0987 65.4246 41.008C63.7819 38.9173 62.5686 36.64 61.7846 34.176C61.0006 31.712 60.6086 29.3413 60.6086 27.064V25.832C60.6086 23.2933 61.0006 20.792 61.7846 18.328C62.6059 15.864 63.8566 13.624 65.5366 11.608C67.2166 9.592 69.3446 7.98666 71.9206 6.792C74.5339 5.56 77.6139 4.944 81.1606 4.944C84.8566 4.944 88.0672 5.616 90.7926 6.96C93.5552 8.26667 95.7579 10.1333 97.4006 12.56C99.0432 14.9493 100.033 17.7493 100.369 20.96H92.3606C92.0619 19.0933 91.3899 17.5253 90.3446 16.256C89.3366 14.9493 88.0486 13.9787 86.4806 13.344C84.9126 12.672 83.1392 12.336 81.1606 12.336C79.1446 12.336 77.3526 12.6907 75.7846 13.4C74.2166 14.072 72.9099 15.0427 71.8646 16.312C70.8192 17.5813 70.0166 19.0747 69.4566 20.792C68.9339 22.5093 68.6726 24.4133 68.6726 26.504C68.6726 28.52 68.9339 30.3867 69.4566 32.104C70.0166 33.8213 70.8379 35.3333 71.9206 36.64C73.0032 37.9093 74.3286 38.8987 75.8966 39.608C77.5019 40.3173 79.3499 40.672 81.4406 40.672C84.5019 40.672 87.0779 39.9253 89.1686 38.432C91.2966 36.9013 92.5846 34.7733 93.0326 32.048H101.041C100.667 34.96 99.6779 37.6293 98.0726 40.056C96.4672 42.4827 94.2646 44.424 91.4646 45.88C88.6646 47.336 85.3232 48.064 81.4406 48.064ZM114.583 47.224V39.832H123.039C125.167 39.832 127.052 39.5147 128.695 38.88C130.375 38.208 131.794 37.2747 132.951 36.08C134.108 34.8853 134.986 33.4853 135.583 31.88C136.218 30.2373 136.535 28.4267 136.535 26.448C136.535 24.3947 136.218 22.5653 135.583 20.96C134.986 19.3173 134.108 17.9173 132.951 16.76C131.794 15.6027 130.375 14.7253 128.695 14.128C127.052 13.5307 125.167 13.232 123.039 13.232H114.583V5.84H122.535C126.231 5.84 129.46 6.38133 132.223 7.464C134.986 8.54666 137.282 10.04 139.111 11.944C140.94 13.8107 142.303 15.9573 143.199 18.384C144.132 20.7733 144.599 23.256 144.599 25.832V27.064C144.599 29.528 144.132 31.9547 143.199 34.344C142.303 36.7333 140.94 38.8987 139.111 40.84C137.282 42.7813 134.986 44.3307 132.223 45.488C129.46 46.6453 126.231 47.224 122.535 47.224H114.583ZM107.751 47.224V5.84H115.703V47.224H107.751ZM165.445 48.064C161.824 48.064 158.762 47.4853 156.261 46.328C153.797 45.1707 151.912 43.584 150.605 41.568C149.298 39.5147 148.645 37.2 148.645 34.624H156.429C156.429 35.7067 156.728 36.7707 157.325 37.816C157.922 38.824 158.874 39.6453 160.181 40.28C161.525 40.9147 163.28 41.232 165.445 41.232C167.386 41.232 169.01 40.952 170.317 40.392C171.624 39.832 172.594 39.104 173.229 38.208C173.864 37.2747 174.181 36.2293 174.181 35.072C174.181 33.616 173.565 32.4587 172.333 31.6C171.101 30.704 169.197 30.144 166.621 29.92L163.037 29.64C159.117 29.304 155.981 28.0907 153.629 26C151.314 23.872 150.157 21.072 150.157 17.6C150.157 14.9867 150.773 12.7467 152.005 10.88C153.237 8.976 154.954 7.52 157.157 6.512C159.397 5.46666 162.01 4.944 164.997 4.944C168.096 4.944 170.765 5.48533 173.005 6.568C175.245 7.65066 176.981 9.18133 178.213 11.16C179.445 13.1013 180.061 15.3973 180.061 18.048H172.277C172.277 16.928 171.997 15.9013 171.437 14.968C170.914 13.9973 170.112 13.232 169.029 12.672C167.984 12.0747 166.64 11.776 164.997 11.776C163.429 11.776 162.122 12.0373 161.077 12.56C160.032 13.0827 159.248 13.792 158.725 14.688C158.202 15.584 157.941 16.5547 157.941 17.6C157.941 18.8693 158.408 19.9893 159.341 20.96C160.274 21.8933 161.749 22.4347 163.765 22.584L167.349 22.92C170.261 23.144 172.818 23.76 175.021 24.768C177.224 25.776 178.922 27.1387 180.117 28.856C181.349 30.5733 181.965 32.6453 181.965 35.072C181.965 37.648 181.293 39.9253 179.949 41.904C178.605 43.8453 176.682 45.3573 174.181 46.44C171.717 47.5227 168.805 48.064 165.445 48.064ZM184.93 47L198.874 6.12H211.866L226.202 47H218.026L205.874 11.552L208.73 12.784H201.73L204.642 11.552L192.882 47H184.93ZM194.674 36.136L197.194 29.416H213.77L216.234 36.136H194.674Z" fill="#0C071D"/>
<path opacity="0.67" d="M39.392 71.408C37.952 71.408 36.672 71.168 35.552 70.688C34.448 70.208 33.52 69.552 32.768 68.72C32.016 67.872 31.44 66.904 31.04 65.816C30.656 64.712 30.464 63.552 30.464 62.336V61.904C30.464 60.784 30.648 59.696 31.016 58.64C31.4 57.584 31.952 56.632 32.672 55.784C33.392 54.936 34.288 54.264 35.36 53.768C36.432 53.272 37.648 53.024 39.008 53.024C40.432 53.024 41.696 53.296 42.8 53.84C43.904 54.368 44.792 55.112 45.464 56.072C46.152 57.032 46.552 58.144 46.664 59.408H44.816C44.688 58.384 44.344 57.52 43.784 56.816C43.24 56.112 42.552 55.584 41.72 55.232C40.888 54.88 39.984 54.704 39.008 54.704C37.984 54.704 37.056 54.888 36.224 55.256C35.392 55.624 34.688 56.144 34.112 56.816C33.536 57.488 33.088 58.28 32.768 59.192C32.464 60.088 32.312 61.072 32.312 62.144C32.312 63.28 32.472 64.32 32.792 65.264C33.112 66.192 33.576 66.992 34.184 67.664C34.792 68.336 35.528 68.856 36.392 69.224C37.272 69.592 38.272 69.776 39.392 69.776C40.768 69.776 41.976 69.512 43.016 68.984C44.072 68.44 44.888 67.728 45.464 66.848L44.744 69.104V63.92H46.472V68.288C45.72 69.264 44.744 70.032 43.544 70.592C42.344 71.136 40.96 71.408 39.392 71.408ZM38.744 64.304V62.768H48.032V64.304H38.744ZM56.5773 71.408C55.4893 71.408 54.5453 71.224 53.7453 70.856C52.9453 70.472 52.2893 69.968 51.7773 69.344C51.2653 68.704 50.8813 67.992 50.6253 67.208C50.3853 66.424 50.2653 65.616 50.2653 64.784V64.448C50.2653 63.632 50.3853 62.832 50.6253 62.048C50.8813 61.264 51.2653 60.56 51.7773 59.936C52.2893 59.312 52.9293 58.816 53.6973 58.448C54.4813 58.064 55.3933 57.872 56.4333 57.872C57.7613 57.872 58.8653 58.168 59.7453 58.76C60.6413 59.352 61.3133 60.112 61.7613 61.04C62.2093 61.952 62.4333 62.936 62.4333 63.992V64.928H51.0813V63.536H61.1853L60.7293 64.232C60.7293 63.288 60.5613 62.464 60.2253 61.76C59.9053 61.04 59.4253 60.48 58.7853 60.08C58.1613 59.664 57.3773 59.456 56.4333 59.456C55.4413 59.456 54.6173 59.688 53.9613 60.152C53.3053 60.616 52.8093 61.232 52.4733 62C52.1533 62.768 51.9933 63.64 51.9933 64.616C51.9933 65.576 52.1533 66.456 52.4733 67.256C52.8093 68.04 53.3133 68.664 53.9853 69.128C54.6733 69.592 55.5373 69.824 56.5773 69.824C57.6813 69.824 58.5773 69.576 59.2653 69.08C59.9533 68.568 60.3773 67.968 60.5373 67.28H62.2173C62.0573 68.128 61.7213 68.864 61.2093 69.488C60.6973 70.096 60.0493 70.568 59.2653 70.904C58.4813 71.24 57.5853 71.408 56.5773 71.408ZM65.8983 71V58.304H67.3383V63.632H67.0503C67.0503 62.448 67.2263 61.432 67.5783 60.584C67.9303 59.736 68.4583 59.08 69.1623 58.616C69.8663 58.152 70.7543 57.92 71.8263 57.92H71.8983C73.4983 57.92 74.6903 58.424 75.4743 59.432C76.2583 60.424 76.6503 61.824 76.6503 63.632V71H74.8743V63.248C74.8743 62.144 74.5703 61.256 73.9623 60.584C73.3543 59.912 72.5063 59.576 71.4183 59.576C70.2983 59.576 69.3943 59.928 68.7063 60.632C68.0343 61.32 67.6983 62.232 67.6983 63.368V71H65.8983ZM86.4367 71.408C85.3487 71.408 84.4047 71.224 83.6047 70.856C82.8047 70.472 82.1487 69.968 81.6367 69.344C81.1247 68.704 80.7407 67.992 80.4847 67.208C80.2447 66.424 80.1247 65.616 80.1247 64.784V64.448C80.1247 63.632 80.2447 62.832 80.4847 62.048C80.7407 61.264 81.1247 60.56 81.6367 59.936C82.1487 59.312 82.7887 58.816 83.5567 58.448C84.3407 58.064 85.2527 57.872 86.2927 57.872C87.6207 57.872 88.7247 58.168 89.6047 58.76C90.5007 59.352 91.1727 60.112 91.6207 61.04C92.0687 61.952 92.2927 62.936 92.2927 63.992V64.928H80.9407V63.536H91.0447L90.5887 64.232C90.5887 63.288 90.4207 62.464 90.0847 61.76C89.7647 61.04 89.2847 60.48 88.6447 60.08C88.0207 59.664 87.2367 59.456 86.2927 59.456C85.3007 59.456 84.4767 59.688 83.8207 60.152C83.1647 60.616 82.6687 61.232 82.3327 62C82.0127 62.768 81.8527 63.64 81.8527 64.616C81.8527 65.576 82.0127 66.456 82.3327 67.256C82.6687 68.04 83.1727 68.664 83.8447 69.128C84.5327 69.592 85.3967 69.824 86.4367 69.824C87.5407 69.824 88.4367 69.576 89.1247 69.08C89.8127 68.568 90.2367 67.968 90.3967 67.28H92.0767C91.9167 68.128 91.5807 68.864 91.0687 69.488C90.5567 70.096 89.9087 70.568 89.1247 70.904C88.3407 71.24 87.4447 71.408 86.4367 71.408ZM95.7577 71V58.304H97.1977V63.608H97.0537C97.0537 61.752 97.4617 60.384 98.2777 59.504C99.0937 58.608 100.374 58.16 102.118 58.16H102.526V59.792H101.782C100.406 59.792 99.3577 60.152 98.6377 60.872C97.9177 61.576 97.5577 62.616 97.5577 63.992V71H95.7577ZM113.119 71V67.184H112.831V62.672C112.831 61.728 112.583 61.008 112.087 60.512C111.591 60 110.823 59.744 109.783 59.744C109.303 59.744 108.815 59.752 108.319 59.768C107.839 59.784 107.375 59.808 106.927 59.84C106.495 59.856 106.111 59.88 105.775 59.912V58.328C106.127 58.296 106.487 58.264 106.855 58.232C107.223 58.2 107.599 58.184 107.983 58.184C108.383 58.168 108.767 58.16 109.135 58.16C110.431 58.16 111.471 58.32 112.255 58.64C113.055 58.96 113.639 59.464 114.007 60.152C114.375 60.824 114.559 61.72 114.559 62.84V71H113.119ZM108.823 71.336C107.927 71.336 107.135 71.176 106.447 70.856C105.759 70.536 105.223 70.072 104.839 69.464C104.471 68.856 104.287 68.12 104.287 67.256C104.287 66.408 104.479 65.688 104.863 65.096C105.263 64.504 105.831 64.056 106.567 63.752C107.319 63.432 108.223 63.272 109.279 63.272H112.999V64.64H109.159C108.151 64.64 107.375 64.888 106.831 65.384C106.303 65.864 106.039 66.496 106.039 67.28C106.039 68.08 106.319 68.72 106.879 69.2C107.439 69.664 108.199 69.896 109.159 69.896C109.751 69.896 110.319 69.792 110.863 69.584C111.407 69.36 111.863 68.992 112.231 68.48C112.599 67.952 112.799 67.232 112.831 66.32L113.359 67.064C113.295 68.008 113.071 68.8 112.687 69.44C112.303 70.064 111.783 70.536 111.127 70.856C110.471 71.176 109.703 71.336 108.823 71.336ZM123.663 71.144C122.783 71.144 122.023 71.016 121.383 70.76C120.743 70.504 120.247 70.072 119.895 69.464C119.543 68.84 119.367 68.008 119.367 66.968V54.296H121.095V67.232C121.095 67.968 121.295 68.536 121.695 68.936C122.095 69.32 122.663 69.512 123.399 69.512H125.679V71.144H123.663ZM117.087 59.672V58.304H125.679V59.672H117.087ZM129.828 71V58.304H131.604V71H129.828ZM127.788 59.744V58.304H131.604V59.744H127.788ZM130.212 55.952C129.78 55.952 129.452 55.84 129.228 55.616C129.02 55.376 128.916 55.08 128.916 54.728C128.916 54.376 129.02 54.088 129.228 53.864C129.452 53.624 129.78 53.504 130.212 53.504C130.644 53.504 130.964 53.624 131.172 53.864C131.38 54.088 131.484 54.376 131.484 54.728C131.484 55.08 131.38 55.376 131.172 55.616C130.964 55.84 130.644 55.952 130.212 55.952ZM142.016 71.408C140.928 71.408 139.968 71.224 139.136 70.856C138.32 70.472 137.624 69.968 137.048 69.344C136.488 68.704 136.056 67.992 135.752 67.208C135.464 66.424 135.32 65.624 135.32 64.808V64.472C135.32 63.656 135.472 62.856 135.776 62.072C136.08 61.272 136.52 60.56 137.096 59.936C137.672 59.312 138.368 58.816 139.184 58.448C140.016 58.064 140.96 57.872 142.016 57.872C143.088 57.872 144.032 58.064 144.848 58.448C145.68 58.816 146.384 59.312 146.96 59.936C147.536 60.56 147.968 61.272 148.256 62.072C148.56 62.856 148.712 63.656 148.712 64.472V64.808C148.712 65.624 148.568 66.424 148.28 67.208C147.992 67.992 147.56 68.704 146.984 69.344C146.424 69.968 145.728 70.472 144.896 70.856C144.064 71.224 143.104 71.408 142.016 71.408ZM142.016 69.8C143.072 69.8 143.96 69.568 144.68 69.104C145.416 68.624 145.976 68 146.36 67.232C146.744 66.448 146.936 65.584 146.936 64.64C146.936 63.68 146.736 62.816 146.336 62.048C145.952 61.264 145.392 60.648 144.656 60.2C143.92 59.736 143.04 59.504 142.016 59.504C141.008 59.504 140.136 59.736 139.4 60.2C138.664 60.648 138.096 61.264 137.696 62.048C137.312 62.816 137.12 63.68 137.12 64.64C137.12 65.584 137.312 66.448 137.696 67.232C138.08 68 138.632 68.624 139.352 69.104C140.088 69.568 140.976 69.8 142.016 69.8ZM152.383 71V58.304H153.823V63.632H153.535C153.535 62.448 153.711 61.432 154.063 60.584C154.415 59.736 154.943 59.08 155.647 58.616C156.351 58.152 157.239 57.92 158.311 57.92H158.383C159.983 57.92 161.175 58.424 161.959 59.432C162.743 60.424 163.135 61.824 163.135 63.632V71H161.359V63.248C161.359 62.144 161.055 61.256 160.447 60.584C159.839 59.912 158.991 59.576 157.903 59.576C156.783 59.576 155.879 59.928 155.191 60.632C154.519 61.32 154.183 62.232 154.183 63.368V71H152.383ZM177.203 75.368C176.355 74.392 175.595 73.328 174.923 72.176C174.267 71.04 173.755 69.784 173.387 68.408C173.035 67.016 172.859 65.472 172.859 63.776C172.859 62.096 173.043 60.568 173.411 59.192C173.779 57.816 174.291 56.568 174.947 55.448C175.603 54.328 176.355 53.304 177.203 52.376H179.267C178.275 53.464 177.435 54.584 176.747 55.736C176.059 56.872 175.531 58.104 175.163 59.432C174.795 60.744 174.611 62.192 174.611 63.776C174.611 65.376 174.787 66.848 175.139 68.192C175.507 69.52 176.035 70.768 176.723 71.936C177.427 73.104 178.275 74.248 179.267 75.368H177.203ZM186.086 71.36C184.454 71.36 183.198 71.008 182.318 70.304C181.438 69.584 180.99 68.624 180.974 67.424H182.654C182.686 68.032 182.958 68.584 183.47 69.08C183.998 69.576 184.87 69.824 186.086 69.824C187.222 69.824 188.07 69.592 188.63 69.128C189.206 68.648 189.494 68.072 189.494 67.4C189.494 66.776 189.254 66.296 188.774 65.96C188.31 65.608 187.63 65.384 186.734 65.288L185.294 65.144C184.142 65.016 183.206 64.664 182.486 64.088C181.782 63.496 181.43 62.688 181.43 61.664C181.43 60.912 181.622 60.256 182.006 59.696C182.39 59.136 182.926 58.704 183.614 58.4C184.318 58.08 185.142 57.92 186.086 57.92C187.446 57.92 188.55 58.24 189.398 58.88C190.262 59.52 190.702 60.432 190.718 61.616H189.038C189.022 61.008 188.766 60.496 188.27 60.08C187.774 59.664 187.046 59.456 186.086 59.456C185.094 59.456 184.35 59.672 183.854 60.104C183.374 60.536 183.134 61.064 183.134 61.688C183.134 62.216 183.318 62.656 183.686 63.008C184.054 63.344 184.63 63.552 185.414 63.632L186.854 63.776C188.134 63.92 189.174 64.288 189.974 64.88C190.79 65.472 191.198 66.32 191.198 67.424C191.198 68.176 190.982 68.856 190.55 69.464C190.134 70.056 189.542 70.52 188.774 70.856C188.006 71.192 187.11 71.36 186.086 71.36ZM194.622 75.368H192.558C193.55 74.248 194.39 73.104 195.078 71.936C195.782 70.768 196.31 69.52 196.662 68.192C197.03 66.848 197.214 65.376 197.214 63.776C197.214 62.192 197.03 60.744 196.662 59.432C196.294 58.104 195.766 56.872 195.078 55.736C194.39 54.584 193.55 53.464 192.558 52.376H194.622C195.47 53.304 196.222 54.328 196.878 55.448C197.534 56.568 198.046 57.816 198.414 59.192C198.782 60.568 198.966 62.096 198.966 63.776C198.966 65.472 198.782 67.016 198.414 68.408C198.062 69.784 197.55 71.04 196.878 72.176C196.222 73.328 195.47 74.392 194.622 75.368Z" fill="#0C071D"/>
</g>
<defs>
<clipPath id="clip0_488_64">
<rect width="649" height="78" fill="white"/>
</clipPath>
</defs>
</svg>
