<svg width="362" height="78" viewBox="0 0 362 78" fill="none" xmlns="http://www.w3.org/2000/svg">
<g clip-path="url(#clip0_492_118)">
<path d="M22.032 67L13.296 54.808H9.408L20.496 40.936H27.456L17.232 53.752L17.376 50.392L29.568 67H22.032ZM3.792 67V31.96H10.464V67H3.792ZM321.276 67V40.936H326.556V51.976H326.412C326.412 48.232 327.212 45.4 328.812 43.48C330.412 41.56 332.764 40.6 335.868 40.6H336.828V46.408H335.004C332.764 46.408 331.02 47.016 329.772 48.232C328.556 49.416 327.948 51.144 327.948 53.416V67H321.276Z" fill="#F79327"/>
<path d="M60.8558 75.736C59.2878 73.784 57.9118 71.672 56.7278 69.4C55.5438 67.128 54.6318 64.616 53.9918 61.864C53.3518 59.08 53.0318 55.96 53.0318 52.504C53.0318 49.016 53.3678 45.912 54.0398 43.192C54.7118 40.44 55.6558 37.976 56.8718 35.8C58.0878 33.592 59.4638 31.576 60.9998 29.752H68.4398C66.7118 31.864 65.1758 34.072 63.8318 36.376C62.4878 38.68 61.4478 41.16 60.7118 43.816C59.9758 46.472 59.6078 49.368 59.6078 52.504C59.6078 55.608 59.9118 58.504 60.5198 61.192C61.1598 63.88 62.1358 66.424 63.4478 68.824C64.7598 71.224 66.4238 73.528 68.4398 75.736H60.8558ZM96.2183 67V31.96H103.034V67H96.2183ZM73.2263 67V31.96H80.0423V67H73.2263ZM78.7943 52.456V46.456H97.4663V52.456H78.7943ZM117.856 75.736C116.288 73.784 114.912 71.672 113.728 69.4C112.544 67.128 111.632 64.616 110.992 61.864C110.352 59.08 110.032 55.96 110.032 52.504C110.032 49.016 110.368 45.912 111.04 43.192C111.712 40.44 112.656 37.976 113.872 35.8C115.088 33.592 116.464 31.576 118 29.752H125.44C123.712 31.864 122.176 34.072 120.832 36.376C119.488 38.68 118.448 41.16 117.712 43.816C116.976 46.472 116.608 49.368 116.608 52.504C116.608 55.608 116.912 58.504 117.52 61.192C118.16 63.88 119.136 66.424 120.448 68.824C121.76 71.224 123.424 73.528 125.44 75.736H117.856ZM129.698 67V40.936H134.978V52.12H134.498C134.498 49.496 134.834 47.304 135.506 45.544C136.178 43.752 137.17 42.408 138.482 41.512C139.826 40.584 141.49 40.12 143.474 40.12H143.762C145.778 40.12 147.442 40.584 148.754 41.512C150.098 42.408 151.09 43.752 151.73 45.544C152.402 47.304 152.738 49.496 152.738 52.12H151.058C151.058 49.496 151.394 47.304 152.066 45.544C152.77 43.752 153.778 42.408 155.09 41.512C156.434 40.584 158.098 40.12 160.082 40.12H160.37C162.386 40.12 164.066 40.584 165.41 41.512C166.754 42.408 167.762 43.752 168.434 45.544C169.138 47.304 169.49 49.496 169.49 52.12V67H162.818V51.496C162.818 49.864 162.402 48.568 161.57 47.608C160.738 46.616 159.554 46.12 158.018 46.12C156.482 46.12 155.25 46.632 154.322 47.656C153.394 48.648 152.93 49.992 152.93 51.688V67H146.258V51.496C146.258 49.864 145.842 48.568 145.01 47.608C144.178 46.616 142.994 46.12 141.458 46.12C139.922 46.12 138.69 46.632 137.762 47.656C136.834 48.648 136.37 49.992 136.37 51.688V67H129.698ZM179.955 75.736H172.371C174.387 73.528 176.051 71.224 177.363 68.824C178.675 66.424 179.635 63.88 180.243 61.192C180.883 58.504 181.203 55.608 181.203 52.504C181.203 49.368 180.835 46.472 180.099 43.816C179.363 41.16 178.323 38.68 176.979 36.376C175.635 34.072 174.099 31.864 172.371 29.752H179.811C181.347 31.576 182.723 33.592 183.939 35.8C185.155 37.976 186.099 40.44 186.771 43.192C187.443 45.912 187.779 49.016 187.779 52.504C187.779 55.96 187.459 59.08 186.819 61.864C186.179 64.616 185.267 67.128 184.083 69.4C182.899 71.672 181.523 73.784 179.955 75.736ZM222.5 62.344V38.632H228.356V62.344H222.5ZM213.812 53.176V47.8H237.044V53.176H213.812ZM275.847 67.912C273.607 67.912 271.639 67.528 269.943 66.76C268.279 65.992 266.887 64.968 265.767 63.688C264.679 62.376 263.847 60.92 263.271 59.32C262.727 57.72 262.455 56.088 262.455 54.424V53.512C262.455 51.784 262.727 50.12 263.271 48.52C263.847 46.888 264.679 45.448 265.767 44.2C266.887 42.92 268.263 41.912 269.895 41.176C271.527 40.408 273.415 40.024 275.559 40.024C278.375 40.024 280.727 40.648 282.615 41.896C284.535 43.112 285.975 44.728 286.935 46.744C287.895 48.728 288.375 50.872 288.375 53.176V55.576H265.287V51.496H284.199L282.135 53.512C282.135 51.848 281.895 50.424 281.415 49.24C280.935 48.056 280.199 47.144 279.207 46.504C278.247 45.864 277.031 45.544 275.559 45.544C274.087 45.544 272.839 45.88 271.815 46.552C270.791 47.224 270.007 48.2 269.463 49.48C268.951 50.728 268.695 52.232 268.695 53.992C268.695 55.624 268.951 57.08 269.463 58.36C269.975 59.608 270.759 60.6 271.815 61.336C272.871 62.04 274.215 62.392 275.847 62.392C277.479 62.392 278.807 62.072 279.831 61.432C280.855 60.76 281.511 59.944 281.799 58.984H287.943C287.559 60.776 286.823 62.344 285.735 63.688C284.647 65.032 283.255 66.072 281.559 66.808C279.895 67.544 277.991 67.912 275.847 67.912ZM312.86 49.384L305.564 44.104V38.92L312.86 33.64L315.5 38.296L309.5 40.792V42.232L315.5 44.728L312.86 49.384ZM305.804 29.464L304.892 38.44L300.38 41.032L292.172 37.336L294.86 32.728L300.044 36.664L301.292 35.944L300.428 29.512L305.804 29.464ZM292.172 45.688L300.38 41.992L304.892 44.584L305.804 53.56L300.476 53.464L301.292 47.08L300.044 46.36L294.86 50.248L292.172 45.688ZM345.095 75.736H337.511C339.527 73.528 341.191 71.224 342.503 68.824C343.815 66.424 344.775 63.88 345.383 61.192C346.023 58.504 346.343 55.608 346.343 52.504C346.343 49.368 345.975 46.472 345.239 43.816C344.503 41.16 343.463 38.68 342.119 36.376C340.775 34.072 339.239 31.864 337.511 29.752H344.951C346.487 31.576 347.863 33.592 349.079 35.8C350.295 37.976 351.239 40.44 351.911 43.192C352.583 45.912 352.919 49.016 352.919 52.504C352.919 55.96 352.599 59.08 351.959 61.864C351.319 64.616 350.407 67.128 349.223 69.4C348.039 71.672 346.663 73.784 345.095 75.736Z" fill="#0C071D" fill-opacity="0.67"/>
<path d="M17.864 32.128V28.24H28.376V32.128H17.864ZM33.2184 37V22.552L34.2744 23.368H29.9544V19.48H37.6824V37H33.2184Z" fill="#F79327"/>
</g>
<defs>
<clipPath id="clip0_492_118">
<rect width="362" height="78" fill="white"/>
</clipPath>
</defs>
</svg>
