<svg width="1847" height="82" viewBox="0 0 1847 82" fill="none" xmlns="http://www.w3.org/2000/svg">
<path d="M29.424 47V6.12H37.208V29.976H35.864C35.864 26.9147 36.256 24.32 37.04 22.192C37.824 20.064 38.9813 18.44 40.512 17.32C42.08 16.2 44.0587 15.64 46.448 15.64H46.784C50.256 15.64 52.888 16.8347 54.68 19.224C56.472 21.6133 57.368 25.0853 57.368 29.64V47H49.584V28.912C49.584 26.9707 49.024 25.44 47.904 24.32C46.8213 23.2 45.384 22.64 43.592 22.64C41.688 22.64 40.1387 23.2747 38.944 24.544C37.7867 25.776 37.208 27.4 37.208 29.416V47H29.424ZM79.3445 48.064C76.7312 48.064 74.4352 47.616 72.4565 46.72C70.5152 45.824 68.8912 44.6293 67.5845 43.136C66.3152 41.6053 65.3445 39.9067 64.6725 38.04C64.0378 36.1733 63.7205 34.2693 63.7205 32.328V31.264C63.7205 29.248 64.0378 27.3067 64.6725 25.44C65.3445 23.536 66.3152 21.856 67.5845 20.4C68.8912 18.9067 70.4965 17.7307 72.4005 16.872C74.3045 15.976 76.5072 15.528 79.0085 15.528C82.2938 15.528 85.0378 16.256 87.2405 17.712C89.4805 19.1307 91.1605 21.016 92.2805 23.368C93.4005 25.6827 93.9605 28.184 93.9605 30.872V33.672H67.0245V28.912H89.0885L86.6805 31.264C86.6805 29.3227 86.4005 27.6613 85.8405 26.28C85.2805 24.8987 84.4218 23.8347 83.2645 23.088C82.1445 22.3413 80.7258 21.968 79.0085 21.968C77.2912 21.968 75.8352 22.36 74.6405 23.144C73.4458 23.928 72.5312 25.0667 71.8965 26.56C71.2992 28.016 71.0005 29.7707 71.0005 31.824C71.0005 33.728 71.2992 35.4267 71.8965 36.92C72.4938 38.376 73.4085 39.5333 74.6405 40.392C75.8725 41.2133 77.4405 41.624 79.3445 41.624C81.2485 41.624 82.7978 41.2507 83.9925 40.504C85.1872 39.72 85.9525 38.768 86.2885 37.648H93.4565C93.0085 39.7387 92.1498 41.568 90.8805 43.136C89.6112 44.704 87.9872 45.9173 86.0085 46.776C84.0672 47.6347 81.8458 48.064 79.3445 48.064ZM100.855 47V6.12H108.639V47H100.855ZM97.0471 11.944V6.12H108.639V11.944H97.0471ZM117.918 47V6.12H125.702V47H117.918ZM114.11 11.944V6.12H125.702V11.944H114.11ZM149.204 48.064C146.516 48.064 144.145 47.6347 142.092 46.776C140.039 45.9173 138.303 44.76 136.884 43.304C135.465 41.8107 134.383 40.1307 133.636 38.264C132.927 36.3973 132.572 34.456 132.572 32.44V31.264C132.572 29.1733 132.945 27.1947 133.692 25.328C134.476 23.424 135.577 21.744 136.996 20.288C138.452 18.7947 140.207 17.6373 142.26 16.816C144.313 15.9573 146.628 15.528 149.204 15.528C151.78 15.528 154.095 15.9573 156.148 16.816C158.201 17.6373 159.937 18.7947 161.356 20.288C162.812 21.744 163.913 23.424 164.66 25.328C165.407 27.1947 165.78 29.1733 165.78 31.264V32.44C165.78 34.456 165.407 36.3973 164.66 38.264C163.951 40.1307 162.887 41.8107 161.468 43.304C160.049 44.76 158.313 45.9173 156.26 46.776C154.207 47.6347 151.855 48.064 149.204 48.064ZM149.204 41.4C151.108 41.4 152.713 40.9893 154.02 40.168C155.327 39.3093 156.316 38.1707 156.988 36.752C157.66 35.296 157.996 33.6533 157.996 31.824C157.996 29.9573 157.641 28.3147 156.932 26.896C156.26 25.44 155.252 24.3013 153.908 23.48C152.601 22.6213 151.033 22.192 149.204 22.192C147.375 22.192 145.788 22.6213 144.444 23.48C143.137 24.3013 142.129 25.44 141.42 26.896C140.711 28.3147 140.356 29.9573 140.356 31.824C140.356 33.6533 140.692 35.296 141.364 36.752C142.073 38.1707 143.081 39.3093 144.388 40.168C145.695 40.9893 147.3 41.4 149.204 41.4Z" fill="#0C071D"/>
<path opacity="0.67" d="M29.9757 71V58.28H31.4157V63.632H31.1277C31.1277 62.464 31.2877 61.456 31.6077 60.608C31.9437 59.76 32.4397 59.104 33.0957 58.64C33.7517 58.16 34.5837 57.92 35.5917 57.92H35.6637C36.6717 57.92 37.5037 58.152 38.1597 58.616C38.8157 59.08 39.3037 59.736 39.6237 60.584C39.9437 61.432 40.1037 62.448 40.1037 63.632H39.5277C39.5277 62.464 39.6877 61.456 40.0077 60.608C40.3437 59.76 40.8397 59.104 41.4957 58.64C42.1677 58.16 43.0077 57.92 44.0157 57.92H44.0877C45.0957 57.92 45.9277 58.152 46.5837 58.616C47.2557 59.08 47.7517 59.736 48.0717 60.584C48.4077 61.432 48.5757 62.448 48.5757 63.632V71H46.7757V63.224C46.7757 62.104 46.5037 61.216 45.9597 60.56C45.4157 59.904 44.6317 59.576 43.6077 59.576C42.5517 59.576 41.7117 59.92 41.0877 60.608C40.4797 61.28 40.1757 62.192 40.1757 63.344V71H38.3757V63.224C38.3757 62.104 38.1037 61.216 37.5597 60.56C37.0157 59.904 36.2317 59.576 35.2077 59.576C34.1517 59.576 33.3117 59.92 32.6877 60.608C32.0797 61.28 31.7757 62.192 31.7757 63.344V71H29.9757ZM58.3656 71.408C57.2776 71.408 56.3336 71.224 55.5336 70.856C54.7336 70.472 54.0776 69.968 53.5656 69.344C53.0536 68.704 52.6696 67.992 52.4136 67.208C52.1736 66.424 52.0536 65.616 52.0536 64.784V64.448C52.0536 63.632 52.1736 62.832 52.4136 62.048C52.6696 61.264 53.0536 60.56 53.5656 59.936C54.0776 59.312 54.7176 58.816 55.4856 58.448C56.2696 58.064 57.1816 57.872 58.2216 57.872C59.5496 57.872 60.6536 58.168 61.5336 58.76C62.4296 59.352 63.1016 60.112 63.5496 61.04C63.9976 61.952 64.2216 62.936 64.2216 63.992V64.928H52.8696V63.536H62.9736L62.5176 64.232C62.5176 63.288 62.3496 62.464 62.0136 61.76C61.6936 61.04 61.2136 60.48 60.5736 60.08C59.9496 59.664 59.1656 59.456 58.2216 59.456C57.2296 59.456 56.4056 59.688 55.7496 60.152C55.0936 60.616 54.5976 61.232 54.2616 62C53.9416 62.768 53.7816 63.64 53.7816 64.616C53.7816 65.576 53.9416 66.456 54.2616 67.256C54.5976 68.04 55.1016 68.664 55.7736 69.128C56.4616 69.592 57.3256 69.824 58.3656 69.824C59.4696 69.824 60.3656 69.576 61.0536 69.08C61.7416 68.568 62.1656 67.968 62.3256 67.28H64.0056C63.8456 68.128 63.5096 68.864 62.9976 69.488C62.4856 70.096 61.8376 70.568 61.0536 70.904C60.2696 71.24 59.3736 71.408 58.3656 71.408ZM71.6946 71.36C70.0626 71.36 68.8066 71.008 67.9266 70.304C67.0466 69.584 66.5986 68.624 66.5826 67.424H68.2626C68.2946 68.032 68.5666 68.584 69.0786 69.08C69.6066 69.576 70.4786 69.824 71.6946 69.824C72.8306 69.824 73.6786 69.592 74.2386 69.128C74.8146 68.648 75.1026 68.072 75.1026 67.4C75.1026 66.776 74.8626 66.296 74.3826 65.96C73.9186 65.608 73.2386 65.384 72.3426 65.288L70.9026 65.144C69.7506 65.016 68.8146 64.664 68.0946 64.088C67.3906 63.496 67.0386 62.688 67.0386 61.664C67.0386 60.912 67.2306 60.256 67.6146 59.696C67.9986 59.136 68.5346 58.704 69.2226 58.4C69.9266 58.08 70.7506 57.92 71.6946 57.92C73.0546 57.92 74.1586 58.24 75.0066 58.88C75.8706 59.52 76.3106 60.432 76.3266 61.616H74.6466C74.6306 61.008 74.3746 60.496 73.8786 60.08C73.3826 59.664 72.6546 59.456 71.6946 59.456C70.7026 59.456 69.9586 59.672 69.4626 60.104C68.9826 60.536 68.7426 61.064 68.7426 61.688C68.7426 62.216 68.9266 62.656 69.2946 63.008C69.6626 63.344 70.2386 63.552 71.0226 63.632L72.4626 63.776C73.7426 63.92 74.7826 64.288 75.5826 64.88C76.3986 65.472 76.8066 66.32 76.8066 67.424C76.8066 68.176 76.5906 68.856 76.1586 69.464C75.7426 70.056 75.1506 70.52 74.3826 70.856C73.6146 71.192 72.7186 71.36 71.6946 71.36ZM84.3978 71.36C82.7658 71.36 81.5098 71.008 80.6298 70.304C79.7498 69.584 79.3018 68.624 79.2858 67.424H80.9658C80.9978 68.032 81.2698 68.584 81.7818 69.08C82.3098 69.576 83.1818 69.824 84.3978 69.824C85.5338 69.824 86.3818 69.592 86.9418 69.128C87.5178 68.648 87.8058 68.072 87.8058 67.4C87.8058 66.776 87.5658 66.296 87.0858 65.96C86.6218 65.608 85.9418 65.384 85.0458 65.288L83.6058 65.144C82.4538 65.016 81.5178 64.664 80.7978 64.088C80.0938 63.496 79.7418 62.688 79.7418 61.664C79.7418 60.912 79.9338 60.256 80.3178 59.696C80.7018 59.136 81.2378 58.704 81.9258 58.4C82.6298 58.08 83.4538 57.92 84.3978 57.92C85.7578 57.92 86.8618 58.24 87.7098 58.88C88.5738 59.52 89.0138 60.432 89.0298 61.616H87.3498C87.3338 61.008 87.0778 60.496 86.5818 60.08C86.0858 59.664 85.3578 59.456 84.3978 59.456C83.4058 59.456 82.6618 59.672 82.1658 60.104C81.6858 60.536 81.4458 61.064 81.4458 61.688C81.4458 62.216 81.6298 62.656 81.9978 63.008C82.3658 63.344 82.9418 63.552 83.7258 63.632L85.1658 63.776C86.4458 63.92 87.4858 64.288 88.2858 64.88C89.1018 65.472 89.5098 66.32 89.5098 67.424C89.5098 68.176 89.2938 68.856 88.8618 69.464C88.4458 70.056 87.8538 70.52 87.0858 70.856C86.3178 71.192 85.4218 71.36 84.3978 71.36ZM100.821 71V67.184H100.533V62.672C100.533 61.728 100.285 61.008 99.7889 60.512C99.2929 60 98.5249 59.744 97.4849 59.744C97.0049 59.744 96.5169 59.752 96.0209 59.768C95.5409 59.784 95.0769 59.808 94.6289 59.84C94.1969 59.856 93.8129 59.88 93.4769 59.912V58.328C93.8289 58.296 94.1889 58.264 94.5569 58.232C94.9249 58.2 95.3009 58.184 95.6849 58.184C96.0849 58.168 96.4689 58.16 96.8369 58.16C98.1329 58.16 99.1729 58.32 99.9569 58.64C100.757 58.96 101.341 59.464 101.709 60.152C102.077 60.824 102.261 61.72 102.261 62.84V71H100.821ZM96.5249 71.336C95.6289 71.336 94.8369 71.176 94.1489 70.856C93.4609 70.536 92.9249 70.072 92.5409 69.464C92.1729 68.856 91.9889 68.12 91.9889 67.256C91.9889 66.408 92.1809 65.688 92.5649 65.096C92.9649 64.504 93.5329 64.056 94.2689 63.752C95.0209 63.432 95.9249 63.272 96.9809 63.272H100.701V64.64H96.8609C95.8529 64.64 95.0769 64.888 94.5329 65.384C94.0049 65.864 93.7409 66.496 93.7409 67.28C93.7409 68.08 94.0209 68.72 94.5809 69.2C95.1409 69.664 95.9009 69.896 96.8609 69.896C97.4529 69.896 98.0209 69.792 98.5649 69.584C99.1089 69.36 99.5649 68.992 99.9329 68.48C100.301 67.952 100.501 67.232 100.533 66.32L101.061 67.064C100.997 68.008 100.773 68.8 100.389 69.44C100.005 70.064 99.4849 70.536 98.8289 70.856C98.1729 71.176 97.4049 71.336 96.5249 71.336ZM111.605 75.968C111.013 75.968 110.413 75.936 109.805 75.872C109.213 75.824 108.645 75.76 108.101 75.68V74.144C108.677 74.224 109.277 74.288 109.901 74.336C110.541 74.4 111.141 74.432 111.701 74.432C112.917 74.432 113.885 74.272 114.605 73.952C115.325 73.632 115.837 73.12 116.141 72.416C116.461 71.728 116.621 70.816 116.621 69.68V67.136L117.293 65.36C117.261 66.576 117.005 67.624 116.525 68.504C116.045 69.368 115.397 70.032 114.581 70.496C113.765 70.96 112.837 71.192 111.797 71.192C110.885 71.192 110.053 71.016 109.301 70.664C108.565 70.312 107.933 69.832 107.405 69.224C106.877 68.6 106.469 67.896 106.181 67.112C105.893 66.328 105.749 65.504 105.749 64.64V64.304C105.749 63.456 105.893 62.648 106.181 61.88C106.469 61.096 106.877 60.408 107.405 59.816C107.933 59.208 108.573 58.736 109.325 58.4C110.093 58.048 110.941 57.872 111.869 57.872C112.989 57.872 113.965 58.12 114.797 58.616C115.629 59.112 116.277 59.8 116.741 60.68C117.221 61.56 117.477 62.592 117.509 63.776L116.933 63.464V58.304H118.349V69.608C118.349 71.128 118.125 72.352 117.677 73.28C117.229 74.208 116.509 74.888 115.517 75.32C114.541 75.752 113.237 75.968 111.605 75.968ZM112.109 69.536C112.973 69.536 113.741 69.352 114.413 68.984C115.101 68.6 115.645 68.064 116.045 67.376C116.445 66.688 116.645 65.888 116.645 64.976V63.8C116.645 62.92 116.437 62.152 116.021 61.496C115.621 60.84 115.085 60.328 114.413 59.96C113.741 59.592 112.973 59.408 112.109 59.408C111.181 59.408 110.373 59.632 109.685 60.08C108.997 60.528 108.469 61.136 108.101 61.904C107.733 62.656 107.549 63.512 107.549 64.472C107.549 65.448 107.733 66.32 108.101 67.088C108.485 67.856 109.021 68.456 109.709 68.888C110.397 69.32 111.197 69.536 112.109 69.536ZM128.163 71.408C127.075 71.408 126.131 71.224 125.331 70.856C124.531 70.472 123.875 69.968 123.363 69.344C122.851 68.704 122.467 67.992 122.211 67.208C121.971 66.424 121.851 65.616 121.851 64.784V64.448C121.851 63.632 121.971 62.832 122.211 62.048C122.467 61.264 122.851 60.56 123.363 59.936C123.875 59.312 124.515 58.816 125.283 58.448C126.067 58.064 126.979 57.872 128.019 57.872C129.347 57.872 130.451 58.168 131.331 58.76C132.227 59.352 132.899 60.112 133.347 61.04C133.795 61.952 134.019 62.936 134.019 63.992V64.928H122.667V63.536H132.771L132.315 64.232C132.315 63.288 132.147 62.464 131.811 61.76C131.491 61.04 131.011 60.48 130.371 60.08C129.747 59.664 128.963 59.456 128.019 59.456C127.027 59.456 126.203 59.688 125.547 60.152C124.891 60.616 124.395 61.232 124.059 62C123.739 62.768 123.579 63.64 123.579 64.616C123.579 65.576 123.739 66.456 124.059 67.256C124.395 68.04 124.899 68.664 125.571 69.128C126.259 69.592 127.123 69.824 128.163 69.824C129.267 69.824 130.163 69.576 130.851 69.08C131.539 68.568 131.963 67.968 132.123 67.28H133.803C133.643 68.128 133.307 68.864 132.795 69.488C132.283 70.096 131.635 70.568 130.851 70.904C130.067 71.24 129.171 71.408 128.163 71.408ZM137.295 74.672L135.831 74.144L137.919 68.36L139.431 68.912L137.295 74.672ZM147.515 71.36C145.883 71.36 144.627 71.008 143.747 70.304C142.867 69.584 142.419 68.624 142.403 67.424H144.083C144.115 68.032 144.387 68.584 144.899 69.08C145.427 69.576 146.299 69.824 147.515 69.824C148.651 69.824 149.499 69.592 150.059 69.128C150.635 68.648 150.923 68.072 150.923 67.4C150.923 66.776 150.683 66.296 150.203 65.96C149.739 65.608 149.059 65.384 148.163 65.288L146.723 65.144C145.571 65.016 144.635 64.664 143.915 64.088C143.211 63.496 142.859 62.688 142.859 61.664C142.859 60.912 143.051 60.256 143.435 59.696C143.819 59.136 144.355 58.704 145.043 58.4C145.747 58.08 146.571 57.92 147.515 57.92C148.875 57.92 149.979 58.24 150.827 58.88C151.691 59.52 152.131 60.432 152.147 61.616H150.467C150.451 61.008 150.195 60.496 149.699 60.08C149.203 59.664 148.475 59.456 147.515 59.456C146.523 59.456 145.779 59.672 145.283 60.104C144.803 60.536 144.563 61.064 144.563 61.688C144.563 62.216 144.747 62.656 145.115 63.008C145.483 63.344 146.059 63.552 146.843 63.632L148.283 63.776C149.563 63.92 150.603 64.288 151.403 64.88C152.219 65.472 152.627 66.32 152.627 67.424C152.627 68.176 152.411 68.856 151.979 69.464C151.563 70.056 150.971 70.52 150.203 70.856C149.435 71.192 148.539 71.36 147.515 71.36ZM160.818 71.144C159.938 71.144 159.178 71.016 158.538 70.76C157.898 70.504 157.402 70.072 157.05 69.464C156.698 68.84 156.522 68.008 156.522 66.968V54.296H158.25V67.232C158.25 67.968 158.45 68.536 158.85 68.936C159.25 69.32 159.818 69.512 160.554 69.512H162.834V71.144H160.818ZM154.242 59.672V58.304H162.834V59.672H154.242ZM166.312 71V58.304H167.752V63.608H167.608C167.608 61.752 168.016 60.384 168.832 59.504C169.648 58.608 170.928 58.16 172.672 58.16H173.08V59.792H172.336C170.96 59.792 169.912 60.152 169.192 60.872C168.472 61.576 168.112 62.616 168.112 63.992V71H166.312ZM176.663 71V58.304H178.439V71H176.663ZM174.623 59.744V58.304H178.439V59.744H174.623ZM177.047 55.952C176.615 55.952 176.287 55.84 176.063 55.616C175.855 55.376 175.751 55.08 175.751 54.728C175.751 54.376 175.855 54.088 176.063 53.864C176.287 53.624 176.615 53.504 177.047 53.504C177.479 53.504 177.799 53.624 178.007 53.864C178.215 54.088 178.319 54.376 178.319 54.728C178.319 55.08 178.215 55.376 178.007 55.616C177.799 55.84 177.479 55.952 177.047 55.952ZM183.163 71V58.304H184.603V63.632H184.315C184.315 62.448 184.491 61.432 184.843 60.584C185.195 59.736 185.723 59.08 186.427 58.616C187.131 58.152 188.019 57.92 189.091 57.92H189.163C190.763 57.92 191.955 58.424 192.739 59.432C193.523 60.424 193.915 61.824 193.915 63.632V71H192.139V63.248C192.139 62.144 191.835 61.256 191.227 60.584C190.619 59.912 189.771 59.576 188.683 59.576C187.563 59.576 186.659 59.928 185.971 60.632C185.299 61.32 184.963 62.232 184.963 63.368V71H183.163ZM203.246 75.968C202.654 75.968 202.054 75.936 201.446 75.872C200.854 75.824 200.286 75.76 199.742 75.68V74.144C200.318 74.224 200.918 74.288 201.542 74.336C202.182 74.4 202.782 74.432 203.342 74.432C204.558 74.432 205.526 74.272 206.246 73.952C206.966 73.632 207.478 73.12 207.782 72.416C208.102 71.728 208.262 70.816 208.262 69.68V67.136L208.934 65.36C208.902 66.576 208.646 67.624 208.166 68.504C207.686 69.368 207.038 70.032 206.222 70.496C205.406 70.96 204.478 71.192 203.438 71.192C202.526 71.192 201.694 71.016 200.942 70.664C200.206 70.312 199.574 69.832 199.046 69.224C198.518 68.6 198.11 67.896 197.822 67.112C197.534 66.328 197.39 65.504 197.39 64.64V64.304C197.39 63.456 197.534 62.648 197.822 61.88C198.11 61.096 198.518 60.408 199.046 59.816C199.574 59.208 200.214 58.736 200.966 58.4C201.734 58.048 202.582 57.872 203.51 57.872C204.63 57.872 205.606 58.12 206.438 58.616C207.27 59.112 207.918 59.8 208.382 60.68C208.862 61.56 209.118 62.592 209.15 63.776L208.574 63.464V58.304H209.99V69.608C209.99 71.128 209.766 72.352 209.318 73.28C208.87 74.208 208.15 74.888 207.158 75.32C206.182 75.752 204.878 75.968 203.246 75.968ZM203.75 69.536C204.614 69.536 205.382 69.352 206.054 68.984C206.742 68.6 207.286 68.064 207.686 67.376C208.086 66.688 208.286 65.888 208.286 64.976V63.8C208.286 62.92 208.078 62.152 207.662 61.496C207.262 60.84 206.726 60.328 206.054 59.96C205.382 59.592 204.614 59.408 203.75 59.408C202.822 59.408 202.014 59.632 201.326 60.08C200.638 60.528 200.11 61.136 199.742 61.904C199.374 62.656 199.19 63.512 199.19 64.472C199.19 65.448 199.374 66.32 199.742 67.088C200.126 67.856 200.662 68.456 201.35 68.888C202.038 69.32 202.838 69.536 203.75 69.536Z" fill="#0C071D"/>
<path d="M329.768 46.7678C330.744 45.7915 330.744 44.2085 329.768 43.2322L313.858 27.3223C312.881 26.346 311.298 26.346 310.322 27.3223C309.346 28.2986 309.346 29.8816 310.322 30.8579L324.464 45L310.322 59.1421C309.346 60.1184 309.346 61.7014 310.322 62.6777C311.298 63.654 312.881 63.654 313.858 62.6777L329.768 46.7678ZM245 47.5H328V42.5H245V47.5Z" fill="#F79327"/>
<path d="M381.224 48.064C378.013 48.064 375.288 47.5413 373.048 46.496C370.808 45.4133 368.979 43.9573 367.56 42.128C366.141 40.2613 365.096 38.1333 364.424 35.744C363.789 33.3173 363.472 30.7787 363.472 28.128V24.992C363.472 21.2213 364.107 17.824 365.376 14.8C366.645 11.776 368.587 9.38667 371.2 7.632C373.813 5.84 377.155 4.944 381.224 4.944C385.256 4.944 388.579 5.84 391.192 7.632C393.805 9.38667 395.728 11.776 396.96 14.8C398.229 17.824 398.864 21.2213 398.864 24.992V28.128C398.864 30.7787 398.528 33.3173 397.856 35.744C397.221 38.1333 396.195 40.2613 394.776 42.128C393.395 43.9573 391.584 45.4133 389.344 46.496C387.104 47.5413 384.397 48.064 381.224 48.064ZM381.224 40.784C384.547 40.784 386.992 39.6453 388.56 37.368C390.128 35.0533 390.912 31.4693 390.912 26.616C390.912 21.464 390.109 17.7867 388.504 15.584C386.899 13.344 384.472 12.224 381.224 12.224C377.939 12.224 375.475 13.344 373.832 15.584C372.227 17.7867 371.424 21.4267 371.424 26.504C371.424 31.3947 372.227 34.9973 373.832 37.312C375.437 39.6267 377.901 40.784 381.224 40.784ZM403.28 47L413.192 30.76L413.024 32.048L403.672 16.592H412.128L418.232 27.288H419.072L424.84 16.592H432.792L423.944 31.992L424.112 30.872L434.584 47H426.128L418.904 35.52H418.064L411.232 47H403.28ZM455.131 48.176C452.107 48.176 449.531 47.672 447.403 46.664C445.313 45.6187 443.614 44.2 442.307 42.408C441.001 40.616 440.049 38.544 439.451 36.192C438.854 33.8027 438.555 31.2827 438.555 28.632V26.168C438.555 19.4853 440.235 14.4267 443.595 10.992C446.993 7.52 451.958 5.784 458.491 5.784C459.91 5.784 461.235 5.82133 462.467 5.896C463.699 5.97066 464.931 6.08266 466.163 6.232V12.896C464.931 12.7467 463.662 12.6347 462.355 12.56C461.086 12.4853 459.705 12.448 458.211 12.448C455.075 12.448 452.611 12.9893 450.819 14.072C449.027 15.1547 447.739 16.7413 446.955 18.832C446.209 20.9227 445.835 23.5173 445.835 26.616V30.256L444.043 32.832C444.081 29.9573 444.641 27.5867 445.723 25.72C446.843 23.816 448.374 22.3973 450.315 21.464C452.257 20.4933 454.478 20.008 456.979 20.008C459.891 20.008 462.374 20.5867 464.427 21.744C466.481 22.9013 468.049 24.5067 469.131 26.56C470.251 28.6133 470.811 31.0027 470.811 33.728C470.811 36.5653 470.177 39.0853 468.907 41.288C467.638 43.4533 465.827 45.152 463.475 46.384C461.161 47.5787 458.379 48.176 455.131 48.176ZM454.963 41.512C456.718 41.512 458.211 41.1947 459.443 40.56C460.675 39.888 461.609 38.9733 462.243 37.816C462.878 36.6587 463.195 35.3333 463.195 33.84C463.195 32.3093 462.878 30.9653 462.243 29.808C461.646 28.6507 460.75 27.7547 459.555 27.12C458.361 26.4853 456.923 26.168 455.243 26.168C453.638 26.168 452.163 26.4667 450.819 27.064C449.513 27.624 448.467 28.4827 447.683 29.64C446.937 30.76 446.563 32.16 446.563 33.84C446.563 35.296 446.862 36.6027 447.459 37.76C448.094 38.9173 449.027 39.832 450.259 40.504C451.529 41.176 453.097 41.512 454.963 41.512ZM491.516 48.12C488.38 48.12 485.618 47.616 483.228 46.608C480.839 45.6 478.972 44.1627 477.628 42.296C476.284 40.4293 475.612 38.208 475.612 35.632C475.612 33.9147 475.911 32.4027 476.508 31.096C477.106 29.752 477.927 28.6133 478.972 27.68C480.018 26.7093 481.25 25.9813 482.668 25.496V24.824C481.586 24.3387 480.596 23.704 479.7 22.92C478.842 22.136 478.151 21.184 477.628 20.064C477.143 18.944 476.9 17.656 476.9 16.2C476.9 13.736 477.535 11.6827 478.804 10.04C480.111 8.36 481.866 7.10933 484.068 6.288C486.308 5.42933 488.791 5 491.516 5C494.279 5 496.762 5.42933 498.964 6.288C501.204 7.10933 502.959 8.36 504.228 10.04C505.535 11.6827 506.188 13.736 506.188 16.2C506.188 17.656 505.927 18.944 505.404 20.064C504.919 21.184 504.247 22.136 503.388 22.92C502.53 23.704 501.54 24.3387 500.42 24.824V25.496C501.839 25.9813 503.071 26.7093 504.116 27.68C505.199 28.6507 506.02 29.808 506.58 31.152C507.178 32.4587 507.476 33.952 507.476 35.632C507.476 38.208 506.804 40.4293 505.46 42.296C504.154 44.1627 502.306 45.6 499.916 46.608C497.527 47.616 494.727 48.12 491.516 48.12ZM491.516 41.568C493.234 41.568 494.708 41.3067 495.94 40.784C497.172 40.2613 498.124 39.496 498.796 38.488C499.468 37.48 499.804 36.2667 499.804 34.848C499.804 33.4293 499.468 32.2347 498.796 31.264C498.162 30.256 497.21 29.4907 495.94 28.968C494.708 28.4453 493.234 28.184 491.516 28.184C489.836 28.184 488.38 28.4453 487.148 28.968C485.916 29.4907 484.964 30.256 484.292 31.264C483.62 32.2347 483.284 33.4293 483.284 34.848C483.284 36.2667 483.62 37.48 484.292 38.488C484.964 39.496 485.916 40.2613 487.148 40.784C488.38 41.3067 489.836 41.568 491.516 41.568ZM491.516 22.248C493.682 22.248 495.38 21.8 496.612 20.904C497.882 19.9707 498.516 18.6267 498.516 16.872C498.516 15.0427 497.882 13.6987 496.612 12.84C495.343 11.9813 493.644 11.552 491.516 11.552C489.388 11.552 487.69 12 486.42 12.896C485.188 13.7547 484.572 15.08 484.572 16.872C484.572 18.6267 485.207 19.9707 486.476 20.904C487.746 21.8 489.426 22.248 491.516 22.248ZM529.889 48.176C526.865 48.176 524.289 47.672 522.161 46.664C520.07 45.6187 518.372 44.2 517.065 42.408C515.758 40.616 514.806 38.544 514.209 36.192C513.612 33.8027 513.313 31.2827 513.313 28.632V26.168C513.313 19.4853 514.993 14.4267 518.353 10.992C521.75 7.52 526.716 5.784 533.249 5.784C534.668 5.784 535.993 5.82133 537.225 5.896C538.457 5.97066 539.689 6.08266 540.921 6.232V12.896C539.689 12.7467 538.42 12.6347 537.113 12.56C535.844 12.4853 534.462 12.448 532.969 12.448C529.833 12.448 527.369 12.9893 525.577 14.072C523.785 15.1547 522.497 16.7413 521.713 18.832C520.966 20.9227 520.593 23.5173 520.593 26.616V30.256L518.801 32.832C518.838 29.9573 519.398 27.5867 520.481 25.72C521.601 23.816 523.132 22.3973 525.073 21.464C527.014 20.4933 529.236 20.008 531.737 20.008C534.649 20.008 537.132 20.5867 539.185 21.744C541.238 22.9013 542.806 24.5067 543.889 26.56C545.009 28.6133 545.569 31.0027 545.569 33.728C545.569 36.5653 544.934 39.0853 543.665 41.288C542.396 43.4533 540.585 45.152 538.233 46.384C535.918 47.5787 533.137 48.176 529.889 48.176ZM529.721 41.512C531.476 41.512 532.969 41.1947 534.201 40.56C535.433 39.888 536.366 38.9733 537.001 37.816C537.636 36.6587 537.953 35.3333 537.953 33.84C537.953 32.3093 537.636 30.9653 537.001 29.808C536.404 28.6507 535.508 27.7547 534.313 27.12C533.118 26.4853 531.681 26.168 530.001 26.168C528.396 26.168 526.921 26.4667 525.577 27.064C524.27 27.624 523.225 28.4827 522.441 29.64C521.694 30.76 521.321 32.16 521.321 33.84C521.321 35.296 521.62 36.6027 522.217 37.76C522.852 38.9173 523.785 39.832 525.017 40.504C526.286 41.176 527.854 41.512 529.721 41.512ZM565.994 48.064C562.784 48.064 560.021 47.4293 557.706 46.16C555.429 44.8907 553.674 43.2107 552.442 41.12C551.248 38.992 550.65 36.6773 550.65 34.176H558.322C558.322 35.5947 558.64 36.8453 559.274 37.928C559.946 39.0107 560.861 39.8693 562.018 40.504C563.176 41.1013 564.52 41.4 566.05 41.4C567.656 41.4 569.037 41.064 570.194 40.392C571.352 39.72 572.229 38.8053 572.826 37.648C573.461 36.4907 573.778 35.1653 573.778 33.672C573.778 32.216 573.461 30.9093 572.826 29.752C572.229 28.5573 571.352 27.624 570.194 26.952C569.074 26.2427 567.712 25.888 566.106 25.888C564.762 25.888 563.493 26.1493 562.298 26.672C561.104 27.1947 560.17 27.8853 559.498 28.744H552.162L554.234 6.12H577.922V12.896H557.706L560.506 10.712L559.162 24.824L557.258 24.264C558.341 23.032 559.666 22.0053 561.234 21.184C562.802 20.3627 564.781 19.952 567.17 19.952C570.194 19.952 572.77 20.568 574.898 21.8C577.026 23.032 578.65 24.6747 579.77 26.728C580.89 28.744 581.45 30.9467 581.45 33.336V34.064C581.45 36.4907 580.853 38.768 579.658 40.896C578.464 43.024 576.709 44.76 574.394 46.104C572.117 47.4107 569.317 48.064 565.994 48.064ZM603.499 48.176C600.475 48.176 597.899 47.672 595.771 46.664C593.68 45.6187 591.981 44.2 590.675 42.408C589.368 40.616 588.416 38.544 587.819 36.192C587.221 33.8027 586.923 31.2827 586.923 28.632V26.168C586.923 19.4853 588.603 14.4267 591.963 10.992C595.36 7.52 600.325 5.784 606.859 5.784C608.277 5.784 609.603 5.82133 610.835 5.896C612.067 5.97066 613.299 6.08266 614.531 6.232V12.896C613.299 12.7467 612.029 12.6347 610.723 12.56C609.453 12.4853 608.072 12.448 606.579 12.448C603.443 12.448 600.979 12.9893 599.187 14.072C597.395 15.1547 596.107 16.7413 595.323 18.832C594.576 20.9227 594.203 23.5173 594.203 26.616V30.256L592.411 32.832C592.448 29.9573 593.008 27.5867 594.091 25.72C595.211 23.816 596.741 22.3973 598.683 21.464C600.624 20.4933 602.845 20.008 605.347 20.008C608.259 20.008 610.741 20.5867 612.795 21.744C614.848 22.9013 616.416 24.5067 617.499 26.56C618.619 28.6133 619.179 31.0027 619.179 33.728C619.179 36.5653 618.544 39.0853 617.275 41.288C616.005 43.4533 614.195 45.152 611.842 46.384C609.528 47.5787 606.747 48.176 603.499 48.176ZM603.331 41.512C605.085 41.512 606.579 41.1947 607.811 40.56C609.043 39.888 609.976 38.9733 610.611 37.816C611.245 36.6587 611.562 35.3333 611.562 33.84C611.562 32.3093 611.245 30.9653 610.611 29.808C610.013 28.6507 609.117 27.7547 607.923 27.12C606.728 26.4853 605.291 26.168 603.611 26.168C602.005 26.168 600.531 26.4667 599.187 27.064C597.88 27.624 596.835 28.4827 596.051 29.64C595.304 30.76 594.931 32.16 594.931 33.84C594.931 35.296 595.229 36.6027 595.827 37.76C596.461 38.9173 597.395 39.832 598.627 40.504C599.896 41.176 601.464 41.512 603.331 41.512ZM644.98 48.064C641.284 48.064 638.11 47.4107 635.46 46.104C632.809 44.7973 630.644 43.0987 628.964 41.008C627.321 38.9173 626.108 36.64 625.324 34.176C624.54 31.712 624.148 29.3413 624.148 27.064V25.832C624.148 23.2933 624.54 20.792 625.324 18.328C626.145 15.864 627.396 13.624 629.076 11.608C630.756 9.592 632.884 7.98666 635.46 6.792C638.073 5.56 641.153 4.944 644.7 4.944C648.396 4.944 651.606 5.616 654.332 6.96C657.094 8.26667 659.297 10.1333 660.94 12.56C662.582 14.9493 663.572 17.7493 663.908 20.96H655.9C655.601 19.0933 654.929 17.5253 653.884 16.256C652.876 14.9493 651.588 13.9787 650.02 13.344C648.452 12.672 646.678 12.336 644.7 12.336C642.684 12.336 640.892 12.6907 639.324 13.4C637.756 14.072 636.449 15.0427 635.404 16.312C634.358 17.5813 633.556 19.0747 632.996 20.792C632.473 22.5093 632.212 24.4133 632.212 26.504C632.212 28.52 632.473 30.3867 632.996 32.104C633.556 33.8213 634.377 35.3333 635.46 36.64C636.542 37.9093 637.868 38.8987 639.436 39.608C641.041 40.3173 642.889 40.672 644.98 40.672C648.041 40.672 650.617 39.9253 652.708 38.432C654.836 36.9013 656.124 34.7733 656.572 32.048H664.58C664.206 34.96 663.217 37.6293 661.612 40.056C660.006 42.4827 657.804 44.424 655.004 45.88C652.204 47.336 648.862 48.064 644.98 48.064ZM686.186 48.176C683.162 48.176 680.586 47.672 678.458 46.664C676.367 45.6187 674.669 44.2 673.362 42.408C672.055 40.616 671.103 38.544 670.506 36.192C669.909 33.8027 669.61 31.2827 669.61 28.632V26.168C669.61 19.4853 671.29 14.4267 674.65 10.992C678.047 7.52 683.013 5.784 689.546 5.784C690.965 5.784 692.29 5.82133 693.522 5.896C694.754 5.97066 695.986 6.08266 697.218 6.232V12.896C695.986 12.7467 694.717 12.6347 693.41 12.56C692.141 12.4853 690.759 12.448 689.266 12.448C686.13 12.448 683.666 12.9893 681.874 14.072C680.082 15.1547 678.794 16.7413 678.01 18.832C677.263 20.9227 676.89 23.5173 676.89 26.616V30.256L675.098 32.832C675.135 29.9573 675.695 27.5867 676.778 25.72C677.898 23.816 679.429 22.3973 681.37 21.464C683.311 20.4933 685.533 20.008 688.034 20.008C690.946 20.008 693.429 20.5867 695.482 21.744C697.535 22.9013 699.103 24.5067 700.186 26.56C701.306 28.6133 701.866 31.0027 701.866 33.728C701.866 36.5653 701.231 39.0853 699.962 41.288C698.693 43.4533 696.882 45.152 694.53 46.384C692.215 47.5787 689.434 48.176 686.186 48.176ZM686.018 41.512C687.773 41.512 689.266 41.1947 690.498 40.56C691.73 39.888 692.663 38.9733 693.298 37.816C693.933 36.6587 694.25 35.3333 694.25 33.84C694.25 32.3093 693.933 30.9653 693.298 29.808C692.701 28.6507 691.805 27.7547 690.61 27.12C689.415 26.4853 687.978 26.168 686.298 26.168C684.693 26.168 683.218 26.4667 681.874 27.064C680.567 27.624 679.522 28.4827 678.738 29.64C677.991 30.76 677.618 32.16 677.618 33.84C677.618 35.296 677.917 36.6027 678.514 37.76C679.149 38.9173 680.082 39.832 681.314 40.504C682.583 41.176 684.151 41.512 686.018 41.512ZM727.667 48.064C723.971 48.064 720.798 47.4107 718.147 46.104C715.496 44.7973 713.331 43.0987 711.651 41.008C710.008 38.9173 708.795 36.64 708.011 34.176C707.227 31.712 706.835 29.3413 706.835 27.064V25.832C706.835 23.2933 707.227 20.792 708.011 18.328C708.832 15.864 710.083 13.624 711.763 11.608C713.443 9.592 715.571 7.98666 718.147 6.792C720.76 5.56 723.84 4.944 727.387 4.944C731.083 4.944 734.294 5.616 737.019 6.96C739.782 8.26667 741.984 10.1333 743.627 12.56C745.27 14.9493 746.259 17.7493 746.595 20.96H738.587C738.288 19.0933 737.616 17.5253 736.571 16.256C735.563 14.9493 734.275 13.9787 732.707 13.344C731.139 12.672 729.366 12.336 727.387 12.336C725.371 12.336 723.579 12.6907 722.011 13.4C720.443 14.072 719.136 15.0427 718.091 16.312C717.046 17.5813 716.243 19.0747 715.683 20.792C715.16 22.5093 714.899 24.4133 714.899 26.504C714.899 28.52 715.16 30.3867 715.683 32.104C716.243 33.8213 717.064 35.3333 718.147 36.64C719.23 37.9093 720.555 38.8987 722.123 39.608C723.728 40.3173 725.576 40.672 727.667 40.672C730.728 40.672 733.304 39.9253 735.395 38.432C737.523 36.9013 738.811 34.7733 739.259 32.048H747.267C746.894 34.96 745.904 37.6293 744.299 40.056C742.694 42.4827 740.491 44.424 737.691 45.88C734.891 47.336 731.55 48.064 727.667 48.064ZM768.874 48.176C765.85 48.176 763.274 47.672 761.146 46.664C759.055 45.6187 757.356 44.2 756.05 42.408C754.743 40.616 753.791 38.544 753.194 36.192C752.596 33.8027 752.298 31.2827 752.298 28.632V26.168C752.298 19.4853 753.978 14.4267 757.338 10.992C760.735 7.52 765.7 5.784 772.234 5.784C773.652 5.784 774.978 5.82133 776.21 5.896C777.442 5.97066 778.674 6.08266 779.906 6.232V12.896C778.674 12.7467 777.404 12.6347 776.098 12.56C774.828 12.4853 773.447 12.448 771.954 12.448C768.818 12.448 766.354 12.9893 764.562 14.072C762.77 15.1547 761.482 16.7413 760.698 18.832C759.951 20.9227 759.578 23.5173 759.578 26.616V30.256L757.786 32.832C757.823 29.9573 758.383 27.5867 759.466 25.72C760.586 23.816 762.116 22.3973 764.058 21.464C765.999 20.4933 768.22 20.008 770.722 20.008C773.634 20.008 776.116 20.5867 778.17 21.744C780.223 22.9013 781.791 24.5067 782.874 26.56C783.994 28.6133 784.554 31.0027 784.554 33.728C784.554 36.5653 783.919 39.0853 782.65 41.288C781.38 43.4533 779.57 45.152 777.217 46.384C774.903 47.5787 772.122 48.176 768.874 48.176ZM768.706 41.512C770.46 41.512 771.954 41.1947 773.186 40.56C774.418 39.888 775.351 38.9733 775.986 37.816C776.62 36.6587 776.938 35.3333 776.938 33.84C776.938 32.3093 776.62 30.9653 775.986 29.808C775.388 28.6507 774.492 27.7547 773.298 27.12C772.103 26.4853 770.666 26.168 768.986 26.168C767.38 26.168 765.906 26.4667 764.562 27.064C763.255 27.624 762.21 28.4827 761.426 29.64C760.679 30.76 760.306 32.16 760.306 33.84C760.306 35.296 760.604 36.6027 761.202 37.76C761.836 38.9173 762.77 39.832 764.002 40.504C765.271 41.176 766.839 41.512 768.706 41.512ZM791.931 47V6.12H799.883V47H791.931ZM798.763 29.976V23.256L815.115 23.2V29.92L798.763 29.976ZM798.763 12.84V6.12H815.899V12.84H798.763Z" fill="#0C071D"/>
<path opacity="0.67" d="M362.328 71V58.28H363.768V63.632H363.48C363.48 62.464 363.64 61.456 363.96 60.608C364.296 59.76 364.792 59.104 365.448 58.64C366.104 58.16 366.936 57.92 367.944 57.92H368.016C369.024 57.92 369.856 58.152 370.512 58.616C371.168 59.08 371.656 59.736 371.976 60.584C372.296 61.432 372.456 62.448 372.456 63.632H371.88C371.88 62.464 372.04 61.456 372.36 60.608C372.696 59.76 373.192 59.104 373.848 58.64C374.52 58.16 375.36 57.92 376.368 57.92H376.44C377.448 57.92 378.28 58.152 378.936 58.616C379.608 59.08 380.104 59.736 380.424 60.584C380.76 61.432 380.928 62.448 380.928 63.632V71H379.128V63.224C379.128 62.104 378.856 61.216 378.312 60.56C377.768 59.904 376.984 59.576 375.96 59.576C374.904 59.576 374.064 59.92 373.44 60.608C372.832 61.28 372.528 62.192 372.528 63.344V71H370.728V63.224C370.728 62.104 370.456 61.216 369.912 60.56C369.368 59.904 368.584 59.576 367.56 59.576C366.504 59.576 365.664 59.92 365.04 60.608C364.432 61.28 364.128 62.192 364.128 63.344V71H362.328ZM390.718 71.408C389.63 71.408 388.686 71.224 387.886 70.856C387.086 70.472 386.43 69.968 385.918 69.344C385.406 68.704 385.022 67.992 384.766 67.208C384.526 66.424 384.406 65.616 384.406 64.784V64.448C384.406 63.632 384.526 62.832 384.766 62.048C385.022 61.264 385.406 60.56 385.918 59.936C386.43 59.312 387.07 58.816 387.838 58.448C388.622 58.064 389.534 57.872 390.574 57.872C391.902 57.872 393.006 58.168 393.886 58.76C394.782 59.352 395.454 60.112 395.902 61.04C396.35 61.952 396.574 62.936 396.574 63.992V64.928H385.222V63.536H395.326L394.87 64.232C394.87 63.288 394.702 62.464 394.366 61.76C394.046 61.04 393.566 60.48 392.926 60.08C392.302 59.664 391.518 59.456 390.574 59.456C389.582 59.456 388.758 59.688 388.102 60.152C387.446 60.616 386.95 61.232 386.614 62C386.294 62.768 386.134 63.64 386.134 64.616C386.134 65.576 386.294 66.456 386.614 67.256C386.95 68.04 387.454 68.664 388.126 69.128C388.814 69.592 389.678 69.824 390.718 69.824C391.822 69.824 392.718 69.576 393.406 69.08C394.094 68.568 394.518 67.968 394.678 67.28H396.358C396.198 68.128 395.862 68.864 395.35 69.488C394.838 70.096 394.19 70.568 393.406 70.904C392.622 71.24 391.726 71.408 390.718 71.408ZM404.047 71.36C402.415 71.36 401.159 71.008 400.279 70.304C399.399 69.584 398.951 68.624 398.935 67.424H400.615C400.647 68.032 400.919 68.584 401.431 69.08C401.959 69.576 402.831 69.824 404.047 69.824C405.183 69.824 406.031 69.592 406.591 69.128C407.167 68.648 407.455 68.072 407.455 67.4C407.455 66.776 407.215 66.296 406.735 65.96C406.271 65.608 405.591 65.384 404.695 65.288L403.255 65.144C402.103 65.016 401.167 64.664 400.447 64.088C399.743 63.496 399.391 62.688 399.391 61.664C399.391 60.912 399.583 60.256 399.967 59.696C400.351 59.136 400.887 58.704 401.575 58.4C402.279 58.08 403.103 57.92 404.047 57.92C405.407 57.92 406.511 58.24 407.359 58.88C408.223 59.52 408.663 60.432 408.679 61.616H406.999C406.983 61.008 406.727 60.496 406.231 60.08C405.735 59.664 405.007 59.456 404.047 59.456C403.055 59.456 402.311 59.672 401.815 60.104C401.335 60.536 401.095 61.064 401.095 61.688C401.095 62.216 401.279 62.656 401.647 63.008C402.015 63.344 402.591 63.552 403.375 63.632L404.815 63.776C406.095 63.92 407.135 64.288 407.935 64.88C408.751 65.472 409.159 66.32 409.159 67.424C409.159 68.176 408.943 68.856 408.511 69.464C408.095 70.056 407.503 70.52 406.735 70.856C405.967 71.192 405.071 71.36 404.047 71.36ZM416.75 71.36C415.118 71.36 413.862 71.008 412.982 70.304C412.102 69.584 411.654 68.624 411.638 67.424H413.318C413.35 68.032 413.622 68.584 414.134 69.08C414.662 69.576 415.534 69.824 416.75 69.824C417.886 69.824 418.734 69.592 419.294 69.128C419.87 68.648 420.158 68.072 420.158 67.4C420.158 66.776 419.918 66.296 419.438 65.96C418.974 65.608 418.294 65.384 417.398 65.288L415.958 65.144C414.806 65.016 413.87 64.664 413.15 64.088C412.446 63.496 412.094 62.688 412.094 61.664C412.094 60.912 412.286 60.256 412.67 59.696C413.054 59.136 413.59 58.704 414.278 58.4C414.982 58.08 415.806 57.92 416.75 57.92C418.11 57.92 419.214 58.24 420.062 58.88C420.926 59.52 421.366 60.432 421.382 61.616H419.702C419.686 61.008 419.43 60.496 418.934 60.08C418.438 59.664 417.71 59.456 416.75 59.456C415.758 59.456 415.014 59.672 414.518 60.104C414.038 60.536 413.798 61.064 413.798 61.688C413.798 62.216 413.982 62.656 414.35 63.008C414.718 63.344 415.294 63.552 416.078 63.632L417.518 63.776C418.798 63.92 419.838 64.288 420.638 64.88C421.454 65.472 421.862 66.32 421.862 67.424C421.862 68.176 421.646 68.856 421.214 69.464C420.798 70.056 420.206 70.52 419.438 70.856C418.67 71.192 417.774 71.36 416.75 71.36ZM433.173 71V67.184H432.885V62.672C432.885 61.728 432.637 61.008 432.141 60.512C431.645 60 430.877 59.744 429.837 59.744C429.357 59.744 428.869 59.752 428.373 59.768C427.893 59.784 427.429 59.808 426.981 59.84C426.549 59.856 426.165 59.88 425.829 59.912V58.328C426.181 58.296 426.541 58.264 426.909 58.232C427.277 58.2 427.653 58.184 428.037 58.184C428.437 58.168 428.821 58.16 429.189 58.16C430.485 58.16 431.525 58.32 432.309 58.64C433.109 58.96 433.693 59.464 434.061 60.152C434.429 60.824 434.613 61.72 434.613 62.84V71H433.173ZM428.877 71.336C427.981 71.336 427.189 71.176 426.501 70.856C425.813 70.536 425.277 70.072 424.893 69.464C424.525 68.856 424.341 68.12 424.341 67.256C424.341 66.408 424.533 65.688 424.917 65.096C425.317 64.504 425.885 64.056 426.621 63.752C427.373 63.432 428.277 63.272 429.333 63.272H433.053V64.64H429.213C428.205 64.64 427.429 64.888 426.885 65.384C426.357 65.864 426.093 66.496 426.093 67.28C426.093 68.08 426.373 68.72 426.933 69.2C427.493 69.664 428.253 69.896 429.213 69.896C429.805 69.896 430.373 69.792 430.917 69.584C431.461 69.36 431.917 68.992 432.285 68.48C432.653 67.952 432.853 67.232 432.885 66.32L433.413 67.064C433.349 68.008 433.125 68.8 432.741 69.44C432.357 70.064 431.837 70.536 431.181 70.856C430.525 71.176 429.757 71.336 428.877 71.336ZM443.957 75.968C443.365 75.968 442.765 75.936 442.157 75.872C441.565 75.824 440.997 75.76 440.453 75.68V74.144C441.029 74.224 441.629 74.288 442.253 74.336C442.893 74.4 443.493 74.432 444.053 74.432C445.269 74.432 446.237 74.272 446.957 73.952C447.677 73.632 448.189 73.12 448.493 72.416C448.813 71.728 448.973 70.816 448.973 69.68V67.136L449.645 65.36C449.613 66.576 449.357 67.624 448.877 68.504C448.397 69.368 447.749 70.032 446.933 70.496C446.117 70.96 445.189 71.192 444.149 71.192C443.237 71.192 442.405 71.016 441.653 70.664C440.917 70.312 440.285 69.832 439.757 69.224C439.229 68.6 438.821 67.896 438.533 67.112C438.245 66.328 438.101 65.504 438.101 64.64V64.304C438.101 63.456 438.245 62.648 438.533 61.88C438.821 61.096 439.229 60.408 439.757 59.816C440.285 59.208 440.925 58.736 441.677 58.4C442.445 58.048 443.293 57.872 444.221 57.872C445.341 57.872 446.317 58.12 447.149 58.616C447.981 59.112 448.629 59.8 449.093 60.68C449.573 61.56 449.829 62.592 449.861 63.776L449.285 63.464V58.304H450.701V69.608C450.701 71.128 450.477 72.352 450.029 73.28C449.581 74.208 448.861 74.888 447.869 75.32C446.893 75.752 445.589 75.968 443.957 75.968ZM444.461 69.536C445.325 69.536 446.093 69.352 446.765 68.984C447.453 68.6 447.997 68.064 448.397 67.376C448.797 66.688 448.997 65.888 448.997 64.976V63.8C448.997 62.92 448.789 62.152 448.373 61.496C447.973 60.84 447.437 60.328 446.765 59.96C446.093 59.592 445.325 59.408 444.461 59.408C443.533 59.408 442.725 59.632 442.037 60.08C441.349 60.528 440.821 61.136 440.453 61.904C440.085 62.656 439.901 63.512 439.901 64.472C439.901 65.448 440.085 66.32 440.453 67.088C440.837 67.856 441.373 68.456 442.061 68.888C442.749 69.32 443.549 69.536 444.461 69.536ZM460.515 71.408C459.427 71.408 458.483 71.224 457.683 70.856C456.883 70.472 456.227 69.968 455.715 69.344C455.203 68.704 454.819 67.992 454.563 67.208C454.323 66.424 454.203 65.616 454.203 64.784V64.448C454.203 63.632 454.323 62.832 454.563 62.048C454.819 61.264 455.203 60.56 455.715 59.936C456.227 59.312 456.867 58.816 457.635 58.448C458.419 58.064 459.331 57.872 460.371 57.872C461.699 57.872 462.803 58.168 463.683 58.76C464.579 59.352 465.251 60.112 465.699 61.04C466.147 61.952 466.371 62.936 466.371 63.992V64.928H455.019V63.536H465.123L464.667 64.232C464.667 63.288 464.499 62.464 464.163 61.76C463.843 61.04 463.363 60.48 462.723 60.08C462.099 59.664 461.315 59.456 460.371 59.456C459.379 59.456 458.555 59.688 457.899 60.152C457.243 60.616 456.747 61.232 456.411 62C456.091 62.768 455.931 63.64 455.931 64.616C455.931 65.576 456.091 66.456 456.411 67.256C456.747 68.04 457.251 68.664 457.923 69.128C458.611 69.592 459.475 69.824 460.515 69.824C461.619 69.824 462.515 69.576 463.203 69.08C463.891 68.568 464.315 67.968 464.475 67.28H466.155C465.995 68.128 465.659 68.864 465.147 69.488C464.635 70.096 463.987 70.568 463.203 70.904C462.419 71.24 461.523 71.408 460.515 71.408ZM469.648 74.672L468.184 74.144L470.272 68.36L471.784 68.912L469.648 74.672ZM481.461 71V53.48H483.261V63.392L482.733 63.8C482.733 62.616 482.901 61.584 483.237 60.704C483.589 59.824 484.109 59.144 484.797 58.664C485.501 58.168 486.381 57.92 487.437 57.92H487.533C489.069 57.92 490.229 58.424 491.013 59.432C491.813 60.44 492.213 61.84 492.213 63.632V71H490.437V63.248C490.437 62.112 490.125 61.216 489.501 60.56C488.877 59.904 488.037 59.576 486.981 59.576C485.845 59.576 484.941 59.944 484.269 60.68C483.597 61.4 483.261 62.352 483.261 63.536V71H481.461ZM501.999 71.408C500.911 71.408 499.967 71.224 499.167 70.856C498.367 70.472 497.711 69.968 497.199 69.344C496.687 68.704 496.303 67.992 496.047 67.208C495.807 66.424 495.687 65.616 495.687 64.784V64.448C495.687 63.632 495.807 62.832 496.047 62.048C496.303 61.264 496.687 60.56 497.199 59.936C497.711 59.312 498.351 58.816 499.119 58.448C499.903 58.064 500.815 57.872 501.855 57.872C503.183 57.872 504.287 58.168 505.167 58.76C506.063 59.352 506.735 60.112 507.183 61.04C507.631 61.952 507.855 62.936 507.855 63.992V64.928H496.503V63.536H506.607L506.151 64.232C506.151 63.288 505.983 62.464 505.647 61.76C505.327 61.04 504.847 60.48 504.207 60.08C503.583 59.664 502.799 59.456 501.855 59.456C500.863 59.456 500.039 59.688 499.383 60.152C498.727 60.616 498.231 61.232 497.895 62C497.575 62.768 497.415 63.64 497.415 64.616C497.415 65.576 497.575 66.456 497.895 67.256C498.231 68.04 498.735 68.664 499.407 69.128C500.095 69.592 500.959 69.824 501.999 69.824C503.103 69.824 503.999 69.576 504.687 69.08C505.375 68.568 505.799 67.968 505.959 67.28H507.639C507.479 68.128 507.143 68.864 506.631 69.488C506.119 70.096 505.471 70.568 504.687 70.904C503.903 71.24 503.007 71.408 501.999 71.408ZM509.737 71L514.441 64.304V64.784L510.025 58.304H511.993L515.353 63.296H515.689L518.881 58.304H520.729L516.577 64.592V64.136L521.521 71H519.553L515.665 65.6H515.353L511.585 71H509.737ZM531.986 71V67.184H531.698V62.672C531.698 61.728 531.45 61.008 530.954 60.512C530.458 60 529.69 59.744 528.65 59.744C528.17 59.744 527.682 59.752 527.186 59.768C526.706 59.784 526.242 59.808 525.794 59.84C525.362 59.856 524.978 59.88 524.642 59.912V58.328C524.994 58.296 525.354 58.264 525.722 58.232C526.09 58.2 526.466 58.184 526.85 58.184C527.25 58.168 527.634 58.16 528.002 58.16C529.298 58.16 530.338 58.32 531.122 58.64C531.922 58.96 532.506 59.464 532.874 60.152C533.242 60.824 533.426 61.72 533.426 62.84V71H531.986ZM527.69 71.336C526.794 71.336 526.002 71.176 525.314 70.856C524.626 70.536 524.09 70.072 523.706 69.464C523.338 68.856 523.154 68.12 523.154 67.256C523.154 66.408 523.346 65.688 523.73 65.096C524.13 64.504 524.698 64.056 525.434 63.752C526.186 63.432 527.09 63.272 528.146 63.272H531.866V64.64H528.026C527.018 64.64 526.242 64.888 525.698 65.384C525.17 65.864 524.906 66.496 524.906 67.28C524.906 68.08 525.186 68.72 525.746 69.2C526.306 69.664 527.066 69.896 528.026 69.896C528.618 69.896 529.186 69.792 529.73 69.584C530.274 69.36 530.73 68.992 531.098 68.48C531.466 67.952 531.666 67.232 531.698 66.32L532.226 67.064C532.162 68.008 531.938 68.8 531.554 69.44C531.17 70.064 530.65 70.536 529.994 70.856C529.338 71.176 528.57 71.336 527.69 71.336ZM543.13 71.408C542.202 71.408 541.354 71.24 540.586 70.904C539.834 70.552 539.178 70.072 538.618 69.464C538.074 68.84 537.65 68.136 537.346 67.352C537.058 66.552 536.914 65.704 536.914 64.808V64.472C536.914 63.608 537.058 62.784 537.346 62C537.634 61.2 538.042 60.496 538.57 59.888C539.114 59.264 539.762 58.776 540.514 58.424C541.282 58.056 542.138 57.872 543.082 57.872C544.154 57.872 545.098 58.104 545.914 58.568C546.73 59.032 547.386 59.704 547.882 60.584C548.378 61.448 548.642 62.512 548.674 63.776L547.882 62.288V53.48H549.682V71H548.242V65.36H548.818C548.786 66.688 548.506 67.808 547.978 68.72C547.466 69.616 546.786 70.288 545.938 70.736C545.106 71.184 544.17 71.408 543.13 71.408ZM543.37 69.824C544.234 69.824 545.01 69.632 545.698 69.248C546.402 68.864 546.954 68.32 547.354 67.616C547.754 66.896 547.954 66.072 547.954 65.144V63.992C547.954 63.096 547.754 62.312 547.354 61.64C546.954 60.952 546.402 60.416 545.698 60.032C545.01 59.648 544.226 59.456 543.346 59.456C542.402 59.456 541.578 59.688 540.874 60.152C540.186 60.6 539.65 61.216 539.266 62C538.898 62.784 538.714 63.664 538.714 64.64C538.714 65.648 538.906 66.544 539.29 67.328C539.674 68.112 540.218 68.728 540.922 69.176C541.626 69.608 542.442 69.824 543.37 69.824ZM559.632 71.408C558.544 71.408 557.6 71.224 556.8 70.856C556 70.472 555.344 69.968 554.832 69.344C554.32 68.704 553.936 67.992 553.68 67.208C553.44 66.424 553.32 65.616 553.32 64.784V64.448C553.32 63.632 553.44 62.832 553.68 62.048C553.936 61.264 554.32 60.56 554.832 59.936C555.344 59.312 555.984 58.816 556.752 58.448C557.536 58.064 558.448 57.872 559.488 57.872C560.816 57.872 561.92 58.168 562.8 58.76C563.696 59.352 564.368 60.112 564.816 61.04C565.264 61.952 565.488 62.936 565.488 63.992V64.928H554.136V63.536H564.24L563.784 64.232C563.784 63.288 563.616 62.464 563.28 61.76C562.96 61.04 562.48 60.48 561.84 60.08C561.216 59.664 560.432 59.456 559.488 59.456C558.496 59.456 557.672 59.688 557.016 60.152C556.36 60.616 555.864 61.232 555.528 62C555.208 62.768 555.048 63.64 555.048 64.616C555.048 65.576 555.208 66.456 555.528 67.256C555.864 68.04 556.368 68.664 557.04 69.128C557.728 69.592 558.592 69.824 559.632 69.824C560.736 69.824 561.632 69.576 562.32 69.08C563.008 68.568 563.432 67.968 563.592 67.28H565.272C565.112 68.128 564.776 68.864 564.264 69.488C563.752 70.096 563.104 70.568 562.32 70.904C561.536 71.24 560.64 71.408 559.632 71.408ZM574.305 71.408C573.233 71.408 572.297 71.224 571.497 70.856C570.713 70.472 570.057 69.96 569.529 69.32C569.001 68.664 568.601 67.944 568.329 67.16C568.073 66.376 567.945 65.584 567.945 64.784V64.448C567.945 63.632 568.073 62.84 568.329 62.072C568.601 61.288 569.001 60.584 569.529 59.96C570.057 59.32 570.713 58.816 571.497 58.448C572.297 58.064 573.217 57.872 574.257 57.872C575.313 57.872 576.249 58.064 577.065 58.448C577.897 58.832 578.569 59.376 579.081 60.08C579.593 60.784 579.897 61.616 579.993 62.576H578.265C578.121 61.696 577.705 60.968 577.017 60.392C576.345 59.8 575.425 59.504 574.257 59.504C573.249 59.504 572.409 59.736 571.737 60.2C571.081 60.648 570.585 61.264 570.249 62.048C569.913 62.816 569.745 63.672 569.745 64.616C569.745 65.544 569.913 66.408 570.249 67.208C570.585 67.992 571.089 68.624 571.761 69.104C572.433 69.568 573.281 69.8 574.305 69.8C575.089 69.8 575.769 69.664 576.345 69.392C576.937 69.104 577.409 68.72 577.761 68.24C578.129 67.76 578.345 67.232 578.409 66.656H580.137C580.073 67.616 579.769 68.456 579.225 69.176C578.697 69.88 578.009 70.432 577.161 70.832C576.313 71.216 575.361 71.408 574.305 71.408ZM584.109 71V58.304H585.885V71H584.109ZM582.069 59.744V58.304H585.885V59.744H582.069ZM584.493 55.952C584.061 55.952 583.733 55.84 583.509 55.616C583.301 55.376 583.197 55.08 583.197 54.728C583.197 54.376 583.301 54.088 583.509 53.864C583.733 53.624 584.061 53.504 584.493 53.504C584.925 53.504 585.245 53.624 585.453 53.864C585.661 54.088 585.765 54.376 585.765 54.728C585.765 55.08 585.661 55.376 585.453 55.616C585.245 55.84 584.925 55.952 584.493 55.952ZM590.609 71V58.28H592.049V63.632H591.761C591.761 62.464 591.921 61.456 592.241 60.608C592.577 59.76 593.073 59.104 593.729 58.64C594.385 58.16 595.217 57.92 596.225 57.92H596.297C597.305 57.92 598.137 58.152 598.793 58.616C599.449 59.08 599.937 59.736 600.257 60.584C600.577 61.432 600.737 62.448 600.737 63.632H600.161C600.161 62.464 600.321 61.456 600.641 60.608C600.977 59.76 601.473 59.104 602.129 58.64C602.801 58.16 603.641 57.92 604.649 57.92H604.721C605.729 57.92 606.561 58.152 607.217 58.616C607.889 59.08 608.385 59.736 608.705 60.584C609.041 61.432 609.209 62.448 609.209 63.632V71H607.409V63.224C607.409 62.104 607.137 61.216 606.593 60.56C606.049 59.904 605.265 59.576 604.241 59.576C603.185 59.576 602.345 59.92 601.721 60.608C601.113 61.28 600.809 62.192 600.809 63.344V71H599.009V63.224C599.009 62.104 598.737 61.216 598.193 60.56C597.649 59.904 596.865 59.576 595.841 59.576C594.785 59.576 593.945 59.92 593.321 60.608C592.713 61.28 592.409 62.192 592.409 63.344V71H590.609ZM621.423 71V67.184H621.135V62.672C621.135 61.728 620.887 61.008 620.391 60.512C619.895 60 619.127 59.744 618.087 59.744C617.607 59.744 617.119 59.752 616.623 59.768C616.143 59.784 615.679 59.808 615.231 59.84C614.799 59.856 614.415 59.88 614.079 59.912V58.328C614.431 58.296 614.791 58.264 615.159 58.232C615.527 58.2 615.903 58.184 616.287 58.184C616.687 58.168 617.071 58.16 617.439 58.16C618.735 58.16 619.775 58.32 620.559 58.64C621.359 58.96 621.943 59.464 622.311 60.152C622.679 60.824 622.863 61.72 622.863 62.84V71H621.423ZM617.127 71.336C616.231 71.336 615.439 71.176 614.751 70.856C614.063 70.536 613.527 70.072 613.143 69.464C612.775 68.856 612.591 68.12 612.591 67.256C612.591 66.408 612.783 65.688 613.167 65.096C613.567 64.504 614.135 64.056 614.871 63.752C615.623 63.432 616.527 63.272 617.583 63.272H621.303V64.64H617.463C616.455 64.64 615.679 64.888 615.135 65.384C614.607 65.864 614.343 66.496 614.343 67.28C614.343 68.08 614.623 68.72 615.183 69.2C615.743 69.664 616.503 69.896 617.463 69.896C618.055 69.896 618.623 69.792 619.167 69.584C619.711 69.36 620.167 68.992 620.535 68.48C620.903 67.952 621.103 67.232 621.135 66.32L621.663 67.064C621.599 68.008 621.375 68.8 620.991 69.44C620.607 70.064 620.087 70.536 619.431 70.856C618.775 71.176 618.007 71.336 617.127 71.336ZM627.479 71V53.48H629.279V71H627.479ZM625.631 54.944V53.48H629.279V54.944H625.631Z" fill="#0C071D"/>
<path d="M935.768 46.7678C936.744 45.7915 936.744 44.2085 935.768 43.2322L919.858 27.3223C918.882 26.346 917.299 26.346 916.322 27.3223C915.346 28.2986 915.346 29.8816 916.322 30.8579L930.464 45L916.322 59.1421C915.346 60.1184 915.346 61.7014 916.322 62.6777C917.299 63.654 918.882 63.654 919.858 62.6777L935.768 46.7678ZM851 47.5H934V42.5H851V47.5Z" fill="#F79327"/>
<path d="M997.864 47V6.12H1005.82V47H997.864ZM971.04 47V6.12H978.992V47H971.04ZM977.536 30.032V23.032H999.32V30.032H977.536ZM1011.85 47L1025.8 6.12H1038.79L1053.12 47H1044.95L1032.8 11.552L1035.65 12.784H1028.65L1031.56 11.552L1019.8 47H1011.85ZM1021.6 36.136L1024.12 29.416H1040.69L1043.16 36.136H1021.6ZM1072.87 48.064C1069.25 48.064 1066.18 47.4853 1063.68 46.328C1061.22 45.1707 1059.33 43.584 1058.03 41.568C1056.72 39.5147 1056.07 37.2 1056.07 34.624H1063.85C1063.85 35.7067 1064.15 36.7707 1064.75 37.816C1065.34 38.824 1066.3 39.6453 1067.6 40.28C1068.95 40.9147 1070.7 41.232 1072.87 41.232C1074.81 41.232 1076.43 40.952 1077.74 40.392C1079.05 39.832 1080.02 39.104 1080.65 38.208C1081.29 37.2747 1081.6 36.2293 1081.6 35.072C1081.6 33.616 1080.99 32.4587 1079.75 31.6C1078.52 30.704 1076.62 30.144 1074.04 29.92L1070.46 29.64C1066.54 29.304 1063.4 28.0907 1061.05 26C1058.74 23.872 1057.58 21.072 1057.58 17.6C1057.58 14.9867 1058.19 12.7467 1059.43 10.88C1060.66 8.976 1062.38 7.52 1064.58 6.512C1066.82 5.46666 1069.43 4.944 1072.42 4.944C1075.52 4.944 1078.19 5.48533 1080.43 6.568C1082.67 7.65066 1084.4 9.18133 1085.63 11.16C1086.87 13.1013 1087.48 15.3973 1087.48 18.048H1079.7C1079.7 16.928 1079.42 15.9013 1078.86 14.968C1078.34 13.9973 1077.53 13.232 1076.45 12.672C1075.41 12.0747 1074.06 11.776 1072.42 11.776C1070.85 11.776 1069.54 12.0373 1068.5 12.56C1067.45 13.0827 1066.67 13.792 1066.15 14.688C1065.62 15.584 1065.36 16.5547 1065.36 17.6C1065.36 18.8693 1065.83 19.9893 1066.76 20.96C1067.7 21.8933 1069.17 22.4347 1071.19 22.584L1074.77 22.92C1077.68 23.144 1080.24 23.76 1082.44 24.768C1084.65 25.776 1086.34 27.1387 1087.54 28.856C1088.77 30.5733 1089.39 32.6453 1089.39 35.072C1089.39 37.648 1088.71 39.9253 1087.37 41.904C1086.03 43.8453 1084.1 45.3573 1081.6 46.44C1079.14 47.5227 1076.23 48.064 1072.87 48.064ZM1123.48 47V6.12H1131.43V47H1123.48ZM1096.66 47V6.12H1104.61V47H1096.66ZM1103.15 30.032V23.032H1124.94V30.032H1103.15ZM1140.1 47V39.16C1140.1 37.4427 1140.36 35.9493 1140.88 34.68C1141.44 33.4107 1142.34 32.2907 1143.57 31.32C1144.84 30.312 1146.5 29.36 1148.56 28.464L1155.5 25.384C1157.22 24.6 1158.52 23.648 1159.42 22.528C1160.35 21.3707 1160.82 19.896 1160.82 18.104C1160.82 16.1253 1160.22 14.5573 1159.03 13.4C1157.87 12.2053 1156.21 11.608 1154.04 11.608C1151.88 11.608 1150.2 12.2053 1149 13.4C1147.85 14.5947 1147.27 16.256 1147.27 18.384H1139.6C1139.6 15.8453 1140.14 13.568 1141.22 11.552C1142.3 9.49867 1143.91 7.89333 1146.04 6.736C1148.16 5.54133 1150.83 4.944 1154.04 4.944C1157.26 4.944 1159.92 5.52266 1162.05 6.68C1164.18 7.83733 1165.79 9.38667 1166.87 11.328C1167.95 13.232 1168.49 15.36 1168.49 17.712V18.44C1168.49 21.5013 1167.63 24.0587 1165.92 26.112C1164.2 28.128 1161.68 29.8827 1158.36 31.376L1151.41 34.456C1150.11 35.016 1149.19 35.6133 1148.67 36.248C1148.15 36.8453 1147.88 37.6667 1147.88 38.712V42.296L1145.98 40.224H1168.66V47H1140.1ZM1189.66 48.064C1186.45 48.064 1183.68 47.4293 1181.37 46.16C1179.09 44.8907 1177.34 43.2107 1176.11 41.12C1174.91 38.992 1174.31 36.6773 1174.31 34.176H1181.99C1181.99 35.5947 1182.3 36.8453 1182.94 37.928C1183.61 39.0107 1184.52 39.8693 1185.68 40.504C1186.84 41.1013 1188.18 41.4 1189.71 41.4C1191.32 41.4 1192.7 41.064 1193.86 40.392C1195.02 39.72 1195.89 38.8053 1196.49 37.648C1197.12 36.4907 1197.44 35.1653 1197.44 33.672C1197.44 32.216 1197.12 30.9093 1196.49 29.752C1195.89 28.5573 1195.02 27.624 1193.86 26.952C1192.74 26.2427 1191.38 25.888 1189.77 25.888C1188.43 25.888 1187.16 26.1493 1185.96 26.672C1184.77 27.1947 1183.83 27.8853 1183.16 28.744H1175.83L1177.9 6.12H1201.59V12.896H1181.37L1184.17 10.712L1182.83 24.824L1180.92 24.264C1182 23.032 1183.33 22.0053 1184.9 21.184C1186.47 20.3627 1188.44 19.952 1190.83 19.952C1193.86 19.952 1196.43 20.568 1198.56 21.8C1200.69 23.032 1202.31 24.6747 1203.43 26.728C1204.55 28.744 1205.11 30.9467 1205.11 33.336V34.064C1205.11 36.4907 1204.52 38.768 1203.32 40.896C1202.13 43.024 1200.37 44.76 1198.06 46.104C1195.78 47.4107 1192.98 48.064 1189.66 48.064ZM1227.16 48.176C1224.14 48.176 1221.56 47.672 1219.43 46.664C1217.34 45.6187 1215.65 44.2 1214.34 42.408C1213.03 40.616 1212.08 38.544 1211.48 36.192C1210.89 33.8027 1210.59 31.2827 1210.59 28.632V26.168C1210.59 19.4853 1212.27 14.4267 1215.63 10.992C1219.02 7.52 1223.99 5.784 1230.52 5.784C1231.94 5.784 1233.27 5.82133 1234.5 5.896C1235.73 5.97066 1236.96 6.08266 1238.19 6.232V12.896C1236.96 12.7467 1235.69 12.6347 1234.39 12.56C1233.12 12.4853 1231.74 12.448 1230.24 12.448C1227.11 12.448 1224.64 12.9893 1222.85 14.072C1221.06 15.1547 1219.77 16.7413 1218.99 18.832C1218.24 20.9227 1217.87 23.5173 1217.87 26.616V30.256L1216.07 32.832C1216.11 29.9573 1216.67 27.5867 1217.75 25.72C1218.87 23.816 1220.41 22.3973 1222.35 21.464C1224.29 20.4933 1226.51 20.008 1229.01 20.008C1231.92 20.008 1234.41 20.5867 1236.46 21.744C1238.51 22.9013 1240.08 24.5067 1241.16 26.56C1242.28 28.6133 1242.84 31.0027 1242.84 33.728C1242.84 36.5653 1242.21 39.0853 1240.94 41.288C1239.67 43.4533 1237.86 45.152 1235.51 46.384C1233.19 47.5787 1230.41 48.176 1227.16 48.176ZM1226.99 41.512C1228.75 41.512 1230.24 41.1947 1231.47 40.56C1232.71 39.888 1233.64 38.9733 1234.27 37.816C1234.91 36.6587 1235.23 35.3333 1235.23 33.84C1235.23 32.3093 1234.91 30.9653 1234.27 29.808C1233.68 28.6507 1232.78 27.7547 1231.59 27.12C1230.39 26.4853 1228.95 26.168 1227.27 26.168C1225.67 26.168 1224.19 26.4667 1222.85 27.064C1221.54 27.624 1220.5 28.4827 1219.71 29.64C1218.97 30.76 1218.59 32.16 1218.59 33.84C1218.59 35.296 1218.89 36.6027 1219.49 37.76C1220.13 38.9173 1221.06 39.832 1222.29 40.504C1223.56 41.176 1225.13 41.512 1226.99 41.512Z" fill="#0C071D"/>
<path opacity="0.67" d="M972.498 71V53.48H974.298V63.392L973.77 63.8C973.77 62.616 973.938 61.584 974.274 60.704C974.626 59.824 975.146 59.144 975.834 58.664C976.538 58.168 977.418 57.92 978.474 57.92H978.57C980.106 57.92 981.266 58.424 982.05 59.432C982.85 60.44 983.25 61.84 983.25 63.632V71H981.474V63.248C981.474 62.112 981.162 61.216 980.538 60.56C979.914 59.904 979.074 59.576 978.018 59.576C976.882 59.576 975.978 59.944 975.306 60.68C974.634 61.4 974.298 62.352 974.298 63.536V71H972.498ZM995.461 71V67.184H995.173V62.672C995.173 61.728 994.925 61.008 994.429 60.512C993.933 60 993.165 59.744 992.125 59.744C991.645 59.744 991.157 59.752 990.661 59.768C990.181 59.784 989.717 59.808 989.269 59.84C988.837 59.856 988.453 59.88 988.117 59.912V58.328C988.469 58.296 988.829 58.264 989.197 58.232C989.565 58.2 989.941 58.184 990.325 58.184C990.725 58.168 991.109 58.16 991.477 58.16C992.773 58.16 993.813 58.32 994.597 58.64C995.397 58.96 995.981 59.464 996.349 60.152C996.717 60.824 996.901 61.72 996.901 62.84V71H995.461ZM991.165 71.336C990.269 71.336 989.477 71.176 988.789 70.856C988.101 70.536 987.565 70.072 987.181 69.464C986.813 68.856 986.629 68.12 986.629 67.256C986.629 66.408 986.821 65.688 987.205 65.096C987.605 64.504 988.173 64.056 988.909 63.752C989.661 63.432 990.565 63.272 991.621 63.272H995.341V64.64H991.501C990.493 64.64 989.717 64.888 989.173 65.384C988.645 65.864 988.381 66.496 988.381 67.28C988.381 68.08 988.661 68.72 989.221 69.2C989.781 69.664 990.541 69.896 991.501 69.896C992.093 69.896 992.661 69.792 993.205 69.584C993.749 69.36 994.205 68.992 994.573 68.48C994.941 67.952 995.141 67.232 995.173 66.32L995.701 67.064C995.637 68.008 995.413 68.8 995.029 69.44C994.645 70.064 994.125 70.536 993.469 70.856C992.813 71.176 992.045 71.336 991.165 71.336ZM1005.4 71.36C1003.77 71.36 1002.52 71.008 1001.64 70.304C1000.76 69.584 1000.31 68.624 1000.29 67.424H1001.97C1002 68.032 1002.28 68.584 1002.79 69.08C1003.32 69.576 1004.19 69.824 1005.4 69.824C1006.54 69.824 1007.39 69.592 1007.95 69.128C1008.52 68.648 1008.81 68.072 1008.81 67.4C1008.81 66.776 1008.57 66.296 1008.09 65.96C1007.63 65.608 1006.95 65.384 1006.05 65.288L1004.61 65.144C1003.46 65.016 1002.52 64.664 1001.8 64.088C1001.1 63.496 1000.75 62.688 1000.75 61.664C1000.75 60.912 1000.94 60.256 1001.32 59.696C1001.71 59.136 1002.24 58.704 1002.93 58.4C1003.64 58.08 1004.46 57.92 1005.4 57.92C1006.76 57.92 1007.87 58.24 1008.72 58.88C1009.58 59.52 1010.02 60.432 1010.04 61.616H1008.36C1008.34 61.008 1008.08 60.496 1007.59 60.08C1007.09 59.664 1006.36 59.456 1005.4 59.456C1004.41 59.456 1003.67 59.672 1003.17 60.104C1002.69 60.536 1002.45 61.064 1002.45 61.688C1002.45 62.216 1002.64 62.656 1003 63.008C1003.37 63.344 1003.95 63.552 1004.73 63.632L1006.17 63.776C1007.45 63.92 1008.49 64.288 1009.29 64.88C1010.11 65.472 1010.52 66.32 1010.52 67.424C1010.52 68.176 1010.3 68.856 1009.87 69.464C1009.45 70.056 1008.86 70.52 1008.09 70.856C1007.32 71.192 1006.43 71.36 1005.4 71.36ZM1014.1 71V53.48H1015.9V63.392L1015.37 63.8C1015.37 62.616 1015.54 61.584 1015.88 60.704C1016.23 59.824 1016.75 59.144 1017.44 58.664C1018.14 58.168 1019.02 57.92 1020.08 57.92H1020.17C1021.71 57.92 1022.87 58.424 1023.65 59.432C1024.45 60.44 1024.85 61.84 1024.85 63.632V71H1023.08V63.248C1023.08 62.112 1022.76 61.216 1022.14 60.56C1021.52 59.904 1020.68 59.576 1019.62 59.576C1018.48 59.576 1017.58 59.944 1016.91 60.68C1016.24 61.4 1015.9 62.352 1015.9 63.536V71H1014.1ZM1030.01 71V58.304H1031.78V71H1030.01ZM1027.97 59.744V58.304H1031.78V59.744H1027.97ZM1030.39 55.952C1029.96 55.952 1029.63 55.84 1029.41 55.616C1029.2 55.376 1029.09 55.08 1029.09 54.728C1029.09 54.376 1029.2 54.088 1029.41 53.864C1029.63 53.624 1029.96 53.504 1030.39 53.504C1030.82 53.504 1031.14 53.624 1031.35 53.864C1031.56 54.088 1031.66 54.376 1031.66 54.728C1031.66 55.08 1031.56 55.376 1031.35 55.616C1031.14 55.84 1030.82 55.952 1030.39 55.952ZM1036.51 71V58.304H1037.95V63.632H1037.66C1037.66 62.448 1037.83 61.432 1038.19 60.584C1038.54 59.736 1039.07 59.08 1039.77 58.616C1040.47 58.152 1041.36 57.92 1042.43 57.92H1042.51C1044.11 57.92 1045.3 58.424 1046.08 59.432C1046.87 60.424 1047.26 61.824 1047.26 63.632V71H1045.48V63.248C1045.48 62.144 1045.18 61.256 1044.57 60.584C1043.96 59.912 1043.11 59.576 1042.03 59.576C1040.91 59.576 1040 59.928 1039.31 60.632C1038.64 61.32 1038.31 62.232 1038.31 63.368V71H1036.51ZM1056.59 75.968C1056 75.968 1055.4 75.936 1054.79 75.872C1054.2 75.824 1053.63 75.76 1053.08 75.68V74.144C1053.66 74.224 1054.26 74.288 1054.88 74.336C1055.52 74.4 1056.12 74.432 1056.68 74.432C1057.9 74.432 1058.87 74.272 1059.59 73.952C1060.31 73.632 1060.82 73.12 1061.12 72.416C1061.44 71.728 1061.6 70.816 1061.6 69.68V67.136L1062.28 65.36C1062.24 66.576 1061.99 67.624 1061.51 68.504C1061.03 69.368 1060.38 70.032 1059.56 70.496C1058.75 70.96 1057.82 71.192 1056.78 71.192C1055.87 71.192 1055.04 71.016 1054.28 70.664C1053.55 70.312 1052.92 69.832 1052.39 69.224C1051.86 68.6 1051.45 67.896 1051.16 67.112C1050.88 66.328 1050.73 65.504 1050.73 64.64V64.304C1050.73 63.456 1050.88 62.648 1051.16 61.88C1051.45 61.096 1051.86 60.408 1052.39 59.816C1052.92 59.208 1053.56 58.736 1054.31 58.4C1055.08 58.048 1055.92 57.872 1056.85 57.872C1057.97 57.872 1058.95 58.12 1059.78 58.616C1060.61 59.112 1061.26 59.8 1061.72 60.68C1062.2 61.56 1062.46 62.592 1062.49 63.776L1061.92 63.464V58.304H1063.33V69.608C1063.33 71.128 1063.11 72.352 1062.66 73.28C1062.21 74.208 1061.49 74.888 1060.5 75.32C1059.52 75.752 1058.22 75.968 1056.59 75.968ZM1057.09 69.536C1057.96 69.536 1058.72 69.352 1059.4 68.984C1060.08 68.6 1060.63 68.064 1061.03 67.376C1061.43 66.688 1061.63 65.888 1061.63 64.976V63.8C1061.63 62.92 1061.42 62.152 1061 61.496C1060.6 60.84 1060.07 60.328 1059.4 59.96C1058.72 59.592 1057.96 59.408 1057.09 59.408C1056.16 59.408 1055.36 59.632 1054.67 60.08C1053.98 60.528 1053.45 61.136 1053.08 61.904C1052.72 62.656 1052.53 63.512 1052.53 64.472C1052.53 65.448 1052.72 66.32 1053.08 67.088C1053.47 67.856 1054 68.456 1054.69 68.888C1055.38 69.32 1056.18 69.536 1057.09 69.536ZM1081.17 71V67.184H1080.88V62.672C1080.88 61.728 1080.64 61.008 1080.14 60.512C1079.64 60 1078.88 59.744 1077.84 59.744C1077.36 59.744 1076.87 59.752 1076.37 59.768C1075.89 59.784 1075.43 59.808 1074.98 59.84C1074.55 59.856 1074.16 59.88 1073.83 59.912V58.328C1074.18 58.296 1074.54 58.264 1074.91 58.232C1075.28 58.2 1075.65 58.184 1076.04 58.184C1076.44 58.168 1076.82 58.16 1077.19 58.16C1078.48 58.16 1079.52 58.32 1080.31 58.64C1081.11 58.96 1081.69 59.464 1082.06 60.152C1082.43 60.824 1082.61 61.72 1082.61 62.84V71H1081.17ZM1076.88 71.336C1075.98 71.336 1075.19 71.176 1074.5 70.856C1073.81 70.536 1073.28 70.072 1072.89 69.464C1072.52 68.856 1072.34 68.12 1072.34 67.256C1072.34 66.408 1072.53 65.688 1072.92 65.096C1073.32 64.504 1073.88 64.056 1074.62 63.752C1075.37 63.432 1076.28 63.272 1077.33 63.272H1081.05V64.64H1077.21C1076.2 64.64 1075.43 64.888 1074.88 65.384C1074.36 65.864 1074.09 66.496 1074.09 67.28C1074.09 68.08 1074.37 68.72 1074.93 69.2C1075.49 69.664 1076.25 69.896 1077.21 69.896C1077.8 69.896 1078.37 69.792 1078.92 69.584C1079.46 69.36 1079.92 68.992 1080.28 68.48C1080.65 67.952 1080.85 67.232 1080.88 66.32L1081.41 67.064C1081.35 68.008 1081.12 68.8 1080.74 69.44C1080.36 70.064 1079.84 70.536 1079.18 70.856C1078.52 71.176 1077.76 71.336 1076.88 71.336ZM1087.23 71V53.48H1089.03V71H1087.23ZM1085.38 54.944V53.48H1089.03V54.944H1085.38ZM1098.54 75.968C1097.95 75.968 1097.35 75.936 1096.74 75.872C1096.15 75.824 1095.58 75.76 1095.04 75.68V74.144C1095.61 74.224 1096.21 74.288 1096.84 74.336C1097.48 74.4 1098.08 74.432 1098.64 74.432C1099.85 74.432 1100.82 74.272 1101.54 73.952C1102.26 73.632 1102.77 73.12 1103.08 72.416C1103.4 71.728 1103.56 70.816 1103.56 69.68V67.136L1104.23 65.36C1104.2 66.576 1103.94 67.624 1103.46 68.504C1102.98 69.368 1102.33 70.032 1101.52 70.496C1100.7 70.96 1099.77 71.192 1098.73 71.192C1097.82 71.192 1096.99 71.016 1096.24 70.664C1095.5 70.312 1094.87 69.832 1094.34 69.224C1093.81 68.6 1093.41 67.896 1093.12 67.112C1092.83 66.328 1092.69 65.504 1092.69 64.64V64.304C1092.69 63.456 1092.83 62.648 1093.12 61.88C1093.41 61.096 1093.81 60.408 1094.34 59.816C1094.87 59.208 1095.51 58.736 1096.26 58.4C1097.03 58.048 1097.88 57.872 1098.81 57.872C1099.93 57.872 1100.9 58.12 1101.73 58.616C1102.57 59.112 1103.21 59.8 1103.68 60.68C1104.16 61.56 1104.41 62.592 1104.45 63.776L1103.87 63.464V58.304H1105.29V69.608C1105.29 71.128 1105.06 72.352 1104.61 73.28C1104.17 74.208 1103.45 74.888 1102.45 75.32C1101.48 75.752 1100.17 75.968 1098.54 75.968ZM1099.05 69.536C1099.91 69.536 1100.68 69.352 1101.35 68.984C1102.04 68.6 1102.58 68.064 1102.98 67.376C1103.38 66.688 1103.58 65.888 1103.58 64.976V63.8C1103.58 62.92 1103.37 62.152 1102.96 61.496C1102.56 60.84 1102.02 60.328 1101.35 59.96C1100.68 59.592 1099.91 59.408 1099.05 59.408C1098.12 59.408 1097.31 59.632 1096.62 60.08C1095.93 60.528 1095.41 61.136 1095.04 61.904C1094.67 62.656 1094.49 63.512 1094.49 64.472C1094.49 65.448 1094.67 66.32 1095.04 67.088C1095.42 67.856 1095.96 68.456 1096.65 68.888C1097.33 69.32 1098.13 69.536 1099.05 69.536ZM1115.48 71.408C1114.4 71.408 1113.44 71.224 1112.6 70.856C1111.79 70.472 1111.09 69.968 1110.52 69.344C1109.96 68.704 1109.52 67.992 1109.22 67.208C1108.93 66.424 1108.79 65.624 1108.79 64.808V64.472C1108.79 63.656 1108.94 62.856 1109.24 62.072C1109.55 61.272 1109.99 60.56 1110.56 59.936C1111.14 59.312 1111.84 58.816 1112.65 58.448C1113.48 58.064 1114.43 57.872 1115.48 57.872C1116.56 57.872 1117.5 58.064 1118.32 58.448C1119.15 58.816 1119.85 59.312 1120.43 59.936C1121 60.56 1121.44 61.272 1121.72 62.072C1122.03 62.856 1122.18 63.656 1122.18 64.472V64.808C1122.18 65.624 1122.04 66.424 1121.75 67.208C1121.46 67.992 1121.03 68.704 1120.45 69.344C1119.89 69.968 1119.2 70.472 1118.36 70.856C1117.53 71.224 1116.57 71.408 1115.48 71.408ZM1115.48 69.8C1116.54 69.8 1117.43 69.568 1118.15 69.104C1118.88 68.624 1119.44 68 1119.83 67.232C1120.21 66.448 1120.4 65.584 1120.4 64.64C1120.4 63.68 1120.2 62.816 1119.8 62.048C1119.42 61.264 1118.86 60.648 1118.12 60.2C1117.39 59.736 1116.51 59.504 1115.48 59.504C1114.48 59.504 1113.6 59.736 1112.87 60.2C1112.13 60.648 1111.56 61.264 1111.16 62.048C1110.78 62.816 1110.59 63.68 1110.59 64.64C1110.59 65.584 1110.78 66.448 1111.16 67.232C1111.55 68 1112.1 68.624 1112.82 69.104C1113.56 69.568 1114.44 69.8 1115.48 69.8ZM1125.85 71V58.304H1127.29V63.608H1127.15C1127.15 61.752 1127.55 60.384 1128.37 59.504C1129.19 58.608 1130.47 58.16 1132.21 58.16H1132.62V59.792H1131.87C1130.5 59.792 1129.45 60.152 1128.73 60.872C1128.01 61.576 1127.65 62.616 1127.65 63.992V71H1125.85ZM1136.2 71V58.304H1137.98V71H1136.2ZM1134.16 59.744V58.304H1137.98V59.744H1134.16ZM1136.59 55.952C1136.15 55.952 1135.83 55.84 1135.6 55.616C1135.39 55.376 1135.29 55.08 1135.29 54.728C1135.29 54.376 1135.39 54.088 1135.6 53.864C1135.83 53.624 1136.15 53.504 1136.59 53.504C1137.02 53.504 1137.34 53.624 1137.55 53.864C1137.75 54.088 1137.86 54.376 1137.86 54.728C1137.86 55.08 1137.75 55.376 1137.55 55.616C1137.34 55.84 1137.02 55.952 1136.59 55.952ZM1147.31 71.144C1146.43 71.144 1145.67 71.016 1145.03 70.76C1144.39 70.504 1143.89 70.072 1143.54 69.464C1143.19 68.84 1143.01 68.008 1143.01 66.968V54.296H1144.74V67.232C1144.74 67.968 1144.94 68.536 1145.34 68.936C1145.74 69.32 1146.31 69.512 1147.05 69.512H1149.33V71.144H1147.31ZM1140.73 59.672V58.304H1149.33V59.672H1140.73ZM1152.8 71V53.48H1154.6V63.392L1154.08 63.8C1154.08 62.616 1154.24 61.584 1154.58 60.704C1154.93 59.824 1155.45 59.144 1156.14 58.664C1156.84 58.168 1157.72 57.92 1158.78 57.92H1158.88C1160.41 57.92 1161.57 58.424 1162.36 59.432C1163.16 60.44 1163.56 61.84 1163.56 63.632V71H1161.78V63.248C1161.78 62.112 1161.47 61.216 1160.84 60.56C1160.22 59.904 1159.38 59.576 1158.32 59.576C1157.19 59.576 1156.28 59.944 1155.61 60.68C1154.94 61.4 1154.6 62.352 1154.6 63.536V71H1152.8ZM1168.71 71V58.304H1170.49V71H1168.71ZM1166.67 59.744V58.304H1170.49V59.744H1166.67ZM1169.09 55.952C1168.66 55.952 1168.33 55.84 1168.11 55.616C1167.9 55.376 1167.8 55.08 1167.8 54.728C1167.8 54.376 1167.9 54.088 1168.11 53.864C1168.33 53.624 1168.66 53.504 1169.09 53.504C1169.53 53.504 1169.85 53.624 1170.05 53.864C1170.26 54.088 1170.37 54.376 1170.37 54.728C1170.37 55.08 1170.26 55.376 1170.05 55.616C1169.85 55.84 1169.53 55.952 1169.09 55.952ZM1175.21 71V58.28H1176.65V63.632H1176.36C1176.36 62.464 1176.52 61.456 1176.84 60.608C1177.18 59.76 1177.67 59.104 1178.33 58.64C1178.99 58.16 1179.82 57.92 1180.83 57.92H1180.9C1181.91 57.92 1182.74 58.152 1183.39 58.616C1184.05 59.08 1184.54 59.736 1184.86 60.584C1185.18 61.432 1185.34 62.448 1185.34 63.632H1184.76C1184.76 62.464 1184.92 61.456 1185.24 60.608C1185.58 59.76 1186.07 59.104 1186.73 58.64C1187.4 58.16 1188.24 57.92 1189.25 57.92H1189.32C1190.33 57.92 1191.16 58.152 1191.82 58.616C1192.49 59.08 1192.99 59.736 1193.31 60.584C1193.64 61.432 1193.81 62.448 1193.81 63.632V71H1192.01V63.224C1192.01 62.104 1191.74 61.216 1191.19 60.56C1190.65 59.904 1189.87 59.576 1188.84 59.576C1187.79 59.576 1186.95 59.92 1186.32 60.608C1185.71 61.28 1185.41 62.192 1185.41 63.344V71H1183.61V63.224C1183.61 62.104 1183.34 61.216 1182.79 60.56C1182.25 59.904 1181.47 59.576 1180.44 59.576C1179.39 59.576 1178.55 59.92 1177.92 60.608C1177.31 61.28 1177.01 62.192 1177.01 63.344V71H1175.21Z" fill="#0C071D"/>
<path d="M1449.77 46.7678C1450.74 45.7915 1450.74 44.2085 1449.77 43.2322L1433.86 27.3223C1432.88 26.346 1431.3 26.346 1430.32 27.3223C1429.35 28.2986 1429.35 29.8816 1430.32 30.8579L1444.46 45L1430.32 59.1421C1429.35 60.1184 1429.35 61.7014 1430.32 62.6777C1431.3 63.654 1432.88 63.654 1433.86 62.6777L1449.77 46.7678ZM1365 47.5H1448V42.5H1365V47.5Z" fill="#F79327"/>
<path d="M1501.22 48.064C1498.01 48.064 1495.29 47.5413 1493.05 46.496C1490.81 45.4133 1488.98 43.9573 1487.56 42.128C1486.14 40.2613 1485.1 38.1333 1484.42 35.744C1483.79 33.3173 1483.47 30.7787 1483.47 28.128V24.992C1483.47 21.2213 1484.11 17.824 1485.38 14.8C1486.65 11.776 1488.59 9.38667 1491.2 7.632C1493.81 5.84 1497.15 4.944 1501.22 4.944C1505.26 4.944 1508.58 5.84 1511.19 7.632C1513.81 9.38667 1515.73 11.776 1516.96 14.8C1518.23 17.824 1518.86 21.2213 1518.86 24.992V28.128C1518.86 30.7787 1518.53 33.3173 1517.86 35.744C1517.22 38.1333 1516.19 40.2613 1514.78 42.128C1513.39 43.9573 1511.58 45.4133 1509.34 46.496C1507.1 47.5413 1504.4 48.064 1501.22 48.064ZM1501.22 40.784C1504.55 40.784 1506.99 39.6453 1508.56 37.368C1510.13 35.0533 1510.91 31.4693 1510.91 26.616C1510.91 21.464 1510.11 17.7867 1508.5 15.584C1506.9 13.344 1504.47 12.224 1501.22 12.224C1497.94 12.224 1495.47 13.344 1493.83 15.584C1492.23 17.7867 1491.42 21.4267 1491.42 26.504C1491.42 31.3947 1492.23 34.9973 1493.83 37.312C1495.44 39.6267 1497.9 40.784 1501.22 40.784ZM1523.28 47L1533.19 30.76L1533.02 32.048L1523.67 16.592H1532.13L1538.23 27.288H1539.07L1544.84 16.592H1552.79L1543.94 31.992L1544.11 30.872L1554.58 47H1546.13L1538.9 35.52H1538.06L1531.23 47H1523.28ZM1573.23 4.944C1576.25 4.944 1578.81 5.46666 1580.9 6.512C1583.03 7.52 1584.74 8.92 1586.05 10.712C1587.36 12.504 1588.31 14.5947 1588.91 16.984C1589.5 19.336 1589.8 21.8373 1589.8 24.488V26.952C1589.8 33.6347 1588.1 38.712 1584.71 42.184C1581.35 45.6187 1576.4 47.336 1569.87 47.336C1568.45 47.336 1567.12 47.2987 1565.89 47.224C1564.66 47.1493 1563.43 47.0373 1562.2 46.888V40.224C1563.43 40.3733 1564.68 40.4853 1565.95 40.56C1567.25 40.6347 1568.65 40.672 1570.15 40.672C1573.28 40.672 1575.75 40.1307 1577.54 39.048C1579.33 37.9653 1580.6 36.3787 1581.35 34.288C1582.13 32.1973 1582.52 29.6027 1582.52 26.504V22.864L1584.32 20.288C1584.28 23.1627 1583.7 25.552 1582.58 27.456C1581.5 29.3227 1579.98 30.7413 1578.04 31.712C1576.1 32.6453 1573.88 33.112 1571.38 33.112C1568.47 33.112 1565.98 32.5333 1563.93 31.376C1561.88 30.2187 1560.29 28.6133 1559.17 26.56C1558.09 24.5067 1557.55 22.1173 1557.55 19.392C1557.55 16.5547 1558.18 14.0533 1559.45 11.888C1560.72 9.68533 1562.51 7.98666 1564.83 6.792C1567.18 5.56 1569.98 4.944 1573.23 4.944ZM1573.4 11.608C1571.64 11.608 1570.15 11.944 1568.92 12.616C1567.68 13.2507 1566.75 14.1467 1566.12 15.304C1565.48 16.4613 1565.16 17.7867 1565.16 19.28C1565.16 20.8107 1565.46 22.1547 1566.06 23.312C1566.69 24.4693 1567.61 25.3653 1568.8 26C1570 26.6347 1571.44 26.952 1573.12 26.952C1574.72 26.952 1576.18 26.672 1577.48 26.112C1578.83 25.5147 1579.87 24.656 1580.62 23.536C1581.4 22.3787 1581.8 20.96 1581.8 19.28C1581.8 17.824 1581.48 16.5173 1580.84 15.36C1580.25 14.2027 1579.31 13.288 1578.04 12.616C1576.81 11.944 1575.26 11.608 1573.4 11.608ZM1611.24 48.064C1608.03 48.064 1605.26 47.4293 1602.95 46.16C1600.67 44.8907 1598.92 43.2107 1597.68 41.12C1596.49 38.992 1595.89 36.6773 1595.89 34.176H1603.56C1603.56 35.5947 1603.88 36.8453 1604.52 37.928C1605.19 39.0107 1606.1 39.8693 1607.26 40.504C1608.42 41.1013 1609.76 41.4 1611.29 41.4C1612.9 41.4 1614.28 41.064 1615.44 40.392C1616.59 39.72 1617.47 38.8053 1618.07 37.648C1618.7 36.4907 1619.02 35.1653 1619.02 33.672C1619.02 32.216 1618.7 30.9093 1618.07 29.752C1617.47 28.5573 1616.59 27.624 1615.44 26.952C1614.32 26.2427 1612.95 25.888 1611.35 25.888C1610 25.888 1608.74 26.1493 1607.54 26.672C1606.35 27.1947 1605.41 27.8853 1604.74 28.744H1597.4L1599.48 6.12H1623.16V12.896H1602.95L1605.75 10.712L1604.4 24.824L1602.5 24.264C1603.58 23.032 1604.91 22.0053 1606.48 21.184C1608.04 20.3627 1610.02 19.952 1612.41 19.952C1615.44 19.952 1618.01 20.568 1620.14 21.8C1622.27 23.032 1623.89 24.6747 1625.01 26.728C1626.13 28.744 1626.69 30.9467 1626.69 33.336V34.064C1626.69 36.4907 1626.1 38.768 1624.9 40.896C1623.71 43.024 1621.95 44.76 1619.64 46.104C1617.36 47.4107 1614.56 48.064 1611.24 48.064ZM1646.84 4.944C1649.86 4.944 1652.42 5.46666 1654.51 6.512C1656.64 7.52 1658.35 8.92 1659.66 10.712C1660.97 12.504 1661.92 14.5947 1662.52 16.984C1663.11 19.336 1663.41 21.8373 1663.41 24.488V26.952C1663.41 33.6347 1661.71 38.712 1658.32 42.184C1654.96 45.6187 1650.01 47.336 1643.48 47.336C1642.06 47.336 1640.73 47.2987 1639.5 47.224C1638.27 47.1493 1637.04 47.0373 1635.8 46.888V40.224C1637.04 40.3733 1638.29 40.4853 1639.56 40.56C1640.86 40.6347 1642.26 40.672 1643.76 40.672C1646.89 40.672 1649.36 40.1307 1651.15 39.048C1652.94 37.9653 1654.21 36.3787 1654.96 34.288C1655.74 32.1973 1656.13 29.6027 1656.13 26.504V22.864L1657.92 20.288C1657.89 23.1627 1657.31 25.552 1656.19 27.456C1655.11 29.3227 1653.59 30.7413 1651.65 31.712C1649.71 32.6453 1647.49 33.112 1644.99 33.112C1642.08 33.112 1639.59 32.5333 1637.54 31.376C1635.49 30.2187 1633.9 28.6133 1632.78 26.56C1631.7 24.5067 1631.16 22.1173 1631.16 19.392C1631.16 16.5547 1631.79 14.0533 1633.06 11.888C1634.33 9.68533 1636.12 7.98666 1638.44 6.792C1640.79 5.56 1643.59 4.944 1646.84 4.944ZM1647 11.608C1645.25 11.608 1643.76 11.944 1642.52 12.616C1641.29 13.2507 1640.36 14.1467 1639.72 15.304C1639.09 16.4613 1638.77 17.7867 1638.77 19.28C1638.77 20.8107 1639.07 22.1547 1639.67 23.312C1640.3 24.4693 1641.22 25.3653 1642.41 26C1643.61 26.6347 1645.04 26.952 1646.72 26.952C1648.33 26.952 1649.79 26.672 1651.09 26.112C1652.44 25.5147 1653.48 24.656 1654.23 23.536C1655.01 22.3787 1655.4 20.96 1655.4 19.28C1655.4 17.824 1655.09 16.5173 1654.45 15.36C1653.86 14.2027 1652.92 13.288 1651.65 12.616C1650.42 11.944 1648.87 11.608 1647 11.608ZM1669.95 47V38.04H1678.69V47H1669.95ZM1684.99 47V38.04H1693.72V47H1684.99ZM1700.03 47V38.04H1708.76V47H1700.03ZM1728.24 48.008C1726.11 48.008 1724.15 47.616 1722.36 46.832C1720.57 46.048 1719.02 44.9467 1717.71 43.528C1716.41 42.1093 1715.4 40.4667 1714.69 38.6C1713.98 36.696 1713.63 34.6427 1713.63 32.44V31.264C1713.63 29.0987 1713.96 27.064 1714.63 25.16C1715.34 23.256 1716.31 21.5947 1717.55 20.176C1718.82 18.7573 1720.33 17.656 1722.08 16.872C1723.87 16.0507 1725.85 15.64 1728.02 15.64C1730.41 15.64 1732.5 16.1627 1734.29 17.208C1736.12 18.216 1737.58 19.7467 1738.66 21.8C1739.74 23.8533 1740.34 26.4293 1740.45 29.528L1738.15 26.84V6.12H1745.94V47H1739.78V34.064H1741.12C1741.01 37.1627 1740.38 39.7573 1739.22 41.848C1738.06 43.9013 1736.53 45.4507 1734.63 46.496C1732.76 47.504 1730.63 48.008 1728.24 48.008ZM1729.98 41.456C1731.51 41.456 1732.91 41.12 1734.18 40.448C1735.45 39.7387 1736.46 38.7307 1737.2 37.424C1737.99 36.08 1738.38 34.512 1738.38 32.72V30.48C1738.38 28.688 1737.99 27.1947 1737.2 26C1736.42 24.768 1735.39 23.8347 1734.12 23.2C1732.85 22.528 1731.47 22.192 1729.98 22.192C1728.3 22.192 1726.81 22.6027 1725.5 23.424C1724.23 24.208 1723.22 25.328 1722.47 26.784C1721.77 28.24 1721.41 29.9387 1721.41 31.88C1721.41 33.8213 1721.78 35.52 1722.53 36.976C1723.28 38.3947 1724.29 39.496 1725.55 40.28C1726.86 41.064 1728.34 41.456 1729.98 41.456ZM1768.46 48.064C1765.25 48.064 1762.49 47.4293 1760.18 46.16C1757.9 44.8907 1756.14 43.2107 1754.91 41.12C1753.72 38.992 1753.12 36.6773 1753.12 34.176H1760.79C1760.79 35.5947 1761.11 36.8453 1761.74 37.928C1762.42 39.0107 1763.33 39.8693 1764.49 40.504C1765.64 41.1013 1766.99 41.4 1768.52 41.4C1770.12 41.4 1771.51 41.064 1772.66 40.392C1773.82 39.72 1774.7 38.8053 1775.3 37.648C1775.93 36.4907 1776.25 35.1653 1776.25 33.672C1776.25 32.216 1775.93 30.9093 1775.3 29.752C1774.7 28.5573 1773.82 27.624 1772.66 26.952C1771.54 26.2427 1770.18 25.888 1768.58 25.888C1767.23 25.888 1765.96 26.1493 1764.77 26.672C1763.57 27.1947 1762.64 27.8853 1761.97 28.744H1754.63L1756.7 6.12H1780.39V12.896H1760.18L1762.98 10.712L1761.63 24.824L1759.73 24.264C1760.81 23.032 1762.14 22.0053 1763.7 21.184C1765.27 20.3627 1767.25 19.952 1769.64 19.952C1772.66 19.952 1775.24 20.568 1777.37 21.8C1779.5 23.032 1781.12 24.6747 1782.24 26.728C1783.36 28.744 1783.92 30.9467 1783.92 33.336V34.064C1783.92 36.4907 1783.32 38.768 1782.13 40.896C1780.93 43.024 1779.18 44.76 1776.86 46.104C1774.59 47.4107 1771.79 48.064 1768.46 48.064ZM1807.26 48.064C1804.04 48.064 1801.32 47.5413 1799.08 46.496C1796.84 45.4133 1795.01 43.9573 1793.59 42.128C1792.17 40.2613 1791.13 38.1333 1790.46 35.744C1789.82 33.3173 1789.5 30.7787 1789.5 28.128V24.992C1789.5 21.2213 1790.14 17.824 1791.41 14.8C1792.68 11.776 1794.62 9.38667 1797.23 7.632C1799.84 5.84 1803.19 4.944 1807.26 4.944C1811.29 4.944 1814.61 5.84 1817.22 7.632C1819.84 9.38667 1821.76 11.776 1822.99 14.8C1824.26 17.824 1824.9 21.2213 1824.9 24.992V28.128C1824.9 30.7787 1824.56 33.3173 1823.89 35.744C1823.25 38.1333 1822.23 40.2613 1820.81 42.128C1819.43 43.9573 1817.62 45.4133 1815.38 46.496C1813.14 47.5413 1810.43 48.064 1807.26 48.064ZM1807.26 40.784C1810.58 40.784 1813.02 39.6453 1814.59 37.368C1816.16 35.0533 1816.94 31.4693 1816.94 26.616C1816.94 21.464 1816.14 17.7867 1814.54 15.584C1812.93 13.344 1810.5 12.224 1807.26 12.224C1803.97 12.224 1801.51 13.344 1799.86 15.584C1798.26 17.7867 1797.46 21.4267 1797.46 26.504C1797.46 31.3947 1798.26 34.9973 1799.86 37.312C1801.47 39.6267 1803.93 40.784 1807.26 40.784Z" fill="#0C071D"/>
<path opacity="0.67" d="M1498.95 71V53.48H1500.78V71H1498.95ZM1486.91 71V53.48H1488.73V71H1486.91ZM1488.32 63.128V61.496H1499.36V63.128H1488.32ZM1509.82 75.368C1508.97 74.392 1508.21 73.328 1507.54 72.176C1506.88 71.04 1506.37 69.784 1506 68.408C1505.65 67.016 1505.47 65.472 1505.47 63.776C1505.47 62.096 1505.66 60.568 1506.03 59.192C1506.39 57.816 1506.91 56.568 1507.56 55.448C1508.22 54.328 1508.97 53.304 1509.82 52.376H1511.88C1510.89 53.464 1510.05 54.584 1509.36 55.736C1508.67 56.872 1508.15 58.104 1507.78 59.432C1507.41 60.744 1507.23 62.192 1507.23 63.776C1507.23 65.376 1507.4 66.848 1507.75 68.192C1508.12 69.52 1508.65 70.768 1509.34 71.936C1510.04 73.104 1510.89 74.248 1511.88 75.368H1509.82ZM1514.69 71V58.28H1516.13V63.632H1515.85C1515.85 62.464 1516.01 61.456 1516.33 60.608C1516.66 59.76 1517.16 59.104 1517.81 58.64C1518.47 58.16 1519.3 57.92 1520.31 57.92H1520.38C1521.39 57.92 1522.22 58.152 1522.88 58.616C1523.53 59.08 1524.02 59.736 1524.34 60.584C1524.66 61.432 1524.82 62.448 1524.82 63.632H1524.25C1524.25 62.464 1524.41 61.456 1524.73 60.608C1525.06 59.76 1525.56 59.104 1526.21 58.64C1526.89 58.16 1527.73 57.92 1528.73 57.92H1528.81C1529.81 57.92 1530.65 58.152 1531.3 58.616C1531.97 59.08 1532.47 59.736 1532.79 60.584C1533.13 61.432 1533.29 62.448 1533.29 63.632V71H1531.49V63.224C1531.49 62.104 1531.22 61.216 1530.68 60.56C1530.13 59.904 1529.35 59.576 1528.33 59.576C1527.27 59.576 1526.43 59.92 1525.81 60.608C1525.2 61.28 1524.89 62.192 1524.89 63.344V71H1523.09V63.224C1523.09 62.104 1522.82 61.216 1522.28 60.56C1521.73 59.904 1520.95 59.576 1519.93 59.576C1518.87 59.576 1518.03 59.92 1517.41 60.608C1516.8 61.28 1516.49 62.192 1516.49 63.344V71H1514.69ZM1537.55 75.368H1535.49C1536.48 74.248 1537.32 73.104 1538.01 71.936C1538.71 70.768 1539.24 69.52 1539.59 68.192C1539.96 66.848 1540.14 65.376 1540.14 63.776C1540.14 62.192 1539.96 60.744 1539.59 59.432C1539.22 58.104 1538.69 56.872 1538.01 55.736C1537.32 54.584 1536.48 53.464 1535.49 52.376H1537.55C1538.4 53.304 1539.15 54.328 1539.81 55.448C1540.46 56.568 1540.97 57.816 1541.34 59.192C1541.71 60.568 1541.89 62.096 1541.89 63.776C1541.89 65.472 1541.71 67.016 1541.34 68.408C1540.99 69.784 1540.48 71.04 1539.81 72.176C1539.15 73.328 1538.4 74.392 1537.55 75.368ZM1546.17 74.672L1544.71 74.144L1546.79 68.36L1548.31 68.912L1546.17 74.672ZM1565.71 71V67.184H1565.42V62.672C1565.42 61.728 1565.17 61.008 1564.68 60.512C1564.18 60 1563.41 59.744 1562.37 59.744C1561.89 59.744 1561.41 59.752 1560.91 59.768C1560.43 59.784 1559.97 59.808 1559.52 59.84C1559.09 59.856 1558.7 59.88 1558.37 59.912V58.328C1558.72 58.296 1559.08 58.264 1559.45 58.232C1559.81 58.2 1560.19 58.184 1560.57 58.184C1560.97 58.168 1561.36 58.16 1561.73 58.16C1563.02 58.16 1564.06 58.32 1564.85 58.64C1565.65 58.96 1566.23 59.464 1566.6 60.152C1566.97 60.824 1567.15 61.72 1567.15 62.84V71H1565.71ZM1561.41 71.336C1560.52 71.336 1559.73 71.176 1559.04 70.856C1558.35 70.536 1557.81 70.072 1557.43 69.464C1557.06 68.856 1556.88 68.12 1556.88 67.256C1556.88 66.408 1557.07 65.688 1557.45 65.096C1557.85 64.504 1558.42 64.056 1559.16 63.752C1559.91 63.432 1560.81 63.272 1561.87 63.272H1565.59V64.64H1561.75C1560.74 64.64 1559.97 64.888 1559.42 65.384C1558.89 65.864 1558.63 66.496 1558.63 67.28C1558.63 68.08 1558.91 68.72 1559.47 69.2C1560.03 69.664 1560.79 69.896 1561.75 69.896C1562.34 69.896 1562.91 69.792 1563.45 69.584C1564 69.36 1564.45 68.992 1564.82 68.48C1565.19 67.952 1565.39 67.232 1565.42 66.32L1565.95 67.064C1565.89 68.008 1565.66 68.8 1565.28 69.44C1564.89 70.064 1564.37 70.536 1563.72 70.856C1563.06 71.176 1562.29 71.336 1561.41 71.336ZM1582.05 71.408C1580.77 71.408 1579.68 71.16 1578.78 70.664C1577.9 70.168 1577.23 69.496 1576.77 68.648C1576.3 67.8 1576.07 66.872 1576.07 65.864H1577.82C1577.82 67.08 1578.2 68.048 1578.95 68.768C1579.7 69.472 1580.74 69.824 1582.05 69.824C1582.9 69.824 1583.63 69.664 1584.26 69.344C1584.9 69.024 1585.38 68.568 1585.72 67.976C1586.07 67.384 1586.25 66.696 1586.25 65.912C1586.25 64.712 1585.87 63.744 1585.12 63.008C1584.37 62.272 1583.35 61.904 1582.07 61.904C1581.56 61.904 1581.12 61.968 1580.75 62.096C1580.38 62.208 1580.06 62.352 1579.77 62.528L1578.78 60.848L1585.77 55.424L1585.58 55.04H1576.77V53.48H1587.26V56.072L1581.06 60.896L1579.89 60.92C1580.18 60.792 1580.5 60.688 1580.87 60.608C1581.24 60.512 1581.66 60.464 1582.14 60.464C1583.38 60.464 1584.42 60.704 1585.29 61.184C1586.17 61.664 1586.84 62.304 1587.3 63.104C1587.77 63.904 1588 64.784 1588 65.744V66.08C1588 67.008 1587.77 67.88 1587.3 68.696C1586.84 69.512 1586.17 70.168 1585.29 70.664C1584.41 71.16 1583.33 71.408 1582.05 71.408ZM1591.49 71V68.336C1591.49 67.648 1591.59 67.064 1591.78 66.584C1591.97 66.104 1592.31 65.664 1592.79 65.264C1593.27 64.864 1593.92 64.48 1594.75 64.112L1598.19 62.504C1599.02 62.12 1599.68 61.616 1600.18 60.992C1600.67 60.368 1600.92 59.552 1600.92 58.544C1600.92 57.312 1600.57 56.352 1599.87 55.664C1599.18 54.96 1598.23 54.608 1597.01 54.608C1595.81 54.608 1594.85 54.96 1594.13 55.664C1593.43 56.352 1593.07 57.312 1593.07 58.544H1591.32C1591.32 57.504 1591.54 56.568 1591.97 55.736C1592.4 54.904 1593.04 54.248 1593.89 53.768C1594.74 53.272 1595.78 53.024 1597.01 53.024C1598.26 53.024 1599.3 53.272 1600.13 53.768C1600.96 54.248 1601.59 54.896 1602.03 55.712C1602.46 56.512 1602.67 57.4 1602.67 58.376V58.712C1602.67 59.96 1602.31 61.008 1601.59 61.856C1600.89 62.688 1599.96 63.376 1598.81 63.92L1595.35 65.528C1594.54 65.896 1593.99 66.28 1593.7 66.68C1593.43 67.064 1593.29 67.56 1593.29 68.168V70.304L1592.76 69.44H1602.96V71H1591.49ZM1606.09 65.096V63.56H1614.51V65.096H1606.09ZM1625.19 71.408C1624.07 71.408 1623.09 71.16 1622.24 70.664C1621.41 70.168 1620.75 69.472 1620.27 68.576C1619.81 67.68 1619.56 66.648 1619.53 65.48H1620.08V71H1618.64V53.48H1620.44V62.24L1619.74 63.848C1619.78 62.568 1620.03 61.488 1620.51 60.608C1621.01 59.712 1621.66 59.032 1622.48 58.568C1623.31 58.104 1624.26 57.872 1625.31 57.872C1626.24 57.872 1627.08 58.048 1627.83 58.4C1628.58 58.752 1629.22 59.232 1629.75 59.84C1630.3 60.448 1630.7 61.152 1630.98 61.952C1631.26 62.736 1631.41 63.568 1631.41 64.448V64.784C1631.41 65.648 1631.26 66.48 1630.98 67.28C1630.69 68.064 1630.27 68.768 1629.73 69.392C1629.2 70.016 1628.55 70.512 1627.78 70.88C1627.02 71.232 1626.15 71.408 1625.19 71.408ZM1625 69.824C1625.96 69.824 1626.78 69.592 1627.47 69.128C1628.16 68.664 1628.69 68.04 1629.06 67.256C1629.42 66.472 1629.61 65.592 1629.61 64.616C1629.61 63.624 1629.42 62.744 1629.03 61.976C1628.66 61.192 1628.13 60.576 1627.42 60.128C1626.74 59.68 1625.93 59.456 1625 59.456C1624.14 59.456 1623.35 59.648 1622.65 60.032C1621.94 60.416 1621.38 60.96 1620.97 61.664C1620.57 62.352 1620.37 63.168 1620.37 64.112V65.288C1620.37 66.184 1620.57 66.976 1620.97 67.664C1621.38 68.336 1621.94 68.864 1622.65 69.248C1623.35 69.632 1624.14 69.824 1625 69.824ZM1633.71 75.944V74.336H1635.34C1635.9 74.336 1636.38 74.264 1636.78 74.12C1637.18 73.992 1637.51 73.76 1637.79 73.424C1638.06 73.088 1638.29 72.624 1638.48 72.032L1642.75 58.304H1644.51L1640.04 72.536C1639.79 73.352 1639.43 74.008 1638.99 74.504C1638.54 75.016 1638 75.384 1637.38 75.608C1636.75 75.832 1636.04 75.944 1635.24 75.944H1633.71ZM1637.83 70.688V69.176H1640.11V70.688H1637.83ZM1637.62 70.688L1633.01 58.304H1634.86L1639.3 70.688H1637.62ZM1652.5 71.144C1651.62 71.144 1650.86 71.016 1650.22 70.76C1649.58 70.504 1649.08 70.072 1648.73 69.464C1648.38 68.84 1648.2 68.008 1648.2 66.968V54.296H1649.93V67.232C1649.93 67.968 1650.13 68.536 1650.53 68.936C1650.93 69.32 1651.5 69.512 1652.23 69.512H1654.51V71.144H1652.5ZM1645.92 59.672V58.304H1654.51V59.672H1645.92ZM1663.18 71.408C1662.09 71.408 1661.15 71.224 1660.35 70.856C1659.55 70.472 1658.89 69.968 1658.38 69.344C1657.87 68.704 1657.48 67.992 1657.23 67.208C1656.99 66.424 1656.87 65.616 1656.87 64.784V64.448C1656.87 63.632 1656.99 62.832 1657.23 62.048C1657.48 61.264 1657.87 60.56 1658.38 59.936C1658.89 59.312 1659.53 58.816 1660.3 58.448C1661.08 58.064 1661.99 57.872 1663.03 57.872C1664.36 57.872 1665.47 58.168 1666.35 58.76C1667.24 59.352 1667.91 60.112 1668.36 61.04C1668.81 61.952 1669.03 62.936 1669.03 63.992V64.928H1657.68V63.536H1667.79L1667.33 64.232C1667.33 63.288 1667.16 62.464 1666.83 61.76C1666.51 61.04 1666.03 60.48 1665.39 60.08C1664.76 59.664 1663.98 59.456 1663.03 59.456C1662.04 59.456 1661.22 59.688 1660.56 60.152C1659.91 60.616 1659.41 61.232 1659.07 62C1658.75 62.768 1658.59 63.64 1658.59 64.616C1658.59 65.576 1658.75 66.456 1659.07 67.256C1659.41 68.04 1659.91 68.664 1660.59 69.128C1661.27 69.592 1662.14 69.824 1663.18 69.824C1664.28 69.824 1665.18 69.576 1665.87 69.08C1666.55 68.568 1666.98 67.968 1667.14 67.28H1668.82C1668.66 68.128 1668.32 68.864 1667.81 69.488C1667.3 70.096 1666.65 70.568 1665.87 70.904C1665.08 71.24 1664.19 71.408 1663.18 71.408ZM1678.1 71V53.48H1679.9V63.392L1679.37 63.8C1679.37 62.616 1679.54 61.584 1679.88 60.704C1680.23 59.824 1680.75 59.144 1681.44 58.664C1682.14 58.168 1683.02 57.92 1684.08 57.92H1684.17C1685.71 57.92 1686.87 58.424 1687.65 59.432C1688.45 60.44 1688.85 61.84 1688.85 63.632V71H1687.08V63.248C1687.08 62.112 1686.76 61.216 1686.14 60.56C1685.52 59.904 1684.68 59.576 1683.62 59.576C1682.48 59.576 1681.58 59.944 1680.91 60.68C1680.24 61.4 1679.9 62.352 1679.9 63.536V71H1678.1ZM1701.06 71V67.184H1700.77V62.672C1700.77 61.728 1700.53 61.008 1700.03 60.512C1699.53 60 1698.77 59.744 1697.73 59.744C1697.25 59.744 1696.76 59.752 1696.26 59.768C1695.78 59.784 1695.32 59.808 1694.87 59.84C1694.44 59.856 1694.05 59.88 1693.72 59.912V58.328C1694.07 58.296 1694.43 58.264 1694.8 58.232C1695.17 58.2 1695.54 58.184 1695.93 58.184C1696.33 58.168 1696.71 58.16 1697.08 58.16C1698.37 58.16 1699.41 58.32 1700.2 58.64C1701 58.96 1701.58 59.464 1701.95 60.152C1702.32 60.824 1702.5 61.72 1702.5 62.84V71H1701.06ZM1696.77 71.336C1695.87 71.336 1695.08 71.176 1694.39 70.856C1693.7 70.536 1693.17 70.072 1692.78 69.464C1692.41 68.856 1692.23 68.12 1692.23 67.256C1692.23 66.408 1692.42 65.688 1692.81 65.096C1693.21 64.504 1693.77 64.056 1694.51 63.752C1695.26 63.432 1696.17 63.272 1697.22 63.272H1700.94V64.64H1697.1C1696.09 64.64 1695.32 64.888 1694.77 65.384C1694.25 65.864 1693.98 66.496 1693.98 67.28C1693.98 68.08 1694.26 68.72 1694.82 69.2C1695.38 69.664 1696.14 69.896 1697.1 69.896C1697.69 69.896 1698.26 69.792 1698.81 69.584C1699.35 69.36 1699.81 68.992 1700.17 68.48C1700.54 67.952 1700.74 67.232 1700.77 66.32L1701.3 67.064C1701.24 68.008 1701.01 68.8 1700.63 69.44C1700.25 70.064 1699.73 70.536 1699.07 70.856C1698.41 71.176 1697.65 71.336 1696.77 71.336ZM1711.01 71.36C1709.37 71.36 1708.12 71.008 1707.24 70.304C1706.36 69.584 1705.91 68.624 1705.89 67.424H1707.57C1707.61 68.032 1707.88 68.584 1708.39 69.08C1708.92 69.576 1709.79 69.824 1711.01 69.824C1712.14 69.824 1712.99 69.592 1713.55 69.128C1714.13 68.648 1714.41 68.072 1714.41 67.4C1714.41 66.776 1714.17 66.296 1713.69 65.96C1713.23 65.608 1712.55 65.384 1711.65 65.288L1710.21 65.144C1709.06 65.016 1708.13 64.664 1707.41 64.088C1706.7 63.496 1706.35 62.688 1706.35 61.664C1706.35 60.912 1706.54 60.256 1706.93 59.696C1707.31 59.136 1707.85 58.704 1708.53 58.4C1709.24 58.08 1710.06 57.92 1711.01 57.92C1712.37 57.92 1713.47 58.24 1714.32 58.88C1715.18 59.52 1715.62 60.432 1715.64 61.616H1713.96C1713.94 61.008 1713.69 60.496 1713.19 60.08C1712.69 59.664 1711.97 59.456 1711.01 59.456C1710.01 59.456 1709.27 59.672 1708.77 60.104C1708.29 60.536 1708.05 61.064 1708.05 61.688C1708.05 62.216 1708.24 62.656 1708.61 63.008C1708.97 63.344 1709.55 63.552 1710.33 63.632L1711.77 63.776C1713.05 63.92 1714.09 64.288 1714.89 64.88C1715.71 65.472 1716.12 66.32 1716.12 67.424C1716.12 68.176 1715.9 68.856 1715.47 69.464C1715.05 70.056 1714.46 70.52 1713.69 70.856C1712.93 71.192 1712.03 71.36 1711.01 71.36ZM1719.7 71V53.48H1721.5V63.392L1720.97 63.8C1720.97 62.616 1721.14 61.584 1721.48 60.704C1721.83 59.824 1722.35 59.144 1723.04 58.664C1723.74 58.168 1724.62 57.92 1725.68 57.92H1725.77C1727.31 57.92 1728.47 58.424 1729.25 59.432C1730.05 60.44 1730.45 61.84 1730.45 63.632V71H1728.68V63.248C1728.68 62.112 1728.37 61.216 1727.74 60.56C1727.12 59.904 1726.28 59.576 1725.22 59.576C1724.09 59.576 1723.18 59.944 1722.51 60.68C1721.84 61.4 1721.5 62.352 1721.5 63.536V71H1719.7Z" fill="#0C071D"/>
</svg>
