<svg width="1105" height="82" viewBox="0 0 1105 82" fill="none" xmlns="http://www.w3.org/2000/svg">
<path d="M29.424 47V16.592H35.584V29.64H35.024C35.024 26.5787 35.416 24.0213 36.2 21.968C36.984 19.8773 38.1413 18.3093 39.672 17.264C41.24 16.1813 43.1813 15.64 45.496 15.64H45.832C48.184 15.64 50.1253 16.1813 51.656 17.264C53.224 18.3093 54.3813 19.8773 55.128 21.968C55.912 24.0213 56.304 26.5787 56.304 29.64H54.344C54.344 26.5787 54.736 24.0213 55.52 21.968C56.3413 19.8773 57.5173 18.3093 59.048 17.264C60.616 16.1813 62.5573 15.64 64.872 15.64H65.208C67.56 15.64 69.52 16.1813 71.088 17.264C72.656 18.3093 73.832 19.8773 74.616 21.968C75.4373 24.0213 75.848 26.5787 75.848 29.64V47H68.064V28.912C68.064 27.008 67.5787 25.496 66.608 24.376C65.6373 23.2187 64.256 22.64 62.464 22.64C60.672 22.64 59.2347 23.2373 58.152 24.432C57.0693 25.5893 56.528 27.1573 56.528 29.136V47H48.744V28.912C48.744 27.008 48.2587 25.496 47.288 24.376C46.3173 23.2187 44.936 22.64 43.144 22.64C41.352 22.64 39.9147 23.2373 38.832 24.432C37.7493 25.5893 37.208 27.1573 37.208 29.136V47H29.424Z" fill="#0C071D"/>
<path opacity="0.67" d="M29.328 71V58.28H30.768V63.632H30.48C30.48 62.464 30.64 61.456 30.96 60.608C31.296 59.76 31.792 59.104 32.448 58.64C33.104 58.16 33.936 57.92 34.944 57.92H35.016C36.024 57.92 36.856 58.152 37.512 58.616C38.168 59.08 38.656 59.736 38.976 60.584C39.296 61.432 39.456 62.448 39.456 63.632H38.88C38.88 62.464 39.04 61.456 39.36 60.608C39.696 59.76 40.192 59.104 40.848 58.64C41.52 58.16 42.36 57.92 43.368 57.92H43.44C44.448 57.92 45.28 58.152 45.936 58.616C46.608 59.08 47.104 59.736 47.424 60.584C47.76 61.432 47.928 62.448 47.928 63.632V71H46.128V63.224C46.128 62.104 45.856 61.216 45.312 60.56C44.768 59.904 43.984 59.576 42.96 59.576C41.904 59.576 41.064 59.92 40.44 60.608C39.832 61.28 39.528 62.192 39.528 63.344V71H37.728V63.224C37.728 62.104 37.456 61.216 36.912 60.56C36.368 59.904 35.584 59.576 34.56 59.576C33.504 59.576 32.664 59.92 32.04 60.608C31.432 61.28 31.128 62.192 31.128 63.344V71H29.328ZM57.7179 71.408C56.6299 71.408 55.6859 71.224 54.8859 70.856C54.0859 70.472 53.4299 69.968 52.9179 69.344C52.4059 68.704 52.0219 67.992 51.7659 67.208C51.5259 66.424 51.4059 65.616 51.4059 64.784V64.448C51.4059 63.632 51.5259 62.832 51.7659 62.048C52.0219 61.264 52.4059 60.56 52.9179 59.936C53.4299 59.312 54.0699 58.816 54.8379 58.448C55.6219 58.064 56.5339 57.872 57.5739 57.872C58.9019 57.872 60.0059 58.168 60.8859 58.76C61.7819 59.352 62.4539 60.112 62.9019 61.04C63.3499 61.952 63.5739 62.936 63.5739 63.992V64.928H52.2219V63.536H62.3259L61.8699 64.232C61.8699 63.288 61.7019 62.464 61.3659 61.76C61.0459 61.04 60.5659 60.48 59.9259 60.08C59.3019 59.664 58.5179 59.456 57.5739 59.456C56.5819 59.456 55.7579 59.688 55.1019 60.152C54.4459 60.616 53.9499 61.232 53.6139 62C53.2939 62.768 53.1339 63.64 53.1339 64.616C53.1339 65.576 53.2939 66.456 53.6139 67.256C53.9499 68.04 54.4539 68.664 55.1259 69.128C55.8139 69.592 56.6779 69.824 57.7179 69.824C58.8219 69.824 59.7179 69.576 60.4059 69.08C61.0939 68.568 61.5179 67.968 61.6779 67.28H63.3579C63.1979 68.128 62.8619 68.864 62.3499 69.488C61.8379 70.096 61.1899 70.568 60.4059 70.904C59.6219 71.24 58.7259 71.408 57.7179 71.408ZM71.0469 71.36C69.4149 71.36 68.1589 71.008 67.2789 70.304C66.3989 69.584 65.9509 68.624 65.9349 67.424H67.6149C67.6469 68.032 67.9189 68.584 68.4309 69.08C68.9589 69.576 69.8309 69.824 71.0469 69.824C72.1829 69.824 73.0309 69.592 73.5909 69.128C74.1669 68.648 74.4549 68.072 74.4549 67.4C74.4549 66.776 74.2149 66.296 73.7349 65.96C73.2709 65.608 72.5909 65.384 71.6949 65.288L70.2549 65.144C69.1029 65.016 68.1669 64.664 67.4469 64.088C66.7429 63.496 66.3909 62.688 66.3909 61.664C66.3909 60.912 66.5829 60.256 66.9669 59.696C67.3509 59.136 67.8869 58.704 68.5749 58.4C69.2789 58.08 70.1029 57.92 71.0469 57.92C72.4069 57.92 73.5109 58.24 74.3589 58.88C75.2229 59.52 75.6629 60.432 75.6789 61.616H73.9989C73.9829 61.008 73.7269 60.496 73.2309 60.08C72.7349 59.664 72.0069 59.456 71.0469 59.456C70.0549 59.456 69.3109 59.672 68.8149 60.104C68.3349 60.536 68.0949 61.064 68.0949 61.688C68.0949 62.216 68.2789 62.656 68.6469 63.008C69.0149 63.344 69.5909 63.552 70.3749 63.632L71.8149 63.776C73.0949 63.92 74.1349 64.288 74.9349 64.88C75.7509 65.472 76.1589 66.32 76.1589 67.424C76.1589 68.176 75.9429 68.856 75.5109 69.464C75.0949 70.056 74.5029 70.52 73.7349 70.856C72.9669 71.192 72.0709 71.36 71.0469 71.36ZM83.7501 71.36C82.1181 71.36 80.8621 71.008 79.9821 70.304C79.1021 69.584 78.6541 68.624 78.6381 67.424H80.3181C80.3501 68.032 80.6221 68.584 81.1341 69.08C81.6621 69.576 82.5341 69.824 83.7501 69.824C84.8861 69.824 85.7341 69.592 86.2941 69.128C86.8701 68.648 87.1581 68.072 87.1581 67.4C87.1581 66.776 86.9181 66.296 86.4381 65.96C85.9741 65.608 85.2941 65.384 84.3981 65.288L82.9581 65.144C81.8061 65.016 80.8701 64.664 80.1501 64.088C79.4461 63.496 79.0941 62.688 79.0941 61.664C79.0941 60.912 79.2861 60.256 79.6701 59.696C80.0541 59.136 80.5901 58.704 81.2781 58.4C81.9821 58.08 82.8061 57.92 83.7501 57.92C85.1101 57.92 86.2141 58.24 87.0621 58.88C87.9261 59.52 88.3661 60.432 88.3821 61.616H86.7021C86.6861 61.008 86.4301 60.496 85.9341 60.08C85.4381 59.664 84.7101 59.456 83.7501 59.456C82.7581 59.456 82.0141 59.672 81.5181 60.104C81.0381 60.536 80.7981 61.064 80.7981 61.688C80.7981 62.216 80.9821 62.656 81.3501 63.008C81.7181 63.344 82.2941 63.552 83.0781 63.632L84.5181 63.776C85.7981 63.92 86.8381 64.288 87.6381 64.88C88.4541 65.472 88.8621 66.32 88.8621 67.424C88.8621 68.176 88.6461 68.856 88.2141 69.464C87.7981 70.056 87.2061 70.52 86.4381 70.856C85.6701 71.192 84.7741 71.36 83.7501 71.36ZM100.173 71V67.184H99.8852V62.672C99.8852 61.728 99.6372 61.008 99.1412 60.512C98.6452 60 97.8772 59.744 96.8372 59.744C96.3572 59.744 95.8692 59.752 95.3732 59.768C94.8932 59.784 94.4292 59.808 93.9812 59.84C93.5492 59.856 93.1652 59.88 92.8292 59.912V58.328C93.1812 58.296 93.5412 58.264 93.9092 58.232C94.2772 58.2 94.6532 58.184 95.0372 58.184C95.4372 58.168 95.8212 58.16 96.1892 58.16C97.4852 58.16 98.5252 58.32 99.3092 58.64C100.109 58.96 100.693 59.464 101.061 60.152C101.429 60.824 101.613 61.72 101.613 62.84V71H100.173ZM95.8772 71.336C94.9812 71.336 94.1892 71.176 93.5012 70.856C92.8132 70.536 92.2772 70.072 91.8932 69.464C91.5252 68.856 91.3412 68.12 91.3412 67.256C91.3412 66.408 91.5332 65.688 91.9172 65.096C92.3172 64.504 92.8852 64.056 93.6212 63.752C94.3732 63.432 95.2772 63.272 96.3332 63.272H100.053V64.64H96.2132C95.2052 64.64 94.4292 64.888 93.8852 65.384C93.3572 65.864 93.0932 66.496 93.0932 67.28C93.0932 68.08 93.3732 68.72 93.9332 69.2C94.4932 69.664 95.2532 69.896 96.2132 69.896C96.8052 69.896 97.3732 69.792 97.9172 69.584C98.4612 69.36 98.9172 68.992 99.2852 68.48C99.6532 67.952 99.8532 67.232 99.8852 66.32L100.413 67.064C100.349 68.008 100.125 68.8 99.7412 69.44C99.3572 70.064 98.8372 70.536 98.1812 70.856C97.5252 71.176 96.7572 71.336 95.8772 71.336ZM110.957 75.968C110.365 75.968 109.765 75.936 109.157 75.872C108.565 75.824 107.997 75.76 107.453 75.68V74.144C108.029 74.224 108.629 74.288 109.253 74.336C109.893 74.4 110.493 74.432 111.053 74.432C112.269 74.432 113.237 74.272 113.957 73.952C114.677 73.632 115.189 73.12 115.493 72.416C115.813 71.728 115.973 70.816 115.973 69.68V67.136L116.645 65.36C116.613 66.576 116.357 67.624 115.877 68.504C115.397 69.368 114.749 70.032 113.933 70.496C113.117 70.96 112.189 71.192 111.149 71.192C110.237 71.192 109.405 71.016 108.653 70.664C107.917 70.312 107.285 69.832 106.757 69.224C106.229 68.6 105.821 67.896 105.533 67.112C105.245 66.328 105.101 65.504 105.101 64.64V64.304C105.101 63.456 105.245 62.648 105.533 61.88C105.821 61.096 106.229 60.408 106.757 59.816C107.285 59.208 107.925 58.736 108.677 58.4C109.445 58.048 110.293 57.872 111.221 57.872C112.341 57.872 113.317 58.12 114.149 58.616C114.981 59.112 115.629 59.8 116.093 60.68C116.573 61.56 116.829 62.592 116.861 63.776L116.285 63.464V58.304H117.701V69.608C117.701 71.128 117.477 72.352 117.029 73.28C116.581 74.208 115.861 74.888 114.869 75.32C113.893 75.752 112.589 75.968 110.957 75.968ZM111.461 69.536C112.325 69.536 113.093 69.352 113.765 68.984C114.453 68.6 114.997 68.064 115.397 67.376C115.797 66.688 115.997 65.888 115.997 64.976V63.8C115.997 62.92 115.789 62.152 115.373 61.496C114.973 60.84 114.437 60.328 113.765 59.96C113.093 59.592 112.325 59.408 111.461 59.408C110.533 59.408 109.725 59.632 109.037 60.08C108.349 60.528 107.821 61.136 107.453 61.904C107.085 62.656 106.901 63.512 106.901 64.472C106.901 65.448 107.085 66.32 107.453 67.088C107.837 67.856 108.373 68.456 109.061 68.888C109.749 69.32 110.549 69.536 111.461 69.536ZM127.515 71.408C126.427 71.408 125.483 71.224 124.683 70.856C123.883 70.472 123.227 69.968 122.715 69.344C122.203 68.704 121.819 67.992 121.563 67.208C121.323 66.424 121.203 65.616 121.203 64.784V64.448C121.203 63.632 121.323 62.832 121.563 62.048C121.819 61.264 122.203 60.56 122.715 59.936C123.227 59.312 123.867 58.816 124.635 58.448C125.419 58.064 126.331 57.872 127.371 57.872C128.699 57.872 129.803 58.168 130.683 58.76C131.579 59.352 132.251 60.112 132.699 61.04C133.147 61.952 133.371 62.936 133.371 63.992V64.928H122.019V63.536H132.123L131.667 64.232C131.667 63.288 131.499 62.464 131.163 61.76C130.843 61.04 130.363 60.48 129.723 60.08C129.099 59.664 128.315 59.456 127.371 59.456C126.379 59.456 125.555 59.688 124.899 60.152C124.243 60.616 123.747 61.232 123.411 62C123.091 62.768 122.931 63.64 122.931 64.616C122.931 65.576 123.091 66.456 123.411 67.256C123.747 68.04 124.251 68.664 124.923 69.128C125.611 69.592 126.475 69.824 127.515 69.824C128.619 69.824 129.515 69.576 130.203 69.08C130.891 68.568 131.315 67.968 131.475 67.28H133.155C132.995 68.128 132.659 68.864 132.147 69.488C131.635 70.096 130.987 70.568 130.203 70.904C129.419 71.24 128.523 71.408 127.515 71.408Z" fill="#0C071D"/>
<path d="M283.768 46.7678C284.744 45.7915 284.744 44.2085 283.768 43.2322L267.858 27.3223C266.882 26.346 265.299 26.346 264.322 27.3223C263.346 28.2986 263.346 29.8816 264.322 30.8579L278.464 45L264.322 59.1421C263.346 60.1184 263.346 61.7014 264.322 62.6777C265.299 63.654 266.882 63.654 267.858 62.6777L283.768 46.7678ZM199 47.5H282V42.5H199V47.5Z" fill="#F79327"/>
<path d="M318.424 47V6.12H326.208V29.976H324.864C324.864 26.9147 325.256 24.32 326.04 22.192C326.824 20.064 327.981 18.44 329.512 17.32C331.08 16.2 333.059 15.64 335.448 15.64H335.784C339.256 15.64 341.888 16.8347 343.68 19.224C345.472 21.6133 346.368 25.0853 346.368 29.64V47H338.584V28.912C338.584 26.9707 338.024 25.44 336.904 24.32C335.821 23.2 334.384 22.64 332.592 22.64C330.688 22.64 329.139 23.2747 327.944 24.544C326.787 25.776 326.208 27.4 326.208 29.416V47H318.424ZM373.161 47V37.984H371.873V27.96C371.873 26.2053 371.443 24.8987 370.585 24.04C369.726 23.1813 368.401 22.752 366.609 22.752C365.675 22.752 364.555 22.7707 363.249 22.808C361.942 22.8453 360.617 22.9013 359.273 22.976C357.966 23.0133 356.79 23.0693 355.745 23.144V16.536C356.603 16.4613 357.574 16.3867 358.657 16.312C359.739 16.2373 360.841 16.2 361.961 16.2C363.118 16.1627 364.201 16.144 365.209 16.144C368.345 16.144 370.939 16.5547 372.993 17.376C375.083 18.1973 376.651 19.4853 377.697 21.24C378.779 22.9947 379.321 25.2907 379.321 28.128V47H373.161ZM363.361 47.784C361.158 47.784 359.217 47.392 357.537 46.608C355.894 45.824 354.606 44.704 353.673 43.248C352.777 41.792 352.329 40.0373 352.329 37.984C352.329 35.744 352.87 33.9147 353.953 32.496C355.073 31.0773 356.622 30.0133 358.601 29.304C360.617 28.5947 362.969 28.24 365.657 28.24H372.713V32.888H365.545C363.753 32.888 362.371 33.336 361.401 34.232C360.467 35.0907 360.001 36.2107 360.001 37.592C360.001 38.9733 360.467 40.0933 361.401 40.952C362.371 41.8107 363.753 42.24 365.545 42.24C366.627 42.24 367.617 42.0533 368.513 41.68C369.446 41.2693 370.211 40.5973 370.809 39.664C371.443 38.6933 371.798 37.3867 371.873 35.744L373.777 37.928C373.59 40.056 373.067 41.848 372.209 43.304C371.387 44.76 370.23 45.88 368.737 46.664C367.281 47.4107 365.489 47.784 363.361 47.784ZM398.69 47.952C394.509 47.952 391.224 47.0747 388.834 45.32C386.482 43.528 385.25 41.064 385.138 37.928H392.138C392.25 38.9733 392.829 39.9253 393.874 40.784C394.92 41.6427 396.562 42.072 398.802 42.072C400.669 42.072 402.144 41.736 403.226 41.064C404.346 40.392 404.906 39.4773 404.906 38.32C404.906 37.312 404.477 36.5093 403.618 35.912C402.797 35.3147 401.378 34.9227 399.362 34.736L396.674 34.456C393.277 34.0827 390.664 33.112 388.834 31.544C387.005 29.976 386.09 27.8853 386.09 25.272C386.09 23.1813 386.613 21.4267 387.658 20.008C388.704 18.5893 390.141 17.5253 391.97 16.816C393.837 16.0693 395.965 15.696 398.354 15.696C402.088 15.696 405.112 16.5173 407.426 18.16C409.741 19.8027 410.954 22.2107 411.066 25.384H404.066C403.992 24.3387 403.469 23.4427 402.498 22.696C401.528 21.9493 400.128 21.576 398.298 21.576C396.656 21.576 395.386 21.8933 394.49 22.528C393.594 23.1627 393.146 23.984 393.146 24.992C393.146 25.9627 393.501 26.7093 394.21 27.232C394.957 27.7547 396.152 28.1093 397.794 28.296L400.482 28.576C404.066 28.9493 406.866 29.9387 408.882 31.544C410.936 33.1493 411.962 35.3147 411.962 38.04C411.962 40.056 411.402 41.8107 410.282 43.304C409.2 44.76 407.669 45.8987 405.69 46.72C403.712 47.5413 401.378 47.952 398.69 47.952ZM418.393 47V6.12H426.177V29.976H424.833C424.833 26.9147 425.225 24.32 426.009 22.192C426.793 20.064 427.95 18.44 429.481 17.32C431.049 16.2 433.027 15.64 435.417 15.64H435.753C439.225 15.64 441.857 16.8347 443.649 19.224C445.441 21.6133 446.337 25.0853 446.337 29.64V47H438.553V28.912C438.553 26.9707 437.993 25.44 436.873 24.32C435.79 23.2 434.353 22.64 432.561 22.64C430.657 22.64 429.107 23.2747 427.913 24.544C426.755 25.776 426.177 27.4 426.177 29.416V47H418.393ZM453.921 47V39.16C453.921 37.4427 454.183 35.9493 454.705 34.68C455.265 33.4107 456.161 32.2907 457.393 31.32C458.663 30.312 460.324 29.36 462.377 28.464L469.321 25.384C471.039 24.6 472.345 23.648 473.241 22.528C474.175 21.3707 474.641 19.896 474.641 18.104C474.641 16.1253 474.044 14.5573 472.849 13.4C471.692 12.2053 470.031 11.608 467.865 11.608C465.7 11.608 464.02 12.2053 462.825 13.4C461.668 14.5947 461.089 16.256 461.089 18.384H453.417C453.417 15.8453 453.959 13.568 455.041 11.552C456.124 9.49867 457.729 7.89333 459.857 6.736C461.985 5.54133 464.655 4.944 467.865 4.944C471.076 4.944 473.745 5.52266 475.873 6.68C478.001 7.83733 479.607 9.38667 480.689 11.328C481.772 13.232 482.313 15.36 482.313 17.712V18.44C482.313 21.5013 481.455 24.0587 479.737 26.112C478.02 28.128 475.5 29.8827 472.177 31.376L465.233 34.456C463.927 35.016 463.012 35.6133 462.489 36.248C461.967 36.8453 461.705 37.6667 461.705 38.712V42.296L459.801 40.224H482.481V47H453.921ZM503.479 48.064C500.268 48.064 497.505 47.4293 495.191 46.16C492.913 44.8907 491.159 43.2107 489.927 41.12C488.732 38.992 488.135 36.6773 488.135 34.176H495.807C495.807 35.5947 496.124 36.8453 496.759 37.928C497.431 39.0107 498.345 39.8693 499.503 40.504C500.66 41.1013 502.004 41.4 503.535 41.4C505.14 41.4 506.521 41.064 507.679 40.392C508.836 39.72 509.713 38.8053 510.311 37.648C510.945 36.4907 511.263 35.1653 511.263 33.672C511.263 32.216 510.945 30.9093 510.311 29.752C509.713 28.5573 508.836 27.624 507.679 26.952C506.559 26.2427 505.196 25.888 503.591 25.888C502.247 25.888 500.977 26.1493 499.783 26.672C498.588 27.1947 497.655 27.8853 496.983 28.744H489.647L491.719 6.12H515.407V12.896H495.191L497.991 10.712L496.647 24.824L494.743 24.264C495.825 23.032 497.151 22.0053 498.719 21.184C500.287 20.3627 502.265 19.952 504.655 19.952C507.679 19.952 510.255 20.568 512.383 21.8C514.511 23.032 516.135 24.6747 517.255 26.728C518.375 28.744 518.935 30.9467 518.935 33.336V34.064C518.935 36.4907 518.337 38.768 517.143 40.896C515.948 43.024 514.193 44.76 511.879 46.104C509.601 47.4107 506.801 48.064 503.479 48.064ZM540.983 48.176C537.959 48.176 535.383 47.672 533.255 46.664C531.164 45.6187 529.466 44.2 528.159 42.408C526.852 40.616 525.9 38.544 525.303 36.192C524.706 33.8027 524.407 31.2827 524.407 28.632V26.168C524.407 19.4853 526.087 14.4267 529.447 10.992C532.844 7.52 537.81 5.784 544.343 5.784C545.762 5.784 547.087 5.82133 548.319 5.896C549.551 5.97066 550.783 6.08266 552.015 6.232V12.896C550.783 12.7467 549.514 12.6347 548.207 12.56C546.938 12.4853 545.556 12.448 544.063 12.448C540.927 12.448 538.463 12.9893 536.671 14.072C534.879 15.1547 533.591 16.7413 532.807 18.832C532.06 20.9227 531.687 23.5173 531.687 26.616V30.256L529.895 32.832C529.932 29.9573 530.492 27.5867 531.575 25.72C532.695 23.816 534.226 22.3973 536.167 21.464C538.108 20.4933 540.33 20.008 542.831 20.008C545.743 20.008 548.226 20.5867 550.279 21.744C552.332 22.9013 553.9 24.5067 554.983 26.56C556.103 28.6133 556.663 31.0027 556.663 33.728C556.663 36.5653 556.028 39.0853 554.759 41.288C553.49 43.4533 551.679 45.152 549.327 46.384C547.012 47.5787 544.231 48.176 540.983 48.176ZM540.815 41.512C542.57 41.512 544.063 41.1947 545.295 40.56C546.527 39.888 547.46 38.9733 548.095 37.816C548.73 36.6587 549.047 35.3333 549.047 33.84C549.047 32.3093 548.73 30.9653 548.095 29.808C547.498 28.6507 546.602 27.7547 545.407 27.12C544.212 26.4853 542.775 26.168 541.095 26.168C539.49 26.168 538.015 26.4667 536.671 27.064C535.364 27.624 534.319 28.4827 533.535 29.64C532.788 30.76 532.415 32.16 532.415 33.84C532.415 35.296 532.714 36.6027 533.311 37.76C533.946 38.9173 534.879 39.832 536.111 40.504C537.38 41.176 538.948 41.512 540.815 41.512Z" fill="#0C071D"/>
<path opacity="0.67" d="M320.328 71V53.48H322.128V63.392L321.6 63.8C321.6 62.616 321.768 61.584 322.104 60.704C322.456 59.824 322.976 59.144 323.664 58.664C324.368 58.168 325.248 57.92 326.304 57.92H326.4C327.936 57.92 329.096 58.424 329.88 59.432C330.68 60.44 331.08 61.84 331.08 63.632V71H329.304V63.248C329.304 62.112 328.992 61.216 328.368 60.56C327.744 59.904 326.904 59.576 325.848 59.576C324.712 59.576 323.808 59.944 323.136 60.68C322.464 61.4 322.128 62.352 322.128 63.536V71H320.328ZM343.29 71V67.184H343.002V62.672C343.002 61.728 342.754 61.008 342.258 60.512C341.762 60 340.994 59.744 339.954 59.744C339.474 59.744 338.986 59.752 338.49 59.768C338.01 59.784 337.546 59.808 337.098 59.84C336.666 59.856 336.282 59.88 335.946 59.912V58.328C336.298 58.296 336.658 58.264 337.026 58.232C337.394 58.2 337.77 58.184 338.154 58.184C338.554 58.168 338.938 58.16 339.306 58.16C340.602 58.16 341.642 58.32 342.426 58.64C343.226 58.96 343.81 59.464 344.178 60.152C344.546 60.824 344.73 61.72 344.73 62.84V71H343.29ZM338.994 71.336C338.098 71.336 337.306 71.176 336.618 70.856C335.93 70.536 335.394 70.072 335.01 69.464C334.642 68.856 334.458 68.12 334.458 67.256C334.458 66.408 334.65 65.688 335.034 65.096C335.434 64.504 336.002 64.056 336.738 63.752C337.49 63.432 338.394 63.272 339.45 63.272H343.17V64.64H339.33C338.322 64.64 337.546 64.888 337.002 65.384C336.474 65.864 336.21 66.496 336.21 67.28C336.21 68.08 336.49 68.72 337.05 69.2C337.61 69.664 338.37 69.896 339.33 69.896C339.922 69.896 340.49 69.792 341.034 69.584C341.578 69.36 342.034 68.992 342.402 68.48C342.77 67.952 342.97 67.232 343.002 66.32L343.53 67.064C343.466 68.008 343.242 68.8 342.858 69.44C342.474 70.064 341.954 70.536 341.298 70.856C340.642 71.176 339.874 71.336 338.994 71.336ZM353.234 71.36C351.602 71.36 350.346 71.008 349.466 70.304C348.586 69.584 348.138 68.624 348.122 67.424H349.802C349.834 68.032 350.106 68.584 350.618 69.08C351.146 69.576 352.018 69.824 353.234 69.824C354.37 69.824 355.218 69.592 355.778 69.128C356.354 68.648 356.642 68.072 356.642 67.4C356.642 66.776 356.402 66.296 355.922 65.96C355.458 65.608 354.778 65.384 353.882 65.288L352.442 65.144C351.29 65.016 350.354 64.664 349.634 64.088C348.93 63.496 348.578 62.688 348.578 61.664C348.578 60.912 348.77 60.256 349.154 59.696C349.538 59.136 350.074 58.704 350.762 58.4C351.466 58.08 352.29 57.92 353.234 57.92C354.594 57.92 355.698 58.24 356.546 58.88C357.41 59.52 357.85 60.432 357.866 61.616H356.186C356.17 61.008 355.914 60.496 355.418 60.08C354.922 59.664 354.194 59.456 353.234 59.456C352.242 59.456 351.498 59.672 351.002 60.104C350.522 60.536 350.282 61.064 350.282 61.688C350.282 62.216 350.466 62.656 350.834 63.008C351.202 63.344 351.778 63.552 352.562 63.632L354.002 63.776C355.282 63.92 356.322 64.288 357.122 64.88C357.938 65.472 358.346 66.32 358.346 67.424C358.346 68.176 358.13 68.856 357.698 69.464C357.282 70.056 356.69 70.52 355.922 70.856C355.154 71.192 354.258 71.36 353.234 71.36ZM361.93 71V53.48H363.73V63.392L363.202 63.8C363.202 62.616 363.37 61.584 363.706 60.704C364.058 59.824 364.578 59.144 365.266 58.664C365.97 58.168 366.85 57.92 367.906 57.92H368.002C369.538 57.92 370.698 58.424 371.482 59.432C372.282 60.44 372.682 61.84 372.682 63.632V71H370.906V63.248C370.906 62.112 370.594 61.216 369.97 60.56C369.346 59.904 368.506 59.576 367.45 59.576C366.314 59.576 365.41 59.944 364.738 60.68C364.066 61.4 363.73 62.352 363.73 63.536V71H361.93ZM377.836 71V58.304H379.612V71H377.836ZM375.796 59.744V58.304H379.612V59.744H375.796ZM378.22 55.952C377.788 55.952 377.46 55.84 377.236 55.616C377.028 55.376 376.924 55.08 376.924 54.728C376.924 54.376 377.028 54.088 377.236 53.864C377.46 53.624 377.788 53.504 378.22 53.504C378.652 53.504 378.972 53.624 379.18 53.864C379.388 54.088 379.492 54.376 379.492 54.728C379.492 55.08 379.388 55.376 379.18 55.616C378.972 55.84 378.652 55.952 378.22 55.952ZM384.336 71V58.304H385.776V63.632H385.488C385.488 62.448 385.664 61.432 386.016 60.584C386.368 59.736 386.896 59.08 387.6 58.616C388.304 58.152 389.192 57.92 390.264 57.92H390.336C391.936 57.92 393.128 58.424 393.912 59.432C394.696 60.424 395.088 61.824 395.088 63.632V71H393.312V63.248C393.312 62.144 393.008 61.256 392.4 60.584C391.792 59.912 390.944 59.576 389.856 59.576C388.736 59.576 387.832 59.928 387.144 60.632C386.472 61.32 386.136 62.232 386.136 63.368V71H384.336ZM404.418 75.968C403.826 75.968 403.226 75.936 402.618 75.872C402.026 75.824 401.458 75.76 400.914 75.68V74.144C401.49 74.224 402.09 74.288 402.714 74.336C403.354 74.4 403.954 74.432 404.514 74.432C405.73 74.432 406.698 74.272 407.418 73.952C408.138 73.632 408.65 73.12 408.954 72.416C409.274 71.728 409.434 70.816 409.434 69.68V67.136L410.106 65.36C410.074 66.576 409.818 67.624 409.338 68.504C408.858 69.368 408.21 70.032 407.394 70.496C406.578 70.96 405.65 71.192 404.61 71.192C403.698 71.192 402.866 71.016 402.114 70.664C401.378 70.312 400.746 69.832 400.218 69.224C399.69 68.6 399.282 67.896 398.994 67.112C398.706 66.328 398.562 65.504 398.562 64.64V64.304C398.562 63.456 398.706 62.648 398.994 61.88C399.282 61.096 399.69 60.408 400.218 59.816C400.746 59.208 401.386 58.736 402.138 58.4C402.906 58.048 403.754 57.872 404.682 57.872C405.802 57.872 406.778 58.12 407.61 58.616C408.442 59.112 409.09 59.8 409.554 60.68C410.034 61.56 410.29 62.592 410.322 63.776L409.746 63.464V58.304H411.162V69.608C411.162 71.128 410.938 72.352 410.49 73.28C410.042 74.208 409.322 74.888 408.33 75.32C407.354 75.752 406.05 75.968 404.418 75.968ZM404.922 69.536C405.786 69.536 406.554 69.352 407.226 68.984C407.914 68.6 408.458 68.064 408.858 67.376C409.258 66.688 409.458 65.888 409.458 64.976V63.8C409.458 62.92 409.25 62.152 408.834 61.496C408.434 60.84 407.898 60.328 407.226 59.96C406.554 59.592 405.786 59.408 404.922 59.408C403.994 59.408 403.186 59.632 402.498 60.08C401.81 60.528 401.282 61.136 400.914 61.904C400.546 62.656 400.362 63.512 400.362 64.472C400.362 65.448 400.546 66.32 400.914 67.088C401.298 67.856 401.834 68.456 402.522 68.888C403.21 69.32 404.01 69.536 404.922 69.536ZM429.001 71V67.184H428.713V62.672C428.713 61.728 428.465 61.008 427.969 60.512C427.473 60 426.705 59.744 425.665 59.744C425.185 59.744 424.697 59.752 424.201 59.768C423.721 59.784 423.257 59.808 422.809 59.84C422.377 59.856 421.993 59.88 421.657 59.912V58.328C422.009 58.296 422.369 58.264 422.737 58.232C423.105 58.2 423.481 58.184 423.865 58.184C424.265 58.168 424.649 58.16 425.017 58.16C426.313 58.16 427.353 58.32 428.137 58.64C428.937 58.96 429.521 59.464 429.889 60.152C430.257 60.824 430.441 61.72 430.441 62.84V71H429.001ZM424.705 71.336C423.809 71.336 423.017 71.176 422.329 70.856C421.641 70.536 421.105 70.072 420.721 69.464C420.353 68.856 420.169 68.12 420.169 67.256C420.169 66.408 420.361 65.688 420.745 65.096C421.145 64.504 421.713 64.056 422.449 63.752C423.201 63.432 424.105 63.272 425.161 63.272H428.881V64.64H425.041C424.033 64.64 423.257 64.888 422.713 65.384C422.185 65.864 421.921 66.496 421.921 67.28C421.921 68.08 422.201 68.72 422.761 69.2C423.321 69.664 424.081 69.896 425.041 69.896C425.633 69.896 426.201 69.792 426.745 69.584C427.289 69.36 427.745 68.992 428.113 68.48C428.481 67.952 428.681 67.232 428.713 66.32L429.241 67.064C429.177 68.008 428.953 68.8 428.569 69.44C428.185 70.064 427.665 70.536 427.009 70.856C426.353 71.176 425.585 71.336 424.705 71.336ZM435.057 71V53.48H436.857V71H435.057ZM433.209 54.944V53.48H436.857V54.944H433.209ZM446.371 75.968C445.779 75.968 445.179 75.936 444.571 75.872C443.979 75.824 443.411 75.76 442.867 75.68V74.144C443.443 74.224 444.043 74.288 444.667 74.336C445.307 74.4 445.907 74.432 446.467 74.432C447.683 74.432 448.651 74.272 449.371 73.952C450.091 73.632 450.603 73.12 450.907 72.416C451.227 71.728 451.387 70.816 451.387 69.68V67.136L452.059 65.36C452.027 66.576 451.771 67.624 451.291 68.504C450.811 69.368 450.163 70.032 449.347 70.496C448.531 70.96 447.603 71.192 446.563 71.192C445.651 71.192 444.819 71.016 444.067 70.664C443.331 70.312 442.699 69.832 442.171 69.224C441.643 68.6 441.235 67.896 440.947 67.112C440.659 66.328 440.515 65.504 440.515 64.64V64.304C440.515 63.456 440.659 62.648 440.947 61.88C441.235 61.096 441.643 60.408 442.171 59.816C442.699 59.208 443.339 58.736 444.091 58.4C444.859 58.048 445.707 57.872 446.635 57.872C447.755 57.872 448.731 58.12 449.563 58.616C450.395 59.112 451.043 59.8 451.507 60.68C451.987 61.56 452.243 62.592 452.275 63.776L451.699 63.464V58.304H453.115V69.608C453.115 71.128 452.891 72.352 452.443 73.28C451.995 74.208 451.275 74.888 450.283 75.32C449.307 75.752 448.003 75.968 446.371 75.968ZM446.875 69.536C447.739 69.536 448.507 69.352 449.179 68.984C449.867 68.6 450.411 68.064 450.811 67.376C451.211 66.688 451.411 65.888 451.411 64.976V63.8C451.411 62.92 451.203 62.152 450.787 61.496C450.387 60.84 449.851 60.328 449.179 59.96C448.507 59.592 447.739 59.408 446.875 59.408C445.947 59.408 445.139 59.632 444.451 60.08C443.763 60.528 443.235 61.136 442.867 61.904C442.499 62.656 442.315 63.512 442.315 64.472C442.315 65.448 442.499 66.32 442.867 67.088C443.251 67.856 443.787 68.456 444.475 68.888C445.163 69.32 445.963 69.536 446.875 69.536ZM463.313 71.408C462.225 71.408 461.265 71.224 460.433 70.856C459.617 70.472 458.921 69.968 458.345 69.344C457.785 68.704 457.353 67.992 457.049 67.208C456.761 66.424 456.617 65.624 456.617 64.808V64.472C456.617 63.656 456.769 62.856 457.073 62.072C457.377 61.272 457.817 60.56 458.393 59.936C458.969 59.312 459.665 58.816 460.481 58.448C461.313 58.064 462.257 57.872 463.313 57.872C464.385 57.872 465.329 58.064 466.145 58.448C466.977 58.816 467.681 59.312 468.257 59.936C468.833 60.56 469.265 61.272 469.553 62.072C469.857 62.856 470.009 63.656 470.009 64.472V64.808C470.009 65.624 469.865 66.424 469.577 67.208C469.289 67.992 468.857 68.704 468.281 69.344C467.721 69.968 467.025 70.472 466.193 70.856C465.361 71.224 464.401 71.408 463.313 71.408ZM463.313 69.8C464.369 69.8 465.257 69.568 465.977 69.104C466.713 68.624 467.273 68 467.657 67.232C468.041 66.448 468.233 65.584 468.233 64.64C468.233 63.68 468.033 62.816 467.633 62.048C467.249 61.264 466.689 60.648 465.953 60.2C465.217 59.736 464.337 59.504 463.313 59.504C462.305 59.504 461.433 59.736 460.697 60.2C459.961 60.648 459.393 61.264 458.993 62.048C458.609 62.816 458.417 63.68 458.417 64.64C458.417 65.584 458.609 66.448 458.993 67.232C459.377 68 459.929 68.624 460.649 69.104C461.385 69.568 462.273 69.8 463.313 69.8ZM472.945 71V68.624H475.201V71H472.945Z" fill="#0C071D"/>
<path d="M707.768 46.7678C708.744 45.7915 708.744 44.2085 707.768 43.2322L691.858 27.3223C690.882 26.346 689.299 26.346 688.322 27.3223C687.346 28.2986 687.346 29.8816 688.322 30.8579L702.464 45L688.322 59.1421C687.346 60.1184 687.346 61.7014 688.322 62.6777C689.299 63.654 690.882 63.654 691.858 62.6777L707.768 46.7678ZM623 47.5H706V42.5H623V47.5Z" fill="#F79327"/>
<path d="M769.864 47V6.12H777.816V47H769.864ZM743.04 47V6.12H750.992V47H743.04ZM749.536 30.032V23.032H771.32V30.032H749.536ZM795.108 57.192C793.278 54.9147 791.673 52.4507 790.292 49.8C788.91 47.1493 787.846 44.2187 787.1 41.008C786.353 37.76 785.98 34.12 785.98 30.088C785.98 26.0187 786.372 22.3973 787.156 19.224C787.94 16.0133 789.041 13.1387 790.46 10.6C791.878 8.024 793.484 5.672 795.276 3.544H803.956C801.94 6.008 800.148 8.584 798.58 11.272C797.012 13.96 795.798 16.8533 794.94 19.952C794.081 23.0507 793.652 26.4293 793.652 30.088C793.652 33.7093 794.006 37.088 794.716 40.224C795.462 43.36 796.601 46.328 798.132 49.128C799.662 51.928 801.604 54.616 803.956 57.192H795.108ZM808.924 47V16.592H815.084V29.64H814.524C814.524 26.5787 814.916 24.0213 815.7 21.968C816.484 19.8773 817.641 18.3093 819.172 17.264C820.74 16.1813 822.681 15.64 824.996 15.64H825.332C827.684 15.64 829.625 16.1813 831.156 17.264C832.724 18.3093 833.881 19.8773 834.628 21.968C835.412 24.0213 835.804 26.5787 835.804 29.64H833.844C833.844 26.5787 834.236 24.0213 835.02 21.968C835.841 19.8773 837.017 18.3093 838.548 17.264C840.116 16.1813 842.057 15.64 844.372 15.64H844.708C847.06 15.64 849.02 16.1813 850.588 17.264C852.156 18.3093 853.332 19.8773 854.116 21.968C854.937 24.0213 855.348 26.5787 855.348 29.64V47H847.564V28.912C847.564 27.008 847.079 25.496 846.108 24.376C845.137 23.2187 843.756 22.64 841.964 22.64C840.172 22.64 838.735 23.2373 837.652 24.432C836.569 25.5893 836.028 27.1573 836.028 29.136V47H828.244V28.912C828.244 27.008 827.759 25.496 826.788 24.376C825.817 23.2187 824.436 22.64 822.644 22.64C820.852 22.64 819.415 23.2373 818.332 24.432C817.249 25.5893 816.708 27.1573 816.708 29.136V47H808.924ZM867.556 57.192H858.708C861.06 54.616 863.002 51.928 864.532 49.128C866.063 46.328 867.183 43.36 867.892 40.224C868.639 37.088 869.012 33.7093 869.012 30.088C869.012 26.4293 868.583 23.0507 867.724 19.952C866.866 16.8533 865.652 13.96 864.084 11.272C862.516 8.584 860.724 6.008 858.708 3.544H867.388C869.18 5.672 870.786 8.024 872.204 10.6C873.623 13.1387 874.724 16.0133 875.508 19.224C876.292 22.3973 876.684 26.0187 876.684 30.088C876.684 34.12 876.311 37.76 875.564 41.008C874.818 44.2187 873.754 47.1493 872.372 49.8C870.991 52.4507 869.386 54.9147 867.556 57.192Z" fill="#0C071D"/>
<path opacity="0.67" d="M744.498 71V53.48H746.298V63.392L745.77 63.8C745.77 62.616 745.938 61.584 746.274 60.704C746.626 59.824 747.146 59.144 747.834 58.664C748.538 58.168 749.418 57.92 750.474 57.92H750.57C752.106 57.92 753.266 58.424 754.05 59.432C754.85 60.44 755.25 61.84 755.25 63.632V71H753.474V63.248C753.474 62.112 753.162 61.216 752.538 60.56C751.914 59.904 751.074 59.576 750.018 59.576C748.882 59.576 747.978 59.944 747.306 60.68C746.634 61.4 746.298 62.352 746.298 63.536V71H744.498ZM767.461 71V67.184H767.173V62.672C767.173 61.728 766.925 61.008 766.429 60.512C765.933 60 765.165 59.744 764.125 59.744C763.645 59.744 763.157 59.752 762.661 59.768C762.181 59.784 761.717 59.808 761.269 59.84C760.837 59.856 760.453 59.88 760.117 59.912V58.328C760.469 58.296 760.829 58.264 761.197 58.232C761.565 58.2 761.941 58.184 762.325 58.184C762.725 58.168 763.109 58.16 763.477 58.16C764.773 58.16 765.813 58.32 766.597 58.64C767.397 58.96 767.981 59.464 768.349 60.152C768.717 60.824 768.901 61.72 768.901 62.84V71H767.461ZM763.165 71.336C762.269 71.336 761.477 71.176 760.789 70.856C760.101 70.536 759.565 70.072 759.181 69.464C758.813 68.856 758.629 68.12 758.629 67.256C758.629 66.408 758.821 65.688 759.205 65.096C759.605 64.504 760.173 64.056 760.909 63.752C761.661 63.432 762.565 63.272 763.621 63.272H767.341V64.64H763.501C762.493 64.64 761.717 64.888 761.173 65.384C760.645 65.864 760.381 66.496 760.381 67.28C760.381 68.08 760.661 68.72 761.221 69.2C761.781 69.664 762.541 69.896 763.501 69.896C764.093 69.896 764.661 69.792 765.205 69.584C765.749 69.36 766.205 68.992 766.573 68.48C766.941 67.952 767.141 67.232 767.173 66.32L767.701 67.064C767.637 68.008 767.413 68.8 767.029 69.44C766.645 70.064 766.125 70.536 765.469 70.856C764.813 71.176 764.045 71.336 763.165 71.336ZM777.405 71.36C775.773 71.36 774.517 71.008 773.637 70.304C772.757 69.584 772.309 68.624 772.293 67.424H773.973C774.005 68.032 774.277 68.584 774.789 69.08C775.317 69.576 776.189 69.824 777.405 69.824C778.541 69.824 779.389 69.592 779.949 69.128C780.525 68.648 780.813 68.072 780.813 67.4C780.813 66.776 780.573 66.296 780.093 65.96C779.629 65.608 778.949 65.384 778.053 65.288L776.613 65.144C775.461 65.016 774.525 64.664 773.805 64.088C773.101 63.496 772.749 62.688 772.749 61.664C772.749 60.912 772.941 60.256 773.325 59.696C773.709 59.136 774.245 58.704 774.933 58.4C775.637 58.08 776.461 57.92 777.405 57.92C778.765 57.92 779.869 58.24 780.717 58.88C781.581 59.52 782.021 60.432 782.037 61.616H780.357C780.341 61.008 780.085 60.496 779.589 60.08C779.093 59.664 778.365 59.456 777.405 59.456C776.413 59.456 775.669 59.672 775.173 60.104C774.693 60.536 774.453 61.064 774.453 61.688C774.453 62.216 774.637 62.656 775.005 63.008C775.373 63.344 775.949 63.552 776.733 63.632L778.173 63.776C779.453 63.92 780.493 64.288 781.293 64.88C782.109 65.472 782.517 66.32 782.517 67.424C782.517 68.176 782.301 68.856 781.869 69.464C781.453 70.056 780.861 70.52 780.093 70.856C779.325 71.192 778.429 71.36 777.405 71.36ZM786.1 71V53.48H787.9V63.392L787.372 63.8C787.372 62.616 787.54 61.584 787.876 60.704C788.228 59.824 788.748 59.144 789.436 58.664C790.14 58.168 791.02 57.92 792.076 57.92H792.172C793.708 57.92 794.868 58.424 795.652 59.432C796.452 60.44 796.852 61.84 796.852 63.632V71H795.076V63.248C795.076 62.112 794.764 61.216 794.14 60.56C793.516 59.904 792.676 59.576 791.62 59.576C790.484 59.576 789.58 59.944 788.908 60.68C788.236 61.4 787.9 62.352 787.9 63.536V71H786.1ZM806.638 71.408C805.55 71.408 804.606 71.224 803.806 70.856C803.006 70.472 802.35 69.968 801.838 69.344C801.326 68.704 800.942 67.992 800.686 67.208C800.446 66.424 800.326 65.616 800.326 64.784V64.448C800.326 63.632 800.446 62.832 800.686 62.048C800.942 61.264 801.326 60.56 801.838 59.936C802.35 59.312 802.99 58.816 803.758 58.448C804.542 58.064 805.454 57.872 806.494 57.872C807.822 57.872 808.926 58.168 809.806 58.76C810.702 59.352 811.374 60.112 811.822 61.04C812.27 61.952 812.494 62.936 812.494 63.992V64.928H801.142V63.536H811.246L810.79 64.232C810.79 63.288 810.622 62.464 810.286 61.76C809.966 61.04 809.486 60.48 808.846 60.08C808.222 59.664 807.438 59.456 806.494 59.456C805.502 59.456 804.678 59.688 804.022 60.152C803.366 60.616 802.87 61.232 802.534 62C802.214 62.768 802.054 63.64 802.054 64.616C802.054 65.576 802.214 66.456 802.534 67.256C802.87 68.04 803.374 68.664 804.046 69.128C804.734 69.592 805.598 69.824 806.638 69.824C807.742 69.824 808.638 69.576 809.326 69.08C810.014 68.568 810.438 67.968 810.598 67.28H812.278C812.118 68.128 811.782 68.864 811.27 69.488C810.758 70.096 810.11 70.568 809.326 70.904C808.542 71.24 807.646 71.408 806.638 71.408ZM821.167 71.408C820.239 71.408 819.391 71.24 818.623 70.904C817.871 70.552 817.215 70.072 816.655 69.464C816.111 68.84 815.687 68.136 815.383 67.352C815.095 66.552 814.951 65.704 814.951 64.808V64.472C814.951 63.608 815.095 62.784 815.383 62C815.671 61.2 816.079 60.496 816.607 59.888C817.151 59.264 817.799 58.776 818.551 58.424C819.319 58.056 820.175 57.872 821.119 57.872C822.191 57.872 823.135 58.104 823.951 58.568C824.767 59.032 825.423 59.704 825.919 60.584C826.415 61.448 826.679 62.512 826.711 63.776L825.919 62.288V53.48H827.719V71H826.279V65.36H826.855C826.823 66.688 826.543 67.808 826.015 68.72C825.503 69.616 824.823 70.288 823.975 70.736C823.143 71.184 822.207 71.408 821.167 71.408ZM821.407 69.824C822.271 69.824 823.047 69.632 823.735 69.248C824.439 68.864 824.991 68.32 825.391 67.616C825.791 66.896 825.991 66.072 825.991 65.144V63.992C825.991 63.096 825.791 62.312 825.391 61.64C824.991 60.952 824.439 60.416 823.735 60.032C823.047 59.648 822.263 59.456 821.383 59.456C820.439 59.456 819.615 59.688 818.911 60.152C818.223 60.6 817.687 61.216 817.303 62C816.935 62.784 816.751 63.664 816.751 64.64C816.751 65.648 816.943 66.544 817.327 67.328C817.711 68.112 818.255 68.728 818.959 69.176C819.663 69.608 820.479 69.824 821.407 69.824ZM837.967 71V58.28H839.407V63.632H839.119C839.119 62.464 839.279 61.456 839.599 60.608C839.935 59.76 840.431 59.104 841.087 58.64C841.743 58.16 842.575 57.92 843.583 57.92H843.655C844.663 57.92 845.495 58.152 846.151 58.616C846.807 59.08 847.295 59.736 847.615 60.584C847.935 61.432 848.095 62.448 848.095 63.632H847.519C847.519 62.464 847.679 61.456 847.999 60.608C848.335 59.76 848.831 59.104 849.487 58.64C850.159 58.16 850.999 57.92 852.007 57.92H852.079C853.087 57.92 853.919 58.152 854.575 58.616C855.247 59.08 855.743 59.736 856.063 60.584C856.399 61.432 856.567 62.448 856.567 63.632V71H854.767V63.224C854.767 62.104 854.495 61.216 853.951 60.56C853.407 59.904 852.623 59.576 851.599 59.576C850.543 59.576 849.703 59.92 849.079 60.608C848.471 61.28 848.167 62.192 848.167 63.344V71H846.367V63.224C846.367 62.104 846.095 61.216 845.551 60.56C845.007 59.904 844.223 59.576 843.199 59.576C842.143 59.576 841.303 59.92 840.679 60.608C840.071 61.28 839.767 62.192 839.767 63.344V71H837.967ZM866.357 71.408C865.269 71.408 864.325 71.224 863.525 70.856C862.725 70.472 862.069 69.968 861.557 69.344C861.045 68.704 860.661 67.992 860.405 67.208C860.165 66.424 860.045 65.616 860.045 64.784V64.448C860.045 63.632 860.165 62.832 860.405 62.048C860.661 61.264 861.045 60.56 861.557 59.936C862.069 59.312 862.709 58.816 863.477 58.448C864.261 58.064 865.173 57.872 866.213 57.872C867.541 57.872 868.645 58.168 869.525 58.76C870.421 59.352 871.093 60.112 871.541 61.04C871.989 61.952 872.213 62.936 872.213 63.992V64.928H860.861V63.536H870.965L870.509 64.232C870.509 63.288 870.341 62.464 870.005 61.76C869.685 61.04 869.205 60.48 868.565 60.08C867.941 59.664 867.157 59.456 866.213 59.456C865.221 59.456 864.397 59.688 863.741 60.152C863.085 60.616 862.589 61.232 862.253 62C861.933 62.768 861.773 63.64 861.773 64.616C861.773 65.576 861.933 66.456 862.253 67.256C862.589 68.04 863.093 68.664 863.765 69.128C864.453 69.592 865.317 69.824 866.357 69.824C867.461 69.824 868.357 69.576 869.045 69.08C869.733 68.568 870.157 67.968 870.317 67.28H871.997C871.837 68.128 871.501 68.864 870.989 69.488C870.477 70.096 869.829 70.568 869.045 70.904C868.261 71.24 867.365 71.408 866.357 71.408ZM879.686 71.36C878.054 71.36 876.798 71.008 875.918 70.304C875.038 69.584 874.59 68.624 874.574 67.424H876.254C876.286 68.032 876.558 68.584 877.07 69.08C877.598 69.576 878.47 69.824 879.686 69.824C880.822 69.824 881.67 69.592 882.23 69.128C882.806 68.648 883.094 68.072 883.094 67.4C883.094 66.776 882.854 66.296 882.374 65.96C881.91 65.608 881.23 65.384 880.334 65.288L878.894 65.144C877.742 65.016 876.806 64.664 876.086 64.088C875.382 63.496 875.03 62.688 875.03 61.664C875.03 60.912 875.222 60.256 875.606 59.696C875.99 59.136 876.526 58.704 877.214 58.4C877.918 58.08 878.742 57.92 879.686 57.92C881.046 57.92 882.15 58.24 882.998 58.88C883.862 59.52 884.302 60.432 884.318 61.616H882.638C882.622 61.008 882.366 60.496 881.87 60.08C881.374 59.664 880.646 59.456 879.686 59.456C878.694 59.456 877.95 59.672 877.454 60.104C876.974 60.536 876.734 61.064 876.734 61.688C876.734 62.216 876.918 62.656 877.286 63.008C877.654 63.344 878.23 63.552 879.014 63.632L880.454 63.776C881.734 63.92 882.774 64.288 883.574 64.88C884.39 65.472 884.798 66.32 884.798 67.424C884.798 68.176 884.582 68.856 884.15 69.464C883.734 70.056 883.142 70.52 882.374 70.856C881.606 71.192 880.71 71.36 879.686 71.36ZM892.389 71.36C890.757 71.36 889.501 71.008 888.621 70.304C887.741 69.584 887.293 68.624 887.277 67.424H888.957C888.989 68.032 889.261 68.584 889.773 69.08C890.301 69.576 891.173 69.824 892.389 69.824C893.525 69.824 894.373 69.592 894.933 69.128C895.509 68.648 895.797 68.072 895.797 67.4C895.797 66.776 895.557 66.296 895.077 65.96C894.613 65.608 893.933 65.384 893.037 65.288L891.597 65.144C890.445 65.016 889.509 64.664 888.789 64.088C888.085 63.496 887.733 62.688 887.733 61.664C887.733 60.912 887.925 60.256 888.309 59.696C888.693 59.136 889.229 58.704 889.917 58.4C890.621 58.08 891.445 57.92 892.389 57.92C893.749 57.92 894.853 58.24 895.701 58.88C896.565 59.52 897.005 60.432 897.021 61.616H895.341C895.325 61.008 895.069 60.496 894.573 60.08C894.077 59.664 893.349 59.456 892.389 59.456C891.397 59.456 890.653 59.672 890.157 60.104C889.677 60.536 889.437 61.064 889.437 61.688C889.437 62.216 889.621 62.656 889.989 63.008C890.357 63.344 890.933 63.552 891.717 63.632L893.157 63.776C894.437 63.92 895.477 64.288 896.277 64.88C897.093 65.472 897.501 66.32 897.501 67.424C897.501 68.176 897.285 68.856 896.853 69.464C896.437 70.056 895.845 70.52 895.077 70.856C894.309 71.192 893.413 71.36 892.389 71.36ZM908.812 71V67.184H908.524V62.672C908.524 61.728 908.276 61.008 907.78 60.512C907.284 60 906.516 59.744 905.476 59.744C904.996 59.744 904.508 59.752 904.012 59.768C903.532 59.784 903.068 59.808 902.62 59.84C902.188 59.856 901.804 59.88 901.468 59.912V58.328C901.82 58.296 902.18 58.264 902.548 58.232C902.916 58.2 903.292 58.184 903.676 58.184C904.076 58.168 904.46 58.16 904.828 58.16C906.124 58.16 907.164 58.32 907.948 58.64C908.748 58.96 909.332 59.464 909.7 60.152C910.068 60.824 910.252 61.72 910.252 62.84V71H908.812ZM904.516 71.336C903.62 71.336 902.828 71.176 902.14 70.856C901.452 70.536 900.916 70.072 900.532 69.464C900.164 68.856 899.98 68.12 899.98 67.256C899.98 66.408 900.172 65.688 900.556 65.096C900.956 64.504 901.524 64.056 902.26 63.752C903.012 63.432 903.916 63.272 904.972 63.272H908.692V64.64H904.852C903.844 64.64 903.068 64.888 902.524 65.384C901.996 65.864 901.732 66.496 901.732 67.28C901.732 68.08 902.012 68.72 902.572 69.2C903.132 69.664 903.892 69.896 904.852 69.896C905.444 69.896 906.012 69.792 906.556 69.584C907.1 69.36 907.556 68.992 907.924 68.48C908.292 67.952 908.492 67.232 908.524 66.32L909.052 67.064C908.988 68.008 908.764 68.8 908.38 69.44C907.996 70.064 907.476 70.536 906.82 70.856C906.164 71.176 905.396 71.336 904.516 71.336ZM919.596 75.968C919.004 75.968 918.404 75.936 917.796 75.872C917.204 75.824 916.636 75.76 916.092 75.68V74.144C916.668 74.224 917.268 74.288 917.892 74.336C918.532 74.4 919.132 74.432 919.692 74.432C920.908 74.432 921.876 74.272 922.596 73.952C923.316 73.632 923.828 73.12 924.132 72.416C924.452 71.728 924.612 70.816 924.612 69.68V67.136L925.284 65.36C925.252 66.576 924.996 67.624 924.516 68.504C924.036 69.368 923.388 70.032 922.572 70.496C921.756 70.96 920.828 71.192 919.788 71.192C918.876 71.192 918.044 71.016 917.292 70.664C916.556 70.312 915.924 69.832 915.396 69.224C914.868 68.6 914.46 67.896 914.172 67.112C913.884 66.328 913.74 65.504 913.74 64.64V64.304C913.74 63.456 913.884 62.648 914.172 61.88C914.46 61.096 914.868 60.408 915.396 59.816C915.924 59.208 916.564 58.736 917.316 58.4C918.084 58.048 918.932 57.872 919.86 57.872C920.98 57.872 921.956 58.12 922.788 58.616C923.62 59.112 924.268 59.8 924.732 60.68C925.212 61.56 925.468 62.592 925.5 63.776L924.924 63.464V58.304H926.34V69.608C926.34 71.128 926.116 72.352 925.668 73.28C925.22 74.208 924.5 74.888 923.508 75.32C922.532 75.752 921.228 75.968 919.596 75.968ZM920.1 69.536C920.964 69.536 921.732 69.352 922.404 68.984C923.092 68.6 923.636 68.064 924.036 67.376C924.436 66.688 924.636 65.888 924.636 64.976V63.8C924.636 62.92 924.428 62.152 924.012 61.496C923.612 60.84 923.076 60.328 922.404 59.96C921.732 59.592 920.964 59.408 920.1 59.408C919.172 59.408 918.364 59.632 917.676 60.08C916.988 60.528 916.46 61.136 916.092 61.904C915.724 62.656 915.54 63.512 915.54 64.472C915.54 65.448 915.724 66.32 916.092 67.088C916.476 67.856 917.012 68.456 917.7 68.888C918.388 69.32 919.188 69.536 920.1 69.536ZM936.154 71.408C935.066 71.408 934.122 71.224 933.322 70.856C932.522 70.472 931.866 69.968 931.354 69.344C930.842 68.704 930.458 67.992 930.202 67.208C929.962 66.424 929.842 65.616 929.842 64.784V64.448C929.842 63.632 929.962 62.832 930.202 62.048C930.458 61.264 930.842 60.56 931.354 59.936C931.866 59.312 932.506 58.816 933.274 58.448C934.058 58.064 934.97 57.872 936.01 57.872C937.338 57.872 938.442 58.168 939.322 58.76C940.218 59.352 940.89 60.112 941.338 61.04C941.786 61.952 942.01 62.936 942.01 63.992V64.928H930.658V63.536H940.762L940.306 64.232C940.306 63.288 940.138 62.464 939.802 61.76C939.482 61.04 939.002 60.48 938.362 60.08C937.738 59.664 936.954 59.456 936.01 59.456C935.018 59.456 934.194 59.688 933.538 60.152C932.882 60.616 932.386 61.232 932.05 62C931.73 62.768 931.57 63.64 931.57 64.616C931.57 65.576 931.73 66.456 932.05 67.256C932.386 68.04 932.89 68.664 933.562 69.128C934.25 69.592 935.114 69.824 936.154 69.824C937.258 69.824 938.154 69.576 938.842 69.08C939.53 68.568 939.954 67.968 940.114 67.28H941.794C941.634 68.128 941.298 68.864 940.786 69.488C940.274 70.096 939.626 70.568 938.842 70.904C938.058 71.24 937.162 71.408 936.154 71.408Z" fill="#0C071D"/>
</svg>
