<svg width="1105" height="82" viewBox="0 0 1105 82" fill="none" xmlns="http://www.w3.org/2000/svg">
<path d="M50.704 47L40.512 32.776H35.976L48.912 16.592H57.032L45.104 31.544L45.272 27.624L59.496 47H50.704ZM29.424 47V6.12H37.208V47H29.424Z" fill="#0C071D"/>
<path opacity="0.67" d="M29.328 75.8V58.304H30.768V63.752L30.336 63.8C30.4 62.52 30.672 61.44 31.152 60.56C31.648 59.68 32.312 59.016 33.144 58.568C33.992 58.104 34.936 57.872 35.976 57.872C36.904 57.872 37.744 58.056 38.496 58.424C39.264 58.776 39.912 59.264 40.44 59.888C40.984 60.496 41.392 61.2 41.664 62C41.952 62.784 42.096 63.608 42.096 64.472V64.808C42.096 65.672 41.952 66.504 41.664 67.304C41.376 68.088 40.96 68.792 40.416 69.416C39.888 70.024 39.24 70.512 38.472 70.88C37.72 71.232 36.872 71.408 35.928 71.408C34.92 71.408 33.992 71.184 33.144 70.736C32.312 70.272 31.632 69.592 31.104 68.696C30.592 67.8 30.312 66.696 30.264 65.384L31.128 67.184V75.8H29.328ZM35.688 69.824C36.648 69.824 37.472 69.6 38.16 69.152C38.848 68.688 39.376 68.064 39.744 67.28C40.112 66.48 40.296 65.6 40.296 64.64C40.296 63.648 40.104 62.768 39.72 62C39.352 61.216 38.824 60.6 38.136 60.152C37.448 59.688 36.632 59.456 35.688 59.456C34.824 59.456 34.04 59.648 33.336 60.032C32.632 60.416 32.072 60.96 31.656 61.664C31.256 62.352 31.056 63.168 31.056 64.112V65.288C31.056 66.184 31.256 66.976 31.656 67.664C32.072 68.336 32.632 68.864 33.336 69.248C34.04 69.632 34.824 69.824 35.688 69.824ZM45.7343 71V58.304H47.1743V63.608H47.0303C47.0303 61.752 47.4383 60.384 48.2543 59.504C49.0703 58.608 50.3503 58.16 52.0943 58.16H52.5023V59.792H51.7583C50.3823 59.792 49.3343 60.152 48.6143 60.872C47.8943 61.576 47.5343 62.616 47.5343 63.992V71H45.7343ZM56.0859 71V58.304H57.8619V71H56.0859ZM54.0459 59.744V58.304H57.8619V59.744H54.0459ZM56.4699 55.952C56.0379 55.952 55.7099 55.84 55.4859 55.616C55.2779 55.376 55.1739 55.08 55.1739 54.728C55.1739 54.376 55.2779 54.088 55.4859 53.864C55.7099 53.624 56.0379 53.504 56.4699 53.504C56.9019 53.504 57.2219 53.624 57.4299 53.864C57.6379 54.088 57.7419 54.376 57.7419 54.728C57.7419 55.08 57.6379 55.376 57.4299 55.616C57.2219 55.84 56.9019 55.952 56.4699 55.952ZM65.4178 71L60.9538 58.304H62.8018L67.2178 71H65.4178ZM65.8978 71V69.536H68.1778V71H65.8978ZM66.8818 71L70.7458 58.304H72.5218L68.5858 71H66.8818ZM74.4133 71V68.624H76.6693V71H74.4133ZM86.5624 71V58.304H88.0024V63.608H87.8584C87.8584 61.752 88.2664 60.384 89.0824 59.504C89.8984 58.608 91.1784 58.16 92.9224 58.16H93.3304V59.792H92.5864C91.2104 59.792 90.1624 60.152 89.4424 60.872C88.7224 61.576 88.3624 62.616 88.3624 63.992V71H86.5624ZM103.923 71V67.184H103.635V62.672C103.635 61.728 103.387 61.008 102.891 60.512C102.395 60 101.627 59.744 100.587 59.744C100.107 59.744 99.6192 59.752 99.1232 59.768C98.6432 59.784 98.1792 59.808 97.7312 59.84C97.2992 59.856 96.9152 59.88 96.5792 59.912V58.328C96.9312 58.296 97.2912 58.264 97.6592 58.232C98.0272 58.2 98.4032 58.184 98.7872 58.184C99.1872 58.168 99.5712 58.16 99.9392 58.16C101.235 58.16 102.275 58.32 103.059 58.64C103.859 58.96 104.443 59.464 104.811 60.152C105.179 60.824 105.363 61.72 105.363 62.84V71H103.923ZM99.6272 71.336C98.7312 71.336 97.9392 71.176 97.2512 70.856C96.5632 70.536 96.0272 70.072 95.6432 69.464C95.2752 68.856 95.0912 68.12 95.0912 67.256C95.0912 66.408 95.2832 65.688 95.6672 65.096C96.0672 64.504 96.6352 64.056 97.3712 63.752C98.1232 63.432 99.0272 63.272 100.083 63.272H103.803V64.64H99.9632C98.9552 64.64 98.1792 64.888 97.6352 65.384C97.1072 65.864 96.8432 66.496 96.8432 67.28C96.8432 68.08 97.1232 68.72 97.6832 69.2C98.2432 69.664 99.0032 69.896 99.9632 69.896C100.555 69.896 101.123 69.792 101.667 69.584C102.211 69.36 102.667 68.992 103.035 68.48C103.403 67.952 103.603 67.232 103.635 66.32L104.163 67.064C104.099 68.008 103.875 68.8 103.491 69.44C103.107 70.064 102.587 70.536 101.931 70.856C101.275 71.176 100.507 71.336 99.6272 71.336ZM109.859 71V58.304H111.299V63.632H111.011C111.011 62.448 111.187 61.432 111.539 60.584C111.891 59.736 112.419 59.08 113.123 58.616C113.827 58.152 114.715 57.92 115.787 57.92H115.859C117.459 57.92 118.651 58.424 119.435 59.432C120.219 60.424 120.611 61.824 120.611 63.632V71H118.835V63.248C118.835 62.144 118.531 61.256 117.923 60.584C117.315 59.912 116.467 59.576 115.379 59.576C114.259 59.576 113.355 59.928 112.667 60.632C111.995 61.32 111.659 62.232 111.659 63.368V71H109.859ZM133.734 71L128.622 65.048H126.558L132.582 58.304H134.502L129.102 64.328L129.222 63.344L135.846 71H133.734ZM125.094 71V53.48H126.894V71H125.094ZM143.312 71.408C142.224 71.408 141.28 71.224 140.48 70.856C139.68 70.472 139.024 69.968 138.512 69.344C138 68.704 137.616 67.992 137.36 67.208C137.12 66.424 137 65.616 137 64.784V64.448C137 63.632 137.12 62.832 137.36 62.048C137.616 61.264 138 60.56 138.512 59.936C139.024 59.312 139.664 58.816 140.432 58.448C141.216 58.064 142.128 57.872 143.168 57.872C144.496 57.872 145.6 58.168 146.48 58.76C147.376 59.352 148.048 60.112 148.496 61.04C148.944 61.952 149.168 62.936 149.168 63.992V64.928H137.816V63.536H147.92L147.464 64.232C147.464 63.288 147.296 62.464 146.96 61.76C146.64 61.04 146.16 60.48 145.52 60.08C144.896 59.664 144.112 59.456 143.168 59.456C142.176 59.456 141.352 59.688 140.696 60.152C140.04 60.616 139.544 61.232 139.208 62C138.888 62.768 138.728 63.64 138.728 64.616C138.728 65.576 138.888 66.456 139.208 67.256C139.544 68.04 140.048 68.664 140.72 69.128C141.408 69.592 142.272 69.824 143.312 69.824C144.416 69.824 145.312 69.576 146 69.08C146.688 68.568 147.112 67.968 147.272 67.28H148.952C148.792 68.128 148.456 68.864 147.944 69.488C147.432 70.096 146.784 70.568 146 70.904C145.216 71.24 144.32 71.408 143.312 71.408ZM151.411 75.944V74.336H153.043C153.603 74.336 154.083 74.264 154.483 74.12C154.883 73.992 155.219 73.76 155.491 73.424C155.763 73.088 155.995 72.624 156.187 72.032L160.459 58.304H162.211L157.747 72.536C157.491 73.352 157.139 74.008 156.691 74.504C156.243 75.016 155.707 75.384 155.083 75.608C154.459 75.832 153.747 75.944 152.947 75.944H151.411ZM155.539 70.688V69.176H157.819V70.688H155.539ZM155.323 70.688L150.715 58.304H152.563L157.003 70.688H155.323Z" fill="#0C071D"/>
<path d="M283.768 46.7678C284.744 45.7915 284.744 44.2085 283.768 43.2322L267.858 27.3223C266.882 26.346 265.299 26.346 264.322 27.3223C263.346 28.2986 263.346 29.8816 264.322 30.8579L278.464 45L264.322 59.1421C263.346 60.1184 263.346 61.7014 264.322 62.6777C265.299 63.654 266.882 63.654 267.858 62.6777L283.768 46.7678ZM199 47.5H282V42.5H199V47.5Z" fill="#F79327"/>
<path d="M339.704 47L329.512 32.776H324.976L337.912 16.592H346.032L334.104 31.544L334.272 27.624L348.496 47H339.704ZM318.424 47V6.12H326.208V47H318.424ZM372.643 48.064C369.133 48.064 366.035 47.4853 363.346 46.328C360.696 45.1333 358.456 43.5467 356.627 41.568C354.835 39.552 353.472 37.2933 352.539 34.792C351.643 32.2533 351.195 29.6213 351.195 26.896V25.664C351.195 23.088 351.643 20.568 352.539 18.104C353.435 15.64 354.741 13.4187 356.459 11.44C358.213 9.46133 360.36 7.89333 362.899 6.736C365.475 5.54133 368.424 4.944 371.747 4.944C375.331 4.944 378.504 5.616 381.267 6.96C384.029 8.26667 386.251 10.1147 387.931 12.504C389.611 14.856 390.6 17.6 390.899 20.736H382.891C382.629 18.9813 381.976 17.488 380.931 16.256C379.885 14.9867 378.56 14.016 376.955 13.344C375.387 12.672 373.651 12.336 371.747 12.336C369.843 12.336 368.107 12.672 366.539 13.344C365.008 14.016 363.701 14.968 362.619 16.2C361.536 17.432 360.696 18.9067 360.099 20.624C359.539 22.3413 359.259 24.2453 359.259 26.336C359.259 28.6133 359.576 30.648 360.211 32.44C360.845 34.232 361.741 35.7627 362.899 37.032C364.056 38.264 365.456 39.216 367.099 39.888C368.741 40.5227 370.589 40.84 372.643 40.84C375.368 40.84 377.757 40.28 379.811 39.16C381.864 38.0027 383.357 36.5093 384.291 34.68L382.891 41.12V30.592H390.227V39.664C388.472 42.3147 386.083 44.3867 383.059 45.88C380.035 47.336 376.563 48.064 372.643 48.064ZM371.355 32.16V26.224H393.643V32.16H371.355ZM410.322 25.944V19.672H437.202V25.944H410.322ZM410.322 37.312V31.04H437.202V37.312H410.322ZM464.623 57.192C462.794 54.9147 461.189 52.4507 459.807 49.8C458.426 47.1493 457.362 44.2187 456.615 41.008C455.869 37.76 455.495 34.12 455.495 30.088C455.495 26.0187 455.887 22.3973 456.671 19.224C457.455 16.0133 458.557 13.1387 459.975 10.6C461.394 8.024 462.999 5.672 464.791 3.544H473.471C471.455 6.008 469.663 8.584 468.095 11.272C466.527 13.96 465.314 16.8533 464.455 19.952C463.597 23.0507 463.167 26.4293 463.167 30.088C463.167 33.7093 463.522 37.088 464.231 40.224C464.978 43.36 466.117 46.328 467.647 49.128C469.178 51.928 471.119 54.616 473.471 57.192H464.623ZM474.147 47L484.059 30.76L483.891 32.048L474.539 16.592H482.995L489.099 27.288H489.939L495.707 16.592H503.659L494.811 31.992L494.979 30.872L505.451 47H496.995L489.771 35.52H488.931L482.099 47H474.147ZM512.839 56.296L506.791 54L512.503 37.76L518.999 40.168L512.839 56.296ZM522.551 58.984V52.32H528.263C529.346 52.32 530.242 52.1707 530.951 51.872C531.698 51.6107 532.314 51.1627 532.799 50.528C533.285 49.9307 533.658 49.0907 533.919 48.008L542.095 16.592H549.543L540.527 49.688C539.93 51.9653 539.09 53.776 538.007 55.12C536.925 56.5013 535.525 57.4907 533.807 58.088C532.127 58.6853 530.037 58.984 527.535 58.984H522.551ZM532.015 46.328V40.168H538.511V46.328H532.015ZM529.383 46.328L519.527 16.592H527.367L536.719 46.328H529.383ZM559.494 57.192H550.646C552.998 54.616 554.939 51.928 556.47 49.128C558.001 46.328 559.121 43.36 559.83 40.224C560.577 37.088 560.95 33.7093 560.95 30.088C560.95 26.4293 560.521 23.0507 559.662 19.952C558.803 16.8533 557.59 13.96 556.022 11.272C554.454 8.584 552.662 6.008 550.646 3.544H559.326C561.118 5.672 562.723 8.024 564.142 10.6C565.561 13.1387 566.662 16.0133 567.446 19.224C568.23 22.3973 568.622 26.0187 568.622 30.088C568.622 34.12 568.249 37.76 567.502 41.008C566.755 44.2187 565.691 47.1493 564.31 49.8C562.929 52.4507 561.323 54.9147 559.494 57.192Z" fill="#0C071D"/>
<path opacity="0.67" d="M320.328 75.8V58.304H321.768V63.752L321.336 63.8C321.4 62.52 321.672 61.44 322.152 60.56C322.648 59.68 323.312 59.016 324.144 58.568C324.992 58.104 325.936 57.872 326.976 57.872C327.904 57.872 328.744 58.056 329.496 58.424C330.264 58.776 330.912 59.264 331.44 59.888C331.984 60.496 332.392 61.2 332.664 62C332.952 62.784 333.096 63.608 333.096 64.472V64.808C333.096 65.672 332.952 66.504 332.664 67.304C332.376 68.088 331.96 68.792 331.416 69.416C330.888 70.024 330.24 70.512 329.472 70.88C328.72 71.232 327.872 71.408 326.928 71.408C325.92 71.408 324.992 71.184 324.144 70.736C323.312 70.272 322.632 69.592 322.104 68.696C321.592 67.8 321.312 66.696 321.264 65.384L322.128 67.184V75.8H320.328ZM326.688 69.824C327.648 69.824 328.472 69.6 329.16 69.152C329.848 68.688 330.376 68.064 330.744 67.28C331.112 66.48 331.296 65.6 331.296 64.64C331.296 63.648 331.104 62.768 330.72 62C330.352 61.216 329.824 60.6 329.136 60.152C328.448 59.688 327.632 59.456 326.688 59.456C325.824 59.456 325.04 59.648 324.336 60.032C323.632 60.416 323.072 60.96 322.656 61.664C322.256 62.352 322.056 63.168 322.056 64.112V65.288C322.056 66.184 322.256 66.976 322.656 67.664C323.072 68.336 323.632 68.864 324.336 69.248C325.04 69.632 325.824 69.824 326.688 69.824ZM341.126 71.36C339.606 71.36 338.446 70.872 337.646 69.896C336.846 68.904 336.446 67.528 336.446 65.768V58.28H338.222V66.128C338.222 67.232 338.51 68.112 339.086 68.768C339.678 69.408 340.494 69.728 341.534 69.728C342.622 69.728 343.486 69.384 344.126 68.696C344.782 68.008 345.11 67.088 345.11 65.936V58.28H346.91V71H345.47V65.696H345.758C345.758 66.88 345.59 67.896 345.254 68.744C344.918 69.576 344.414 70.224 343.742 70.688C343.07 71.136 342.222 71.36 341.198 71.36H341.126ZM358.169 71.408C357.049 71.408 356.065 71.16 355.217 70.664C354.385 70.168 353.729 69.472 353.249 68.576C352.785 67.68 352.537 66.648 352.505 65.48H353.057V71H351.617V53.48H353.417V62.24L352.721 63.848C352.753 62.568 353.009 61.488 353.489 60.608C353.985 59.712 354.641 59.032 355.457 58.568C356.289 58.104 357.233 57.872 358.289 57.872C359.217 57.872 360.057 58.048 360.809 58.4C361.561 58.752 362.201 59.232 362.729 59.84C363.273 60.448 363.681 61.152 363.953 61.952C364.241 62.736 364.385 63.568 364.385 64.448V64.784C364.385 65.648 364.241 66.48 363.953 67.28C363.665 68.064 363.249 68.768 362.705 69.392C362.177 70.016 361.529 70.512 360.761 70.88C359.993 71.232 359.129 71.408 358.169 71.408ZM357.977 69.824C358.937 69.824 359.761 69.592 360.449 69.128C361.137 68.664 361.665 68.04 362.033 67.256C362.401 66.472 362.585 65.592 362.585 64.616C362.585 63.624 362.393 62.744 362.009 61.976C361.641 61.192 361.105 60.576 360.401 60.128C359.713 59.68 358.905 59.456 357.977 59.456C357.113 59.456 356.329 59.648 355.625 60.032C354.921 60.416 354.361 60.96 353.945 61.664C353.545 62.352 353.345 63.168 353.345 64.112V65.288C353.345 66.184 353.545 66.976 353.945 67.664C354.361 68.336 354.921 68.864 355.625 69.248C356.329 69.632 357.113 69.824 357.977 69.824ZM367.288 71V68.624H369.544V71H367.288ZM379.437 71V58.304H380.877V63.608H380.733C380.733 61.752 381.141 60.384 381.957 59.504C382.773 58.608 384.053 58.16 385.797 58.16H386.205V59.792H385.461C384.085 59.792 383.037 60.152 382.317 60.872C381.597 61.576 381.237 62.616 381.237 63.992V71H379.437ZM396.798 71V67.184H396.51V62.672C396.51 61.728 396.262 61.008 395.766 60.512C395.27 60 394.502 59.744 393.462 59.744C392.982 59.744 392.494 59.752 391.998 59.768C391.518 59.784 391.054 59.808 390.606 59.84C390.174 59.856 389.79 59.88 389.454 59.912V58.328C389.806 58.296 390.166 58.264 390.534 58.232C390.902 58.2 391.278 58.184 391.662 58.184C392.062 58.168 392.446 58.16 392.814 58.16C394.11 58.16 395.15 58.32 395.934 58.64C396.734 58.96 397.318 59.464 397.686 60.152C398.054 60.824 398.238 61.72 398.238 62.84V71H396.798ZM392.502 71.336C391.606 71.336 390.814 71.176 390.126 70.856C389.438 70.536 388.902 70.072 388.518 69.464C388.15 68.856 387.966 68.12 387.966 67.256C387.966 66.408 388.158 65.688 388.542 65.096C388.942 64.504 389.51 64.056 390.246 63.752C390.998 63.432 391.902 63.272 392.958 63.272H396.678V64.64H392.838C391.83 64.64 391.054 64.888 390.51 65.384C389.982 65.864 389.718 66.496 389.718 67.28C389.718 68.08 389.998 68.72 390.558 69.2C391.118 69.664 391.878 69.896 392.838 69.896C393.43 69.896 393.998 69.792 394.542 69.584C395.086 69.36 395.542 68.992 395.91 68.48C396.278 67.952 396.478 67.232 396.51 66.32L397.038 67.064C396.974 68.008 396.75 68.8 396.366 69.44C395.982 70.064 395.462 70.536 394.806 70.856C394.15 71.176 393.382 71.336 392.502 71.336ZM402.734 71V58.304H404.174V63.632H403.886C403.886 62.448 404.062 61.432 404.414 60.584C404.766 59.736 405.294 59.08 405.998 58.616C406.702 58.152 407.59 57.92 408.662 57.92H408.734C410.334 57.92 411.526 58.424 412.31 59.432C413.094 60.424 413.486 61.824 413.486 63.632V71H411.71V63.248C411.71 62.144 411.406 61.256 410.798 60.584C410.19 59.912 409.342 59.576 408.254 59.576C407.134 59.576 406.23 59.928 405.542 60.632C404.87 61.32 404.534 62.232 404.534 63.368V71H402.734ZM426.609 71L421.497 65.048H419.433L425.457 58.304H427.377L421.977 64.328L422.097 63.344L428.721 71H426.609ZM417.969 71V53.48H419.769V71H417.969ZM436.187 71.408C435.099 71.408 434.155 71.224 433.355 70.856C432.555 70.472 431.899 69.968 431.387 69.344C430.875 68.704 430.491 67.992 430.235 67.208C429.995 66.424 429.875 65.616 429.875 64.784V64.448C429.875 63.632 429.995 62.832 430.235 62.048C430.491 61.264 430.875 60.56 431.387 59.936C431.899 59.312 432.539 58.816 433.307 58.448C434.091 58.064 435.003 57.872 436.043 57.872C437.371 57.872 438.475 58.168 439.355 58.76C440.251 59.352 440.923 60.112 441.371 61.04C441.819 61.952 442.043 62.936 442.043 63.992V64.928H430.691V63.536H440.795L440.339 64.232C440.339 63.288 440.171 62.464 439.835 61.76C439.515 61.04 439.035 60.48 438.395 60.08C437.771 59.664 436.987 59.456 436.043 59.456C435.051 59.456 434.227 59.688 433.571 60.152C432.915 60.616 432.419 61.232 432.083 62C431.763 62.768 431.603 63.64 431.603 64.616C431.603 65.576 431.763 66.456 432.083 67.256C432.419 68.04 432.923 68.664 433.595 69.128C434.283 69.592 435.147 69.824 436.187 69.824C437.291 69.824 438.187 69.576 438.875 69.08C439.563 68.568 439.987 67.968 440.147 67.28H441.827C441.667 68.128 441.331 68.864 440.819 69.488C440.307 70.096 439.659 70.568 438.875 70.904C438.091 71.24 437.195 71.408 436.187 71.408ZM444.286 75.944V74.336H445.918C446.478 74.336 446.958 74.264 447.358 74.12C447.758 73.992 448.094 73.76 448.366 73.424C448.638 73.088 448.87 72.624 449.062 72.032L453.334 58.304H455.086L450.622 72.536C450.366 73.352 450.014 74.008 449.566 74.504C449.118 75.016 448.582 75.384 447.958 75.608C447.334 75.832 446.622 75.944 445.822 75.944H444.286ZM448.414 70.688V69.176H450.694V70.688H448.414ZM448.198 70.688L443.59 58.304H445.438L449.878 70.688H448.198Z" fill="#0C071D"/>
<path d="M707.768 46.7678C708.744 45.7915 708.744 44.2085 707.768 43.2322L691.858 27.3223C690.882 26.346 689.299 26.346 688.322 27.3223C687.346 28.2986 687.346 29.8816 688.322 30.8579L702.464 45L688.322 59.1421C687.346 60.1184 687.346 61.7014 688.322 62.6777C689.299 63.654 690.882 63.654 691.858 62.6777L707.768 46.7678ZM623 47.5H706V42.5H623V47.5Z" fill="#F79327"/>
<path d="M738.952 47L748.864 30.76L748.696 32.048L739.344 16.592H747.8L753.904 27.288H754.744L760.512 16.592H768.464L759.616 31.992L759.784 30.872L770.256 47H761.8L754.576 35.52H753.736L746.904 47H738.952ZM786.033 25.944V19.672H812.913V25.944H786.033ZM786.033 37.312V31.04H812.913V37.312H786.033ZM832.494 47V16.592H838.654V29.472H838.486C838.486 25.104 839.42 21.8 841.286 19.56C843.153 17.32 845.897 16.2 849.518 16.2H850.638V22.976H848.51C845.897 22.976 843.862 23.6853 842.406 25.104C840.988 26.4853 840.278 28.5013 840.278 31.152V47H832.494Z" fill="#0C071D"/>
<path opacity="0.67" d="M744.498 75.8V58.304H745.938V63.752L745.506 63.8C745.57 62.52 745.842 61.44 746.322 60.56C746.818 59.68 747.482 59.016 748.314 58.568C749.162 58.104 750.106 57.872 751.146 57.872C752.074 57.872 752.914 58.056 753.666 58.424C754.434 58.776 755.082 59.264 755.61 59.888C756.154 60.496 756.562 61.2 756.834 62C757.122 62.784 757.266 63.608 757.266 64.472V64.808C757.266 65.672 757.122 66.504 756.834 67.304C756.546 68.088 756.13 68.792 755.586 69.416C755.058 70.024 754.41 70.512 753.642 70.88C752.89 71.232 752.042 71.408 751.098 71.408C750.09 71.408 749.162 71.184 748.314 70.736C747.482 70.272 746.802 69.592 746.274 68.696C745.762 67.8 745.482 66.696 745.434 65.384L746.298 67.184V75.8H744.498ZM750.858 69.824C751.818 69.824 752.642 69.6 753.33 69.152C754.018 68.688 754.546 68.064 754.914 67.28C755.282 66.48 755.466 65.6 755.466 64.64C755.466 63.648 755.274 62.768 754.89 62C754.522 61.216 753.994 60.6 753.306 60.152C752.618 59.688 751.802 59.456 750.858 59.456C749.994 59.456 749.21 59.648 748.506 60.032C747.802 60.416 747.242 60.96 746.826 61.664C746.426 62.352 746.226 63.168 746.226 64.112V65.288C746.226 66.184 746.426 66.976 746.826 67.664C747.242 68.336 747.802 68.864 748.506 69.248C749.21 69.632 749.994 69.824 750.858 69.824ZM765.297 71.36C763.777 71.36 762.617 70.872 761.817 69.896C761.017 68.904 760.617 67.528 760.617 65.768V58.28H762.393V66.128C762.393 67.232 762.681 68.112 763.257 68.768C763.849 69.408 764.665 69.728 765.705 69.728C766.793 69.728 767.657 69.384 768.297 68.696C768.953 68.008 769.281 67.088 769.281 65.936V58.28H771.081V71H769.641V65.696H769.929C769.929 66.88 769.761 67.896 769.425 68.744C769.089 69.576 768.585 70.224 767.913 70.688C767.241 71.136 766.393 71.36 765.369 71.36H765.297ZM782.34 71.408C781.22 71.408 780.236 71.16 779.388 70.664C778.556 70.168 777.9 69.472 777.42 68.576C776.956 67.68 776.708 66.648 776.676 65.48H777.228V71H775.788V53.48H777.588V62.24L776.892 63.848C776.924 62.568 777.18 61.488 777.66 60.608C778.156 59.712 778.812 59.032 779.628 58.568C780.46 58.104 781.404 57.872 782.46 57.872C783.388 57.872 784.228 58.048 784.98 58.4C785.732 58.752 786.372 59.232 786.9 59.84C787.444 60.448 787.852 61.152 788.124 61.952C788.412 62.736 788.556 63.568 788.556 64.448V64.784C788.556 65.648 788.412 66.48 788.124 67.28C787.836 68.064 787.42 68.768 786.876 69.392C786.348 70.016 785.7 70.512 784.932 70.88C784.164 71.232 783.3 71.408 782.34 71.408ZM782.148 69.824C783.108 69.824 783.932 69.592 784.62 69.128C785.308 68.664 785.836 68.04 786.204 67.256C786.572 66.472 786.756 65.592 786.756 64.616C786.756 63.624 786.564 62.744 786.18 61.976C785.812 61.192 785.276 60.576 784.572 60.128C783.884 59.68 783.076 59.456 782.148 59.456C781.284 59.456 780.5 59.648 779.796 60.032C779.092 60.416 778.532 60.96 778.116 61.664C777.716 62.352 777.516 63.168 777.516 64.112V65.288C777.516 66.184 777.716 66.976 778.116 67.664C778.532 68.336 779.092 68.864 779.796 69.248C780.5 69.632 781.284 69.824 782.148 69.824ZM791.459 71V68.624H793.715V71H791.459ZM803.608 71V58.304H805.048V63.608H804.904C804.904 61.752 805.312 60.384 806.128 59.504C806.944 58.608 808.224 58.16 809.968 58.16H810.376V59.792H809.632C808.256 59.792 807.208 60.152 806.488 60.872C805.768 61.576 805.408 62.616 805.408 63.992V71H803.608ZM820.969 71V67.184H820.681V62.672C820.681 61.728 820.433 61.008 819.937 60.512C819.441 60 818.673 59.744 817.633 59.744C817.153 59.744 816.665 59.752 816.169 59.768C815.689 59.784 815.225 59.808 814.777 59.84C814.345 59.856 813.961 59.88 813.625 59.912V58.328C813.977 58.296 814.337 58.264 814.705 58.232C815.073 58.2 815.449 58.184 815.833 58.184C816.233 58.168 816.617 58.16 816.985 58.16C818.281 58.16 819.321 58.32 820.105 58.64C820.905 58.96 821.489 59.464 821.857 60.152C822.225 60.824 822.409 61.72 822.409 62.84V71H820.969ZM816.673 71.336C815.777 71.336 814.985 71.176 814.297 70.856C813.609 70.536 813.073 70.072 812.689 69.464C812.321 68.856 812.137 68.12 812.137 67.256C812.137 66.408 812.329 65.688 812.713 65.096C813.113 64.504 813.681 64.056 814.417 63.752C815.169 63.432 816.073 63.272 817.129 63.272H820.849V64.64H817.009C816.001 64.64 815.225 64.888 814.681 65.384C814.153 65.864 813.889 66.496 813.889 67.28C813.889 68.08 814.169 68.72 814.729 69.2C815.289 69.664 816.049 69.896 817.009 69.896C817.601 69.896 818.169 69.792 818.713 69.584C819.257 69.36 819.713 68.992 820.081 68.48C820.449 67.952 820.649 67.232 820.681 66.32L821.209 67.064C821.145 68.008 820.921 68.8 820.537 69.44C820.153 70.064 819.633 70.536 818.977 70.856C818.321 71.176 817.553 71.336 816.673 71.336ZM826.905 71V58.304H828.345V63.632H828.057C828.057 62.448 828.233 61.432 828.585 60.584C828.937 59.736 829.465 59.08 830.169 58.616C830.873 58.152 831.761 57.92 832.833 57.92H832.905C834.505 57.92 835.697 58.424 836.481 59.432C837.265 60.424 837.657 61.824 837.657 63.632V71H835.881V63.248C835.881 62.144 835.577 61.256 834.969 60.584C834.361 59.912 833.513 59.576 832.425 59.576C831.305 59.576 830.401 59.928 829.713 60.632C829.041 61.32 828.705 62.232 828.705 63.368V71H826.905ZM850.779 71L845.667 65.048H843.603L849.627 58.304H851.547L846.147 64.328L846.267 63.344L852.891 71H850.779ZM842.139 71V53.48H843.939V71H842.139ZM860.357 71.408C859.269 71.408 858.325 71.224 857.525 70.856C856.725 70.472 856.069 69.968 855.557 69.344C855.045 68.704 854.661 67.992 854.405 67.208C854.165 66.424 854.045 65.616 854.045 64.784V64.448C854.045 63.632 854.165 62.832 854.405 62.048C854.661 61.264 855.045 60.56 855.557 59.936C856.069 59.312 856.709 58.816 857.477 58.448C858.261 58.064 859.173 57.872 860.213 57.872C861.541 57.872 862.645 58.168 863.525 58.76C864.421 59.352 865.093 60.112 865.541 61.04C865.989 61.952 866.213 62.936 866.213 63.992V64.928H854.861V63.536H864.965L864.509 64.232C864.509 63.288 864.341 62.464 864.005 61.76C863.685 61.04 863.205 60.48 862.565 60.08C861.941 59.664 861.157 59.456 860.213 59.456C859.221 59.456 858.397 59.688 857.741 60.152C857.085 60.616 856.589 61.232 856.253 62C855.933 62.768 855.773 63.64 855.773 64.616C855.773 65.576 855.933 66.456 856.253 67.256C856.589 68.04 857.093 68.664 857.765 69.128C858.453 69.592 859.317 69.824 860.357 69.824C861.461 69.824 862.357 69.576 863.045 69.08C863.733 68.568 864.157 67.968 864.317 67.28H865.997C865.837 68.128 865.501 68.864 864.989 69.488C864.477 70.096 863.829 70.568 863.045 70.904C862.261 71.24 861.365 71.408 860.357 71.408ZM868.456 75.944V74.336H870.088C870.648 74.336 871.128 74.264 871.528 74.12C871.928 73.992 872.264 73.76 872.536 73.424C872.808 73.088 873.04 72.624 873.232 72.032L877.504 58.304H879.256L874.792 72.536C874.536 73.352 874.184 74.008 873.736 74.504C873.288 75.016 872.752 75.384 872.128 75.608C871.504 75.832 870.792 75.944 869.992 75.944H868.456ZM872.584 70.688V69.176H874.864V70.688H872.584ZM872.368 70.688L867.76 58.304H869.608L874.048 70.688H872.368ZM886.446 71L891.15 64.304V64.784L886.734 58.304H888.702L892.062 63.296H892.398L895.59 58.304H897.438L893.286 64.592V64.136L898.23 71H896.262L892.374 65.6H892.062L888.294 71H886.446ZM899.9 65.096V63.56H908.324V65.096H899.9ZM917.804 71.408C916.732 71.408 915.796 71.224 914.996 70.856C914.212 70.472 913.556 69.96 913.028 69.32C912.5 68.664 912.1 67.944 911.828 67.16C911.572 66.376 911.444 65.584 911.444 64.784V64.448C911.444 63.632 911.572 62.84 911.828 62.072C912.1 61.288 912.5 60.584 913.028 59.96C913.556 59.32 914.212 58.816 914.996 58.448C915.796 58.064 916.716 57.872 917.756 57.872C918.812 57.872 919.748 58.064 920.564 58.448C921.396 58.832 922.068 59.376 922.58 60.08C923.092 60.784 923.396 61.616 923.492 62.576H921.764C921.62 61.696 921.204 60.968 920.516 60.392C919.844 59.8 918.924 59.504 917.756 59.504C916.748 59.504 915.908 59.736 915.236 60.2C914.58 60.648 914.084 61.264 913.748 62.048C913.412 62.816 913.244 63.672 913.244 64.616C913.244 65.544 913.412 66.408 913.748 67.208C914.084 67.992 914.588 68.624 915.26 69.104C915.932 69.568 916.78 69.8 917.804 69.8C918.588 69.8 919.268 69.664 919.844 69.392C920.436 69.104 920.908 68.72 921.26 68.24C921.628 67.76 921.844 67.232 921.908 66.656H923.636C923.572 67.616 923.268 68.456 922.724 69.176C922.196 69.88 921.508 70.432 920.66 70.832C919.812 71.216 918.86 71.408 917.804 71.408ZM932.624 71.408C931.536 71.408 930.576 71.224 929.744 70.856C928.928 70.472 928.232 69.968 927.656 69.344C927.096 68.704 926.664 67.992 926.36 67.208C926.072 66.424 925.928 65.624 925.928 64.808V64.472C925.928 63.656 926.08 62.856 926.384 62.072C926.688 61.272 927.128 60.56 927.704 59.936C928.28 59.312 928.976 58.816 929.792 58.448C930.624 58.064 931.568 57.872 932.624 57.872C933.696 57.872 934.64 58.064 935.456 58.448C936.288 58.816 936.992 59.312 937.568 59.936C938.144 60.56 938.576 61.272 938.864 62.072C939.168 62.856 939.32 63.656 939.32 64.472V64.808C939.32 65.624 939.176 66.424 938.888 67.208C938.6 67.992 938.168 68.704 937.592 69.344C937.032 69.968 936.336 70.472 935.504 70.856C934.672 71.224 933.712 71.408 932.624 71.408ZM932.624 69.8C933.68 69.8 934.568 69.568 935.288 69.104C936.024 68.624 936.584 68 936.968 67.232C937.352 66.448 937.544 65.584 937.544 64.64C937.544 63.68 937.344 62.816 936.944 62.048C936.56 61.264 936 60.648 935.264 60.2C934.528 59.736 933.648 59.504 932.624 59.504C931.616 59.504 930.744 59.736 930.008 60.2C929.272 60.648 928.704 61.264 928.304 62.048C927.92 62.816 927.728 63.68 927.728 64.64C927.728 65.584 927.92 66.448 928.304 67.232C928.688 68 929.24 68.624 929.96 69.104C930.696 69.568 931.584 69.8 932.624 69.8ZM948.679 71.408C947.591 71.408 946.631 71.224 945.799 70.856C944.983 70.472 944.287 69.968 943.711 69.344C943.151 68.704 942.719 67.992 942.415 67.208C942.127 66.424 941.983 65.624 941.983 64.808V64.472C941.983 63.656 942.135 62.856 942.439 62.072C942.743 61.272 943.183 60.56 943.759 59.936C944.335 59.312 945.031 58.816 945.847 58.448C946.679 58.064 947.623 57.872 948.679 57.872C949.751 57.872 950.695 58.064 951.511 58.448C952.343 58.816 953.047 59.312 953.623 59.936C954.199 60.56 954.631 61.272 954.919 62.072C955.223 62.856 955.375 63.656 955.375 64.472V64.808C955.375 65.624 955.231 66.424 954.943 67.208C954.655 67.992 954.223 68.704 953.647 69.344C953.087 69.968 952.391 70.472 951.559 70.856C950.727 71.224 949.767 71.408 948.679 71.408ZM948.679 69.8C949.735 69.8 950.623 69.568 951.343 69.104C952.079 68.624 952.639 68 953.023 67.232C953.407 66.448 953.599 65.584 953.599 64.64C953.599 63.68 953.399 62.816 952.999 62.048C952.615 61.264 952.055 60.648 951.319 60.2C950.583 59.736 949.703 59.504 948.679 59.504C947.671 59.504 946.799 59.736 946.063 60.2C945.327 60.648 944.759 61.264 944.359 62.048C943.975 62.816 943.783 63.68 943.783 64.64C943.783 65.584 943.975 66.448 944.359 67.232C944.743 68 945.295 68.624 946.015 69.104C946.751 69.568 947.639 69.8 948.679 69.8ZM959.045 71V58.304H960.485V63.608H960.341C960.341 61.752 960.749 60.384 961.565 59.504C962.381 58.608 963.661 58.16 965.405 58.16H965.813V59.792H965.069C963.693 59.792 962.645 60.152 961.925 60.872C961.205 61.576 960.845 62.616 960.845 63.992V71H959.045ZM973.769 71.408C972.841 71.408 971.993 71.24 971.225 70.904C970.473 70.552 969.817 70.072 969.257 69.464C968.713 68.84 968.289 68.136 967.985 67.352C967.697 66.552 967.553 65.704 967.553 64.808V64.472C967.553 63.608 967.697 62.784 967.985 62C968.273 61.2 968.681 60.496 969.209 59.888C969.753 59.264 970.401 58.776 971.153 58.424C971.921 58.056 972.777 57.872 973.721 57.872C974.793 57.872 975.737 58.104 976.553 58.568C977.369 59.032 978.025 59.704 978.521 60.584C979.017 61.448 979.281 62.512 979.313 63.776L978.521 62.288V53.48H980.321V71H978.881V65.36H979.457C979.425 66.688 979.145 67.808 978.617 68.72C978.105 69.616 977.425 70.288 976.577 70.736C975.745 71.184 974.809 71.408 973.769 71.408ZM974.009 69.824C974.873 69.824 975.649 69.632 976.337 69.248C977.041 68.864 977.593 68.32 977.993 67.616C978.393 66.896 978.593 66.072 978.593 65.144V63.992C978.593 63.096 978.393 62.312 977.993 61.64C977.593 60.952 977.041 60.416 976.337 60.032C975.649 59.648 974.865 59.456 973.985 59.456C973.041 59.456 972.217 59.688 971.513 60.152C970.825 60.6 970.289 61.216 969.905 62C969.537 62.784 969.353 63.664 969.353 64.64C969.353 65.648 969.545 66.544 969.929 67.328C970.313 68.112 970.857 68.728 971.561 69.176C972.265 69.608 973.081 69.824 974.009 69.824ZM985.639 71V58.304H987.415V71H985.639ZM983.599 59.744V58.304H987.415V59.744H983.599ZM986.023 55.952C985.591 55.952 985.263 55.84 985.039 55.616C984.831 55.376 984.727 55.08 984.727 54.728C984.727 54.376 984.831 54.088 985.039 53.864C985.263 53.624 985.591 53.504 986.023 53.504C986.455 53.504 986.775 53.624 986.983 53.864C987.191 54.088 987.295 54.376 987.295 54.728C987.295 55.08 987.191 55.376 986.983 55.616C986.775 55.84 986.455 55.952 986.023 55.952ZM992.139 71V58.304H993.579V63.632H993.291C993.291 62.448 993.467 61.432 993.819 60.584C994.171 59.736 994.699 59.08 995.403 58.616C996.107 58.152 996.995 57.92 998.067 57.92H998.139C999.739 57.92 1000.93 58.424 1001.72 59.432C1002.5 60.424 1002.89 61.824 1002.89 63.632V71H1001.12V63.248C1001.12 62.144 1000.81 61.256 1000.2 60.584C999.595 59.912 998.747 59.576 997.659 59.576C996.539 59.576 995.635 59.928 994.947 60.632C994.275 61.32 993.939 62.232 993.939 63.368V71H992.139ZM1015.1 71V67.184H1014.81V62.672C1014.81 61.728 1014.57 61.008 1014.07 60.512C1013.57 60 1012.81 59.744 1011.77 59.744C1011.29 59.744 1010.8 59.752 1010.3 59.768C1009.82 59.784 1009.36 59.808 1008.91 59.84C1008.48 59.856 1008.09 59.88 1007.76 59.912V58.328C1008.11 58.296 1008.47 58.264 1008.84 58.232C1009.21 58.2 1009.58 58.184 1009.97 58.184C1010.37 58.168 1010.75 58.16 1011.12 58.16C1012.41 58.16 1013.45 58.32 1014.24 58.64C1015.04 58.96 1015.62 59.464 1015.99 60.152C1016.36 60.824 1016.54 61.72 1016.54 62.84V71H1015.1ZM1010.81 71.336C1009.91 71.336 1009.12 71.176 1008.43 70.856C1007.74 70.536 1007.21 70.072 1006.82 69.464C1006.45 68.856 1006.27 68.12 1006.27 67.256C1006.27 66.408 1006.46 65.688 1006.85 65.096C1007.25 64.504 1007.81 64.056 1008.55 63.752C1009.3 63.432 1010.21 63.272 1011.26 63.272H1014.98V64.64H1011.14C1010.13 64.64 1009.36 64.888 1008.81 65.384C1008.29 65.864 1008.02 66.496 1008.02 67.28C1008.02 68.08 1008.3 68.72 1008.86 69.2C1009.42 69.664 1010.18 69.896 1011.14 69.896C1011.73 69.896 1012.3 69.792 1012.85 69.584C1013.39 69.36 1013.85 68.992 1014.21 68.48C1014.58 67.952 1014.78 67.232 1014.81 66.32L1015.34 67.064C1015.28 68.008 1015.05 68.8 1014.67 69.44C1014.29 70.064 1013.77 70.536 1013.11 70.856C1012.45 71.176 1011.69 71.336 1010.81 71.336ZM1025.65 71.144C1024.77 71.144 1024.01 71.016 1023.37 70.76C1022.73 70.504 1022.23 70.072 1021.88 69.464C1021.53 68.84 1021.35 68.008 1021.35 66.968V54.296H1023.08V67.232C1023.08 67.968 1023.28 68.536 1023.68 68.936C1024.08 69.32 1024.65 69.512 1025.38 69.512H1027.66V71.144H1025.65ZM1019.07 59.672V58.304H1027.66V59.672H1019.07ZM1036.33 71.408C1035.24 71.408 1034.29 71.224 1033.49 70.856C1032.69 70.472 1032.04 69.968 1031.53 69.344C1031.01 68.704 1030.63 67.992 1030.37 67.208C1030.13 66.424 1030.01 65.616 1030.01 64.784V64.448C1030.01 63.632 1030.13 62.832 1030.37 62.048C1030.63 61.264 1031.01 60.56 1031.53 59.936C1032.04 59.312 1032.68 58.816 1033.45 58.448C1034.23 58.064 1035.14 57.872 1036.18 57.872C1037.51 57.872 1038.61 58.168 1039.49 58.76C1040.39 59.352 1041.06 60.112 1041.51 61.04C1041.96 61.952 1042.18 62.936 1042.18 63.992V64.928H1030.83V63.536H1040.93L1040.48 64.232C1040.48 63.288 1040.31 62.464 1039.97 61.76C1039.65 61.04 1039.17 60.48 1038.53 60.08C1037.91 59.664 1037.13 59.456 1036.18 59.456C1035.19 59.456 1034.37 59.688 1033.71 60.152C1033.05 60.616 1032.56 61.232 1032.22 62C1031.9 62.768 1031.74 63.64 1031.74 64.616C1031.74 65.576 1031.9 66.456 1032.22 67.256C1032.56 68.04 1033.06 68.664 1033.73 69.128C1034.42 69.592 1035.29 69.824 1036.33 69.824C1037.43 69.824 1038.33 69.576 1039.01 69.08C1039.7 68.568 1040.13 67.968 1040.29 67.28H1041.97C1041.81 68.128 1041.47 68.864 1040.96 69.488C1040.45 70.096 1039.8 70.568 1039.01 70.904C1038.23 71.24 1037.33 71.408 1036.33 71.408Z" fill="#0C071D"/>
</svg>
