<svg width="745" height="82" viewBox="0 0 745 82" fill="none" xmlns="http://www.w3.org/2000/svg">
<path d="M43.032 48.064C40.4187 48.064 38.1227 47.616 36.144 46.72C34.2027 45.824 32.5787 44.6293 31.272 43.136C30.0027 41.6053 29.032 39.9067 28.36 38.04C27.7253 36.1733 27.408 34.2693 27.408 32.328V31.264C27.408 29.248 27.7253 27.3067 28.36 25.44C29.032 23.536 30.0027 21.856 31.272 20.4C32.5787 18.9067 34.184 17.7307 36.088 16.872C37.992 15.976 40.1947 15.528 42.696 15.528C45.9813 15.528 48.7253 16.256 50.928 17.712C53.168 19.1307 54.848 21.016 55.968 23.368C57.088 25.6827 57.648 28.184 57.648 30.872V33.672H30.712V28.912H52.776L50.368 31.264C50.368 29.3227 50.088 27.6613 49.528 26.28C48.968 24.8987 48.1093 23.8347 46.952 23.088C45.832 22.3413 44.4133 21.968 42.696 21.968C40.9787 21.968 39.5227 22.36 38.328 23.144C37.1333 23.928 36.2187 25.0667 35.584 26.56C34.9867 28.016 34.688 29.7707 34.688 31.824C34.688 33.728 34.9867 35.4267 35.584 36.92C36.1813 38.376 37.096 39.5333 38.328 40.392C39.56 41.2133 41.128 41.624 43.032 41.624C44.936 41.624 46.4853 41.2507 47.68 40.504C48.8747 39.72 49.64 38.768 49.976 37.648H57.144C56.696 39.7387 55.8373 41.568 54.568 43.136C53.2987 44.704 51.6747 45.9173 49.696 46.776C47.7547 47.6347 45.5333 48.064 43.032 48.064Z" fill="#0C071D"/>
<path opacity="0.67" d="M29.328 75.8V58.304H30.768V63.752L30.336 63.8C30.4 62.52 30.672 61.44 31.152 60.56C31.648 59.68 32.312 59.016 33.144 58.568C33.992 58.104 34.936 57.872 35.976 57.872C36.904 57.872 37.744 58.056 38.496 58.424C39.264 58.776 39.912 59.264 40.44 59.888C40.984 60.496 41.392 61.2 41.664 62C41.952 62.784 42.096 63.608 42.096 64.472V64.808C42.096 65.672 41.952 66.504 41.664 67.304C41.376 68.088 40.96 68.792 40.416 69.416C39.888 70.024 39.24 70.512 38.472 70.88C37.72 71.232 36.872 71.408 35.928 71.408C34.92 71.408 33.992 71.184 33.144 70.736C32.312 70.272 31.632 69.592 31.104 68.696C30.592 67.8 30.312 66.696 30.264 65.384L31.128 67.184V75.8H29.328ZM35.688 69.824C36.648 69.824 37.472 69.6 38.16 69.152C38.848 68.688 39.376 68.064 39.744 67.28C40.112 66.48 40.296 65.6 40.296 64.64C40.296 63.648 40.104 62.768 39.72 62C39.352 61.216 38.824 60.6 38.136 60.152C37.448 59.688 36.632 59.456 35.688 59.456C34.824 59.456 34.04 59.648 33.336 60.032C32.632 60.416 32.072 60.96 31.656 61.664C31.256 62.352 31.056 63.168 31.056 64.112V65.288C31.056 66.184 31.256 66.976 31.656 67.664C32.072 68.336 32.632 68.864 33.336 69.248C34.04 69.632 34.824 69.824 35.688 69.824ZM45.7343 71V58.304H47.1743V63.608H47.0303C47.0303 61.752 47.4383 60.384 48.2543 59.504C49.0703 58.608 50.3503 58.16 52.0943 58.16H52.5023V59.792H51.7583C50.3823 59.792 49.3343 60.152 48.6143 60.872C47.8943 61.576 47.5343 62.616 47.5343 63.992V71H45.7343ZM56.0859 71V58.304H57.8619V71H56.0859ZM54.0459 59.744V58.304H57.8619V59.744H54.0459ZM56.4699 55.952C56.0379 55.952 55.7099 55.84 55.4859 55.616C55.2779 55.376 55.1739 55.08 55.1739 54.728C55.1739 54.376 55.2779 54.088 55.4859 53.864C55.7099 53.624 56.0379 53.504 56.4699 53.504C56.9019 53.504 57.2219 53.624 57.4299 53.864C57.6379 54.088 57.7419 54.376 57.7419 54.728C57.7419 55.08 57.6379 55.376 57.4299 55.616C57.2219 55.84 56.9019 55.952 56.4699 55.952ZM65.4178 71L60.9538 58.304H62.8018L67.2178 71H65.4178ZM65.8978 71V69.536H68.1778V71H65.8978ZM66.8818 71L70.7458 58.304H72.5218L68.5858 71H66.8818ZM74.4133 71V68.624H76.6693V71H74.4133ZM90.5704 71.36C88.9384 71.36 87.6824 71.008 86.8024 70.304C85.9224 69.584 85.4744 68.624 85.4584 67.424H87.1384C87.1704 68.032 87.4424 68.584 87.9544 69.08C88.4824 69.576 89.3544 69.824 90.5704 69.824C91.7064 69.824 92.5544 69.592 93.1144 69.128C93.6904 68.648 93.9784 68.072 93.9784 67.4C93.9784 66.776 93.7384 66.296 93.2584 65.96C92.7944 65.608 92.1144 65.384 91.2184 65.288L89.7784 65.144C88.6264 65.016 87.6904 64.664 86.9704 64.088C86.2664 63.496 85.9144 62.688 85.9144 61.664C85.9144 60.912 86.1064 60.256 86.4904 59.696C86.8744 59.136 87.4104 58.704 88.0984 58.4C88.8024 58.08 89.6264 57.92 90.5704 57.92C91.9304 57.92 93.0344 58.24 93.8824 58.88C94.7464 59.52 95.1864 60.432 95.2024 61.616H93.5224C93.5064 61.008 93.2504 60.496 92.7544 60.08C92.2584 59.664 91.5304 59.456 90.5704 59.456C89.5784 59.456 88.8344 59.672 88.3384 60.104C87.8584 60.536 87.6184 61.064 87.6184 61.688C87.6184 62.216 87.8024 62.656 88.1704 63.008C88.5384 63.344 89.1144 63.552 89.8984 63.632L91.3384 63.776C92.6184 63.92 93.6584 64.288 94.4584 64.88C95.2744 65.472 95.6824 66.32 95.6824 67.424C95.6824 68.176 95.4664 68.856 95.0344 69.464C94.6184 70.056 94.0264 70.52 93.2584 70.856C92.4904 71.192 91.5944 71.36 90.5704 71.36ZM99.9375 71V58.304H101.714V71H99.9375ZM97.8975 59.744V58.304H101.714V59.744H97.8975ZM100.322 55.952C99.8895 55.952 99.5615 55.84 99.3375 55.616C99.1295 55.376 99.0255 55.08 99.0255 54.728C99.0255 54.376 99.1295 54.088 99.3375 53.864C99.5615 53.624 99.8895 53.504 100.322 53.504C100.754 53.504 101.074 53.624 101.282 53.864C101.49 54.088 101.594 54.376 101.594 54.728C101.594 55.08 101.49 55.376 101.282 55.616C101.074 55.84 100.754 55.952 100.322 55.952ZM111.285 75.968C110.693 75.968 110.093 75.936 109.485 75.872C108.893 75.824 108.325 75.76 107.781 75.68V74.144C108.357 74.224 108.957 74.288 109.581 74.336C110.221 74.4 110.821 74.432 111.381 74.432C112.597 74.432 113.565 74.272 114.285 73.952C115.005 73.632 115.517 73.12 115.821 72.416C116.141 71.728 116.301 70.816 116.301 69.68V67.136L116.973 65.36C116.941 66.576 116.685 67.624 116.205 68.504C115.725 69.368 115.077 70.032 114.261 70.496C113.445 70.96 112.517 71.192 111.477 71.192C110.565 71.192 109.733 71.016 108.981 70.664C108.245 70.312 107.613 69.832 107.085 69.224C106.557 68.6 106.149 67.896 105.861 67.112C105.573 66.328 105.429 65.504 105.429 64.64V64.304C105.429 63.456 105.573 62.648 105.861 61.88C106.149 61.096 106.557 60.408 107.085 59.816C107.613 59.208 108.253 58.736 109.005 58.4C109.773 58.048 110.621 57.872 111.549 57.872C112.669 57.872 113.645 58.12 114.477 58.616C115.309 59.112 115.957 59.8 116.421 60.68C116.901 61.56 117.157 62.592 117.189 63.776L116.613 63.464V58.304H118.029V69.608C118.029 71.128 117.805 72.352 117.357 73.28C116.909 74.208 116.189 74.888 115.197 75.32C114.221 75.752 112.917 75.968 111.285 75.968ZM111.789 69.536C112.653 69.536 113.421 69.352 114.093 68.984C114.781 68.6 115.325 68.064 115.725 67.376C116.125 66.688 116.325 65.888 116.325 64.976V63.8C116.325 62.92 116.117 62.152 115.701 61.496C115.301 60.84 114.765 60.328 114.093 59.96C113.421 59.592 112.653 59.408 111.789 59.408C110.861 59.408 110.053 59.632 109.365 60.08C108.677 60.528 108.149 61.136 107.781 61.904C107.413 62.656 107.229 63.512 107.229 64.472C107.229 65.448 107.413 66.32 107.781 67.088C108.165 67.856 108.701 68.456 109.389 68.888C110.077 69.32 110.877 69.536 111.789 69.536ZM131.179 71L126.067 65.048H124.003L130.027 58.304H131.947L126.547 64.328L126.667 63.344L133.291 71H131.179ZM122.539 71V53.48H124.339V71H122.539ZM140.757 71.408C139.669 71.408 138.725 71.224 137.925 70.856C137.125 70.472 136.469 69.968 135.957 69.344C135.445 68.704 135.061 67.992 134.805 67.208C134.565 66.424 134.445 65.616 134.445 64.784V64.448C134.445 63.632 134.565 62.832 134.805 62.048C135.061 61.264 135.445 60.56 135.957 59.936C136.469 59.312 137.109 58.816 137.877 58.448C138.661 58.064 139.573 57.872 140.613 57.872C141.941 57.872 143.045 58.168 143.925 58.76C144.821 59.352 145.493 60.112 145.941 61.04C146.389 61.952 146.613 62.936 146.613 63.992V64.928H135.261V63.536H145.365L144.909 64.232C144.909 63.288 144.741 62.464 144.405 61.76C144.085 61.04 143.605 60.48 142.965 60.08C142.341 59.664 141.557 59.456 140.613 59.456C139.621 59.456 138.797 59.688 138.141 60.152C137.485 60.616 136.989 61.232 136.653 62C136.333 62.768 136.173 63.64 136.173 64.616C136.173 65.576 136.333 66.456 136.653 67.256C136.989 68.04 137.493 68.664 138.165 69.128C138.853 69.592 139.717 69.824 140.757 69.824C141.861 69.824 142.757 69.576 143.445 69.08C144.133 68.568 144.557 67.968 144.717 67.28H146.397C146.237 68.128 145.901 68.864 145.389 69.488C144.877 70.096 144.229 70.568 143.445 70.904C142.661 71.24 141.765 71.408 140.757 71.408ZM148.856 75.944V74.336H150.488C151.048 74.336 151.528 74.264 151.928 74.12C152.328 73.992 152.664 73.76 152.936 73.424C153.208 73.088 153.44 72.624 153.632 72.032L157.904 58.304H159.656L155.192 72.536C154.936 73.352 154.584 74.008 154.136 74.504C153.688 75.016 153.152 75.384 152.528 75.608C151.904 75.832 151.192 75.944 150.392 75.944H148.856ZM152.984 70.688V69.176H155.264V70.688H152.984ZM152.768 70.688L148.16 58.304H150.008L154.448 70.688H152.768Z" fill="#0C071D"/>
<path d="M393.268 46.7678C394.244 45.7915 394.244 44.2085 393.268 43.2322L377.358 27.3223C376.382 26.346 374.799 26.346 373.822 27.3223C372.846 28.2986 372.846 29.8816 373.822 30.8579L387.964 45L373.822 59.1421C372.846 60.1184 372.846 61.7014 373.822 62.6777C374.799 63.654 376.382 63.654 377.358 62.6777L393.268 46.7678ZM243.5 47.5H391.5V42.5H243.5V47.5Z" fill="#F79327"/>
<path d="M486.032 48.064C483.419 48.064 481.123 47.616 479.144 46.72C477.203 45.824 475.579 44.6293 474.272 43.136C473.003 41.6053 472.032 39.9067 471.36 38.04C470.725 36.1733 470.408 34.2693 470.408 32.328V31.264C470.408 29.248 470.725 27.3067 471.36 25.44C472.032 23.536 473.003 21.856 474.272 20.4C475.579 18.9067 477.184 17.7307 479.088 16.872C480.992 15.976 483.195 15.528 485.696 15.528C488.981 15.528 491.725 16.256 493.928 17.712C496.168 19.1307 497.848 21.016 498.968 23.368C500.088 25.6827 500.648 28.184 500.648 30.872V33.672H473.712V28.912H495.776L493.368 31.264C493.368 29.3227 493.088 27.6613 492.528 26.28C491.968 24.8987 491.109 23.8347 489.952 23.088C488.832 22.3413 487.413 21.968 485.696 21.968C483.979 21.968 482.523 22.36 481.328 23.144C480.133 23.928 479.219 25.0667 478.584 26.56C477.987 28.016 477.688 29.7707 477.688 31.824C477.688 33.728 477.987 35.4267 478.584 36.92C479.181 38.376 480.096 39.5333 481.328 40.392C482.56 41.2133 484.128 41.624 486.032 41.624C487.936 41.624 489.485 41.2507 490.68 40.504C491.875 39.72 492.64 38.768 492.976 37.648H500.144C499.696 39.7387 498.837 41.568 497.568 43.136C496.299 44.704 494.675 45.9173 492.696 46.776C490.755 47.6347 488.533 48.064 486.032 48.064ZM526.807 48.064C523.297 48.064 520.199 47.4853 517.511 46.328C514.86 45.1333 512.62 43.5467 510.791 41.568C508.999 39.552 507.636 37.2933 506.703 34.792C505.807 32.2533 505.359 29.6213 505.359 26.896V25.664C505.359 23.088 505.807 20.568 506.703 18.104C507.599 15.64 508.905 13.4187 510.623 11.44C512.377 9.46133 514.524 7.89333 517.063 6.736C519.639 5.54133 522.588 4.944 525.911 4.944C529.495 4.944 532.668 5.616 535.431 6.96C538.193 8.26667 540.415 10.1147 542.095 12.504C543.775 14.856 544.764 17.6 545.063 20.736H537.055C536.793 18.9813 536.14 17.488 535.095 16.256C534.049 14.9867 532.724 14.016 531.119 13.344C529.551 12.672 527.815 12.336 525.911 12.336C524.007 12.336 522.271 12.672 520.703 13.344C519.172 14.016 517.865 14.968 516.783 16.2C515.7 17.432 514.86 18.9067 514.263 20.624C513.703 22.3413 513.423 24.2453 513.423 26.336C513.423 28.6133 513.74 30.648 514.375 32.44C515.009 34.232 515.905 35.7627 517.063 37.032C518.22 38.264 519.62 39.216 521.263 39.888C522.905 40.5227 524.753 40.84 526.807 40.84C529.532 40.84 531.921 40.28 533.975 39.16C536.028 38.0027 537.521 36.5093 538.455 34.68L537.055 41.12V30.592H544.391V39.664C542.636 42.3147 540.247 44.3867 537.223 45.88C534.199 47.336 530.727 48.064 526.807 48.064ZM525.519 32.16V26.224H547.807V32.16H525.519Z" fill="#0C071D"/>
<path opacity="0.67" d="M474.328 75.8V58.304H475.768V63.752L475.336 63.8C475.4 62.52 475.672 61.44 476.152 60.56C476.648 59.68 477.312 59.016 478.144 58.568C478.992 58.104 479.936 57.872 480.976 57.872C481.904 57.872 482.744 58.056 483.496 58.424C484.264 58.776 484.912 59.264 485.44 59.888C485.984 60.496 486.392 61.2 486.664 62C486.952 62.784 487.096 63.608 487.096 64.472V64.808C487.096 65.672 486.952 66.504 486.664 67.304C486.376 68.088 485.96 68.792 485.416 69.416C484.888 70.024 484.24 70.512 483.472 70.88C482.72 71.232 481.872 71.408 480.928 71.408C479.92 71.408 478.992 71.184 478.144 70.736C477.312 70.272 476.632 69.592 476.104 68.696C475.592 67.8 475.312 66.696 475.264 65.384L476.128 67.184V75.8H474.328ZM480.688 69.824C481.648 69.824 482.472 69.6 483.16 69.152C483.848 68.688 484.376 68.064 484.744 67.28C485.112 66.48 485.296 65.6 485.296 64.64C485.296 63.648 485.104 62.768 484.72 62C484.352 61.216 483.824 60.6 483.136 60.152C482.448 59.688 481.632 59.456 480.688 59.456C479.824 59.456 479.04 59.648 478.336 60.032C477.632 60.416 477.072 60.96 476.656 61.664C476.256 62.352 476.056 63.168 476.056 64.112V65.288C476.056 66.184 476.256 66.976 476.656 67.664C477.072 68.336 477.632 68.864 478.336 69.248C479.04 69.632 479.824 69.824 480.688 69.824ZM495.126 71.36C493.606 71.36 492.446 70.872 491.646 69.896C490.846 68.904 490.446 67.528 490.446 65.768V58.28H492.222V66.128C492.222 67.232 492.51 68.112 493.086 68.768C493.678 69.408 494.494 69.728 495.534 69.728C496.622 69.728 497.486 69.384 498.126 68.696C498.782 68.008 499.11 67.088 499.11 65.936V58.28H500.91V71H499.47V65.696H499.758C499.758 66.88 499.59 67.896 499.254 68.744C498.918 69.576 498.414 70.224 497.742 70.688C497.07 71.136 496.222 71.36 495.198 71.36H495.126ZM512.169 71.408C511.049 71.408 510.065 71.16 509.217 70.664C508.385 70.168 507.729 69.472 507.249 68.576C506.785 67.68 506.537 66.648 506.505 65.48H507.057V71H505.617V53.48H507.417V62.24L506.721 63.848C506.753 62.568 507.009 61.488 507.489 60.608C507.985 59.712 508.641 59.032 509.457 58.568C510.289 58.104 511.233 57.872 512.289 57.872C513.217 57.872 514.057 58.048 514.809 58.4C515.561 58.752 516.201 59.232 516.729 59.84C517.273 60.448 517.681 61.152 517.953 61.952C518.241 62.736 518.385 63.568 518.385 64.448V64.784C518.385 65.648 518.241 66.48 517.953 67.28C517.665 68.064 517.249 68.768 516.705 69.392C516.177 70.016 515.529 70.512 514.761 70.88C513.993 71.232 513.129 71.408 512.169 71.408ZM511.977 69.824C512.937 69.824 513.761 69.592 514.449 69.128C515.137 68.664 515.665 68.04 516.033 67.256C516.401 66.472 516.585 65.592 516.585 64.616C516.585 63.624 516.393 62.744 516.009 61.976C515.641 61.192 515.105 60.576 514.401 60.128C513.713 59.68 512.905 59.456 511.977 59.456C511.113 59.456 510.329 59.648 509.625 60.032C508.921 60.416 508.361 60.96 507.945 61.664C507.545 62.352 507.345 63.168 507.345 64.112V65.288C507.345 66.184 507.545 66.976 507.945 67.664C508.361 68.336 508.921 68.864 509.625 69.248C510.329 69.632 511.113 69.824 511.977 69.824ZM521.288 71V68.624H523.544V71H521.288ZM537.445 71.36C535.813 71.36 534.557 71.008 533.677 70.304C532.797 69.584 532.349 68.624 532.333 67.424H534.013C534.045 68.032 534.317 68.584 534.829 69.08C535.357 69.576 536.229 69.824 537.445 69.824C538.581 69.824 539.429 69.592 539.989 69.128C540.565 68.648 540.853 68.072 540.853 67.4C540.853 66.776 540.613 66.296 540.133 65.96C539.669 65.608 538.989 65.384 538.093 65.288L536.653 65.144C535.501 65.016 534.565 64.664 533.845 64.088C533.141 63.496 532.789 62.688 532.789 61.664C532.789 60.912 532.981 60.256 533.365 59.696C533.749 59.136 534.285 58.704 534.973 58.4C535.677 58.08 536.501 57.92 537.445 57.92C538.805 57.92 539.909 58.24 540.757 58.88C541.621 59.52 542.061 60.432 542.077 61.616H540.397C540.381 61.008 540.125 60.496 539.629 60.08C539.133 59.664 538.405 59.456 537.445 59.456C536.453 59.456 535.709 59.672 535.213 60.104C534.733 60.536 534.493 61.064 534.493 61.688C534.493 62.216 534.677 62.656 535.045 63.008C535.413 63.344 535.989 63.552 536.773 63.632L538.213 63.776C539.493 63.92 540.533 64.288 541.333 64.88C542.149 65.472 542.557 66.32 542.557 67.424C542.557 68.176 542.341 68.856 541.909 69.464C541.493 70.056 540.901 70.52 540.133 70.856C539.365 71.192 538.469 71.36 537.445 71.36ZM546.812 71V58.304H548.589V71H546.812ZM544.773 59.744V58.304H548.589V59.744H544.773ZM547.197 55.952C546.765 55.952 546.437 55.84 546.213 55.616C546.005 55.376 545.901 55.08 545.901 54.728C545.901 54.376 546.005 54.088 546.213 53.864C546.437 53.624 546.765 53.504 547.197 53.504C547.629 53.504 547.949 53.624 548.157 53.864C548.365 54.088 548.469 54.376 548.469 54.728C548.469 55.08 548.365 55.376 548.157 55.616C547.949 55.84 547.629 55.952 547.197 55.952ZM558.16 75.968C557.568 75.968 556.968 75.936 556.36 75.872C555.768 75.824 555.2 75.76 554.656 75.68V74.144C555.232 74.224 555.832 74.288 556.456 74.336C557.096 74.4 557.696 74.432 558.256 74.432C559.472 74.432 560.44 74.272 561.16 73.952C561.88 73.632 562.392 73.12 562.696 72.416C563.016 71.728 563.176 70.816 563.176 69.68V67.136L563.848 65.36C563.816 66.576 563.56 67.624 563.08 68.504C562.6 69.368 561.952 70.032 561.136 70.496C560.32 70.96 559.392 71.192 558.352 71.192C557.44 71.192 556.608 71.016 555.856 70.664C555.12 70.312 554.488 69.832 553.96 69.224C553.432 68.6 553.024 67.896 552.736 67.112C552.448 66.328 552.304 65.504 552.304 64.64V64.304C552.304 63.456 552.448 62.648 552.736 61.88C553.024 61.096 553.432 60.408 553.96 59.816C554.488 59.208 555.128 58.736 555.88 58.4C556.648 58.048 557.496 57.872 558.424 57.872C559.544 57.872 560.52 58.12 561.352 58.616C562.184 59.112 562.832 59.8 563.296 60.68C563.776 61.56 564.032 62.592 564.064 63.776L563.488 63.464V58.304H564.904V69.608C564.904 71.128 564.68 72.352 564.232 73.28C563.784 74.208 563.064 74.888 562.072 75.32C561.096 75.752 559.792 75.968 558.16 75.968ZM558.664 69.536C559.528 69.536 560.296 69.352 560.968 68.984C561.656 68.6 562.2 68.064 562.6 67.376C563 66.688 563.2 65.888 563.2 64.976V63.8C563.2 62.92 562.992 62.152 562.576 61.496C562.176 60.84 561.64 60.328 560.968 59.96C560.296 59.592 559.528 59.408 558.664 59.408C557.736 59.408 556.928 59.632 556.24 60.08C555.552 60.528 555.024 61.136 554.656 61.904C554.288 62.656 554.104 63.512 554.104 64.472C554.104 65.448 554.288 66.32 554.656 67.088C555.04 67.856 555.576 68.456 556.264 68.888C556.952 69.32 557.752 69.536 558.664 69.536ZM578.054 71L572.942 65.048H570.878L576.902 58.304H578.822L573.422 64.328L573.542 63.344L580.166 71H578.054ZM569.414 71V53.48H571.214V71H569.414ZM587.632 71.408C586.544 71.408 585.6 71.224 584.8 70.856C584 70.472 583.344 69.968 582.832 69.344C582.32 68.704 581.936 67.992 581.68 67.208C581.44 66.424 581.32 65.616 581.32 64.784V64.448C581.32 63.632 581.44 62.832 581.68 62.048C581.936 61.264 582.32 60.56 582.832 59.936C583.344 59.312 583.984 58.816 584.752 58.448C585.536 58.064 586.448 57.872 587.488 57.872C588.816 57.872 589.92 58.168 590.8 58.76C591.696 59.352 592.368 60.112 592.816 61.04C593.264 61.952 593.488 62.936 593.488 63.992V64.928H582.136V63.536H592.24L591.784 64.232C591.784 63.288 591.616 62.464 591.28 61.76C590.96 61.04 590.48 60.48 589.84 60.08C589.216 59.664 588.432 59.456 587.488 59.456C586.496 59.456 585.672 59.688 585.016 60.152C584.36 60.616 583.864 61.232 583.528 62C583.208 62.768 583.048 63.64 583.048 64.616C583.048 65.576 583.208 66.456 583.528 67.256C583.864 68.04 584.368 68.664 585.04 69.128C585.728 69.592 586.592 69.824 587.632 69.824C588.736 69.824 589.632 69.576 590.32 69.08C591.008 68.568 591.432 67.968 591.592 67.28H593.272C593.112 68.128 592.776 68.864 592.264 69.488C591.752 70.096 591.104 70.568 590.32 70.904C589.536 71.24 588.64 71.408 587.632 71.408ZM595.731 75.944V74.336H597.363C597.923 74.336 598.403 74.264 598.803 74.12C599.203 73.992 599.539 73.76 599.811 73.424C600.083 73.088 600.315 72.624 600.507 72.032L604.779 58.304H606.531L602.067 72.536C601.811 73.352 601.459 74.008 601.011 74.504C600.563 75.016 600.027 75.384 599.403 75.608C598.779 75.832 598.067 75.944 597.267 75.944H595.731ZM599.859 70.688V69.176H602.139V70.688H599.859ZM599.643 70.688L595.035 58.304H596.883L601.323 70.688H599.643Z" fill="#0C071D"/>
</svg>
