<svg width="253" height="123" viewBox="0 0 253 123" fill="none" xmlns="http://www.w3.org/2000/svg">
<rect width="253" height="123" rx="10" fill="#F4F4F4"/>
<mask id="path-2-inside-1_6353_5615" fill="white">
<path d="M11 46.0405C11 45.2865 11.6112 44.6754 12.3651 44.6754H64.24C64.9939 44.6754 65.6051 45.2865 65.6051 46.0405V91.0897C65.6051 91.8437 64.9939 92.4548 64.24 92.4548H12.3651C11.6112 92.4548 11 91.8437 11 91.0897V46.0405Z"/>
</mask>
<path d="M11 46.0405C11 45.2865 11.6112 44.6754 12.3651 44.6754H64.24C64.9939 44.6754 65.6051 45.2865 65.6051 46.0405V91.0897C65.6051 91.8437 64.9939 92.4548 64.24 92.4548H12.3651C11.6112 92.4548 11 91.8437 11 91.0897V46.0405Z" fill="white"/>
<path d="M11 44.6754H65.6051H11ZM67.6528 91.0897C67.6528 92.9746 66.1248 94.5025 64.24 94.5025H12.3651C10.4803 94.5025 8.95231 92.9746 8.95231 91.0897L13.0477 90.4071H63.5574L67.6528 91.0897ZM12.3651 94.5025C10.4803 94.5025 8.95231 92.9746 8.95231 91.0897V48.0882C8.95231 46.2033 10.4803 44.6754 12.3651 44.6754H13.0477C13.0477 44.6754 13.0477 45.2865 13.0477 46.0405V90.4071L12.3651 94.5025ZM64.24 44.6754C66.1248 44.6754 67.6528 46.2033 67.6528 48.0882V91.0897C67.6528 92.9746 66.1248 94.5025 64.24 94.5025L63.5574 90.4071V46.0405C63.5574 45.2865 63.5574 44.6754 63.5574 44.6754H64.24Z" fill="url(#paint0_linear_6353_5615)" fill-opacity="0.3" mask="url(#path-2-inside-1_6353_5615)"/>
<rect x="16.1191" y="79.1456" width="44.3667" height="8.19077" rx="1.36513" fill="#1D267D"/>
<path d="M27.9748 83.6086V83.2168H29.7522V83.6086H27.9748ZM31.0418 84.741V81.4824L31.252 81.6449H30.2677V81.2531H31.5004V84.741H31.0418ZM33.8486 85.6966V81.2531H34.2595V85.6966H33.8486ZM37.8122 84.827C37.551 84.827 37.3281 84.7824 37.1433 84.6932C36.9618 84.6008 36.8136 84.4766 36.699 84.3205C36.5875 84.1644 36.5063 83.9845 36.4553 83.7806C36.4043 83.5736 36.3788 83.3554 36.3788 83.126V82.868C36.3788 82.5463 36.4282 82.2564 36.527 81.9984C36.6289 81.7404 36.785 81.5366 36.9952 81.3868C37.2086 81.234 37.481 81.1575 37.8122 81.1575C38.1435 81.1575 38.4142 81.234 38.6245 81.3868C38.8347 81.5366 38.9892 81.7404 39.0879 81.9984C39.1899 82.2564 39.2408 82.5463 39.2408 82.868V83.126C39.2408 83.3554 39.2154 83.5736 39.1644 83.7806C39.1134 83.9845 39.0306 84.1644 38.9159 84.3205C38.8044 84.4766 38.6579 84.6008 38.4764 84.6932C38.2948 84.7824 38.0734 84.827 37.8122 84.827ZM37.8122 84.4065C38.1435 84.4065 38.3856 84.295 38.5385 84.0721C38.6946 83.8459 38.7726 83.4891 38.7726 83.0018C38.7726 82.4921 38.693 82.1274 38.5337 81.9076C38.3776 81.6879 38.1371 81.578 37.8122 81.578C37.4841 81.578 37.2405 81.6879 37.0812 81.9076C36.9251 82.1274 36.8471 82.489 36.8471 82.9922C36.8471 83.4828 36.9251 83.8411 37.0812 84.0673C37.2373 84.2934 37.481 84.4065 37.8122 84.4065ZM39.7194 84.741L40.632 83.3984L40.6177 83.4939L39.7624 82.1895H40.2689L40.8852 83.1499H40.9521L41.535 82.1895H42.0081L41.2006 83.4605L41.2149 83.3745L42.1705 84.741H41.664L40.9473 83.7042H40.8805L40.1924 84.741H39.7194ZM42.7657 84.741V82.0319C42.7657 81.7484 42.8405 81.5397 42.9903 81.406C43.14 81.2722 43.3597 81.2053 43.6496 81.2053H43.9076V81.5875H43.5732C43.4553 81.5875 43.3645 81.621 43.3008 81.6879C43.2371 81.7516 43.2053 81.8408 43.2053 81.9554V84.741H42.7657ZM44.4045 84.741V82.0605C44.4045 81.777 44.4794 81.5684 44.6291 81.4346C44.7788 81.3008 44.9986 81.234 45.2884 81.234H45.6038V81.6162H45.212C45.0941 81.6162 45.0034 81.6496 44.9397 81.7165C44.876 81.7802 44.8441 81.8694 44.8441 81.9841V84.741H44.4045ZM42.4121 82.5622V82.2182H45.6516V82.5622H42.4121ZM46.0039 84.741V82.0319C46.0039 81.7484 46.0787 81.5397 46.2284 81.406C46.3781 81.2722 46.5979 81.2053 46.8878 81.2053H47.1458V81.5875H46.8113C46.6935 81.5875 46.6027 81.621 46.539 81.6879C46.4753 81.7516 46.4434 81.8408 46.4434 81.9554V84.741H46.0039ZM47.6427 84.741V82.0605C47.6427 81.777 47.7176 81.5684 47.8673 81.4346C48.017 81.3008 48.2368 81.234 48.5266 81.234H48.842V81.6162H48.4502C48.3323 81.6162 48.2415 81.6496 48.1778 81.7165C48.1141 81.7802 48.0823 81.8694 48.0823 81.9841V84.741H47.6427ZM45.6503 82.5622V82.2182H48.8898V82.5622H45.6503Z" fill="white"/>
<rect x="72.4302" y="65.0339" width="44.3667" height="8.19077" rx="1.36513" fill="#1D267D"/>
<path d="M84.2858 69.497V69.1052H86.0632V69.497H84.2858ZM87.3528 70.6293V67.3708L87.563 67.5332H86.5788V67.1414H87.8115V70.6293H87.3528ZM90.1597 71.5849V67.1414H90.5706V71.5849H90.1597ZM94.1233 70.7153C93.8621 70.7153 93.6391 70.6707 93.4544 70.5816C93.2728 70.4892 93.1247 70.365 93.01 70.2089C92.8985 70.0528 92.8173 69.8728 92.7663 69.669C92.7154 69.4619 92.6899 69.2437 92.6899 69.0144V68.7564C92.6899 68.4347 92.7393 68.1448 92.838 67.8868C92.9399 67.6288 93.096 67.4249 93.3062 67.2752C93.5196 67.1223 93.792 67.0459 94.1233 67.0459C94.4545 67.0459 94.7253 67.1223 94.9355 67.2752C95.1457 67.4249 95.3002 67.6288 95.399 67.8868C95.5009 68.1448 95.5519 68.4347 95.5519 68.7564V69.0144C95.5519 69.2437 95.5264 69.4619 95.4754 69.669C95.4245 69.8728 95.3416 70.0528 95.227 70.2089C95.1155 70.365 94.969 70.4892 94.7874 70.5816C94.6058 70.6707 94.3845 70.7153 94.1233 70.7153ZM94.1233 70.2949C94.4545 70.2949 94.6966 70.1834 94.8495 69.9604C95.0056 69.7343 95.0836 69.3775 95.0836 68.8902C95.0836 68.3805 95.004 68.0158 94.8447 67.796C94.6887 67.5762 94.4482 67.4663 94.1233 67.4663C93.7952 67.4663 93.5515 67.5762 93.3922 67.796C93.2362 68.0158 93.1581 68.3773 93.1581 68.8806C93.1581 69.3711 93.2362 69.7295 93.3922 69.9556C93.5483 70.1818 93.792 70.2949 94.1233 70.2949ZM96.0304 70.6293L96.943 69.2867L96.9287 69.3823L96.0735 68.0779H96.5799L97.1963 69.0383H97.2632L97.8461 68.0779H98.3191L97.5116 69.3488L97.5259 69.2628L98.4815 70.6293H97.9751L97.2584 69.5925H97.1915L96.5035 70.6293H96.0304ZM99.0767 70.6293V67.9202C99.0767 67.6367 99.1516 67.4281 99.3013 67.2943C99.451 67.1605 99.6708 67.0937 99.9606 67.0937H100.219V67.4759H99.8842C99.7663 67.4759 99.6756 67.5093 99.6119 67.5762C99.5482 67.6399 99.5163 67.7291 99.5163 67.8438V70.6293H99.0767ZM100.716 70.6293V67.9489C100.716 67.6654 100.79 67.4568 100.94 67.323C101.09 67.1892 101.31 67.1223 101.599 67.1223H101.915V67.5046H101.523C101.405 67.5046 101.314 67.538 101.251 67.6049C101.187 67.6686 101.155 67.7578 101.155 67.8725V70.6293H100.716ZM98.7232 68.4506V68.1066H101.963V68.4506H98.7232ZM102.315 70.6293V67.9202C102.315 67.6367 102.39 67.4281 102.539 67.2943C102.689 67.1605 102.909 67.0937 103.199 67.0937H103.457V67.4759H103.122C103.005 67.4759 102.914 67.5093 102.85 67.5762C102.786 67.6399 102.754 67.7291 102.754 67.8438V70.6293H102.315ZM103.954 70.6293V67.9489C103.954 67.6654 104.029 67.4568 104.178 67.323C104.328 67.1892 104.548 67.1223 104.838 67.1223H105.153V67.5046H104.761C104.643 67.5046 104.553 67.538 104.489 67.6049C104.425 67.6686 104.393 67.7578 104.393 67.8725V70.6293H103.954ZM101.961 68.4506V68.1066H105.201V68.4506H101.961Z" fill="white"/>
<rect x="72.4302" y="74.5898" width="44.3667" height="8.19077" rx="1.36513" fill="#0C134F"/>
<path d="M87.4611 80.2712C87.2382 80.2712 87.0423 80.233 86.8734 80.1566C86.7046 80.0801 86.5613 79.9798 86.4434 79.8556C86.3287 79.7282 86.2412 79.5864 86.1806 79.4303C86.1233 79.2742 86.0946 79.115 86.0946 78.9525V78.8665C86.0946 78.7041 86.1249 78.5448 86.1854 78.3887C86.2459 78.2295 86.3351 78.0877 86.453 77.9635C86.5708 77.8361 86.7142 77.7357 86.883 77.6625C87.0518 77.586 87.2445 77.5478 87.4611 77.5478C87.6777 77.5478 87.8704 77.586 88.0393 77.6625C88.2081 77.7357 88.3514 77.8361 88.4693 77.9635C88.5871 78.0877 88.6763 78.2295 88.7368 78.3887C88.7974 78.5448 88.8276 78.7041 88.8276 78.8665V78.9525C88.8276 79.115 88.7974 79.2742 88.7368 79.4303C88.6795 79.5864 88.5919 79.7282 88.474 79.8556C88.3594 79.9798 88.2176 80.0801 88.0488 80.1566C87.88 80.233 87.6841 80.2712 87.4611 80.2712ZM87.4611 79.8603C87.6522 79.8603 87.8147 79.8189 87.9485 79.7361C88.0854 79.6501 88.189 79.5354 88.259 79.3921C88.3323 79.2488 88.3689 79.0879 88.3689 78.9095C88.3689 78.728 88.3323 78.5655 88.259 78.4222C88.1858 78.2788 88.0807 78.1658 87.9437 78.0829C87.8099 78.0001 87.6491 77.9587 87.4611 77.9587C87.2764 77.9587 87.1155 78.0001 86.9786 78.0829C86.8416 78.1658 86.7365 78.2788 86.6632 78.4222C86.5899 78.5655 86.5533 78.728 86.5533 78.9095C86.5533 79.0879 86.5884 79.2488 86.6584 79.3921C86.7317 79.5354 86.8352 79.6501 86.969 79.7361C87.106 79.8189 87.27 79.8603 87.4611 79.8603ZM89.5146 81.1408V77.6338H89.8777V78.7375L89.7917 78.728C89.8076 78.454 89.865 78.2311 89.9637 78.0591C90.0657 77.8839 90.1978 77.7549 90.3603 77.672C90.5227 77.5892 90.6995 77.5478 90.8906 77.5478C91.0754 77.5478 91.2426 77.5829 91.3923 77.6529C91.5452 77.723 91.6758 77.8186 91.7841 77.9396C91.8924 78.0606 91.9752 78.2008 92.0326 78.3601C92.0899 78.5193 92.1186 78.6882 92.1186 78.8665V78.9525C92.1186 79.1309 92.0883 79.2997 92.0278 79.459C91.9673 79.6183 91.8813 79.7584 91.7698 79.8795C91.6615 80.0005 91.5309 80.0961 91.378 80.1661C91.2283 80.2362 91.0627 80.2712 90.8811 80.2712C90.6995 80.2712 90.5259 80.2314 90.3603 80.1518C90.1947 80.0722 90.0577 79.9432 89.9494 79.7648C89.8411 79.5864 89.779 79.3523 89.763 79.0624L89.9733 79.4447V81.1408H89.5146ZM90.8094 79.8699C90.9814 79.8699 91.1311 79.8301 91.2585 79.7504C91.386 79.6676 91.4847 79.5546 91.5548 79.4112C91.6249 79.2647 91.6599 79.0975 91.6599 78.9095C91.6599 78.7184 91.6249 78.5512 91.5548 78.4078C91.4847 78.2645 91.386 78.153 91.2585 78.0734C91.1311 77.9906 90.9814 77.9492 90.8094 77.9492C90.6565 77.9492 90.5148 77.9842 90.3842 78.0543C90.2536 78.1212 90.1485 78.2199 90.0688 78.3505C89.9924 78.4779 89.9542 78.6324 89.9542 78.814V79.0338C89.9542 79.2089 89.994 79.3587 90.0736 79.4829C90.1532 79.6071 90.2584 79.7027 90.389 79.7696C90.5196 79.8365 90.6597 79.8699 90.8094 79.8699ZM92.6845 79.0529V78.6611H94.4619V79.0529H92.6845ZM96.7597 80.1852V79.4208H96.6832V78.5368C96.6832 78.3617 96.637 78.2295 96.5447 78.1403C96.4555 78.0511 96.3233 78.0065 96.1481 78.0065C96.0494 78.0065 95.9474 78.0081 95.8423 78.0113C95.7372 78.0145 95.6369 78.0176 95.5413 78.0208C95.4457 78.024 95.3629 78.0288 95.2929 78.0352V77.6338C95.3629 77.6274 95.4362 77.6227 95.5126 77.6195C95.5923 77.6131 95.6735 77.6099 95.7563 77.6099C95.8391 77.6067 95.9188 77.6051 95.9952 77.6051C96.2564 77.6051 96.4698 77.637 96.6355 77.7007C96.8011 77.7612 96.9237 77.8616 97.0034 78.0017C97.083 78.1419 97.1228 78.3314 97.1228 78.5703V80.1852H96.7597ZM95.9235 80.2521C95.7324 80.2521 95.5668 80.2203 95.4266 80.1566C95.2897 80.0897 95.183 79.9941 95.1065 79.8699C95.0333 79.7457 94.9966 79.596 94.9966 79.4208C94.9966 79.2392 95.0364 79.0879 95.1161 78.9669C95.1989 78.8458 95.3183 78.755 95.4744 78.6945C95.6305 78.6308 95.8184 78.599 96.0382 78.599H96.731V78.943H96.0191C95.8344 78.943 95.6926 78.9876 95.5939 79.0768C95.4951 79.1659 95.4457 79.2806 95.4457 79.4208C95.4457 79.5609 95.4951 79.674 95.5939 79.76C95.6926 79.846 95.8344 79.889 96.0191 79.889C96.1274 79.889 96.2309 79.8699 96.3297 79.8317C96.4284 79.7903 96.5096 79.7234 96.5733 79.631C96.6402 79.5354 96.6769 79.4048 96.6832 79.2392L96.8075 79.4208C96.7915 79.6023 96.7469 79.7552 96.6737 79.8795C96.6036 80.0005 96.5049 80.0929 96.3774 80.1566C96.2532 80.2203 96.1019 80.2521 95.9235 80.2521ZM99.312 80.2712C99.1018 80.2712 98.9139 80.2251 98.7482 80.1327C98.5858 80.0403 98.4568 79.9065 98.3612 79.7313C98.2657 79.553 98.2131 79.3395 98.2036 79.0911H98.3278V80.1852H97.9647V76.6973H98.4233V78.3935L98.2609 78.7423C98.2736 78.4652 98.3294 78.239 98.4281 78.0638C98.5269 77.8886 98.6559 77.7596 98.8151 77.6768C98.9776 77.5908 99.156 77.5478 99.3503 77.5478C99.5318 77.5478 99.6975 77.5829 99.8472 77.6529C99.9969 77.7198 100.126 77.8138 100.234 77.9348C100.342 78.0527 100.425 78.1912 100.483 78.3505C100.54 78.5066 100.569 78.6754 100.569 78.857V78.943C100.569 79.1245 100.538 79.295 100.478 79.4542C100.421 79.6135 100.336 79.7552 100.225 79.8795C100.113 80.0005 99.9794 80.0961 99.8233 80.1661C99.6704 80.2362 99.5 80.2712 99.312 80.2712ZM99.2595 79.8699C99.4315 79.8699 99.5812 79.8285 99.7086 79.7457C99.836 79.6629 99.9348 79.5498 100.005 79.4064C100.075 79.2599 100.11 79.0911 100.11 78.9C100.11 78.7089 100.073 78.5416 100 78.3983C99.93 78.255 99.8312 78.1451 99.7038 78.0686C99.5764 77.989 99.4283 77.9492 99.2595 77.9492C99.1066 77.9492 98.9648 77.9842 98.8342 78.0543C98.7036 78.1212 98.5985 78.2199 98.5189 78.3505C98.4425 78.4779 98.4042 78.6324 98.4042 78.814V79.0338C98.4042 79.2089 98.444 79.3587 98.5237 79.4829C98.6033 79.6071 98.7084 79.7027 98.839 79.7696C98.9696 79.8365 99.1098 79.8699 99.2595 79.8699ZM102.095 80.2617C101.761 80.2617 101.501 80.19 101.316 80.0467C101.135 79.9033 101.041 79.7074 101.034 79.459H101.464C101.471 79.5577 101.52 79.6517 101.612 79.7409C101.708 79.8269 101.869 79.8699 102.095 79.8699C102.299 79.8699 102.455 79.8301 102.563 79.7504C102.672 79.6676 102.726 79.5673 102.726 79.4494C102.726 79.3443 102.686 79.2631 102.606 79.2058C102.527 79.1452 102.398 79.1054 102.219 79.0863L101.942 79.0576C101.7 79.0322 101.503 78.9605 101.35 78.8426C101.197 78.7216 101.12 78.5528 101.12 78.3362C101.12 78.1737 101.162 78.0352 101.244 77.9205C101.327 77.8026 101.442 77.7134 101.589 77.6529C101.735 77.5892 101.904 77.5574 102.095 77.5574C102.382 77.5574 102.614 77.6211 102.793 77.7485C102.971 77.8759 103.063 78.0654 103.07 78.3171H102.64C102.636 78.2151 102.589 78.1291 102.496 78.0591C102.407 77.9858 102.273 77.9492 102.095 77.9492C101.917 77.9492 101.781 77.9858 101.689 78.0591C101.596 78.1323 101.55 78.2247 101.55 78.3362C101.55 78.4317 101.582 78.5082 101.646 78.5655C101.713 78.6229 101.821 78.6595 101.971 78.6754L102.248 78.7041C102.522 78.7327 102.742 78.8092 102.907 78.9334C103.073 79.0545 103.156 79.2265 103.156 79.4494C103.156 79.6087 103.109 79.7504 103.017 79.8747C102.928 79.9957 102.804 80.0913 102.644 80.1614C102.485 80.2282 102.302 80.2617 102.095 80.2617Z" fill="white"/>
<path d="M124.217 72.6144V72.1475H127.03V72.6144H124.217ZM124.217 73.7079V73.241H127.03V73.7079H124.217Z" fill="#0C134F"/>
<path d="M38.302 73.787V35.4606C38.302 32.4448 40.7468 30.0001 43.7625 30.0001H89.153C92.1688 30.0001 94.6135 32.4448 94.6135 35.4606V61.1834" stroke="#252525" stroke-width="0.341282" stroke-linecap="round" stroke-dasharray="1.71 1.71"/>
<path d="M38.3017 75.0061C39.1499 75.0061 39.8375 74.3185 39.8375 73.4703C39.8375 72.6221 39.1499 71.9345 38.3017 71.9345C37.4535 71.9345 36.766 72.6221 36.766 73.4703C36.766 74.3185 37.4535 75.0061 38.3017 75.0061Z" fill="white" stroke="#252525" stroke-width="1.02385"/>
<path d="M94.2459 62.0235L92.6448 59.4476C92.4821 59.1859 92.5884 58.86 92.8264 58.7296C92.9648 58.6537 93.1312 58.6991 93.2797 58.7526L93.9199 58.9834C94.3687 59.1452 94.86 59.1452 95.3088 58.9834L95.949 58.7526C96.0975 58.6991 96.2639 58.6538 96.4023 58.7296C96.6366 58.8581 96.744 59.1761 96.5902 59.4372L95.0733 62.0131C94.886 62.3313 94.4407 62.3368 94.2459 62.0235Z" fill="#252525"/>
<mask id="path-14-inside-2_6353_5615" fill="white">
<path d="M185.396 46.0405C185.396 45.2865 186.007 44.6754 186.761 44.6754H238.636C239.39 44.6754 240.001 45.2865 240.001 46.0405V91.0897C240.001 91.8437 239.39 92.4548 238.636 92.4548H186.761C186.007 92.4548 185.396 91.8437 185.396 91.0897V46.0405Z"/>
</mask>
<path d="M185.396 46.0405C185.396 45.2865 186.007 44.6754 186.761 44.6754H238.636C239.39 44.6754 240.001 45.2865 240.001 46.0405V91.0897C240.001 91.8437 239.39 92.4548 238.636 92.4548H186.761C186.007 92.4548 185.396 91.8437 185.396 91.0897V46.0405Z" fill="white"/>
<path d="M185.396 44.6754H240.001H185.396ZM242.048 91.0897C242.048 92.9746 240.52 94.5025 238.636 94.5025H186.761C184.876 94.5025 183.348 92.9746 183.348 91.0897L187.443 90.4071H237.953L242.048 91.0897ZM186.761 94.5025C184.876 94.5025 183.348 92.9746 183.348 91.0897V48.0882C183.348 46.2033 184.876 44.6754 186.761 44.6754H187.443C187.443 44.6754 187.443 45.2865 187.443 46.0405V90.4071L186.761 94.5025ZM238.636 44.6754C240.52 44.6754 242.048 46.2033 242.048 48.0882V91.0897C242.048 92.9746 240.52 94.5025 238.636 94.5025L237.953 90.4071V46.0405C237.953 45.2865 237.953 44.6754 237.953 44.6754H238.636Z" fill="url(#paint1_linear_6353_5615)" fill-opacity="0.3" mask="url(#path-14-inside-2_6353_5615)"/>
<rect x="190.515" y="79.1456" width="44.3667" height="8.19077" rx="1.36513" fill="#1D267D"/>
<path d="M197.602 84.741V81.2531H198.07V84.741H197.602ZM200.022 84.7696C199.831 84.7696 199.665 84.7426 199.525 84.6884C199.388 84.6343 199.281 84.5419 199.205 84.4113C199.131 84.2775 199.095 84.0975 199.095 83.8714V81.4155H199.534V83.9287C199.534 84.0657 199.571 84.1724 199.644 84.2488C199.721 84.3221 199.827 84.3587 199.964 84.3587H200.413V84.7696H200.022ZM198.655 82.5336V82.1895H200.413V82.5336H198.655ZM202.128 84.827C201.905 84.827 201.712 84.7887 201.55 84.7123C201.388 84.6359 201.255 84.5355 201.153 84.4113C201.051 84.2839 200.975 84.1421 200.924 83.9861C200.876 83.83 200.852 83.6707 200.852 83.5083V83.4223C200.852 83.2566 200.876 83.0958 200.924 82.9397C200.975 82.7836 201.051 82.6434 201.153 82.5192C201.255 82.3918 201.384 82.2915 201.54 82.2182C201.7 82.1418 201.886 82.1035 202.099 82.1035C202.377 82.1035 202.604 82.1641 202.783 82.2851C202.964 82.403 203.098 82.5559 203.184 82.7438C203.273 82.9317 203.318 83.1324 203.318 83.3458V83.5513H201.053V83.2072H202.983L202.878 83.3936C202.878 83.212 202.85 83.0559 202.792 82.9253C202.735 82.7916 202.649 82.688 202.534 82.6148C202.42 82.5415 202.275 82.5049 202.099 82.5049C201.918 82.5049 201.767 82.5463 201.646 82.6291C201.528 82.7119 201.438 82.825 201.378 82.9683C201.321 83.1117 201.292 83.2773 201.292 83.4653C201.292 83.6468 201.321 83.8109 201.378 83.9574C201.438 84.1007 201.531 84.2154 201.655 84.3014C201.779 84.3842 201.937 84.4256 202.128 84.4256C202.329 84.4256 202.491 84.381 202.615 84.2918C202.743 84.2027 202.819 84.0991 202.845 83.9813H203.275C203.24 84.1565 203.17 84.3078 203.065 84.4352C202.959 84.5626 202.827 84.6597 202.668 84.7266C202.509 84.7935 202.329 84.827 202.128 84.827ZM203.969 84.741V82.1895H204.332V83.2837H204.275C204.275 83.0352 204.307 82.825 204.37 82.653C204.437 82.4778 204.536 82.344 204.667 82.2517C204.797 82.1593 204.963 82.1131 205.164 82.1131H205.183C205.383 82.1131 205.549 82.1593 205.68 82.2517C205.813 82.344 205.912 82.4778 205.976 82.653C206.04 82.825 206.071 83.0352 206.071 83.2837H205.938C205.938 83.0352 205.971 82.825 206.038 82.653C206.105 82.4778 206.204 82.344 206.334 82.2517C206.468 82.1593 206.635 82.1131 206.836 82.1131H206.855C207.056 82.1131 207.223 82.1593 207.357 82.2517C207.49 82.344 207.589 82.4778 207.653 82.653C207.72 82.825 207.753 83.0352 207.753 83.2837V84.741H207.295V83.1834C207.295 82.9763 207.244 82.817 207.142 82.7056C207.04 82.5909 206.898 82.5336 206.716 82.5336C206.528 82.5336 206.377 82.5941 206.262 82.7151C206.148 82.833 206.09 82.9986 206.09 83.212V84.741H205.632V83.1834C205.632 82.9763 205.581 82.817 205.479 82.7056C205.377 82.5909 205.235 82.5336 205.054 82.5336C204.866 82.5336 204.714 82.5941 204.6 82.7151C204.485 82.833 204.428 82.9986 204.428 83.212V84.741H203.969ZM208.469 83.6086V83.2168H210.246V83.6086H208.469ZM211.536 84.741V81.4824L211.746 81.6449H210.762V81.2531H211.994V84.741H211.536ZM214.343 85.6966V81.2531H214.754V85.6966H214.343ZM218.306 84.827C218.045 84.827 217.822 84.7824 217.637 84.6932C217.456 84.6008 217.308 84.4766 217.193 84.3205C217.082 84.1644 217 83.9845 216.949 83.7806C216.898 83.5736 216.873 83.3554 216.873 83.126V82.868C216.873 82.5463 216.922 82.2564 217.021 81.9984C217.123 81.7404 217.279 81.5366 217.489 81.3868C217.703 81.234 217.975 81.1575 218.306 81.1575C218.638 81.1575 218.908 81.234 219.119 81.3868C219.329 81.5366 219.483 81.7404 219.582 81.9984C219.684 82.2564 219.735 82.5463 219.735 82.868V83.126C219.735 83.3554 219.709 83.5736 219.658 83.7806C219.607 83.9845 219.525 84.1644 219.41 84.3205C219.298 84.4766 219.152 84.6008 218.97 84.6932C218.789 84.7824 218.567 84.827 218.306 84.827ZM218.306 84.4065C218.638 84.4065 218.88 84.295 219.033 84.0721C219.189 83.8459 219.267 83.4891 219.267 83.0018C219.267 82.4921 219.187 82.1274 219.028 81.9076C218.872 81.6879 218.631 81.578 218.306 81.578C217.978 81.578 217.735 81.6879 217.575 81.9076C217.419 82.1274 217.341 82.489 217.341 82.9922C217.341 83.4828 217.419 83.8411 217.575 84.0673C217.731 84.2934 217.975 84.4065 218.306 84.4065ZM220.213 84.741L221.126 83.3984L221.112 83.4939L220.256 82.1895H220.763L221.379 83.1499H221.446L222.029 82.1895H222.502L221.695 83.4605L221.709 83.3745L222.665 84.741H222.158L221.441 83.7042H221.375L220.686 84.741H220.213ZM224.531 84.827C224.269 84.827 224.047 84.7824 223.862 84.6932C223.68 84.6008 223.532 84.4766 223.417 84.3205C223.306 84.1644 223.225 83.9845 223.174 83.7806C223.123 83.5736 223.097 83.3554 223.097 83.126V82.868C223.097 82.5463 223.147 82.2564 223.245 81.9984C223.347 81.7404 223.503 81.5366 223.714 81.3868C223.927 81.234 224.199 81.1575 224.531 81.1575C224.862 81.1575 225.133 81.234 225.343 81.3868C225.553 81.5366 225.708 81.7404 225.806 81.9984C225.908 82.2564 225.959 82.5463 225.959 82.868V83.126C225.959 83.3554 225.934 83.5736 225.883 83.7806C225.832 83.9845 225.749 84.1644 225.634 84.3205C225.523 84.4766 225.376 84.6008 225.195 84.6932C225.013 84.7824 224.792 84.827 224.531 84.827ZM224.531 84.4065C224.862 84.4065 225.104 84.295 225.257 84.0721C225.413 83.8459 225.491 83.4891 225.491 83.0018C225.491 82.4921 225.411 82.1274 225.252 81.9076C225.096 81.6879 224.856 81.578 224.531 81.578C224.203 81.578 223.959 81.6879 223.8 81.9076C223.644 82.1274 223.566 82.489 223.566 82.9922C223.566 83.4828 223.644 83.8411 223.8 84.0673C223.956 84.2934 224.199 84.4065 224.531 84.4065ZM227.279 84.741V81.4824L227.489 81.6449H226.505V81.2531H227.737V84.741H227.279Z" fill="white"/>
<rect x="134.373" y="69.7604" width="44.0254" height="7.84949" rx="1.19449" fill="#1D267D"/>
<rect x="134.373" y="69.7604" width="44.0254" height="7.84949" rx="1.19449" stroke="#0C134F" stroke-width="0.341282"/>
<path d="M148.486 75.1852V71.9266L148.696 72.0891H147.712V71.6973H148.945V75.1852H148.486ZM151.293 76.1408V71.6973H151.704V76.1408H151.293ZM155.256 75.2712C154.995 75.2712 154.772 75.2266 154.588 75.1374C154.406 75.045 154.258 74.9208 154.143 74.7647C154.032 74.6086 153.951 74.4287 153.9 74.2248C153.849 74.0178 153.823 73.7996 153.823 73.5702V73.3122C153.823 72.9905 153.872 72.7006 153.971 72.4426C154.073 72.1846 154.229 71.9808 154.439 71.8311C154.653 71.6782 154.925 71.6017 155.256 71.6017C155.588 71.6017 155.859 71.6782 156.069 71.8311C156.279 71.9808 156.433 72.1846 156.532 72.4426C156.634 72.7006 156.685 72.9905 156.685 73.3122V73.5702C156.685 73.7996 156.66 74.0178 156.609 74.2248C156.558 74.4287 156.475 74.6086 156.36 74.7647C156.249 74.9208 156.102 75.045 155.921 75.1374C155.739 75.2266 155.518 75.2712 155.256 75.2712ZM155.256 74.8507C155.588 74.8507 155.83 74.7392 155.983 74.5163C156.139 74.2901 156.217 73.9334 156.217 73.446C156.217 72.9364 156.137 72.5716 155.978 72.3519C155.822 72.1321 155.581 72.0222 155.256 72.0222C154.928 72.0222 154.685 72.1321 154.525 72.3519C154.369 72.5716 154.291 72.9332 154.291 73.4365C154.291 73.927 154.369 74.2853 154.525 74.5115C154.682 74.7376 154.925 74.8507 155.256 74.8507ZM157.164 75.1852L158.076 73.8426L158.062 73.9381L157.207 72.6338H157.713L158.329 73.5941H158.396L158.979 72.6338H159.452L158.645 73.9047L158.659 73.8187L159.615 75.1852H159.108L158.392 74.1484H158.325L157.637 75.1852H157.164ZM161.481 75.2712C161.22 75.2712 160.997 75.2266 160.812 75.1374C160.63 75.045 160.482 74.9208 160.368 74.7647C160.256 74.6086 160.175 74.4287 160.124 74.2248C160.073 74.0178 160.047 73.7996 160.047 73.5702V73.3122C160.047 72.9905 160.097 72.7006 160.196 72.4426C160.298 72.1846 160.454 71.9808 160.664 71.8311C160.877 71.6782 161.15 71.6017 161.481 71.6017C161.812 71.6017 162.083 71.6782 162.293 71.8311C162.503 71.9808 162.658 72.1846 162.757 72.4426C162.859 72.7006 162.909 72.9905 162.909 73.3122V73.5702C162.909 73.7996 162.884 74.0178 162.833 74.2248C162.782 74.4287 162.699 74.6086 162.585 74.7647C162.473 74.9208 162.327 75.045 162.145 75.1374C161.963 75.2266 161.742 75.2712 161.481 75.2712ZM161.481 74.8507C161.812 74.8507 162.054 74.7392 162.207 74.5163C162.363 74.2901 162.441 73.9334 162.441 73.446C162.441 72.9364 162.362 72.5716 162.202 72.3519C162.046 72.1321 161.806 72.0222 161.481 72.0222C161.153 72.0222 160.909 72.1321 160.75 72.3519C160.594 72.5716 160.516 72.9332 160.516 73.4365C160.516 73.927 160.594 74.2853 160.75 74.5115C160.906 74.7376 161.15 74.8507 161.481 74.8507ZM164.229 75.1852V71.9266L164.439 72.0891H163.455V71.6973H164.688V75.1852H164.229Z" fill="white"/>
<path d="M157.409 63.7869V35.4605C157.409 32.4448 159.854 30 162.87 30H208.26C211.276 30 213.721 32.4448 213.721 35.4605V59.5887" stroke="#252525" stroke-width="0.341282" stroke-linecap="round" stroke-dasharray="1.71 1.71"/>
<path d="M157.409 66.005C158.257 66.005 158.945 65.3174 158.945 64.4692C158.945 63.621 158.257 62.9334 157.409 62.9334C156.561 62.9334 155.873 63.621 155.873 64.4692C155.873 65.3174 156.561 66.005 157.409 66.005Z" fill="white" stroke="#252525" stroke-width="1.02385"/>
<path d="M213.353 62.0869L211.752 59.511C211.589 59.2493 211.696 58.9234 211.934 58.793C212.072 58.7171 212.238 58.7625 212.387 58.816L213.027 59.0468C213.476 59.2086 213.967 59.2086 214.416 59.0468L215.056 58.816C215.205 58.7625 215.371 58.7172 215.51 58.7931C215.744 58.9215 215.851 59.2395 215.697 59.5007L214.181 62.0765C213.993 62.3947 213.548 62.4003 213.353 62.0869Z" fill="#252525"/>
<defs>
<linearGradient id="paint0_linear_6353_5615" x1="9.06279" y1="40.5821" x2="41.3579" y2="108.99" gradientUnits="userSpaceOnUse">
<stop stop-color="#662B64"/>
<stop offset="1" stop-color="#456F97"/>
</linearGradient>
<linearGradient id="paint1_linear_6353_5615" x1="183.458" y1="40.5821" x2="215.754" y2="108.99" gradientUnits="userSpaceOnUse">
<stop stop-color="#662B64"/>
<stop offset="1" stop-color="#456F97"/>
</linearGradient>
</defs>
</svg>
