<svg width="253" height="123" viewBox="0 0 253 123" fill="none" xmlns="http://www.w3.org/2000/svg">
<rect width="253" height="123" rx="10" fill="#F4F4F4"/>
<mask id="path-2-inside-1_2862_8114" fill="white">
<path d="M12 46.0405C12 45.2865 12.6112 44.6754 13.3651 44.6754H65.24C65.9939 44.6754 66.6051 45.2865 66.6051 46.0405V91.0897C66.6051 91.8437 65.9939 92.4548 65.24 92.4548H13.3651C12.6112 92.4548 12 91.8437 12 91.0897V46.0405Z"/>
</mask>
<path d="M12 46.0405C12 45.2865 12.6112 44.6754 13.3651 44.6754H65.24C65.9939 44.6754 66.6051 45.2865 66.6051 46.0405V91.0897C66.6051 91.8437 65.9939 92.4548 65.24 92.4548H13.3651C12.6112 92.4548 12 91.8437 12 91.0897V46.0405Z" fill="white"/>
<path d="M12 44.6754H66.6051H12ZM68.6528 91.0897C68.6528 92.9746 67.1248 94.5025 65.24 94.5025H13.3651C11.4803 94.5025 9.95231 92.9746 9.95231 91.0897L14.0477 90.4071H64.5574L68.6528 91.0897ZM13.3651 94.5025C11.4803 94.5025 9.95231 92.9746 9.95231 91.0897V48.0882C9.95231 46.2033 11.4803 44.6754 13.3651 44.6754H14.0477C14.0477 44.6754 14.0477 45.2865 14.0477 46.0405V90.4071L13.3651 94.5025ZM65.24 44.6754C67.1248 44.6754 68.6528 46.2033 68.6528 48.0882V91.0897C68.6528 92.9746 67.1248 94.5025 65.24 94.5025L64.5574 90.4071V46.0405C64.5574 45.2865 64.5574 44.6754 64.5574 44.6754H65.24Z" fill="url(#paint0_linear_2862_8114)" fill-opacity="0.3" mask="url(#path-2-inside-1_2862_8114)"/>
<rect x="17.1191" y="79.1456" width="44.3667" height="8.19077" rx="1.36513" fill="#1D267D"/>
<path d="M31.6682 84.741V82.1895H32.1269V84.741H31.6682ZM31.2764 82.5527V82.1895H32.1269V82.5527H31.2764ZM31.7972 81.7786C31.6953 81.7786 31.6188 81.7516 31.5679 81.6974C31.5201 81.6433 31.4962 81.5748 31.4962 81.492C31.4962 81.4091 31.5201 81.3407 31.5679 81.2865C31.6188 81.2324 31.6953 81.2053 31.7972 81.2053C31.8991 81.2053 31.974 81.2324 32.0218 81.2865C32.0727 81.3407 32.0982 81.4091 32.0982 81.492C32.0982 81.5748 32.0727 81.6433 32.0218 81.6974C31.974 81.7516 31.8991 81.7786 31.7972 81.7786ZM34.0076 84.7696C33.8164 84.7696 33.6508 84.7426 33.5106 84.6884C33.3737 84.6343 33.267 84.5419 33.1905 84.4113C33.1173 84.2775 33.0806 84.0975 33.0806 83.8714V81.4155H33.5202V83.9287C33.5202 84.0657 33.5568 84.1724 33.6301 84.2488C33.7065 84.3221 33.8132 84.3587 33.9502 84.3587H34.3993V84.7696H34.0076ZM32.6411 82.5336V82.1895H34.3993V82.5336H32.6411ZM36.114 84.827C35.8911 84.827 35.6983 84.7887 35.5359 84.7123C35.3734 84.6359 35.2413 84.5355 35.1393 84.4113C35.0374 84.2839 34.961 84.1421 34.91 83.9861C34.8622 83.83 34.8383 83.6707 34.8383 83.5083V83.4223C34.8383 83.2566 34.8622 83.0958 34.91 82.9397C34.961 82.7836 35.0374 82.6434 35.1393 82.5192C35.2413 82.3918 35.3703 82.2915 35.5263 82.2182C35.6856 82.1418 35.8719 82.1035 36.0854 82.1035C36.3625 82.1035 36.5902 82.1641 36.7686 82.2851C36.9502 82.403 37.084 82.5559 37.17 82.7438C37.2591 82.9317 37.3037 83.1324 37.3037 83.3458V83.5513H35.039V83.2072H36.9693L36.8642 83.3936C36.8642 83.212 36.8355 83.0559 36.7782 82.9253C36.7208 82.7916 36.6348 82.688 36.5202 82.6148C36.4055 82.5415 36.2606 82.5049 36.0854 82.5049C35.9038 82.5049 35.7525 82.5463 35.6315 82.6291C35.5136 82.7119 35.4244 82.825 35.3639 82.9683C35.3066 83.1117 35.2779 83.2773 35.2779 83.4653C35.2779 83.6468 35.3066 83.8109 35.3639 83.9574C35.4244 84.1007 35.5168 84.2154 35.641 84.3014C35.7652 84.3842 35.9229 84.4256 36.114 84.4256C36.3147 84.4256 36.4772 84.381 36.6014 84.2918C36.7288 84.2027 36.8052 84.0991 36.8307 83.9813H37.2607C37.2257 84.1565 37.1556 84.3078 37.0505 84.4352C36.9454 84.5626 36.8132 84.6597 36.6539 84.7266C36.4947 84.7935 36.3147 84.827 36.114 84.827ZM37.955 84.741V82.1895H38.3181V83.2837H38.2608C38.2608 83.0352 38.2926 82.825 38.3563 82.653C38.4232 82.4778 38.522 82.344 38.6526 82.2517C38.7832 82.1593 38.9488 82.1131 39.1495 82.1131H39.1686C39.3693 82.1131 39.5349 82.1593 39.6655 82.2517C39.7993 82.344 39.898 82.4778 39.9617 82.653C40.0254 82.825 40.0573 83.0352 40.0573 83.2837H39.9235C39.9235 83.0352 39.957 82.825 40.0238 82.653C40.0907 82.4778 40.1895 82.344 40.3201 82.2517C40.4539 82.1593 40.6211 82.1131 40.8218 82.1131H40.8409C41.0416 82.1131 41.2088 82.1593 41.3426 82.2517C41.4763 82.344 41.5751 82.4778 41.6388 82.653C41.7057 82.825 41.7391 83.0352 41.7391 83.2837V84.741H41.2804V83.1834C41.2804 82.9763 41.2295 82.817 41.1276 82.7056C41.0256 82.5909 40.8839 82.5336 40.7023 82.5336C40.5144 82.5336 40.3631 82.5941 40.2484 82.7151C40.1337 82.833 40.0764 82.9986 40.0764 83.212V84.741H39.6177V83.1834C39.6177 82.9763 39.5668 82.817 39.4648 82.7056C39.3629 82.5909 39.2212 82.5336 39.0396 82.5336C38.8517 82.5336 38.7004 82.5941 38.5857 82.7151C38.471 82.833 38.4137 82.9986 38.4137 83.212V84.741H37.955ZM42.4547 83.6086V83.2168H44.2321V83.6086H42.4547ZM44.9102 84.741V84.1676C44.9102 84.0275 44.9293 83.908 44.9675 83.8093C45.0089 83.7105 45.079 83.6213 45.1777 83.5417C45.2765 83.4589 45.4103 83.3793 45.5791 83.3028L46.2337 83.0018C46.3929 82.9285 46.5187 82.8346 46.6111 82.7199C46.7035 82.602 46.7497 82.4507 46.7497 82.266C46.7497 82.043 46.6876 81.8694 46.5633 81.7452C46.4391 81.621 46.2639 81.5589 46.0378 81.5589C45.8148 81.5589 45.6396 81.621 45.5122 81.7452C45.3848 81.8694 45.3211 82.043 45.3211 82.266H44.8719C44.8719 82.0653 44.9133 81.8806 44.9962 81.7117C45.0822 81.5429 45.2112 81.4091 45.3832 81.3104C45.5552 81.2085 45.7734 81.1575 46.0378 81.1575C46.3021 81.1575 46.5187 81.2085 46.6876 81.3104C46.8596 81.4091 46.987 81.5397 47.0698 81.7022C47.1558 81.8646 47.1988 82.0414 47.1988 82.2325V82.2994C47.1988 82.5511 47.1255 82.7629 46.979 82.9349C46.8357 83.1069 46.6414 83.2487 46.3961 83.3601L45.7415 83.6612C45.595 83.728 45.4963 83.7949 45.4453 83.8618C45.3943 83.9287 45.3688 84.0179 45.3688 84.1294V84.569L45.2446 84.3492H47.2418V84.741H44.9102Z" fill="white"/>
<rect x="17.1191" y="69.5898" width="44.3667" height="8.19077" rx="1.36513" fill="#5C469C"/>
<path d="M32.1418 75.1852V72.6338H32.6005V75.1852H32.1418ZM31.75 72.9969V72.6338H32.6005V72.9969H31.75ZM32.2708 72.2229C32.1689 72.2229 32.0924 72.1958 32.0414 72.1416C31.9937 72.0875 31.9698 72.019 31.9698 71.9362C31.9698 71.8534 31.9937 71.7849 32.0414 71.7307C32.0924 71.6766 32.1689 71.6495 32.2708 71.6495C32.3727 71.6495 32.4476 71.6766 32.4954 71.7307C32.5463 71.7849 32.5718 71.8534 32.5718 71.9362C32.5718 72.019 32.5463 72.0875 32.4954 72.1416C32.4476 72.1958 32.3727 72.2229 32.2708 72.2229ZM34.4811 75.2138C34.29 75.2138 34.1244 75.1868 33.9842 75.1326C33.8473 75.0785 33.7406 74.9861 33.6641 74.8555C33.5909 74.7217 33.5542 74.5418 33.5542 74.3156V71.8597H33.9938V74.3729C33.9938 74.5099 34.0304 74.6166 34.1037 74.6931C34.1801 74.7663 34.2868 74.8029 34.4238 74.8029H34.8729V75.2138H34.4811ZM33.1147 72.9778V72.6338H34.8729V72.9778H33.1147ZM36.5876 75.2712C36.3647 75.2712 36.1719 75.233 36.0095 75.1565C35.847 75.0801 35.7149 74.9797 35.6129 74.8555C35.511 74.7281 35.4345 74.5863 35.3836 74.4303C35.3358 74.2742 35.3119 74.1149 35.3119 73.9525V73.8665C35.3119 73.7008 35.3358 73.54 35.3836 73.3839C35.4345 73.2278 35.511 73.0877 35.6129 72.9634C35.7149 72.836 35.8439 72.7357 35.9999 72.6624C36.1592 72.586 36.3455 72.5478 36.559 72.5478C36.8361 72.5478 37.0638 72.6083 37.2422 72.7293C37.4238 72.8472 37.5575 73.0001 37.6436 73.188C37.7327 73.3759 37.7773 73.5766 37.7773 73.79V73.9955H35.5126V73.6515H37.4429L37.3378 73.8378C37.3378 73.6562 37.3091 73.5002 37.2518 73.3696C37.1944 73.2358 37.1084 73.1323 36.9938 73.059C36.8791 72.9857 36.7342 72.9491 36.559 72.9491C36.3774 72.9491 36.2261 72.9905 36.1051 73.0733C35.9872 73.1561 35.898 73.2692 35.8375 73.4126C35.7802 73.5559 35.7515 73.7215 35.7515 73.9095C35.7515 74.091 35.7802 74.2551 35.8375 74.4016C35.898 74.5449 35.9904 74.6596 36.1146 74.7456C36.2388 74.8284 36.3965 74.8698 36.5876 74.8698C36.7883 74.8698 36.9508 74.8252 37.075 74.7361C37.2024 74.6469 37.2788 74.5433 37.3043 74.4255H37.7343C37.6993 74.6007 37.6292 74.752 37.5241 74.8794C37.419 75.0068 37.2868 75.104 37.1275 75.1708C36.9683 75.2377 36.7883 75.2712 36.5876 75.2712ZM38.4286 75.1852V72.6338H38.7917V73.7279H38.7344C38.7344 73.4795 38.7662 73.2692 38.8299 73.0972C38.8968 72.922 38.9956 72.7882 39.1262 72.6959C39.2568 72.6035 39.4224 72.5573 39.6231 72.5573H39.6422C39.8429 72.5573 40.0085 72.6035 40.1391 72.6959C40.2729 72.7882 40.3716 72.922 40.4353 73.0972C40.499 73.2692 40.5309 73.4795 40.5309 73.7279H40.3971C40.3971 73.4795 40.4306 73.2692 40.4974 73.0972C40.5643 72.922 40.6631 72.7882 40.7937 72.6959C40.9275 72.6035 41.0947 72.5573 41.2954 72.5573H41.3145C41.5151 72.5573 41.6824 72.6035 41.8162 72.6959C41.9499 72.7882 42.0487 72.922 42.1124 73.0972C42.1793 73.2692 42.2127 73.4795 42.2127 73.7279V75.1852H41.754V73.6276C41.754 73.4205 41.7031 73.2613 41.6012 73.1498C41.4992 73.0351 41.3575 72.9778 41.1759 72.9778C40.988 72.9778 40.8367 73.0383 40.722 73.1593C40.6073 73.2772 40.55 73.4428 40.55 73.6562V75.1852H40.0913V73.6276C40.0913 73.4205 40.0404 73.2613 39.9384 73.1498C39.8365 73.0351 39.6947 72.9778 39.5132 72.9778C39.3253 72.9778 39.174 73.0383 39.0593 73.1593C38.9446 73.2772 38.8873 73.4428 38.8873 73.6562V75.1852H38.4286ZM42.9283 74.0528V73.661H44.7057V74.0528H42.9283ZM45.9953 75.1852V71.9266L46.2056 72.0891H45.2213V71.6973H46.454V75.1852H45.9953Z" fill="white"/>
<rect x="73.4302" y="60.0339" width="44.3667" height="8.19077" rx="1.36513" fill="#1D267D"/>
<path d="M87.9792 65.6293V63.0779H88.4379V65.6293H87.9792ZM87.5874 63.441V63.0779H88.4379V63.441H87.5874ZM88.1082 62.667C88.0063 62.667 87.9299 62.6399 87.8789 62.5858C87.8311 62.5316 87.8072 62.4631 87.8072 62.3803C87.8072 62.2975 87.8311 62.229 87.8789 62.1749C87.9299 62.1207 88.0063 62.0937 88.1082 62.0937C88.2102 62.0937 88.285 62.1207 88.3328 62.1749C88.3838 62.229 88.4092 62.2975 88.4092 62.3803C88.4092 62.4631 88.3838 62.5316 88.3328 62.5858C88.285 62.6399 88.2102 62.667 88.1082 62.667ZM90.3186 65.658C90.1275 65.658 89.9618 65.6309 89.8217 65.5768C89.6847 65.5226 89.578 65.4303 89.5016 65.2997C89.4283 65.1659 89.3917 64.9859 89.3917 64.7597V62.3039H89.8312V64.8171C89.8312 64.9541 89.8679 65.0608 89.9411 65.1372C90.0176 65.2105 90.1243 65.2471 90.2613 65.2471H90.7104V65.658H90.3186ZM88.9521 63.4219V63.0779H90.7104V63.4219H88.9521ZM92.4251 65.7153C92.2021 65.7153 92.0094 65.6771 91.8469 65.6007C91.6845 65.5242 91.5523 65.4239 91.4504 65.2997C91.3484 65.1722 91.272 65.0305 91.221 64.8744C91.1732 64.7183 91.1494 64.5591 91.1494 64.3966V64.3106C91.1494 64.145 91.1732 63.9841 91.221 63.828C91.272 63.672 91.3484 63.5318 91.4504 63.4076C91.5523 63.2802 91.6813 63.1798 91.8374 63.1066C91.9966 63.0301 92.183 62.9919 92.3964 62.9919C92.6735 62.9919 92.9013 63.0524 93.0796 63.1735C93.2612 63.2913 93.395 63.4442 93.481 63.6322C93.5702 63.8201 93.6148 64.0208 93.6148 64.2342V64.4396H91.35V64.0956H93.2803L93.1752 64.282C93.1752 64.1004 93.1465 63.9443 93.0892 63.8137C93.0319 63.6799 92.9459 63.5764 92.8312 63.5031C92.7165 63.4299 92.5716 63.3933 92.3964 63.3933C92.2148 63.3933 92.0635 63.4347 91.9425 63.5175C91.8246 63.6003 91.7354 63.7134 91.6749 63.8567C91.6176 64.0001 91.5889 64.1657 91.5889 64.3536C91.5889 64.5352 91.6176 64.6992 91.6749 64.8457C91.7354 64.9891 91.8278 65.1038 91.952 65.1898C92.0763 65.2726 92.2339 65.314 92.4251 65.314C92.6257 65.314 92.7882 65.2694 92.9124 65.1802C93.0398 65.091 93.1163 64.9875 93.1418 64.8696H93.5718C93.5367 65.0448 93.4667 65.1961 93.3615 65.3235C93.2564 65.451 93.1242 65.5481 92.965 65.615C92.8057 65.6819 92.6257 65.7153 92.4251 65.7153ZM94.266 65.6293V63.0779H94.6292V64.1721H94.5718C94.5718 63.9236 94.6037 63.7134 94.6674 63.5414C94.7343 63.3662 94.833 63.2324 94.9636 63.14C95.0942 63.0476 95.2598 63.0015 95.4605 63.0015H95.4796C95.6803 63.0015 95.8459 63.0476 95.9765 63.14C96.1103 63.2324 96.2091 63.3662 96.2728 63.5414C96.3365 63.7134 96.3683 63.9236 96.3683 64.1721H96.2345C96.2345 63.9236 96.268 63.7134 96.3349 63.5414C96.4018 63.3662 96.5005 63.2324 96.6311 63.14C96.7649 63.0476 96.9321 63.0015 97.1328 63.0015H97.1519C97.3526 63.0015 97.5198 63.0476 97.6536 63.14C97.7874 63.2324 97.8861 63.3662 97.9498 63.5414C98.0167 63.7134 98.0502 63.9236 98.0502 64.1721V65.6293H97.5915V64.0717C97.5915 63.8647 97.5405 63.7054 97.4386 63.5939C97.3367 63.4793 97.1949 63.4219 97.0134 63.4219C96.8254 63.4219 96.6741 63.4824 96.5594 63.6035C96.4448 63.7213 96.3874 63.887 96.3874 64.1004V65.6293H95.9288V64.0717C95.9288 63.8647 95.8778 63.7054 95.7759 63.5939C95.6739 63.4793 95.5322 63.4219 95.3506 63.4219C95.1627 63.4219 95.0114 63.4824 94.8967 63.6035C94.7821 63.7213 94.7247 63.887 94.7247 64.1004V65.6293H94.266ZM98.7658 64.497V64.1052H100.543V64.497H98.7658ZM101.221 65.6293V65.056C101.221 64.9158 101.24 64.7964 101.279 64.6976C101.32 64.5989 101.39 64.5097 101.489 64.4301C101.588 64.3473 101.721 64.2676 101.89 64.1912L102.545 63.8902C102.704 63.8169 102.83 63.7229 102.922 63.6083C103.015 63.4904 103.061 63.3391 103.061 63.1544C103.061 62.9314 102.999 62.7578 102.874 62.6336C102.75 62.5093 102.575 62.4472 102.349 62.4472C102.126 62.4472 101.951 62.5093 101.823 62.6336C101.696 62.7578 101.632 62.9314 101.632 63.1544H101.183C101.183 62.9537 101.224 62.7689 101.307 62.6001C101.393 62.4313 101.522 62.2975 101.694 62.1988C101.866 62.0968 102.084 62.0459 102.349 62.0459C102.613 62.0459 102.83 62.0968 102.999 62.1988C103.171 62.2975 103.298 62.4281 103.381 62.5906C103.467 62.753 103.51 62.9298 103.51 63.1209V63.1878C103.51 63.4394 103.437 63.6513 103.29 63.8233C103.147 63.9953 102.952 64.137 102.707 64.2485L102.053 64.5495C101.906 64.6164 101.807 64.6833 101.756 64.7502C101.705 64.8171 101.68 64.9063 101.68 65.0178V65.4573L101.556 65.2375H103.553V65.6293H101.221Z" fill="white"/>
<rect x="73.4302" y="69.5898" width="44.3667" height="8.19077" rx="1.36513" fill="#5C469C"/>
<path d="M88.4528 75.1852V72.6338H88.9115V75.1852H88.4528ZM88.061 72.9969V72.6338H88.9115V72.9969H88.061ZM88.5818 72.2229C88.4799 72.2229 88.4034 72.1958 88.3525 72.1417C88.3047 72.0875 88.2808 72.0191 88.2808 71.9362C88.2808 71.8534 88.3047 71.7849 88.3525 71.7308C88.4034 71.6766 88.4799 71.6496 88.5818 71.6496C88.6838 71.6496 88.7586 71.6766 88.8064 71.7308C88.8574 71.7849 88.8828 71.8534 88.8828 71.9362C88.8828 72.0191 88.8574 72.0875 88.8064 72.1417C88.7586 72.1958 88.6838 72.2229 88.5818 72.2229ZM90.7922 75.2139C90.6011 75.2139 90.4354 75.1868 90.2953 75.1327C90.1583 75.0785 90.0516 74.9862 89.9752 74.8556C89.9019 74.7218 89.8653 74.5418 89.8653 74.3157V71.8598H90.3048V74.373C90.3048 74.51 90.3415 74.6167 90.4147 74.6931C90.4912 74.7664 90.5979 74.803 90.7348 74.803H91.184V75.2139H90.7922ZM89.4257 72.9778V72.6338H91.184V72.9778H89.4257ZM92.8987 75.2712C92.6757 75.2712 92.483 75.233 92.3205 75.1566C92.1581 75.0801 92.0259 74.9798 91.924 74.8556C91.822 74.7282 91.7456 74.5864 91.6946 74.4303C91.6468 74.2742 91.6229 74.115 91.6229 73.9525V73.8665C91.6229 73.7009 91.6468 73.54 91.6946 73.384C91.7456 73.2279 91.822 73.0877 91.924 72.9635C92.0259 72.8361 92.1549 72.7357 92.311 72.6625C92.4702 72.586 92.6566 72.5478 92.87 72.5478C93.1471 72.5478 93.3749 72.6083 93.5532 72.7294C93.7348 72.8472 93.8686 73.0001 93.9546 73.1881C94.0438 73.376 94.0884 73.5767 94.0884 73.7901V73.9955H91.8236V73.6515H93.7539L93.6488 73.8379C93.6488 73.6563 93.6201 73.5002 93.5628 73.3696C93.5055 73.2358 93.4195 73.1323 93.3048 73.0591C93.1901 72.9858 93.0452 72.9492 92.87 72.9492C92.6884 72.9492 92.5371 72.9906 92.4161 73.0734C92.2982 73.1562 92.209 73.2693 92.1485 73.4126C92.0912 73.556 92.0625 73.7216 92.0625 73.9095C92.0625 74.0911 92.0912 74.2551 92.1485 74.4017C92.209 74.545 92.3014 74.6597 92.4256 74.7457C92.5499 74.8285 92.7075 74.8699 92.8987 74.8699C93.0993 74.8699 93.2618 74.8253 93.386 74.7361C93.5134 74.6469 93.5899 74.5434 93.6154 74.4255H94.0454C94.0103 74.6007 93.9403 74.752 93.8351 74.8795C93.73 75.0069 93.5978 75.104 93.4386 75.1709C93.2793 75.2378 93.0993 75.2712 92.8987 75.2712ZM94.7396 75.1852V72.6338H95.1028V73.728H95.0454C95.0454 73.4795 95.0773 73.2693 95.141 73.0973C95.2079 72.9221 95.3066 72.7883 95.4372 72.6959C95.5678 72.6036 95.7334 72.5574 95.9341 72.5574H95.9532C96.1539 72.5574 96.3195 72.6036 96.4501 72.6959C96.5839 72.7883 96.6827 72.9221 96.7464 73.0973C96.8101 73.2693 96.8419 73.4795 96.8419 73.728H96.7081C96.7081 73.4795 96.7416 73.2693 96.8085 73.0973C96.8754 72.9221 96.9741 72.7883 97.1047 72.6959C97.2385 72.6036 97.4057 72.5574 97.6064 72.5574H97.6255C97.8262 72.5574 97.9934 72.6036 98.1272 72.6959C98.261 72.7883 98.3597 72.9221 98.4234 73.0973C98.4903 73.2693 98.5238 73.4795 98.5238 73.728V75.1852H98.0651V73.6276C98.0651 73.4206 98.0141 73.2613 97.9122 73.1498C97.8103 73.0352 97.6685 72.9778 97.4869 72.9778C97.299 72.9778 97.1477 73.0384 97.033 73.1594C96.9184 73.2772 96.861 73.4429 96.861 73.6563V75.1852H96.4024V73.6276C96.4024 73.4206 96.3514 73.2613 96.2495 73.1498C96.1475 73.0352 96.0058 72.9778 95.8242 72.9778C95.6363 72.9778 95.485 73.0384 95.3703 73.1594C95.2556 73.2772 95.1983 73.4429 95.1983 73.6563V75.1852H94.7396ZM99.2394 74.0529V73.6611H101.017V74.0529H99.2394ZM102.306 75.1852V71.9267L102.517 72.0891H101.532V71.6973H102.765V75.1852H102.306Z" fill="white"/>
<rect x="73.4302" y="79.1458" width="44.3667" height="8.19077" rx="1.36513" fill="#0C134F"/>
<path d="M88.0948 84.8272C87.8719 84.8272 87.676 84.7889 87.5072 84.7125C87.3383 84.636 87.195 84.5357 87.0771 84.4115C86.9625 84.2841 86.8749 84.1423 86.8144 83.9862C86.757 83.8302 86.7284 83.6709 86.7284 83.5084V83.4224C86.7284 83.26 86.7586 83.1007 86.8191 82.9446C86.8797 82.7854 86.9688 82.6436 87.0867 82.5194C87.2046 82.392 87.3479 82.2917 87.5167 82.2184C87.6855 82.1419 87.8782 82.1037 88.0948 82.1037C88.3114 82.1037 88.5042 82.1419 88.673 82.2184C88.8418 82.2917 88.9851 82.392 89.103 82.5194C89.2208 82.6436 89.31 82.7854 89.3706 82.9446C89.4311 83.1007 89.4613 83.26 89.4613 83.4224V83.5084C89.4613 83.6709 89.4311 83.8302 89.3706 83.9862C89.3132 84.1423 89.2256 84.2841 89.1078 84.4115C88.9931 84.5357 88.8514 84.636 88.6825 84.7125C88.5137 84.7889 88.3178 84.8272 88.0948 84.8272ZM88.0948 84.4162C88.286 84.4162 88.4484 84.3748 88.5822 84.292C88.7192 84.206 88.8227 84.0913 88.8928 83.948C88.966 83.8047 89.0027 83.6438 89.0027 83.4654C89.0027 83.2839 88.966 83.1214 88.8928 82.9781C88.8195 82.8347 88.7144 82.7217 88.5774 82.6389C88.4436 82.556 88.2828 82.5146 88.0948 82.5146C87.9101 82.5146 87.7492 82.556 87.6123 82.6389C87.4753 82.7217 87.3702 82.8347 87.2969 82.9781C87.2237 83.1214 87.187 83.2839 87.187 83.4654C87.187 83.6438 87.2221 83.8047 87.2921 83.948C87.3654 84.0913 87.4689 84.206 87.6027 84.292C87.7397 84.3748 87.9037 84.4162 88.0948 84.4162ZM90.1483 85.6967V82.1897H90.5114V83.2934L90.4254 83.2839C90.4414 83.0099 90.4987 82.787 90.5974 82.615C90.6994 82.4398 90.8316 82.3108 90.994 82.2279C91.1565 82.1451 91.3332 82.1037 91.5244 82.1037C91.7091 82.1037 91.8763 82.1388 92.0261 82.2088C92.1789 82.2789 92.3095 82.3745 92.4178 82.4955C92.5261 82.6166 92.609 82.7567 92.6663 82.916C92.7236 83.0752 92.7523 83.2441 92.7523 83.4224V83.5084C92.7523 83.6868 92.722 83.8556 92.6615 84.0149C92.601 84.1742 92.515 84.3143 92.4035 84.4354C92.2952 84.5564 92.1646 84.652 92.0117 84.722C91.862 84.7921 91.6964 84.8272 91.5148 84.8272C91.3332 84.8272 91.1597 84.7873 90.994 84.7077C90.8284 84.6281 90.6914 84.4991 90.5831 84.3207C90.4748 84.1423 90.4127 83.9082 90.3968 83.6183L90.607 84.0006V85.6967H90.1483ZM91.4431 84.4258C91.6151 84.4258 91.7649 84.386 91.8923 84.3064C92.0197 84.2235 92.1184 84.1105 92.1885 83.9671C92.2586 83.8206 92.2936 83.6534 92.2936 83.4654C92.2936 83.2743 92.2586 83.1071 92.1885 82.9638C92.1184 82.8204 92.0197 82.7089 91.8923 82.6293C91.7649 82.5465 91.6151 82.5051 91.4431 82.5051C91.2902 82.5051 91.1485 82.5401 91.0179 82.6102C90.8873 82.6771 90.7822 82.7758 90.7026 82.9064C90.6261 83.0338 90.5879 83.1883 90.5879 83.3699V83.5897C90.5879 83.7649 90.6277 83.9146 90.7073 84.0388C90.787 84.163 90.8921 84.2586 91.0227 84.3255C91.1533 84.3924 91.2934 84.4258 91.4431 84.4258ZM93.3183 83.6088V83.217H95.0957V83.6088H93.3183ZM97.3934 84.7411V83.9767H97.317V83.0928C97.317 82.9176 97.2708 82.7854 97.1784 82.6962C97.0892 82.607 96.957 82.5624 96.7818 82.5624C96.6831 82.5624 96.5812 82.564 96.476 82.5672C96.3709 82.5704 96.2706 82.5736 96.175 82.5767C96.0795 82.5799 95.9967 82.5847 95.9266 82.5911V82.1897C95.9967 82.1834 96.0699 82.1786 96.1464 82.1754C96.226 82.169 96.3072 82.1658 96.39 82.1658C96.4729 82.1627 96.5525 82.1611 96.6289 82.1611C96.8901 82.1611 97.1035 82.1929 97.2692 82.2566C97.4348 82.3171 97.5574 82.4175 97.6371 82.5576C97.7167 82.6978 97.7565 82.8873 97.7565 83.1262V84.7411H97.3934ZM96.5573 84.808C96.3661 84.808 96.2005 84.7762 96.0604 84.7125C95.9234 84.6456 95.8167 84.55 95.7402 84.4258C95.667 84.3016 95.6303 84.1519 95.6303 83.9767C95.6303 83.7951 95.6702 83.6438 95.7498 83.5228C95.8326 83.4017 95.9521 83.311 96.1081 83.2504C96.2642 83.1867 96.4521 83.1549 96.6719 83.1549H97.3647V83.4989H96.6528C96.4681 83.4989 96.3263 83.5435 96.2276 83.6327C96.1288 83.7219 96.0795 83.8365 96.0795 83.9767C96.0795 84.1168 96.1288 84.2299 96.2276 84.3159C96.3263 84.4019 96.4681 84.4449 96.6528 84.4449C96.7611 84.4449 96.8646 84.4258 96.9634 84.3876C97.0621 84.3462 97.1434 84.2793 97.2071 84.1869C97.274 84.0913 97.3106 83.9608 97.317 83.7951L97.4412 83.9767C97.4253 84.1582 97.3807 84.3111 97.3074 84.4354C97.2373 84.5564 97.1386 84.6488 97.0112 84.7125C96.8869 84.7762 96.7356 84.808 96.5573 84.808ZM99.6639 84.8272C99.4823 84.8272 99.3151 84.7937 99.1622 84.7268C99.0093 84.6599 98.8755 84.566 98.7608 84.4449C98.6493 84.3239 98.5617 84.1837 98.498 84.0245C98.4375 83.8652 98.4073 83.6932 98.4073 83.5084V83.4224C98.4073 83.2409 98.4375 83.0705 98.498 82.9112C98.5586 82.7519 98.643 82.6118 98.7513 82.4907C98.8628 82.3697 98.9934 82.2757 99.1431 82.2088C99.296 82.1388 99.4648 82.1037 99.6495 82.1037C99.8438 82.1037 100.021 82.1451 100.18 82.2279C100.339 82.3076 100.47 82.4334 100.572 82.6054C100.674 82.7774 100.731 83.0004 100.744 83.2743L100.553 82.9685V81.2532H101.011V84.7411H100.648V83.6088H100.782C100.769 83.8986 100.709 84.1344 100.6 84.3159C100.492 84.4943 100.355 84.6249 100.189 84.7077C100.027 84.7873 99.8518 84.8272 99.6639 84.8272ZM99.726 84.4258C99.8821 84.4258 100.024 84.3908 100.151 84.3207C100.279 84.2506 100.381 84.1503 100.457 84.0197C100.533 83.8859 100.572 83.7298 100.572 83.5514V83.3317C100.572 83.1565 100.532 83.0083 100.452 82.8873C100.376 82.7631 100.272 82.6691 100.142 82.6054C100.014 82.5385 99.8741 82.5051 99.7212 82.5051C99.5524 82.5051 99.4027 82.5449 99.2721 82.6245C99.1447 82.7042 99.0443 82.8156 98.9711 82.959C98.901 83.1023 98.8659 83.2711 98.8659 83.4654C98.8659 83.6597 98.9026 83.8302 98.9758 83.9767C99.0491 84.12 99.151 84.2315 99.2816 84.3111C99.4122 84.3876 99.5603 84.4258 99.726 84.4258ZM102.958 84.8272C102.776 84.8272 102.609 84.7937 102.456 84.7268C102.303 84.6599 102.17 84.566 102.055 84.4449C101.944 84.3239 101.856 84.1837 101.792 84.0245C101.732 83.8652 101.701 83.6932 101.701 83.5084V83.4224C101.701 83.2409 101.732 83.0705 101.792 82.9112C101.853 82.7519 101.937 82.6118 102.045 82.4907C102.157 82.3697 102.288 82.2757 102.437 82.2088C102.59 82.1388 102.759 82.1037 102.944 82.1037C103.138 82.1037 103.315 82.1451 103.474 82.2279C103.633 82.3076 103.764 82.4334 103.866 82.6054C103.968 82.7774 104.025 83.0004 104.038 83.2743L103.847 82.9685V81.2532H104.305V84.7411H103.942V83.6088H104.076C104.063 83.8986 104.003 84.1344 103.895 84.3159C103.786 84.4943 103.649 84.6249 103.484 84.7077C103.321 84.7873 103.146 84.8272 102.958 84.8272ZM103.02 84.4258C103.176 84.4258 103.318 84.3908 103.445 84.3207C103.573 84.2506 103.675 84.1503 103.751 84.0197C103.828 83.8859 103.866 83.7298 103.866 83.5514V83.3317C103.866 83.1565 103.826 83.0083 103.746 82.8873C103.67 82.7631 103.566 82.6691 103.436 82.6054C103.308 82.5385 103.168 82.5051 103.015 82.5051C102.847 82.5051 102.697 82.5449 102.566 82.6245C102.439 82.7042 102.338 82.8156 102.265 82.959C102.195 83.1023 102.16 83.2711 102.16 83.4654C102.16 83.6597 102.197 83.8302 102.27 83.9767C102.343 84.12 102.445 84.2315 102.576 84.3111C102.706 84.3876 102.855 84.4258 103.02 84.4258Z" fill="white"/>
<path d="M125.217 72.6144V72.1475H128.03V72.6144H125.217ZM125.217 73.7079V73.241H128.03V73.7079H125.217Z" fill="#0C134F"/>
<path d="M39.302 63.787V35.4606C39.302 32.4448 41.7468 30.0001 44.7625 30.0001H90.153C93.1688 30.0001 95.6135 32.4448 95.6135 35.4606V52.1834" stroke="#252525" stroke-width="0.341282" stroke-linecap="round" stroke-dasharray="1.71 1.71"/>
<path d="M39.3018 66.0061C40.15 66.0061 40.8376 65.3185 40.8376 64.4703C40.8376 63.6221 40.15 62.9345 39.3018 62.9345C38.4537 62.9345 37.7661 63.6221 37.7661 64.4703C37.7661 65.3185 38.4537 66.0061 39.3018 66.0061Z" fill="white" stroke="#252525" stroke-width="1.02385"/>
<path d="M95.2459 55.0235L93.6448 52.4476C93.4821 52.1859 93.5884 51.86 93.8264 51.7296C93.9648 51.6537 94.1312 51.6991 94.2797 51.7526L94.9199 51.9834C95.3687 52.1452 95.86 52.1452 96.3088 51.9834L96.949 51.7526C97.0975 51.6991 97.2639 51.6538 97.4023 51.7296C97.6366 51.8581 97.744 52.1761 97.5902 52.4372L96.0733 55.0131C95.886 55.3313 95.4407 55.3368 95.2459 55.0235Z" fill="#252525"/>
<mask id="path-18-inside-2_2862_8114" fill="white">
<path d="M186 46.3651C186 45.6112 186.611 45 187.365 45H239.24C239.994 45 240.605 45.6112 240.605 46.3651V91.4144C240.605 92.1683 239.994 92.7795 239.24 92.7795H187.365C186.611 92.7795 186 92.1683 186 91.4144V46.3651Z"/>
</mask>
<path d="M186 46.3651C186 45.6112 186.611 45 187.365 45H239.24C239.994 45 240.605 45.6112 240.605 46.3651V91.4144C240.605 92.1683 239.994 92.7795 239.24 92.7795H187.365C186.611 92.7795 186 92.1683 186 91.4144V46.3651Z" fill="white"/>
<path d="M186 45H240.605H186ZM242.653 91.4144C242.653 93.2992 241.125 94.8272 239.24 94.8272H187.365C185.48 94.8272 183.952 93.2992 183.952 91.4144L188.048 90.7318H238.557L242.653 91.4144ZM187.365 94.8272C185.48 94.8272 183.952 93.2992 183.952 91.4144V48.4128C183.952 46.528 185.48 45 187.365 45H188.048C188.048 45 188.048 45.6112 188.048 46.3651V90.7318L187.365 94.8272ZM239.24 45C241.125 45 242.653 46.528 242.653 48.4128V91.4144C242.653 93.2992 241.125 94.8272 239.24 94.8272L238.557 90.7318V46.3651C238.557 45.6112 238.557 45 238.557 45H239.24Z" fill="url(#paint1_linear_2862_8114)" fill-opacity="0.3" mask="url(#path-18-inside-2_2862_8114)"/>
<rect x="191.515" y="79.1456" width="44.3667" height="8.19077" rx="1.36513" fill="#1D267D"/>
<path d="M201.855 84.741V82.1895H202.314V84.741H201.855ZM201.463 82.5527V82.1895H202.314V82.5527H201.463ZM201.984 81.7786C201.882 81.7786 201.806 81.7516 201.755 81.6974C201.707 81.6433 201.683 81.5748 201.683 81.492C201.683 81.4091 201.707 81.3407 201.755 81.2865C201.806 81.2324 201.882 81.2053 201.984 81.2053C202.086 81.2053 202.161 81.2324 202.209 81.2865C202.26 81.3407 202.285 81.4091 202.285 81.492C202.285 81.5748 202.26 81.6433 202.209 81.6974C202.161 81.7516 202.086 81.7786 201.984 81.7786ZM204.194 84.7696C204.003 84.7696 203.838 84.7426 203.697 84.6884C203.56 84.6343 203.454 84.5419 203.377 84.4113C203.304 84.2775 203.267 84.0975 203.267 83.8714V81.4155H203.707V83.9287C203.707 84.0657 203.744 84.1724 203.817 84.2488C203.893 84.3221 204 84.3587 204.137 84.3587H204.586V84.7696H204.194ZM202.828 82.5336V82.1895H204.586V82.5336H202.828ZM206.301 84.827C206.078 84.827 205.885 84.7887 205.723 84.7123C205.56 84.6359 205.428 84.5355 205.326 84.4113C205.224 84.2839 205.148 84.1421 205.097 83.9861C205.049 83.83 205.025 83.6707 205.025 83.5083V83.4223C205.025 83.2566 205.049 83.0958 205.097 82.9397C205.148 82.7836 205.224 82.6434 205.326 82.5192C205.428 82.3918 205.557 82.2915 205.713 82.2182C205.872 82.1418 206.059 82.1035 206.272 82.1035C206.549 82.1035 206.777 82.1641 206.955 82.2851C207.137 82.403 207.271 82.5559 207.357 82.7438C207.446 82.9317 207.491 83.1324 207.491 83.3458V83.5513H205.226V83.2072H207.156L207.051 83.3936C207.051 83.212 207.022 83.0559 206.965 82.9253C206.908 82.7916 206.822 82.688 206.707 82.6148C206.592 82.5415 206.447 82.5049 206.272 82.5049C206.091 82.5049 205.939 82.5463 205.818 82.6291C205.7 82.7119 205.611 82.825 205.551 82.9683C205.493 83.1117 205.465 83.2773 205.465 83.4653C205.465 83.6468 205.493 83.8109 205.551 83.9574C205.611 84.1007 205.704 84.2154 205.828 84.3014C205.952 84.3842 206.11 84.4256 206.301 84.4256C206.502 84.4256 206.664 84.381 206.788 84.2918C206.916 84.2027 206.992 84.0991 207.018 83.9813H207.448C207.413 84.1565 207.342 84.3078 207.237 84.4352C207.132 84.5626 207 84.6597 206.841 84.7266C206.681 84.7935 206.502 84.827 206.301 84.827ZM208.142 84.741V82.1895H208.505V83.2837H208.448C208.448 83.0352 208.479 82.825 208.543 82.653C208.61 82.4778 208.709 82.344 208.839 82.2517C208.97 82.1593 209.136 82.1131 209.336 82.1131H209.355C209.556 82.1131 209.722 82.1593 209.852 82.2517C209.986 82.344 210.085 82.4778 210.149 82.653C210.212 82.825 210.244 83.0352 210.244 83.2837H210.11C210.11 83.0352 210.144 82.825 210.211 82.653C210.278 82.4778 210.376 82.344 210.507 82.2517C210.641 82.1593 210.808 82.1131 211.009 82.1131H211.028C211.228 82.1131 211.396 82.1593 211.529 82.2517C211.663 82.344 211.762 82.4778 211.826 82.653C211.892 82.825 211.926 83.0352 211.926 83.2837V84.741H211.467V83.1834C211.467 82.9763 211.416 82.817 211.314 82.7056C211.212 82.5909 211.071 82.5336 210.889 82.5336C210.701 82.5336 210.55 82.5941 210.435 82.7151C210.321 82.833 210.263 82.9986 210.263 83.212V84.741H209.805V83.1834C209.805 82.9763 209.754 82.817 209.652 82.7056C209.55 82.5909 209.408 82.5336 209.226 82.5336C209.038 82.5336 208.887 82.5941 208.772 82.7151C208.658 82.833 208.6 82.9986 208.6 83.212V84.741H208.142ZM212.642 83.6086V83.2168H214.419V83.6086H212.642ZM215.928 85.6106C215.76 85.4163 215.61 85.2044 215.479 84.9751C215.352 84.7489 215.253 84.4989 215.183 84.2249C215.113 83.9478 215.078 83.6404 215.078 83.3028C215.078 82.9652 215.113 82.6594 215.183 82.3854C215.256 82.1115 215.357 81.863 215.484 81.6401C215.615 81.4171 215.763 81.2148 215.928 81.0333H216.454C216.256 81.2467 216.088 81.4681 215.947 81.6974C215.81 81.9268 215.705 82.1736 215.632 82.438C215.562 82.6992 215.527 82.9875 215.527 83.3028C215.527 83.6181 215.562 83.9096 215.632 84.1772C215.702 84.4415 215.806 84.69 215.943 84.9225C216.083 85.1582 216.253 85.3876 216.454 85.6106H215.928ZM217.505 84.741V81.4824L217.715 81.6449H216.731V81.2531H217.964V84.741H217.505ZM219.75 84.2345V81.9602H220.142V84.2345H219.75ZM218.852 83.2789V82.9158H221.04V83.2789H218.852ZM221.718 84.741V84.1676C221.718 84.0275 221.737 83.908 221.775 83.8093C221.817 83.7105 221.887 83.6213 221.986 83.5417C222.084 83.4589 222.218 83.3793 222.387 83.3028L223.041 83.0018C223.201 82.9285 223.327 82.8346 223.419 82.7199C223.511 82.602 223.557 82.4507 223.557 82.266C223.557 82.043 223.495 81.8694 223.371 81.7452C223.247 81.621 223.072 81.5589 222.846 81.5589C222.623 81.5589 222.447 81.621 222.32 81.7452C222.193 81.8694 222.129 82.043 222.129 82.266H221.68C221.68 82.0653 221.721 81.8806 221.804 81.7117C221.89 81.5429 222.019 81.4091 222.191 81.3104C222.363 81.2085 222.581 81.1575 222.846 81.1575C223.11 81.1575 223.327 81.2085 223.495 81.3104C223.667 81.4091 223.795 81.5397 223.878 81.7022C223.964 81.8646 224.007 82.0414 224.007 82.2325V82.2994C224.007 82.5511 223.933 82.7629 223.787 82.9349C223.643 83.1069 223.449 83.2487 223.204 83.3601L222.549 83.6612C222.403 83.728 222.304 83.7949 222.253 83.8618C222.202 83.9287 222.177 84.0179 222.177 84.1294V84.569L222.052 84.3492H224.05V84.741H221.718ZM224.91 85.6106H224.385C224.586 85.3876 224.754 85.1582 224.891 84.9225C225.031 84.69 225.137 84.4415 225.207 84.1772C225.277 83.9096 225.312 83.6181 225.312 83.3028C225.312 82.9875 225.275 82.6992 225.202 82.438C225.132 82.1736 225.027 81.9268 224.887 81.6974C224.75 81.4681 224.582 81.2467 224.385 81.0333H224.91C225.076 81.2148 225.223 81.4171 225.35 81.6401C225.481 81.863 225.581 82.1115 225.651 82.3854C225.724 82.6594 225.761 82.9652 225.761 83.3028C225.761 83.6404 225.726 83.9478 225.656 84.2249C225.586 84.4989 225.485 84.7489 225.355 84.9751C225.227 85.2044 225.079 85.4163 224.91 85.6106Z" fill="white"/>
<rect x="135.373" y="69.7604" width="44.0254" height="7.84949" rx="1.19449" fill="#1D267D"/>
<path d="M145.543 75.1852V72.6338H146.002V75.1852H145.543ZM145.151 72.9969V72.6338H146.002V72.9969H145.151ZM145.672 72.2229C145.57 72.2229 145.494 72.1958 145.443 72.1416C145.395 72.0875 145.371 72.019 145.371 71.9362C145.371 71.8534 145.395 71.7849 145.443 71.7307C145.494 71.6766 145.57 71.6495 145.672 71.6495C145.774 71.6495 145.849 71.6766 145.897 71.7307C145.948 71.7849 145.973 71.8534 145.973 71.9362C145.973 72.019 145.948 72.0875 145.897 72.1416C145.849 72.1958 145.774 72.2229 145.672 72.2229ZM147.882 75.2138C147.691 75.2138 147.526 75.1868 147.385 75.1326C147.248 75.0785 147.142 74.9861 147.065 74.8555C146.992 74.7217 146.955 74.5418 146.955 74.3156V71.8597H147.395V74.3729C147.395 74.5099 147.432 74.6166 147.505 74.6931C147.581 74.7663 147.688 74.8029 147.825 74.8029H148.274V75.2138H147.882ZM146.516 72.9778V72.6338H148.274V72.9778H146.516ZM149.989 75.2712C149.766 75.2712 149.573 75.233 149.411 75.1565C149.248 75.0801 149.116 74.9797 149.014 74.8555C148.912 74.7281 148.836 74.5863 148.785 74.4303C148.737 74.2742 148.713 74.1149 148.713 73.9525V73.8665C148.713 73.7008 148.737 73.54 148.785 73.3839C148.836 73.2278 148.912 73.0877 149.014 72.9634C149.116 72.836 149.245 72.7357 149.401 72.6624C149.56 72.586 149.747 72.5478 149.96 72.5478C150.237 72.5478 150.465 72.6083 150.643 72.7293C150.825 72.8472 150.959 73.0001 151.045 73.188C151.134 73.3759 151.179 73.5766 151.179 73.79V73.9955H148.914V73.6515H150.844L150.739 73.8378C150.739 73.6562 150.71 73.5002 150.653 73.3696C150.596 73.2358 150.51 73.1323 150.395 73.059C150.28 72.9857 150.135 72.9491 149.96 72.9491C149.779 72.9491 149.627 72.9905 149.506 73.0733C149.388 73.1561 149.299 73.2692 149.239 73.4126C149.181 73.5559 149.153 73.7215 149.153 73.9095C149.153 74.091 149.181 74.2551 149.239 74.4016C149.299 74.5449 149.392 74.6596 149.516 74.7456C149.64 74.8284 149.798 74.8698 149.989 74.8698C150.19 74.8698 150.352 74.8252 150.476 74.7361C150.604 74.6469 150.68 74.5433 150.706 74.4255H151.136C151.1 74.6007 151.03 74.752 150.925 74.8794C150.82 75.0068 150.688 75.104 150.529 75.1708C150.369 75.2377 150.19 75.2712 149.989 75.2712ZM151.83 75.1852V72.6338H152.193V73.7279H152.136C152.136 73.4795 152.167 73.2692 152.231 73.0972C152.298 72.922 152.397 72.7882 152.527 72.6959C152.658 72.6035 152.824 72.5573 153.024 72.5573H153.043C153.244 72.5573 153.41 72.6035 153.54 72.6959C153.674 72.7882 153.773 72.922 153.837 73.0972C153.9 73.2692 153.932 73.4795 153.932 73.7279H153.798C153.798 73.4795 153.832 73.2692 153.899 73.0972C153.966 72.922 154.064 72.7882 154.195 72.6959C154.329 72.6035 154.496 72.5573 154.697 72.5573H154.716C154.916 72.5573 155.084 72.6035 155.217 72.6959C155.351 72.7882 155.45 72.922 155.514 73.0972C155.58 73.2692 155.614 73.4795 155.614 73.7279V75.1852H155.155V73.6276C155.155 73.4205 155.104 73.2613 155.002 73.1498C154.9 73.0351 154.759 72.9778 154.577 72.9778C154.389 72.9778 154.238 73.0383 154.123 73.1593C154.009 73.2772 153.951 73.4428 153.951 73.6562V75.1852H153.493V73.6276C153.493 73.4205 153.442 73.2613 153.34 73.1498C153.238 73.0351 153.096 72.9778 152.914 72.9778C152.726 72.9778 152.575 73.0383 152.46 73.1593C152.346 73.2772 152.288 73.4428 152.288 73.6562V75.1852H151.83ZM156.33 74.0528V73.661H158.107V74.0528H156.33ZM159.616 76.0548C159.447 75.8605 159.298 75.6486 159.167 75.4193C159.04 75.1931 158.941 74.9431 158.871 74.6692C158.801 74.392 158.766 74.0847 158.766 73.747C158.766 73.4094 158.801 73.1036 158.871 72.8297C158.944 72.5557 159.045 72.3073 159.172 72.0843C159.303 71.8613 159.451 71.6591 159.616 71.4775H160.142C159.944 71.6909 159.776 71.9123 159.635 72.1416C159.498 72.371 159.393 72.6178 159.32 72.8822C159.25 73.1434 159.215 73.4317 159.215 73.747C159.215 74.0624 159.25 74.3538 159.32 74.6214C159.39 74.8858 159.494 75.1342 159.631 75.3667C159.771 75.6025 159.941 75.8318 160.142 76.0548H159.616ZM161.193 75.1852V71.9266L161.403 72.0891H160.419V71.6973H161.652V75.1852H161.193ZM163.438 74.6787V72.4044H163.83V74.6787H163.438ZM162.54 73.7231V73.36H164.728V73.7231H162.54ZM165.406 75.1852V74.6118C165.406 74.4717 165.425 74.3522 165.463 74.2535C165.505 74.1547 165.575 74.0655 165.674 73.9859C165.772 73.9031 165.906 73.8235 166.075 73.747L166.729 73.446C166.889 73.3727 167.015 73.2788 167.107 73.1641C167.199 73.0463 167.245 72.895 167.245 72.7102C167.245 72.4872 167.183 72.3136 167.059 72.1894C166.935 72.0652 166.76 72.0031 166.534 72.0031C166.311 72.0031 166.135 72.0652 166.008 72.1894C165.881 72.3136 165.817 72.4872 165.817 72.7102H165.368C165.368 72.5095 165.409 72.3248 165.492 72.156C165.578 71.9871 165.707 71.8534 165.879 71.7546C166.051 71.6527 166.269 71.6017 166.534 71.6017C166.798 71.6017 167.015 71.6527 167.183 71.7546C167.355 71.8534 167.483 71.984 167.566 72.1464C167.652 72.3089 167.695 72.4856 167.695 72.6768V72.7436C167.695 72.9953 167.621 73.2071 167.475 73.3791C167.331 73.5511 167.137 73.6929 166.892 73.8044L166.237 74.1054C166.091 74.1723 165.992 74.2391 165.941 74.306C165.89 74.3729 165.865 74.4621 165.865 74.5736V75.0132L165.74 74.7934H167.738V75.1852H165.406ZM168.598 76.0548H168.073C168.274 75.8318 168.442 75.6025 168.579 75.3667C168.719 75.1342 168.825 74.8858 168.895 74.6214C168.965 74.3538 169 74.0624 169 73.747C169 73.4317 168.963 73.1434 168.89 72.8822C168.82 72.6178 168.715 72.371 168.575 72.1416C168.438 71.9123 168.27 71.6909 168.073 71.4775H168.598C168.764 71.6591 168.911 71.8613 169.038 72.0843C169.169 72.3073 169.269 72.5557 169.339 72.8297C169.412 73.1036 169.449 73.4094 169.449 73.747C169.449 74.0847 169.414 74.392 169.344 74.6692C169.274 74.9431 169.173 75.1931 169.043 75.4193C168.915 75.6486 168.767 75.8605 168.598 76.0548Z" fill="white"/>
<rect x="135.373" y="69.7604" width="44.0254" height="7.84949" rx="1.19449" stroke="#0C134F" stroke-width="0.341282"/>
<path d="M158.409 63.7869V35.4605C158.409 32.4448 160.854 30 163.87 30H209.26C212.276 30 214.721 32.4448 214.721 35.4605V59.5887" stroke="#252525" stroke-width="0.341282" stroke-linecap="round" stroke-dasharray="1.71 1.71"/>
<path d="M158.409 66.005C159.257 66.005 159.945 65.3174 159.945 64.4692C159.945 63.621 159.257 62.9334 158.409 62.9334C157.561 62.9334 156.873 63.621 156.873 64.4692C156.873 65.3174 157.561 66.005 158.409 66.005Z" fill="white" stroke="#252525" stroke-width="1.02385"/>
<path d="M214.353 62.0869L212.752 59.511C212.589 59.2493 212.696 58.9234 212.934 58.793C213.072 58.7171 213.238 58.7625 213.387 58.816L214.027 59.0468C214.476 59.2086 214.967 59.2086 215.416 59.0468L216.056 58.816C216.205 58.7625 216.371 58.7172 216.509 58.7931C216.744 58.9215 216.851 59.2395 216.697 59.5007L215.181 62.0765C214.993 62.3947 214.548 62.4003 214.353 62.0869Z" fill="#252525"/>
<defs>
<linearGradient id="paint0_linear_2862_8114" x1="10.0628" y1="40.5821" x2="42.3579" y2="108.99" gradientUnits="userSpaceOnUse">
<stop stop-color="#662B64"/>
<stop offset="1" stop-color="#456F97"/>
</linearGradient>
<linearGradient id="paint1_linear_2862_8114" x1="184.063" y1="40.9067" x2="216.358" y2="109.315" gradientUnits="userSpaceOnUse">
<stop stop-color="#662B64"/>
<stop offset="1" stop-color="#456F97"/>
</linearGradient>
</defs>
</svg>
