<svg width="253" height="123" viewBox="0 0 253 123" fill="none" xmlns="http://www.w3.org/2000/svg">
<rect width="253" height="123" rx="10" fill="#F4F4F4"/>
<mask id="path-2-inside-1_2687_8046" fill="white">
<path d="M12 46.0405C12 45.2865 12.6112 44.6754 13.3651 44.6754H65.24C65.9939 44.6754 66.6051 45.2865 66.6051 46.0405V91.0897C66.6051 91.8437 65.9939 92.4548 65.24 92.4548H13.3651C12.6112 92.4548 12 91.8437 12 91.0897V46.0405Z"/>
</mask>
<path d="M12 46.0405C12 45.2865 12.6112 44.6754 13.3651 44.6754H65.24C65.9939 44.6754 66.6051 45.2865 66.6051 46.0405V91.0897C66.6051 91.8437 65.9939 92.4548 65.24 92.4548H13.3651C12.6112 92.4548 12 91.8437 12 91.0897V46.0405Z" fill="white"/>
<path d="M12 44.6754H66.6051H12ZM68.6528 91.0897C68.6528 92.9746 67.1248 94.5025 65.24 94.5025H13.3651C11.4803 94.5025 9.95231 92.9746 9.95231 91.0897L14.0477 90.4071H64.5574L68.6528 91.0897ZM13.3651 94.5025C11.4803 94.5025 9.95231 92.9746 9.95231 91.0897V48.0882C9.95231 46.2033 11.4803 44.6754 13.3651 44.6754H14.0477C14.0477 44.6754 14.0477 45.2865 14.0477 46.0405V90.4071L13.3651 94.5025ZM65.24 44.6754C67.1248 44.6754 68.6528 46.2033 68.6528 48.0882V91.0897C68.6528 92.9746 67.1248 94.5025 65.24 94.5025L64.5574 90.4071V46.0405C64.5574 45.2865 64.5574 44.6754 64.5574 44.6754H65.24Z" fill="url(#paint0_linear_2687_8046)" fill-opacity="0.3" mask="url(#path-2-inside-1_2687_8046)"/>
<rect x="17.1191" y="79.1456" width="44.3667" height="8.19077" rx="1.36513" fill="#1D267D"/>
<path d="M29.0991 84.827C28.8092 84.827 28.5624 84.7792 28.3585 84.6836C28.1547 84.5881 27.9986 84.4559 27.8903 84.2871C27.782 84.1182 27.7278 83.9271 27.7278 83.7137H28.1961C28.1961 83.8188 28.2232 83.9239 28.2773 84.0291C28.3346 84.1342 28.4286 84.2218 28.5592 84.2918C28.693 84.3619 28.873 84.397 29.0991 84.397C29.3093 84.397 29.4813 84.3667 29.6151 84.3062C29.7489 84.2425 29.8477 84.1612 29.9114 84.0625C29.9751 83.9606 30.0069 83.8507 30.0069 83.7328C30.0069 83.5895 29.9448 83.4716 29.8206 83.3793C29.6964 83.2837 29.5148 83.2248 29.2759 83.2025L28.8889 83.169C28.5799 83.1435 28.333 83.048 28.1483 82.8823C27.9635 82.7167 27.8712 82.4985 27.8712 82.2278C27.8712 82.0144 27.9221 81.828 28.0241 81.6687C28.1292 81.5095 28.2741 81.3853 28.4589 81.2961C28.6436 81.2037 28.8586 81.1575 29.1039 81.1575C29.346 81.1575 29.5594 81.2021 29.7441 81.2913C29.9289 81.3805 30.0722 81.5063 30.1741 81.6687C30.2793 81.828 30.3318 82.0191 30.3318 82.2421H29.8636C29.8636 82.1306 29.8365 82.0255 29.7824 81.9268C29.7314 81.828 29.6502 81.7468 29.5387 81.6831C29.4272 81.6194 29.2823 81.5875 29.1039 81.5875C28.9319 81.5875 28.7885 81.6178 28.6739 81.6783C28.5624 81.7388 28.478 81.8185 28.4206 81.9172C28.3665 82.0128 28.3394 82.1163 28.3394 82.2278C28.3394 82.3552 28.3888 82.4683 28.4875 82.567C28.5863 82.6657 28.7328 82.7231 28.9271 82.739L29.3141 82.7725C29.553 82.7916 29.7585 82.8425 29.9305 82.9253C30.1057 83.005 30.2394 83.1133 30.3318 83.2502C30.4274 83.384 30.4752 83.5449 30.4752 83.7328C30.4752 83.9462 30.4178 84.1358 30.3032 84.3014C30.1885 84.467 30.0276 84.596 29.8206 84.6884C29.6135 84.7808 29.373 84.827 29.0991 84.827ZM31.3182 84.741V82.1895H31.7769V84.741H31.3182ZM30.9264 82.5527V82.1895H31.7769V82.5527H30.9264ZM31.4472 81.7786C31.3453 81.7786 31.2689 81.7516 31.2179 81.6974C31.1701 81.6433 31.1462 81.5748 31.1462 81.492C31.1462 81.4091 31.1701 81.3407 31.2179 81.2865C31.2689 81.2324 31.3453 81.2053 31.4472 81.2053C31.5492 81.2053 31.624 81.2324 31.6718 81.2865C31.7228 81.3407 31.7483 81.4091 31.7483 81.492C31.7483 81.5748 31.7228 81.6433 31.6718 81.6974C31.624 81.7516 31.5492 81.7786 31.4472 81.7786ZM33.6289 85.7348C33.5111 85.7348 33.3916 85.73 33.2706 85.7204C33.1527 85.7109 33.0397 85.6981 32.9314 85.6822V85.2952C33.046 85.3111 33.1655 85.3239 33.2897 85.3334C33.4171 85.3462 33.5366 85.3525 33.648 85.3525C33.8806 85.3525 34.0653 85.3207 34.2023 85.257C34.3424 85.1965 34.4428 85.0993 34.5033 84.9655C34.567 84.8349 34.5989 84.6661 34.5989 84.4591V83.9717L34.7518 83.6086C34.7422 83.8666 34.6881 84.0816 34.5893 84.2536C34.4906 84.4224 34.3616 84.5498 34.2023 84.6359C34.0462 84.7187 33.8726 84.7601 33.6815 84.7601C33.5031 84.7601 33.3391 84.7266 33.1894 84.6597C33.0428 84.5897 32.9154 84.4941 32.8071 84.3731C32.702 84.252 32.6192 84.1135 32.5587 83.9574C32.5013 83.7981 32.4727 83.6309 32.4727 83.4557V83.3697C32.4727 83.1913 32.5029 83.0257 32.5635 82.8728C32.624 82.7167 32.7084 82.5813 32.8167 82.4667C32.925 82.352 33.054 82.2628 33.2037 82.1991C33.3566 82.1354 33.5238 82.1035 33.7054 82.1035C33.9188 82.1035 34.1067 82.1497 34.2692 82.2421C34.4316 82.3313 34.559 82.4635 34.6514 82.6387C34.747 82.8107 34.7995 83.0225 34.8091 83.2741L34.6753 83.2789V82.1895H35.0384V84.44C35.0384 84.7457 34.9907 84.9926 34.8951 85.1805C34.8027 85.3717 34.653 85.5118 34.446 85.601C34.2421 85.6902 33.9698 85.7348 33.6289 85.7348ZM33.7675 84.3396C33.9204 84.3396 34.059 84.3062 34.1832 84.2393C34.3106 84.1724 34.4109 84.0768 34.4842 83.9526C34.5606 83.8252 34.5989 83.6739 34.5989 83.4987V83.2789C34.5989 83.1069 34.559 82.962 34.4794 82.8441C34.403 82.7263 34.3026 82.6371 34.1784 82.5766C34.0542 82.516 33.9188 82.4858 33.7723 82.4858C33.6066 82.4858 33.4601 82.524 33.3327 82.6004C33.2053 82.6769 33.1065 82.7852 33.0365 82.9253C32.9664 83.0623 32.9314 83.2248 32.9314 83.4127C32.9314 83.6006 32.9664 83.7647 33.0365 83.9048C33.1097 84.045 33.2085 84.1533 33.3327 84.2297C33.4601 84.303 33.605 84.3396 33.7675 84.3396ZM35.888 84.741V82.1895H36.2511V83.2837H36.1938C36.1938 83.0321 36.2272 82.8202 36.2941 82.6482C36.3642 82.473 36.4693 82.3408 36.6094 82.2517C36.7496 82.1593 36.9264 82.1131 37.1398 82.1131H37.1589C37.4806 82.1131 37.7179 82.2134 37.8708 82.4141C38.0269 82.6148 38.1049 82.9046 38.1049 83.2837V84.741H37.6463V83.1881C37.6463 82.9906 37.5905 82.833 37.479 82.7151C37.3675 82.5941 37.2147 82.5336 37.0203 82.5336C36.8197 82.5336 36.6572 82.5957 36.533 82.7199C36.4088 82.8441 36.3467 83.0098 36.3467 83.2168V84.741H35.888ZM40.4875 84.741V83.9765H40.411V83.0926C40.411 82.9174 40.3648 82.7852 40.2725 82.696C40.1833 82.6068 40.0511 82.5622 39.8759 82.5622C39.7771 82.5622 39.6752 82.5638 39.5701 82.567C39.465 82.5702 39.3646 82.5734 39.2691 82.5766C39.1735 82.5797 39.0907 82.5845 39.0206 82.5909V82.1895C39.0907 82.1832 39.164 82.1784 39.2404 82.1752C39.32 82.1688 39.4013 82.1657 39.4841 82.1657C39.5669 82.1625 39.6465 82.1609 39.723 82.1609C39.9842 82.1609 40.1976 82.1927 40.3632 82.2564C40.5289 82.317 40.6515 82.4173 40.7311 82.5574C40.8108 82.6976 40.8506 82.8871 40.8506 83.126V84.741H40.4875ZM39.6513 84.8079C39.4602 84.8079 39.2946 84.776 39.1544 84.7123C39.0174 84.6454 38.9107 84.5498 38.8343 84.4256C38.761 84.3014 38.7244 84.1517 38.7244 83.9765C38.7244 83.7949 38.7642 83.6436 38.8438 83.5226C38.9267 83.4015 39.0461 83.3108 39.2022 83.2502C39.3583 83.1865 39.5462 83.1547 39.766 83.1547H40.4588V83.4987H39.7469C39.5621 83.4987 39.4204 83.5433 39.3216 83.6325C39.2229 83.7217 39.1735 83.8363 39.1735 83.9765C39.1735 84.1166 39.2229 84.2297 39.3216 84.3157C39.4204 84.4017 39.5621 84.4447 39.7469 84.4447C39.8552 84.4447 39.9587 84.4256 40.0574 84.3874C40.1562 84.346 40.2374 84.2791 40.3011 84.1867C40.368 84.0912 40.4046 83.9606 40.411 83.7949L40.5352 83.9765C40.5193 84.1581 40.4747 84.311 40.4015 84.4352C40.3314 84.5562 40.2326 84.6486 40.1052 84.7123C39.981 84.776 39.8297 84.8079 39.6513 84.8079ZM42.6862 84.7696C42.4951 84.7696 42.3295 84.7426 42.1893 84.6884C42.0524 84.6343 41.9457 84.5419 41.8692 84.4113C41.796 84.2775 41.7593 84.0975 41.7593 83.8714V81.4155H42.1989V83.9287C42.1989 84.0657 42.2355 84.1724 42.3088 84.2488C42.3852 84.3221 42.4919 84.3587 42.6289 84.3587H43.078V84.7696H42.6862ZM41.3198 82.5336V82.1895H43.078V82.5336H41.3198ZM44.6107 84.8174C44.3081 84.8174 44.0756 84.7187 43.9131 84.5212C43.7507 84.3237 43.6695 84.0386 43.6695 83.6659V82.1848H44.1281V83.7567C44.1281 83.9574 44.1823 84.1151 44.2906 84.2297C44.3989 84.3412 44.5454 84.397 44.7302 84.397C44.9213 84.397 45.0774 84.3364 45.1984 84.2154C45.3194 84.0912 45.38 83.9223 45.38 83.7089V82.1848H45.8386V84.741H45.4755V83.6468H45.5329C45.5329 83.8985 45.4994 84.1119 45.4325 84.2871C45.3656 84.4591 45.2653 84.5913 45.1315 84.6836C45.0009 84.7728 44.8337 84.8174 44.6298 84.8174H44.6107ZM46.727 84.741V82.1895H47.0901V83.2407H47.071C47.071 82.868 47.1522 82.5957 47.3147 82.4237C47.4803 82.2485 47.7272 82.1609 48.0553 82.1609H48.1413V82.5718H47.9788C47.724 82.5718 47.5281 82.6403 47.3911 82.7772C47.2542 82.911 47.1857 83.1053 47.1857 83.3601V84.741H46.727ZM49.7433 84.827C49.5203 84.827 49.3276 84.7887 49.1652 84.7123C49.0027 84.6359 48.8705 84.5355 48.7686 84.4113C48.6667 84.2839 48.5902 84.1421 48.5393 83.9861C48.4915 83.83 48.4676 83.6707 48.4676 83.5083V83.4223C48.4676 83.2566 48.4915 83.0958 48.5393 82.9397C48.5902 82.7836 48.6667 82.6434 48.7686 82.5192C48.8705 82.3918 48.9995 82.2915 49.1556 82.2182C49.3149 82.1418 49.5012 82.1035 49.7146 82.1035C49.9918 82.1035 50.2195 82.1641 50.3979 82.2851C50.5795 82.403 50.7132 82.5559 50.7992 82.7438C50.8884 82.9317 50.933 83.1324 50.933 83.3458V83.5513H48.6683V83.2072H50.5986L50.4935 83.3936C50.4935 83.212 50.4648 83.0559 50.4075 82.9253C50.3501 82.7916 50.2641 82.688 50.1494 82.6148C50.0348 82.5415 49.8898 82.5049 49.7146 82.5049C49.5331 82.5049 49.3818 82.5463 49.2607 82.6291C49.1429 82.7119 49.0537 82.825 48.9932 82.9683C48.9358 83.1117 48.9072 83.2773 48.9072 83.4653C48.9072 83.6468 48.9358 83.8109 48.9932 83.9574C49.0537 84.1007 49.1461 84.2154 49.2703 84.3014C49.3945 84.3842 49.5522 84.4256 49.7433 84.4256C49.944 84.4256 50.1064 84.381 50.2307 84.2918C50.3581 84.2027 50.4345 84.0991 50.46 83.9813H50.89C50.855 84.1565 50.7849 84.3078 50.6798 84.4352C50.5747 84.5626 50.4425 84.6597 50.2832 84.7266C50.124 84.7935 49.944 84.827 49.7433 84.827Z" fill="white"/>
<rect x="17.1191" y="69.5898" width="44.3667" height="8.19077" rx="1.36513" fill="#5C469C"/>
<path d="M27.0889 73.9716V73.5607H27.8677C28.0334 73.5607 28.1703 73.5288 28.2786 73.4651C28.3869 73.3982 28.4682 73.309 28.5223 73.1976C28.5797 73.0861 28.6083 72.9618 28.6083 72.8249C28.6083 72.6847 28.5797 72.5589 28.5223 72.4474C28.4682 72.3359 28.3869 72.2483 28.2786 72.1846C28.1703 72.1209 28.0334 72.0891 27.8677 72.0891H27.0889V71.6782H27.7817C28.0684 71.6782 28.3073 71.7244 28.4984 71.8167C28.6927 71.9059 28.8393 72.0333 28.938 72.199C29.0367 72.3646 29.0861 72.5605 29.0861 72.7867V72.8631C29.0861 73.0861 29.0367 73.282 28.938 73.4508C28.8393 73.6164 28.6927 73.7454 28.4984 73.8378C28.3073 73.927 28.0684 73.9716 27.7817 73.9716H27.0889ZM26.7163 75.1852V71.6782H27.1845V75.1852H26.7163ZM30.5895 75.2616C30.2869 75.2616 30.0544 75.1629 29.8919 74.9654C29.7295 74.7679 29.6482 74.4828 29.6482 74.1101V72.629H30.1069V74.2009C30.1069 74.4016 30.1611 74.5593 30.2694 74.6739C30.3777 74.7854 30.5242 74.8412 30.7089 74.8412C30.9001 74.8412 31.0561 74.7806 31.1772 74.6596C31.2982 74.5354 31.3587 74.3666 31.3587 74.1531V72.629H31.8174V75.1852H31.4543V74.091H31.5116C31.5116 74.3427 31.4782 74.5561 31.4113 74.7313C31.3444 74.9033 31.2441 75.0355 31.1103 75.1278C30.9797 75.217 30.8125 75.2616 30.6086 75.2616H30.5895ZM34.0532 75.2712C33.8429 75.2712 33.655 75.225 33.4894 75.1326C33.3269 75.0402 33.1979 74.9065 33.1024 74.7313C33.0068 74.5529 32.9542 74.3395 32.9447 74.091H33.0689V75.1852H32.7058V71.6973H33.1645V73.3934L33.002 73.7422C33.0148 73.4651 33.0705 73.239 33.1692 73.0638C33.268 72.8886 33.397 72.7596 33.5563 72.6768C33.7187 72.5908 33.8971 72.5478 34.0914 72.5478C34.273 72.5478 34.4386 72.5828 34.5883 72.6529C34.738 72.7198 34.867 72.8137 34.9753 72.9348C35.0836 73.0526 35.1664 73.1912 35.2238 73.3504C35.2811 73.5065 35.3098 73.6753 35.3098 73.8569V73.9429C35.3098 74.1245 35.2795 74.2949 35.219 74.4542C35.1617 74.6134 35.0772 74.7552 34.9658 74.8794C34.8543 75.0004 34.7205 75.096 34.5644 75.1661C34.4115 75.2361 34.2411 75.2712 34.0532 75.2712ZM34.0006 74.8698C34.1726 74.8698 34.3223 74.8284 34.4497 74.7456C34.5771 74.6628 34.6759 74.5497 34.746 74.4064C34.816 74.2599 34.8511 74.091 34.8511 73.8999C34.8511 73.7088 34.8145 73.5416 34.7412 73.3982C34.6711 73.2549 34.5724 73.145 34.445 73.0685C34.3175 72.9889 34.1694 72.9491 34.0006 72.9491C33.8477 72.9491 33.706 72.9841 33.5754 73.0542C33.4448 73.1211 33.3397 73.2199 33.26 73.3504C33.1836 73.4779 33.1454 73.6323 33.1454 73.8139V74.0337C33.1454 74.2089 33.1852 74.3586 33.2648 74.4828C33.3444 74.607 33.4496 74.7026 33.5802 74.7695C33.7107 74.8364 33.8509 74.8698 34.0006 74.8698ZM36.0286 75.1852V71.6973H36.4873V75.1852H36.0286ZM35.6751 72.0604V71.6973H36.4873V72.0604H35.6751ZM37.4913 75.1852V72.6338H37.95V75.1852H37.4913ZM37.0995 72.9969V72.6338H37.95V72.9969H37.0995ZM37.6203 72.2229C37.5184 72.2229 37.4419 72.1958 37.391 72.1416C37.3432 72.0875 37.3193 72.019 37.3193 71.9362C37.3193 71.8534 37.3432 71.7849 37.391 71.7307C37.4419 71.6766 37.5184 71.6495 37.6203 71.6495C37.7222 71.6495 37.7971 71.6766 37.8449 71.7307C37.8958 71.7849 37.9213 71.8534 37.9213 71.9362C37.9213 72.019 37.8958 72.0875 37.8449 72.1416C37.7971 72.1958 37.7222 72.2229 37.6203 72.2229ZM39.931 75.2712C39.7112 75.2712 39.5201 75.233 39.3577 75.1565C39.1984 75.0801 39.0662 74.9781 38.9611 74.8507C38.856 74.7201 38.7763 74.5768 38.7222 74.4207C38.6712 74.2646 38.6457 74.1085 38.6457 73.9525V73.8665C38.6457 73.704 38.6712 73.5448 38.7222 73.3887C38.7763 73.2326 38.856 73.0924 38.9611 72.9682C39.0694 72.8408 39.2032 72.7389 39.3624 72.6624C39.5217 72.586 39.708 72.5478 39.9215 72.5478C40.1349 72.5478 40.326 72.5876 40.4948 72.6672C40.6668 72.7468 40.8038 72.8599 40.9057 73.0064C41.0108 73.1498 41.0698 73.3202 41.0825 73.5177H40.6429C40.6206 73.3584 40.5474 73.2262 40.4231 73.1211C40.2989 73.0128 40.1317 72.9587 39.9215 72.9587C39.7399 72.9587 39.5886 73.0001 39.4676 73.0829C39.3465 73.1657 39.2557 73.2788 39.1952 73.4221C39.1347 73.5655 39.1044 73.7279 39.1044 73.9095C39.1044 74.0847 39.1347 74.2455 39.1952 74.392C39.2557 74.5354 39.3465 74.6501 39.4676 74.7361C39.5918 74.8189 39.7463 74.8603 39.931 74.8603C40.0744 74.8603 40.1986 74.8348 40.3037 74.7838C40.4088 74.7329 40.4932 74.6644 40.5569 74.5784C40.6206 74.4924 40.6589 74.3952 40.6716 74.2869H41.1112C41.1016 74.4876 41.0427 74.6612 40.9344 74.8077C40.8293 74.9542 40.6891 75.0689 40.5139 75.1517C40.3419 75.2314 40.1476 75.2712 39.931 75.2712ZM41.6009 74.0528V73.661H43.3783V74.0528H41.6009ZM46.3975 75.1852L44.9784 73.5559H44.4672L46.0869 71.6973H46.622L45.1504 73.3791L45.1074 73.0494L46.9804 75.1852H46.3975ZM44.1996 75.1852V71.6973H44.6679V75.1852H44.1996ZM48.3995 75.2712C48.1765 75.2712 47.9838 75.233 47.8214 75.1565C47.6589 75.0801 47.5267 74.9797 47.4248 74.8555C47.3229 74.7281 47.2464 74.5863 47.1955 74.4303C47.1477 74.2742 47.1238 74.1149 47.1238 73.9525V73.8665C47.1238 73.7008 47.1477 73.54 47.1955 73.3839C47.2464 73.2278 47.3229 73.0877 47.4248 72.9634C47.5267 72.836 47.6557 72.7357 47.8118 72.6624C47.9711 72.586 48.1574 72.5478 48.3708 72.5478C48.648 72.5478 48.8757 72.6083 49.0541 72.7293C49.2357 72.8472 49.3694 73.0001 49.4554 73.188C49.5446 73.3759 49.5892 73.5766 49.5892 73.79V73.9955H47.3245V73.6515H49.2548L49.1497 73.8378C49.1497 73.6562 49.121 73.5002 49.0637 73.3696C49.0063 73.2358 48.9203 73.1323 48.8056 73.059C48.691 72.9857 48.546 72.9491 48.3708 72.9491C48.1893 72.9491 48.038 72.9905 47.9169 73.0733C47.7991 73.1561 47.7099 73.2692 47.6494 73.4126C47.592 73.5559 47.5634 73.7215 47.5634 73.9095C47.5634 74.091 47.592 74.2551 47.6494 74.4016C47.7099 74.5449 47.8023 74.6596 47.9265 74.7456C48.0507 74.8284 48.2084 74.8698 48.3995 74.8698C48.6002 74.8698 48.7626 74.8252 48.8869 74.7361C49.0143 74.6469 49.0907 74.5433 49.1162 74.4255H49.5462C49.5112 74.6007 49.4411 74.752 49.336 74.8794C49.2309 75.0068 49.0987 75.104 48.9394 75.1708C48.7802 75.2377 48.6002 75.2712 48.3995 75.2712ZM50.0498 76.179V75.7681H50.4177C50.526 75.7681 50.6168 75.7538 50.6901 75.7251C50.7665 75.6996 50.8286 75.655 50.8764 75.5913C50.9274 75.5276 50.9688 75.4432 51.0006 75.3381L51.8033 72.6338H52.2524L51.402 75.4575C51.351 75.6263 51.2793 75.7633 51.187 75.8684C51.0946 75.9767 50.9815 76.0548 50.8477 76.1025C50.7171 76.1535 50.5642 76.179 50.389 76.179H50.0498ZM50.8286 75.1278V74.7456H51.3829V75.1278H50.8286ZM50.7808 75.1278L49.8683 72.6338H50.3365L51.2109 75.1278H50.7808Z" fill="white"/>
<rect x="73.4302" y="60.034" width="44.3667" height="8.19077" rx="1.36513" fill="#5C469C"/>
<path d="M83.4 64.4158V64.0049H84.1788C84.3444 64.0049 84.4814 63.973 84.5897 63.9093C84.698 63.8424 84.7792 63.7532 84.8334 63.6417C84.8907 63.5303 84.9194 63.406 84.9194 63.2691C84.9194 63.1289 84.8907 63.0031 84.8334 62.8916C84.7792 62.7801 84.698 62.6925 84.5897 62.6288C84.4814 62.5651 84.3444 62.5333 84.1788 62.5333H83.4V62.1223H84.0928C84.3794 62.1223 84.6183 62.1685 84.8095 62.2609C85.0038 62.3501 85.1503 62.4775 85.249 62.6431C85.3478 62.8088 85.3972 63.0047 85.3972 63.2308V63.3073C85.3972 63.5303 85.3478 63.7261 85.249 63.895C85.1503 64.0606 85.0038 64.1896 84.8095 64.282C84.6183 64.3712 84.3794 64.4158 84.0928 64.4158H83.4ZM83.0273 65.6294V62.1223H83.4955V65.6294H83.0273ZM86.9005 65.7058C86.5979 65.7058 86.3654 65.6071 86.2029 65.4096C86.0405 65.2121 85.9593 64.927 85.9593 64.5543V63.0732H86.418V64.6451C86.418 64.8458 86.4721 65.0035 86.5804 65.1181C86.6887 65.2296 86.8352 65.2854 87.02 65.2854C87.2111 65.2854 87.3672 65.2248 87.4882 65.1038C87.6093 64.9796 87.6698 64.8107 87.6698 64.5973V63.0732H88.1285V65.6294H87.7653V64.5352H87.8227C87.8227 64.7869 87.7892 65.0003 87.7223 65.1755C87.6554 65.3475 87.5551 65.4797 87.4213 65.572C87.2907 65.6612 87.1235 65.7058 86.9196 65.7058H86.9005ZM90.3642 65.7154C90.154 65.7154 89.966 65.6692 89.8004 65.5768C89.638 65.4844 89.5089 65.3507 89.4134 65.1755C89.3178 64.9971 89.2653 64.7837 89.2557 64.5352H89.3799V65.6294H89.0168V62.1415H89.4755V63.8376L89.3131 64.1864C89.3258 63.9093 89.3815 63.6831 89.4803 63.508C89.579 63.3328 89.708 63.2038 89.8673 63.1209C90.0297 63.0349 90.2081 62.9919 90.4024 62.9919C90.584 62.9919 90.7496 63.027 90.8993 63.0971C91.049 63.1639 91.178 63.2579 91.2863 63.379C91.3946 63.4968 91.4775 63.6354 91.5348 63.7946C91.5921 63.9507 91.6208 64.1195 91.6208 64.3011V64.3871C91.6208 64.5687 91.5905 64.7391 91.53 64.8983C91.4727 65.0576 91.3883 65.1993 91.2768 65.3236C91.1653 65.4446 91.0315 65.5402 90.8754 65.6103C90.7225 65.6803 90.5521 65.7154 90.3642 65.7154ZM90.3116 65.314C90.4837 65.314 90.6334 65.2726 90.7608 65.1898C90.8882 65.107 90.9869 64.9939 91.057 64.8506C91.1271 64.704 91.1621 64.5352 91.1621 64.3441C91.1621 64.153 91.1255 63.9857 91.0522 63.8424C90.9822 63.6991 90.8834 63.5892 90.756 63.5127C90.6286 63.4331 90.4805 63.3933 90.3116 63.3933C90.1588 63.3933 90.017 63.4283 89.8864 63.4984C89.7558 63.5653 89.6507 63.664 89.5711 63.7946C89.4946 63.922 89.4564 64.0765 89.4564 64.2581V64.4779C89.4564 64.6531 89.4962 64.8028 89.5758 64.927C89.6555 65.0512 89.7606 65.1468 89.8912 65.2137C90.0218 65.2806 90.1619 65.314 90.3116 65.314ZM92.3397 65.6294V62.1415H92.7983V65.6294H92.3397ZM91.9861 62.5046V62.1415H92.7983V62.5046H91.9861ZM93.8023 65.6294V63.0779H94.261V65.6294H93.8023ZM93.4106 63.4411V63.0779H94.261V63.4411H93.4106ZM93.9314 62.667C93.8294 62.667 93.753 62.64 93.702 62.5858C93.6542 62.5317 93.6303 62.4632 93.6303 62.3804C93.6303 62.2975 93.6542 62.2291 93.702 62.1749C93.753 62.1208 93.8294 62.0937 93.9314 62.0937C94.0333 62.0937 94.1081 62.1208 94.1559 62.1749C94.2069 62.2291 94.2324 62.2975 94.2324 62.3804C94.2324 62.4632 94.2069 62.5317 94.1559 62.5858C94.1081 62.64 94.0333 62.667 93.9314 62.667ZM96.242 65.7154C96.0223 65.7154 95.8311 65.6771 95.6687 65.6007C95.5094 65.5242 95.3772 65.4223 95.2721 65.2949C95.167 65.1643 95.0874 65.021 95.0332 64.8649C94.9823 64.7088 94.9568 64.5527 94.9568 64.3967V64.3107C94.9568 64.1482 94.9823 63.9889 95.0332 63.8329C95.0874 63.6768 95.167 63.5366 95.2721 63.4124C95.3804 63.285 95.5142 63.1831 95.6735 63.1066C95.8327 63.0302 96.0191 62.9919 96.2325 62.9919C96.4459 62.9919 96.637 63.0318 96.8058 63.1114C96.9779 63.191 97.1148 63.3041 97.2168 63.4506C97.3219 63.594 97.3808 63.7644 97.3935 63.9619H96.954C96.9317 63.8026 96.8584 63.6704 96.7342 63.5653C96.61 63.457 96.4427 63.4028 96.2325 63.4028C96.0509 63.4028 95.8996 63.4442 95.7786 63.5271C95.6575 63.6099 95.5668 63.723 95.5062 63.8663C95.4457 64.0096 95.4155 64.1721 95.4155 64.3537C95.4155 64.5288 95.4457 64.6897 95.5062 64.8362C95.5668 64.9796 95.6575 65.0942 95.7786 65.1802C95.9028 65.2631 96.0573 65.3045 96.242 65.3045C96.3854 65.3045 96.5096 65.279 96.6147 65.228C96.7198 65.1771 96.8043 65.1086 96.868 65.0226C96.9317 64.9366 96.9699 64.8394 96.9826 64.7311H97.4222C97.4126 64.9318 97.3537 65.1054 97.2454 65.2519C97.1403 65.3984 97.0002 65.5131 96.825 65.5959C96.653 65.6756 96.4587 65.7154 96.242 65.7154ZM97.9119 64.497V64.1052H99.6893V64.497H97.9119ZM102.709 65.6294L101.289 64.0001H100.778L102.398 62.1415H102.933L101.461 63.8233L101.418 63.4936L103.291 65.6294H102.709ZM100.511 65.6294V62.1415H100.979V65.6294H100.511ZM104.711 65.7154C104.488 65.7154 104.295 65.6771 104.132 65.6007C103.97 65.5242 103.838 65.4239 103.736 65.2997C103.634 65.1723 103.557 65.0305 103.507 64.8744C103.459 64.7184 103.435 64.5591 103.435 64.3967V64.3107C103.435 64.145 103.459 63.9842 103.507 63.8281C103.557 63.672 103.634 63.5318 103.736 63.4076C103.838 63.2802 103.967 63.1799 104.123 63.1066C104.282 63.0302 104.468 62.9919 104.682 62.9919C104.959 62.9919 105.187 63.0525 105.365 63.1735C105.547 63.2914 105.68 63.4442 105.766 63.6322C105.856 63.8201 105.9 64.0208 105.9 64.2342V64.4397H103.636V64.0956H105.566L105.461 64.282C105.461 64.1004 105.432 63.9443 105.375 63.8137C105.317 63.68 105.231 63.5764 105.117 63.5032C105.002 63.4299 104.857 63.3933 104.682 63.3933C104.5 63.3933 104.349 63.4347 104.228 63.5175C104.11 63.6003 104.021 63.7134 103.96 63.8567C103.903 64.0001 103.874 64.1657 103.874 64.3537C103.874 64.5352 103.903 64.6993 103.96 64.8458C104.021 64.9891 104.113 65.1038 104.238 65.1898C104.362 65.2726 104.519 65.314 104.711 65.314C104.911 65.314 105.074 65.2694 105.198 65.1802C105.325 65.091 105.402 64.9875 105.427 64.8697H105.857C105.822 65.0449 105.752 65.1962 105.647 65.3236C105.542 65.451 105.41 65.5481 105.25 65.615C105.091 65.6819 104.911 65.7154 104.711 65.7154ZM106.361 66.6232V66.2123H106.729C106.837 66.2123 106.928 66.1979 107.001 66.1693C107.078 66.1438 107.14 66.0992 107.187 66.0355C107.238 65.9718 107.28 65.8874 107.312 65.7823L108.114 63.0779H108.563L107.713 65.9017C107.662 66.0705 107.59 66.2075 107.498 66.3126C107.406 66.4209 107.293 66.499 107.159 66.5467C107.028 66.5977 106.875 66.6232 106.7 66.6232H106.361ZM107.14 65.572V65.1898H107.694V65.572H107.14ZM107.092 65.572L106.179 63.0779H106.648L107.522 65.572H107.092Z" fill="white"/>
<rect x="73.4302" y="69.5899" width="44.3667" height="8.19077" rx="1.36513" fill="#1D267D"/>
<path d="M85.4101 75.2713C85.1203 75.2713 84.8734 75.2235 84.6696 75.1279C84.4657 75.0324 84.3096 74.9002 84.2013 74.7314C84.093 74.5625 84.0389 74.3714 84.0389 74.158H84.5071C84.5071 74.2631 84.5342 74.3682 84.5883 74.4734C84.6457 74.5785 84.7396 74.6661 84.8702 74.7361C85.004 74.8062 85.184 74.8413 85.4101 74.8413C85.6204 74.8413 85.7924 74.811 85.9262 74.7505C86.0599 74.6868 86.1587 74.6055 86.2224 74.5068C86.2861 74.4049 86.318 74.295 86.318 74.1771C86.318 74.0338 86.2558 73.9159 86.1316 73.8236C86.0074 73.728 85.8258 73.6691 85.5869 73.6468L85.1999 73.6133C84.8909 73.5878 84.6441 73.4923 84.4593 73.3267C84.2746 73.161 84.1822 72.9428 84.1822 72.6721C84.1822 72.4587 84.2332 72.2723 84.3351 72.1131C84.4402 71.9538 84.5851 71.8296 84.7699 71.7404C84.9546 71.648 85.1697 71.6018 85.4149 71.6018C85.657 71.6018 85.8704 71.6464 86.0552 71.7356C86.2399 71.8248 86.3833 71.9506 86.4852 72.1131C86.5903 72.2723 86.6429 72.4634 86.6429 72.6864H86.1746C86.1746 72.5749 86.1475 72.4698 86.0934 72.3711C86.0424 72.2723 85.9612 72.1911 85.8497 72.1274C85.7382 72.0637 85.5933 72.0318 85.4149 72.0318C85.2429 72.0318 85.0996 72.0621 84.9849 72.1226C84.8734 72.1831 84.789 72.2628 84.7317 72.3615C84.6775 72.4571 84.6504 72.5606 84.6504 72.6721C84.6504 72.7995 84.6998 72.9126 84.7986 73.0113C84.8973 73.11 85.0438 73.1674 85.2381 73.1833L85.6252 73.2168C85.864 73.2359 86.0695 73.2868 86.2415 73.3697C86.4167 73.4493 86.5505 73.5576 86.6429 73.6946C86.7384 73.8283 86.7862 73.9892 86.7862 74.1771C86.7862 74.3905 86.7289 74.5801 86.6142 74.7457C86.4995 74.9113 86.3387 75.0403 86.1316 75.1327C85.9246 75.2251 85.6841 75.2713 85.4101 75.2713ZM87.6293 75.1853V72.6338H88.088V75.1853H87.6293ZM87.2375 72.997V72.6338H88.088V72.997H87.2375ZM87.7583 72.2229C87.6564 72.2229 87.5799 72.1959 87.5289 72.1417C87.4812 72.0876 87.4573 72.0191 87.4573 71.9363C87.4573 71.8534 87.4812 71.785 87.5289 71.7308C87.5799 71.6767 87.6564 71.6496 87.7583 71.6496C87.8602 71.6496 87.9351 71.6767 87.9828 71.7308C88.0338 71.785 88.0593 71.8534 88.0593 71.9363C88.0593 72.0191 88.0338 72.0876 87.9828 72.1417C87.9351 72.1959 87.8602 72.2229 87.7583 72.2229ZM89.94 76.1791C89.8221 76.1791 89.7027 76.1743 89.5816 76.1648C89.4638 76.1552 89.3507 76.1425 89.2424 76.1265V75.7395C89.3571 75.7554 89.4765 75.7682 89.6007 75.7777C89.7282 75.7905 89.8476 75.7968 89.9591 75.7968C90.1916 75.7968 90.3764 75.765 90.5133 75.7013C90.6535 75.6408 90.7538 75.5436 90.8143 75.4098C90.878 75.2792 90.9099 75.1104 90.9099 74.9034V74.416L91.0628 74.0529C91.0532 74.3109 90.9991 74.5259 90.9003 74.6979C90.8016 74.8667 90.6726 74.9942 90.5133 75.0802C90.3572 75.163 90.1836 75.2044 89.9925 75.2044C89.8142 75.2044 89.6501 75.1709 89.5004 75.104C89.3539 75.034 89.2265 74.9384 89.1182 74.8174C89.0131 74.6963 88.9302 74.5578 88.8697 74.4017C88.8124 74.2424 88.7837 74.0752 88.7837 73.9V73.814C88.7837 73.6356 88.814 73.47 88.8745 73.3171C88.935 73.161 89.0194 73.0256 89.1277 72.911C89.236 72.7963 89.365 72.7071 89.5147 72.6434C89.6676 72.5797 89.8349 72.5478 90.0164 72.5478C90.2298 72.5478 90.4178 72.594 90.5802 72.6864C90.7427 72.7756 90.8701 72.9078 90.9625 73.083C91.058 73.255 91.1106 73.4668 91.1201 73.7184L90.9863 73.7232V72.6338H91.3495V74.8843C91.3495 75.1901 91.3017 75.4369 91.2061 75.6248C91.1138 75.816 90.964 75.9561 90.757 76.0453C90.5531 76.1345 90.2808 76.1791 89.94 76.1791ZM90.0785 74.7839C90.2314 74.7839 90.37 74.7505 90.4942 74.6836C90.6216 74.6167 90.722 74.5211 90.7952 74.3969C90.8717 74.2695 90.9099 74.1182 90.9099 73.943V73.7232C90.9099 73.5512 90.8701 73.4063 90.7904 73.2884C90.714 73.1706 90.6137 73.0814 90.4894 73.0209C90.3652 72.9603 90.2298 72.9301 90.0833 72.9301C89.9177 72.9301 89.7712 72.9683 89.6437 73.0448C89.5163 73.1212 89.4176 73.2295 89.3475 73.3697C89.2774 73.5066 89.2424 73.6691 89.2424 73.857C89.2424 74.0449 89.2774 74.209 89.3475 74.3491C89.4208 74.4893 89.5195 74.5976 89.6437 74.674C89.7712 74.7473 89.9161 74.7839 90.0785 74.7839ZM92.199 75.1853V72.6338H92.5621V73.728H92.5048C92.5048 73.4764 92.5382 73.2645 92.6051 73.0925C92.6752 72.9173 92.7803 72.7851 92.9205 72.696C93.0606 72.6036 93.2374 72.5574 93.4508 72.5574H93.4699C93.7917 72.5574 94.029 72.6577 94.1819 72.8584C94.3379 73.0591 94.416 73.3489 94.416 73.728V75.1853H93.9573V73.6324C93.9573 73.435 93.9016 73.2773 93.7901 73.1594C93.6786 73.0384 93.5257 72.9779 93.3314 72.9779C93.1307 72.9779 92.9683 73.04 92.844 73.1642C92.7198 73.2884 92.6577 73.4541 92.6577 73.6611V75.1853H92.199ZM96.7985 75.1853V74.4208H96.722V73.5369C96.722 73.3617 96.6759 73.2295 96.5835 73.1403C96.4943 73.0511 96.3621 73.0065 96.1869 73.0065C96.0882 73.0065 95.9862 73.0081 95.8811 73.0113C95.776 73.0145 95.6757 73.0177 95.5801 73.0209C95.4846 73.024 95.4017 73.0288 95.3317 73.0352V72.6338C95.4017 72.6275 95.475 72.6227 95.5514 72.6195C95.6311 72.6131 95.7123 72.61 95.7951 72.61C95.8779 72.6068 95.9576 72.6052 96.034 72.6052C96.2952 72.6052 96.5086 72.637 96.6743 72.7007C96.8399 72.7613 96.9625 72.8616 97.0422 73.0017C97.1218 73.1419 97.1616 73.3314 97.1616 73.5703V75.1853H96.7985ZM95.9624 75.2522C95.7712 75.2522 95.6056 75.2203 95.4654 75.1566C95.3285 75.0897 95.2218 74.9942 95.1453 74.8699C95.0721 74.7457 95.0354 74.596 95.0354 74.4208C95.0354 74.2392 95.0752 74.0879 95.1549 73.9669C95.2377 73.8459 95.3571 73.7551 95.5132 73.6946C95.6693 73.6308 95.8572 73.599 96.077 73.599H96.7698V73.943H96.0579C95.8732 73.943 95.7314 73.9876 95.6327 74.0768C95.5339 74.166 95.4846 74.2806 95.4846 74.4208C95.4846 74.561 95.5339 74.674 95.6327 74.76C95.7314 74.846 95.8732 74.889 96.0579 74.889C96.1662 74.889 96.2697 74.8699 96.3685 74.8317C96.4672 74.7903 96.5484 74.7234 96.6122 74.631C96.679 74.5355 96.7157 74.4049 96.722 74.2392L96.8463 74.4208C96.8303 74.6024 96.7858 74.7553 96.7125 74.8795C96.6424 75.0005 96.5437 75.0929 96.4163 75.1566C96.292 75.2203 96.1407 75.2522 95.9624 75.2522ZM98.9973 75.2139C98.8062 75.2139 98.6405 75.1869 98.5004 75.1327C98.3634 75.0786 98.2567 74.9862 98.1803 74.8556C98.107 74.7218 98.0704 74.5418 98.0704 74.3157V71.8598H98.5099V74.373C98.5099 74.51 98.5466 74.6167 98.6198 74.6931C98.6963 74.7664 98.803 74.803 98.9399 74.803H99.3891V75.2139H98.9973ZM97.6308 72.9779V72.6338H99.3891V72.9779H97.6308ZM100.922 75.2617C100.619 75.2617 100.387 75.163 100.224 74.9655C100.062 74.768 99.9805 74.4829 99.9805 74.1102V72.6291H100.439V74.201C100.439 74.4017 100.493 74.5594 100.602 74.674C100.71 74.7855 100.856 74.8413 101.041 74.8413C101.232 74.8413 101.388 74.7807 101.509 74.6597C101.63 74.5355 101.691 74.3667 101.691 74.1532V72.6291H102.15V75.1853H101.787V74.0911H101.844C101.844 74.3428 101.81 74.5562 101.744 74.7314C101.677 74.9034 101.576 75.0356 101.443 75.1279C101.312 75.2171 101.145 75.2617 100.941 75.2617H100.922ZM103.038 75.1853V72.6338H103.401V73.685H103.382C103.382 73.3123 103.463 73.04 103.626 72.868C103.791 72.6928 104.038 72.6052 104.366 72.6052H104.452V73.0161H104.29C104.035 73.0161 103.839 73.0846 103.702 73.2215C103.565 73.3553 103.497 73.5496 103.497 73.8044V75.1853H103.038ZM106.054 75.2713C105.831 75.2713 105.639 75.2331 105.476 75.1566C105.314 75.0802 105.182 74.9798 105.08 74.8556C104.978 74.7282 104.901 74.5864 104.85 74.4304C104.803 74.2743 104.779 74.115 104.779 73.9526V73.8666C104.779 73.7009 104.803 73.5401 104.85 73.384C104.901 73.2279 104.978 73.0878 105.08 72.9635C105.182 72.8361 105.311 72.7358 105.467 72.6625C105.626 72.5861 105.812 72.5478 106.026 72.5478C106.303 72.5478 106.531 72.6084 106.709 72.7294C106.89 72.8473 107.024 73.0002 107.11 73.1881C107.199 73.376 107.244 73.5767 107.244 73.7901V73.9956H104.979V73.6516H106.91L106.804 73.8379C106.804 73.6563 106.776 73.5002 106.718 73.3697C106.661 73.2359 106.575 73.1323 106.46 73.0591C106.346 72.9858 106.201 72.9492 106.026 72.9492C105.844 72.9492 105.693 72.9906 105.572 73.0734C105.454 73.1562 105.365 73.2693 105.304 73.4127C105.247 73.556 105.218 73.7216 105.218 73.9096C105.218 74.0911 105.247 74.2552 105.304 74.4017C105.365 74.545 105.457 74.6597 105.581 74.7457C105.706 74.8285 105.863 74.8699 106.054 74.8699C106.255 74.8699 106.417 74.8253 106.542 74.7361C106.669 74.647 106.746 74.5434 106.771 74.4256H107.201C107.166 74.6008 107.096 74.7521 106.991 74.8795C106.886 75.0069 106.754 75.104 106.594 75.1709C106.435 75.2378 106.255 75.2713 106.054 75.2713Z" fill="white"/>
<rect x="73.4302" y="79.1458" width="44.3667" height="8.19077" rx="1.36513" fill="#0C134F"/>
<path d="M81.8961 84.8272C81.6731 84.8272 81.4772 84.7889 81.3084 84.7125C81.1396 84.636 80.9963 84.5357 80.8784 84.4115C80.7637 84.2841 80.6761 84.1423 80.6156 83.9862C80.5583 83.8302 80.5296 83.6709 80.5296 83.5084V83.4224C80.5296 83.26 80.5599 83.1007 80.6204 82.9446C80.6809 82.7854 80.7701 82.6436 80.888 82.5194C81.0058 82.392 81.1492 82.2917 81.318 82.2184C81.4868 82.1419 81.6795 82.1037 81.8961 82.1037C82.1127 82.1037 82.3054 82.1419 82.4742 82.2184C82.6431 82.2917 82.7864 82.392 82.9043 82.5194C83.0221 82.6436 83.1113 82.7854 83.1718 82.9446C83.2323 83.1007 83.2626 83.26 83.2626 83.4224V83.5084C83.2626 83.6709 83.2323 83.8302 83.1718 83.9862C83.1145 84.1423 83.0269 84.2841 82.909 84.4115C82.7944 84.5357 82.6526 84.636 82.4838 84.7125C82.315 84.7889 82.1191 84.8272 81.8961 84.8272ZM81.8961 84.4162C82.0872 84.4162 82.2497 84.3748 82.3835 84.292C82.5204 84.206 82.624 84.0913 82.694 83.948C82.7673 83.8047 82.8039 83.6438 82.8039 83.4654C82.8039 83.2839 82.7673 83.1214 82.694 82.9781C82.6208 82.8347 82.5157 82.7217 82.3787 82.6389C82.2449 82.556 82.084 82.5146 81.8961 82.5146C81.7114 82.5146 81.5505 82.556 81.4135 82.6389C81.2766 82.7217 81.1715 82.8347 81.0982 82.9781C81.0249 83.1214 80.9883 83.2839 80.9883 83.4654C80.9883 83.6438 81.0233 83.8047 81.0934 83.948C81.1667 84.0913 81.2702 84.206 81.404 84.292C81.541 84.3748 81.705 84.4162 81.8961 84.4162ZM83.9496 85.6967V82.1897H84.3127V83.2934L84.2267 83.2839C84.2426 83.0099 84.3 82.787 84.3987 82.615C84.5006 82.4398 84.6328 82.3108 84.7953 82.2279C84.9577 82.1451 85.1345 82.1037 85.3256 82.1037C85.5104 82.1037 85.6776 82.1388 85.8273 82.2088C85.9802 82.2789 86.1108 82.3745 86.2191 82.4955C86.3274 82.6166 86.4102 82.7567 86.4676 82.916C86.5249 83.0752 86.5536 83.2441 86.5536 83.4224V83.5084C86.5536 83.6868 86.5233 83.8556 86.4628 84.0149C86.4023 84.1742 86.3163 84.3143 86.2048 84.4354C86.0965 84.5564 85.9659 84.652 85.813 84.722C85.6633 84.7921 85.4976 84.8272 85.3161 84.8272C85.1345 84.8272 84.9609 84.7873 84.7953 84.7077C84.6296 84.6281 84.4927 84.4991 84.3844 84.3207C84.2761 84.1423 84.214 83.9082 84.198 83.6183L84.4083 84.0006V85.6967H83.9496ZM85.2444 84.4258C85.4164 84.4258 85.5661 84.386 85.6935 84.3064C85.8209 84.2235 85.9197 84.1105 85.9898 83.9671C86.0598 83.8206 86.0949 83.6534 86.0949 83.4654C86.0949 83.2743 86.0598 83.1071 85.9898 82.9638C85.9197 82.8204 85.8209 82.7089 85.6935 82.6293C85.5661 82.5465 85.4164 82.5051 85.2444 82.5051C85.0915 82.5051 84.9498 82.5401 84.8192 82.6102C84.6886 82.6771 84.5835 82.7758 84.5038 82.9064C84.4274 83.0338 84.3892 83.1883 84.3892 83.3699V83.5897C84.3892 83.7649 84.429 83.9146 84.5086 84.0388C84.5882 84.163 84.6934 84.2586 84.8239 84.3255C84.9545 84.3924 85.0947 84.4258 85.2444 84.4258ZM87.1195 83.6088V83.217H88.8969V83.6088H87.1195ZM90.7455 84.8272C90.5258 84.8272 90.3346 84.7889 90.1722 84.7125C90.0129 84.636 89.8807 84.5341 89.7756 84.4067C89.6705 84.2761 89.5909 84.1328 89.5367 83.9767C89.4858 83.8206 89.4603 83.6645 89.4603 83.5084V83.4224C89.4603 83.26 89.4858 83.1007 89.5367 82.9446C89.5909 82.7886 89.6705 82.6484 89.7756 82.5242C89.8839 82.3968 90.0177 82.2948 90.177 82.2184C90.3362 82.1419 90.5226 82.1037 90.736 82.1037C90.9494 82.1037 91.1405 82.1435 91.3093 82.2232C91.4813 82.3028 91.6183 82.4159 91.7202 82.5624C91.8254 82.7057 91.8843 82.8762 91.897 83.0736H91.4575C91.4352 82.9144 91.3619 82.7822 91.2377 82.6771C91.1134 82.5688 90.9462 82.5146 90.736 82.5146C90.5544 82.5146 90.4031 82.556 90.2821 82.6389C90.161 82.7217 90.0703 82.8347 90.0097 82.9781C89.9492 83.1214 89.919 83.2839 89.919 83.4654C89.919 83.6406 89.9492 83.8015 90.0097 83.948C90.0703 84.0913 90.161 84.206 90.2821 84.292C90.4063 84.3748 90.5608 84.4162 90.7455 84.4162C90.8889 84.4162 91.0131 84.3908 91.1182 84.3398C91.2233 84.2888 91.3077 84.2204 91.3715 84.1344C91.4352 84.0483 91.4734 83.9512 91.4861 83.8429H91.9257C91.9161 84.0436 91.8572 84.2172 91.7489 84.3637C91.6438 84.5102 91.5036 84.6249 91.3285 84.7077C91.1564 84.7873 90.9621 84.8272 90.7455 84.8272ZM92.549 84.7411V81.2532H93.0076V83.3364H92.893C92.893 83.0848 92.9248 82.8682 92.9885 82.6866C93.0554 82.5019 93.1573 82.3601 93.2943 82.2614C93.4313 82.1627 93.6065 82.1133 93.8199 82.1133H93.839C94.1448 82.1133 94.3757 82.2152 94.5318 82.4191C94.6879 82.6197 94.7659 82.908 94.7659 83.2839V84.7411H94.3072V83.1883C94.3072 82.9813 94.2483 82.8204 94.1305 82.7057C94.0158 82.5911 93.8661 82.5337 93.6813 82.5337C93.4775 82.5337 93.3134 82.6022 93.1892 82.7392C93.0682 82.873 93.0076 83.0498 93.0076 83.2695V84.7411H92.549ZM96.6898 84.8272C96.4668 84.8272 96.2741 84.7889 96.1116 84.7125C95.9492 84.636 95.817 84.5357 95.7151 84.4115C95.6131 84.2841 95.5367 84.1423 95.4857 83.9862C95.4379 83.8302 95.414 83.6709 95.414 83.5084V83.4224C95.414 83.2568 95.4379 83.0959 95.4857 82.9399C95.5367 82.7838 95.6131 82.6436 95.7151 82.5194C95.817 82.392 95.946 82.2917 96.1021 82.2184C96.2613 82.1419 96.4477 82.1037 96.6611 82.1037C96.9382 82.1037 97.166 82.1642 97.3443 82.2853C97.5259 82.4031 97.6597 82.556 97.7457 82.744C97.8349 82.9319 97.8795 83.1326 97.8795 83.346V83.5514H95.6147V83.2074H97.545L97.4399 83.3938C97.4399 83.2122 97.4112 83.0561 97.3539 82.9255C97.2966 82.7917 97.2106 82.6882 97.0959 82.615C96.9812 82.5417 96.8363 82.5051 96.6611 82.5051C96.4795 82.5051 96.3282 82.5465 96.2072 82.6293C96.0893 82.7121 96.0001 82.8252 95.9396 82.9685C95.8823 83.1119 95.8536 83.2775 95.8536 83.4654C95.8536 83.647 95.8823 83.811 95.9396 83.9576C96.0001 84.1009 96.0925 84.2156 96.2167 84.3016C96.341 84.3844 96.4986 84.4258 96.6898 84.4258C96.8904 84.4258 97.0529 84.3812 97.1771 84.292C97.3045 84.2028 97.381 84.0993 97.4065 83.9815H97.8365C97.8014 84.1566 97.7314 84.3079 97.6262 84.4354C97.5211 84.5628 97.3889 84.6599 97.2297 84.7268C97.0704 84.7937 96.8904 84.8272 96.6898 84.8272ZM99.6249 84.8272C99.4051 84.8272 99.214 84.7889 99.0515 84.7125C98.8923 84.636 98.7601 84.5341 98.655 84.4067C98.5498 84.2761 98.4702 84.1328 98.4161 83.9767C98.3651 83.8206 98.3396 83.6645 98.3396 83.5084V83.4224C98.3396 83.26 98.3651 83.1007 98.4161 82.9446C98.4702 82.7886 98.5498 82.6484 98.655 82.5242C98.7633 82.3968 98.897 82.2948 99.0563 82.2184C99.2156 82.1419 99.4019 82.1037 99.6153 82.1037C99.8287 82.1037 100.02 82.1435 100.189 82.2232C100.361 82.3028 100.498 82.4159 100.6 82.5624C100.705 82.7057 100.764 82.8762 100.776 83.0736H100.337C100.314 82.9144 100.241 82.7822 100.117 82.6771C99.9928 82.5688 99.8255 82.5146 99.6153 82.5146C99.4338 82.5146 99.2825 82.556 99.1614 82.6389C99.0404 82.7217 98.9496 82.8347 98.8891 82.9781C98.8286 83.1214 98.7983 83.2839 98.7983 83.4654C98.7983 83.6406 98.8286 83.8015 98.8891 83.948C98.9496 84.0913 99.0404 84.206 99.1614 84.292C99.2856 84.3748 99.4401 84.4162 99.6249 84.4162C99.7682 84.4162 99.8924 84.3908 99.9976 84.3398C100.103 84.2888 100.187 84.2204 100.251 84.1344C100.314 84.0483 100.353 83.9512 100.365 83.8429H100.805C100.795 84.0436 100.737 84.2172 100.628 84.3637C100.523 84.5102 100.383 84.6249 100.208 84.7077C100.036 84.7873 99.8415 84.8272 99.6249 84.8272ZM103.187 84.7411L102.226 83.5514H101.806L102.976 82.1897H103.459L102.398 83.4177L102.432 83.174L103.717 84.7411H103.187ZM101.428 84.7411V81.2532H101.887V84.7411H101.428ZM104.966 84.8176C104.632 84.8176 104.372 84.7459 104.187 84.6026C104.006 84.4593 103.912 84.2634 103.905 84.0149H104.335C104.342 84.1136 104.391 84.2076 104.483 84.2968C104.579 84.3828 104.74 84.4258 104.966 84.4258C105.17 84.4258 105.326 84.386 105.434 84.3064C105.543 84.2235 105.597 84.1232 105.597 84.0053C105.597 83.9002 105.557 83.819 105.477 83.7617C105.398 83.7011 105.269 83.6613 105.09 83.6422L104.813 83.6136C104.571 83.5881 104.374 83.5164 104.221 83.3985C104.068 83.2775 103.991 83.1087 103.991 82.8921C103.991 82.7296 104.033 82.5911 104.116 82.4764C104.198 82.3585 104.313 82.2694 104.46 82.2088C104.606 82.1451 104.775 82.1133 104.966 82.1133C105.253 82.1133 105.485 82.177 105.664 82.3044C105.842 82.4318 105.934 82.6213 105.941 82.873H105.511C105.508 82.771 105.46 82.685 105.367 82.615C105.278 82.5417 105.144 82.5051 104.966 82.5051C104.788 82.5051 104.652 82.5417 104.56 82.615C104.468 82.6882 104.421 82.7806 104.421 82.8921C104.421 82.9876 104.453 83.0641 104.517 83.1214C104.584 83.1788 104.692 83.2154 104.842 83.2313L105.119 83.26C105.393 83.2887 105.613 83.3651 105.778 83.4893C105.944 83.6104 106.027 83.7824 106.027 84.0053C106.027 84.1646 105.981 84.3064 105.888 84.4306C105.799 84.5516 105.675 84.6472 105.515 84.7173C105.356 84.7842 105.173 84.8176 104.966 84.8176ZM106.816 84.7411V82.1897H107.274V84.7411H106.816ZM106.424 82.5528V82.1897H107.274V82.5528H106.424ZM106.945 81.7788C106.843 81.7788 106.766 81.7517 106.715 81.6976C106.668 81.6434 106.644 81.575 106.644 81.4921C106.644 81.4093 106.668 81.3408 106.715 81.2867C106.766 81.2325 106.843 81.2055 106.945 81.2055C107.047 81.2055 107.122 81.2325 107.169 81.2867C107.22 81.3408 107.246 81.4093 107.246 81.4921C107.246 81.575 107.22 81.6434 107.169 81.6976C107.122 81.7517 107.047 81.7788 106.945 81.7788ZM109.126 85.735C109.009 85.735 108.889 85.7302 108.768 85.7206C108.65 85.7111 108.537 85.6983 108.429 85.6824V85.2954C108.544 85.3113 108.663 85.3241 108.787 85.3336C108.915 85.3464 109.034 85.3527 109.146 85.3527C109.378 85.3527 109.563 85.3209 109.7 85.2572C109.84 85.1966 109.94 85.0995 110.001 84.9657C110.064 84.8351 110.096 84.6663 110.096 84.4593V83.9719L110.249 83.6088C110.24 83.8668 110.186 84.0818 110.087 84.2538C109.988 84.4226 109.859 84.55 109.7 84.636C109.544 84.7189 109.37 84.7603 109.179 84.7603C109.001 84.7603 108.837 84.7268 108.687 84.6599C108.54 84.5898 108.413 84.4943 108.305 84.3732C108.2 84.2522 108.117 84.1136 108.056 83.9576C107.999 83.7983 107.97 83.6311 107.97 83.4559V83.3699C107.97 83.1915 108 83.0259 108.061 82.873C108.121 82.7169 108.206 82.5815 108.314 82.4668C108.422 82.3522 108.551 82.263 108.701 82.1993C108.854 82.1356 109.021 82.1037 109.203 82.1037C109.416 82.1037 109.604 82.1499 109.767 82.2423C109.929 82.3315 110.057 82.4637 110.149 82.6389C110.244 82.8109 110.297 83.0227 110.307 83.2743L110.173 83.2791V82.1897H110.536V84.4401C110.536 84.7459 110.488 84.9928 110.393 85.1807C110.3 85.3718 110.15 85.512 109.943 85.6012C109.74 85.6904 109.467 85.735 109.126 85.735ZM109.265 84.3398C109.418 84.3398 109.556 84.3064 109.681 84.2395C109.808 84.1726 109.908 84.077 109.982 83.9528C110.058 83.8254 110.096 83.6741 110.096 83.4989V83.2791C110.096 83.1071 110.057 82.9622 109.977 82.8443C109.9 82.7264 109.8 82.6373 109.676 82.5767C109.552 82.5162 109.416 82.486 109.27 82.486C109.104 82.486 108.958 82.5242 108.83 82.6006C108.703 82.6771 108.604 82.7854 108.534 82.9255C108.464 83.0625 108.429 83.2249 108.429 83.4129C108.429 83.6008 108.464 83.7649 108.534 83.905C108.607 84.0452 108.706 84.1535 108.83 84.2299C108.958 84.3032 109.103 84.3398 109.265 84.3398Z" fill="white"/>
<path d="M125.217 72.6144V72.1475H128.03V72.6144H125.217ZM125.217 73.7079V73.241H128.03V73.7079H125.217Z" fill="#0C134F"/>
<path d="M39.302 63.787V35.4606C39.302 32.4448 41.7468 30.0001 44.7625 30.0001H90.153C93.1688 30.0001 95.6135 32.4448 95.6135 35.4606V52.1834" stroke="#252525" stroke-width="0.341282" stroke-linecap="round" stroke-dasharray="1.71 1.71"/>
<path d="M39.3016 66.0061C40.1498 66.0061 40.8374 65.3185 40.8374 64.4703C40.8374 63.6221 40.1498 62.9345 39.3016 62.9345C38.4534 62.9345 37.7658 63.6221 37.7658 64.4703C37.7658 65.3185 38.4534 66.0061 39.3016 66.0061Z" fill="white" stroke="#252525" stroke-width="1.02385"/>
<path d="M95.2459 55.0235L93.6448 52.4476C93.4821 52.1859 93.5884 51.86 93.8264 51.7296C93.9648 51.6537 94.1312 51.6991 94.2797 51.7526L94.9199 51.9834C95.3687 52.1452 95.86 52.1452 96.3088 51.9834L96.949 51.7526C97.0975 51.6991 97.2639 51.6538 97.4023 51.7296C97.6366 51.8581 97.744 52.1761 97.5902 52.4372L96.0733 55.0131C95.886 55.3313 95.4407 55.3368 95.2459 55.0235Z" fill="#252525"/>
<mask id="path-18-inside-2_2687_8046" fill="white">
<path d="M186 46.3651C186 45.6112 186.611 45 187.365 45H239.24C239.994 45 240.605 45.6112 240.605 46.3651V91.4144C240.605 92.1683 239.994 92.7795 239.24 92.7795H187.365C186.611 92.7795 186 92.1683 186 91.4144V46.3651Z"/>
</mask>
<path d="M186 46.3651C186 45.6112 186.611 45 187.365 45H239.24C239.994 45 240.605 45.6112 240.605 46.3651V91.4144C240.605 92.1683 239.994 92.7795 239.24 92.7795H187.365C186.611 92.7795 186 92.1683 186 91.4144V46.3651Z" fill="white"/>
<path d="M186 45H240.605H186ZM242.653 91.4144C242.653 93.2992 241.125 94.8272 239.24 94.8272H187.365C185.48 94.8272 183.952 93.2992 183.952 91.4144L188.048 90.7318H238.557L242.653 91.4144ZM187.365 94.8272C185.48 94.8272 183.952 93.2992 183.952 91.4144V48.4128C183.952 46.528 185.48 45 187.365 45H188.048C188.048 45 188.048 45.6112 188.048 46.3651V90.7318L187.365 94.8272ZM239.24 45C241.125 45 242.653 46.528 242.653 48.4128V91.4144C242.653 93.2992 241.125 94.8272 239.24 94.8272L238.557 90.7318V46.3651C238.557 45.6112 238.557 45 238.557 45H239.24Z" fill="url(#paint1_linear_2687_8046)" fill-opacity="0.3" mask="url(#path-18-inside-2_2687_8046)"/>
<rect x="191.515" y="79.1456" width="44.3667" height="8.19077" rx="1.36513" fill="#1D267D"/>
<path d="M213.67 84.741V81.4824L213.88 81.6449H212.896V81.2531H214.128V84.741H213.67Z" fill="white"/>
<rect x="135.373" y="69.7604" width="44.0254" height="7.84949" rx="1.19449" fill="#1D267D"/>
<path d="M157.358 75.1852V71.9266L157.568 72.0891H156.583V71.6973H157.816V75.1852H157.358Z" fill="white"/>
<rect x="135.373" y="69.7604" width="44.0254" height="7.84949" rx="1.19449" stroke="#0C134F" stroke-width="0.341282"/>
<path d="M158.409 63.7869V35.4605C158.409 32.4448 160.854 30 163.87 30H209.26C212.276 30 214.721 32.4448 214.721 35.4605V59.5887" stroke="#252525" stroke-width="0.341282" stroke-linecap="round" stroke-dasharray="1.71 1.71"/>
<path d="M158.409 66.0049C159.257 66.0049 159.945 65.3173 159.945 64.4691C159.945 63.621 159.257 62.9334 158.409 62.9334C157.561 62.9334 156.873 63.621 156.873 64.4691C156.873 65.3173 157.561 66.0049 158.409 66.0049Z" fill="white" stroke="#252525" stroke-width="1.02385"/>
<path d="M214.353 62.0869L212.752 59.511C212.589 59.2493 212.696 58.9234 212.934 58.793C213.072 58.7171 213.238 58.7625 213.387 58.816L214.027 59.0468C214.476 59.2086 214.967 59.2086 215.416 59.0468L216.056 58.816C216.205 58.7625 216.371 58.7172 216.509 58.7931C216.744 58.9215 216.851 59.2395 216.697 59.5007L215.181 62.0765C214.993 62.3947 214.548 62.4003 214.353 62.0869Z" fill="#252525"/>
<defs>
<linearGradient id="paint0_linear_2687_8046" x1="10.0628" y1="40.5821" x2="42.3579" y2="108.99" gradientUnits="userSpaceOnUse">
<stop stop-color="#662B64"/>
<stop offset="1" stop-color="#456F97"/>
</linearGradient>
<linearGradient id="paint1_linear_2687_8046" x1="184.063" y1="40.9067" x2="216.358" y2="109.315" gradientUnits="userSpaceOnUse">
<stop stop-color="#662B64"/>
<stop offset="1" stop-color="#456F97"/>
</linearGradient>
</defs>
</svg>
