<svg width="253" height="123" viewBox="0 0 253 123" fill="none" xmlns="http://www.w3.org/2000/svg">
<rect width="253" height="123" rx="10" fill="#F4F4F4"/>
<mask id="path-2-inside-1_2864_7997" fill="white">
<path d="M37 46.0405C37 45.2865 37.6112 44.6754 38.3651 44.6754H90.24C90.9939 44.6754 91.6051 45.2865 91.6051 46.0405V91.0897C91.6051 91.8437 90.9939 92.4548 90.24 92.4548H38.3651C37.6112 92.4548 37 91.8437 37 91.0897V46.0405Z"/>
</mask>
<path d="M37 46.0405C37 45.2865 37.6112 44.6754 38.3651 44.6754H90.24C90.9939 44.6754 91.6051 45.2865 91.6051 46.0405V91.0897C91.6051 91.8437 90.9939 92.4548 90.24 92.4548H38.3651C37.6112 92.4548 37 91.8437 37 91.0897V46.0405Z" fill="white"/>
<path d="M37 44.6754H91.6051H37ZM93.6528 91.0897C93.6528 92.9746 92.1248 94.5025 90.24 94.5025H38.3651C36.4803 94.5025 34.9523 92.9746 34.9523 91.0897L39.0477 90.4071H89.5574L93.6528 91.0897ZM38.3651 94.5025C36.4803 94.5025 34.9523 92.9746 34.9523 91.0897V48.0882C34.9523 46.2033 36.4803 44.6754 38.3651 44.6754H39.0477C39.0477 44.6754 39.0477 45.2865 39.0477 46.0405V90.4071L38.3651 94.5025ZM90.24 44.6754C92.1248 44.6754 93.6528 46.2033 93.6528 48.0882V91.0897C93.6528 92.9746 92.1248 94.5025 90.24 94.5025L89.5574 90.4071V46.0405C89.5574 45.2865 89.5574 44.6754 89.5574 44.6754H90.24Z" fill="url(#paint0_linear_2864_7997)" fill-opacity="0.3" mask="url(#path-2-inside-1_2864_7997)"/>
<mask id="path-4-inside-2_2864_7997" fill="white">
<path d="M160 46.0405C160 45.2865 160.611 44.6754 161.365 44.6754H213.24C213.994 44.6754 214.605 45.2865 214.605 46.0405V91.0897C214.605 91.8437 213.994 92.4548 213.24 92.4548H161.365C160.611 92.4548 160 91.8437 160 91.0897V46.0405Z"/>
</mask>
<path d="M160 46.0405C160 45.2865 160.611 44.6754 161.365 44.6754H213.24C213.994 44.6754 214.605 45.2865 214.605 46.0405V91.0897C214.605 91.8437 213.994 92.4548 213.24 92.4548H161.365C160.611 92.4548 160 91.8437 160 91.0897V46.0405Z" fill="white"/>
<path d="M160 44.6754H214.605H160ZM216.653 91.0897C216.653 92.9746 215.125 94.5025 213.24 94.5025H161.365C159.48 94.5025 157.952 92.9746 157.952 91.0897L162.048 90.4071H212.557L216.653 91.0897ZM161.365 94.5025C159.48 94.5025 157.952 92.9746 157.952 91.0897V48.0882C157.952 46.2033 159.48 44.6754 161.365 44.6754H162.048C162.048 44.6754 162.048 45.2865 162.048 46.0405V90.4071L161.365 94.5025ZM213.24 44.6754C215.125 44.6754 216.653 46.2033 216.653 48.0882V91.0897C216.653 92.9746 215.125 94.5025 213.24 94.5025L212.557 90.4071V46.0405C212.557 45.2865 212.557 44.6754 212.557 44.6754H213.24Z" fill="url(#paint1_linear_2864_7997)" fill-opacity="0.3" mask="url(#path-4-inside-2_2864_7997)"/>
<rect x="42.1192" y="79.5898" width="44.3667" height="8.19077" rx="1.36513" fill="#5C469C"/>
<path d="M57.0777 85.1852V81.6973H57.5459V85.1852H57.0777ZM59.4975 85.2138C59.3064 85.2138 59.1408 85.1868 59.0006 85.1326C58.8636 85.0785 58.7569 84.9861 58.6805 84.8555C58.6072 84.7217 58.5706 84.5418 58.5706 84.3156V81.8597H59.0102V84.3729C59.0102 84.5099 59.0468 84.6166 59.1201 84.6931C59.1965 84.7663 59.3032 84.8029 59.4402 84.8029H59.8893V85.2138H59.4975ZM58.131 82.9778V82.6338H59.8893V82.9778H58.131ZM61.604 85.2712C61.381 85.2712 61.1883 85.233 61.0259 85.1565C60.8634 85.0801 60.7312 84.9797 60.6293 84.8555C60.5274 84.7281 60.4509 84.5863 60.3999 84.4303C60.3522 84.2742 60.3283 84.1149 60.3283 83.9525V83.8665C60.3283 83.7008 60.3522 83.54 60.3999 83.3839C60.4509 83.2278 60.5274 83.0877 60.6293 82.9634C60.7312 82.836 60.8602 82.7357 61.0163 82.6624C61.1756 82.586 61.3619 82.5478 61.5753 82.5478C61.8524 82.5478 62.0802 82.6083 62.2586 82.7293C62.4401 82.8472 62.5739 83.0001 62.6599 83.188C62.7491 83.3759 62.7937 83.5766 62.7937 83.79V83.9955H60.5289V83.6515H62.4592L62.3541 83.8378C62.3541 83.6562 62.3255 83.5002 62.2681 83.3696C62.2108 83.2358 62.1248 83.1323 62.0101 83.059C61.8954 82.9857 61.7505 82.9491 61.5753 82.9491C61.3938 82.9491 61.2425 82.9905 61.1214 83.0733C61.0036 83.1561 60.9144 83.2692 60.8539 83.4126C60.7965 83.5559 60.7678 83.7215 60.7678 83.9095C60.7678 84.091 60.7965 84.2551 60.8539 84.4016C60.9144 84.5449 61.0067 84.6596 61.131 84.7456C61.2552 84.8284 61.4129 84.8698 61.604 84.8698C61.8047 84.8698 61.9671 84.8252 62.0913 84.7361C62.2188 84.6469 62.2952 84.5433 62.3207 84.4255H62.7507C62.7157 84.6007 62.6456 84.752 62.5405 84.8794C62.4354 85.0068 62.3032 85.104 62.1439 85.1708C61.9846 85.2377 61.8047 85.2712 61.604 85.2712ZM63.445 85.1852V82.6338H63.8081V83.7279H63.7507C63.7507 83.4795 63.7826 83.2692 63.8463 83.0972C63.9132 82.922 64.0119 82.7882 64.1425 82.6959C64.2731 82.6035 64.4388 82.5573 64.6394 82.5573H64.6586C64.8592 82.5573 65.0249 82.6035 65.1555 82.6959C65.2892 82.7882 65.388 82.922 65.4517 83.0972C65.5154 83.2692 65.5473 83.4795 65.5473 83.7279H65.4135C65.4135 83.4795 65.4469 83.2692 65.5138 83.0972C65.5807 82.922 65.6794 82.7882 65.81 82.6959C65.9438 82.6035 66.111 82.5573 66.3117 82.5573H66.3308C66.5315 82.5573 66.6987 82.6035 66.8325 82.6959C66.9663 82.7882 67.065 82.922 67.1288 83.0972C67.1956 83.2692 67.2291 83.4795 67.2291 83.7279V85.1852H66.7704V83.6276C66.7704 83.4205 66.7194 83.2613 66.6175 83.1498C66.5156 83.0351 66.3738 82.9778 66.1923 82.9778C66.0043 82.9778 65.853 83.0383 65.7384 83.1593C65.6237 83.2772 65.5664 83.4428 65.5664 83.6562V85.1852H65.1077V83.6276C65.1077 83.4205 65.0567 83.2613 64.9548 83.1498C64.8529 83.0351 64.7111 82.9778 64.5295 82.9778C64.3416 82.9778 64.1903 83.0383 64.0756 83.1593C63.961 83.2772 63.9036 83.4428 63.9036 83.6562V85.1852H63.445ZM67.9447 84.0528V83.661H69.7221V84.0528H67.9447ZM71.0117 85.1852V81.9266L71.2219 82.0891H70.2377V81.6973H71.4704V85.1852H71.0117Z" fill="white"/>
<rect x="98.4302" y="60.034" width="44.3667" height="8.19077" rx="1.36513" fill="#5C469C"/>
<path d="M113.453 65.6294V63.0779H113.912V65.6294H113.453ZM113.061 63.4411V63.0779H113.912V63.4411H113.061ZM113.582 62.667C113.48 62.667 113.403 62.64 113.352 62.5858C113.305 62.5317 113.281 62.4632 113.281 62.3804C113.281 62.2975 113.305 62.2291 113.352 62.1749C113.403 62.1208 113.48 62.0937 113.582 62.0937C113.684 62.0937 113.759 62.1208 113.806 62.1749C113.857 62.2291 113.883 62.2975 113.883 62.3804C113.883 62.4632 113.857 62.5317 113.806 62.5858C113.759 62.64 113.684 62.667 113.582 62.667ZM115.792 65.658C115.601 65.658 115.435 65.631 115.295 65.5768C115.158 65.5227 115.052 65.4303 114.975 65.2997C114.902 65.1659 114.865 64.9859 114.865 64.7598V62.3039H115.305V64.8171C115.305 64.9541 115.341 65.0608 115.415 65.1372C115.491 65.2105 115.598 65.2471 115.735 65.2471H116.184V65.658H115.792ZM114.426 63.422V63.0779H116.184V63.422H114.426ZM117.899 65.7154C117.676 65.7154 117.483 65.6771 117.321 65.6007C117.158 65.5242 117.026 65.4239 116.924 65.2997C116.822 65.1723 116.746 65.0305 116.695 64.8744C116.647 64.7184 116.623 64.5591 116.623 64.3967V64.3107C116.623 64.145 116.647 63.9842 116.695 63.8281C116.746 63.672 116.822 63.5318 116.924 63.4076C117.026 63.2802 117.155 63.1799 117.311 63.1066C117.47 63.0302 117.657 62.9919 117.87 62.9919C118.147 62.9919 118.375 63.0525 118.553 63.1735C118.735 63.2914 118.869 63.4442 118.955 63.6322C119.044 63.8201 119.088 64.0208 119.088 64.2342V64.4397H116.824V64.0956H118.754L118.649 64.282C118.649 64.1004 118.62 63.9443 118.563 63.8137C118.505 63.68 118.419 63.5764 118.305 63.5032C118.19 63.4299 118.045 63.3933 117.87 63.3933C117.688 63.3933 117.537 63.4347 117.416 63.5175C117.298 63.6003 117.209 63.7134 117.149 63.8567C117.091 64.0001 117.063 64.1657 117.063 64.3537C117.063 64.5352 117.091 64.6993 117.149 64.8458C117.209 64.9891 117.301 65.1038 117.426 65.1898C117.55 65.2726 117.708 65.314 117.899 65.314C118.099 65.314 118.262 65.2694 118.386 65.1802C118.513 65.091 118.59 64.9875 118.615 64.8697H119.045C119.01 65.0449 118.94 65.1962 118.835 65.3236C118.73 65.451 118.598 65.5481 118.439 65.615C118.279 65.6819 118.099 65.7154 117.899 65.7154ZM119.74 65.6294V63.0779H120.103V64.1721H120.045C120.045 63.9236 120.077 63.7134 120.141 63.5414C120.208 63.3662 120.307 63.2324 120.437 63.1401C120.568 63.0477 120.733 63.0015 120.934 63.0015H120.953C121.154 63.0015 121.32 63.0477 121.45 63.1401C121.584 63.2324 121.683 63.3662 121.746 63.5414C121.81 63.7134 121.842 63.9236 121.842 64.1721H121.708C121.708 63.9236 121.742 63.7134 121.808 63.5414C121.875 63.3662 121.974 63.2324 122.105 63.1401C122.238 63.0477 122.406 63.0015 122.606 63.0015H122.626C122.826 63.0015 122.993 63.0477 123.127 63.1401C123.261 63.2324 123.36 63.3662 123.423 63.5414C123.49 63.7134 123.524 63.9236 123.524 64.1721V65.6294H123.065V64.0718C123.065 63.8647 123.014 63.7054 122.912 63.594C122.81 63.4793 122.669 63.422 122.487 63.422C122.299 63.422 122.148 63.4825 122.033 63.6035C121.918 63.7214 121.861 63.887 121.861 64.1004V65.6294H121.402V64.0718C121.402 63.8647 121.351 63.7054 121.249 63.594C121.148 63.4793 121.006 63.422 120.824 63.422C120.636 63.422 120.485 63.4825 120.37 63.6035C120.256 63.7214 120.198 63.887 120.198 64.1004V65.6294H119.74ZM124.239 64.497V64.1052H126.017V64.497H124.239ZM127.306 65.6294V62.3708L127.517 62.5333H126.532V62.1415H127.765V65.6294H127.306Z" fill="white"/>
<rect x="98.4302" y="69.5899" width="44.3667" height="8.19077" rx="1.36513" fill="#0C134F"/>
<path d="M104.258 75.2713C104.035 75.2713 103.839 75.2331 103.67 75.1566C103.501 75.0802 103.358 74.9798 103.24 74.8556C103.125 74.7282 103.038 74.5864 102.977 74.4304C102.92 74.2743 102.891 74.115 102.891 73.9526V73.8666C102.891 73.7041 102.921 73.5448 102.982 73.3888C103.042 73.2295 103.132 73.0878 103.249 72.9635C103.367 72.8361 103.511 72.7358 103.679 72.6625C103.848 72.5861 104.041 72.5478 104.258 72.5478C104.474 72.5478 104.667 72.5861 104.836 72.6625C105.004 72.7358 105.148 72.8361 105.266 72.9635C105.384 73.0878 105.473 73.2295 105.533 73.3888C105.594 73.5448 105.624 73.7041 105.624 73.8666V73.9526C105.624 74.115 105.594 74.2743 105.533 74.4304C105.476 74.5864 105.388 74.7282 105.27 74.8556C105.156 74.9798 105.014 75.0802 104.845 75.1566C104.676 75.2331 104.48 75.2713 104.258 75.2713ZM104.258 74.8604C104.449 74.8604 104.611 74.819 104.745 74.7361C104.882 74.6501 104.985 74.5355 105.055 74.3921C105.129 74.2488 105.165 74.0879 105.165 73.9096C105.165 73.728 105.129 73.5655 105.055 73.4222C104.982 73.2789 104.877 73.1658 104.74 73.083C104.606 73.0002 104.445 72.9587 104.258 72.9587C104.073 72.9587 103.912 73.0002 103.775 73.083C103.638 73.1658 103.533 73.2789 103.46 73.4222C103.386 73.5655 103.35 73.728 103.35 73.9096C103.35 74.0879 103.385 74.2488 103.455 74.3921C103.528 74.5355 103.632 74.6501 103.765 74.7361C103.902 74.819 104.066 74.8604 104.258 74.8604ZM106.311 76.1409V72.6338H106.674V73.7376L106.588 73.728C106.604 73.4541 106.661 73.2311 106.76 73.0591C106.862 72.8839 106.994 72.7549 107.157 72.6721C107.319 72.5893 107.496 72.5478 107.687 72.5478C107.872 72.5478 108.039 72.5829 108.189 72.653C108.342 72.723 108.472 72.8186 108.581 72.9396C108.689 73.0607 108.772 73.2008 108.829 73.3601C108.886 73.5194 108.915 73.6882 108.915 73.8666V73.9526C108.915 74.1309 108.885 74.2998 108.824 74.459C108.764 74.6183 108.678 74.7584 108.566 74.8795C108.458 75.0005 108.327 75.0961 108.174 75.1662C108.025 75.2362 107.859 75.2713 107.677 75.2713C107.496 75.2713 107.322 75.2315 107.157 75.1518C106.991 75.0722 106.854 74.9432 106.746 74.7648C106.637 74.5864 106.575 74.3523 106.559 74.0625L106.77 74.4447V76.1409H106.311ZM107.606 74.8699C107.778 74.8699 107.928 74.8301 108.055 74.7505C108.182 74.6677 108.281 74.5546 108.351 74.4112C108.421 74.2647 108.456 74.0975 108.456 73.9096C108.456 73.7184 108.421 73.5512 108.351 73.4079C108.281 73.2645 108.182 73.1531 108.055 73.0734C107.928 72.9906 107.778 72.9492 107.606 72.9492C107.453 72.9492 107.311 72.9842 107.181 73.0543C107.05 73.1212 106.945 73.2199 106.865 73.3505C106.789 73.478 106.751 73.6324 106.751 73.814V74.0338C106.751 74.209 106.79 74.3587 106.87 74.4829C106.95 74.6071 107.055 74.7027 107.185 74.7696C107.316 74.8365 107.456 74.8699 107.606 74.8699ZM109.481 74.0529V73.6611H111.258V74.0529H109.481ZM113.107 75.2713C112.887 75.2713 112.696 75.2331 112.534 75.1566C112.374 75.0802 112.242 74.9782 112.137 74.8508C112.032 74.7202 111.952 74.5769 111.898 74.4208C111.847 74.2647 111.822 74.1086 111.822 73.9526V73.8666C111.822 73.7041 111.847 73.5448 111.898 73.3888C111.952 73.2327 112.032 73.0925 112.137 72.9683C112.245 72.8409 112.379 72.739 112.538 72.6625C112.698 72.5861 112.884 72.5478 113.097 72.5478C113.311 72.5478 113.502 72.5877 113.671 72.6673C113.843 72.7469 113.98 72.86 114.082 73.0065C114.187 73.1499 114.246 73.3203 114.258 73.5178H113.819C113.797 73.3585 113.723 73.2263 113.599 73.1212C113.475 73.0129 113.308 72.9587 113.097 72.9587C112.916 72.9587 112.765 73.0002 112.643 73.083C112.522 73.1658 112.432 73.2789 112.371 73.4222C112.311 73.5655 112.28 73.728 112.28 73.9096C112.28 74.0848 112.311 74.2456 112.371 74.3921C112.432 74.5355 112.522 74.6501 112.643 74.7361C112.768 74.819 112.922 74.8604 113.107 74.8604C113.25 74.8604 113.375 74.8349 113.48 74.7839C113.585 74.733 113.669 74.6645 113.733 74.5785C113.797 74.4925 113.835 74.3953 113.848 74.287H114.287C114.278 74.4877 114.219 74.6613 114.11 74.8078C114.005 74.9543 113.865 75.069 113.69 75.1518C113.518 75.2315 113.324 75.2713 113.107 75.2713ZM114.91 75.1853V71.6974H115.369V73.7806H115.254C115.254 73.5289 115.286 73.3123 115.35 73.1308C115.417 72.946 115.519 72.8043 115.656 72.7055C115.793 72.6068 115.968 72.5574 116.181 72.5574H116.2C116.506 72.5574 116.737 72.6593 116.893 72.8632C117.049 73.0639 117.127 73.3521 117.127 73.728V75.1853H116.669V73.6324C116.669 73.4254 116.61 73.2645 116.492 73.1499C116.377 73.0352 116.227 72.9779 116.043 72.9779C115.839 72.9779 115.675 73.0463 115.551 73.1833C115.43 73.3171 115.369 73.4939 115.369 73.7137V75.1853H114.91ZM119.051 75.2713C118.828 75.2713 118.635 75.2331 118.473 75.1566C118.311 75.0802 118.178 74.9798 118.076 74.8556C117.975 74.7282 117.898 74.5864 117.847 74.4304C117.799 74.2743 117.775 74.115 117.775 73.9526V73.8666C117.775 73.7009 117.799 73.5401 117.847 73.384C117.898 73.2279 117.975 73.0878 118.076 72.9635C118.178 72.8361 118.307 72.7358 118.463 72.6625C118.623 72.5861 118.809 72.5478 119.022 72.5478C119.3 72.5478 119.527 72.6084 119.706 72.7294C119.887 72.8473 120.021 73.0002 120.107 73.1881C120.196 73.376 120.241 73.5767 120.241 73.7901V73.9956H117.976V73.6516H119.906L119.801 73.8379C119.801 73.6563 119.773 73.5002 119.715 73.3697C119.658 73.2359 119.572 73.1323 119.457 73.0591C119.343 72.9858 119.198 72.9492 119.022 72.9492C118.841 72.9492 118.69 72.9906 118.569 73.0734C118.451 73.1562 118.362 73.2693 118.301 73.4127C118.244 73.556 118.215 73.7216 118.215 73.9096C118.215 74.0911 118.244 74.2552 118.301 74.4017C118.362 74.545 118.454 74.6597 118.578 74.7457C118.702 74.8285 118.86 74.8699 119.051 74.8699C119.252 74.8699 119.414 74.8253 119.539 74.7361C119.666 74.647 119.742 74.5434 119.768 74.4256H120.198C120.163 74.6008 120.093 74.7521 119.988 74.8795C119.883 75.0069 119.75 75.104 119.591 75.1709C119.432 75.2378 119.252 75.2713 119.051 75.2713ZM121.986 75.2713C121.766 75.2713 121.575 75.2331 121.413 75.1566C121.254 75.0802 121.121 74.9782 121.016 74.8508C120.911 74.7202 120.832 74.5769 120.777 74.4208C120.726 74.2647 120.701 74.1086 120.701 73.9526V73.8666C120.701 73.7041 120.726 73.5448 120.777 73.3888C120.832 73.2327 120.911 73.0925 121.016 72.9683C121.125 72.8409 121.258 72.739 121.418 72.6625C121.577 72.5861 121.763 72.5478 121.977 72.5478C122.19 72.5478 122.381 72.5877 122.55 72.6673C122.722 72.7469 122.859 72.86 122.961 73.0065C123.066 73.1499 123.125 73.3203 123.138 73.5178H122.698C122.676 73.3585 122.603 73.2263 122.478 73.1212C122.354 73.0129 122.187 72.9587 121.977 72.9587C121.795 72.9587 121.644 73.0002 121.523 73.083C121.402 73.1658 121.311 73.2789 121.25 73.4222C121.19 73.5655 121.16 73.728 121.16 73.9096C121.16 74.0848 121.19 74.2456 121.25 74.3921C121.311 74.5355 121.402 74.6501 121.523 74.7361C121.647 74.819 121.802 74.8604 121.986 74.8604C122.13 74.8604 122.254 74.8349 122.359 74.7839C122.464 74.733 122.548 74.6645 122.612 74.5785C122.676 74.4925 122.714 74.3953 122.727 74.287H123.166C123.157 74.4877 123.098 74.6613 122.99 74.8078C122.885 74.9543 122.744 75.069 122.569 75.1518C122.397 75.2315 122.203 75.2713 121.986 75.2713ZM125.548 75.1853L124.588 73.9956H124.167L125.338 72.6338H125.82L124.76 73.8618L124.793 73.6181L126.078 75.1853H125.548ZM123.79 75.1853V71.6974H124.248V75.1853H123.79ZM127.327 75.2617C126.993 75.2617 126.733 75.1901 126.549 75.0467C126.367 74.9034 126.273 74.7075 126.267 74.459H126.697C126.703 74.5578 126.752 74.6517 126.845 74.7409C126.94 74.8269 127.101 74.8699 127.327 74.8699C127.531 74.8699 127.687 74.8301 127.796 74.7505C127.904 74.6677 127.958 74.5673 127.958 74.4495C127.958 74.3444 127.918 74.2631 127.839 74.2058C127.759 74.1453 127.63 74.1055 127.452 74.0863L127.175 74.0577C126.932 74.0322 126.735 73.9605 126.582 73.8427C126.429 73.7216 126.353 73.5528 126.353 73.3362C126.353 73.1738 126.394 73.0352 126.477 72.9205C126.56 72.8027 126.674 72.7135 126.821 72.653C126.967 72.5893 127.136 72.5574 127.327 72.5574C127.614 72.5574 127.847 72.6211 128.025 72.7485C128.203 72.8759 128.296 73.0655 128.302 73.3171H127.872C127.869 73.2152 127.821 73.1292 127.729 73.0591C127.64 72.9858 127.506 72.9492 127.327 72.9492C127.149 72.9492 127.014 72.9858 126.921 73.0591C126.829 73.1323 126.783 73.2247 126.783 73.3362C126.783 73.4318 126.815 73.5082 126.878 73.5655C126.945 73.6229 127.053 73.6595 127.203 73.6754L127.48 73.7041C127.754 73.7328 127.974 73.8092 128.14 73.9334C128.305 74.0545 128.388 74.2265 128.388 74.4495C128.388 74.6087 128.342 74.7505 128.25 74.8747C128.16 74.9957 128.036 75.0913 127.877 75.1614C127.718 75.2283 127.534 75.2617 127.327 75.2617ZM130.137 75.2713C129.915 75.2713 129.722 75.2331 129.559 75.1566C129.397 75.0802 129.265 74.9798 129.163 74.8556C129.061 74.7282 128.984 74.5864 128.933 74.4304C128.886 74.2743 128.862 74.115 128.862 73.9526V73.8666C128.862 73.7009 128.886 73.5401 128.933 73.384C128.984 73.2279 129.061 73.0878 129.163 72.9635C129.265 72.8361 129.394 72.7358 129.55 72.6625C129.709 72.5861 129.895 72.5478 130.109 72.5478C130.386 72.5478 130.614 72.6084 130.792 72.7294C130.974 72.8473 131.107 73.0002 131.193 73.1881C131.283 73.376 131.327 73.5767 131.327 73.7901V73.9956H129.062V73.6516H130.993L130.888 73.8379C130.888 73.6563 130.859 73.5002 130.802 73.3697C130.744 73.2359 130.658 73.1323 130.544 73.0591C130.429 72.9858 130.284 72.9492 130.109 72.9492C129.927 72.9492 129.776 72.9906 129.655 73.0734C129.537 73.1562 129.448 73.2693 129.387 73.4127C129.33 73.556 129.301 73.7216 129.301 73.9096C129.301 74.0911 129.33 74.2552 129.387 74.4017C129.448 74.545 129.54 74.6597 129.664 74.7457C129.789 74.8285 129.946 74.8699 130.137 74.8699C130.338 74.8699 130.501 74.8253 130.625 74.7361C130.752 74.647 130.829 74.5434 130.854 74.4256H131.284C131.249 74.6008 131.179 74.7521 131.074 74.8795C130.969 75.0069 130.837 75.104 130.677 75.1709C130.518 75.2378 130.338 75.2713 130.137 75.2713ZM133.933 76.1409V74.4256L134.114 74.0625C134.105 74.3396 134.049 74.5673 133.947 74.7457C133.845 74.9241 133.713 75.0563 133.55 75.1423C133.391 75.2283 133.216 75.2713 133.025 75.2713C132.843 75.2713 132.676 75.2362 132.523 75.1662C132.373 75.0961 132.243 74.9989 132.131 74.8747C132.023 74.7505 131.939 74.6087 131.878 74.4495C131.818 74.287 131.787 74.115 131.787 73.9334V73.8474C131.787 73.6659 131.818 73.4971 131.878 73.341C131.939 73.1849 132.025 73.0479 132.136 72.9301C132.248 72.809 132.38 72.7151 132.533 72.6482C132.686 72.5813 132.856 72.5478 133.044 72.5478C133.261 72.5478 133.45 72.594 133.613 72.6864C133.778 72.7788 133.909 72.9126 134.004 73.0878C134.1 73.2629 134.152 73.4764 134.162 73.728H134.028V72.6338H134.391V76.1409H133.933ZM133.106 74.8508C133.262 74.8508 133.404 74.8158 133.531 74.7457C133.659 74.6756 133.761 74.5753 133.837 74.4447C133.914 74.3109 133.952 74.1548 133.952 73.9765V73.7567C133.952 73.5815 133.912 73.4334 133.832 73.3123C133.756 73.1881 133.652 73.0941 133.522 73.0304C133.394 72.9635 133.256 72.9301 133.106 72.9301C132.934 72.9301 132.783 72.9699 132.652 73.0495C132.525 73.1292 132.424 73.2422 132.351 73.3888C132.281 73.5321 132.246 73.6993 132.246 73.8904C132.246 74.0816 132.283 74.2504 132.356 74.3969C132.429 74.5402 132.531 74.6517 132.662 74.7314C132.792 74.811 132.94 74.8508 133.106 74.8508ZM135.182 75.1853V74.6024H135.736V75.1853H135.182ZM136.432 75.1853V74.6024H136.987V75.1853H136.432ZM137.683 75.1853V74.6024H138.237V75.1853H137.683Z" fill="white"/>
<path d="M150.217 72.6144V72.1475H153.03V72.6144H150.217ZM150.217 73.7079V73.241H153.03V73.7079H150.217Z" fill="#0C134F"/>
<path d="M64.3019 73.787V35.4606C64.3019 32.4448 66.7467 30.0001 69.7625 30.0001H115.153C118.169 30.0001 120.613 32.4448 120.613 35.4606V52.1834" stroke="#252525" stroke-width="0.341282" stroke-linecap="round" stroke-dasharray="1.71 1.71"/>
<path d="M64.3016 76.0061C65.1498 76.0061 65.8374 75.3185 65.8374 74.4703C65.8374 73.6221 65.1498 72.9345 64.3016 72.9345C63.4534 72.9345 62.7658 73.6221 62.7658 74.4703C62.7658 75.3185 63.4534 76.0061 64.3016 76.0061Z" fill="white" stroke="#252525" stroke-width="1.02385"/>
<path d="M120.246 55.0235L118.645 52.4476C118.482 52.1859 118.588 51.86 118.826 51.7296C118.965 51.6537 119.131 51.6991 119.28 51.7526L119.92 51.9834C120.369 52.1452 120.86 52.1452 121.309 51.9834L121.949 51.7526C122.097 51.6991 122.264 51.6538 122.402 51.7296C122.637 51.8581 122.744 52.1761 122.59 52.4372L121.073 55.0131C120.886 55.3313 120.441 55.3368 120.246 55.0235Z" fill="#252525"/>
<defs>
<linearGradient id="paint0_linear_2864_7997" x1="35.0628" y1="40.5821" x2="67.3579" y2="108.99" gradientUnits="userSpaceOnUse">
<stop stop-color="#662B64"/>
<stop offset="1" stop-color="#456F97"/>
</linearGradient>
<linearGradient id="paint1_linear_2864_7997" x1="158.063" y1="40.5821" x2="190.358" y2="108.99" gradientUnits="userSpaceOnUse">
<stop stop-color="#662B64"/>
<stop offset="1" stop-color="#456F97"/>
</linearGradient>
</defs>
</svg>
