<svg width="178" height="64" viewBox="0 0 178 64" fill="none" xmlns="http://www.w3.org/2000/svg">
<mask id="path-1-inside-1_2864_7919" fill="white">
<path d="M0 17.0405C0 16.2865 0.611189 15.6754 1.36513 15.6754H53.24C53.9939 15.6754 54.6051 16.2865 54.6051 17.0405V62.0897C54.6051 62.8437 53.9939 63.4548 53.24 63.4548H1.36513C0.611187 63.4548 0 62.8437 0 62.0897V17.0405Z"/>
</mask>
<path d="M0 17.0405C0 16.2865 0.611189 15.6754 1.36513 15.6754H53.24C53.9939 15.6754 54.6051 16.2865 54.6051 17.0405V62.0897C54.6051 62.8437 53.9939 63.4548 53.24 63.4548H1.36513C0.611187 63.4548 0 62.8437 0 62.0897V17.0405Z" fill="white"/>
<path d="M0 15.6754H54.6051H0ZM56.6528 62.0897C56.6528 63.9746 55.1248 65.5025 53.24 65.5025H1.36513C-0.51972 65.5025 -2.04769 63.9746 -2.04769 62.0897L2.04769 61.4071H52.5574L56.6528 62.0897ZM1.36513 65.5025C-0.51972 65.5025 -2.04769 63.9746 -2.04769 62.0897V19.0882C-2.04769 17.2033 -0.51972 15.6754 1.36513 15.6754H2.04769C2.04769 15.6754 2.04769 16.2865 2.04769 17.0405V61.4071L1.36513 65.5025ZM53.24 15.6754C55.1248 15.6754 56.6528 17.2033 56.6528 19.0882V62.0897C56.6528 63.9746 55.1248 65.5025 53.24 65.5025L52.5574 61.4071V17.0405C52.5574 16.2865 52.5574 15.6754 52.5574 15.6754H53.24Z" fill="url(#paint0_linear_2864_7919)" fill-opacity="0.3" mask="url(#path-1-inside-1_2864_7919)"/>
<mask id="path-3-inside-2_2864_7919" fill="white">
<path d="M123 17.0405C123 16.2865 123.611 15.6754 124.365 15.6754H176.24C176.994 15.6754 177.605 16.2865 177.605 17.0405V62.0897C177.605 62.8437 176.994 63.4548 176.24 63.4548H124.365C123.611 63.4548 123 62.8437 123 62.0897V17.0405Z"/>
</mask>
<path d="M123 17.0405C123 16.2865 123.611 15.6754 124.365 15.6754H176.24C176.994 15.6754 177.605 16.2865 177.605 17.0405V62.0897C177.605 62.8437 176.994 63.4548 176.24 63.4548H124.365C123.611 63.4548 123 62.8437 123 62.0897V17.0405Z" fill="white"/>
<path d="M123 15.6754H177.605H123ZM179.653 62.0897C179.653 63.9746 178.125 65.5025 176.24 65.5025H124.365C122.48 65.5025 120.952 63.9746 120.952 62.0897L125.048 61.4071H175.557L179.653 62.0897ZM124.365 65.5025C122.48 65.5025 120.952 63.9746 120.952 62.0897V19.0882C120.952 17.2033 122.48 15.6754 124.365 15.6754H125.048C125.048 15.6754 125.048 16.2865 125.048 17.0405V61.4071L124.365 65.5025ZM176.24 15.6754C178.125 15.6754 179.653 17.2033 179.653 19.0882V62.0897C179.653 63.9746 178.125 65.5025 176.24 65.5025L175.557 61.4071V17.0405C175.557 16.2865 175.557 15.6754 175.557 15.6754H176.24Z" fill="url(#paint1_linear_2864_7919)" fill-opacity="0.3" mask="url(#path-3-inside-2_2864_7919)"/>
<rect x="5.1192" y="50.5898" width="44.3667" height="8.19077" rx="1.36513" fill="#5C469C"/>
<path d="M20.0777 56.1852V52.6973H20.5459V56.1852H20.0777ZM22.4975 56.2138C22.3064 56.2138 22.1408 56.1868 22.0006 56.1326C21.8636 56.0785 21.7569 55.9861 21.6805 55.8555C21.6072 55.7217 21.5706 55.5418 21.5706 55.3156V52.8597H22.0102V55.3729C22.0102 55.5099 22.0468 55.6166 22.1201 55.6931C22.1965 55.7663 22.3032 55.8029 22.4402 55.8029H22.8893V56.2138H22.4975ZM21.131 53.9778V53.6338H22.8893V53.9778H21.131ZM24.604 56.2712C24.381 56.2712 24.1883 56.233 24.0259 56.1565C23.8634 56.0801 23.7312 55.9797 23.6293 55.8555C23.5274 55.7281 23.4509 55.5863 23.3999 55.4303C23.3522 55.2742 23.3283 55.1149 23.3283 54.9525V54.8665C23.3283 54.7008 23.3522 54.54 23.3999 54.3839C23.4509 54.2278 23.5274 54.0877 23.6293 53.9634C23.7312 53.836 23.8602 53.7357 24.0163 53.6624C24.1756 53.586 24.3619 53.5478 24.5753 53.5478C24.8524 53.5478 25.0802 53.6083 25.2586 53.7293C25.4401 53.8472 25.5739 54.0001 25.6599 54.188C25.7491 54.3759 25.7937 54.5766 25.7937 54.79V54.9955H23.5289V54.6515H25.4592L25.3541 54.8378C25.3541 54.6562 25.3255 54.5002 25.2681 54.3696C25.2108 54.2358 25.1248 54.1323 25.0101 54.059C24.8954 53.9857 24.7505 53.9491 24.5753 53.9491C24.3938 53.9491 24.2425 53.9905 24.1214 54.0733C24.0036 54.1561 23.9144 54.2692 23.8539 54.4126C23.7965 54.5559 23.7678 54.7215 23.7678 54.9095C23.7678 55.091 23.7965 55.2551 23.8539 55.4016C23.9144 55.5449 24.0067 55.6596 24.131 55.7456C24.2552 55.8284 24.4129 55.8698 24.604 55.8698C24.8047 55.8698 24.9671 55.8252 25.0913 55.7361C25.2188 55.6469 25.2952 55.5433 25.3207 55.4255H25.7507C25.7157 55.6007 25.6456 55.752 25.5405 55.8794C25.4354 56.0068 25.3032 56.104 25.1439 56.1708C24.9846 56.2377 24.8047 56.2712 24.604 56.2712ZM26.445 56.1852V53.6338H26.8081V54.7279H26.7507C26.7507 54.4795 26.7826 54.2692 26.8463 54.0972C26.9132 53.922 27.0119 53.7882 27.1425 53.6959C27.2731 53.6035 27.4388 53.5573 27.6394 53.5573H27.6586C27.8592 53.5573 28.0249 53.6035 28.1555 53.6959C28.2892 53.7882 28.388 53.922 28.4517 54.0972C28.5154 54.2692 28.5473 54.4795 28.5473 54.7279H28.4135C28.4135 54.4795 28.4469 54.2692 28.5138 54.0972C28.5807 53.922 28.6794 53.7882 28.81 53.6959C28.9438 53.6035 29.111 53.5573 29.3117 53.5573H29.3308C29.5315 53.5573 29.6987 53.6035 29.8325 53.6959C29.9663 53.7882 30.065 53.922 30.1288 54.0972C30.1956 54.2692 30.2291 54.4795 30.2291 54.7279V56.1852H29.7704V54.6276C29.7704 54.4205 29.7194 54.2613 29.6175 54.1498C29.5156 54.0351 29.3738 53.9778 29.1923 53.9778C29.0043 53.9778 28.853 54.0383 28.7384 54.1593C28.6237 54.2772 28.5664 54.4428 28.5664 54.6562V56.1852H28.1077V54.6276C28.1077 54.4205 28.0567 54.2613 27.9548 54.1498C27.8529 54.0351 27.7111 53.9778 27.5295 53.9778C27.3416 53.9778 27.1903 54.0383 27.0756 54.1593C26.961 54.2772 26.9036 54.4428 26.9036 54.6562V56.1852H26.445ZM30.9447 55.0528V54.661H32.7221V55.0528H30.9447ZM34.0117 56.1852V52.9266L34.2219 53.0891H33.2377V52.6973H34.4704V56.1852H34.0117Z" fill="white"/>
<rect x="61.4302" y="31.034" width="44.3667" height="8.19077" rx="1.36513" fill="#5C469C"/>
<path d="M76.4528 36.6294V34.0779H76.9115V36.6294H76.4528ZM76.061 34.4411V34.0779H76.9115V34.4411H76.061ZM76.5818 33.667C76.4799 33.667 76.4034 33.64 76.3525 33.5858C76.3047 33.5317 76.2808 33.4632 76.2808 33.3804C76.2808 33.2975 76.3047 33.2291 76.3525 33.1749C76.4034 33.1208 76.4799 33.0937 76.5818 33.0937C76.6838 33.0937 76.7586 33.1208 76.8064 33.1749C76.8574 33.2291 76.8828 33.2975 76.8828 33.3804C76.8828 33.4632 76.8574 33.5317 76.8064 33.5858C76.7586 33.64 76.6838 33.667 76.5818 33.667ZM78.7922 36.658C78.6011 36.658 78.4354 36.631 78.2953 36.5768C78.1583 36.5227 78.0516 36.4303 77.9752 36.2997C77.9019 36.1659 77.8653 35.9859 77.8653 35.7598V33.3039H78.3048V35.8171C78.3048 35.9541 78.3415 36.0608 78.4147 36.1372C78.4912 36.2105 78.5979 36.2471 78.7348 36.2471H79.184V36.658H78.7922ZM77.4257 34.422V34.0779H79.184V34.422H77.4257ZM80.8987 36.7154C80.6757 36.7154 80.483 36.6771 80.3205 36.6007C80.1581 36.5242 80.0259 36.4239 79.924 36.2997C79.822 36.1723 79.7456 36.0305 79.6946 35.8744C79.6468 35.7184 79.6229 35.5591 79.6229 35.3967V35.3107C79.6229 35.145 79.6468 34.9842 79.6946 34.8281C79.7456 34.672 79.822 34.5318 79.924 34.4076C80.0259 34.2802 80.1549 34.1799 80.311 34.1066C80.4702 34.0302 80.6566 33.9919 80.87 33.9919C81.1471 33.9919 81.3749 34.0525 81.5532 34.1735C81.7348 34.2914 81.8686 34.4442 81.9546 34.6322C82.0438 34.8201 82.0884 35.0208 82.0884 35.2342V35.4397H79.8236V35.0956H81.7539L81.6488 35.282C81.6488 35.1004 81.6201 34.9443 81.5628 34.8137C81.5055 34.68 81.4195 34.5764 81.3048 34.5032C81.1901 34.4299 81.0452 34.3933 80.87 34.3933C80.6884 34.3933 80.5371 34.4347 80.4161 34.5175C80.2982 34.6003 80.209 34.7134 80.1485 34.8567C80.0912 35.0001 80.0625 35.1657 80.0625 35.3537C80.0625 35.5352 80.0912 35.6993 80.1485 35.8458C80.209 35.9891 80.3014 36.1038 80.4256 36.1898C80.5499 36.2726 80.7075 36.314 80.8987 36.314C81.0993 36.314 81.2618 36.2694 81.386 36.1802C81.5134 36.091 81.5899 35.9875 81.6154 35.8697H82.0454C82.0103 36.0449 81.9403 36.1962 81.8351 36.3236C81.73 36.451 81.5978 36.5481 81.4386 36.615C81.2793 36.6819 81.0993 36.7154 80.8987 36.7154ZM82.7396 36.6294V34.0779H83.1028V35.1721H83.0454C83.0454 34.9236 83.0773 34.7134 83.141 34.5414C83.2079 34.3662 83.3066 34.2324 83.4372 34.1401C83.5678 34.0477 83.7334 34.0015 83.9341 34.0015H83.9532C84.1539 34.0015 84.3195 34.0477 84.4501 34.1401C84.5839 34.2324 84.6827 34.3662 84.7464 34.5414C84.8101 34.7134 84.8419 34.9236 84.8419 35.1721H84.7081C84.7081 34.9236 84.7416 34.7134 84.8085 34.5414C84.8754 34.3662 84.9741 34.2324 85.1047 34.1401C85.2385 34.0477 85.4057 34.0015 85.6064 34.0015H85.6255C85.8262 34.0015 85.9934 34.0477 86.1272 34.1401C86.261 34.2324 86.3597 34.3662 86.4234 34.5414C86.4903 34.7134 86.5238 34.9236 86.5238 35.1721V36.6294H86.0651V35.0718C86.0651 34.8647 86.0141 34.7054 85.9122 34.594C85.8103 34.4793 85.6685 34.422 85.4869 34.422C85.299 34.422 85.1477 34.4825 85.033 34.6035C84.9184 34.7214 84.861 34.887 84.861 35.1004V36.6294H84.4024V35.0718C84.4024 34.8647 84.3514 34.7054 84.2495 34.594C84.1475 34.4793 84.0058 34.422 83.8242 34.422C83.6363 34.422 83.485 34.4825 83.3703 34.6035C83.2556 34.7214 83.1983 34.887 83.1983 35.1004V36.6294H82.7396ZM87.2394 35.497V35.1052H89.0168V35.497H87.2394ZM90.3064 36.6294V33.3708L90.5166 33.5333H89.5323V33.1415H90.7651V36.6294H90.3064Z" fill="white"/>
<rect x="61.4302" y="40.5899" width="44.3667" height="8.19077" rx="1.36513" fill="#0C134F"/>
<path d="M66.5203 46.2713C66.2973 46.2713 66.1014 46.2331 65.9326 46.1566C65.7638 46.0802 65.6204 45.9798 65.5026 45.8556C65.3879 45.7282 65.3003 45.5864 65.2398 45.4304C65.1825 45.2743 65.1538 45.115 65.1538 44.9526V44.8666C65.1538 44.7041 65.1841 44.5448 65.2446 44.3888C65.3051 44.2295 65.3943 44.0878 65.5121 43.9635C65.63 43.8361 65.7733 43.7358 65.9422 43.6625C66.111 43.5861 66.3037 43.5478 66.5203 43.5478C66.7369 43.5478 66.9296 43.5861 67.0984 43.6625C67.2672 43.7358 67.4106 43.8361 67.5284 43.9635C67.6463 44.0878 67.7355 44.2295 67.796 44.3888C67.8565 44.5448 67.8868 44.7041 67.8868 44.8666V44.9526C67.8868 45.115 67.8565 45.2743 67.796 45.4304C67.7387 45.5864 67.6511 45.7282 67.5332 45.8556C67.4185 45.9798 67.2768 46.0802 67.108 46.1566C66.9392 46.2331 66.7433 46.2713 66.5203 46.2713ZM66.5203 45.8604C66.7114 45.8604 66.8739 45.819 67.0076 45.7361C67.1446 45.6501 67.2481 45.5355 67.3182 45.3921C67.3915 45.2488 67.4281 45.0879 67.4281 44.9096C67.4281 44.728 67.3915 44.5655 67.3182 44.4222C67.2449 44.2789 67.1398 44.1658 67.0029 44.083C66.8691 44.0002 66.7082 43.9587 66.5203 43.9587C66.3355 43.9587 66.1747 44.0002 66.0377 44.083C65.9007 44.1658 65.7956 44.2789 65.7224 44.4222C65.6491 44.5655 65.6125 44.728 65.6125 44.9096C65.6125 45.0879 65.6475 45.2488 65.7176 45.3921C65.7909 45.5355 65.8944 45.6501 66.0282 45.7361C66.1651 45.819 66.3292 45.8604 66.5203 45.8604ZM68.5738 47.1409V43.6338H68.9369V44.7376L68.8509 44.728C68.8668 44.4541 68.9241 44.2311 69.0229 44.0591C69.1248 43.8839 69.257 43.7549 69.4195 43.6721C69.5819 43.5893 69.7587 43.5478 69.9498 43.5478C70.1346 43.5478 70.3018 43.5829 70.4515 43.653C70.6044 43.723 70.735 43.8186 70.8433 43.9396C70.9516 44.0607 71.0344 44.2008 71.0917 44.3601C71.1491 44.5194 71.1777 44.6882 71.1777 44.8666V44.9526C71.1777 45.1309 71.1475 45.2998 71.087 45.459C71.0264 45.6183 70.9404 45.7584 70.8289 45.8795C70.7206 46.0005 70.5901 46.0961 70.4372 46.1662C70.2874 46.2362 70.1218 46.2713 69.9403 46.2713C69.7587 46.2713 69.5851 46.2315 69.4195 46.1518C69.2538 46.0722 69.1169 45.9432 69.0086 45.7648C68.9003 45.5864 68.8381 45.3523 68.8222 45.0625L69.0324 45.4447V47.1409H68.5738ZM69.8686 45.8699C70.0406 45.8699 70.1903 45.8301 70.3177 45.7505C70.4451 45.6677 70.5439 45.5546 70.6139 45.4112C70.684 45.2647 70.7191 45.0975 70.7191 44.9096C70.7191 44.7184 70.684 44.5512 70.6139 44.4079C70.5439 44.2645 70.4451 44.1531 70.3177 44.0734C70.1903 43.9906 70.0406 43.9492 69.8686 43.9492C69.7157 43.9492 69.5739 43.9842 69.4433 44.0543C69.3127 44.1212 69.2076 44.2199 69.128 44.3505C69.0516 44.478 69.0133 44.6324 69.0133 44.814V45.0338C69.0133 45.209 69.0531 45.3587 69.1328 45.4829C69.2124 45.6071 69.3175 45.7027 69.4481 45.7696C69.5787 45.8365 69.7189 45.8699 69.8686 45.8699ZM71.7437 45.0529V44.6611H73.5211V45.0529H71.7437ZM75.3697 46.2713C75.1499 46.2713 74.9588 46.2331 74.7964 46.1566C74.6371 46.0802 74.5049 45.9782 74.3998 45.8508C74.2947 45.7202 74.215 45.5769 74.1609 45.4208C74.1099 45.2647 74.0844 45.1086 74.0844 44.9526V44.8666C74.0844 44.7041 74.1099 44.5448 74.1609 44.3888C74.215 44.2327 74.2947 44.0925 74.3998 43.9683C74.5081 43.8409 74.6419 43.739 74.8011 43.6625C74.9604 43.5861 75.1467 43.5478 75.3602 43.5478C75.5736 43.5478 75.7647 43.5877 75.9335 43.6673C76.1055 43.7469 76.2425 43.86 76.3444 44.0065C76.4495 44.1499 76.5085 44.3203 76.5212 44.5178H76.0816C76.0593 44.3585 75.9861 44.2263 75.8618 44.1212C75.7376 44.0129 75.5704 43.9587 75.3602 43.9587C75.1786 43.9587 75.0273 44.0002 74.9063 44.083C74.7852 44.1658 74.6944 44.2789 74.6339 44.4222C74.5734 44.5655 74.5431 44.728 74.5431 44.9096C74.5431 45.0848 74.5734 45.2456 74.6339 45.3921C74.6944 45.5355 74.7852 45.6501 74.9063 45.7361C75.0305 45.819 75.185 45.8604 75.3697 45.8604C75.5131 45.8604 75.6373 45.8349 75.7424 45.7839C75.8475 45.733 75.9319 45.6645 75.9956 45.5785C76.0593 45.4925 76.0976 45.3953 76.1103 45.287H76.5499C76.5403 45.4877 76.4814 45.6613 76.3731 45.8078C76.268 45.9543 76.1278 46.069 75.9526 46.1518C75.7806 46.2315 75.5863 46.2713 75.3697 46.2713ZM77.1731 46.1853V42.6974H77.6318V44.7806H77.5171C77.5171 44.5289 77.549 44.3123 77.6127 44.1308C77.6796 43.946 77.7815 43.8043 77.9185 43.7055C78.0555 43.6068 78.2307 43.5574 78.4441 43.5574H78.4632C78.769 43.5574 78.9999 43.6593 79.156 43.8632C79.3121 44.0639 79.3901 44.3521 79.3901 44.728V46.1853H78.9314V44.6324C78.9314 44.4254 78.8725 44.2645 78.7546 44.1499C78.64 44.0352 78.4903 43.9779 78.3055 43.9779C78.1016 43.9779 77.9376 44.0463 77.8134 44.1833C77.6923 44.3171 77.6318 44.4939 77.6318 44.7137V46.1853H77.1731ZM81.3139 46.2713C81.091 46.2713 80.8983 46.2331 80.7358 46.1566C80.5734 46.0802 80.4412 45.9798 80.3392 45.8556C80.2373 45.7282 80.1609 45.5864 80.1099 45.4304C80.0621 45.2743 80.0382 45.115 80.0382 44.9526V44.8666C80.0382 44.7009 80.0621 44.5401 80.1099 44.384C80.1609 44.2279 80.2373 44.0878 80.3392 43.9635C80.4412 43.8361 80.5702 43.7358 80.7262 43.6625C80.8855 43.5861 81.0719 43.5478 81.2853 43.5478C81.5624 43.5478 81.7901 43.6084 81.9685 43.7294C82.1501 43.8473 82.2839 44.0002 82.3699 44.1881C82.459 44.376 82.5036 44.5767 82.5036 44.7901V44.9956H80.2389V44.6516H82.1692L82.0641 44.8379C82.0641 44.6563 82.0354 44.5002 81.9781 44.3697C81.9207 44.2359 81.8347 44.1323 81.7201 44.0591C81.6054 43.9858 81.4605 43.9492 81.2853 43.9492C81.1037 43.9492 80.9524 43.9906 80.8314 44.0734C80.7135 44.1562 80.6243 44.2693 80.5638 44.4127C80.5065 44.556 80.4778 44.7216 80.4778 44.9096C80.4778 45.0911 80.5065 45.2552 80.5638 45.4017C80.6243 45.545 80.7167 45.6597 80.8409 45.7457C80.9651 45.8285 81.1228 45.8699 81.3139 45.8699C81.5146 45.8699 81.6771 45.8253 81.8013 45.7361C81.9287 45.647 82.0051 45.5434 82.0306 45.4256H82.4606C82.4256 45.6008 82.3555 45.7521 82.2504 45.8795C82.1453 46.0069 82.0131 46.104 81.8538 46.1709C81.6946 46.2378 81.5146 46.2713 81.3139 46.2713ZM84.249 46.2713C84.0293 46.2713 83.8381 46.2331 83.6757 46.1566C83.5164 46.0802 83.3842 45.9782 83.2791 45.8508C83.174 45.7202 83.0944 45.5769 83.0402 45.4208C82.9893 45.2647 82.9638 45.1086 82.9638 44.9526V44.8666C82.9638 44.7041 82.9893 44.5448 83.0402 44.3888C83.0944 44.2327 83.174 44.0925 83.2791 43.9683C83.3874 43.8409 83.5212 43.739 83.6805 43.6625C83.8397 43.5861 84.0261 43.5478 84.2395 43.5478C84.4529 43.5478 84.644 43.5877 84.8128 43.6673C84.9849 43.7469 85.1218 43.86 85.2238 44.0065C85.3289 44.1499 85.3878 44.3203 85.4005 44.5178H84.961C84.9387 44.3585 84.8654 44.2263 84.7412 44.1212C84.617 44.0129 84.4497 43.9587 84.2395 43.9587C84.0579 43.9587 83.9066 44.0002 83.7856 44.083C83.6645 44.1658 83.5738 44.2789 83.5132 44.4222C83.4527 44.5655 83.4225 44.728 83.4225 44.9096C83.4225 45.0848 83.4527 45.2456 83.5132 45.3921C83.5738 45.5355 83.6645 45.6501 83.7856 45.7361C83.9098 45.819 84.0643 45.8604 84.249 45.8604C84.3924 45.8604 84.5166 45.8349 84.6217 45.7839C84.7268 45.733 84.8113 45.6645 84.875 45.5785C84.9387 45.4925 84.9769 45.3953 84.9896 45.287H85.4292C85.4196 45.4877 85.3607 45.6613 85.2524 45.8078C85.1473 45.9543 85.0072 46.069 84.832 46.1518C84.66 46.2315 84.4657 46.2713 84.249 46.2713ZM87.8107 46.1853L86.8504 44.9956H86.4299L87.6005 43.6338H88.0831L87.0224 44.8618L87.0558 44.6181L88.3411 46.1853H87.8107ZM86.0525 46.1853V42.6974H86.5111V46.1853H86.0525ZM88.8061 46.1853V42.6974H89.2647V46.1853H88.8061ZM88.4525 43.0605V42.6974H89.2647V43.0605H88.4525ZM91.3199 46.2713C91.0969 46.2713 90.901 46.2331 90.7322 46.1566C90.5634 46.0802 90.42 45.9798 90.3022 45.8556C90.1875 45.7282 90.0999 45.5864 90.0394 45.4304C89.9821 45.2743 89.9534 45.115 89.9534 44.9526V44.8666C89.9534 44.7041 89.9837 44.5448 90.0442 44.3888C90.1047 44.2295 90.1939 44.0878 90.3117 43.9635C90.4296 43.8361 90.5729 43.7358 90.7418 43.6625C90.9106 43.5861 91.1033 43.5478 91.3199 43.5478C91.5365 43.5478 91.7292 43.5861 91.898 43.6625C92.0668 43.7358 92.2102 43.8361 92.328 43.9635C92.4459 44.0878 92.5351 44.2295 92.5956 44.3888C92.6561 44.5448 92.6864 44.7041 92.6864 44.8666V44.9526C92.6864 45.115 92.6561 45.2743 92.5956 45.4304C92.5383 45.5864 92.4507 45.7282 92.3328 45.8556C92.2181 45.9798 92.0764 46.0802 91.9076 46.1566C91.7388 46.2331 91.5429 46.2713 91.3199 46.2713ZM91.3199 45.8604C91.511 45.8604 91.6735 45.819 91.8072 45.7361C91.9442 45.6501 92.0477 45.5355 92.1178 45.3921C92.1911 45.2488 92.2277 45.0879 92.2277 44.9096C92.2277 44.728 92.1911 44.5655 92.1178 44.4222C92.0445 44.2789 91.9394 44.1658 91.8025 44.083C91.6687 44.0002 91.5078 43.9587 91.3199 43.9587C91.1351 43.9587 90.9743 44.0002 90.8373 44.083C90.7003 44.1658 90.5952 44.2789 90.522 44.4222C90.4487 44.5655 90.4121 44.728 90.4121 44.9096C90.4121 45.0879 90.4471 45.2488 90.5172 45.3921C90.5905 45.5355 90.694 45.6501 90.8278 45.7361C90.9647 45.819 91.1288 45.8604 91.3199 45.8604ZM94.4675 46.2713C94.2477 46.2713 94.0566 46.2331 93.8942 46.1566C93.7349 46.0802 93.6027 45.9782 93.4976 45.8508C93.3925 45.7202 93.3128 45.5769 93.2587 45.4208C93.2077 45.2647 93.1822 45.1086 93.1822 44.9526V44.8666C93.1822 44.7041 93.2077 44.5448 93.2587 44.3888C93.3128 44.2327 93.3925 44.0925 93.4976 43.9683C93.6059 43.8409 93.7397 43.739 93.8989 43.6625C94.0582 43.5861 94.2445 43.5478 94.458 43.5478C94.6714 43.5478 94.8625 43.5877 95.0313 43.6673C95.2033 43.7469 95.3403 43.86 95.4422 44.0065C95.5473 44.1499 95.6063 44.3203 95.619 44.5178H95.1794C95.1571 44.3585 95.0839 44.2263 94.9596 44.1212C94.8354 44.0129 94.6682 43.9587 94.458 43.9587C94.2764 43.9587 94.1251 44.0002 94.0041 44.083C93.883 44.1658 93.7922 44.2789 93.7317 44.4222C93.6712 44.5655 93.6409 44.728 93.6409 44.9096C93.6409 45.0848 93.6712 45.2456 93.7317 45.3921C93.7922 45.5355 93.883 45.6501 94.0041 45.7361C94.1283 45.819 94.2828 45.8604 94.4675 45.8604C94.6109 45.8604 94.7351 45.8349 94.8402 45.7839C94.9453 45.733 95.0297 45.6645 95.0934 45.5785C95.1571 45.4925 95.1954 45.3953 95.2081 45.287H95.6477C95.6381 45.4877 95.5792 45.6613 95.4709 45.8078C95.3658 45.9543 95.2256 46.069 95.0504 46.1518C94.8784 46.2315 94.6841 46.2713 94.4675 46.2713ZM98.0292 46.1853L97.0688 44.9956H96.6484L97.819 43.6338H98.3016L97.2409 44.8618L97.2743 44.6181L98.5596 46.1853H98.0292ZM96.2709 46.1853V42.6974H96.7296V46.1853H96.2709ZM98.9191 46.1853V45.6024H99.4733V46.1853H98.9191ZM100.17 46.1853V45.6024H100.724V46.1853H100.17ZM101.42 46.1853V45.6024H101.974V46.1853H101.42Z" fill="white"/>
<path d="M113.217 43.6144V43.1475H116.03V43.6144H113.217ZM113.217 44.7079V44.241H116.03V44.7079H113.217Z" fill="#0C134F"/>
<path d="M27.3019 44.787V6.46059C27.3019 3.44483 29.7467 1.00007 32.7625 1.00007H78.153C81.1687 1.00007 83.6135 3.44482 83.6135 6.46058V23.1834" stroke="#252525" stroke-width="0.341282" stroke-linecap="round" stroke-dasharray="1.71 1.71"/>
<path d="M27.3016 47.0061C28.1498 47.0061 28.8374 46.3185 28.8374 45.4703C28.8374 44.6221 28.1498 43.9345 27.3016 43.9345C26.4534 43.9345 25.7658 44.6221 25.7658 45.4703C25.7658 46.3185 26.4534 47.0061 27.3016 47.0061Z" fill="white" stroke="#252525" stroke-width="1.02385"/>
<path d="M83.2458 26.0235L81.6446 23.4476C81.4819 23.1859 81.5883 22.86 81.8263 22.7296C81.9647 22.6537 82.1311 22.6991 82.2796 22.7526L82.9198 22.9834C83.3686 23.1452 83.8599 23.1452 84.3087 22.9834L84.9489 22.7526C85.0974 22.6991 85.2638 22.6538 85.4022 22.7296C85.6365 22.8581 85.7439 23.1761 85.5901 23.4372L84.0732 26.0131C83.8859 26.3313 83.4406 26.3368 83.2458 26.0235Z" fill="#252525"/>
<defs>
<linearGradient id="paint0_linear_2864_7919" x1="-1.93721" y1="11.5821" x2="30.3579" y2="79.9902" gradientUnits="userSpaceOnUse">
<stop stop-color="#662B64"/>
<stop offset="1" stop-color="#456F97"/>
</linearGradient>
<linearGradient id="paint1_linear_2864_7919" x1="121.063" y1="11.5821" x2="153.358" y2="79.9902" gradientUnits="userSpaceOnUse">
<stop stop-color="#662B64"/>
<stop offset="1" stop-color="#456F97"/>
</linearGradient>
</defs>
</svg>
