<svg width="253" height="123" viewBox="0 0 253 123" fill="none" xmlns="http://www.w3.org/2000/svg">
<rect width="253" height="123" rx="10" fill="#F4F4F4"/>
<mask id="path-2-inside-1_2862_8168" fill="white">
<path d="M12 56.0405C12 55.2865 12.6112 54.6754 13.3651 54.6754H65.24C65.9939 54.6754 66.6051 55.2865 66.6051 56.0405V101.09C66.6051 101.844 65.9939 102.455 65.24 102.455H13.3651C12.6112 102.455 12 101.844 12 101.09V56.0405Z"/>
</mask>
<path d="M12 56.0405C12 55.2865 12.6112 54.6754 13.3651 54.6754H65.24C65.9939 54.6754 66.6051 55.2865 66.6051 56.0405V101.09C66.6051 101.844 65.9939 102.455 65.24 102.455H13.3651C12.6112 102.455 12 101.844 12 101.09V56.0405Z" fill="white"/>
<path d="M12 54.6754H66.6051H12ZM68.6528 101.09C68.6528 102.975 67.1248 104.503 65.24 104.503H13.3651C11.4803 104.503 9.95231 102.975 9.95231 101.09L14.0477 100.407H64.5574L68.6528 101.09ZM13.3651 104.503C11.4803 104.503 9.95231 102.975 9.95231 101.09V58.0882C9.95231 56.2033 11.4803 54.6754 13.3651 54.6754H14.0477C14.0477 54.6754 14.0477 55.2865 14.0477 56.0405V100.407L13.3651 104.503ZM65.24 54.6754C67.1248 54.6754 68.6528 56.2033 68.6528 58.0882V101.09C68.6528 102.975 67.1248 104.503 65.24 104.503L64.5574 100.407V56.0405C64.5574 55.2865 64.5574 54.6754 64.5574 54.6754H65.24Z" fill="url(#paint0_linear_2862_8168)" fill-opacity="0.3" mask="url(#path-2-inside-1_2862_8168)"/>
<rect x="73.4302" y="30.034" width="44.3667" height="8.19077" rx="1.36513" fill="#5C469C"/>
<path d="M94.525 35.6293V33.0779H94.8881V34.1721H94.8308C94.8308 33.9204 94.8642 33.7086 94.9311 33.5366C95.0012 33.3614 95.1063 33.2292 95.2465 33.14C95.3866 33.0477 95.5634 33.0015 95.7768 33.0015H95.7959C96.1176 33.0015 96.3549 33.1018 96.5078 33.3025C96.6639 33.5032 96.742 33.793 96.742 34.1721V35.6293H96.2833V34.0765C96.2833 33.879 96.2275 33.7214 96.116 33.6035C96.0046 33.4825 95.8517 33.4219 95.6574 33.4219C95.4567 33.4219 95.2942 33.484 95.17 33.6083C95.0458 33.7325 94.9837 33.8981 94.9837 34.1052V35.6293H94.525Z" fill="white"/>
<rect x="73.4302" y="39.5899" width="44.3667" height="8.19077" rx="1.36513" fill="#1D267D"/>
<path d="M83.7746 46.1408V42.6338H84.1377V43.7375L84.0517 43.728C84.0677 43.454 84.125 43.2311 84.2237 43.0591C84.3257 42.8839 84.4579 42.7549 84.6203 42.672C84.7828 42.5892 84.9595 42.5478 85.1507 42.5478C85.3354 42.5478 85.5026 42.5829 85.6523 42.6529C85.8052 42.723 85.9358 42.8186 86.0441 42.9396C86.1524 43.0606 86.2353 43.2008 86.2926 43.3601C86.3499 43.5193 86.3786 43.6882 86.3786 43.8665V43.9525C86.3786 44.1309 86.3483 44.2997 86.2878 44.459C86.2273 44.6183 86.1413 44.7584 86.0298 44.8795C85.9215 45.0005 85.7909 45.0961 85.638 45.1661C85.4883 45.2362 85.3227 45.2712 85.1411 45.2712C84.9595 45.2712 84.7859 45.2314 84.6203 45.1518C84.4547 45.0722 84.3177 44.9432 84.2094 44.7648C84.1011 44.5864 84.039 44.3523 84.0231 44.0624L84.2333 44.4447V46.1408H83.7746ZM85.0694 44.8699C85.2414 44.8699 85.3911 44.8301 85.5186 44.7504C85.646 44.6676 85.7447 44.5546 85.8148 44.4112C85.8849 44.2647 85.9199 44.0975 85.9199 43.9095C85.9199 43.7184 85.8849 43.5512 85.8148 43.4078C85.7447 43.2645 85.646 43.153 85.5186 43.0734C85.3911 42.9906 85.2414 42.9492 85.0694 42.9492C84.9165 42.9492 84.7748 42.9842 84.6442 43.0543C84.5136 43.1212 84.4085 43.2199 84.3289 43.3505C84.2524 43.4779 84.2142 43.6324 84.2142 43.814V44.0338C84.2142 44.2089 84.254 44.3587 84.3336 44.4829C84.4133 44.6071 84.5184 44.7027 84.649 44.7696C84.7796 44.8365 84.9197 44.8699 85.0694 44.8699ZM87.9527 45.2617C87.6501 45.2617 87.4176 45.1629 87.2551 44.9655C87.0927 44.768 87.0114 44.4829 87.0114 44.1102V42.629H87.4701V44.201C87.4701 44.4017 87.5243 44.5593 87.6326 44.674C87.7409 44.7855 87.8874 44.8412 88.0722 44.8412C88.2633 44.8412 88.4193 44.7807 88.5404 44.6597C88.6614 44.5354 88.722 44.3666 88.722 44.1532V42.629H89.1806V45.1852H88.8175V44.0911H88.8748C88.8748 44.3427 88.8414 44.5561 88.7745 44.7313C88.7076 44.9033 88.6073 45.0355 88.4735 45.1279C88.3429 45.2171 88.1757 45.2617 87.9718 45.2617H87.9527ZM91.4164 45.2712C91.2061 45.2712 91.0182 45.2251 90.8526 45.1327C90.6901 45.0403 90.5611 44.9065 90.4656 44.7313C90.37 44.553 90.3174 44.3395 90.3079 44.0911H90.4321V45.1852H90.069V41.6973H90.5277V43.3935L90.3652 43.7423C90.378 43.4652 90.4337 43.239 90.5325 43.0638C90.6312 42.8886 90.7602 42.7596 90.9195 42.6768C91.0819 42.5908 91.2603 42.5478 91.4546 42.5478C91.6362 42.5478 91.8018 42.5829 91.9515 42.6529C92.1012 42.7198 92.2302 42.8138 92.3385 42.9348C92.4468 43.0527 92.5296 43.1912 92.587 43.3505C92.6443 43.5066 92.673 43.6754 92.673 43.857V43.943C92.673 44.1245 92.6427 44.295 92.5822 44.4542C92.5249 44.6135 92.4405 44.7552 92.329 44.8795C92.2175 45.0005 92.0837 45.0961 91.9276 45.1661C91.7747 45.2362 91.6043 45.2712 91.4164 45.2712ZM91.3638 44.8699C91.5358 44.8699 91.6855 44.8285 91.8129 44.7457C91.9404 44.6629 92.0391 44.5498 92.1092 44.4064C92.1793 44.2599 92.2143 44.0911 92.2143 43.9C92.2143 43.7089 92.1777 43.5416 92.1044 43.3983C92.0343 43.255 91.9356 43.1451 91.8082 43.0686C91.6808 42.989 91.5326 42.9492 91.3638 42.9492C91.2109 42.9492 91.0692 42.9842 90.9386 43.0543C90.808 43.1212 90.7029 43.2199 90.6232 43.3505C90.5468 43.4779 90.5086 43.6324 90.5086 43.814V44.0338C90.5086 44.2089 90.5484 44.3587 90.628 44.4829C90.7076 44.6071 90.8128 44.7027 90.9434 44.7696C91.074 44.8365 91.2141 44.8699 91.3638 44.8699ZM93.2389 44.0529V43.6611H95.0163V44.0529H93.2389ZM97.5291 45.1852L96.5687 43.9955H96.1483L97.3189 42.6338H97.8014L96.7407 43.8617L96.7742 43.6181L98.0594 45.1852H97.5291ZM95.7708 45.1852V41.6973H96.2295V45.1852H95.7708ZM99.5383 45.2712C99.3154 45.2712 99.1226 45.233 98.9602 45.1566C98.7977 45.0801 98.6656 44.9798 98.5636 44.8556C98.4617 44.7282 98.3853 44.5864 98.3343 44.4303C98.2865 44.2742 98.2626 44.115 98.2626 43.9525V43.8665C98.2626 43.7009 98.2865 43.54 98.3343 43.384C98.3853 43.2279 98.4617 43.0877 98.5636 42.9635C98.6656 42.8361 98.7946 42.7357 98.9506 42.6625C99.1099 42.586 99.2962 42.5478 99.5097 42.5478C99.7868 42.5478 100.015 42.6083 100.193 42.7294C100.374 42.8472 100.508 43.0001 100.594 43.1881C100.683 43.376 100.728 43.5767 100.728 43.7901V43.9955H98.4633V43.6515H100.394L100.288 43.8379C100.288 43.6563 100.26 43.5002 100.202 43.3696C100.145 43.2358 100.059 43.1323 99.9445 43.0591C99.8298 42.9858 99.6849 42.9492 99.5097 42.9492C99.3281 42.9492 99.1768 42.9906 99.0558 43.0734C98.9379 43.1562 98.8487 43.2693 98.7882 43.4126C98.7309 43.556 98.7022 43.7216 98.7022 43.9095C98.7022 44.0911 98.7309 44.2551 98.7882 44.4017C98.8487 44.545 98.9411 44.6597 99.0653 44.7457C99.1895 44.8285 99.3472 44.8699 99.5383 44.8699C99.739 44.8699 99.9015 44.8253 100.026 44.7361C100.153 44.6469 100.23 44.5434 100.255 44.4255H100.685C100.65 44.6007 100.58 44.752 100.475 44.8795C100.37 45.0069 100.238 45.104 100.078 45.1709C99.919 45.2378 99.739 45.2712 99.5383 45.2712ZM101.189 46.1791V45.7682H101.557C101.665 45.7682 101.756 45.7538 101.829 45.7251C101.905 45.6997 101.967 45.6551 102.015 45.5914C102.066 45.5277 102.108 45.4433 102.139 45.3381L102.942 42.6338H103.391L102.541 45.4576C102.49 45.6264 102.418 45.7634 102.326 45.8685C102.233 45.9768 102.12 46.0548 101.987 46.1026C101.856 46.1536 101.703 46.1791 101.528 46.1791H101.189ZM101.967 45.1279V44.7457H102.522V45.1279H101.967ZM101.92 45.1279L101.007 42.6338H101.475L102.35 45.1279H101.92ZM103.793 44.0529V43.6611H105.571V44.0529H103.793ZM106.86 45.1852V41.9267L107.071 42.0891H106.086V41.6973H107.319V45.1852H106.86Z" fill="white"/>
<rect x="73.4302" y="49.1458" width="44.3667" height="8.19077" rx="1.36513" fill="#1D267D"/>
<path d="M83.301 55.6967V52.1897H83.6641V53.2934L83.5781 53.2839C83.5941 53.0099 83.6514 52.787 83.7501 52.615C83.8521 52.4398 83.9843 52.3108 84.1467 52.2279C84.3092 52.1451 84.4859 52.1037 84.6771 52.1037C84.8618 52.1037 85.029 52.1388 85.1787 52.2088C85.3316 52.2789 85.4622 52.3745 85.5705 52.4955C85.6788 52.6166 85.7617 52.7567 85.819 52.916C85.8763 53.0752 85.905 53.2441 85.905 53.4224V53.5084C85.905 53.6868 85.8747 53.8556 85.8142 54.0149C85.7537 54.1742 85.6677 54.3143 85.5562 54.4354C85.4479 54.5564 85.3173 54.652 85.1644 54.722C85.0147 54.7921 84.8491 54.8272 84.6675 54.8272C84.4859 54.8272 84.3123 54.7873 84.1467 54.7077C83.9811 54.6281 83.8441 54.4991 83.7358 54.3207C83.6275 54.1423 83.5654 53.9082 83.5495 53.6183L83.7597 54.0006V55.6967H83.301ZM84.5958 54.4258C84.7678 54.4258 84.9176 54.386 85.045 54.3064C85.1724 54.2235 85.2711 54.1105 85.3412 53.9671C85.4113 53.8206 85.4463 53.6534 85.4463 53.4654C85.4463 53.2743 85.4113 53.1071 85.3412 52.9638C85.2711 52.8204 85.1724 52.7089 85.045 52.6293C84.9176 52.5465 84.7678 52.5051 84.5958 52.5051C84.4429 52.5051 84.3012 52.5401 84.1706 52.6102C84.04 52.6771 83.9349 52.7758 83.8553 52.9064C83.7788 53.0338 83.7406 53.1883 83.7406 53.3699V53.5897C83.7406 53.7649 83.7804 53.9146 83.86 54.0388C83.9397 54.163 84.0448 54.2586 84.1754 54.3255C84.306 54.3924 84.4461 54.4258 84.5958 54.4258ZM87.4791 54.8176C87.1765 54.8176 86.944 54.7189 86.7815 54.5214C86.6191 54.3239 86.5378 54.0388 86.5378 53.6661V52.1849H86.9965V53.7569C86.9965 53.9576 87.0507 54.1152 87.159 54.2299C87.2673 54.3414 87.4138 54.3971 87.5986 54.3971C87.7897 54.3971 87.9458 54.3366 88.0668 54.2156C88.1878 54.0913 88.2484 53.9225 88.2484 53.7091V52.1849H88.707V54.7411H88.3439V53.647H88.4012C88.4012 53.8986 88.3678 54.1121 88.3009 54.2872C88.234 54.4593 88.1337 54.5914 87.9999 54.6838C87.8693 54.773 87.7021 54.8176 87.4982 54.8176H87.4791ZM90.9428 54.8272C90.7326 54.8272 90.5446 54.781 90.379 54.6886C90.2165 54.5962 90.0875 54.4624 89.992 54.2872C89.8964 54.1089 89.8439 53.8955 89.8343 53.647H89.9585V54.7411H89.5954V51.2532H90.0541V52.9494L89.8916 53.2982C89.9044 53.0211 89.9601 52.7949 90.0589 52.6197C90.1576 52.4445 90.2866 52.3155 90.4459 52.2327C90.6083 52.1467 90.7867 52.1037 90.981 52.1037C91.1626 52.1037 91.3282 52.1388 91.4779 52.2088C91.6276 52.2757 91.7566 52.3697 91.8649 52.4907C91.9732 52.6086 92.056 52.7472 92.1134 52.9064C92.1707 53.0625 92.1994 53.2313 92.1994 53.4129V53.4989C92.1994 53.6804 92.1691 53.8509 92.1086 54.0101C92.0513 54.1694 91.9669 54.3111 91.8554 54.4354C91.7439 54.5564 91.6101 54.652 91.454 54.722C91.3011 54.7921 91.1307 54.8272 90.9428 54.8272ZM90.8902 54.4258C91.0622 54.4258 91.2119 54.3844 91.3394 54.3016C91.4668 54.2188 91.5655 54.1057 91.6356 53.9623C91.7057 53.8158 91.7407 53.647 91.7407 53.4559C91.7407 53.2648 91.7041 53.0975 91.6308 52.9542C91.5607 52.8109 91.462 52.701 91.3346 52.6245C91.2072 52.5449 91.059 52.5051 90.8902 52.5051C90.7373 52.5051 90.5956 52.5401 90.465 52.6102C90.3344 52.6771 90.2293 52.7758 90.1496 52.9064C90.0732 53.0338 90.035 53.1883 90.035 53.3699V53.5897C90.035 53.7649 90.0748 53.9146 90.1544 54.0388C90.2341 54.163 90.3392 54.2586 90.4698 54.3255C90.6004 54.3924 90.7405 54.4258 90.8902 54.4258ZM92.7653 53.6088V53.217H94.5427V53.6088H92.7653ZM97.0555 54.7411L96.0951 53.5514H95.6747L96.8453 52.1897H97.3278L96.2671 53.4177L96.3006 53.174L97.5858 54.7411H97.0555ZM95.2972 54.7411V51.2532H95.7559V54.7411H95.2972ZM99.0647 54.8272C98.8418 54.8272 98.6491 54.7889 98.4866 54.7125C98.3242 54.636 98.192 54.5357 98.09 54.4115C97.9881 54.2841 97.9117 54.1423 97.8607 53.9862C97.8129 53.8302 97.789 53.6709 97.789 53.5084V53.4224C97.789 53.2568 97.8129 53.0959 97.8607 52.9399C97.9117 52.7838 97.9881 52.6436 98.09 52.5194C98.192 52.392 98.321 52.2917 98.477 52.2184C98.6363 52.1419 98.8227 52.1037 99.0361 52.1037C99.3132 52.1037 99.5409 52.1642 99.7193 52.2853C99.9009 52.4031 100.035 52.556 100.121 52.744C100.21 52.9319 100.254 53.1326 100.254 53.346V53.5514H97.9897V53.2074H99.92L99.8149 53.3938C99.8149 53.2122 99.7862 53.0561 99.7289 52.9255C99.6715 52.7917 99.5855 52.6882 99.4709 52.615C99.3562 52.5417 99.2113 52.5051 99.0361 52.5051C98.8545 52.5051 98.7032 52.5465 98.5822 52.6293C98.4643 52.7121 98.3751 52.8252 98.3146 52.9685C98.2573 53.1119 98.2286 53.2775 98.2286 53.4654C98.2286 53.647 98.2573 53.811 98.3146 53.9576C98.3751 54.1009 98.4675 54.2156 98.5917 54.3016C98.7159 54.3844 98.8736 54.4258 99.0647 54.4258C99.2654 54.4258 99.4279 54.3812 99.5521 54.292C99.6795 54.2028 99.7559 54.0993 99.7814 53.9815H100.211C100.176 54.1566 100.106 54.3079 100.001 54.4354C99.8961 54.5628 99.7639 54.6599 99.6046 54.7268C99.4454 54.7937 99.2654 54.8272 99.0647 54.8272ZM100.715 55.735V55.3241H101.083C101.191 55.3241 101.282 55.3097 101.355 55.2811C101.432 55.2556 101.494 55.211 101.542 55.1473C101.593 55.0836 101.634 54.9992 101.666 54.894L102.469 52.1897H102.918L102.067 55.0135C102.016 55.1823 101.945 55.3193 101.852 55.4244C101.76 55.5327 101.647 55.6107 101.513 55.6585C101.382 55.7095 101.229 55.735 101.054 55.735H100.715ZM101.494 54.6838V54.3016H102.048V54.6838H101.494ZM101.446 54.6838L100.533 52.1897H101.002L101.876 54.6838H101.446ZM103.32 53.6088V53.217H105.097V53.6088H103.32ZM105.775 54.7411V54.1678C105.775 54.0276 105.794 53.9082 105.833 53.8094C105.874 53.7107 105.944 53.6215 106.043 53.5419C106.141 53.4591 106.275 53.3794 106.444 53.303L107.099 53.002C107.258 52.9287 107.384 52.8347 107.476 52.7201C107.568 52.6022 107.615 52.4509 107.615 52.2662C107.615 52.0432 107.553 51.8696 107.428 51.7454C107.304 51.6211 107.129 51.559 106.903 51.559C106.68 51.559 106.505 51.6211 106.377 51.7454C106.25 51.8696 106.186 52.0432 106.186 52.2662H105.737C105.737 52.0655 105.778 51.8808 105.861 51.7119C105.947 51.5431 106.076 51.4093 106.248 51.3106C106.42 51.2087 106.638 51.1577 106.903 51.1577C107.167 51.1577 107.384 51.2087 107.553 51.3106C107.725 51.4093 107.852 51.5399 107.935 51.7024C108.021 51.8648 108.064 52.0416 108.064 52.2327V52.2996C108.064 52.5513 107.991 52.7631 107.844 52.9351C107.701 53.1071 107.506 53.2488 107.261 53.3603L106.607 53.6613C106.46 53.7282 106.361 53.7951 106.31 53.862C106.259 53.9289 106.234 54.0181 106.234 54.1296V54.5691L106.11 54.3494H108.107V54.7411H105.775Z" fill="white"/>
<rect x="73.4302" y="58.7017" width="44.3667" height="8.19077" rx="1.36513" fill="#5C469C"/>
<path d="M93.7411 64.2971V61.7456H94.1042V62.8398H94.0469C94.0469 62.5913 94.0788 62.3811 94.1425 62.2091C94.2093 62.0339 94.3081 61.9001 94.4387 61.8077C94.5693 61.7154 94.7349 61.6692 94.9356 61.6692H94.9547C95.1554 61.6692 95.321 61.7154 95.4516 61.8077C95.5854 61.9001 95.6841 62.0339 95.7478 62.2091C95.8116 62.3811 95.8434 62.5913 95.8434 62.8398H95.7096C95.7096 62.5913 95.7431 62.3811 95.81 62.2091C95.8769 62.0339 95.9756 61.9001 96.1062 61.8077C96.24 61.7154 96.4072 61.6692 96.6079 61.6692H96.627C96.8277 61.6692 96.9949 61.7154 97.1287 61.8077C97.2625 61.9001 97.3612 62.0339 97.4249 62.2091C97.4918 62.3811 97.5252 62.5913 97.5252 62.8398V64.2971H97.0666V62.7394C97.0666 62.5324 97.0156 62.3731 96.9137 62.2617C96.8117 62.147 96.67 62.0896 96.4884 62.0896C96.3005 62.0896 96.1492 62.1502 96.0345 62.2712C95.9199 62.3891 95.8625 62.5547 95.8625 62.7681V64.2971H95.4038V62.7394C95.4038 62.5324 95.3529 62.3731 95.2509 62.2617C95.149 62.147 95.0073 62.0896 94.8257 62.0896C94.6378 62.0896 94.4865 62.1502 94.3718 62.2712C94.2571 62.3891 94.1998 62.5547 94.1998 62.7681V64.2971H93.7411Z" fill="white"/>
<rect x="73.4302" y="68.2576" width="44.3667" height="8.19077" rx="1.36513" fill="#1D267D"/>
<path d="M91.0544 73.9294C90.72 73.9294 90.4604 73.8577 90.2756 73.7144C90.0941 73.5711 90.0001 73.3752 89.9937 73.1267H90.4238C90.4301 73.2255 90.4795 73.3194 90.5719 73.4086C90.6674 73.4946 90.8283 73.5376 91.0544 73.5376C91.2583 73.5376 91.4144 73.4978 91.5227 73.4182C91.631 73.3354 91.6851 73.235 91.6851 73.1172C91.6851 73.012 91.6453 72.9308 91.5657 72.8735C91.4861 72.813 91.3571 72.7731 91.1787 72.754L90.9016 72.7254C90.6595 72.6999 90.462 72.6282 90.3091 72.5104C90.1562 72.3893 90.0797 72.2205 90.0797 72.0039C90.0797 71.8414 90.1212 71.7029 90.204 71.5882C90.2868 71.4704 90.4015 71.3812 90.548 71.3207C90.6945 71.2569 90.8633 71.2251 91.0544 71.2251C91.3411 71.2251 91.5737 71.2888 91.752 71.4162C91.9304 71.5436 92.0228 71.7331 92.0291 71.9848H91.5991C91.5959 71.8829 91.5482 71.7969 91.4558 71.7268C91.3666 71.6535 91.2328 71.6169 91.0544 71.6169C90.8761 71.6169 90.7407 71.6535 90.6483 71.7268C90.5559 71.8 90.5098 71.8924 90.5098 72.0039C90.5098 72.0995 90.5416 72.1759 90.6053 72.2332C90.6722 72.2906 90.7805 72.3272 90.9302 72.3431L91.2073 72.3718C91.4813 72.4005 91.7011 72.4769 91.8667 72.6011C92.0323 72.7222 92.1152 72.8942 92.1152 73.1172C92.1152 73.2764 92.069 73.4182 91.9766 73.5424C91.8874 73.6634 91.7632 73.759 91.6039 73.8291C91.4446 73.896 91.2615 73.9294 91.0544 73.9294ZM92.9041 73.853V71.3015H93.3628V73.853H92.9041ZM92.5124 71.6647V71.3015H93.3628V71.6647H92.5124ZM93.0332 70.8906C92.9312 70.8906 92.8548 70.8636 92.8038 70.8094C92.756 70.7553 92.7321 70.6868 92.7321 70.604C92.7321 70.5211 92.756 70.4527 92.8038 70.3985C92.8548 70.3444 92.9312 70.3173 93.0332 70.3173C93.1351 70.3173 93.2099 70.3444 93.2577 70.3985C93.3087 70.4527 93.3342 70.5211 93.3342 70.604C93.3342 70.6868 93.3087 70.7553 93.2577 70.8094C93.2099 70.8636 93.1351 70.8906 93.0332 70.8906ZM95.2148 74.8468C95.097 74.8468 94.9775 74.842 94.8565 74.8324C94.7386 74.8229 94.6256 74.8101 94.5173 74.7942V74.4072C94.6319 74.4231 94.7514 74.4359 94.8756 74.4454C95.003 74.4582 95.1225 74.4645 95.234 74.4645C95.4665 74.4645 95.6512 74.4327 95.7882 74.369C95.9284 74.3085 96.0287 74.2113 96.0892 74.0775C96.1529 73.9469 96.1848 73.7781 96.1848 73.5711V73.0837L96.3377 72.7206C96.3281 72.9786 96.274 73.1936 96.1752 73.3656C96.0765 73.5344 95.9475 73.6618 95.7882 73.7479C95.6321 73.8307 95.4585 73.8721 95.2674 73.8721C95.089 73.8721 94.925 73.8386 94.7753 73.7717C94.6288 73.7017 94.5013 73.6061 94.393 73.4851C94.2879 73.364 94.2051 73.2255 94.1446 73.0694C94.0873 72.9101 94.0586 72.7429 94.0586 72.5677V72.4817C94.0586 72.3033 94.0888 72.1377 94.1494 71.9848C94.2099 71.8287 94.2943 71.6933 94.4026 71.5787C94.5109 71.464 94.6399 71.3748 94.7896 71.3111C94.9425 71.2474 95.1097 71.2155 95.2913 71.2155C95.5047 71.2155 95.6926 71.2617 95.8551 71.3541C96.0175 71.4433 96.145 71.5755 96.2373 71.7507C96.3329 71.9227 96.3854 72.1345 96.395 72.3861L96.2612 72.3909V71.3015H96.6243V73.552C96.6243 73.8577 96.5766 74.1046 96.481 74.2925C96.3886 74.4837 96.2389 74.6238 96.0319 74.713C95.828 74.8022 95.5557 74.8468 95.2148 74.8468ZM95.3534 73.4516C95.5063 73.4516 95.6449 73.4182 95.7691 73.3513C95.8965 73.2844 95.9968 73.1888 96.0701 73.0646C96.1465 72.9372 96.1848 72.7859 96.1848 72.6107V72.3909C96.1848 72.2189 96.145 72.074 96.0653 71.9561C95.9889 71.8383 95.8885 71.7491 95.7643 71.6886C95.6401 71.628 95.5047 71.5978 95.3582 71.5978C95.1925 71.5978 95.046 71.636 94.9186 71.7124C94.7912 71.7889 94.6925 71.8972 94.6224 72.0373C94.5523 72.1743 94.5173 72.3368 94.5173 72.5247C94.5173 72.7126 94.5523 72.8767 94.6224 73.0168C94.6956 73.157 94.7944 73.2653 94.9186 73.3417C95.046 73.415 95.191 73.4516 95.3534 73.4516ZM97.3497 72.7206V72.3288H99.1271V72.7206H97.3497ZM100.417 73.853V70.5944L100.627 70.7569H99.6426V70.3651H100.875V73.853H100.417Z" fill="white"/>
<rect x="73.4302" y="77.8134" width="44.3667" height="8.19077" rx="1.36513" fill="#5C469C"/>
<path d="M95.6155 83.4948C95.3543 83.4948 95.1314 83.4503 94.9466 83.3611C94.765 83.2687 94.6169 83.1445 94.5023 82.9884C94.3908 82.8323 94.3095 82.6523 94.2586 82.4485C94.2076 82.2414 94.1821 82.0232 94.1821 81.7939V81.5359C94.1821 81.2142 94.2315 80.9243 94.3303 80.6663C94.4322 80.4083 94.5883 80.2044 94.7985 80.0547C95.0119 79.9018 95.2843 79.8254 95.6155 79.8254C95.9468 79.8254 96.2175 79.9018 96.4278 80.0547C96.638 80.2044 96.7925 80.4083 96.8912 80.6663C96.9932 80.9243 97.0441 81.2142 97.0441 81.5359V81.7939C97.0441 82.0232 97.0186 82.2414 96.9677 82.4485C96.9167 82.6523 96.8339 82.8323 96.7192 82.9884C96.6077 83.1445 96.4612 83.2687 96.2797 83.3611C96.0981 83.4503 95.8767 83.4948 95.6155 83.4948ZM95.6155 83.0744C95.9468 83.0744 96.1889 82.9629 96.3418 82.7399C96.4979 82.5138 96.5759 82.157 96.5759 81.6697C96.5759 81.16 96.4963 80.7953 96.337 80.5755C96.1809 80.3557 95.9404 80.2458 95.6155 80.2458C95.2874 80.2458 95.0438 80.3557 94.8845 80.5755C94.7284 80.7953 94.6504 81.1568 94.6504 81.6601C94.6504 82.1507 94.7284 82.509 94.8845 82.7352C95.0406 82.9613 95.2843 83.0744 95.6155 83.0744Z" fill="white"/>
<rect x="73.4302" y="87.3694" width="44.3667" height="8.19077" rx="1.36513" fill="#0C134F"/>
<path d="M79.8174 93.0508C79.5945 93.0508 79.3986 93.0125 79.2297 92.9361C79.0609 92.8596 78.9176 92.7593 78.7997 92.6351C78.685 92.5077 78.5975 92.3659 78.5369 92.2098C78.4796 92.0538 78.4509 91.8945 78.4509 91.732V91.646C78.4509 91.4836 78.4812 91.3243 78.5417 91.1682C78.6022 91.009 78.6914 90.8672 78.8093 90.743C78.9271 90.6156 79.0705 90.5153 79.2393 90.442C79.4081 90.3655 79.6008 90.3273 79.8174 90.3273C80.034 90.3273 80.2267 90.3655 80.3956 90.442C80.5644 90.5153 80.7077 90.6156 80.8256 90.743C80.9434 90.8672 81.0326 91.009 81.0931 91.1682C81.1537 91.3243 81.1839 91.4836 81.1839 91.646V91.732C81.1839 91.8945 81.1537 92.0538 81.0931 92.2098C81.0358 92.3659 80.9482 92.5077 80.8303 92.6351C80.7157 92.7593 80.5739 92.8596 80.4051 92.9361C80.2363 93.0125 80.0404 93.0508 79.8174 93.0508ZM79.8174 92.6399C80.0085 92.6399 80.171 92.5984 80.3048 92.5156C80.4417 92.4296 80.5453 92.315 80.6153 92.1716C80.6886 92.0283 80.7252 91.8674 80.7252 91.689C80.7252 91.5075 80.6886 91.345 80.6153 91.2017C80.5421 91.0584 80.437 90.9453 80.3 90.8625C80.1662 90.7796 80.0054 90.7382 79.8174 90.7382C79.6327 90.7382 79.4718 90.7796 79.3349 90.8625C79.1979 90.9453 79.0928 91.0584 79.0195 91.2017C78.9462 91.345 78.9096 91.5075 78.9096 91.689C78.9096 91.8674 78.9447 92.0283 79.0147 92.1716C79.088 92.315 79.1915 92.4296 79.3253 92.5156C79.4623 92.5984 79.6263 92.6399 79.8174 92.6399ZM81.8709 93.9203V90.4133H82.234V91.517L82.148 91.5075C82.1639 91.2335 82.2213 91.0106 82.32 90.8386C82.422 90.6634 82.5541 90.5344 82.7166 90.4516C82.879 90.3687 83.0558 90.3273 83.2469 90.3273C83.4317 90.3273 83.5989 90.3624 83.7486 90.4324C83.9015 90.5025 84.0321 90.5981 84.1404 90.7191C84.2487 90.8402 84.3315 90.9803 84.3889 91.1396C84.4462 91.2988 84.4749 91.4677 84.4749 91.646V91.732C84.4749 91.9104 84.4446 92.0792 84.3841 92.2385C84.3236 92.3978 84.2376 92.5379 84.1261 92.659C84.0178 92.78 83.8872 92.8756 83.7343 92.9456C83.5846 93.0157 83.419 93.0508 83.2374 93.0508C83.0558 93.0508 82.8822 93.0109 82.7166 92.9313C82.551 92.8517 82.414 92.7227 82.3057 92.5443C82.1974 92.3659 82.1353 92.1318 82.1193 91.8419L82.3296 92.2242V93.9203H81.8709ZM83.1657 92.6494C83.3377 92.6494 83.4874 92.6096 83.6148 92.53C83.7423 92.4471 83.841 92.3341 83.9111 92.1907C83.9812 92.0442 84.0162 91.877 84.0162 91.689C84.0162 91.4979 83.9812 91.3307 83.9111 91.1874C83.841 91.044 83.7423 90.9325 83.6148 90.8529C83.4874 90.7701 83.3377 90.7287 83.1657 90.7287C83.0128 90.7287 82.8711 90.7637 82.7405 90.8338C82.6099 90.9007 82.5048 90.9994 82.4251 91.13C82.3487 91.2574 82.3105 91.4119 82.3105 91.5935V91.8133C82.3105 91.9885 82.3503 92.1382 82.4299 92.2624C82.5095 92.3866 82.6147 92.4822 82.7453 92.5491C82.8759 92.616 83.016 92.6494 83.1657 92.6494ZM85.0408 91.8324V91.4406H86.8182V91.8324H85.0408ZM88.6669 93.0508C88.4471 93.0508 88.256 93.0125 88.0935 92.9361C87.9342 92.8596 87.802 92.7577 87.6969 92.6303C87.5918 92.4997 87.5122 92.3564 87.458 92.2003C87.4071 92.0442 87.3816 91.8881 87.3816 91.732V91.646C87.3816 91.4836 87.4071 91.3243 87.458 91.1682C87.5122 91.0122 87.5918 90.872 87.6969 90.7478C87.8052 90.6204 87.939 90.5184 88.0983 90.442C88.2575 90.3655 88.4439 90.3273 88.6573 90.3273C88.8707 90.3273 89.0618 90.3671 89.2307 90.4468C89.4027 90.5264 89.5396 90.6395 89.6416 90.786C89.7467 90.9293 89.8056 91.0998 89.8183 91.2972H89.3788C89.3565 91.138 89.2832 91.0058 89.159 90.9007C89.0348 90.7924 88.8675 90.7382 88.6573 90.7382C88.4757 90.7382 88.3244 90.7796 88.2034 90.8625C88.0824 90.9453 87.9916 91.0584 87.9311 91.2017C87.8705 91.345 87.8403 91.5075 87.8403 91.689C87.8403 91.8642 87.8705 92.0251 87.9311 92.1716C87.9916 92.315 88.0824 92.4296 88.2034 92.5156C88.3276 92.5984 88.4821 92.6399 88.6669 92.6399C88.8102 92.6399 88.9344 92.6144 89.0395 92.5634C89.1447 92.5124 89.2291 92.444 89.2928 92.358C89.3565 92.2719 89.3947 92.1748 89.4074 92.0665H89.847C89.8375 92.2672 89.7785 92.4408 89.6702 92.5873C89.5651 92.7338 89.425 92.8485 89.2498 92.9313C89.0778 93.0109 88.8835 93.0508 88.6669 93.0508ZM90.4703 92.9648V89.4768H90.929V91.56H90.8143C90.8143 91.3084 90.8461 91.0918 90.9098 90.9102C90.9767 90.7255 91.0787 90.5837 91.2156 90.485C91.3526 90.3863 91.5278 90.3369 91.7412 90.3369H91.7603C92.0661 90.3369 92.297 90.4388 92.4531 90.6427C92.6092 90.8433 92.6872 91.1316 92.6872 91.5075V92.9648H92.2286V91.4119C92.2286 91.2049 92.1696 91.044 92.0518 90.9293C91.9371 90.8147 91.7874 90.7573 91.6026 90.7573C91.3988 90.7573 91.2347 90.8258 91.1105 90.9628C90.9895 91.0966 90.929 91.2734 90.929 91.4931V92.9648H90.4703ZM94.6111 93.0508C94.3881 93.0508 94.1954 93.0125 94.0329 92.9361C93.8705 92.8596 93.7383 92.7593 93.6364 92.6351C93.5344 92.5077 93.458 92.3659 93.407 92.2098C93.3592 92.0538 93.3354 91.8945 93.3354 91.732V91.646C93.3354 91.4804 93.3592 91.3195 93.407 91.1635C93.458 91.0074 93.5344 90.8672 93.6364 90.743C93.7383 90.6156 93.8673 90.5153 94.0234 90.442C94.1826 90.3655 94.369 90.3273 94.5824 90.3273C94.8595 90.3273 95.0873 90.3878 95.2657 90.5089C95.4472 90.6267 95.581 90.7796 95.667 90.9676C95.7562 91.1555 95.8008 91.3562 95.8008 91.5696V91.775H93.536V91.431H95.4663L95.3612 91.6174C95.3612 91.4358 95.3325 91.2797 95.2752 91.1491C95.2179 91.0153 95.1319 90.9118 95.0172 90.8386C94.9025 90.7653 94.7576 90.7287 94.5824 90.7287C94.4008 90.7287 94.2495 90.7701 94.1285 90.8529C94.0106 90.9357 93.9215 91.0488 93.8609 91.1921C93.8036 91.3355 93.7749 91.5011 93.7749 91.689C93.7749 91.8706 93.8036 92.0346 93.8609 92.1812C93.9215 92.3245 94.0138 92.4392 94.1381 92.5252C94.2623 92.608 94.42 92.6494 94.6111 92.6494C94.8117 92.6494 94.9742 92.6048 95.0984 92.5156C95.2258 92.4264 95.3023 92.3229 95.3278 92.2051H95.7578C95.7227 92.3802 95.6527 92.5316 95.5475 92.659C95.4424 92.7864 95.3102 92.8835 95.151 92.9504C94.9917 93.0173 94.8117 93.0508 94.6111 93.0508ZM97.5462 93.0508C97.3264 93.0508 97.1353 93.0125 96.9728 92.9361C96.8136 92.8596 96.6814 92.7577 96.5763 92.6303C96.4711 92.4997 96.3915 92.3564 96.3374 92.2003C96.2864 92.0442 96.2609 91.8881 96.2609 91.732V91.646C96.2609 91.4836 96.2864 91.3243 96.3374 91.1682C96.3915 91.0122 96.4711 90.872 96.5763 90.7478C96.6846 90.6204 96.8183 90.5184 96.9776 90.442C97.1369 90.3655 97.3232 90.3273 97.5366 90.3273C97.75 90.3273 97.9412 90.3671 98.11 90.4468C98.282 90.5264 98.419 90.6395 98.5209 90.786C98.626 90.9293 98.6849 91.0998 98.6977 91.2972H98.2581C98.2358 91.138 98.1625 91.0058 98.0383 90.9007C97.9141 90.7924 97.7469 90.7382 97.5366 90.7382C97.3551 90.7382 97.2038 90.7796 97.0827 90.8625C96.9617 90.9453 96.8709 91.0584 96.8104 91.2017C96.7499 91.345 96.7196 91.5075 96.7196 91.689C96.7196 91.8642 96.7499 92.0251 96.8104 92.1716C96.8709 92.315 96.9617 92.4296 97.0827 92.5156C97.207 92.5984 97.3614 92.6399 97.5462 92.6399C97.6895 92.6399 97.8138 92.6144 97.9189 92.5634C98.024 92.5124 98.1084 92.444 98.1721 92.358C98.2358 92.2719 98.274 92.1748 98.2868 92.0665H98.7263C98.7168 92.2672 98.6579 92.4408 98.5496 92.5873C98.4444 92.7338 98.3043 92.8485 98.1291 92.9313C97.9571 93.0109 97.7628 93.0508 97.5462 93.0508ZM101.108 92.9648L100.148 91.775H99.7271L100.898 90.4133H101.38L100.32 91.6413L100.353 91.3976L101.638 92.9648H101.108ZM99.3496 92.9648V89.4768H99.8083V92.9648H99.3496ZM102.089 92.9648V90.4133H102.452V91.5075H102.394C102.394 91.259 102.426 91.0488 102.49 90.8768C102.557 90.7016 102.656 90.5678 102.786 90.4754C102.917 90.3831 103.082 90.3369 103.283 90.3369H103.302C103.503 90.3369 103.668 90.3831 103.799 90.4754C103.933 90.5678 104.032 90.7016 104.095 90.8768C104.159 91.0488 104.191 91.259 104.191 91.5075H104.057C104.057 91.259 104.09 91.0488 104.157 90.8768C104.224 90.7016 104.323 90.5678 104.454 90.4754C104.587 90.3831 104.755 90.3369 104.955 90.3369H104.974C105.175 90.3369 105.342 90.3831 105.476 90.4754C105.61 90.5678 105.709 90.7016 105.772 90.8768C105.839 91.0488 105.873 91.259 105.873 91.5075V92.9648H105.414V91.4071C105.414 91.2001 105.363 91.0408 105.261 90.9293C105.159 90.8147 105.017 90.7573 104.836 90.7573C104.648 90.7573 104.497 90.8179 104.382 90.9389C104.267 91.0568 104.21 91.2224 104.21 91.4358V92.9648H103.751V91.4071C103.751 91.2001 103.7 91.0408 103.598 90.9293C103.496 90.8147 103.355 90.7573 103.173 90.7573C102.985 90.7573 102.834 90.8179 102.719 90.9389C102.605 91.0568 102.547 91.2224 102.547 91.4358V92.9648H102.089ZM107.596 93.0412C107.294 93.0412 107.061 92.9425 106.899 92.745C106.736 92.5475 106.655 92.2624 106.655 91.8897V90.4085H107.114V91.9805C107.114 92.1812 107.168 92.3388 107.276 92.4535C107.385 92.565 107.531 92.6207 107.716 92.6207C107.907 92.6207 108.063 92.5602 108.184 92.4392C108.305 92.315 108.366 92.1461 108.366 91.9327V90.4085H108.824V92.9648H108.461V91.8706H108.519C108.519 92.1222 108.485 92.3357 108.418 92.5108C108.351 92.6829 108.251 92.815 108.117 92.9074C107.987 92.9966 107.819 93.0412 107.616 93.0412H107.596ZM109.622 92.9648V92.3818H110.176V92.9648H109.622ZM110.872 92.9648V92.3818H111.427V92.9648H110.872ZM112.123 92.9648V92.3818H112.677V92.9648H112.123Z" fill="white"/>
<rect x="17.5" y="41" width="44.3667" height="8.19077" rx="1.36513" fill="#5C469C"/>
<path d="M39.6853 46.6814C39.4242 46.6814 39.2012 46.6368 39.0164 46.5476C38.8349 46.4552 38.6868 46.331 38.5721 46.1749C38.4606 46.0189 38.3794 45.8389 38.3284 45.635C38.2774 45.428 38.252 45.2098 38.252 44.9805V44.7224C38.252 44.4007 38.3013 44.1109 38.4001 43.8529C38.502 43.5948 38.6581 43.391 38.8683 43.2413C39.0817 43.0884 39.3541 43.0119 39.6853 43.0119C40.0166 43.0119 40.2874 43.0884 40.4976 43.2413C40.7078 43.391 40.8623 43.5948 40.9611 43.8529C41.063 44.1109 41.114 44.4007 41.114 44.7224V44.9805C41.114 45.2098 41.0885 45.428 41.0375 45.635C40.9865 45.8389 40.9037 46.0189 40.7891 46.1749C40.6776 46.331 40.531 46.4552 40.3495 46.5476C40.1679 46.6368 39.9465 46.6814 39.6853 46.6814ZM39.6853 46.2609C40.0166 46.2609 40.2587 46.1495 40.4116 45.9265C40.5677 45.7003 40.6457 45.3436 40.6457 44.8562C40.6457 44.3466 40.5661 43.9819 40.4068 43.7621C40.2507 43.5423 40.0102 43.4324 39.6853 43.4324C39.3573 43.4324 39.1136 43.5423 38.9543 43.7621C38.7982 43.9819 38.7202 44.3434 38.7202 44.8467C38.7202 45.3372 38.7982 45.6956 38.9543 45.9217C39.1104 46.1479 39.3541 46.2609 39.6853 46.2609Z" fill="white"/>
<rect x="17.5" y="50.5559" width="44.3667" height="8.19077" rx="1.36513" fill="#1D267D"/>
<path d="M35.1243 56.2278C34.7898 56.2278 34.5302 56.1561 34.3455 56.0127C34.1639 55.8694 34.0699 55.6735 34.0636 55.4251H34.4936C34.5 55.5238 34.5493 55.6178 34.6417 55.707C34.7373 55.793 34.8981 55.836 35.1243 55.836C35.3281 55.836 35.4842 55.7961 35.5925 55.7165C35.7008 55.6337 35.755 55.5334 35.755 55.4155C35.755 55.3104 35.7151 55.2292 35.6355 55.1718C35.5559 55.1113 35.4269 55.0715 35.2485 55.0524L34.9714 55.0237C34.7293 54.9982 34.5318 54.9266 34.3789 54.8087C34.226 54.6877 34.1496 54.5188 34.1496 54.3022C34.1496 54.1398 34.191 54.0012 34.2738 53.8866C34.3566 53.7687 34.4713 53.6795 34.6178 53.619C34.7643 53.5553 34.9332 53.5234 35.1243 53.5234C35.4109 53.5234 35.6435 53.5871 35.8219 53.7146C36.0002 53.842 36.0926 54.0315 36.099 54.2831H35.669C35.6658 54.1812 35.618 54.0952 35.5256 54.0251C35.4364 53.9519 35.3026 53.9152 35.1243 53.9152C34.9459 53.9152 34.8105 53.9519 34.7181 54.0251C34.6258 54.0984 34.5796 54.1908 34.5796 54.3022C34.5796 54.3978 34.6114 54.4742 34.6751 54.5316C34.742 54.5889 34.8503 54.6255 35 54.6415L35.2772 54.6701C35.5511 54.6988 35.7709 54.7753 35.9365 54.8995C36.1022 55.0205 36.185 55.1925 36.185 55.4155C36.185 55.5748 36.1388 55.7165 36.0464 55.8407C35.9572 55.9618 35.833 56.0573 35.6737 56.1274C35.5145 56.1943 35.3313 56.2278 35.1243 56.2278ZM36.974 56.1513V53.5999H37.4327V56.1513H36.974ZM36.5822 53.963V53.5999H37.4327V53.963H36.5822ZM37.103 53.189C37.001 53.189 36.9246 53.1619 36.8736 53.1078C36.8259 53.0536 36.802 52.9851 36.802 52.9023C36.802 52.8195 36.8259 52.751 36.8736 52.6968C36.9246 52.6427 37.001 52.6156 37.103 52.6156C37.2049 52.6156 37.2798 52.6427 37.3275 52.6968C37.3785 52.751 37.404 52.8195 37.404 52.9023C37.404 52.9851 37.3785 53.0536 37.3275 53.1078C37.2798 53.1619 37.2049 53.189 37.103 53.189ZM39.2847 57.1451C39.1668 57.1451 39.0474 57.1403 38.9263 57.1308C38.8085 57.1212 38.6954 57.1085 38.5871 57.0926V56.7055C38.7018 56.7215 38.8212 56.7342 38.9454 56.7438C39.0728 56.7565 39.1923 56.7629 39.3038 56.7629C39.5363 56.7629 39.7211 56.731 39.858 56.6673C39.9982 56.6068 40.0985 56.5097 40.159 56.3759C40.2227 56.2453 40.2546 56.0765 40.2546 55.8694V55.3821L40.4075 55.0189C40.3979 55.2769 40.3438 55.4919 40.245 55.664C40.1463 55.8328 40.0173 55.9602 39.858 56.0462C39.7019 56.129 39.5283 56.1704 39.3372 56.1704C39.1589 56.1704 38.9948 56.137 38.8451 56.0701C38.6986 56 38.5712 55.9044 38.4629 55.7834C38.3577 55.6624 38.2749 55.5238 38.2144 55.3677C38.1571 55.2085 38.1284 55.0412 38.1284 54.866V54.78C38.1284 54.6017 38.1587 54.436 38.2192 54.2831C38.2797 54.127 38.3641 53.9917 38.4724 53.877C38.5807 53.7623 38.7097 53.6731 38.8594 53.6094C39.0123 53.5457 39.1796 53.5139 39.3611 53.5139C39.5745 53.5139 39.7625 53.5601 39.9249 53.6524C40.0874 53.7416 40.2148 53.8738 40.3072 54.049C40.4027 54.221 40.4553 54.4328 40.4648 54.6845L40.331 54.6893V53.5999H40.6942V55.8503C40.6942 56.1561 40.6464 56.4029 40.5508 56.5909C40.4585 56.782 40.3087 56.9221 40.1017 57.0113C39.8978 57.1005 39.6255 57.1451 39.2847 57.1451ZM39.4232 55.75C39.5761 55.75 39.7147 55.7165 39.8389 55.6496C39.9663 55.5827 40.0667 55.4872 40.1399 55.3629C40.2164 55.2355 40.2546 55.0842 40.2546 54.909V54.6893C40.2546 54.5172 40.2148 54.3723 40.1351 54.2545C40.0587 54.1366 39.9584 54.0474 39.8341 53.9869C39.7099 53.9264 39.5745 53.8961 39.428 53.8961C39.2624 53.8961 39.1159 53.9343 38.9884 54.0108C38.861 54.0872 38.7623 54.1955 38.6922 54.3357C38.6221 54.4727 38.5871 54.6351 38.5871 54.823C38.5871 55.011 38.6221 55.175 38.6922 55.3152C38.7655 55.4553 38.8642 55.5636 38.9884 55.6401C39.1159 55.7133 39.2608 55.75 39.4232 55.75ZM41.4195 55.0189V54.6271H43.1969V55.0189H41.4195ZM44.4865 56.1513V52.8927L44.6967 53.0552H43.7124V52.6634H44.9452V56.1513H44.4865Z" fill="white"/>
<rect x="17.5" y="60.1118" width="44.3667" height="8.19077" rx="1.36513" fill="#5C469C"/>
<path d="M37.8109 65.7072V63.1558H38.1741V64.2499H38.1167C38.1167 64.0015 38.1486 63.7912 38.2123 63.6192C38.2792 63.444 38.3779 63.3102 38.5085 63.2179C38.6391 63.1255 38.8047 63.0793 39.0054 63.0793H39.0245C39.2252 63.0793 39.3908 63.1255 39.5214 63.2179C39.6552 63.3102 39.754 63.444 39.8177 63.6192C39.8814 63.7912 39.9132 64.0015 39.9132 64.2499H39.7794C39.7794 64.0015 39.8129 63.7912 39.8798 63.6192C39.9467 63.444 40.0454 63.3102 40.176 63.2179C40.3098 63.1255 40.477 63.0793 40.6777 63.0793H40.6968C40.8975 63.0793 41.0647 63.1255 41.1985 63.2179C41.3323 63.3102 41.431 63.444 41.4947 63.6192C41.5616 63.7912 41.5951 64.0015 41.5951 64.2499V65.7072H41.1364V64.1496C41.1364 63.9425 41.0854 63.7833 40.9835 63.6718C40.8816 63.5571 40.7398 63.4998 40.5583 63.4998C40.3703 63.4998 40.219 63.5603 40.1044 63.6813C39.9897 63.7992 39.9323 63.9648 39.9323 64.1782V65.7072H39.4737V64.1496C39.4737 63.9425 39.4227 63.7833 39.3208 63.6718C39.2188 63.5571 39.0771 63.4998 38.8955 63.4998C38.7076 63.4998 38.5563 63.5603 38.4416 63.6813C38.327 63.7992 38.2696 63.9648 38.2696 64.1782V65.7072H37.8109Z" fill="white"/>
<rect x="17.5" y="69.6677" width="44.3667" height="8.19077" rx="1.36513" fill="#1D267D"/>
<path d="M27.3708 76.2187V72.7117H27.734V73.8154L27.648 73.8058C27.6639 73.5319 27.7212 73.3089 27.82 73.1369C27.9219 72.9617 28.0541 72.8327 28.2165 72.7499C28.379 72.6671 28.5558 72.6257 28.7469 72.6257C28.9316 72.6257 29.0989 72.6607 29.2486 72.7308C29.4015 72.8009 29.5321 72.8964 29.6404 73.0175C29.7487 73.1385 29.8315 73.2787 29.8888 73.4379C29.9462 73.5972 29.9748 73.766 29.9748 73.9444V74.0304C29.9748 74.2088 29.9446 74.3776 29.884 74.5368C29.8235 74.6961 29.7375 74.8363 29.626 74.9573C29.5177 75.0783 29.3871 75.1739 29.2342 75.244C29.0845 75.3141 28.9189 75.3491 28.7373 75.3491C28.5558 75.3491 28.3822 75.3093 28.2165 75.2296C28.0509 75.15 27.9139 75.021 27.8056 74.8426C27.6973 74.6643 27.6352 74.4301 27.6193 74.1403L27.8295 74.5225V76.2187H27.3708ZM28.6657 74.9477C28.8377 74.9477 28.9874 74.9079 29.1148 74.8283C29.2422 74.7455 29.3409 74.6324 29.411 74.4891C29.4811 74.3425 29.5161 74.1753 29.5161 73.9874C29.5161 73.7963 29.4811 73.629 29.411 73.4857C29.3409 73.3424 29.2422 73.2309 29.1148 73.1512C28.9874 73.0684 28.8377 73.027 28.6657 73.027C28.5128 73.027 28.371 73.0621 28.2404 73.1321C28.1098 73.199 28.0047 73.2978 27.9251 73.4284C27.8486 73.5558 27.8104 73.7103 27.8104 73.8918V74.1116C27.8104 74.2868 27.8502 74.4365 27.9299 74.5607C28.0095 74.685 28.1146 74.7805 28.2452 74.8474C28.3758 74.9143 28.516 74.9477 28.6657 74.9477ZM31.5489 75.3395C31.2463 75.3395 31.0138 75.2408 30.8513 75.0433C30.6889 74.8458 30.6077 74.5607 30.6077 74.1881V72.7069H31.0664V74.2788C31.0664 74.4795 31.1205 74.6372 31.2288 74.7519C31.3371 74.8633 31.4836 74.9191 31.6684 74.9191C31.8595 74.9191 32.0156 74.8586 32.1366 74.7375C32.2577 74.6133 32.3182 74.4445 32.3182 74.2311V72.7069H32.7769V75.2631H32.4137V74.1689H32.4711C32.4711 74.4206 32.4376 74.634 32.3707 74.8092C32.3038 74.9812 32.2035 75.1134 32.0697 75.2058C31.9391 75.2949 31.7719 75.3395 31.568 75.3395H31.5489ZM35.0126 75.3491C34.8024 75.3491 34.6144 75.3029 34.4488 75.2105C34.2864 75.1182 34.1574 74.9844 34.0618 74.8092C33.9662 74.6308 33.9137 74.4174 33.9041 74.1689H34.0283V75.2631H33.6652V71.7752H34.1239V73.4714L33.9615 73.8202C33.9742 73.543 34.0299 73.3169 34.1287 73.1417C34.2274 72.9665 34.3564 72.8375 34.5157 72.7547C34.6782 72.6687 34.8565 72.6257 35.0508 72.6257C35.2324 72.6257 35.398 72.6607 35.5477 72.7308C35.6974 72.7977 35.8265 72.8916 35.9348 73.0127C36.0431 73.1305 36.1259 73.2691 36.1832 73.4284C36.2405 73.5844 36.2692 73.7533 36.2692 73.9348V74.0208C36.2692 74.2024 36.2389 74.3728 36.1784 74.5321C36.1211 74.6913 36.0367 74.8331 35.9252 74.9573C35.8137 75.0783 35.6799 75.1739 35.5238 75.244C35.371 75.3141 35.2005 75.3491 35.0126 75.3491ZM34.96 74.9477C35.1321 74.9477 35.2818 74.9063 35.4092 74.8235C35.5366 74.7407 35.6353 74.6276 35.7054 74.4843C35.7755 74.3378 35.8105 74.1689 35.8105 73.9778C35.8105 73.7867 35.7739 73.6195 35.7006 73.4761C35.6306 73.3328 35.5318 73.2229 35.4044 73.1465C35.277 73.0668 35.1289 73.027 34.96 73.027C34.8072 73.027 34.6654 73.0621 34.5348 73.1321C34.4042 73.199 34.2991 73.2978 34.2195 73.4284C34.143 73.5558 34.1048 73.7103 34.1048 73.8918V74.1116C34.1048 74.2868 34.1446 74.4365 34.2242 74.5607C34.3039 74.685 34.409 74.7805 34.5396 74.8474C34.6702 74.9143 34.8103 74.9477 34.96 74.9477ZM36.8352 74.1307V73.7389H38.6126V74.1307H36.8352ZM41.1253 75.2631L40.165 74.0734H39.7445L40.9151 72.7117H41.3977L40.337 73.9396L40.3704 73.6959L41.6557 75.2631H41.1253ZM39.367 75.2631V71.7752H39.8257V75.2631H39.367ZM43.1346 75.3491C42.9116 75.3491 42.7189 75.3109 42.5564 75.2344C42.394 75.158 42.2618 75.0576 42.1599 74.9334C42.0579 74.806 41.9815 74.6643 41.9305 74.5082C41.8827 74.3521 41.8588 74.1928 41.8588 74.0304V73.9444C41.8588 73.7787 41.8827 73.6179 41.9305 73.4618C41.9815 73.3057 42.0579 73.1656 42.1599 73.0413C42.2618 72.9139 42.3908 72.8136 42.5469 72.7403C42.7061 72.6639 42.8925 72.6257 43.1059 72.6257C43.383 72.6257 43.6108 72.6862 43.7891 72.8072C43.9707 72.9251 44.1045 73.078 44.1905 73.2659C44.2797 73.4538 44.3243 73.6545 44.3243 73.8679V74.0734H42.0595V73.7294H43.9898L43.8847 73.9157C43.8847 73.7341 43.856 73.5781 43.7987 73.4475C43.7414 73.3137 43.6554 73.2102 43.5407 73.1369C43.426 73.0636 43.2811 73.027 43.1059 73.027C42.9243 73.027 42.773 73.0684 42.652 73.1512C42.5341 73.2341 42.4449 73.3471 42.3844 73.4905C42.3271 73.6338 42.2984 73.7994 42.2984 73.9874C42.2984 74.1689 42.3271 74.333 42.3844 74.4795C42.4449 74.6228 42.5373 74.7375 42.6615 74.8235C42.7858 74.9063 42.9434 74.9477 43.1346 74.9477C43.3352 74.9477 43.4977 74.9032 43.6219 74.814C43.7493 74.7248 43.8258 74.6213 43.8513 74.5034H44.2813C44.2462 74.6786 44.1762 74.8299 44.071 74.9573C43.9659 75.0847 43.8337 75.1819 43.6745 75.2488C43.5152 75.3156 43.3352 75.3491 43.1346 75.3491ZM44.7849 76.2569V75.846H45.1528C45.2611 75.846 45.3518 75.8317 45.4251 75.803C45.5015 75.7775 45.5637 75.7329 45.6114 75.6692C45.6624 75.6055 45.7038 75.5211 45.7357 75.416L46.5384 72.7117H46.9875L46.137 75.5354C46.086 75.7043 46.0144 75.8412 45.922 75.9463C45.8296 76.0546 45.7166 76.1327 45.5828 76.1805C45.4522 76.2314 45.2993 76.2569 45.1241 76.2569H44.7849ZM45.5637 75.2058V74.8235H46.1179V75.2058H45.5637ZM45.5159 75.2058L44.6033 72.7117H45.0715L45.9459 75.2058H45.5159ZM47.3896 74.1307V73.7389H49.167V74.1307H47.3896ZM49.845 75.2631V74.6897C49.845 74.5496 49.8641 74.4301 49.9023 74.3314C49.9437 74.2326 50.0138 74.1435 50.1126 74.0638C50.2113 73.981 50.3451 73.9014 50.5139 73.8249L51.1685 73.5239C51.3278 73.4507 51.4536 73.3567 51.546 73.242C51.6383 73.1242 51.6845 72.9729 51.6845 72.7881C51.6845 72.5651 51.6224 72.3915 51.4982 72.2673C51.3739 72.1431 51.1988 72.081 50.9726 72.081C50.7496 72.081 50.5744 72.1431 50.447 72.2673C50.3196 72.3915 50.2559 72.5651 50.2559 72.7881H49.8068C49.8068 72.5874 49.8482 72.4027 49.931 72.2339C50.017 72.0651 50.146 71.9313 50.318 71.8325C50.49 71.7306 50.7082 71.6796 50.9726 71.6796C51.237 71.6796 51.4536 71.7306 51.6224 71.8325C51.7944 71.9313 51.9218 72.0619 52.0046 72.2243C52.0906 72.3868 52.1336 72.5636 52.1336 72.7547V72.8216C52.1336 73.0732 52.0604 73.285 51.9139 73.457C51.7705 73.629 51.5762 73.7708 51.3309 73.8823L50.6764 74.1833C50.5298 74.2502 50.4311 74.3171 50.3801 74.3839C50.3292 74.4508 50.3037 74.54 50.3037 74.6515V75.0911L50.1795 74.8713H52.1766V75.2631H49.845Z" fill="white"/>
<rect x="17.5" y="79.2236" width="44.3667" height="8.19077" rx="1.36513" fill="#1D267D"/>
<path d="M27.8444 85.7746V82.2675H28.2076V83.3713L28.1216 83.3617C28.1375 83.0878 28.1948 82.8648 28.2936 82.6928C28.3955 82.5176 28.5277 82.3886 28.6901 82.3058C28.8526 82.223 29.0294 82.1815 29.2205 82.1815C29.4052 82.1815 29.5725 82.2166 29.7222 82.2867C29.8751 82.3567 30.0057 82.4523 30.114 82.5733C30.2223 82.6944 30.3051 82.8345 30.3624 82.9938C30.4197 83.1531 30.4484 83.3219 30.4484 83.5003V83.5863C30.4484 83.7646 30.4182 83.9335 30.3576 84.0927C30.2971 84.252 30.2111 84.3921 30.0996 84.5132C29.9913 84.6342 29.8607 84.7298 29.7078 84.7999C29.5581 84.8699 29.3925 84.905 29.2109 84.905C29.0294 84.905 28.8558 84.8652 28.6901 84.7855C28.5245 84.7059 28.3875 84.5769 28.2792 84.3985C28.1709 84.2201 28.1088 83.986 28.0929 83.6962L28.3031 84.0784V85.7746H27.8444ZM29.1393 84.5036C29.3113 84.5036 29.461 84.4638 29.5884 84.3842C29.7158 84.3014 29.8145 84.1883 29.8846 84.0449C29.9547 83.8984 29.9897 83.7312 29.9897 83.5433C29.9897 83.3521 29.9547 83.1849 29.8846 83.0416C29.8145 82.8982 29.7158 82.7867 29.5884 82.7071C29.461 82.6243 29.3113 82.5829 29.1393 82.5829C28.9864 82.5829 28.8446 82.6179 28.714 82.688C28.5834 82.7549 28.4783 82.8536 28.3987 82.9842C28.3222 83.1116 28.284 83.2661 28.284 83.4477V83.6675C28.284 83.8427 28.3238 83.9924 28.4035 84.1166C28.4831 84.2408 28.5882 84.3364 28.7188 84.4033C28.8494 84.4702 28.9895 84.5036 29.1393 84.5036ZM32.0225 84.8954C31.7199 84.8954 31.4874 84.7967 31.3249 84.5992C31.1625 84.4017 31.0813 84.1166 31.0813 83.7439V82.2628H31.54V83.8347C31.54 84.0354 31.5941 84.1931 31.7024 84.3077C31.8107 84.4192 31.9572 84.475 32.142 84.475C32.3331 84.475 32.4892 84.4144 32.6102 84.2934C32.7313 84.1692 32.7918 84.0003 32.7918 83.7869V82.2628H33.2505V84.819H32.8873V83.7248H32.9447C32.9447 83.9765 32.9112 84.1899 32.8443 84.3651C32.7774 84.5371 32.6771 84.6693 32.5433 84.7616C32.4127 84.8508 32.2455 84.8954 32.0416 84.8954H32.0225ZM35.4862 84.905C35.276 84.905 35.088 84.8588 34.9224 84.7664C34.76 84.674 34.6309 84.5403 34.5354 84.3651C34.4398 84.1867 34.3873 83.9733 34.3777 83.7248H34.5019V84.819H34.1388V81.3311H34.5975V83.0272L34.4351 83.376C34.4478 83.0989 34.5035 82.8728 34.6023 82.6976C34.701 82.5224 34.83 82.3934 34.9893 82.3105C35.1517 82.2245 35.3301 82.1815 35.5244 82.1815C35.706 82.1815 35.8716 82.2166 36.0213 82.2867C36.171 82.3535 36.3 82.4475 36.4083 82.5686C36.5166 82.6864 36.5995 82.825 36.6568 82.9842C36.7141 83.1403 36.7428 83.3091 36.7428 83.4907V83.5767C36.7428 83.7583 36.7125 83.9287 36.652 84.0879C36.5947 84.2472 36.5103 84.389 36.3988 84.5132C36.2873 84.6342 36.1535 84.7298 35.9974 84.7999C35.8445 84.8699 35.6741 84.905 35.4862 84.905ZM35.4336 84.5036C35.6057 84.5036 35.7554 84.4622 35.8828 84.3794C36.0102 84.2966 36.1089 84.1835 36.179 84.0402C36.2491 83.8936 36.2841 83.7248 36.2841 83.5337C36.2841 83.3426 36.2475 83.1754 36.1742 83.032C36.1042 82.8887 36.0054 82.7788 35.878 82.7023C35.7506 82.6227 35.6025 82.5829 35.4336 82.5829C35.2808 82.5829 35.139 82.6179 35.0084 82.688C34.8778 82.7549 34.7727 82.8536 34.6931 82.9842C34.6166 83.1116 34.5784 83.2661 34.5784 83.4477V83.6675C34.5784 83.8427 34.6182 83.9924 34.6978 84.1166C34.7775 84.2408 34.8826 84.3364 35.0132 84.4033C35.1438 84.4702 35.2839 84.5036 35.4336 84.5036ZM37.3088 83.6866V83.2948H39.0862V83.6866H37.3088ZM41.5989 84.819L40.6385 83.6293H40.2181L41.3887 82.2675H41.8713L40.8106 83.4955L40.844 83.2518L42.1293 84.819H41.5989ZM39.8406 84.819V81.3311H40.2993V84.819H39.8406ZM43.6082 84.905C43.3852 84.905 43.1925 84.8667 43.03 84.7903C42.8676 84.7139 42.7354 84.6135 42.6335 84.4893C42.5315 84.3619 42.4551 84.2201 42.4041 84.0641C42.3563 83.908 42.3324 83.7487 42.3324 83.5863V83.5003C42.3324 83.3346 42.3563 83.1738 42.4041 83.0177C42.4551 82.8616 42.5315 82.7215 42.6335 82.5972C42.7354 82.4698 42.8644 82.3695 43.0205 82.2962C43.1797 82.2198 43.3661 82.1815 43.5795 82.1815C43.8566 82.1815 44.0844 82.2421 44.2627 82.3631C44.4443 82.481 44.5781 82.6339 44.6641 82.8218C44.7533 83.0097 44.7979 83.2104 44.7979 83.4238V83.6293H42.5331V83.2852H44.4634L44.3583 83.4716C44.3583 83.29 44.3296 83.1339 44.2723 83.0033C44.215 82.8696 44.129 82.766 44.0143 82.6928C43.8996 82.6195 43.7547 82.5829 43.5795 82.5829C43.3979 82.5829 43.2466 82.6243 43.1256 82.7071C43.0077 82.7899 42.9185 82.903 42.858 83.0464C42.8007 83.1897 42.772 83.3553 42.772 83.5433C42.772 83.7248 42.8007 83.8889 42.858 84.0354C42.9185 84.1787 43.0109 84.2934 43.1351 84.3794C43.2594 84.4622 43.417 84.5036 43.6082 84.5036C43.8088 84.5036 43.9713 84.459 44.0955 84.3698C44.2229 84.2807 44.2994 84.1771 44.3248 84.0593H44.7549C44.7198 84.2345 44.6497 84.3858 44.5446 84.5132C44.4395 84.6406 44.3073 84.7377 44.1481 84.8046C43.9888 84.8715 43.8088 84.905 43.6082 84.905ZM45.2585 85.8128V85.4019H45.6264C45.7347 85.4019 45.8254 85.3875 45.8987 85.3589C45.9751 85.3334 46.0373 85.2888 46.085 85.2251C46.136 85.1614 46.1774 85.077 46.2093 84.9719L47.012 82.2675H47.4611L46.6106 85.0913C46.5596 85.2601 46.488 85.3971 46.3956 85.5022C46.3032 85.6105 46.1902 85.6886 46.0564 85.7363C45.9258 85.7873 45.7729 85.8128 45.5977 85.8128H45.2585ZM46.0373 84.7616V84.3794H46.5915V84.7616H46.0373ZM45.9895 84.7616L45.0769 82.2675H45.5451L46.4195 84.7616H45.9895ZM47.8632 83.6866V83.2948H49.6406V83.6866H47.8632ZM50.9302 84.819V81.5604L51.1404 81.7229H50.1561V81.3311H51.3889V84.819H50.9302Z" fill="white"/>
<rect x="17.5" y="88.7795" width="44.3667" height="8.19077" rx="1.36513" fill="#5C469C"/>
<path d="M38.5948 94.3749V91.8235H38.9579V92.9176H38.9006C38.9006 92.666 38.9341 92.4541 39.0009 92.2821C39.071 92.1069 39.1761 91.9748 39.3163 91.8856C39.4564 91.7932 39.6332 91.747 39.8466 91.747H39.8658C40.1875 91.747 40.4248 91.8473 40.5777 92.048C40.7337 92.2487 40.8118 92.5386 40.8118 92.9176V94.3749H40.3531V92.822C40.3531 92.6246 40.2974 92.4669 40.1859 92.349C40.0744 92.228 39.9215 92.1675 39.7272 92.1675C39.5265 92.1675 39.3641 92.2296 39.2398 92.3538C39.1156 92.478 39.0535 92.6437 39.0535 92.8507V94.3749H38.5948Z" fill="white"/>
<path d="M125.217 72.6144V72.1475H128.03V72.6144H125.217ZM125.217 73.7079V73.241H128.03V73.7079H125.217Z" fill="#0C134F"/>
<path d="M39.3019 33.787V15.4606C39.3019 12.4448 41.7467 10.0001 44.7625 10.0001H90.153C93.1687 10.0001 95.6135 12.4448 95.6135 15.4606V22.1834" stroke="#252525" stroke-width="0.341282" stroke-linecap="round" stroke-dasharray="1.71 1.71"/>
<path d="M39.3016 36.0061C40.1498 36.0061 40.8374 35.3185 40.8374 34.4703C40.8374 33.6221 40.1498 32.9345 39.3016 32.9345C38.4534 32.9345 37.7658 33.6221 37.7658 34.4703C37.7658 35.3185 38.4534 36.0061 39.3016 36.0061Z" fill="white" stroke="#252525" stroke-width="1.02385"/>
<path d="M95.2458 25.0235L93.6446 22.4476C93.4819 22.1859 93.5883 21.86 93.8263 21.7296C93.9647 21.6537 94.1311 21.6991 94.2796 21.7526L94.9198 21.9834C95.3686 22.1452 95.8599 22.1452 96.3087 21.9834L96.9489 21.7526C97.0974 21.6991 97.2638 21.6538 97.4022 21.7296C97.6365 21.8581 97.7439 22.1761 97.5901 22.4372L96.0732 25.0131C95.8859 25.3313 95.4406 25.3368 95.2458 25.0235Z" fill="#252525"/>
<mask id="path-34-inside-2_2862_8168" fill="white">
<path d="M186 56.3651C186 55.6112 186.611 55 187.365 55H239.24C239.994 55 240.605 55.6112 240.605 56.3651V101.414C240.605 102.168 239.994 102.779 239.24 102.779H187.365C186.611 102.779 186 102.168 186 101.414V56.3651Z"/>
</mask>
<path d="M186 56.3651C186 55.6112 186.611 55 187.365 55H239.24C239.994 55 240.605 55.6112 240.605 56.3651V101.414C240.605 102.168 239.994 102.779 239.24 102.779H187.365C186.611 102.779 186 102.168 186 101.414V56.3651Z" fill="white"/>
<path d="M186 55H240.605H186ZM242.653 101.414C242.653 103.299 241.125 104.827 239.24 104.827H187.365C185.48 104.827 183.952 103.299 183.952 101.414L188.048 100.732H238.557L242.653 101.414ZM187.365 104.827C185.48 104.827 183.952 103.299 183.952 101.414V58.4128C183.952 56.528 185.48 55 187.365 55H188.048C188.048 55 188.048 55.6112 188.048 56.3651V100.732L187.365 104.827ZM239.24 55C241.125 55 242.653 56.528 242.653 58.4128V101.414C242.653 103.299 241.125 104.827 239.24 104.827L238.557 100.732V56.3651C238.557 55.6112 238.557 55 238.557 55H239.24Z" fill="url(#paint1_linear_2862_8168)" fill-opacity="0.3" mask="url(#path-34-inside-2_2862_8168)"/>
<rect x="191.515" y="89.1456" width="44.3667" height="8.19077" rx="1.36513" fill="#1D267D"/>
<path d="M213.67 94.741V91.4824L213.88 91.6449H212.896V91.2531H214.128V94.741H213.67Z" fill="white"/>
<rect x="135.373" y="69.7604" width="44.0254" height="7.84949" rx="1.19449" fill="#1D267D"/>
<path d="M157.358 75.1852V71.9266L157.568 72.0891H156.583V71.6973H157.816V75.1852H157.358Z" fill="white"/>
<rect x="135.373" y="69.7604" width="44.0254" height="7.84949" rx="1.19449" stroke="#0C134F" stroke-width="0.341282"/>
<path d="M158.409 63.7869V35.4605C158.409 32.4448 160.854 30 163.87 30H209.26C212.276 30 214.721 32.4448 214.721 35.4605V59.5887" stroke="#252525" stroke-width="0.341282" stroke-linecap="round" stroke-dasharray="1.71 1.71"/>
<path d="M158.409 66.0049C159.257 66.0049 159.945 65.3173 159.945 64.4691C159.945 63.621 159.257 62.9334 158.409 62.9334C157.561 62.9334 156.873 63.621 156.873 64.4691C156.873 65.3173 157.561 66.0049 158.409 66.0049Z" fill="white" stroke="#252525" stroke-width="1.02385"/>
<path d="M214.353 62.0869L212.752 59.511C212.589 59.2493 212.696 58.9234 212.934 58.793C213.072 58.7171 213.238 58.7625 213.387 58.816L214.027 59.0468C214.476 59.2086 214.967 59.2086 215.416 59.0468L216.056 58.816C216.205 58.7625 216.371 58.7172 216.51 58.7931C216.744 58.9215 216.851 59.2395 216.697 59.5007L215.181 62.0765C214.993 62.3947 214.548 62.4003 214.353 62.0869Z" fill="#252525"/>
<defs>
<linearGradient id="paint0_linear_2862_8168" x1="10.0628" y1="50.5821" x2="42.3579" y2="118.99" gradientUnits="userSpaceOnUse">
<stop stop-color="#662B64"/>
<stop offset="1" stop-color="#456F97"/>
</linearGradient>
<linearGradient id="paint1_linear_2862_8168" x1="184.063" y1="50.9067" x2="216.358" y2="119.315" gradientUnits="userSpaceOnUse">
<stop stop-color="#662B64"/>
<stop offset="1" stop-color="#456F97"/>
</linearGradient>
</defs>
</svg>
