<svg width="253" height="123" viewBox="0 0 253 123" fill="none" xmlns="http://www.w3.org/2000/svg">
<rect width="253" height="123" rx="10" fill="#F4F4F4"/>
<mask id="path-2-inside-1_6353_5664" fill="white">
<path d="M12 46.0405C12 45.2865 12.6112 44.6754 13.3651 44.6754H65.24C65.9939 44.6754 66.6051 45.2865 66.6051 46.0405V91.0897C66.6051 91.8437 65.9939 92.4548 65.24 92.4548H13.3651C12.6112 92.4548 12 91.8437 12 91.0897V46.0405Z"/>
</mask>
<path d="M12 46.0405C12 45.2865 12.6112 44.6754 13.3651 44.6754H65.24C65.9939 44.6754 66.6051 45.2865 66.6051 46.0405V91.0897C66.6051 91.8437 65.9939 92.4548 65.24 92.4548H13.3651C12.6112 92.4548 12 91.8437 12 91.0897V46.0405Z" fill="white"/>
<path d="M12 44.6754H66.6051H12ZM68.6528 91.0897C68.6528 92.9746 67.1248 94.5025 65.24 94.5025H13.3651C11.4803 94.5025 9.95231 92.9746 9.95231 91.0897L14.0477 90.4071H64.5574L68.6528 91.0897ZM13.3651 94.5025C11.4803 94.5025 9.95231 92.9746 9.95231 91.0897V48.0882C9.95231 46.2033 11.4803 44.6754 13.3651 44.6754H14.0477C14.0477 44.6754 14.0477 45.2865 14.0477 46.0405V90.4071L13.3651 94.5025ZM65.24 44.6754C67.1248 44.6754 68.6528 46.2033 68.6528 48.0882V91.0897C68.6528 92.9746 67.1248 94.5025 65.24 94.5025L64.5574 90.4071V46.0405C64.5574 45.2865 64.5574 44.6754 64.5574 44.6754H65.24Z" fill="url(#paint0_linear_6353_5664)" fill-opacity="0.3" mask="url(#path-2-inside-1_6353_5664)"/>
<rect x="17.1192" y="79.1456" width="44.3667" height="8.19077" rx="1.36513" fill="#1D267D"/>
<path d="M31.6682 84.741V82.1895H32.1269V84.741H31.6682ZM31.2765 82.5527V82.1895H32.1269V82.5527H31.2765ZM31.7973 81.7786C31.6953 81.7786 31.6189 81.7516 31.5679 81.6974C31.5201 81.6433 31.4962 81.5748 31.4962 81.492C31.4962 81.4091 31.5201 81.3407 31.5679 81.2865C31.6189 81.2324 31.6953 81.2053 31.7973 81.2053C31.8992 81.2053 31.974 81.2324 32.0218 81.2865C32.0728 81.3407 32.0983 81.4091 32.0983 81.492C32.0983 81.5748 32.0728 81.6433 32.0218 81.6974C31.974 81.7516 31.8992 81.7786 31.7973 81.7786ZM34.0076 84.7696C33.8165 84.7696 33.6509 84.7426 33.5107 84.6884C33.3737 84.6343 33.267 84.5419 33.1906 84.4113C33.1173 84.2775 33.0807 84.0975 33.0807 83.8714V81.4155H33.5203V83.9287C33.5203 84.0657 33.5569 84.1724 33.6302 84.2488C33.7066 84.3221 33.8133 84.3587 33.9503 84.3587H34.3994V84.7696H34.0076ZM32.6411 82.5336V82.1895H34.3994V82.5336H32.6411ZM36.1141 84.827C35.8911 84.827 35.6984 84.7887 35.536 84.7123C35.3735 84.6359 35.2413 84.5355 35.1394 84.4113C35.0375 84.2839 34.961 84.1421 34.91 83.9861C34.8623 83.83 34.8384 83.6707 34.8384 83.5083V83.4223C34.8384 83.2566 34.8623 83.0958 34.91 82.9397C34.961 82.7836 35.0375 82.6434 35.1394 82.5192C35.2413 82.3918 35.3703 82.2915 35.5264 82.2182C35.6857 82.1418 35.872 82.1035 36.0854 82.1035C36.3625 82.1035 36.5903 82.1641 36.7687 82.2851C36.9502 82.403 37.084 82.5559 37.17 82.7438C37.2592 82.9317 37.3038 83.1324 37.3038 83.3458V83.5513H35.0391V83.2072H36.9693L36.8642 83.3936C36.8642 83.212 36.8356 83.0559 36.7782 82.9253C36.7209 82.7916 36.6349 82.688 36.5202 82.6148C36.4055 82.5415 36.2606 82.5049 36.0854 82.5049C35.9039 82.5049 35.7526 82.5463 35.6315 82.6291C35.5137 82.7119 35.4245 82.825 35.364 82.9683C35.3066 83.1117 35.278 83.2773 35.278 83.4653C35.278 83.6468 35.3066 83.8109 35.364 83.9574C35.4245 84.1007 35.5168 84.2154 35.6411 84.3014C35.7653 84.3842 35.923 84.4256 36.1141 84.4256C36.3148 84.4256 36.4772 84.381 36.6014 84.2918C36.7289 84.2027 36.8053 84.0991 36.8308 83.9813H37.2608C37.2258 84.1565 37.1557 84.3078 37.0506 84.4352C36.9455 84.5626 36.8133 84.6597 36.654 84.7266C36.4947 84.7935 36.3148 84.827 36.1141 84.827ZM37.9551 84.741V82.1895H38.3182V83.2837H38.2608C38.2608 83.0352 38.2927 82.825 38.3564 82.653C38.4233 82.4778 38.522 82.344 38.6526 82.2517C38.7832 82.1593 38.9489 82.1131 39.1495 82.1131H39.1687C39.3693 82.1131 39.535 82.1593 39.6656 82.2517C39.7993 82.344 39.8981 82.4778 39.9618 82.653C40.0255 82.825 40.0574 83.0352 40.0574 83.2837H39.9236C39.9236 83.0352 39.957 82.825 40.0239 82.653C40.0908 82.4778 40.1895 82.344 40.3201 82.2517C40.4539 82.1593 40.6212 82.1131 40.8218 82.1131H40.8409C41.0416 82.1131 41.2088 82.1593 41.3426 82.2517C41.4764 82.344 41.5752 82.4778 41.6389 82.653C41.7057 82.825 41.7392 83.0352 41.7392 83.2837V84.741H41.2805V83.1834C41.2805 82.9763 41.2295 82.817 41.1276 82.7056C41.0257 82.5909 40.8839 82.5336 40.7024 82.5336C40.5144 82.5336 40.3631 82.5941 40.2485 82.7151C40.1338 82.833 40.0765 82.9986 40.0765 83.212V84.741H39.6178V83.1834C39.6178 82.9763 39.5668 82.817 39.4649 82.7056C39.363 82.5909 39.2212 82.5336 39.0397 82.5336C38.8517 82.5336 38.7004 82.5941 38.5857 82.7151C38.4711 82.833 38.4137 82.9986 38.4137 83.212V84.741H37.9551ZM42.4548 83.6086V83.2168H44.2322V83.6086H42.4548ZM44.9102 84.741V84.1676C44.9102 84.0275 44.9293 83.908 44.9676 83.8093C45.009 83.7105 45.079 83.6213 45.1778 83.5417C45.2765 83.4589 45.4103 83.3793 45.5791 83.3028L46.2337 83.0018C46.393 82.9285 46.5188 82.8346 46.6112 82.7199C46.7035 82.602 46.7497 82.4507 46.7497 82.266C46.7497 82.043 46.6876 81.8694 46.5634 81.7452C46.4392 81.621 46.264 81.5589 46.0378 81.5589C45.8148 81.5589 45.6397 81.621 45.5122 81.7452C45.3848 81.8694 45.3211 82.043 45.3211 82.266H44.872C44.872 82.0653 44.9134 81.8806 44.9962 81.7117C45.0822 81.5429 45.2112 81.4091 45.3832 81.3104C45.5552 81.2085 45.7734 81.1575 46.0378 81.1575C46.3022 81.1575 46.5188 81.2085 46.6876 81.3104C46.8596 81.4091 46.987 81.5397 47.0699 81.7022C47.1559 81.8646 47.1989 82.0414 47.1989 82.2325V82.2994C47.1989 82.5511 47.1256 82.7629 46.9791 82.9349C46.8357 83.1069 46.6414 83.2487 46.3962 83.3601L45.7416 83.6612C45.5951 83.728 45.4963 83.7949 45.4454 83.8618C45.3944 83.9287 45.3689 84.0179 45.3689 84.1294V84.569L45.2447 84.3492H47.2419V84.741H44.9102Z" fill="white"/>
<rect x="17.1192" y="69.5898" width="44.3667" height="8.19077" rx="1.36513" fill="#5C469C"/>
<path d="M32.1418 75.1852V72.6338H32.6005V75.1852H32.1418ZM31.7501 72.9969V72.6338H32.6005V72.9969H31.7501ZM32.2708 72.2229C32.1689 72.2229 32.0925 72.1958 32.0415 72.1416C31.9937 72.0875 31.9698 72.019 31.9698 71.9362C31.9698 71.8534 31.9937 71.7849 32.0415 71.7307C32.0925 71.6766 32.1689 71.6495 32.2708 71.6495C32.3728 71.6495 32.4476 71.6766 32.4954 71.7307C32.5464 71.7849 32.5719 71.8534 32.5719 71.9362C32.5719 72.019 32.5464 72.0875 32.4954 72.1416C32.4476 72.1958 32.3728 72.2229 32.2708 72.2229ZM34.4812 75.2138C34.2901 75.2138 34.1245 75.1868 33.9843 75.1326C33.8473 75.0785 33.7406 74.9861 33.6642 74.8555C33.5909 74.7217 33.5543 74.5418 33.5543 74.3156V71.8597H33.9939V74.3729C33.9939 74.5099 34.0305 74.6166 34.1038 74.6931C34.1802 74.7663 34.2869 74.8029 34.4239 74.8029H34.873V75.2138H34.4812ZM33.1147 72.9778V72.6338H34.873V72.9778H33.1147ZM36.5877 75.2712C36.3647 75.2712 36.172 75.233 36.0096 75.1565C35.8471 75.0801 35.7149 74.9797 35.613 74.8555C35.5111 74.7281 35.4346 74.5863 35.3836 74.4303C35.3359 74.2742 35.312 74.1149 35.312 73.9525V73.8665C35.312 73.7008 35.3359 73.54 35.3836 73.3839C35.4346 73.2278 35.5111 73.0877 35.613 72.9634C35.7149 72.836 35.8439 72.7357 36 72.6624C36.1593 72.586 36.3456 72.5478 36.559 72.5478C36.8361 72.5478 37.0639 72.6083 37.2423 72.7293C37.4238 72.8472 37.5576 73.0001 37.6436 73.188C37.7328 73.3759 37.7774 73.5766 37.7774 73.79V73.9955H35.5126V73.6515H37.4429L37.3378 73.8378C37.3378 73.6562 37.3092 73.5002 37.2518 73.3696C37.1945 73.2358 37.1085 73.1323 36.9938 73.059C36.8791 72.9857 36.7342 72.9491 36.559 72.9491C36.3775 72.9491 36.2262 72.9905 36.1051 73.0733C35.9873 73.1561 35.8981 73.2692 35.8375 73.4126C35.7802 73.5559 35.7515 73.7215 35.7515 73.9095C35.7515 74.091 35.7802 74.2551 35.8375 74.4016C35.8981 74.5449 35.9904 74.6596 36.1147 74.7456C36.2389 74.8284 36.3966 74.8698 36.5877 74.8698C36.7884 74.8698 36.9508 74.8252 37.075 74.7361C37.2025 74.6469 37.2789 74.5433 37.3044 74.4255H37.7344C37.6994 74.6007 37.6293 74.752 37.5242 74.8794C37.4191 75.0068 37.2869 75.104 37.1276 75.1708C36.9683 75.2377 36.7884 75.2712 36.5877 75.2712ZM38.4287 75.1852V72.6338H38.7918V73.7279H38.7344C38.7344 73.4795 38.7663 73.2692 38.83 73.0972C38.8969 72.922 38.9956 72.7882 39.1262 72.6959C39.2568 72.6035 39.4225 72.5573 39.6231 72.5573H39.6423C39.8429 72.5573 40.0086 72.6035 40.1392 72.6959C40.2729 72.7882 40.3717 72.922 40.4354 73.0972C40.4991 73.2692 40.531 73.4795 40.531 73.7279H40.3972C40.3972 73.4795 40.4306 73.2692 40.4975 73.0972C40.5644 72.922 40.6631 72.7882 40.7937 72.6959C40.9275 72.6035 41.0947 72.5573 41.2954 72.5573H41.3145C41.5152 72.5573 41.6824 72.6035 41.8162 72.6959C41.95 72.7882 42.0487 72.922 42.1125 73.0972C42.1793 73.2692 42.2128 73.4795 42.2128 73.7279V75.1852H41.7541V73.6276C41.7541 73.4205 41.7031 73.2613 41.6012 73.1498C41.4993 73.0351 41.3575 72.9778 41.176 72.9778C40.988 72.9778 40.8367 73.0383 40.7221 73.1593C40.6074 73.2772 40.5501 73.4428 40.5501 73.6562V75.1852H40.0914V73.6276C40.0914 73.4205 40.0404 73.2613 39.9385 73.1498C39.8366 73.0351 39.6948 72.9778 39.5132 72.9778C39.3253 72.9778 39.174 73.0383 39.0593 73.1593C38.9447 73.2772 38.8873 73.4428 38.8873 73.6562V75.1852H38.4287ZM42.9284 74.0528V73.661H44.7058V74.0528H42.9284ZM45.9954 75.1852V71.9266L46.2056 72.0891H45.2214V71.6973H46.4541V75.1852H45.9954Z" fill="white"/>
<rect x="73.6802" y="60.2839" width="43.8667" height="7.69077" rx="1.11513" stroke="#1D267D" stroke-width="0.5"/>
<path d="M87.9792 65.6293V63.0779H88.4379V65.6293H87.9792ZM87.5874 63.441V63.0779H88.4379V63.441H87.5874ZM88.1082 62.667C88.0063 62.667 87.9299 62.6399 87.8789 62.5858C87.8311 62.5316 87.8072 62.4631 87.8072 62.3803C87.8072 62.2975 87.8311 62.229 87.8789 62.1749C87.9299 62.1207 88.0063 62.0937 88.1082 62.0937C88.2102 62.0937 88.285 62.1207 88.3328 62.1749C88.3838 62.229 88.4092 62.2975 88.4092 62.3803C88.4092 62.4631 88.3838 62.5316 88.3328 62.5858C88.285 62.6399 88.2102 62.667 88.1082 62.667ZM90.3186 65.658C90.1275 65.658 89.9618 65.6309 89.8217 65.5768C89.6847 65.5226 89.578 65.4303 89.5016 65.2997C89.4283 65.1659 89.3917 64.9859 89.3917 64.7597V62.3039H89.8312V64.8171C89.8312 64.9541 89.8679 65.0608 89.9411 65.1372C90.0176 65.2105 90.1243 65.2471 90.2613 65.2471H90.7104V65.658H90.3186ZM88.9521 63.4219V63.0779H90.7104V63.4219H88.9521ZM92.4251 65.7153C92.2021 65.7153 92.0094 65.6771 91.8469 65.6007C91.6845 65.5242 91.5523 65.4239 91.4504 65.2997C91.3484 65.1722 91.272 65.0305 91.221 64.8744C91.1732 64.7183 91.1494 64.5591 91.1494 64.3966V64.3106C91.1494 64.145 91.1732 63.9841 91.221 63.828C91.272 63.672 91.3484 63.5318 91.4504 63.4076C91.5523 63.2802 91.6813 63.1798 91.8374 63.1066C91.9966 63.0301 92.183 62.9919 92.3964 62.9919C92.6735 62.9919 92.9013 63.0524 93.0796 63.1735C93.2612 63.2913 93.395 63.4442 93.481 63.6322C93.5702 63.8201 93.6148 64.0208 93.6148 64.2342V64.4396H91.35V64.0956H93.2803L93.1752 64.282C93.1752 64.1004 93.1465 63.9443 93.0892 63.8137C93.0319 63.6799 92.9459 63.5764 92.8312 63.5031C92.7165 63.4299 92.5716 63.3933 92.3964 63.3933C92.2148 63.3933 92.0635 63.4347 91.9425 63.5175C91.8246 63.6003 91.7354 63.7134 91.6749 63.8567C91.6176 64.0001 91.5889 64.1657 91.5889 64.3536C91.5889 64.5352 91.6176 64.6992 91.6749 64.8457C91.7354 64.9891 91.8278 65.1038 91.952 65.1898C92.0763 65.2726 92.2339 65.314 92.4251 65.314C92.6257 65.314 92.7882 65.2694 92.9124 65.1802C93.0398 65.091 93.1163 64.9875 93.1418 64.8696H93.5718C93.5367 65.0448 93.4667 65.1961 93.3615 65.3235C93.2564 65.451 93.1242 65.5481 92.965 65.615C92.8057 65.6819 92.6257 65.7153 92.4251 65.7153ZM94.266 65.6293V63.0779H94.6292V64.1721H94.5718C94.5718 63.9236 94.6037 63.7134 94.6674 63.5414C94.7343 63.3662 94.833 63.2324 94.9636 63.14C95.0942 63.0476 95.2598 63.0015 95.4605 63.0015H95.4796C95.6803 63.0015 95.8459 63.0476 95.9765 63.14C96.1103 63.2324 96.2091 63.3662 96.2728 63.5414C96.3365 63.7134 96.3683 63.9236 96.3683 64.1721H96.2345C96.2345 63.9236 96.268 63.7134 96.3349 63.5414C96.4018 63.3662 96.5005 63.2324 96.6311 63.14C96.7649 63.0476 96.9321 63.0015 97.1328 63.0015H97.1519C97.3526 63.0015 97.5198 63.0476 97.6536 63.14C97.7874 63.2324 97.8861 63.3662 97.9498 63.5414C98.0167 63.7134 98.0502 63.9236 98.0502 64.1721V65.6293H97.5915V64.0717C97.5915 63.8647 97.5405 63.7054 97.4386 63.5939C97.3367 63.4793 97.1949 63.4219 97.0134 63.4219C96.8254 63.4219 96.6741 63.4824 96.5594 63.6035C96.4448 63.7213 96.3874 63.887 96.3874 64.1004V65.6293H95.9288V64.0717C95.9288 63.8647 95.8778 63.7054 95.7759 63.5939C95.6739 63.4793 95.5322 63.4219 95.3506 63.4219C95.1627 63.4219 95.0114 63.4824 94.8967 63.6035C94.7821 63.7213 94.7247 63.887 94.7247 64.1004V65.6293H94.266ZM98.7658 64.497V64.1052H100.543V64.497H98.7658ZM101.221 65.6293V65.056C101.221 64.9158 101.24 64.7964 101.279 64.6976C101.32 64.5989 101.39 64.5097 101.489 64.4301C101.588 64.3473 101.721 64.2676 101.89 64.1912L102.545 63.8902C102.704 63.8169 102.83 63.7229 102.922 63.6083C103.015 63.4904 103.061 63.3391 103.061 63.1544C103.061 62.9314 102.999 62.7578 102.874 62.6336C102.75 62.5093 102.575 62.4472 102.349 62.4472C102.126 62.4472 101.951 62.5093 101.823 62.6336C101.696 62.7578 101.632 62.9314 101.632 63.1544H101.183C101.183 62.9537 101.224 62.7689 101.307 62.6001C101.393 62.4313 101.522 62.2975 101.694 62.1988C101.866 62.0968 102.084 62.0459 102.349 62.0459C102.613 62.0459 102.83 62.0968 102.999 62.1988C103.171 62.2975 103.298 62.4281 103.381 62.5906C103.467 62.753 103.51 62.9298 103.51 63.1209V63.1878C103.51 63.4394 103.437 63.6513 103.29 63.8233C103.147 63.9953 102.952 64.137 102.707 64.2485L102.053 64.5495C101.906 64.6164 101.807 64.6833 101.756 64.7502C101.705 64.8171 101.68 64.9063 101.68 65.0178V65.4573L101.556 65.2375H103.553V65.6293H101.221Z" fill="#1D267D"/>
<rect x="73.6802" y="69.8398" width="43.8667" height="7.69077" rx="1.11513" stroke="#5C469C" stroke-width="0.5"/>
<path d="M88.4528 75.1852V72.6338H88.9115V75.1852H88.4528ZM88.061 72.9969V72.6338H88.9115V72.9969H88.061ZM88.5818 72.2229C88.4799 72.2229 88.4034 72.1958 88.3525 72.1417C88.3047 72.0875 88.2808 72.0191 88.2808 71.9362C88.2808 71.8534 88.3047 71.7849 88.3525 71.7308C88.4034 71.6766 88.4799 71.6496 88.5818 71.6496C88.6838 71.6496 88.7586 71.6766 88.8064 71.7308C88.8574 71.7849 88.8828 71.8534 88.8828 71.9362C88.8828 72.0191 88.8574 72.0875 88.8064 72.1417C88.7586 72.1958 88.6838 72.2229 88.5818 72.2229ZM90.7922 75.2139C90.6011 75.2139 90.4354 75.1868 90.2953 75.1327C90.1583 75.0785 90.0516 74.9862 89.9752 74.8556C89.9019 74.7218 89.8653 74.5418 89.8653 74.3157V71.8598H90.3048V74.373C90.3048 74.51 90.3415 74.6167 90.4147 74.6931C90.4912 74.7664 90.5979 74.803 90.7348 74.803H91.184V75.2139H90.7922ZM89.4257 72.9778V72.6338H91.184V72.9778H89.4257ZM92.8987 75.2712C92.6757 75.2712 92.483 75.233 92.3205 75.1566C92.1581 75.0801 92.0259 74.9798 91.924 74.8556C91.822 74.7282 91.7456 74.5864 91.6946 74.4303C91.6468 74.2742 91.6229 74.115 91.6229 73.9525V73.8665C91.6229 73.7009 91.6468 73.54 91.6946 73.384C91.7456 73.2279 91.822 73.0877 91.924 72.9635C92.0259 72.8361 92.1549 72.7357 92.311 72.6625C92.4702 72.586 92.6566 72.5478 92.87 72.5478C93.1471 72.5478 93.3749 72.6083 93.5532 72.7294C93.7348 72.8472 93.8686 73.0001 93.9546 73.1881C94.0438 73.376 94.0884 73.5767 94.0884 73.7901V73.9955H91.8236V73.6515H93.7539L93.6488 73.8379C93.6488 73.6563 93.6201 73.5002 93.5628 73.3696C93.5055 73.2358 93.4195 73.1323 93.3048 73.0591C93.1901 72.9858 93.0452 72.9492 92.87 72.9492C92.6884 72.9492 92.5371 72.9906 92.4161 73.0734C92.2982 73.1562 92.209 73.2693 92.1485 73.4126C92.0912 73.556 92.0625 73.7216 92.0625 73.9095C92.0625 74.0911 92.0912 74.2551 92.1485 74.4017C92.209 74.545 92.3014 74.6597 92.4256 74.7457C92.5499 74.8285 92.7075 74.8699 92.8987 74.8699C93.0993 74.8699 93.2618 74.8253 93.386 74.7361C93.5134 74.6469 93.5899 74.5434 93.6154 74.4255H94.0454C94.0103 74.6007 93.9403 74.752 93.8351 74.8795C93.73 75.0069 93.5978 75.104 93.4386 75.1709C93.2793 75.2378 93.0993 75.2712 92.8987 75.2712ZM94.7396 75.1852V72.6338H95.1028V73.728H95.0454C95.0454 73.4795 95.0773 73.2693 95.141 73.0973C95.2079 72.9221 95.3066 72.7883 95.4372 72.6959C95.5678 72.6036 95.7334 72.5574 95.9341 72.5574H95.9532C96.1539 72.5574 96.3195 72.6036 96.4501 72.6959C96.5839 72.7883 96.6827 72.9221 96.7464 73.0973C96.8101 73.2693 96.8419 73.4795 96.8419 73.728H96.7081C96.7081 73.4795 96.7416 73.2693 96.8085 73.0973C96.8754 72.9221 96.9741 72.7883 97.1047 72.6959C97.2385 72.6036 97.4057 72.5574 97.6064 72.5574H97.6255C97.8262 72.5574 97.9934 72.6036 98.1272 72.6959C98.261 72.7883 98.3597 72.9221 98.4234 73.0973C98.4903 73.2693 98.5238 73.4795 98.5238 73.728V75.1852H98.0651V73.6276C98.0651 73.4206 98.0141 73.2613 97.9122 73.1498C97.8103 73.0352 97.6685 72.9778 97.4869 72.9778C97.299 72.9778 97.1477 73.0384 97.033 73.1594C96.9184 73.2772 96.861 73.4429 96.861 73.6563V75.1852H96.4024V73.6276C96.4024 73.4206 96.3514 73.2613 96.2495 73.1498C96.1475 73.0352 96.0058 72.9778 95.8242 72.9778C95.6363 72.9778 95.485 73.0384 95.3703 73.1594C95.2556 73.2772 95.1983 73.4429 95.1983 73.6563V75.1852H94.7396ZM99.2394 74.0529V73.6611H101.017V74.0529H99.2394ZM102.306 75.1852V71.9267L102.517 72.0891H101.532V71.6973H102.765V75.1852H102.306Z" fill="#5C469C"/>
<rect x="73.4302" y="79.1458" width="44.3667" height="8.19077" rx="1.36513" fill="#0C134F"/>
<path d="M85.4609 84.8272C85.2379 84.8272 85.042 84.7889 84.8732 84.7125C84.7044 84.636 84.5611 84.5357 84.4432 84.4115C84.3285 84.2841 84.2409 84.1423 84.1804 83.9862C84.1231 83.8302 84.0944 83.6709 84.0944 83.5084V83.4224C84.0944 83.26 84.1247 83.1007 84.1852 82.9446C84.2457 82.7854 84.3349 82.6436 84.4528 82.5194C84.5706 82.392 84.714 82.2917 84.8828 82.2184C85.0516 82.1419 85.2443 82.1037 85.4609 82.1037C85.6775 82.1037 85.8702 82.1419 86.039 82.2184C86.2079 82.2917 86.3512 82.392 86.4691 82.5194C86.5869 82.6436 86.6761 82.7854 86.7366 82.9446C86.7971 83.1007 86.8274 83.26 86.8274 83.4224V83.5084C86.8274 83.6709 86.7971 83.8302 86.7366 83.9862C86.6793 84.1423 86.5917 84.2841 86.4738 84.4115C86.3592 84.5357 86.2174 84.636 86.0486 84.7125C85.8798 84.7889 85.6839 84.8272 85.4609 84.8272ZM85.4609 84.4162C85.652 84.4162 85.8145 84.3748 85.9483 84.292C86.0852 84.206 86.1887 84.0913 86.2588 83.948C86.3321 83.8047 86.3687 83.6438 86.3687 83.4654C86.3687 83.2839 86.3321 83.1214 86.2588 82.9781C86.1856 82.8347 86.0804 82.7217 85.9435 82.6389C85.8097 82.556 85.6488 82.5146 85.4609 82.5146C85.2762 82.5146 85.1153 82.556 84.9783 82.6389C84.8414 82.7217 84.7363 82.8347 84.663 82.9781C84.5897 83.1214 84.5531 83.2839 84.5531 83.4654C84.5531 83.6438 84.5881 83.8047 84.6582 83.948C84.7315 84.0913 84.835 84.206 84.9688 84.292C85.1057 84.3748 85.2698 84.4162 85.4609 84.4162ZM87.5144 85.6967V82.1897H87.8775V83.2934L87.7915 83.2839C87.8074 83.0099 87.8648 82.787 87.9635 82.615C88.0654 82.4398 88.1976 82.3108 88.3601 82.2279C88.5225 82.1451 88.6993 82.1037 88.8904 82.1037C89.0752 82.1037 89.2424 82.1388 89.3921 82.2088C89.545 82.2789 89.6756 82.3745 89.7839 82.4955C89.8922 82.6166 89.975 82.7567 90.0324 82.916C90.0897 83.0752 90.1184 83.2441 90.1184 83.4224V83.5084C90.1184 83.6868 90.0881 83.8556 90.0276 84.0149C89.9671 84.1742 89.8811 84.3143 89.7696 84.4354C89.6613 84.5564 89.5307 84.652 89.3778 84.722C89.2281 84.7921 89.0624 84.8272 88.8809 84.8272C88.6993 84.8272 88.5257 84.7873 88.3601 84.7077C88.1944 84.6281 88.0575 84.4991 87.9492 84.3207C87.8409 84.1423 87.7788 83.9082 87.7628 83.6183L87.9731 84.0006V85.6967H87.5144ZM88.8092 84.4258C88.9812 84.4258 89.1309 84.386 89.2583 84.3064C89.3857 84.2235 89.4845 84.1105 89.5546 83.9671C89.6246 83.8206 89.6597 83.6534 89.6597 83.4654C89.6597 83.2743 89.6246 83.1071 89.5546 82.9638C89.4845 82.8204 89.3857 82.7089 89.2583 82.6293C89.1309 82.5465 88.9812 82.5051 88.8092 82.5051C88.6563 82.5051 88.5146 82.5401 88.384 82.6102C88.2534 82.6771 88.1483 82.7758 88.0686 82.9064C87.9922 83.0338 87.954 83.1883 87.954 83.3699V83.5897C87.954 83.7649 87.9938 83.9146 88.0734 84.0388C88.153 84.163 88.2581 84.2586 88.3887 84.3255C88.5193 84.3924 88.6595 84.4258 88.8092 84.4258ZM90.6843 83.6088V83.217H92.4617V83.6088H90.6843ZM94.2817 84.8272C94.1001 84.8272 93.9329 84.7937 93.78 84.7268C93.6271 84.6599 93.4933 84.566 93.3786 84.4449C93.2672 84.3239 93.1796 84.1837 93.1159 84.0245C93.0553 83.8652 93.0251 83.6932 93.0251 83.5084V83.4224C93.0251 83.2409 93.0553 83.0705 93.1159 82.9112C93.1764 82.7519 93.2608 82.6118 93.3691 82.4907C93.4806 82.3697 93.6112 82.2757 93.7609 82.2088C93.9138 82.1388 94.0826 82.1037 94.2673 82.1037C94.4616 82.1037 94.6384 82.1451 94.7977 82.2279C94.957 82.3076 95.0876 82.4334 95.1895 82.6054C95.2914 82.7774 95.3487 83.0004 95.3615 83.2743L95.1704 82.9685V81.2532H95.6291V84.7411H95.2659V83.6088H95.3997C95.387 83.8986 95.3265 84.1344 95.2182 84.3159C95.1099 84.4943 94.9729 84.6249 94.8072 84.7077C94.6448 84.7873 94.4696 84.8272 94.2817 84.8272ZM94.3438 84.4258C94.4999 84.4258 94.6416 84.3908 94.769 84.3207C94.8964 84.2506 94.9984 84.1503 95.0748 84.0197C95.1513 83.8859 95.1895 83.7298 95.1895 83.5514V83.3317C95.1895 83.1565 95.1497 83.0083 95.07 82.8873C94.9936 82.7631 94.8901 82.6691 94.7595 82.6054C94.6321 82.5385 94.4919 82.5051 94.339 82.5051C94.1702 82.5051 94.0205 82.5449 93.8899 82.6245C93.7625 82.7042 93.6621 82.8156 93.5889 82.959C93.5188 83.1023 93.4838 83.2711 93.4838 83.4654C93.4838 83.6597 93.5204 83.8302 93.5936 83.9767C93.6669 84.12 93.7688 84.2315 93.8994 84.3111C94.03 84.3876 94.1782 84.4258 94.3438 84.4258ZM97.595 84.8272C97.372 84.8272 97.1793 84.7889 97.0168 84.7125C96.8544 84.636 96.7222 84.5357 96.6203 84.4115C96.5183 84.2841 96.4419 84.1423 96.3909 83.9862C96.3431 83.8302 96.3192 83.6709 96.3192 83.5084V83.4224C96.3192 83.2568 96.3431 83.0959 96.3909 82.9399C96.4419 82.7838 96.5183 82.6436 96.6203 82.5194C96.7222 82.392 96.8512 82.2917 97.0073 82.2184C97.1665 82.1419 97.3529 82.1037 97.5663 82.1037C97.8434 82.1037 98.0712 82.1642 98.2495 82.2853C98.4311 82.4031 98.5649 82.556 98.6509 82.744C98.7401 82.9319 98.7847 83.1326 98.7847 83.346V83.5514H96.5199V83.2074H98.4502L98.3451 83.3938C98.3451 83.2122 98.3164 83.0561 98.2591 82.9255C98.2018 82.7917 98.1158 82.6882 98.0011 82.615C97.8864 82.5417 97.7415 82.5051 97.5663 82.5051C97.3847 82.5051 97.2334 82.5465 97.1124 82.6293C96.9945 82.7121 96.9053 82.8252 96.8448 82.9685C96.7875 83.1119 96.7588 83.2775 96.7588 83.4654C96.7588 83.647 96.7875 83.811 96.8448 83.9576C96.9053 84.1009 96.9977 84.2156 97.1219 84.3016C97.2462 84.3844 97.4038 84.4258 97.595 84.4258C97.7956 84.4258 97.9581 84.3812 98.0823 84.292C98.2097 84.2028 98.2862 84.0993 98.3116 83.9815H98.7417C98.7066 84.1566 98.6365 84.3079 98.5314 84.4354C98.4263 84.5628 98.2941 84.6599 98.1349 84.7268C97.9756 84.7937 97.7956 84.8272 97.595 84.8272ZM99.4359 85.6967V82.1897H99.799V83.2934L99.713 83.2839C99.729 83.0099 99.7863 82.787 99.885 82.615C99.987 82.4398 100.119 82.3108 100.282 82.2279C100.444 82.1451 100.621 82.1037 100.812 82.1037C100.997 82.1037 101.164 82.1388 101.314 82.2088C101.467 82.2789 101.597 82.3745 101.705 82.4955C101.814 82.6166 101.897 82.7567 101.954 82.916C102.011 83.0752 102.04 83.2441 102.04 83.4224V83.5084C102.04 83.6868 102.01 83.8556 101.949 84.0149C101.889 84.1742 101.803 84.3143 101.691 84.4354C101.583 84.5564 101.452 84.652 101.299 84.722C101.15 84.7921 100.984 84.8272 100.802 84.8272C100.621 84.8272 100.447 84.7873 100.282 84.7077C100.116 84.6281 99.979 84.4991 99.8707 84.3207C99.7624 84.1423 99.7003 83.9082 99.6844 83.6183L99.8946 84.0006V85.6967H99.4359ZM100.731 84.4258C100.903 84.4258 101.052 84.386 101.18 84.3064C101.307 84.2235 101.406 84.1105 101.476 83.9671C101.546 83.8206 101.581 83.6534 101.581 83.4654C101.581 83.2743 101.546 83.1071 101.476 82.9638C101.406 82.8204 101.307 82.7089 101.18 82.6293C101.052 82.5465 100.903 82.5051 100.731 82.5051C100.578 82.5051 100.436 82.5401 100.306 82.6102C100.175 82.6771 100.07 82.7758 99.9902 82.9064C99.9137 83.0338 99.8755 83.1883 99.8755 83.3699V83.5897C99.8755 83.7649 99.9153 83.9146 99.9949 84.0388C100.075 84.163 100.18 84.2586 100.31 84.3255C100.441 84.3924 100.581 84.4258 100.731 84.4258ZM103.724 84.7698C103.533 84.7698 103.367 84.7427 103.227 84.6886C103.09 84.6344 102.983 84.5421 102.907 84.4115C102.834 84.2777 102.797 84.0977 102.797 83.8716V81.4157H103.237V83.9289C103.237 84.0659 103.273 84.1726 103.346 84.249C103.423 84.3223 103.53 84.3589 103.667 84.3589H104.116V84.7698H103.724ZM102.357 82.5337V82.1897H104.116V82.5337H102.357ZM104.764 84.7411V81.2532H105.223V83.3364H105.108C105.108 83.0848 105.14 82.8682 105.204 82.6866C105.271 82.5019 105.373 82.3601 105.51 82.2614C105.647 82.1627 105.822 82.1133 106.035 82.1133H106.054C106.36 82.1133 106.591 82.2152 106.747 82.4191C106.903 82.6197 106.981 82.908 106.981 83.2839V84.7411H106.523V83.1883C106.523 82.9813 106.464 82.8204 106.346 82.7057C106.231 82.5911 106.082 82.5337 105.897 82.5337C105.693 82.5337 105.529 82.6022 105.405 82.7392C105.284 82.873 105.223 83.0498 105.223 83.2695V84.7411H104.764Z" fill="white"/>
<path d="M125.217 72.6144V72.1475H128.03V72.6144H125.217ZM125.217 73.7079V73.241H128.03V73.7079H125.217Z" fill="#0C134F"/>
<path d="M39.3019 63.787V35.4606C39.3019 32.4448 41.7467 30.0001 44.7625 30.0001H90.153C93.1687 30.0001 95.6135 32.4448 95.6135 35.4606V52.1834" stroke="#252525" stroke-width="0.341282" stroke-linecap="round" stroke-dasharray="1.71 1.71"/>
<path d="M39.3016 66.0061C40.1498 66.0061 40.8374 65.3185 40.8374 64.4703C40.8374 63.6221 40.1498 62.9345 39.3016 62.9345C38.4534 62.9345 37.7658 63.6221 37.7658 64.4703C37.7658 65.3185 38.4534 66.0061 39.3016 66.0061Z" fill="white" stroke="#252525" stroke-width="1.02385"/>
<path d="M95.2458 55.0235L93.6446 52.4476C93.4819 52.1859 93.5883 51.86 93.8263 51.7296C93.9647 51.6537 94.1311 51.6991 94.2796 51.7526L94.9198 51.9834C95.3686 52.1452 95.8599 52.1452 96.3087 51.9834L96.9489 51.7526C97.0974 51.6991 97.2638 51.6538 97.4022 51.7296C97.6365 51.8581 97.7439 52.1761 97.5901 52.4372L96.0732 55.0131C95.8859 55.3313 95.4406 55.3368 95.2458 55.0235Z" fill="#252525"/>
<mask id="path-18-inside-2_6353_5664" fill="white">
<path d="M186 46.3651C186 45.6112 186.611 45 187.365 45H239.24C239.994 45 240.605 45.6112 240.605 46.3651V91.4144C240.605 92.1683 239.994 92.7795 239.24 92.7795H187.365C186.611 92.7795 186 92.1683 186 91.4144V46.3651Z"/>
</mask>
<path d="M186 46.3651C186 45.6112 186.611 45 187.365 45H239.24C239.994 45 240.605 45.6112 240.605 46.3651V91.4144C240.605 92.1683 239.994 92.7795 239.24 92.7795H187.365C186.611 92.7795 186 92.1683 186 91.4144V46.3651Z" fill="white"/>
<path d="M186 45H240.605H186ZM242.653 91.4144C242.653 93.2992 241.125 94.8272 239.24 94.8272H187.365C185.48 94.8272 183.952 93.2992 183.952 91.4144L188.048 90.7318H238.557L242.653 91.4144ZM187.365 94.8272C185.48 94.8272 183.952 93.2992 183.952 91.4144V48.4128C183.952 46.528 185.48 45 187.365 45H188.048C188.048 45 188.048 45.6112 188.048 46.3651V90.7318L187.365 94.8272ZM239.24 45C241.125 45 242.653 46.528 242.653 48.4128V91.4144C242.653 93.2992 241.125 94.8272 239.24 94.8272L238.557 90.7318V46.3651C238.557 45.6112 238.557 45 238.557 45H239.24Z" fill="url(#paint1_linear_6353_5664)" fill-opacity="0.3" mask="url(#path-18-inside-2_6353_5664)"/>
<rect x="191.515" y="59.1456" width="44.3667" height="8.19077" rx="1.36513" fill="#1D267D"/>
<path d="M197.728 64.741V62.1895H198.187V64.741H197.728ZM197.336 62.5527V62.1895H198.187V62.5527H197.336ZM197.857 61.7786C197.755 61.7786 197.679 61.7516 197.628 61.6974C197.58 61.6433 197.556 61.5748 197.556 61.492C197.556 61.4091 197.58 61.3407 197.628 61.2865C197.679 61.2324 197.755 61.2053 197.857 61.2053C197.959 61.2053 198.034 61.2324 198.082 61.2865C198.133 61.3407 198.158 61.4091 198.158 61.492C198.158 61.5748 198.133 61.6433 198.082 61.6974C198.034 61.7516 197.959 61.7786 197.857 61.7786ZM200.067 64.7696C199.876 64.7696 199.711 64.7426 199.571 64.6884C199.434 64.6343 199.327 64.5419 199.25 64.4113C199.177 64.2775 199.141 64.0975 199.141 63.8714V61.4155H199.58V63.9287C199.58 64.0657 199.617 64.1724 199.69 64.2488C199.766 64.3221 199.873 64.3587 200.01 64.3587H200.459V64.7696H200.067ZM198.701 62.5336V62.1895H200.459V62.5336H198.701ZM202.174 64.827C201.951 64.827 201.758 64.7887 201.596 64.7123C201.433 64.6359 201.301 64.5355 201.199 64.4113C201.097 64.2839 201.021 64.1421 200.97 63.9861C200.922 63.83 200.898 63.6707 200.898 63.5083V63.4223C200.898 63.2566 200.922 63.0958 200.97 62.9397C201.021 62.7836 201.097 62.6434 201.199 62.5192C201.301 62.3918 201.43 62.2915 201.586 62.2182C201.745 62.1418 201.932 62.1035 202.145 62.1035C202.422 62.1035 202.65 62.1641 202.828 62.2851C203.01 62.403 203.144 62.5559 203.23 62.7438C203.319 62.9317 203.364 63.1324 203.364 63.3458V63.5513H201.099V63.2072H203.029L202.924 63.3936C202.924 63.212 202.895 63.0559 202.838 62.9253C202.781 62.7916 202.695 62.688 202.58 62.6148C202.465 62.5415 202.32 62.5049 202.145 62.5049C201.964 62.5049 201.812 62.5463 201.691 62.6291C201.573 62.7119 201.484 62.825 201.424 62.9683C201.366 63.1117 201.338 63.2773 201.338 63.4653C201.338 63.6468 201.366 63.8109 201.424 63.9574C201.484 64.1007 201.577 64.2154 201.701 64.3014C201.825 64.3842 201.983 64.4256 202.174 64.4256C202.375 64.4256 202.537 64.381 202.661 64.2918C202.789 64.2027 202.865 64.0991 202.891 63.9813H203.321C203.286 64.1565 203.216 64.3078 203.11 64.4352C203.005 64.5626 202.873 64.6597 202.714 64.7266C202.555 64.7935 202.375 64.827 202.174 64.827ZM204.015 64.741V62.1895H204.378V63.2837H204.321C204.321 63.0352 204.353 62.825 204.416 62.653C204.483 62.4778 204.582 62.344 204.712 62.2517C204.843 62.1593 205.009 62.1131 205.209 62.1131H205.228C205.429 62.1131 205.595 62.1593 205.725 62.2517C205.859 62.344 205.958 62.4778 206.022 62.653C206.085 62.825 206.117 63.0352 206.117 63.2837H205.983C205.983 63.0352 206.017 62.825 206.084 62.653C206.151 62.4778 206.249 62.344 206.38 62.2517C206.514 62.1593 206.681 62.1131 206.882 62.1131H206.901C207.101 62.1131 207.269 62.1593 207.402 62.2517C207.536 62.344 207.635 62.4778 207.699 62.653C207.766 62.825 207.799 63.0352 207.799 63.2837V64.741H207.34V63.1834C207.34 62.9763 207.289 62.817 207.187 62.7056C207.086 62.5909 206.944 62.5336 206.762 62.5336C206.574 62.5336 206.423 62.5941 206.308 62.7151C206.194 62.833 206.136 62.9986 206.136 63.212V64.741H205.678V63.1834C205.678 62.9763 205.627 62.817 205.525 62.7056C205.423 62.5909 205.281 62.5336 205.099 62.5336C204.912 62.5336 204.76 62.5941 204.646 62.7151C204.531 62.833 204.474 62.9986 204.474 63.212V64.741H204.015ZM208.515 63.6086V63.2168H210.292V63.6086H208.515ZM212.036 64.827C211.774 64.827 211.553 64.776 211.371 64.6741C211.19 64.5721 211.051 64.4368 210.956 64.2679C210.863 64.0991 210.817 63.916 210.817 63.7185H211.266C211.266 63.9351 211.335 64.1071 211.472 64.2345C211.612 64.3619 211.8 64.4256 212.036 64.4256C212.192 64.4256 212.327 64.397 212.442 64.3396C212.556 64.2823 212.646 64.2011 212.709 64.0959C212.773 63.9876 212.805 63.8618 212.805 63.7185C212.805 63.5019 212.735 63.3267 212.595 63.1929C212.458 63.0591 212.273 62.9922 212.04 62.9922C211.942 62.9922 211.856 63.005 211.782 63.0305C211.712 63.0528 211.65 63.0814 211.596 63.1165L211.367 62.7056L212.7 61.7309L212.652 61.6449H210.956V61.2531H213.082V61.8885L211.978 62.6912L211.644 62.7056C211.698 62.6864 211.757 62.6705 211.821 62.6578C211.887 62.645 211.965 62.6387 212.055 62.6387C212.309 62.6387 212.526 62.6864 212.704 62.782C212.883 62.8776 213.018 63.005 213.111 63.1642C213.206 63.3235 213.254 63.4971 213.254 63.685V63.7519C213.254 63.9367 213.206 64.1119 213.111 64.2775C213.018 64.44 212.881 64.5721 212.7 64.6741C212.521 64.776 212.3 64.827 212.036 64.827ZM215.317 65.6966V61.2531H215.728V65.6966H215.317ZM219.281 64.827C219.019 64.827 218.796 64.7824 218.612 64.6932C218.43 64.6008 218.282 64.4766 218.167 64.3205C218.056 64.1644 217.975 63.9845 217.924 63.7806C217.873 63.5736 217.847 63.3554 217.847 63.126V62.868C217.847 62.5463 217.897 62.2564 217.995 61.9984C218.097 61.7404 218.253 61.5366 218.464 61.3868C218.677 61.234 218.949 61.1575 219.281 61.1575C219.612 61.1575 219.883 61.234 220.093 61.3868C220.303 61.5366 220.458 61.7404 220.556 61.9984C220.658 62.2564 220.709 62.5463 220.709 62.868V63.126C220.709 63.3554 220.684 63.5736 220.633 63.7806C220.582 63.9845 220.499 64.1644 220.384 64.3205C220.273 64.4766 220.126 64.6008 219.945 64.6932C219.763 64.7824 219.542 64.827 219.281 64.827ZM219.281 64.4065C219.612 64.4065 219.854 64.295 220.007 64.0721C220.163 63.8459 220.241 63.4891 220.241 63.0018C220.241 62.4921 220.161 62.1274 220.002 61.9076C219.846 61.6879 219.606 61.578 219.281 61.578C218.953 61.578 218.709 61.6879 218.55 61.9076C218.394 62.1274 218.315 62.489 218.315 62.9922C218.315 63.4828 218.394 63.8411 218.55 64.0673C218.706 64.2934 218.949 64.4065 219.281 64.4065ZM221.188 64.741L222.1 63.3984L222.086 63.4939L221.231 62.1895H221.737L222.354 63.1499H222.421L223.003 62.1895H223.476L222.669 63.4605L222.683 63.3745L223.639 64.741H223.132L222.416 63.7042H222.349L221.661 64.741H221.188ZM225.505 64.827C225.244 64.827 225.021 64.7824 224.836 64.6932C224.655 64.6008 224.506 64.4766 224.392 64.3205C224.28 64.1644 224.199 63.9845 224.148 63.7806C224.097 63.5736 224.072 63.3554 224.072 63.126V62.868C224.072 62.5463 224.121 62.2564 224.22 61.9984C224.322 61.7404 224.478 61.5366 224.688 61.3868C224.901 61.234 225.174 61.1575 225.505 61.1575C225.836 61.1575 226.107 61.234 226.317 61.3868C226.527 61.5366 226.682 61.7404 226.781 61.9984C226.883 62.2564 226.934 62.5463 226.934 62.868V63.126C226.934 63.3554 226.908 63.5736 226.857 63.7806C226.806 63.9845 226.723 64.1644 226.609 64.3205C226.497 64.4766 226.351 64.6008 226.169 64.6932C225.988 64.7824 225.766 64.827 225.505 64.827ZM225.505 64.4065C225.836 64.4065 226.078 64.295 226.231 64.0721C226.387 63.8459 226.465 63.4891 226.465 63.0018C226.465 62.4921 226.386 62.1274 226.226 61.9076C226.07 61.6879 225.83 61.578 225.505 61.578C225.177 61.578 224.933 61.6879 224.774 61.9076C224.618 62.1274 224.54 62.489 224.54 62.9922C224.54 63.4828 224.618 63.8411 224.774 64.0673C224.93 64.2934 225.174 64.4065 225.505 64.4065ZM227.642 64.741V64.1676C227.642 64.0275 227.661 63.908 227.699 63.8093C227.74 63.7105 227.81 63.6213 227.909 63.5417C228.008 63.4589 228.142 63.3793 228.31 63.3028L228.965 63.0018C229.124 62.9285 229.25 62.8346 229.342 62.7199C229.435 62.602 229.481 62.4507 229.481 62.266C229.481 62.043 229.419 61.8694 229.295 61.7452C229.17 61.621 228.995 61.5589 228.769 61.5589C228.546 61.5589 228.371 61.621 228.244 61.7452C228.116 61.8694 228.052 62.043 228.052 62.266H227.603C227.603 62.0653 227.645 61.8806 227.728 61.7117C227.814 61.5429 227.943 61.4091 228.115 61.3104C228.287 61.2085 228.505 61.1575 228.769 61.1575C229.034 61.1575 229.25 61.2085 229.419 61.3104C229.591 61.4091 229.718 61.5397 229.801 61.7022C229.887 61.8646 229.93 62.0414 229.93 62.2325V62.2994C229.93 62.5511 229.857 62.7629 229.71 62.9349C229.567 63.1069 229.373 63.2487 229.127 63.3601L228.473 63.6612C228.326 63.728 228.228 63.7949 228.177 63.8618C228.126 63.9287 228.1 64.0179 228.1 64.1294V64.569L227.976 64.3492H229.973V64.741H227.642Z" fill="white"/>
<rect x="135.373" y="69.7604" width="44.0254" height="7.84949" rx="1.19449" fill="#1D267D"/>
<rect x="135.373" y="69.7604" width="44.0254" height="7.84949" rx="1.19449" stroke="#0C134F" stroke-width="0.341282"/>
<path d="M141.416 75.1852V72.6338H141.875V75.1852H141.416ZM141.024 72.9969V72.6338H141.875V72.9969H141.024ZM141.545 72.2229C141.443 72.2229 141.367 72.1958 141.316 72.1416C141.268 72.0875 141.244 72.019 141.244 71.9362C141.244 71.8534 141.268 71.7849 141.316 71.7307C141.367 71.6766 141.443 71.6495 141.545 71.6495C141.647 71.6495 141.722 71.6766 141.77 71.7307C141.82 71.7849 141.846 71.8534 141.846 71.9362C141.846 72.019 141.82 72.0875 141.77 72.1416C141.722 72.1958 141.647 72.2229 141.545 72.2229ZM143.755 75.2138C143.564 75.2138 143.399 75.1868 143.258 75.1326C143.121 75.0785 143.015 74.9861 142.938 74.8555C142.865 74.7217 142.828 74.5418 142.828 74.3156V71.8597H143.268V74.3729C143.268 74.5099 143.305 74.6166 143.378 74.6931C143.454 74.7663 143.561 74.8029 143.698 74.8029H144.147V75.2138H143.755ZM142.389 72.9778V72.6338H144.147V72.9778H142.389ZM145.862 75.2712C145.639 75.2712 145.446 75.233 145.284 75.1565C145.121 75.0801 144.989 74.9797 144.887 74.8555C144.785 74.7281 144.709 74.5863 144.658 74.4303C144.61 74.2742 144.586 74.1149 144.586 73.9525V73.8665C144.586 73.7008 144.61 73.54 144.658 73.3839C144.709 73.2278 144.785 73.0877 144.887 72.9634C144.989 72.836 145.118 72.7357 145.274 72.6624C145.433 72.586 145.62 72.5478 145.833 72.5478C146.11 72.5478 146.338 72.6083 146.516 72.7293C146.698 72.8472 146.832 73.0001 146.918 73.188C147.007 73.3759 147.051 73.5766 147.051 73.79V73.9955H144.787V73.6515H146.717L146.612 73.8378C146.612 73.6562 146.583 73.5002 146.526 73.3696C146.469 73.2358 146.383 73.1323 146.268 73.059C146.153 72.9857 146.008 72.9491 145.833 72.9491C145.652 72.9491 145.5 72.9905 145.379 73.0733C145.261 73.1561 145.172 73.2692 145.112 73.4126C145.054 73.5559 145.026 73.7215 145.026 73.9095C145.026 74.091 145.054 74.2551 145.112 74.4016C145.172 74.5449 145.265 74.6596 145.389 74.7456C145.513 74.8284 145.671 74.8698 145.862 74.8698C146.062 74.8698 146.225 74.8252 146.349 74.7361C146.477 74.6469 146.553 74.5433 146.578 74.4255H147.008C146.973 74.6007 146.903 74.752 146.798 74.8794C146.693 75.0068 146.561 75.104 146.402 75.1708C146.242 75.2377 146.062 75.2712 145.862 75.2712ZM147.703 75.1852V72.6338H148.066V73.7279H148.009C148.009 73.4795 148.04 73.2692 148.104 73.0972C148.171 72.922 148.27 72.7882 148.4 72.6959C148.531 72.6035 148.697 72.5573 148.897 72.5573H148.916C149.117 72.5573 149.283 72.6035 149.413 72.6959C149.547 72.7882 149.646 72.922 149.709 73.0972C149.773 73.2692 149.805 73.4795 149.805 73.7279H149.671C149.671 73.4795 149.705 73.2692 149.772 73.0972C149.838 72.922 149.937 72.7882 150.068 72.6959C150.202 72.6035 150.369 72.5573 150.57 72.5573H150.589C150.789 72.5573 150.957 72.6035 151.09 72.6959C151.224 72.7882 151.323 72.922 151.387 73.0972C151.453 73.2692 151.487 73.4795 151.487 73.7279V75.1852H151.028V73.6276C151.028 73.4205 150.977 73.2613 150.875 73.1498C150.773 73.0351 150.632 72.9778 150.45 72.9778C150.262 72.9778 150.111 73.0383 149.996 73.1593C149.881 73.2772 149.824 73.4428 149.824 73.6562V75.1852H149.365V73.6276C149.365 73.4205 149.315 73.2613 149.213 73.1498C149.111 73.0351 148.969 72.9778 148.787 72.9778C148.599 72.9778 148.448 73.0383 148.333 73.1593C148.219 73.2772 148.161 73.4428 148.161 73.6562V75.1852H147.703ZM152.202 74.0528V73.661H153.98V74.0528H152.202ZM155.723 75.2712C155.462 75.2712 155.241 75.2202 155.059 75.1183C154.878 75.0164 154.739 74.881 154.644 74.7122C154.551 74.5433 154.505 74.3602 154.505 74.1627H154.954C154.954 74.3793 155.023 74.5513 155.16 74.6787C155.3 74.8061 155.488 74.8698 155.723 74.8698C155.879 74.8698 156.015 74.8412 156.13 74.7838C156.244 74.7265 156.333 74.6453 156.397 74.5402C156.461 74.4319 156.493 74.306 156.493 74.1627C156.493 73.9461 156.423 73.7709 156.282 73.6371C156.145 73.5033 155.961 73.4365 155.728 73.4365C155.629 73.4365 155.543 73.4492 155.47 73.4747C155.4 73.497 155.338 73.5256 155.284 73.5607L155.054 73.1498L156.388 72.1751L156.34 72.0891H154.644V71.6973H156.77V72.3327L155.666 73.1354L155.332 73.1498C155.386 73.1307 155.445 73.1147 155.508 73.102C155.575 73.0893 155.653 73.0829 155.743 73.0829C155.997 73.0829 156.214 73.1307 156.392 73.2262C156.571 73.3218 156.706 73.4492 156.798 73.6085C156.894 73.7677 156.942 73.9413 156.942 74.1293V74.1961C156.942 74.3809 156.894 74.5561 156.798 74.7217C156.706 74.8842 156.569 75.0164 156.388 75.1183C156.209 75.2202 155.988 75.2712 155.723 75.2712ZM159.005 76.1408V71.6973H159.416V76.1408H159.005ZM162.968 75.2712C162.707 75.2712 162.484 75.2266 162.3 75.1374C162.118 75.045 161.97 74.9208 161.855 74.7647C161.744 74.6086 161.663 74.4287 161.612 74.2248C161.561 74.0178 161.535 73.7996 161.535 73.5702V73.3122C161.535 72.9905 161.584 72.7006 161.683 72.4426C161.785 72.1846 161.941 71.9808 162.151 71.8311C162.365 71.6782 162.637 71.6017 162.968 71.6017C163.3 71.6017 163.57 71.6782 163.781 71.8311C163.991 71.9808 164.145 72.1846 164.244 72.4426C164.346 72.7006 164.397 72.9905 164.397 73.3122V73.5702C164.397 73.7996 164.372 74.0178 164.321 74.2248C164.27 74.4287 164.187 74.6086 164.072 74.7647C163.961 74.9208 163.814 75.045 163.633 75.1374C163.451 75.2266 163.23 75.2712 162.968 75.2712ZM162.968 74.8507C163.3 74.8507 163.542 74.7392 163.695 74.5163C163.851 74.2901 163.929 73.9334 163.929 73.446C163.929 72.9364 163.849 72.5716 163.69 72.3519C163.534 72.1321 163.293 72.0222 162.968 72.0222C162.64 72.0222 162.397 72.1321 162.237 72.3519C162.081 72.5716 162.003 72.9332 162.003 73.4365C162.003 73.927 162.081 74.2853 162.237 74.5115C162.394 74.7376 162.637 74.8507 162.968 74.8507ZM164.876 75.1852L165.788 73.8426L165.774 73.9381L164.919 72.6338H165.425L166.041 73.5941H166.108L166.691 72.6338H167.164L166.357 73.9047L166.371 73.8187L167.327 75.1852H166.82L166.104 74.1484H166.037L165.349 75.1852H164.876ZM169.193 75.2712C168.932 75.2712 168.709 75.2266 168.524 75.1374C168.342 75.045 168.194 74.9208 168.08 74.7647C167.968 74.6086 167.887 74.4287 167.836 74.2248C167.785 74.0178 167.759 73.7996 167.759 73.5702V73.3122C167.759 72.9905 167.809 72.7006 167.908 72.4426C168.01 72.1846 168.166 71.9808 168.376 71.8311C168.589 71.6782 168.862 71.6017 169.193 71.6017C169.524 71.6017 169.795 71.6782 170.005 71.8311C170.215 71.9808 170.37 72.1846 170.469 72.4426C170.571 72.7006 170.621 72.9905 170.621 73.3122V73.5702C170.621 73.7996 170.596 74.0178 170.545 74.2248C170.494 74.4287 170.411 74.6086 170.297 74.7647C170.185 74.9208 170.039 75.045 169.857 75.1374C169.675 75.2266 169.454 75.2712 169.193 75.2712ZM169.193 74.8507C169.524 74.8507 169.766 74.7392 169.919 74.5163C170.075 74.2901 170.153 73.9334 170.153 73.446C170.153 72.9364 170.074 72.5716 169.914 72.3519C169.758 72.1321 169.518 72.0222 169.193 72.0222C168.865 72.0222 168.621 72.1321 168.462 72.3519C168.306 72.5716 168.228 72.9332 168.228 73.4365C168.228 73.927 168.306 74.2853 168.462 74.5115C168.618 74.7376 168.862 74.8507 169.193 74.8507ZM171.329 75.1852V74.6118C171.329 74.4717 171.349 74.3522 171.387 74.2535C171.428 74.1547 171.498 74.0655 171.597 73.9859C171.696 73.9031 171.829 73.8235 171.998 73.747L172.653 73.446C172.812 73.3727 172.938 73.2788 173.03 73.1641C173.123 73.0463 173.169 72.895 173.169 72.7102C173.169 72.4872 173.107 72.3136 172.983 72.1894C172.858 72.0652 172.683 72.0031 172.457 72.0031C172.234 72.0031 172.059 72.0652 171.931 72.1894C171.804 72.3136 171.74 72.4872 171.74 72.7102H171.291C171.291 72.5095 171.333 72.3248 171.415 72.156C171.501 71.9871 171.63 71.8534 171.802 71.7546C171.974 71.6527 172.193 71.6017 172.457 71.6017C172.721 71.6017 172.938 71.6527 173.107 71.7546C173.279 71.8534 173.406 71.984 173.489 72.1464C173.575 72.3089 173.618 72.4856 173.618 72.6768V72.7436C173.618 72.9953 173.545 73.2071 173.398 73.3791C173.255 73.5511 173.061 73.6929 172.815 73.8044L172.161 74.1054C172.014 74.1723 171.915 74.2391 171.865 74.306C171.814 74.3729 171.788 74.4621 171.788 74.5736V75.0132L171.664 74.7934H173.661V75.1852H171.329Z" fill="white"/>
<path d="M158.409 63.7869V35.4605C158.409 32.4448 160.854 30 163.87 30H209.26C212.276 30 214.721 32.4448 214.721 35.4605V49.5887" stroke="#252525" stroke-width="0.341282" stroke-linecap="round" stroke-dasharray="1.71 1.71"/>
<path d="M158.409 66.005C159.257 66.005 159.945 65.3174 159.945 64.4692C159.945 63.621 159.257 62.9334 158.409 62.9334C157.561 62.9334 156.873 63.621 156.873 64.4692C156.873 65.3174 157.561 66.005 158.409 66.005Z" fill="white" stroke="#252525" stroke-width="1.02385"/>
<path d="M214.353 52.0869L212.752 49.511C212.589 49.2493 212.696 48.9234 212.934 48.793C213.072 48.7171 213.238 48.7625 213.387 48.816L214.027 49.0468C214.476 49.2086 214.967 49.2086 215.416 49.0468L216.056 48.816C216.205 48.7625 216.371 48.7172 216.51 48.7931C216.744 48.9215 216.851 49.2395 216.697 49.5007L215.181 52.0765C214.993 52.3947 214.548 52.4003 214.353 52.0869Z" fill="#252525"/>
<rect x="192" y="79.1456" width="44.3667" height="8.19077" rx="1.36513" fill="#1D267D"/>
<path d="M206.549 84.741V82.1895H207.008V84.741H206.549ZM206.157 82.5527V82.1895H207.008V82.5527H206.157ZM206.678 81.7786C206.576 81.7786 206.5 81.7516 206.449 81.6974C206.401 81.6433 206.377 81.5748 206.377 81.492C206.377 81.4091 206.401 81.3407 206.449 81.2865C206.5 81.2324 206.576 81.2053 206.678 81.2053C206.78 81.2053 206.855 81.2324 206.903 81.2865C206.954 81.3407 206.979 81.4091 206.979 81.492C206.979 81.5748 206.954 81.6433 206.903 81.6974C206.855 81.7516 206.78 81.7786 206.678 81.7786ZM208.888 84.7696C208.697 84.7696 208.532 84.7426 208.392 84.6884C208.255 84.6343 208.148 84.5419 208.071 84.4113C207.998 84.2775 207.961 84.0975 207.961 83.8714V81.4155H208.401V83.9287C208.401 84.0657 208.438 84.1724 208.511 84.2488C208.587 84.3221 208.694 84.3587 208.831 84.3587H209.28V84.7696H208.888ZM207.522 82.5336V82.1895H209.28V82.5336H207.522ZM210.995 84.827C210.772 84.827 210.579 84.7887 210.417 84.7123C210.254 84.6359 210.122 84.5355 210.02 84.4113C209.918 84.2839 209.842 84.1421 209.791 83.9861C209.743 83.83 209.719 83.6707 209.719 83.5083V83.4223C209.719 83.2566 209.743 83.0958 209.791 82.9397C209.842 82.7836 209.918 82.6434 210.02 82.5192C210.122 82.3918 210.251 82.2915 210.407 82.2182C210.566 82.1418 210.753 82.1035 210.966 82.1035C211.243 82.1035 211.471 82.1641 211.649 82.2851C211.831 82.403 211.965 82.5559 212.051 82.7438C212.14 82.9317 212.185 83.1324 212.185 83.3458V83.5513H209.92V83.2072H211.85L211.745 83.3936C211.745 83.212 211.716 83.0559 211.659 82.9253C211.602 82.7916 211.516 82.688 211.401 82.6148C211.286 82.5415 211.141 82.5049 210.966 82.5049C210.785 82.5049 210.633 82.5463 210.512 82.6291C210.394 82.7119 210.305 82.825 210.245 82.9683C210.187 83.1117 210.159 83.2773 210.159 83.4653C210.159 83.6468 210.187 83.8109 210.245 83.9574C210.305 84.1007 210.398 84.2154 210.522 84.3014C210.646 84.3842 210.804 84.4256 210.995 84.4256C211.196 84.4256 211.358 84.381 211.482 84.2918C211.61 84.2027 211.686 84.0991 211.712 83.9813H212.142C212.107 84.1565 212.036 84.3078 211.931 84.4352C211.826 84.5626 211.694 84.6597 211.535 84.7266C211.376 84.7935 211.196 84.827 210.995 84.827ZM212.836 84.741V82.1895H213.199V83.2837H213.142C213.142 83.0352 213.173 82.825 213.237 82.653C213.304 82.4778 213.403 82.344 213.533 82.2517C213.664 82.1593 213.83 82.1131 214.03 82.1131H214.049C214.25 82.1131 214.416 82.1593 214.546 82.2517C214.68 82.344 214.779 82.4778 214.843 82.653C214.906 82.825 214.938 83.0352 214.938 83.2837H214.804C214.804 83.0352 214.838 82.825 214.905 82.653C214.972 82.4778 215.07 82.344 215.201 82.2517C215.335 82.1593 215.502 82.1131 215.703 82.1131H215.722C215.922 82.1131 216.09 82.1593 216.223 82.2517C216.357 82.344 216.456 82.4778 216.52 82.653C216.587 82.825 216.62 83.0352 216.62 83.2837V84.741H216.161V83.1834C216.161 82.9763 216.11 82.817 216.008 82.7056C215.906 82.5909 215.765 82.5336 215.583 82.5336C215.395 82.5336 215.244 82.5941 215.129 82.7151C215.015 82.833 214.957 82.9986 214.957 83.212V84.741H214.499V83.1834C214.499 82.9763 214.448 82.817 214.346 82.7056C214.244 82.5909 214.102 82.5336 213.92 82.5336C213.733 82.5336 213.581 82.5941 213.467 82.7151C213.352 82.833 213.295 82.9986 213.295 83.212V84.741H212.836ZM217.336 83.6086V83.2168H219.113V83.6086H217.336ZM219.791 84.741V84.1676C219.791 84.0275 219.81 83.908 219.848 83.8093C219.89 83.7105 219.96 83.6213 220.059 83.5417C220.157 83.4589 220.291 83.3793 220.46 83.3028L221.115 83.0018C221.274 82.9285 221.4 82.8346 221.492 82.7199C221.584 82.602 221.631 82.4507 221.631 82.266C221.631 82.043 221.568 81.8694 221.444 81.7452C221.32 81.621 221.145 81.5589 220.919 81.5589C220.696 81.5589 220.52 81.621 220.393 81.7452C220.266 81.8694 220.202 82.043 220.202 82.266H219.753C219.753 82.0653 219.794 81.8806 219.877 81.7117C219.963 81.5429 220.092 81.4091 220.264 81.3104C220.436 81.2085 220.654 81.1575 220.919 81.1575C221.183 81.1575 221.4 81.2085 221.568 81.3104C221.74 81.4091 221.868 81.5397 221.951 81.7022C222.037 81.8646 222.08 82.0414 222.08 82.2325V82.2994C222.08 82.5511 222.006 82.7629 221.86 82.9349C221.717 83.1069 221.522 83.2487 221.277 83.3601L220.622 83.6612C220.476 83.728 220.377 83.7949 220.326 83.8618C220.275 83.9287 220.25 84.0179 220.25 84.1294V84.569L220.125 84.3492H222.123V84.741H219.791Z" fill="white"/>
<rect x="192" y="69.5898" width="44.3667" height="8.19077" rx="1.36513" fill="#5C469C"/>
<path d="M207.023 75.1852V72.6338H207.481V75.1852H207.023ZM206.631 72.9969V72.6338H207.481V72.9969H206.631ZM207.152 72.2229C207.05 72.2229 206.973 72.1958 206.922 72.1416C206.875 72.0875 206.851 72.019 206.851 71.9362C206.851 71.8534 206.875 71.7849 206.922 71.7307C206.973 71.6766 207.05 71.6495 207.152 71.6495C207.254 71.6495 207.328 71.6766 207.376 71.7307C207.427 71.7849 207.453 71.8534 207.453 71.9362C207.453 72.019 207.427 72.0875 207.376 72.1416C207.328 72.1958 207.254 72.2229 207.152 72.2229ZM209.362 75.2138C209.171 75.2138 209.005 75.1868 208.865 75.1326C208.728 75.0785 208.621 74.9861 208.545 74.8555C208.472 74.7217 208.435 74.5418 208.435 74.3156V71.8597H208.875V74.3729C208.875 74.5099 208.911 74.6166 208.985 74.6931C209.061 74.7663 209.168 74.8029 209.305 74.8029H209.754V75.2138H209.362ZM207.996 72.9778V72.6338H209.754V72.9778H207.996ZM211.468 75.2712C211.246 75.2712 211.053 75.233 210.89 75.1565C210.728 75.0801 210.596 74.9797 210.494 74.8555C210.392 74.7281 210.315 74.5863 210.264 74.4303C210.217 74.2742 210.193 74.1149 210.193 73.9525V73.8665C210.193 73.7008 210.217 73.54 210.264 73.3839C210.315 73.2278 210.392 73.0877 210.494 72.9634C210.596 72.836 210.725 72.7357 210.881 72.6624C211.04 72.586 211.226 72.5478 211.44 72.5478C211.717 72.5478 211.945 72.6083 212.123 72.7293C212.305 72.8472 212.438 73.0001 212.524 73.188C212.614 73.3759 212.658 73.5766 212.658 73.79V73.9955H210.393V73.6515H212.324L212.219 73.8378C212.219 73.6562 212.19 73.5002 212.133 73.3696C212.075 73.2358 211.989 73.1323 211.875 73.059C211.76 72.9857 211.615 72.9491 211.44 72.9491C211.258 72.9491 211.107 72.9905 210.986 73.0733C210.868 73.1561 210.779 73.2692 210.718 73.4126C210.661 73.5559 210.632 73.7215 210.632 73.9095C210.632 74.091 210.661 74.2551 210.718 74.4016C210.779 74.5449 210.871 74.6596 210.995 74.7456C211.12 74.8284 211.277 74.8698 211.468 74.8698C211.669 74.8698 211.832 74.8252 211.956 74.7361C212.083 74.6469 212.16 74.5433 212.185 74.4255H212.615C212.58 74.6007 212.51 74.752 212.405 74.8794C212.3 75.0068 212.168 75.104 212.008 75.1708C211.849 75.2377 211.669 75.2712 211.468 75.2712ZM213.309 75.1852V72.6338H213.673V73.7279H213.615C213.615 73.4795 213.647 73.2692 213.711 73.0972C213.778 72.922 213.876 72.7882 214.007 72.6959C214.138 72.6035 214.303 72.5573 214.504 72.5573H214.523C214.724 72.5573 214.889 72.6035 215.02 72.6959C215.154 72.7882 215.252 72.922 215.316 73.0972C215.38 73.2692 215.412 73.4795 215.412 73.7279H215.278C215.278 73.4795 215.311 73.2692 215.378 73.0972C215.445 72.922 215.544 72.7882 215.675 72.6959C215.808 72.6035 215.976 72.5573 216.176 72.5573H216.195C216.396 72.5573 216.563 72.6035 216.697 72.6959C216.831 72.7882 216.93 72.922 216.993 73.0972C217.06 73.2692 217.094 73.4795 217.094 73.7279V75.1852H216.635V73.6276C216.635 73.4205 216.584 73.2613 216.482 73.1498C216.38 73.0351 216.238 72.9778 216.057 72.9778C215.869 72.9778 215.718 73.0383 215.603 73.1593C215.488 73.2772 215.431 73.4428 215.431 73.6562V75.1852H214.972V73.6276C214.972 73.4205 214.921 73.2613 214.819 73.1498C214.717 73.0351 214.576 72.9778 214.394 72.9778C214.206 72.9778 214.055 73.0383 213.94 73.1593C213.825 73.2772 213.768 73.4428 213.768 73.6562V75.1852H213.309ZM217.809 74.0528V73.661H219.587V74.0528H217.809ZM220.876 75.1852V71.9266L221.086 72.0891H220.102V71.6973H221.335V75.1852H220.876Z" fill="white"/>
<defs>
<linearGradient id="paint0_linear_6353_5664" x1="10.0628" y1="40.5821" x2="42.3579" y2="108.99" gradientUnits="userSpaceOnUse">
<stop stop-color="#662B64"/>
<stop offset="1" stop-color="#456F97"/>
</linearGradient>
<linearGradient id="paint1_linear_6353_5664" x1="184.063" y1="40.9067" x2="216.358" y2="109.315" gradientUnits="userSpaceOnUse">
<stop stop-color="#662B64"/>
<stop offset="1" stop-color="#456F97"/>
</linearGradient>
</defs>
</svg>
