<svg width="253" height="123" viewBox="0 0 253 123" fill="none" xmlns="http://www.w3.org/2000/svg">
<rect width="253" height="123" rx="10" fill="#F4F4F4"/>
<mask id="path-2-inside-1_2774_8114" fill="white">
<path d="M35 46.0405C35 45.2865 35.6112 44.6754 36.3651 44.6754H88.24C88.9939 44.6754 89.6051 45.2865 89.6051 46.0405V91.0897C89.6051 91.8437 88.9939 92.4548 88.24 92.4548H36.3651C35.6112 92.4548 35 91.8437 35 91.0897V46.0405Z"/>
</mask>
<path d="M35 46.0405C35 45.2865 35.6112 44.6754 36.3651 44.6754H88.24C88.9939 44.6754 89.6051 45.2865 89.6051 46.0405V91.0897C89.6051 91.8437 88.9939 92.4548 88.24 92.4548H36.3651C35.6112 92.4548 35 91.8437 35 91.0897V46.0405Z" fill="white"/>
<path d="M35 44.6754H89.6051H35ZM91.6528 91.0897C91.6528 92.9746 90.1248 94.5025 88.24 94.5025H36.3651C34.4803 94.5025 32.9523 92.9746 32.9523 91.0897L37.0477 90.4071H87.5574L91.6528 91.0897ZM36.3651 94.5025C34.4803 94.5025 32.9523 92.9746 32.9523 91.0897V48.0882C32.9523 46.2033 34.4803 44.6754 36.3651 44.6754H37.0477C37.0477 44.6754 37.0477 45.2865 37.0477 46.0405V90.4071L36.3651 94.5025ZM88.24 44.6754C90.1248 44.6754 91.6528 46.2033 91.6528 48.0882V91.0897C91.6528 92.9746 90.1248 94.5025 88.24 94.5025L87.5574 90.4071V46.0405C87.5574 45.2865 87.5574 44.6754 87.5574 44.6754H88.24Z" fill="url(#paint0_linear_2774_8114)" fill-opacity="0.3" mask="url(#path-2-inside-1_2774_8114)"/>
<mask id="path-4-inside-2_2774_8114" fill="white">
<path d="M164 46.0405C164 45.2865 164.611 44.6754 165.365 44.6754H217.24C217.994 44.6754 218.605 45.2865 218.605 46.0405V91.0897C218.605 91.8437 217.994 92.4548 217.24 92.4548H165.365C164.611 92.4548 164 91.8437 164 91.0897V46.0405Z"/>
</mask>
<path d="M164 46.0405C164 45.2865 164.611 44.6754 165.365 44.6754H217.24C217.994 44.6754 218.605 45.2865 218.605 46.0405V91.0897C218.605 91.8437 217.994 92.4548 217.24 92.4548H165.365C164.611 92.4548 164 91.8437 164 91.0897V46.0405Z" fill="white"/>
<path d="M164 44.6754H218.605H164ZM220.653 91.0897C220.653 92.9746 219.125 94.5025 217.24 94.5025H165.365C163.48 94.5025 161.952 92.9746 161.952 91.0897L166.048 90.4071H216.557L220.653 91.0897ZM165.365 94.5025C163.48 94.5025 161.952 92.9746 161.952 91.0897V48.0882C161.952 46.2033 163.48 44.6754 165.365 44.6754H166.048C166.048 44.6754 166.048 45.2865 166.048 46.0405V90.4071L165.365 94.5025ZM217.24 44.6754C219.125 44.6754 220.653 46.2033 220.653 48.0882V91.0897C220.653 92.9746 219.125 94.5025 217.24 94.5025L216.557 90.4071V46.0405C216.557 45.2865 216.557 44.6754 216.557 44.6754H217.24Z" fill="url(#paint1_linear_2774_8114)" fill-opacity="0.3" mask="url(#path-4-inside-2_2774_8114)"/>
<rect x="40.1191" y="79.1456" width="44.3667" height="8.19077" rx="1.36513" fill="#1D267D"/>
<path d="M55.0777 84.741V81.2531H55.5459V84.741H55.0777ZM57.4975 84.7696C57.3064 84.7696 57.1407 84.7426 57.0006 84.6884C56.8636 84.6343 56.7569 84.5419 56.6805 84.4113C56.6072 84.2775 56.5706 84.0975 56.5706 83.8714V81.4155H57.0101V83.9287C57.0101 84.0657 57.0468 84.1724 57.12 84.2488C57.1965 84.3221 57.3032 84.3587 57.4401 84.3587H57.8893V84.7696H57.4975ZM56.131 82.5336V82.1895H57.8893V82.5336H56.131ZM59.604 84.827C59.381 84.827 59.1883 84.7887 59.0258 84.7123C58.8634 84.6359 58.7312 84.5355 58.6293 84.4113C58.5273 84.2839 58.4509 84.1421 58.3999 83.9861C58.3521 83.83 58.3282 83.6707 58.3282 83.5083V83.4223C58.3282 83.2566 58.3521 83.0958 58.3999 82.9397C58.4509 82.7836 58.5273 82.6434 58.6293 82.5192C58.7312 82.3918 58.8602 82.2915 59.0163 82.2182C59.1755 82.1418 59.3619 82.1035 59.5753 82.1035C59.8524 82.1035 60.0802 82.1641 60.2585 82.2851C60.4401 82.403 60.5739 82.5559 60.6599 82.7438C60.7491 82.9317 60.7937 83.1324 60.7937 83.3458V83.5513H58.5289V83.2072H60.4592L60.3541 83.3936C60.3541 83.212 60.3254 83.0559 60.2681 82.9253C60.2108 82.7916 60.1248 82.688 60.0101 82.6148C59.8954 82.5415 59.7505 82.5049 59.5753 82.5049C59.3937 82.5049 59.2424 82.5463 59.1214 82.6291C59.0035 82.7119 58.9143 82.825 58.8538 82.9683C58.7965 83.1117 58.7678 83.2773 58.7678 83.4653C58.7678 83.6468 58.7965 83.8109 58.8538 83.9574C58.9143 84.1007 59.0067 84.2154 59.1309 84.3014C59.2552 84.3842 59.4128 84.4256 59.604 84.4256C59.8046 84.4256 59.9671 84.381 60.0913 84.2918C60.2187 84.2027 60.2952 84.0991 60.3206 83.9813H60.7507C60.7156 84.1565 60.6456 84.3078 60.5404 84.4352C60.4353 84.5626 60.3031 84.6597 60.1439 84.7266C59.9846 84.7935 59.8046 84.827 59.604 84.827ZM61.4449 84.741V82.1895H61.808V83.2837H61.7507C61.7507 83.0352 61.7826 82.825 61.8463 82.653C61.9132 82.4778 62.0119 82.344 62.1425 82.2517C62.2731 82.1593 62.4387 82.1131 62.6394 82.1131H62.6585C62.8592 82.1131 63.0248 82.1593 63.1554 82.2517C63.2892 82.344 63.388 82.4778 63.4517 82.653C63.5154 82.825 63.5472 83.0352 63.5472 83.2837H63.4134C63.4134 83.0352 63.4469 82.825 63.5138 82.653C63.5807 82.4778 63.6794 82.344 63.81 82.2517C63.9438 82.1593 64.111 82.1131 64.3117 82.1131H64.3308C64.5315 82.1131 64.6987 82.1593 64.8325 82.2517C64.9663 82.344 65.065 82.4778 65.1287 82.653C65.1956 82.825 65.2291 83.0352 65.2291 83.2837V84.741H64.7704V83.1834C64.7704 82.9763 64.7194 82.817 64.6175 82.7056C64.5156 82.5909 64.3738 82.5336 64.1922 82.5336C64.0043 82.5336 63.853 82.5941 63.7383 82.7151C63.6237 82.833 63.5663 82.9986 63.5663 83.212V84.741H63.1076V83.1834C63.1076 82.9763 63.0567 82.817 62.9548 82.7056C62.8528 82.5909 62.7111 82.5336 62.5295 82.5336C62.3416 82.5336 62.1903 82.5941 62.0756 82.7151C61.9609 82.833 61.9036 82.9986 61.9036 83.212V84.741H61.4449ZM65.9447 83.6086V83.2168H67.7221V83.6086H65.9447ZM69.0117 84.741V81.4824L69.2219 81.6449H68.2376V81.2531H69.4703V84.741H69.0117Z" fill="white"/>
<rect x="96.4302" y="59" width="44.3667" height="8.19077" rx="1.36513" fill="#1D267D"/>
<path d="M111.389 64.5954V61.1075H111.857V64.5954H111.389ZM113.809 64.6241C113.617 64.6241 113.452 64.597 113.312 64.5428C113.175 64.4887 113.068 64.3963 112.991 64.2657C112.918 64.1319 112.882 63.952 112.882 63.7258V61.2699H113.321V63.7831C113.321 63.9201 113.358 64.0268 113.431 64.1033C113.508 64.1765 113.614 64.2132 113.751 64.2132H114.2V64.6241H113.809ZM112.442 62.388V62.044H114.2V62.388H112.442ZM115.915 64.6814C115.692 64.6814 115.499 64.6432 115.337 64.5667C115.174 64.4903 115.042 64.3899 114.94 64.2657C114.838 64.1383 114.762 63.9966 114.711 63.8405C114.663 63.6844 114.639 63.5251 114.639 63.3627V63.2767C114.639 63.111 114.663 62.9502 114.711 62.7941C114.762 62.638 114.838 62.4979 114.94 62.3737C115.042 62.2462 115.171 62.1459 115.327 62.0726C115.487 61.9962 115.673 61.958 115.886 61.958C116.163 61.958 116.391 62.0185 116.57 62.1395C116.751 62.2574 116.885 62.4103 116.971 62.5982C117.06 62.7861 117.105 62.9868 117.105 63.2002V63.4057H114.84V63.0617H116.77L116.665 63.248C116.665 63.0665 116.636 62.9104 116.579 62.7798C116.522 62.646 116.436 62.5425 116.321 62.4692C116.206 62.3959 116.062 62.3593 115.886 62.3593C115.705 62.3593 115.553 62.4007 115.432 62.4835C115.315 62.5664 115.225 62.6794 115.165 62.8228C115.108 62.9661 115.079 63.1318 115.079 63.3197C115.079 63.5012 115.108 63.6653 115.165 63.8118C115.225 63.9552 115.318 64.0698 115.442 64.1558C115.566 64.2386 115.724 64.2801 115.915 64.2801C116.116 64.2801 116.278 64.2355 116.402 64.1463C116.53 64.0571 116.606 63.9536 116.632 63.8357H117.062C117.027 64.0109 116.957 64.1622 116.851 64.2896C116.746 64.417 116.614 64.5142 116.455 64.5811C116.296 64.648 116.116 64.6814 115.915 64.6814ZM117.756 64.5954V62.044H118.119V63.1381H118.062C118.062 62.8897 118.094 62.6794 118.157 62.5074C118.224 62.3322 118.323 62.1985 118.454 62.1061C118.584 62.0137 118.75 61.9675 118.95 61.9675H118.97C119.17 61.9675 119.336 62.0137 119.466 62.1061C119.6 62.1985 119.699 62.3322 119.763 62.5074C119.826 62.6794 119.858 62.8897 119.858 63.1381H119.724C119.724 62.8897 119.758 62.6794 119.825 62.5074C119.892 62.3322 119.99 62.1985 120.121 62.1061C120.255 62.0137 120.422 61.9675 120.623 61.9675H120.642C120.843 61.9675 121.01 62.0137 121.144 62.1061C121.277 62.1985 121.376 62.3322 121.44 62.5074C121.507 62.6794 121.54 62.8897 121.54 63.1381V64.5954H121.081V63.0378C121.081 62.8307 121.03 62.6715 120.929 62.56C120.827 62.4453 120.685 62.388 120.503 62.388C120.315 62.388 120.164 62.4485 120.049 62.5695C119.935 62.6874 119.877 62.853 119.877 63.0665V64.5954H119.419V63.0378C119.419 62.8307 119.368 62.6715 119.266 62.56C119.164 62.4453 119.022 62.388 118.841 62.388C118.653 62.388 118.501 62.4485 118.387 62.5695C118.272 62.6874 118.215 62.853 118.215 63.0665V64.5954H117.756ZM122.256 63.463V63.0712H124.033V63.463H122.256ZM125.323 64.5954V61.3368L125.533 61.4993H124.549V61.1075H125.781V64.5954H125.323Z" fill="white"/>
<rect x="96.4302" y="68.5559" width="44.3667" height="8.19077" rx="1.36513" fill="#0C134F"/>
<path d="M109.889 74.2373C109.666 74.2373 109.47 74.1991 109.301 74.1226C109.132 74.0462 108.989 73.9459 108.871 73.8216C108.756 73.6942 108.669 73.5525 108.608 73.3964C108.551 73.2403 108.522 73.081 108.522 72.9186V72.8326C108.522 72.6701 108.552 72.5109 108.613 72.3548C108.674 72.1955 108.763 72.0538 108.881 71.9296C108.998 71.8021 109.142 71.7018 109.311 71.6285C109.479 71.5521 109.672 71.5139 109.889 71.5139C110.105 71.5139 110.298 71.5521 110.467 71.6285C110.636 71.7018 110.779 71.8021 110.897 71.9296C111.015 72.0538 111.104 72.1955 111.164 72.3548C111.225 72.5109 111.255 72.6701 111.255 72.8326V72.9186C111.255 73.081 111.225 73.2403 111.164 73.3964C111.107 73.5525 111.019 73.6942 110.902 73.8216C110.787 73.9459 110.645 74.0462 110.476 74.1226C110.308 74.1991 110.112 74.2373 109.889 74.2373ZM109.889 73.8264C110.08 73.8264 110.242 73.785 110.376 73.7022C110.513 73.6162 110.617 73.5015 110.687 73.3582C110.76 73.2148 110.797 73.054 110.797 72.8756C110.797 72.694 110.76 72.5316 110.687 72.3882C110.613 72.2449 110.508 72.1318 110.371 72.049C110.237 71.9662 110.077 71.9248 109.889 71.9248C109.704 71.9248 109.543 71.9662 109.406 72.049C109.269 72.1318 109.164 72.2449 109.091 72.3882C109.018 72.5316 108.981 72.694 108.981 72.8756C108.981 73.054 109.016 73.2148 109.086 73.3582C109.159 73.5015 109.263 73.6162 109.397 73.7022C109.534 73.785 109.698 73.8264 109.889 73.8264ZM111.942 75.1069V71.5999H112.305V72.7036L112.219 72.694C112.235 72.4201 112.293 72.1971 112.391 72.0251C112.493 71.8499 112.625 71.7209 112.788 71.6381C112.95 71.5553 113.127 71.5139 113.318 71.5139C113.503 71.5139 113.67 71.5489 113.82 71.619C113.973 71.6891 114.103 71.7846 114.212 71.9057C114.32 72.0267 114.403 72.1669 114.46 72.3261C114.517 72.4854 114.546 72.6542 114.546 72.8326V72.9186C114.546 73.097 114.516 73.2658 114.455 73.4251C114.395 73.5843 114.309 73.7245 114.197 73.8455C114.089 73.9666 113.958 74.0621 113.806 74.1322C113.656 74.2023 113.49 74.2373 113.309 74.2373C113.127 74.2373 112.953 74.1975 112.788 74.1179C112.622 74.0382 112.485 73.9092 112.377 73.7308C112.269 73.5525 112.207 73.3184 112.191 73.0285L112.401 73.4107V75.1069H111.942ZM113.237 73.836C113.409 73.836 113.559 73.7961 113.686 73.7165C113.814 73.6337 113.912 73.5206 113.982 73.3773C114.052 73.2308 114.087 73.0635 114.087 72.8756C114.087 72.6845 114.052 72.5172 113.982 72.3739C113.912 72.2306 113.814 72.1191 113.686 72.0395C113.559 71.9566 113.409 71.9152 113.237 71.9152C113.084 71.9152 112.942 71.9503 112.812 72.0203C112.681 72.0872 112.576 72.186 112.496 72.3166C112.42 72.444 112.382 72.5985 112.382 72.78V72.9998C112.382 73.175 112.422 73.3247 112.501 73.4489C112.581 73.5732 112.686 73.6687 112.817 73.7356C112.947 73.8025 113.087 73.836 113.237 73.836ZM115.112 73.0189V72.6271H116.89V73.0189H115.112ZM118.709 74.2373C118.528 74.2373 118.361 74.2039 118.208 74.137C118.055 74.0701 117.921 73.9761 117.806 73.8551C117.695 73.734 117.607 73.5939 117.544 73.4346C117.483 73.2753 117.453 73.1033 117.453 72.9186V72.8326C117.453 72.651 117.483 72.4806 117.544 72.3214C117.604 72.1621 117.689 72.0219 117.797 71.9009C117.908 71.7799 118.039 71.6859 118.189 71.619C118.342 71.5489 118.51 71.5139 118.695 71.5139C118.889 71.5139 119.066 71.5553 119.225 71.6381C119.385 71.7177 119.515 71.8436 119.617 72.0156C119.719 72.1876 119.777 72.4105 119.789 72.6845L119.598 72.3787V70.6634H120.057V74.1513H119.694V73.0189H119.827C119.815 73.3088 119.754 73.5445 119.646 73.7261C119.538 73.9044 119.401 74.035 119.235 74.1179C119.073 74.1975 118.897 74.2373 118.709 74.2373ZM118.772 73.836C118.928 73.836 119.069 73.8009 119.197 73.7308C119.324 73.6608 119.426 73.5604 119.503 73.4298C119.579 73.2961 119.617 73.14 119.617 72.9616V72.7418C119.617 72.5666 119.577 72.4185 119.498 72.2975C119.421 72.1732 119.318 72.0793 119.187 72.0156C119.06 71.9487 118.92 71.9152 118.767 71.9152C118.598 71.9152 118.448 71.955 118.318 72.0347C118.19 72.1143 118.09 72.2258 118.017 72.3691C117.947 72.5125 117.912 72.6813 117.912 72.8756C117.912 73.0699 117.948 73.2403 118.021 73.3868C118.095 73.5302 118.197 73.6417 118.327 73.7213C118.458 73.7977 118.606 73.836 118.772 73.836ZM120.938 74.1513V71.5999H121.301V72.651H121.282C121.282 72.2784 121.363 72.006 121.526 71.834C121.691 71.6588 121.938 71.5712 122.266 71.5712H122.352V71.9821H122.19C121.935 71.9821 121.739 72.0506 121.602 72.1876C121.465 72.3214 121.397 72.5157 121.397 72.7705V74.1513H120.938ZM124.045 74.2373C123.822 74.2373 123.626 74.1991 123.458 74.1226C123.289 74.0462 123.145 73.9459 123.028 73.8216C122.913 73.6942 122.825 73.5525 122.765 73.3964C122.707 73.2403 122.679 73.081 122.679 72.9186V72.8326C122.679 72.6701 122.709 72.5109 122.77 72.3548C122.83 72.1955 122.919 72.0538 123.037 71.9296C123.155 71.8021 123.298 71.7018 123.467 71.6285C123.636 71.5521 123.829 71.5139 124.045 71.5139C124.262 71.5139 124.455 71.5521 124.623 71.6285C124.792 71.7018 124.936 71.8021 125.053 71.9296C125.171 72.0538 125.26 72.1955 125.321 72.3548C125.381 72.5109 125.412 72.6701 125.412 72.8326V72.9186C125.412 73.081 125.381 73.2403 125.321 73.3964C125.264 73.5525 125.176 73.6942 125.058 73.8216C124.943 73.9459 124.802 74.0462 124.633 74.1226C124.464 74.1991 124.268 74.2373 124.045 74.2373ZM124.045 73.8264C124.236 73.8264 124.399 73.785 124.533 73.7022C124.67 73.6162 124.773 73.5015 124.843 73.3582C124.916 73.2148 124.953 73.054 124.953 72.8756C124.953 72.694 124.916 72.5316 124.843 72.3882C124.77 72.2449 124.665 72.1318 124.528 72.049C124.394 71.9662 124.233 71.9248 124.045 71.9248C123.86 71.9248 123.7 71.9662 123.563 72.049C123.426 72.1318 123.321 72.2449 123.247 72.3882C123.174 72.5316 123.137 72.694 123.137 72.8756C123.137 73.054 123.172 73.2148 123.243 73.3582C123.316 73.5015 123.419 73.6162 123.553 73.7022C123.69 73.785 123.854 73.8264 124.045 73.8264ZM126.099 75.1069V71.5999H126.462V72.7036L126.376 72.694C126.392 72.4201 126.449 72.1971 126.548 72.0251C126.65 71.8499 126.782 71.7209 126.944 71.6381C127.107 71.5553 127.284 71.5139 127.475 71.5139C127.659 71.5139 127.827 71.5489 127.976 71.619C128.129 71.6891 128.26 71.7846 128.368 71.9057C128.477 72.0267 128.559 72.1669 128.617 72.3261C128.674 72.4854 128.703 72.6542 128.703 72.8326V72.9186C128.703 73.097 128.672 73.2658 128.612 73.4251C128.551 73.5843 128.465 73.7245 128.354 73.8455C128.246 73.9666 128.115 74.0621 127.962 74.1322C127.812 74.2023 127.647 74.2373 127.465 74.2373C127.284 74.2373 127.11 74.1975 126.944 74.1179C126.779 74.0382 126.642 73.9092 126.533 73.7308C126.425 73.5525 126.363 73.3184 126.347 73.0285L126.557 73.4107V75.1069H126.099ZM127.394 73.836C127.566 73.836 127.715 73.7961 127.843 73.7165C127.97 73.6337 128.069 73.5206 128.139 73.3773C128.209 73.2308 128.244 73.0635 128.244 72.8756C128.244 72.6845 128.209 72.5172 128.139 72.3739C128.069 72.2306 127.97 72.1191 127.843 72.0395C127.715 71.9566 127.566 71.9152 127.394 71.9152C127.241 71.9152 127.099 71.9503 126.968 72.0203C126.838 72.0872 126.733 72.186 126.653 72.3166C126.576 72.444 126.538 72.5985 126.538 72.78V72.9998C126.538 73.175 126.578 73.3247 126.658 73.4489C126.737 73.5732 126.842 73.6687 126.973 73.7356C127.104 73.8025 127.244 73.836 127.394 73.836Z" fill="white"/>
<path d="M148.217 72.6144V72.1475H151.03V72.6144H148.217ZM148.217 73.7079V73.241H151.03V73.7079H148.217Z" fill="#0C134F"/>
<path d="M62.302 73.787V35.4606C62.302 32.4448 64.7468 30.0001 67.7625 30.0001H113.153C116.169 30.0001 118.614 32.4448 118.614 35.4606V51.1834" stroke="#252525" stroke-width="0.341282" stroke-linecap="round" stroke-dasharray="1.71 1.71"/>
<path d="M62.3017 75.0061C63.1499 75.0061 63.8375 74.3185 63.8375 73.4703C63.8375 72.6221 63.1499 71.9345 62.3017 71.9345C61.4535 71.9345 60.766 72.6221 60.766 73.4703C60.766 74.3185 61.4535 75.0061 62.3017 75.0061Z" fill="white" stroke="#252525" stroke-width="1.02385"/>
<path d="M118.246 52.0235L116.645 49.4476C116.482 49.1859 116.588 48.86 116.826 48.7296C116.965 48.6537 117.131 48.6991 117.28 48.7526L117.92 48.9834C118.369 49.1452 118.86 49.1452 119.309 48.9834L119.949 48.7526C120.097 48.6991 120.264 48.6538 120.402 48.7296C120.637 48.8581 120.744 49.1761 120.59 49.4372L119.073 52.0131C118.886 52.3313 118.441 52.3368 118.246 52.0235Z" fill="#252525"/>
<defs>
<linearGradient id="paint0_linear_2774_8114" x1="33.0628" y1="40.5821" x2="65.3579" y2="108.99" gradientUnits="userSpaceOnUse">
<stop stop-color="#662B64"/>
<stop offset="1" stop-color="#456F97"/>
</linearGradient>
<linearGradient id="paint1_linear_2774_8114" x1="162.063" y1="40.5821" x2="194.358" y2="108.99" gradientUnits="userSpaceOnUse">
<stop stop-color="#662B64"/>
<stop offset="1" stop-color="#456F97"/>
</linearGradient>
</defs>
</svg>
