<svg width="253" height="123" viewBox="0 0 253 123" fill="none" xmlns="http://www.w3.org/2000/svg">
<rect width="253" height="123" rx="10" fill="#F4F4F4"/>
<mask id="path-2-inside-1_1778_7818" fill="white">
<path d="M11 46.0405C11 45.2865 11.6112 44.6754 12.3651 44.6754H64.24C64.9939 44.6754 65.6051 45.2865 65.6051 46.0405V91.0897C65.6051 91.8437 64.9939 92.4548 64.24 92.4548H12.3651C11.6112 92.4548 11 91.8437 11 91.0897V46.0405Z"/>
</mask>
<path d="M11 46.0405C11 45.2865 11.6112 44.6754 12.3651 44.6754H64.24C64.9939 44.6754 65.6051 45.2865 65.6051 46.0405V91.0897C65.6051 91.8437 64.9939 92.4548 64.24 92.4548H12.3651C11.6112 92.4548 11 91.8437 11 91.0897V46.0405Z" fill="white"/>
<path d="M11 44.6754H65.6051H11ZM67.6528 91.0897C67.6528 92.9746 66.1248 94.5025 64.24 94.5025H12.3651C10.4803 94.5025 8.95231 92.9746 8.95231 91.0897L13.0477 90.4071H63.5574L67.6528 91.0897ZM12.3651 94.5025C10.4803 94.5025 8.95231 92.9746 8.95231 91.0897V48.0882C8.95231 46.2033 10.4803 44.6754 12.3651 44.6754H13.0477C13.0477 44.6754 13.0477 45.2865 13.0477 46.0405V90.4071L12.3651 94.5025ZM64.24 44.6754C66.1248 44.6754 67.6528 46.2033 67.6528 48.0882V91.0897C67.6528 92.9746 66.1248 94.5025 64.24 94.5025L63.5574 90.4071V46.0405C63.5574 45.2865 63.5574 44.6754 63.5574 44.6754H64.24Z" fill="url(#paint0_linear_1778_7818)" fill-opacity="0.3" mask="url(#path-2-inside-1_1778_7818)"/>
<mask id="path-4-inside-2_1778_7818" fill="white">
<path d="M185.396 46.0405C185.396 45.2865 186.007 44.6754 186.761 44.6754H238.636C239.389 44.6754 240.001 45.2865 240.001 46.0405V91.0897C240.001 91.8437 239.389 92.4548 238.636 92.4548H186.761C186.007 92.4548 185.396 91.8437 185.396 91.0897V46.0405Z"/>
</mask>
<path d="M185.396 46.0405C185.396 45.2865 186.007 44.6754 186.761 44.6754H238.636C239.389 44.6754 240.001 45.2865 240.001 46.0405V91.0897C240.001 91.8437 239.389 92.4548 238.636 92.4548H186.761C186.007 92.4548 185.396 91.8437 185.396 91.0897V46.0405Z" fill="white"/>
<path d="M185.396 44.6754H240.001H185.396ZM242.048 91.0897C242.048 92.9746 240.52 94.5025 238.636 94.5025H186.761C184.876 94.5025 183.348 92.9746 183.348 91.0897L187.443 90.4071H237.953L242.048 91.0897ZM186.761 94.5025C184.876 94.5025 183.348 92.9746 183.348 91.0897V48.0882C183.348 46.2033 184.876 44.6754 186.761 44.6754H187.443C187.443 44.6754 187.443 45.2865 187.443 46.0405V90.4071L186.761 94.5025ZM238.636 44.6754C240.52 44.6754 242.048 46.2033 242.048 48.0882V91.0897C242.048 92.9746 240.52 94.5025 238.636 94.5025L237.953 90.4071V46.0405C237.953 45.2865 237.953 44.6754 237.953 44.6754H238.636Z" fill="url(#paint1_linear_1778_7818)" fill-opacity="0.3" mask="url(#path-4-inside-2_1778_7818)"/>
<rect x="16.1191" y="79.1456" width="44.3667" height="8.19077" rx="1.36513" fill="#1D267D"/>
<path d="M31.0777 84.741V81.2531H31.5459V84.741H31.0777ZM33.4975 84.7696C33.3064 84.7696 33.1407 84.7426 33.0006 84.6884C32.8636 84.6343 32.7569 84.5419 32.6805 84.4113C32.6072 84.2775 32.5706 84.0975 32.5706 83.8714V81.4155H33.0101V83.9287C33.0101 84.0657 33.0468 84.1724 33.12 84.2488C33.1965 84.3221 33.3032 84.3587 33.4401 84.3587H33.8893V84.7696H33.4975ZM32.131 82.5336V82.1895H33.8893V82.5336H32.131ZM35.604 84.827C35.381 84.827 35.1883 84.7887 35.0258 84.7123C34.8634 84.6359 34.7312 84.5355 34.6293 84.4113C34.5273 84.2839 34.4509 84.1421 34.3999 83.9861C34.3521 83.83 34.3282 83.6707 34.3282 83.5083V83.4223C34.3282 83.2566 34.3521 83.0958 34.3999 82.9397C34.4509 82.7836 34.5273 82.6434 34.6293 82.5192C34.7312 82.3918 34.8602 82.2915 35.0163 82.2182C35.1755 82.1418 35.3619 82.1035 35.5753 82.1035C35.8524 82.1035 36.0802 82.1641 36.2585 82.2851C36.4401 82.403 36.5739 82.5559 36.6599 82.7438C36.7491 82.9317 36.7937 83.1324 36.7937 83.3458V83.5513H34.5289V83.2072H36.4592L36.3541 83.3936C36.3541 83.212 36.3254 83.0559 36.2681 82.9253C36.2108 82.7916 36.1248 82.688 36.0101 82.6148C35.8954 82.5415 35.7505 82.5049 35.5753 82.5049C35.3937 82.5049 35.2424 82.5463 35.1214 82.6291C35.0035 82.7119 34.9143 82.825 34.8538 82.9683C34.7965 83.1117 34.7678 83.2773 34.7678 83.4653C34.7678 83.6468 34.7965 83.8109 34.8538 83.9574C34.9143 84.1007 35.0067 84.2154 35.1309 84.3014C35.2552 84.3842 35.4128 84.4256 35.604 84.4256C35.8046 84.4256 35.9671 84.381 36.0913 84.2918C36.2187 84.2027 36.2952 84.0991 36.3206 83.9813H36.7507C36.7156 84.1565 36.6456 84.3078 36.5404 84.4352C36.4353 84.5626 36.3031 84.6597 36.1439 84.7266C35.9846 84.7935 35.8046 84.827 35.604 84.827ZM37.4449 84.741V82.1895H37.808V83.2837H37.7507C37.7507 83.0352 37.7826 82.825 37.8463 82.653C37.9132 82.4778 38.0119 82.344 38.1425 82.2517C38.2731 82.1593 38.4387 82.1131 38.6394 82.1131H38.6585C38.8592 82.1131 39.0248 82.1593 39.1554 82.2517C39.2892 82.344 39.388 82.4778 39.4517 82.653C39.5154 82.825 39.5472 83.0352 39.5472 83.2837H39.4134C39.4134 83.0352 39.4469 82.825 39.5138 82.653C39.5807 82.4778 39.6794 82.344 39.81 82.2517C39.9438 82.1593 40.111 82.1131 40.3117 82.1131H40.3308C40.5315 82.1131 40.6987 82.1593 40.8325 82.2517C40.9663 82.344 41.065 82.4778 41.1287 82.653C41.1956 82.825 41.2291 83.0352 41.2291 83.2837V84.741H40.7704V83.1834C40.7704 82.9763 40.7194 82.817 40.6175 82.7056C40.5156 82.5909 40.3738 82.5336 40.1922 82.5336C40.0043 82.5336 39.853 82.5941 39.7383 82.7151C39.6237 82.833 39.5663 82.9986 39.5663 83.212V84.741H39.1076V83.1834C39.1076 82.9763 39.0567 82.817 38.9548 82.7056C38.8528 82.5909 38.7111 82.5336 38.5295 82.5336C38.3416 82.5336 38.1903 82.5941 38.0756 82.7151C37.9609 82.833 37.9036 82.9986 37.9036 83.212V84.741H37.4449ZM41.9447 83.6086V83.2168H43.7221V83.6086H41.9447ZM45.0117 84.741V81.4824L45.2219 81.6449H44.2376V81.2531H45.4703V84.741H45.0117Z" fill="white"/>
<rect x="190.515" y="79.1456" width="44.3667" height="8.19077" rx="1.36513" fill="#1D267D"/>
<path d="M205.473 84.741V81.2531H205.942V84.741H205.473ZM207.893 84.7696C207.702 84.7696 207.536 84.7426 207.396 84.6884C207.259 84.6343 207.153 84.5419 207.076 84.4113C207.003 84.2775 206.966 84.0975 206.966 83.8714V81.4155H207.406V83.9287C207.406 84.0657 207.443 84.1724 207.516 84.2488C207.592 84.3221 207.699 84.3587 207.836 84.3587H208.285V84.7696H207.893ZM206.527 82.5336V82.1895H208.285V82.5336H206.527ZM210 84.827C209.777 84.827 209.584 84.7887 209.422 84.7123C209.259 84.6359 209.127 84.5355 209.025 84.4113C208.923 84.2839 208.847 84.1421 208.796 83.9861C208.748 83.83 208.724 83.6707 208.724 83.5083V83.4223C208.724 83.2566 208.748 83.0958 208.796 82.9397C208.847 82.7836 208.923 82.6434 209.025 82.5192C209.127 82.3918 209.256 82.2915 209.412 82.2182C209.571 82.1418 209.758 82.1035 209.971 82.1035C210.248 82.1035 210.476 82.1641 210.654 82.2851C210.836 82.403 210.97 82.5559 211.056 82.7438C211.145 82.9317 211.189 83.1324 211.189 83.3458V83.5513H208.925V83.2072H210.855L210.75 83.3936C210.75 83.212 210.721 83.0559 210.664 82.9253C210.607 82.7916 210.521 82.688 210.406 82.6148C210.291 82.5415 210.146 82.5049 209.971 82.5049C209.789 82.5049 209.638 82.5463 209.517 82.6291C209.399 82.7119 209.31 82.825 209.25 82.9683C209.192 83.1117 209.164 83.2773 209.164 83.4653C209.164 83.6468 209.192 83.8109 209.25 83.9574C209.31 84.1007 209.402 84.2154 209.527 84.3014C209.651 84.3842 209.809 84.4256 210 84.4256C210.2 84.4256 210.363 84.381 210.487 84.2918C210.614 84.2027 210.691 84.0991 210.716 83.9813H211.146C211.111 84.1565 211.041 84.3078 210.936 84.4352C210.831 84.5626 210.699 84.6597 210.54 84.7266C210.38 84.7935 210.2 84.827 210 84.827ZM211.841 84.741V82.1895H212.204V83.2837H212.146C212.146 83.0352 212.178 82.825 212.242 82.653C212.309 82.4778 212.408 82.344 212.538 82.2517C212.669 82.1593 212.834 82.1131 213.035 82.1131H213.054C213.255 82.1131 213.421 82.1593 213.551 82.2517C213.685 82.344 213.784 82.4778 213.847 82.653C213.911 82.825 213.943 83.0352 213.943 83.2837H213.809C213.809 83.0352 213.843 82.825 213.91 82.653C213.976 82.4778 214.075 82.344 214.206 82.2517C214.34 82.1593 214.507 82.1131 214.707 82.1131H214.727C214.927 82.1131 215.094 82.1593 215.228 82.2517C215.362 82.344 215.461 82.4778 215.524 82.653C215.591 82.825 215.625 83.0352 215.625 83.2837V84.741H215.166V83.1834C215.166 82.9763 215.115 82.817 215.013 82.7056C214.911 82.5909 214.77 82.5336 214.588 82.5336C214.4 82.5336 214.249 82.5941 214.134 82.7151C214.019 82.833 213.962 82.9986 213.962 83.212V84.741H213.503V83.1834C213.503 82.9763 213.452 82.817 213.351 82.7056C213.249 82.5909 213.107 82.5336 212.925 82.5336C212.737 82.5336 212.586 82.5941 212.471 82.7151C212.357 82.833 212.299 82.9986 212.299 83.212V84.741H211.841ZM216.34 83.6086V83.2168H218.118V83.6086H216.34ZM219.407 84.741V81.4824L219.618 81.6449H218.633V81.2531H219.866V84.741H219.407Z" fill="white"/>
<rect x="190.515" y="69.1456" width="44.3667" height="8.19077" rx="1.36513" fill="#1D267D"/>
<path d="M205.473 74.741V71.2531H205.942V74.741H205.473ZM207.893 74.7696C207.702 74.7696 207.536 74.7426 207.396 74.6884C207.259 74.6343 207.153 74.5419 207.076 74.4113C207.003 74.2775 206.966 74.0975 206.966 73.8714V71.4155H207.406V73.9287C207.406 74.0657 207.443 74.1724 207.516 74.2488C207.592 74.3221 207.699 74.3587 207.836 74.3587H208.285V74.7696H207.893ZM206.527 72.5336V72.1895H208.285V72.5336H206.527ZM210 74.827C209.777 74.827 209.584 74.7887 209.422 74.7123C209.259 74.6359 209.127 74.5355 209.025 74.4113C208.923 74.2839 208.847 74.1421 208.796 73.9861C208.748 73.83 208.724 73.6707 208.724 73.5083V73.4223C208.724 73.2566 208.748 73.0958 208.796 72.9397C208.847 72.7836 208.923 72.6434 209.025 72.5192C209.127 72.3918 209.256 72.2915 209.412 72.2182C209.571 72.1418 209.758 72.1035 209.971 72.1035C210.248 72.1035 210.476 72.1641 210.654 72.2851C210.836 72.403 210.97 72.5559 211.056 72.7438C211.145 72.9317 211.189 73.1324 211.189 73.3458V73.5513H208.925V73.2072H210.855L210.75 73.3936C210.75 73.212 210.721 73.0559 210.664 72.9253C210.607 72.7916 210.521 72.688 210.406 72.6148C210.291 72.5415 210.146 72.5049 209.971 72.5049C209.789 72.5049 209.638 72.5463 209.517 72.6291C209.399 72.7119 209.31 72.825 209.25 72.9683C209.192 73.1117 209.164 73.2773 209.164 73.4653C209.164 73.6468 209.192 73.8109 209.25 73.9574C209.31 74.1007 209.402 74.2154 209.527 74.3014C209.651 74.3842 209.809 74.4256 210 74.4256C210.2 74.4256 210.363 74.381 210.487 74.2918C210.614 74.2027 210.691 74.0991 210.716 73.9813H211.146C211.111 74.1565 211.041 74.3078 210.936 74.4352C210.831 74.5626 210.699 74.6597 210.54 74.7266C210.38 74.7935 210.2 74.827 210 74.827ZM211.841 74.741V72.1895H212.204V73.2837H212.146C212.146 73.0352 212.178 72.825 212.242 72.653C212.309 72.4778 212.408 72.344 212.538 72.2517C212.669 72.1593 212.834 72.1131 213.035 72.1131H213.054C213.255 72.1131 213.421 72.1593 213.551 72.2517C213.685 72.344 213.784 72.4778 213.847 72.653C213.911 72.825 213.943 73.0352 213.943 73.2837H213.809C213.809 73.0352 213.843 72.825 213.91 72.653C213.976 72.4778 214.075 72.344 214.206 72.2517C214.34 72.1593 214.507 72.1131 214.707 72.1131H214.727C214.927 72.1131 215.094 72.1593 215.228 72.2517C215.362 72.344 215.461 72.4778 215.524 72.653C215.591 72.825 215.625 73.0352 215.625 73.2837V74.741H215.166V73.1834C215.166 72.9763 215.115 72.817 215.013 72.7056C214.911 72.5909 214.77 72.5336 214.588 72.5336C214.4 72.5336 214.249 72.5941 214.134 72.7151C214.019 72.833 213.962 72.9986 213.962 73.212V74.741H213.503V73.1834C213.503 72.9763 213.452 72.817 213.351 72.7056C213.249 72.5909 213.107 72.5336 212.925 72.5336C212.737 72.5336 212.586 72.5941 212.471 72.7151C212.357 72.833 212.299 72.9986 212.299 73.212V74.741H211.841ZM216.34 73.6086V73.2168H218.118V73.6086H216.34ZM219.407 74.741V71.4824L219.618 71.6449H218.633V71.2531H219.866V74.741H219.407Z" fill="white"/>
<path d="M87.3887 70.6294V67.1415H87.8569V70.6294H87.3887ZM89.8085 70.658C89.6174 70.658 89.4518 70.631 89.3116 70.5768C89.1746 70.5227 89.0679 70.4303 88.9915 70.2997C88.9182 70.1659 88.8816 69.9859 88.8816 69.7598V67.3039H89.3212V69.8171C89.3212 69.9541 89.3578 70.0608 89.4311 70.1372C89.5075 70.2105 89.6142 70.2471 89.7512 70.2471H90.2003V70.658H89.8085ZM88.442 68.422V68.0779H90.2003V68.422H88.442ZM91.915 70.7154C91.692 70.7154 91.4993 70.6771 91.3369 70.6007C91.1744 70.5242 91.0422 70.4239 90.9403 70.2997C90.8384 70.1723 90.7619 70.0305 90.7109 69.8744C90.6632 69.7184 90.6393 69.5591 90.6393 69.3967V69.3107C90.6393 69.145 90.6632 68.9842 90.7109 68.8281C90.7619 68.672 90.8384 68.5318 90.9403 68.4076C91.0422 68.2802 91.1712 68.1799 91.3273 68.1066C91.4866 68.0302 91.6729 67.9919 91.8863 67.9919C92.1634 67.9919 92.3912 68.0525 92.5696 68.1735C92.7511 68.2914 92.8849 68.4442 92.9709 68.6322C93.0601 68.8201 93.1047 69.0208 93.1047 69.2342V69.4397H90.84V69.0956H92.7702L92.6651 69.282C92.6651 69.1004 92.6365 68.9443 92.5791 68.8137C92.5218 68.68 92.4358 68.5764 92.3211 68.5032C92.2064 68.4299 92.0615 68.3933 91.8863 68.3933C91.7048 68.3933 91.5535 68.4347 91.4324 68.5175C91.3146 68.6003 91.2254 68.7134 91.1649 68.8567C91.1075 69.0001 91.0789 69.1657 91.0789 69.3537C91.0789 69.5352 91.1075 69.6993 91.1649 69.8458C91.2254 69.9891 91.3177 70.1038 91.442 70.1898C91.5662 70.2726 91.7239 70.314 91.915 70.314C92.1157 70.314 92.2781 70.2694 92.4023 70.1802C92.5298 70.091 92.6062 69.9875 92.6317 69.8697H93.0617C93.0267 70.0449 92.9566 70.1962 92.8515 70.3236C92.7464 70.451 92.6142 70.5481 92.4549 70.615C92.2956 70.6819 92.1157 70.7154 91.915 70.7154ZM93.756 70.6294V68.0779H94.1191V69.1721H94.0617C94.0617 68.9236 94.0936 68.7134 94.1573 68.5414C94.2242 68.3662 94.3229 68.2324 94.4535 68.1401C94.5841 68.0477 94.7498 68.0015 94.9504 68.0015H94.9696C95.1702 68.0015 95.3359 68.0477 95.4665 68.1401C95.6002 68.2324 95.699 68.3662 95.7627 68.5414C95.8264 68.7134 95.8583 68.9236 95.8583 69.1721H95.7245C95.7245 68.9236 95.7579 68.7134 95.8248 68.5414C95.8917 68.3662 95.9904 68.2324 96.121 68.1401C96.2548 68.0477 96.4221 68.0015 96.6227 68.0015H96.6418C96.8425 68.0015 97.0097 68.0477 97.1435 68.1401C97.2773 68.2324 97.3761 68.3662 97.4398 68.5414C97.5066 68.7134 97.5401 68.9236 97.5401 69.1721V70.6294H97.0814V69.0718C97.0814 68.8647 97.0304 68.7054 96.9285 68.594C96.8266 68.4793 96.6848 68.422 96.5033 68.422C96.3153 68.422 96.164 68.4825 96.0494 68.6035C95.9347 68.7214 95.8774 68.887 95.8774 69.1004V70.6294H95.4187V69.0718C95.4187 68.8647 95.3677 68.7054 95.2658 68.594C95.1639 68.4793 95.0221 68.422 94.8406 68.422C94.6526 68.422 94.5013 68.4825 94.3866 68.6035C94.272 68.7214 94.2146 68.887 94.2146 69.1004V70.6294H93.756ZM98.2557 69.497V69.1052H100.033V69.497H98.2557ZM101.323 70.6294V67.3708L101.533 67.5333H100.549V67.1415H101.781V70.6294H101.323Z" fill="#1D267D"/>
<rect x="72.4302" y="65.034" width="44.3667" height="8.19077" rx="1.36513" stroke="#1D267D" stroke-width="0.75" stroke-dasharray="2.5 2.5"/>
<rect x="72.4302" y="74.5899" width="44.3667" height="8.19077" rx="1.36513" fill="#0C134F"/>
<path d="M86.9689 80.2713C86.7459 80.2713 86.55 80.2331 86.3812 80.1566C86.2124 80.0802 86.069 79.9798 85.9512 79.8556C85.8365 79.7282 85.7489 79.5864 85.6884 79.4304C85.631 79.2743 85.6024 79.115 85.6024 78.9526V78.8666C85.6024 78.7041 85.6326 78.5448 85.6932 78.3888C85.7537 78.2295 85.8429 78.0878 85.9607 77.9635C86.0786 77.8361 86.2219 77.7358 86.3907 77.6625C86.5596 77.5861 86.7523 77.5478 86.9689 77.5478C87.1855 77.5478 87.3782 77.5861 87.547 77.6625C87.7158 77.7358 87.8592 77.8361 87.977 77.9635C88.0949 78.0878 88.1841 78.2295 88.2446 78.3888C88.3051 78.5448 88.3354 78.7041 88.3354 78.8666V78.9526C88.3354 79.115 88.3051 79.2743 88.2446 79.4304C88.1872 79.5864 88.0996 79.7282 87.9818 79.8556C87.8671 79.9798 87.7254 80.0802 87.5566 80.1566C87.3877 80.2331 87.1918 80.2713 86.9689 80.2713ZM86.9689 79.8604C87.16 79.8604 87.3224 79.819 87.4562 79.7361C87.5932 79.6501 87.6967 79.5355 87.7668 79.3921C87.84 79.2488 87.8767 79.0879 87.8767 78.9096C87.8767 78.728 87.84 78.5655 87.7668 78.4222C87.6935 78.2789 87.5884 78.1658 87.4514 78.083C87.3177 78.0002 87.1568 77.9587 86.9689 77.9587C86.7841 77.9587 86.6233 78.0002 86.4863 78.083C86.3493 78.1658 86.2442 78.2789 86.1709 78.4222C86.0977 78.5655 86.0611 78.728 86.0611 78.9096C86.0611 79.0879 86.0961 79.2488 86.1662 79.3921C86.2394 79.5355 86.343 79.6501 86.4767 79.7361C86.6137 79.819 86.7777 79.8604 86.9689 79.8604ZM89.0223 81.1409V77.6338H89.3855V78.7376L89.2995 78.728C89.3154 78.4541 89.3727 78.2311 89.4715 78.0591C89.5734 77.8839 89.7056 77.7549 89.868 77.6721C90.0305 77.5893 90.2073 77.5478 90.3984 77.5478C90.5831 77.5478 90.7504 77.5829 90.9001 77.653C91.053 77.723 91.1836 77.8186 91.2919 77.9396C91.4002 78.0607 91.483 78.2008 91.5403 78.3601C91.5977 78.5194 91.6263 78.6882 91.6263 78.8666V78.9526C91.6263 79.1309 91.5961 79.2998 91.5355 79.459C91.475 79.6183 91.389 79.7584 91.2775 79.8795C91.1692 80.0005 91.0386 80.0961 90.8857 80.1662C90.736 80.2362 90.5704 80.2713 90.3888 80.2713C90.2073 80.2713 90.0337 80.2315 89.868 80.1518C89.7024 80.0722 89.5654 79.9432 89.4571 79.7648C89.3488 79.5864 89.2867 79.3523 89.2708 79.0625L89.481 79.4447V81.1409H89.0223ZM90.3172 79.8699C90.4892 79.8699 90.6389 79.8301 90.7663 79.7505C90.8937 79.6677 90.9924 79.5546 91.0625 79.4112C91.1326 79.2647 91.1676 79.0975 91.1676 78.9096C91.1676 78.7184 91.1326 78.5512 91.0625 78.4079C90.9924 78.2645 90.8937 78.1531 90.7663 78.0734C90.6389 77.9906 90.4892 77.9492 90.3172 77.9492C90.1643 77.9492 90.0225 77.9842 89.8919 78.0543C89.7613 78.1212 89.6562 78.2199 89.5766 78.3505C89.5001 78.478 89.4619 78.6324 89.4619 78.814V79.0338C89.4619 79.209 89.5017 79.3587 89.5814 79.4829C89.661 79.6071 89.7661 79.7027 89.8967 79.7696C90.0273 79.8365 90.1675 79.8699 90.3172 79.8699ZM92.1923 79.0529V78.6611H93.9697V79.0529H92.1923ZM95.7896 80.2713C95.6081 80.2713 95.4408 80.2378 95.2879 80.1709C95.1351 80.104 95.0013 80.0101 94.8866 79.889C94.7751 79.768 94.6875 79.6278 94.6238 79.4686C94.5633 79.3093 94.533 79.1373 94.533 78.9526V78.8666C94.533 78.685 94.5633 78.5146 94.6238 78.3553C94.6843 78.1961 94.7687 78.0559 94.877 77.9349C94.9885 77.8138 95.1191 77.7199 95.2688 77.653C95.4217 77.5829 95.5905 77.5478 95.7753 77.5478C95.9696 77.5478 96.1464 77.5893 96.3056 77.6721C96.4649 77.7517 96.5955 77.8775 96.6974 78.0495C96.7994 78.2215 96.8567 78.4445 96.8694 78.7184L96.6783 78.4127V76.6974H97.137V80.1853H96.7739V79.0529H96.9077C96.8949 79.3428 96.8344 79.5785 96.7261 79.76C96.6178 79.9384 96.4808 80.069 96.3152 80.1518C96.1528 80.2315 95.9776 80.2713 95.7896 80.2713ZM95.8517 79.8699C96.0078 79.8699 96.1496 79.8349 96.277 79.7648C96.4044 79.6947 96.5063 79.5944 96.5828 79.4638C96.6592 79.33 96.6974 79.1739 96.6974 78.9956V78.7758C96.6974 78.6006 96.6576 78.4525 96.578 78.3314C96.5015 78.2072 96.398 78.1132 96.2674 78.0495C96.14 77.9826 95.9999 77.9492 95.847 77.9492C95.6781 77.9492 95.5284 77.989 95.3978 78.0686C95.2704 78.1483 95.1701 78.2598 95.0968 78.4031C95.0268 78.5464 94.9917 78.7153 94.9917 78.9096C94.9917 79.1039 95.0283 79.2743 95.1016 79.4208C95.1749 79.5641 95.2768 79.6756 95.4074 79.7553C95.538 79.8317 95.6861 79.8699 95.8517 79.8699ZM98.9022 80.2617C98.5996 80.2617 98.3671 80.163 98.2047 79.9655C98.0422 79.768 97.961 79.4829 97.961 79.1102V77.6291H98.4197V79.201C98.4197 79.4017 98.4738 79.5594 98.5821 79.674C98.6904 79.7855 98.8369 79.8413 99.0217 79.8413C99.2128 79.8413 99.3689 79.7807 99.4899 79.6597C99.611 79.5355 99.6715 79.3667 99.6715 79.1532V77.6291H100.13V80.1853H99.767V79.0911H99.8244C99.8244 79.3428 99.7909 79.5562 99.724 79.7314C99.6572 79.9034 99.5568 80.0356 99.423 80.1279C99.2924 80.2171 99.1252 80.2617 98.9214 80.2617H98.9022ZM101.019 81.1409V77.6338H101.382V78.7376L101.296 78.728C101.312 78.4541 101.369 78.2311 101.468 78.0591C101.57 77.8839 101.702 77.7549 101.864 77.6721C102.027 77.5893 102.203 77.5478 102.395 77.5478C102.579 77.5478 102.747 77.5829 102.896 77.653C103.049 77.723 103.18 77.8186 103.288 77.9396C103.396 78.0607 103.479 78.2008 103.537 78.3601C103.594 78.5194 103.623 78.6882 103.623 78.8666V78.9526C103.623 79.1309 103.592 79.2998 103.532 79.459C103.471 79.6183 103.385 79.7584 103.274 79.8795C103.165 80.0005 103.035 80.0961 102.882 80.1662C102.732 80.2362 102.567 80.2713 102.385 80.2713C102.203 80.2713 102.03 80.2315 101.864 80.1518C101.699 80.0722 101.562 79.9432 101.453 79.7648C101.345 79.5864 101.283 79.3523 101.267 79.0625L101.477 79.4447V81.1409H101.019ZM102.313 79.8699C102.485 79.8699 102.635 79.8301 102.762 79.7505C102.89 79.6677 102.989 79.5546 103.059 79.4112C103.129 79.2647 103.164 79.0975 103.164 78.9096C103.164 78.7184 103.129 78.5512 103.059 78.4079C102.989 78.2645 102.89 78.1531 102.762 78.0734C102.635 77.9906 102.485 77.9492 102.313 77.9492C102.16 77.9492 102.019 77.9842 101.888 78.0543C101.758 78.1212 101.652 78.2199 101.573 78.3505C101.496 78.478 101.458 78.6324 101.458 78.814V79.0338C101.458 79.209 101.498 79.3587 101.578 79.4829C101.657 79.6071 101.762 79.7027 101.893 79.7696C102.023 79.8365 102.164 79.8699 102.313 79.8699Z" fill="white"/>
<path d="M124.217 72.6144V72.1475H127.03V72.6144H124.217ZM124.217 73.7079V73.241H127.03V73.7079H124.217Z" fill="#0C134F"/>
<rect x="134.373" y="69.7604" width="44.0254" height="7.84949" rx="1.19449" fill="#1D267D"/>
<path d="M149.161 75.1852V71.6973H149.629V75.1852H149.161ZM151.581 75.2138C151.39 75.2138 151.224 75.1868 151.084 75.1326C150.947 75.0785 150.84 74.9861 150.764 74.8555C150.691 74.7217 150.654 74.5418 150.654 74.3156V71.8597H151.094V74.3729C151.094 74.5099 151.13 74.6166 151.204 74.6931C151.28 74.7663 151.387 74.8029 151.524 74.8029H151.973V75.2138H151.581ZM150.214 72.9778V72.6338H151.973V72.9778H150.214ZM153.687 75.2712C153.464 75.2712 153.272 75.233 153.109 75.1565C152.947 75.0801 152.815 74.9797 152.713 74.8555C152.611 74.7281 152.534 74.5863 152.483 74.4303C152.436 74.2742 152.412 74.1149 152.412 73.9525V73.8665C152.412 73.7008 152.436 73.54 152.483 73.3839C152.534 73.2278 152.611 73.0877 152.713 72.9634C152.815 72.836 152.944 72.7357 153.1 72.6624C153.259 72.586 153.445 72.5478 153.659 72.5478C153.936 72.5478 154.164 72.6083 154.342 72.7293C154.524 72.8472 154.657 73.0001 154.743 73.188C154.833 73.3759 154.877 73.5766 154.877 73.79V73.9955H152.612V73.6515H154.543L154.438 73.8378C154.438 73.6562 154.409 73.5002 154.352 73.3696C154.294 73.2358 154.208 73.1323 154.094 73.059C153.979 72.9857 153.834 72.9491 153.659 72.9491C153.477 72.9491 153.326 72.9905 153.205 73.0733C153.087 73.1561 152.998 73.2692 152.937 73.4126C152.88 73.5559 152.851 73.7215 152.851 73.9095C152.851 74.091 152.88 74.2551 152.937 74.4016C152.998 74.5449 153.09 74.6596 153.214 74.7456C153.339 74.8284 153.496 74.8698 153.687 74.8698C153.888 74.8698 154.051 74.8252 154.175 74.7361C154.302 74.6469 154.379 74.5433 154.404 74.4255H154.834C154.799 74.6007 154.729 74.752 154.624 74.8794C154.519 75.0068 154.387 75.104 154.227 75.1708C154.068 75.2377 153.888 75.2712 153.687 75.2712ZM155.528 75.1852V72.6338H155.892V73.7279H155.834C155.834 73.4795 155.866 73.2692 155.93 73.0972C155.997 72.922 156.095 72.7882 156.226 72.6959C156.357 72.6035 156.522 72.5573 156.723 72.5573H156.742C156.943 72.5573 157.108 72.6035 157.239 72.6959C157.373 72.7882 157.471 72.922 157.535 73.0972C157.599 73.2692 157.631 73.4795 157.631 73.7279H157.497C157.497 73.4795 157.53 73.2692 157.597 73.0972C157.664 72.922 157.763 72.7882 157.894 72.6959C158.027 72.6035 158.195 72.5573 158.395 72.5573H158.414C158.615 72.5573 158.782 72.6035 158.916 72.6959C159.05 72.7882 159.149 72.922 159.212 73.0972C159.279 73.2692 159.313 73.4795 159.313 73.7279V75.1852H158.854V73.6276C158.854 73.4205 158.803 73.2613 158.701 73.1498C158.599 73.0351 158.457 72.9778 158.276 72.9778C158.088 72.9778 157.937 73.0383 157.822 73.1593C157.707 73.2772 157.65 73.4428 157.65 73.6562V75.1852H157.191V73.6276C157.191 73.4205 157.14 73.2613 157.038 73.1498C156.936 73.0351 156.795 72.9778 156.613 72.9778C156.425 72.9778 156.274 73.0383 156.159 73.1593C156.044 73.2772 155.987 73.4428 155.987 73.6562V75.1852H155.528ZM160.028 74.0528V73.661H161.806V74.0528H160.028ZM163.095 75.1852V71.9266L163.305 72.0891H162.321V71.6973H163.554V75.1852H163.095Z" fill="white"/>
<rect x="134.373" y="69.7604" width="44.0254" height="7.84949" rx="1.19449" stroke="#0C134F" stroke-width="0.341282"/>
<path d="M38.302 73.787V35.4606C38.302 32.4448 40.7468 30.0001 43.7625 30.0001H89.153C92.1688 30.0001 94.6135 32.4448 94.6135 35.4606V61.1834" stroke="#252525" stroke-width="0.341282" stroke-linecap="round" stroke-dasharray="1.71 1.71"/>
<path d="M38.3018 75.0061C39.15 75.0061 39.8376 74.3185 39.8376 73.4703C39.8376 72.6221 39.15 71.9345 38.3018 71.9345C37.4537 71.9345 36.7661 72.6221 36.7661 73.4703C36.7661 74.3185 37.4537 75.0061 38.3018 75.0061Z" fill="white" stroke="#252525" stroke-width="1.02385"/>
<path d="M94.2459 62.0235L92.6448 59.4476C92.4821 59.1859 92.5884 58.86 92.8264 58.7296C92.9648 58.6537 93.1312 58.6991 93.2797 58.7526L93.9199 58.9834C94.3687 59.1452 94.86 59.1452 95.3088 58.9834L95.949 58.7526C96.0975 58.6991 96.2639 58.6538 96.4023 58.7296C96.6366 58.8581 96.744 59.1761 96.5902 59.4372L95.0733 62.0131C94.886 62.3313 94.4407 62.3368 94.2459 62.0235Z" fill="#252525"/>
<path d="M157.409 63.7869V35.4605C157.409 32.4448 159.854 30 162.87 30H208.26C211.276 30 213.721 32.4448 213.721 35.4605V59.5887" stroke="#252525" stroke-width="0.341282" stroke-linecap="round" stroke-dasharray="1.71 1.71"/>
<path d="M157.409 66.0049C158.257 66.0049 158.945 65.3173 158.945 64.4691C158.945 63.621 158.257 62.9334 157.409 62.9334C156.561 62.9334 155.873 63.621 155.873 64.4691C155.873 65.3173 156.561 66.0049 157.409 66.0049Z" fill="white" stroke="#252525" stroke-width="1.02385"/>
<path d="M213.353 62.0869L211.752 59.511C211.589 59.2493 211.696 58.9234 211.934 58.793C212.072 58.7171 212.238 58.7625 212.387 58.816L213.027 59.0468C213.476 59.2086 213.967 59.2086 214.416 59.0468L215.056 58.816C215.205 58.7625 215.371 58.7172 215.509 58.7931C215.744 58.9215 215.851 59.2395 215.697 59.5007L214.181 62.0765C213.993 62.3947 213.548 62.4003 213.353 62.0869Z" fill="#252525"/>
<defs>
<linearGradient id="paint0_linear_1778_7818" x1="9.06279" y1="40.5821" x2="41.3579" y2="108.99" gradientUnits="userSpaceOnUse">
<stop stop-color="#662B64"/>
<stop offset="1" stop-color="#456F97"/>
</linearGradient>
<linearGradient id="paint1_linear_1778_7818" x1="183.458" y1="40.5821" x2="215.753" y2="108.99" gradientUnits="userSpaceOnUse">
<stop stop-color="#662B64"/>
<stop offset="1" stop-color="#456F97"/>
</linearGradient>
</defs>
</svg>
