<svg width="253" height="123" viewBox="0 0 253 123" fill="none" xmlns="http://www.w3.org/2000/svg">
<rect width="253" height="123" rx="10" fill="#F4F4F4"/>
<mask id="path-2-inside-1_1787_7872" fill="white">
<path d="M37 46.0405C37 45.2865 37.6112 44.6754 38.3651 44.6754H90.24C90.9939 44.6754 91.6051 45.2865 91.6051 46.0405V91.0897C91.6051 91.8437 90.9939 92.4548 90.24 92.4548H38.3651C37.6112 92.4548 37 91.8437 37 91.0897V46.0405Z"/>
</mask>
<path d="M37 46.0405C37 45.2865 37.6112 44.6754 38.3651 44.6754H90.24C90.9939 44.6754 91.6051 45.2865 91.6051 46.0405V91.0897C91.6051 91.8437 90.9939 92.4548 90.24 92.4548H38.3651C37.6112 92.4548 37 91.8437 37 91.0897V46.0405Z" fill="white"/>
<path d="M37 44.6754H91.6051H37ZM93.6528 91.0897C93.6528 92.9746 92.1248 94.5025 90.24 94.5025H38.3651C36.4803 94.5025 34.9523 92.9746 34.9523 91.0897L39.0477 90.4071H89.5574L93.6528 91.0897ZM38.3651 94.5025C36.4803 94.5025 34.9523 92.9746 34.9523 91.0897V48.0882C34.9523 46.2033 36.4803 44.6754 38.3651 44.6754H39.0477C39.0477 44.6754 39.0477 45.2865 39.0477 46.0405V90.4071L38.3651 94.5025ZM90.24 44.6754C92.1248 44.6754 93.6528 46.2033 93.6528 48.0882V91.0897C93.6528 92.9746 92.1248 94.5025 90.24 94.5025L89.5574 90.4071V46.0405C89.5574 45.2865 89.5574 44.6754 89.5574 44.6754H90.24Z" fill="url(#paint0_linear_1787_7872)" fill-opacity="0.3" mask="url(#path-2-inside-1_1787_7872)"/>
<rect x="42.1191" y="79.1456" width="44.3667" height="8.19077" rx="1.36513" fill="#1D267D"/>
<path d="M56.6041 84.741V81.2531H57.0723V84.741H56.6041ZM59.0239 84.7696C58.8328 84.7696 58.6671 84.7426 58.527 84.6884C58.39 84.6343 58.2833 84.5419 58.2069 84.4113C58.1336 84.2775 58.097 84.0975 58.097 83.8714V81.4155H58.5365V83.9287C58.5365 84.0657 58.5732 84.1724 58.6464 84.2488C58.7229 84.3221 58.8296 84.3587 58.9665 84.3587H59.4157V84.7696H59.0239ZM57.6574 82.5336V82.1895H59.4157V82.5336H57.6574ZM61.1304 84.827C60.9074 84.827 60.7147 84.7887 60.5522 84.7123C60.3898 84.6359 60.2576 84.5355 60.1557 84.4113C60.0537 84.2839 59.9773 84.1421 59.9263 83.9861C59.8785 83.83 59.8546 83.6707 59.8546 83.5083V83.4223C59.8546 83.2566 59.8785 83.0958 59.9263 82.9397C59.9773 82.7836 60.0537 82.6434 60.1557 82.5192C60.2576 82.3918 60.3866 82.2915 60.5427 82.2182C60.7019 82.1418 60.8883 82.1035 61.1017 82.1035C61.3788 82.1035 61.6066 82.1641 61.7849 82.2851C61.9665 82.403 62.1003 82.5559 62.1863 82.7438C62.2755 82.9317 62.3201 83.1324 62.3201 83.3458V83.5513H60.0553V83.2072H61.9856L61.8805 83.3936C61.8805 83.212 61.8518 83.0559 61.7945 82.9253C61.7372 82.7916 61.6512 82.688 61.5365 82.6148C61.4218 82.5415 61.2769 82.5049 61.1017 82.5049C60.9201 82.5049 60.7688 82.5463 60.6478 82.6291C60.5299 82.7119 60.4407 82.825 60.3802 82.9683C60.3229 83.1117 60.2942 83.2773 60.2942 83.4653C60.2942 83.6468 60.3229 83.8109 60.3802 83.9574C60.4407 84.1007 60.5331 84.2154 60.6573 84.3014C60.7816 84.3842 60.9392 84.4256 61.1304 84.4256C61.331 84.4256 61.4935 84.381 61.6177 84.2918C61.7451 84.2027 61.8216 84.0991 61.8471 83.9813H62.2771C62.242 84.1565 62.172 84.3078 62.0668 84.4352C61.9617 84.5626 61.8295 84.6597 61.6703 84.7266C61.511 84.7935 61.331 84.827 61.1304 84.827ZM62.9713 84.741V82.1895H63.3345V83.2837H63.2771C63.2771 83.0352 63.309 82.825 63.3727 82.653C63.4396 82.4778 63.5383 82.344 63.6689 82.2517C63.7995 82.1593 63.9651 82.1131 64.1658 82.1131H64.1849C64.3856 82.1131 64.5512 82.1593 64.6818 82.2517C64.8156 82.344 64.9144 82.4778 64.9781 82.653C65.0418 82.825 65.0736 83.0352 65.0736 83.2837H64.9398C64.9398 83.0352 64.9733 82.825 65.0402 82.653C65.1071 82.4778 65.2058 82.344 65.3364 82.2517C65.4702 82.1593 65.6374 82.1131 65.8381 82.1131H65.8572C66.0579 82.1131 66.2251 82.1593 66.3589 82.2517C66.4927 82.344 66.5914 82.4778 66.6551 82.653C66.722 82.825 66.7555 83.0352 66.7555 83.2837V84.741H66.2968V83.1834C66.2968 82.9763 66.2458 82.817 66.1439 82.7056C66.042 82.5909 65.9002 82.5336 65.7186 82.5336C65.5307 82.5336 65.3794 82.5941 65.2647 82.7151C65.1501 82.833 65.0927 82.9986 65.0927 83.212V84.741H64.6341V83.1834C64.6341 82.9763 64.5831 82.817 64.4812 82.7056C64.3792 82.5909 64.2375 82.5336 64.0559 82.5336C63.868 82.5336 63.7167 82.5941 63.602 82.7151C63.4873 82.833 63.43 82.9986 63.43 83.212V84.741H62.9713ZM67.4711 83.6086V83.2168H69.2485V83.6086H67.4711ZM69.9265 84.741V84.1676C69.9265 84.0275 69.9456 83.908 69.9838 83.8093C70.0252 83.7105 70.0953 83.6213 70.1941 83.5417C70.2928 83.4589 70.4266 83.3793 70.5954 83.3028L71.25 83.0018C71.4092 82.9285 71.5351 82.8346 71.6274 82.7199C71.7198 82.602 71.766 82.4507 71.766 82.266C71.766 82.043 71.7039 81.8694 71.5797 81.7452C71.4554 81.621 71.2802 81.5589 71.0541 81.5589C70.8311 81.5589 70.6559 81.621 70.5285 81.7452C70.4011 81.8694 70.3374 82.043 70.3374 82.266H69.8883C69.8883 82.0653 69.9297 81.8806 70.0125 81.7117C70.0985 81.5429 70.2275 81.4091 70.3995 81.3104C70.5715 81.2085 70.7897 81.1575 71.0541 81.1575C71.3185 81.1575 71.5351 81.2085 71.7039 81.3104C71.8759 81.4091 72.0033 81.5397 72.0861 81.7022C72.1721 81.8646 72.2151 82.0414 72.2151 82.2325V82.2994C72.2151 82.5511 72.1419 82.7629 71.9953 82.9349C71.852 83.1069 71.6577 83.2487 71.4124 83.3601L70.7579 83.6612C70.6113 83.728 70.5126 83.7949 70.4616 83.8618C70.4107 83.9287 70.3852 84.0179 70.3852 84.1294V84.569L70.2609 84.3492H72.2581V84.741H69.9265Z" fill="white"/>
<mask id="path-6-inside-2_1787_7872" fill="white">
<path d="M160 46.0405C160 45.2865 160.611 44.6754 161.365 44.6754H213.24C213.994 44.6754 214.605 45.2865 214.605 46.0405V91.0897C214.605 91.8437 213.994 92.4548 213.24 92.4548H161.365C160.611 92.4548 160 91.8437 160 91.0897V46.0405Z"/>
</mask>
<path d="M160 46.0405C160 45.2865 160.611 44.6754 161.365 44.6754H213.24C213.994 44.6754 214.605 45.2865 214.605 46.0405V91.0897C214.605 91.8437 213.994 92.4548 213.24 92.4548H161.365C160.611 92.4548 160 91.8437 160 91.0897V46.0405Z" fill="white"/>
<path d="M160 44.6754H214.605H160ZM216.653 91.0897C216.653 92.9746 215.125 94.5025 213.24 94.5025H161.365C159.48 94.5025 157.952 92.9746 157.952 91.0897L162.048 90.4071H212.557L216.653 91.0897ZM161.365 94.5025C159.48 94.5025 157.952 92.9746 157.952 91.0897V48.0882C157.952 46.2033 159.48 44.6754 161.365 44.6754H162.048C162.048 44.6754 162.048 45.2865 162.048 46.0405V90.4071L161.365 94.5025ZM213.24 44.6754C215.125 44.6754 216.653 46.2033 216.653 48.0882V91.0897C216.653 92.9746 215.125 94.5025 213.24 94.5025L212.557 90.4071V46.0405C212.557 45.2865 212.557 44.6754 212.557 44.6754H213.24Z" fill="url(#paint1_linear_1787_7872)" fill-opacity="0.3" mask="url(#path-6-inside-2_1787_7872)"/>
<rect x="42.1191" y="69.5898" width="44.3667" height="8.19077" rx="1.36513" fill="#5C469C"/>
<path d="M57.0777 75.1852V71.6973H57.5459V75.1852H57.0777ZM59.4975 75.2138C59.3064 75.2138 59.1407 75.1868 59.0006 75.1326C58.8636 75.0785 58.7569 74.9861 58.6805 74.8555C58.6072 74.7217 58.5706 74.5418 58.5706 74.3156V71.8597H59.0101V74.3729C59.0101 74.5099 59.0468 74.6166 59.12 74.6931C59.1965 74.7663 59.3032 74.8029 59.4401 74.8029H59.8893V75.2138H59.4975ZM58.131 72.9778V72.6338H59.8893V72.9778H58.131ZM61.604 75.2712C61.381 75.2712 61.1883 75.233 61.0258 75.1565C60.8634 75.0801 60.7312 74.9797 60.6293 74.8555C60.5273 74.7281 60.4509 74.5863 60.3999 74.4303C60.3521 74.2742 60.3282 74.1149 60.3282 73.9525V73.8665C60.3282 73.7008 60.3521 73.54 60.3999 73.3839C60.4509 73.2278 60.5273 73.0877 60.6293 72.9634C60.7312 72.836 60.8602 72.7357 61.0163 72.6624C61.1755 72.586 61.3619 72.5478 61.5753 72.5478C61.8524 72.5478 62.0802 72.6083 62.2585 72.7293C62.4401 72.8472 62.5739 73.0001 62.6599 73.188C62.7491 73.3759 62.7937 73.5766 62.7937 73.79V73.9955H60.5289V73.6515H62.4592L62.3541 73.8378C62.3541 73.6562 62.3254 73.5002 62.2681 73.3696C62.2108 73.2358 62.1248 73.1323 62.0101 73.059C61.8954 72.9857 61.7505 72.9491 61.5753 72.9491C61.3937 72.9491 61.2424 72.9905 61.1214 73.0733C61.0035 73.1561 60.9143 73.2692 60.8538 73.4126C60.7965 73.5559 60.7678 73.7215 60.7678 73.9095C60.7678 74.091 60.7965 74.2551 60.8538 74.4016C60.9143 74.5449 61.0067 74.6596 61.1309 74.7456C61.2552 74.8284 61.4128 74.8698 61.604 74.8698C61.8046 74.8698 61.9671 74.8252 62.0913 74.7361C62.2187 74.6469 62.2952 74.5433 62.3206 74.4255H62.7507C62.7156 74.6007 62.6456 74.752 62.5404 74.8794C62.4353 75.0068 62.3031 75.104 62.1439 75.1708C61.9846 75.2377 61.8046 75.2712 61.604 75.2712ZM63.4449 75.1852V72.6338H63.808V73.7279H63.7507C63.7507 73.4795 63.7826 73.2692 63.8463 73.0972C63.9132 72.922 64.0119 72.7882 64.1425 72.6959C64.2731 72.6035 64.4387 72.5573 64.6394 72.5573H64.6585C64.8592 72.5573 65.0248 72.6035 65.1554 72.6959C65.2892 72.7882 65.388 72.922 65.4517 73.0972C65.5154 73.2692 65.5472 73.4795 65.5472 73.7279H65.4134C65.4134 73.4795 65.4469 73.2692 65.5138 73.0972C65.5807 72.922 65.6794 72.7882 65.81 72.6959C65.9438 72.6035 66.111 72.5573 66.3117 72.5573H66.3308C66.5315 72.5573 66.6987 72.6035 66.8325 72.6959C66.9663 72.7882 67.065 72.922 67.1287 73.0972C67.1956 73.2692 67.2291 73.4795 67.2291 73.7279V75.1852H66.7704V73.6276C66.7704 73.4205 66.7194 73.2613 66.6175 73.1498C66.5156 73.0351 66.3738 72.9778 66.1922 72.9778C66.0043 72.9778 65.853 73.0383 65.7383 73.1593C65.6237 73.2772 65.5663 73.4428 65.5663 73.6562V75.1852H65.1076V73.6276C65.1076 73.4205 65.0567 73.2613 64.9548 73.1498C64.8528 73.0351 64.7111 72.9778 64.5295 72.9778C64.3416 72.9778 64.1903 73.0383 64.0756 73.1593C63.9609 73.2772 63.9036 73.4428 63.9036 73.6562V75.1852H63.4449ZM67.9447 74.0528V73.661H69.7221V74.0528H67.9447ZM71.0117 75.1852V71.9266L71.2219 72.0891H70.2376V71.6973H71.4703V75.1852H71.0117Z" fill="white"/>
<rect x="98.4302" y="60.034" width="44.3667" height="8.19077" rx="1.36513" fill="#5C469C"/>
<path d="M113.389 65.6294V62.1415H113.857V65.6294H113.389ZM115.809 65.658C115.617 65.658 115.452 65.631 115.312 65.5768C115.175 65.5227 115.068 65.4303 114.991 65.2997C114.918 65.1659 114.882 64.9859 114.882 64.7598V62.3039H115.321V64.8171C115.321 64.9541 115.358 65.0608 115.431 65.1372C115.508 65.2105 115.614 65.2471 115.751 65.2471H116.2V65.658H115.809ZM114.442 63.422V63.0779H116.2V63.422H114.442ZM117.915 65.7154C117.692 65.7154 117.499 65.6771 117.337 65.6007C117.174 65.5242 117.042 65.4239 116.94 65.2997C116.838 65.1723 116.762 65.0305 116.711 64.8744C116.663 64.7184 116.639 64.5591 116.639 64.3967V64.3107C116.639 64.145 116.663 63.9842 116.711 63.8281C116.762 63.672 116.838 63.5318 116.94 63.4076C117.042 63.2802 117.171 63.1799 117.327 63.1066C117.487 63.0302 117.673 62.9919 117.886 62.9919C118.163 62.9919 118.391 63.0525 118.57 63.1735C118.751 63.2914 118.885 63.4442 118.971 63.6322C119.06 63.8201 119.105 64.0208 119.105 64.2342V64.4397H116.84V64.0956H118.77L118.665 64.282C118.665 64.1004 118.636 63.9443 118.579 63.8137C118.522 63.68 118.436 63.5764 118.321 63.5032C118.206 63.4299 118.062 63.3933 117.886 63.3933C117.705 63.3933 117.553 63.4347 117.432 63.5175C117.315 63.6003 117.225 63.7134 117.165 63.8567C117.108 64.0001 117.079 64.1657 117.079 64.3537C117.079 64.5352 117.108 64.6993 117.165 64.8458C117.225 64.9891 117.318 65.1038 117.442 65.1898C117.566 65.2726 117.724 65.314 117.915 65.314C118.116 65.314 118.278 65.2694 118.402 65.1802C118.53 65.091 118.606 64.9875 118.632 64.8697H119.062C119.027 65.0449 118.957 65.1962 118.851 65.3236C118.746 65.451 118.614 65.5481 118.455 65.615C118.296 65.6819 118.116 65.7154 117.915 65.7154ZM119.756 65.6294V63.0779H120.119V64.1721H120.062C120.062 63.9236 120.094 63.7134 120.157 63.5414C120.224 63.3662 120.323 63.2324 120.454 63.1401C120.584 63.0477 120.75 63.0015 120.95 63.0015H120.97C121.17 63.0015 121.336 63.0477 121.466 63.1401C121.6 63.2324 121.699 63.3662 121.763 63.5414C121.826 63.7134 121.858 63.9236 121.858 64.1721H121.724C121.724 63.9236 121.758 63.7134 121.825 63.5414C121.892 63.3662 121.99 63.2324 122.121 63.1401C122.255 63.0477 122.422 63.0015 122.623 63.0015H122.642C122.843 63.0015 123.01 63.0477 123.144 63.1401C123.277 63.2324 123.376 63.3662 123.44 63.5414C123.507 63.7134 123.54 63.9236 123.54 64.1721V65.6294H123.081V64.0718C123.081 63.8647 123.03 63.7054 122.929 63.594C122.827 63.4793 122.685 63.422 122.503 63.422C122.315 63.422 122.164 63.4825 122.049 63.6035C121.935 63.7214 121.877 63.887 121.877 64.1004V65.6294H121.419V64.0718C121.419 63.8647 121.368 63.7054 121.266 63.594C121.164 63.4793 121.022 63.422 120.841 63.422C120.653 63.422 120.501 63.4825 120.387 63.6035C120.272 63.7214 120.215 63.887 120.215 64.1004V65.6294H119.756ZM124.256 64.497V64.1052H126.033V64.497H124.256ZM127.323 65.6294V62.3708L127.533 62.5333H126.549V62.1415H127.781V65.6294H127.323Z" fill="white"/>
<rect x="98.4302" y="69.5899" width="44.3667" height="8.19077" rx="1.36513" fill="#1D267D"/>
<path d="M112.915 75.1853V71.6974H113.383V75.1853H112.915ZM115.335 75.2139C115.144 75.2139 114.978 75.1869 114.838 75.1327C114.701 75.0786 114.594 74.9862 114.518 74.8556C114.445 74.7218 114.408 74.5418 114.408 74.3157V71.8598H114.848V74.373C114.848 74.51 114.884 74.6167 114.957 74.6931C115.034 74.7664 115.141 74.803 115.278 74.803H115.727V75.2139H115.335ZM113.968 72.9779V72.6338H115.727V72.9779H113.968ZM117.441 75.2713C117.218 75.2713 117.026 75.2331 116.863 75.1566C116.701 75.0802 116.569 74.9798 116.467 74.8556C116.365 74.7282 116.288 74.5864 116.237 74.4304C116.19 74.2743 116.166 74.115 116.166 73.9526V73.8666C116.166 73.7009 116.19 73.5401 116.237 73.384C116.288 73.2279 116.365 73.0878 116.467 72.9635C116.569 72.8361 116.698 72.7358 116.854 72.6625C117.013 72.5861 117.199 72.5478 117.413 72.5478C117.69 72.5478 117.918 72.6084 118.096 72.7294C118.278 72.8473 118.411 73.0002 118.497 73.1881C118.587 73.376 118.631 73.5767 118.631 73.7901V73.9956H116.366V73.6516H118.297L118.192 73.8379C118.192 73.6563 118.163 73.5002 118.106 73.3697C118.048 73.2359 117.962 73.1323 117.848 73.0591C117.733 72.9858 117.588 72.9492 117.413 72.9492C117.231 72.9492 117.08 72.9906 116.959 73.0734C116.841 73.1562 116.752 73.2693 116.691 73.4127C116.634 73.556 116.605 73.7216 116.605 73.9096C116.605 74.0911 116.634 74.2552 116.691 74.4017C116.752 74.545 116.844 74.6597 116.968 74.7457C117.093 74.8285 117.25 74.8699 117.441 74.8699C117.642 74.8699 117.805 74.8253 117.929 74.7361C118.056 74.647 118.133 74.5434 118.158 74.4256H118.588C118.553 74.6008 118.483 74.7521 118.378 74.8795C118.273 75.0069 118.141 75.104 117.981 75.1709C117.822 75.2378 117.642 75.2713 117.441 75.2713ZM119.282 75.1853V72.6338H119.645V73.728H119.588C119.588 73.4795 119.62 73.2693 119.684 73.0973C119.751 72.9221 119.849 72.7883 119.98 72.696C120.111 72.6036 120.276 72.5574 120.477 72.5574H120.496C120.697 72.5574 120.862 72.6036 120.993 72.696C121.127 72.7883 121.225 72.9221 121.289 73.0973C121.353 73.2693 121.385 73.4795 121.385 73.728H121.251C121.251 73.4795 121.284 73.2693 121.351 73.0973C121.418 72.9221 121.517 72.7883 121.647 72.696C121.781 72.6036 121.948 72.5574 122.149 72.5574H122.168C122.369 72.5574 122.536 72.6036 122.67 72.696C122.804 72.7883 122.902 72.9221 122.966 73.0973C123.033 73.2693 123.066 73.4795 123.066 73.728V75.1853H122.608V73.6277C122.608 73.4206 122.557 73.2614 122.455 73.1499C122.353 73.0352 122.211 72.9779 122.03 72.9779C121.842 72.9779 121.69 73.0384 121.576 73.1594C121.461 73.2773 121.404 73.4429 121.404 73.6563V75.1853H120.945V73.6277C120.945 73.4206 120.894 73.2614 120.792 73.1499C120.69 73.0352 120.549 72.9779 120.367 72.9779C120.179 72.9779 120.028 73.0384 119.913 73.1594C119.798 73.2773 119.741 73.4429 119.741 73.6563V75.1853H119.282ZM123.782 74.0529V73.6611H125.56V74.0529H123.782ZM126.238 75.1853V74.6119C126.238 74.4718 126.257 74.3523 126.295 74.2536C126.336 74.1548 126.406 74.0656 126.505 73.986C126.604 73.9032 126.738 73.8236 126.906 73.7471L127.561 73.4461C127.72 73.3728 127.846 73.2789 127.938 73.1642C128.031 73.0463 128.077 72.895 128.077 72.7103C128.077 72.4873 128.015 72.3137 127.891 72.1895C127.766 72.0653 127.591 72.0032 127.365 72.0032C127.142 72.0032 126.967 72.0653 126.84 72.1895C126.712 72.3137 126.648 72.4873 126.648 72.7103H126.199C126.199 72.5096 126.241 72.3249 126.324 72.1561C126.41 71.9872 126.539 71.8534 126.711 71.7547C126.883 71.6528 127.101 71.6018 127.365 71.6018C127.63 71.6018 127.846 71.6528 128.015 71.7547C128.187 71.8534 128.314 71.984 128.397 72.1465C128.483 72.3089 128.526 72.4857 128.526 72.6768V72.7437C128.526 72.9954 128.453 73.2072 128.306 73.3792C128.163 73.5512 127.969 73.693 127.723 73.8044L127.069 74.1055C126.922 74.1723 126.824 74.2392 126.773 74.3061C126.722 74.373 126.696 74.4622 126.696 74.5737V75.0133L126.572 74.7935H128.569V75.1853H126.238Z" fill="white"/>
<rect x="98.4302" y="79.1458" width="44.3667" height="8.19077" rx="1.36513" fill="#0C134F"/>
<path d="M104.358 84.8272C104.135 84.8272 103.939 84.7889 103.77 84.7125C103.601 84.636 103.458 84.5357 103.34 84.4115C103.225 84.2841 103.138 84.1423 103.077 83.9862C103.02 83.8302 102.991 83.6709 102.991 83.5084V83.4224C102.991 83.26 103.022 83.1007 103.082 82.9446C103.143 82.7854 103.232 82.6436 103.35 82.5194C103.468 82.392 103.611 82.2917 103.78 82.2184C103.949 82.1419 104.141 82.1037 104.358 82.1037C104.574 82.1037 104.767 82.1419 104.936 82.2184C105.105 82.2917 105.248 82.392 105.366 82.5194C105.484 82.6436 105.573 82.7854 105.634 82.9446C105.694 83.1007 105.724 83.26 105.724 83.4224V83.5084C105.724 83.6709 105.694 83.8302 105.634 83.9862C105.576 84.1423 105.489 84.2841 105.371 84.4115C105.256 84.5357 105.114 84.636 104.946 84.7125C104.777 84.7889 104.581 84.8272 104.358 84.8272ZM104.358 84.4162C104.549 84.4162 104.711 84.3748 104.845 84.292C104.982 84.206 105.086 84.0913 105.156 83.948C105.229 83.8047 105.266 83.6438 105.266 83.4654C105.266 83.2839 105.229 83.1214 105.156 82.9781C105.082 82.8347 104.977 82.7217 104.84 82.6389C104.707 82.556 104.546 82.5146 104.358 82.5146C104.173 82.5146 104.012 82.556 103.875 82.6389C103.738 82.7217 103.633 82.8347 103.56 82.9781C103.487 83.1214 103.45 83.2839 103.45 83.4654C103.45 83.6438 103.485 83.8047 103.555 83.948C103.628 84.0913 103.732 84.206 103.866 84.292C104.003 84.3748 104.167 84.4162 104.358 84.4162ZM106.411 85.6967V82.1897H106.774V83.2934L106.688 83.2839C106.704 83.0099 106.762 82.787 106.86 82.615C106.962 82.4398 107.095 82.3108 107.257 82.2279C107.419 82.1451 107.596 82.1037 107.787 82.1037C107.972 82.1037 108.139 82.1388 108.289 82.2088C108.442 82.2789 108.573 82.3745 108.681 82.4955C108.789 82.6166 108.872 82.7567 108.929 82.916C108.987 83.0752 109.015 83.2441 109.015 83.4224V83.5084C109.015 83.6868 108.985 83.8556 108.924 84.0149C108.864 84.1742 108.778 84.3143 108.666 84.4354C108.558 84.5564 108.428 84.652 108.275 84.722C108.125 84.7921 107.959 84.8272 107.778 84.8272C107.596 84.8272 107.423 84.7873 107.257 84.7077C107.091 84.6281 106.954 84.4991 106.846 84.3207C106.738 84.1423 106.676 83.9082 106.66 83.6183L106.87 84.0006V85.6967H106.411ZM107.706 84.4258C107.878 84.4258 108.028 84.386 108.155 84.3064C108.283 84.2235 108.381 84.1105 108.451 83.9671C108.522 83.8206 108.557 83.6534 108.557 83.4654C108.557 83.2743 108.522 83.1071 108.451 82.9638C108.381 82.8204 108.283 82.7089 108.155 82.6293C108.028 82.5465 107.878 82.5051 107.706 82.5051C107.553 82.5051 107.411 82.5401 107.281 82.6102C107.15 82.6771 107.045 82.7758 106.966 82.9064C106.889 83.0338 106.851 83.1883 106.851 83.3699V83.5897C106.851 83.7649 106.891 83.9146 106.97 84.0388C107.05 84.163 107.155 84.2586 107.286 84.3255C107.416 84.3924 107.556 84.4258 107.706 84.4258ZM109.581 83.6088V83.217H111.359V83.6088H109.581ZM113.198 84.8272C112.975 84.8272 112.782 84.7889 112.62 84.7125C112.457 84.636 112.325 84.5357 112.223 84.4115C112.121 84.2841 112.045 84.1423 111.994 83.9862C111.946 83.8302 111.922 83.6709 111.922 83.5084V83.4224C111.922 83.2568 111.946 83.0959 111.994 82.9399C112.045 82.7838 112.121 82.6436 112.223 82.5194C112.325 82.392 112.454 82.2917 112.61 82.2184C112.769 82.1419 112.956 82.1037 113.169 82.1037C113.446 82.1037 113.674 82.1642 113.852 82.2853C114.034 82.4031 114.168 82.556 114.254 82.744C114.343 82.9319 114.387 83.1326 114.387 83.346V83.5514H112.123V83.2074H114.053L113.948 83.3938C113.948 83.2122 113.919 83.0561 113.862 82.9255C113.805 82.7917 113.718 82.6882 113.604 82.615C113.489 82.5417 113.344 82.5051 113.169 82.5051C112.987 82.5051 112.836 82.5465 112.715 82.6293C112.597 82.7121 112.508 82.8252 112.448 82.9685C112.39 83.1119 112.362 83.2775 112.362 83.4654C112.362 83.647 112.39 83.811 112.448 83.9576C112.508 84.1009 112.6 84.2156 112.725 84.3016C112.849 84.3844 113.007 84.4258 113.198 84.4258C113.398 84.4258 113.561 84.3812 113.685 84.292C113.812 84.2028 113.889 84.0993 113.914 83.9815H114.344C114.309 84.1566 114.239 84.3079 114.134 84.4354C114.029 84.5628 113.897 84.6599 113.738 84.7268C113.578 84.7937 113.398 84.8272 113.198 84.8272ZM116.993 85.6967V83.9815L117.174 83.6183C117.165 83.8955 117.109 84.1232 117.007 84.3016C116.905 84.48 116.773 84.6121 116.611 84.6981C116.451 84.7842 116.276 84.8272 116.085 84.8272C115.903 84.8272 115.736 84.7921 115.583 84.722C115.434 84.652 115.303 84.5548 115.192 84.4306C115.083 84.3064 114.999 84.1646 114.938 84.0053C114.878 83.8429 114.848 83.6709 114.848 83.4893V83.4033C114.848 83.2218 114.878 83.0529 114.938 82.8969C114.999 82.7408 115.085 82.6038 115.196 82.486C115.308 82.3649 115.44 82.271 115.593 82.2041C115.746 82.1372 115.916 82.1037 116.104 82.1037C116.321 82.1037 116.51 82.1499 116.673 82.2423C116.838 82.3347 116.969 82.4684 117.065 82.6436C117.16 82.8188 117.213 83.0322 117.222 83.2839H117.088V82.1897H117.452V85.6967H116.993ZM116.166 84.4067C116.322 84.4067 116.464 84.3717 116.591 84.3016C116.719 84.2315 116.821 84.1312 116.897 84.0006C116.974 83.8668 117.012 83.7107 117.012 83.5323V83.3125C117.012 83.1374 116.972 82.9892 116.893 82.8682C116.816 82.744 116.713 82.65 116.582 82.5863C116.455 82.5194 116.316 82.486 116.166 82.486C115.994 82.486 115.843 82.5258 115.712 82.6054C115.585 82.685 115.485 82.7981 115.411 82.9446C115.341 83.088 115.306 83.2552 115.306 83.4463C115.306 83.6374 115.343 83.8063 115.416 83.9528C115.489 84.0961 115.591 84.2076 115.722 84.2872C115.853 84.3669 116.001 84.4067 116.166 84.4067ZM119.217 84.8176C118.914 84.8176 118.682 84.7189 118.519 84.5214C118.357 84.3239 118.276 84.0388 118.276 83.6661V82.1849H118.734V83.7569C118.734 83.9576 118.788 84.1152 118.897 84.2299C119.005 84.3414 119.151 84.3971 119.336 84.3971C119.527 84.3971 119.683 84.3366 119.804 84.2156C119.925 84.0913 119.986 83.9225 119.986 83.7091V82.1849H120.445V84.7411H120.082V83.647H120.139C120.139 83.8986 120.105 84.1121 120.039 84.2872C119.972 84.4593 119.871 84.5914 119.738 84.6838C119.607 84.773 119.44 84.8176 119.236 84.8176H119.217ZM122.876 84.7411V83.9767H122.8V83.0928C122.8 82.9176 122.754 82.7854 122.661 82.6962C122.572 82.607 122.44 82.5624 122.265 82.5624C122.166 82.5624 122.064 82.564 121.959 82.5672C121.854 82.5704 121.754 82.5736 121.658 82.5767C121.562 82.5799 121.48 82.5847 121.41 82.5911V82.1897C121.48 82.1834 121.553 82.1786 121.629 82.1754C121.709 82.169 121.79 82.1658 121.873 82.1658C121.956 82.1627 122.035 82.1611 122.112 82.1611C122.373 82.1611 122.586 82.1929 122.752 82.2566C122.918 82.3171 123.04 82.4175 123.12 82.5576C123.2 82.6978 123.239 82.8873 123.239 83.1262V84.7411H122.876ZM122.04 84.808C121.849 84.808 121.683 84.7762 121.543 84.7125C121.406 84.6456 121.3 84.55 121.223 84.4258C121.15 84.3016 121.113 84.1519 121.113 83.9767C121.113 83.7951 121.153 83.6438 121.233 83.5228C121.316 83.4017 121.435 83.311 121.591 83.2504C121.747 83.1867 121.935 83.1549 122.155 83.1549H122.848V83.4989H122.136C121.951 83.4989 121.809 83.5435 121.711 83.6327C121.612 83.7219 121.562 83.8365 121.562 83.9767C121.562 84.1168 121.612 84.2299 121.711 84.3159C121.809 84.4019 121.951 84.4449 122.136 84.4449C122.244 84.4449 122.348 84.4258 122.446 84.3876C122.545 84.3462 122.626 84.2793 122.69 84.1869C122.757 84.0913 122.794 83.9608 122.8 83.7951L122.924 83.9767C122.908 84.1582 122.864 84.3111 122.79 84.4354C122.72 84.5564 122.622 84.6488 122.494 84.7125C122.37 84.7762 122.219 84.808 122.04 84.808ZM124.11 84.7411V81.2532H124.569V84.7411H124.11ZM123.756 81.6164V81.2532H124.569V81.6164H123.756ZM125.993 84.7411L125.124 82.1897H125.601L126.452 84.7411H125.993ZM126.108 84.7411V84.378H126.662V84.7411H126.108ZM126.328 84.7411L127.068 82.1897H127.517L126.762 84.7411H126.328ZM129.155 84.8272C128.932 84.8272 128.74 84.7889 128.577 84.7125C128.415 84.636 128.283 84.5357 128.181 84.4115C128.079 84.2841 128.002 84.1423 127.951 83.9862C127.903 83.8302 127.88 83.6709 127.88 83.5084V83.4224C127.88 83.2568 127.903 83.0959 127.951 82.9399C128.002 82.7838 128.079 82.6436 128.181 82.5194C128.283 82.392 128.412 82.2917 128.568 82.2184C128.727 82.1419 128.913 82.1037 129.127 82.1037C129.404 82.1037 129.632 82.1642 129.81 82.2853C129.991 82.4031 130.125 82.556 130.211 82.744C130.3 82.9319 130.345 83.1326 130.345 83.346V83.5514H128.08V83.2074H130.011L129.905 83.3938C129.905 83.2122 129.877 83.0561 129.819 82.9255C129.762 82.7917 129.676 82.6882 129.561 82.615C129.447 82.5417 129.302 82.5051 129.127 82.5051C128.945 82.5051 128.794 82.5465 128.673 82.6293C128.555 82.7121 128.466 82.8252 128.405 82.9685C128.348 83.1119 128.319 83.2775 128.319 83.4654C128.319 83.647 128.348 83.811 128.405 83.9576C128.466 84.1009 128.558 84.2156 128.682 84.3016C128.807 84.3844 128.964 84.4258 129.155 84.4258C129.356 84.4258 129.518 84.3812 129.643 84.292C129.77 84.2028 129.847 84.0993 129.872 83.9815H130.302C130.267 84.1566 130.197 84.3079 130.092 84.4354C129.987 84.5628 129.854 84.6599 129.695 84.7268C129.536 84.7937 129.356 84.8272 129.155 84.8272ZM130.996 84.7411V82.1897H131.359V83.2409H131.34C131.34 82.8682 131.422 82.5959 131.584 82.4238C131.75 82.2487 131.996 82.1611 132.325 82.1611H132.411V82.572H132.248C131.993 82.572 131.797 82.6404 131.66 82.7774C131.523 82.9112 131.455 83.1055 131.455 83.3603V84.7411H130.996ZM133.08 84.7411V82.1897H133.539V84.7411H133.08ZM132.688 82.5528V82.1897H133.539V82.5528H132.688ZM133.209 81.7788C133.107 81.7788 133.031 81.7517 132.98 81.6976C132.932 81.6434 132.908 81.575 132.908 81.4921C132.908 81.4093 132.932 81.3408 132.98 81.2867C133.031 81.2325 133.107 81.2055 133.209 81.2055C133.311 81.2055 133.386 81.2325 133.434 81.2867C133.485 81.3408 133.51 81.4093 133.51 81.4921C133.51 81.575 133.485 81.6434 133.434 81.6976C133.386 81.7517 133.311 81.7788 133.209 81.7788ZM134.493 84.7411V82.0607C134.493 81.7772 134.567 81.5686 134.717 81.4348C134.867 81.301 135.087 81.2341 135.377 81.2341H135.692V81.6164H135.3C135.182 81.6164 135.091 81.6498 135.028 81.7167C134.964 81.7804 134.932 81.8696 134.932 81.9843V84.7411H134.493ZM134.139 82.5624V82.2184H135.74V82.5624H134.139ZM136.139 85.735V85.3241H136.507C136.615 85.3241 136.706 85.3097 136.779 85.2811C136.855 85.2556 136.918 85.211 136.965 85.1473C137.016 85.0836 137.058 84.9992 137.09 84.894L137.892 82.1897H138.341L137.491 85.0135C137.44 85.1823 137.368 85.3193 137.276 85.4244C137.184 85.5327 137.07 85.6107 136.937 85.6585C136.806 85.7095 136.653 85.735 136.478 85.735H136.139ZM136.918 84.6838V84.3016H137.472V84.6838H136.918ZM136.87 84.6838L135.957 82.1897H136.425L137.3 84.6838H136.87Z" fill="white"/>
<path d="M150.217 72.6144V72.1475H153.03V72.6144H150.217ZM150.217 73.7079V73.241H153.03V73.7079H150.217Z" fill="#0C134F"/>
<path d="M64.302 63.787V35.4606C64.302 32.4448 66.7468 30.0001 69.7625 30.0001H115.153C118.169 30.0001 120.614 32.4448 120.614 35.4606V52.1834" stroke="#252525" stroke-width="0.341282" stroke-linecap="round" stroke-dasharray="1.71 1.71"/>
<path d="M64.3018 66.0061C65.15 66.0061 65.8376 65.3185 65.8376 64.4703C65.8376 63.6221 65.15 62.9345 64.3018 62.9345C63.4537 62.9345 62.7661 63.6221 62.7661 64.4703C62.7661 65.3185 63.4537 66.0061 64.3018 66.0061Z" fill="white" stroke="#252525" stroke-width="1.02385"/>
<path d="M120.246 55.0235L118.645 52.4476C118.482 52.1859 118.588 51.86 118.826 51.7296C118.965 51.6537 119.131 51.6991 119.28 51.7526L119.92 51.9834C120.369 52.1452 120.86 52.1452 121.309 51.9834L121.949 51.7526C122.097 51.6991 122.264 51.6538 122.402 51.7296C122.637 51.8581 122.744 52.1761 122.59 52.4372L121.073 55.0131C120.886 55.3313 120.441 55.3368 120.246 55.0235Z" fill="#252525"/>
<defs>
<linearGradient id="paint0_linear_1787_7872" x1="35.0628" y1="40.5821" x2="67.3579" y2="108.99" gradientUnits="userSpaceOnUse">
<stop stop-color="#662B64"/>
<stop offset="1" stop-color="#456F97"/>
</linearGradient>
<linearGradient id="paint1_linear_1787_7872" x1="158.063" y1="40.5821" x2="190.358" y2="108.99" gradientUnits="userSpaceOnUse">
<stop stop-color="#662B64"/>
<stop offset="1" stop-color="#456F97"/>
</linearGradient>
</defs>
</svg>
