<svg width="253" height="123" viewBox="0 0 253 123" fill="none" xmlns="http://www.w3.org/2000/svg">
<rect width="253" height="123" rx="10" fill="#F4F4F4"/>
<mask id="path-2-inside-1_6353_5724" fill="white">
<path d="M37 46.0405C37 45.2865 37.6112 44.6754 38.3651 44.6754H90.24C90.9939 44.6754 91.6051 45.2865 91.6051 46.0405V91.0897C91.6051 91.8437 90.9939 92.4548 90.24 92.4548H38.3651C37.6112 92.4548 37 91.8437 37 91.0897V46.0405Z"/>
</mask>
<path d="M37 46.0405C37 45.2865 37.6112 44.6754 38.3651 44.6754H90.24C90.9939 44.6754 91.6051 45.2865 91.6051 46.0405V91.0897C91.6051 91.8437 90.9939 92.4548 90.24 92.4548H38.3651C37.6112 92.4548 37 91.8437 37 91.0897V46.0405Z" fill="white"/>
<path d="M37 44.6754H91.6051H37ZM93.6528 91.0897C93.6528 92.9746 92.1248 94.5025 90.24 94.5025H38.3651C36.4803 94.5025 34.9523 92.9746 34.9523 91.0897L39.0477 90.4071H89.5574L93.6528 91.0897ZM38.3651 94.5025C36.4803 94.5025 34.9523 92.9746 34.9523 91.0897V48.0882C34.9523 46.2033 36.4803 44.6754 38.3651 44.6754H39.0477C39.0477 44.6754 39.0477 45.2865 39.0477 46.0405V90.4071L38.3651 94.5025ZM90.24 44.6754C92.1248 44.6754 93.6528 46.2033 93.6528 48.0882V91.0897C93.6528 92.9746 92.1248 94.5025 90.24 94.5025L89.5574 90.4071V46.0405C89.5574 45.2865 89.5574 44.6754 89.5574 44.6754H90.24Z" fill="url(#paint0_linear_6353_5724)" fill-opacity="0.3" mask="url(#path-2-inside-1_6353_5724)"/>
<rect x="42.1192" y="79.1456" width="44.3667" height="8.19077" rx="1.36513" fill="#1D267D"/>
<path d="M48.259 84.741V81.2531H48.7272V84.741H48.259ZM50.6788 84.7696C50.4877 84.7696 50.3221 84.7426 50.1819 84.6884C50.0449 84.6343 49.9382 84.5419 49.8618 84.4113C49.7885 84.2775 49.7519 84.0975 49.7519 83.8714V81.4155H50.1915V83.9287C50.1915 84.0657 50.2281 84.1724 50.3013 84.2488C50.3778 84.3221 50.4845 84.3587 50.6215 84.3587H51.0706V84.7696H50.6788ZM49.3123 82.5336V82.1895H51.0706V82.5336H49.3123ZM52.7853 84.827C52.5623 84.827 52.3696 84.7887 52.2072 84.7123C52.0447 84.6359 51.9125 84.5355 51.8106 84.4113C51.7087 84.2839 51.6322 84.1421 51.5812 83.9861C51.5335 83.83 51.5096 83.6707 51.5096 83.5083V83.4223C51.5096 83.2566 51.5335 83.0958 51.5812 82.9397C51.6322 82.7836 51.7087 82.6434 51.8106 82.5192C51.9125 82.3918 52.0415 82.2915 52.1976 82.2182C52.3569 82.1418 52.5432 82.1035 52.7566 82.1035C53.0337 82.1035 53.2615 82.1641 53.4399 82.2851C53.6214 82.403 53.7552 82.5559 53.8412 82.7438C53.9304 82.9317 53.975 83.1324 53.975 83.3458V83.5513H51.7102V83.2072H53.6405L53.5354 83.3936C53.5354 83.212 53.5068 83.0559 53.4494 82.9253C53.3921 82.7916 53.3061 82.688 53.1914 82.6148C53.0767 82.5415 52.9318 82.5049 52.7566 82.5049C52.5751 82.5049 52.4238 82.5463 52.3027 82.6291C52.1849 82.7119 52.0957 82.825 52.0351 82.9683C51.9778 83.1117 51.9491 83.2773 51.9491 83.4653C51.9491 83.6468 51.9778 83.8109 52.0351 83.9574C52.0957 84.1007 52.188 84.2154 52.3123 84.3014C52.4365 84.3842 52.5942 84.4256 52.7853 84.4256C52.986 84.4256 53.1484 84.381 53.2726 84.2918C53.4 84.2027 53.4765 84.0991 53.502 83.9813H53.932C53.897 84.1565 53.8269 84.3078 53.7218 84.4352C53.6166 84.5626 53.4845 84.6597 53.3252 84.7266C53.1659 84.7935 52.986 84.827 52.7853 84.827ZM54.6262 84.741V82.1895H54.9894V83.2837H54.932C54.932 83.0352 54.9639 82.825 55.0276 82.653C55.0945 82.4778 55.1932 82.344 55.3238 82.2517C55.4544 82.1593 55.6201 82.1131 55.8207 82.1131H55.8398C56.0405 82.1131 56.2062 82.1593 56.3368 82.2517C56.4705 82.344 56.5693 82.4778 56.633 82.653C56.6967 82.825 56.7285 83.0352 56.7285 83.2837H56.5948C56.5948 83.0352 56.6282 82.825 56.6951 82.653C56.762 82.4778 56.8607 82.344 56.9913 82.2517C57.1251 82.1593 57.2923 82.1131 57.493 82.1131H57.5121C57.7128 82.1131 57.88 82.1593 58.0138 82.2517C58.1476 82.344 58.2463 82.4778 58.31 82.653C58.3769 82.825 58.4104 83.0352 58.4104 83.2837V84.741H57.9517V83.1834C57.9517 82.9763 57.9007 82.817 57.7988 82.7056C57.6969 82.5909 57.5551 82.5336 57.3736 82.5336C57.1856 82.5336 57.0343 82.5941 56.9197 82.7151C56.805 82.833 56.7477 82.9986 56.7477 83.212V84.741H56.289V83.1834C56.289 82.9763 56.238 82.817 56.1361 82.7056C56.0342 82.5909 55.8924 82.5336 55.7108 82.5336C55.5229 82.5336 55.3716 82.5941 55.2569 82.7151C55.1423 82.833 55.0849 82.9986 55.0849 83.212V84.741H54.6262ZM59.126 83.6086V83.2168H60.9034V83.6086H59.126ZM61.5814 84.741V84.1676C61.5814 84.0275 61.6005 83.908 61.6387 83.8093C61.6802 83.7105 61.7502 83.6213 61.849 83.5417C61.9477 83.4589 62.0815 83.3793 62.2503 83.3028L62.9049 83.0018C63.0642 82.9285 63.19 82.8346 63.2824 82.7199C63.3747 82.602 63.4209 82.4507 63.4209 82.266C63.4209 82.043 63.3588 81.8694 63.2346 81.7452C63.1104 81.621 62.9352 81.5589 62.709 81.5589C62.486 81.5589 62.3108 81.621 62.1834 81.7452C62.056 81.8694 61.9923 82.043 61.9923 82.266H61.5432C61.5432 82.0653 61.5846 81.8806 61.6674 81.7117C61.7534 81.5429 61.8824 81.4091 62.0544 81.3104C62.2264 81.2085 62.4446 81.1575 62.709 81.1575C62.9734 81.1575 63.19 81.2085 63.3588 81.3104C63.5308 81.4091 63.6582 81.5397 63.741 81.7022C63.827 81.8646 63.87 82.0414 63.87 82.2325V82.2994C63.87 82.5511 63.7968 82.7629 63.6503 82.9349C63.5069 83.1069 63.3126 83.2487 63.0674 83.3601L62.4128 83.6612C62.2662 83.728 62.1675 83.7949 62.1165 83.8618C62.0656 83.9287 62.0401 84.0179 62.0401 84.1294V84.569L61.9159 84.3492H63.913V84.741H61.5814ZM65.947 85.6966V81.2531H66.3579V85.6966H65.947ZM69.9106 84.827C69.6494 84.827 69.4265 84.7824 69.2417 84.6932C69.0602 84.6008 68.9121 84.4766 68.7974 84.3205C68.6859 84.1644 68.6047 83.9845 68.5537 83.7806C68.5027 83.5736 68.4773 83.3554 68.4773 83.126V82.868C68.4773 82.5463 68.5266 82.2564 68.6254 81.9984C68.7273 81.7404 68.8834 81.5366 69.0936 81.3868C69.307 81.234 69.5794 81.1575 69.9106 81.1575C70.2419 81.1575 70.5127 81.234 70.7229 81.3868C70.9331 81.5366 71.0876 81.7404 71.1864 81.9984C71.2883 82.2564 71.3393 82.5463 71.3393 82.868V83.126C71.3393 83.3554 71.3138 83.5736 71.2628 83.7806C71.2118 83.9845 71.129 84.1644 71.0144 84.3205C70.9029 84.4766 70.7563 84.6008 70.5748 84.6932C70.3932 84.7824 70.1718 84.827 69.9106 84.827ZM69.9106 84.4065C70.2419 84.4065 70.484 84.295 70.6369 84.0721C70.793 83.8459 70.871 83.4891 70.871 83.0018C70.871 82.4921 70.7914 82.1274 70.6321 81.9076C70.476 81.6879 70.2355 81.578 69.9106 81.578C69.5826 81.578 69.3389 81.6879 69.1796 81.9076C69.0235 82.1274 68.9455 82.489 68.9455 82.9922C68.9455 83.4828 69.0235 83.8411 69.1796 84.0673C69.3357 84.2934 69.5794 84.4065 69.9106 84.4065ZM71.8178 84.741L72.7304 83.3984L72.7161 83.4939L71.8608 82.1895H72.3673L72.9836 83.1499H73.0505L73.6334 82.1895H74.1065L73.299 83.4605L73.3133 83.3745L74.2689 84.741H73.7625L73.0458 83.7042H72.9789L72.2908 84.741H71.8178ZM76.135 84.827C75.8738 84.827 75.6509 84.7824 75.4661 84.6932C75.2846 84.6008 75.1365 84.4766 75.0218 84.3205C74.9103 84.1644 74.8291 83.9845 74.7781 83.7806C74.7271 83.5736 74.7017 83.3554 74.7017 83.126V82.868C74.7017 82.5463 74.751 82.2564 74.8498 81.9984C74.9517 81.7404 75.1078 81.5366 75.318 81.3868C75.5314 81.234 75.8038 81.1575 76.135 81.1575C76.4663 81.1575 76.7371 81.234 76.9473 81.3868C77.1575 81.5366 77.312 81.7404 77.4108 81.9984C77.5127 82.2564 77.5636 82.5463 77.5636 82.868V83.126C77.5636 83.3554 77.5382 83.5736 77.4872 83.7806C77.4362 83.9845 77.3534 84.1644 77.2387 84.3205C77.1273 84.4766 76.9807 84.6008 76.7992 84.6932C76.6176 84.7824 76.3962 84.827 76.135 84.827ZM76.135 84.4065C76.4663 84.4065 76.7084 84.295 76.8613 84.0721C77.0174 83.8459 77.0954 83.4891 77.0954 83.0018C77.0954 82.4921 77.0158 82.1274 76.8565 81.9076C76.7004 81.6879 76.4599 81.578 76.135 81.578C75.807 81.578 75.5633 81.6879 75.404 81.9076C75.2479 82.1274 75.1699 82.489 75.1699 82.9922C75.1699 83.4828 75.2479 83.8411 75.404 84.0673C75.5601 84.2934 75.8038 84.4065 76.135 84.4065ZM78.2716 84.741V84.1676C78.2716 84.0275 78.2907 83.908 78.3289 83.8093C78.3703 83.7105 78.4404 83.6213 78.5391 83.5417C78.6379 83.4589 78.7717 83.3793 78.9405 83.3028L79.5951 83.0018C79.7543 82.9285 79.8801 82.8346 79.9725 82.7199C80.0649 82.602 80.1111 82.4507 80.1111 82.266C80.1111 82.043 80.049 81.8694 79.9247 81.7452C79.8005 81.621 79.6253 81.5589 79.3992 81.5589C79.1762 81.5589 79.001 81.621 78.8736 81.7452C78.7462 81.8694 78.6825 82.043 78.6825 82.266H78.2333C78.2333 82.0653 78.2748 81.8806 78.3576 81.7117C78.4436 81.5429 78.5726 81.4091 78.7446 81.3104C78.9166 81.2085 79.1348 81.1575 79.3992 81.1575C79.6635 81.1575 79.8801 81.2085 80.049 81.3104C80.221 81.4091 80.3484 81.5397 80.4312 81.7022C80.5172 81.8646 80.5602 82.0414 80.5602 82.2325V82.2994C80.5602 82.5511 80.4869 82.7629 80.3404 82.9349C80.1971 83.1069 80.0028 83.2487 79.7575 83.3601L79.1029 83.6612C78.9564 83.728 78.8577 83.7949 78.8067 83.8618C78.7557 83.9287 78.7303 84.0179 78.7303 84.1294V84.569L78.606 84.3492H80.6032V84.741H78.2716Z" fill="white"/>
<mask id="path-6-inside-2_6353_5724" fill="white">
<path d="M160 46.0405C160 45.2865 160.611 44.6754 161.365 44.6754H213.24C213.994 44.6754 214.605 45.2865 214.605 46.0405V91.0897C214.605 91.8437 213.994 92.4548 213.24 92.4548H161.365C160.611 92.4548 160 91.8437 160 91.0897V46.0405Z"/>
</mask>
<path d="M160 46.0405C160 45.2865 160.611 44.6754 161.365 44.6754H213.24C213.994 44.6754 214.605 45.2865 214.605 46.0405V91.0897C214.605 91.8437 213.994 92.4548 213.24 92.4548H161.365C160.611 92.4548 160 91.8437 160 91.0897V46.0405Z" fill="white"/>
<path d="M160 44.6754H214.605H160ZM216.653 91.0897C216.653 92.9746 215.125 94.5025 213.24 94.5025H161.365C159.48 94.5025 157.952 92.9746 157.952 91.0897L162.048 90.4071H212.557L216.653 91.0897ZM161.365 94.5025C159.48 94.5025 157.952 92.9746 157.952 91.0897V48.0882C157.952 46.2033 159.48 44.6754 161.365 44.6754H162.048C162.048 44.6754 162.048 45.2865 162.048 46.0405V90.4071L161.365 94.5025ZM213.24 44.6754C215.125 44.6754 216.653 46.2033 216.653 48.0882V91.0897C216.653 92.9746 215.125 94.5025 213.24 94.5025L212.557 90.4071V46.0405C212.557 45.2865 212.557 44.6754 212.557 44.6754H213.24Z" fill="url(#paint1_linear_6353_5724)" fill-opacity="0.3" mask="url(#path-6-inside-2_6353_5724)"/>
<rect x="42.1192" y="69.5898" width="44.3667" height="8.19077" rx="1.36513" fill="#5C469C"/>
<path d="M48.7326 75.1852V71.6973H49.2008V75.1852H48.7326ZM51.1524 75.2138C50.9613 75.2138 50.7956 75.1868 50.6555 75.1326C50.5185 75.0785 50.4118 74.9861 50.3354 74.8555C50.2621 74.7217 50.2255 74.5418 50.2255 74.3156V71.8597H50.6651V74.3729C50.6651 74.5099 50.7017 74.6166 50.7749 74.6931C50.8514 74.7663 50.9581 74.8029 51.0951 74.8029H51.5442V75.2138H51.1524ZM49.7859 72.9778V72.6338H51.5442V72.9778H49.7859ZM53.2589 75.2712C53.0359 75.2712 52.8432 75.233 52.6807 75.1565C52.5183 75.0801 52.3861 74.9797 52.2842 74.8555C52.1822 74.7281 52.1058 74.5863 52.0548 74.4303C52.0071 74.2742 51.9832 74.1149 51.9832 73.9525V73.8665C51.9832 73.7008 52.0071 73.54 52.0548 73.3839C52.1058 73.2278 52.1822 73.0877 52.2842 72.9634C52.3861 72.836 52.5151 72.7357 52.6712 72.6624C52.8305 72.586 53.0168 72.5478 53.2302 72.5478C53.5073 72.5478 53.7351 72.6083 53.9135 72.7293C54.095 72.8472 54.2288 73.0001 54.3148 73.188C54.404 73.3759 54.4486 73.5766 54.4486 73.79V73.9955H52.1838V73.6515H54.1141L54.009 73.8378C54.009 73.6562 53.9803 73.5002 53.923 73.3696C53.8657 73.2358 53.7797 73.1323 53.665 73.059C53.5503 72.9857 53.4054 72.9491 53.2302 72.9491C53.0486 72.9491 52.8973 72.9905 52.7763 73.0733C52.6585 73.1561 52.5693 73.2692 52.5087 73.4126C52.4514 73.5559 52.4227 73.7215 52.4227 73.9095C52.4227 74.091 52.4514 74.2551 52.5087 74.4016C52.5693 74.5449 52.6616 74.6596 52.7859 74.7456C52.9101 74.8284 53.0678 74.8698 53.2589 74.8698C53.4596 74.8698 53.622 74.8252 53.7462 74.7361C53.8736 74.6469 53.9501 74.5433 53.9756 74.4255H54.4056C54.3705 74.6007 54.3005 74.752 54.1954 74.8794C54.0902 75.0068 53.9581 75.104 53.7988 75.1708C53.6395 75.2377 53.4596 75.2712 53.2589 75.2712ZM55.0998 75.1852V72.6338H55.463V73.7279H55.4056C55.4056 73.4795 55.4375 73.2692 55.5012 73.0972C55.5681 72.922 55.6668 72.7882 55.7974 72.6959C55.928 72.6035 56.0937 72.5573 56.2943 72.5573H56.3134C56.5141 72.5573 56.6798 72.6035 56.8104 72.6959C56.9441 72.7882 57.0429 72.922 57.1066 73.0972C57.1703 73.2692 57.2021 73.4795 57.2021 73.7279H57.0684C57.0684 73.4795 57.1018 73.2692 57.1687 73.0972C57.2356 72.922 57.3343 72.7882 57.4649 72.6959C57.5987 72.6035 57.7659 72.5573 57.9666 72.5573H57.9857C58.1864 72.5573 58.3536 72.6035 58.4874 72.6959C58.6212 72.7882 58.7199 72.922 58.7836 73.0972C58.8505 73.2692 58.884 73.4795 58.884 73.7279V75.1852H58.4253V73.6276C58.4253 73.4205 58.3743 73.2613 58.2724 73.1498C58.1705 73.0351 58.0287 72.9778 57.8472 72.9778C57.6592 72.9778 57.5079 73.0383 57.3933 73.1593C57.2786 73.2772 57.2213 73.4428 57.2213 73.6562V75.1852H56.7626V73.6276C56.7626 73.4205 56.7116 73.2613 56.6097 73.1498C56.5077 73.0351 56.366 72.9778 56.1844 72.9778C55.9965 72.9778 55.8452 73.0383 55.7305 73.1593C55.6159 73.2772 55.5585 73.4428 55.5585 73.6562V75.1852H55.0998ZM59.5996 74.0528V73.661H61.377V74.0528H59.5996ZM62.6666 75.1852V71.9266L62.8768 72.0891H61.8926V71.6973H63.1253V75.1852H62.6666ZM65.4734 76.1408V71.6973H65.8843V76.1408H65.4734ZM69.437 75.2712C69.1759 75.2712 68.9529 75.2266 68.7681 75.1374C68.5866 75.045 68.4385 74.9208 68.3238 74.7647C68.2123 74.6086 68.1311 74.4287 68.0801 74.2248C68.0291 74.0178 68.0037 73.7996 68.0037 73.5702V73.3122C68.0037 72.9905 68.053 72.7006 68.1518 72.4426C68.2537 72.1846 68.4098 71.9808 68.62 71.8311C68.8334 71.6782 69.1058 71.6017 69.437 71.6017C69.7683 71.6017 70.0391 71.6782 70.2493 71.8311C70.4595 71.9808 70.614 72.1846 70.7128 72.4426C70.8147 72.7006 70.8657 72.9905 70.8657 73.3122V73.5702C70.8657 73.7996 70.8402 74.0178 70.7892 74.2248C70.7382 74.4287 70.6554 74.6086 70.5408 74.7647C70.4293 74.9208 70.2827 75.045 70.1012 75.1374C69.9196 75.2266 69.6982 75.2712 69.437 75.2712ZM69.437 74.8507C69.7683 74.8507 70.0104 74.7392 70.1633 74.5163C70.3194 74.2901 70.3974 73.9334 70.3974 73.446C70.3974 72.9364 70.3178 72.5716 70.1585 72.3519C70.0024 72.1321 69.762 72.0222 69.437 72.0222C69.109 72.0222 68.8653 72.1321 68.706 72.3519C68.5499 72.5716 68.4719 72.9332 68.4719 73.4365C68.4719 73.927 68.5499 74.2853 68.706 74.5115C68.8621 74.7376 69.1058 74.8507 69.437 74.8507ZM71.3442 75.1852L72.2568 73.8426L72.2425 73.9381L71.3872 72.6338H71.8937L72.5101 73.5941H72.5769L73.1599 72.6338H73.6329L72.8254 73.9047L72.8397 73.8187L73.7953 75.1852H73.2889L72.5722 74.1484H72.5053L71.8173 75.1852H71.3442ZM75.6614 75.2712C75.4003 75.2712 75.1773 75.2266 74.9925 75.1374C74.811 75.045 74.6629 74.9208 74.5482 74.7647C74.4367 74.6086 74.3555 74.4287 74.3045 74.2248C74.2535 74.0178 74.2281 73.7996 74.2281 73.5702V73.3122C74.2281 72.9905 74.2774 72.7006 74.3762 72.4426C74.4781 72.1846 74.6342 71.9808 74.8444 71.8311C75.0578 71.6782 75.3302 71.6017 75.6614 71.6017C75.9927 71.6017 76.2635 71.6782 76.4737 71.8311C76.6839 71.9808 76.8384 72.1846 76.9372 72.4426C77.0391 72.7006 77.0901 72.9905 77.0901 73.3122V73.5702C77.0901 73.7996 77.0646 74.0178 77.0136 74.2248C76.9626 74.4287 76.8798 74.6086 76.7652 74.7647C76.6537 74.9208 76.5071 75.045 76.3256 75.1374C76.144 75.2266 75.9226 75.2712 75.6614 75.2712ZM75.6614 74.8507C75.9927 74.8507 76.2348 74.7392 76.3877 74.5163C76.5438 74.2901 76.6218 73.9334 76.6218 73.446C76.6218 72.9364 76.5422 72.5716 76.3829 72.3519C76.2268 72.1321 75.9863 72.0222 75.6614 72.0222C75.3334 72.0222 75.0897 72.1321 74.9304 72.3519C74.7743 72.5716 74.6963 72.9332 74.6963 73.4365C74.6963 73.927 74.7743 74.2853 74.9304 74.5115C75.0865 74.7376 75.3302 74.8507 75.6614 74.8507ZM77.798 75.1852V74.6118C77.798 74.4717 77.8171 74.3522 77.8553 74.2535C77.8967 74.1547 77.9668 74.0655 78.0655 73.9859C78.1643 73.9031 78.2981 73.8235 78.4669 73.747L79.1215 73.446C79.2807 73.3727 79.4066 73.2788 79.4989 73.1641C79.5913 73.0463 79.6375 72.895 79.6375 72.7102C79.6375 72.4872 79.5754 72.3136 79.4511 72.1894C79.3269 72.0652 79.1517 72.0031 78.9256 72.0031C78.7026 72.0031 78.5274 72.0652 78.4 72.1894C78.2726 72.3136 78.2089 72.4872 78.2089 72.7102H77.7598C77.7598 72.5095 77.8012 72.3248 77.884 72.156C77.97 71.9871 78.099 71.8534 78.271 71.7546C78.443 71.6527 78.6612 71.6017 78.9256 71.6017C79.19 71.6017 79.4066 71.6527 79.5754 71.7546C79.7474 71.8534 79.8748 71.984 79.9576 72.1464C80.0436 72.3089 80.0866 72.4856 80.0866 72.6768V72.7436C80.0866 72.9953 80.0134 73.2071 79.8668 73.3791C79.7235 73.5511 79.5292 73.6929 79.2839 73.8044L78.6293 74.1054C78.4828 74.1723 78.3841 74.2391 78.3331 74.306C78.2821 74.3729 78.2567 74.4621 78.2567 74.5736V75.0132L78.1324 74.7934H80.1296V75.1852H77.798Z" fill="white"/>
<rect x="98.4302" y="60.0339" width="44.3667" height="8.19077" rx="1.36513" fill="#5C469C"/>
<path d="M105.044 65.6293V62.1414H105.512V65.6293H105.044ZM107.463 65.658C107.272 65.658 107.107 65.6309 106.967 65.5768C106.83 65.5226 106.723 65.4303 106.646 65.2997C106.573 65.1659 106.537 64.9859 106.537 64.7597V62.3039H106.976V64.8171C106.976 64.9541 107.013 65.0608 107.086 65.1372C107.162 65.2105 107.269 65.2471 107.406 65.2471H107.855V65.658H107.463ZM106.097 63.4219V63.0779H107.855V63.4219H106.097ZM109.57 65.7153C109.347 65.7153 109.154 65.6771 108.992 65.6007C108.829 65.5242 108.697 65.4239 108.595 65.2997C108.493 65.1722 108.417 65.0305 108.366 64.8744C108.318 64.7183 108.294 64.5591 108.294 64.3966V64.3106C108.294 64.145 108.318 63.9841 108.366 63.828C108.417 63.672 108.493 63.5318 108.595 63.4076C108.697 63.2802 108.826 63.1798 108.982 63.1066C109.141 63.0301 109.328 62.9919 109.541 62.9919C109.818 62.9919 110.046 63.0524 110.224 63.1735C110.406 63.2913 110.54 63.4442 110.626 63.6322C110.715 63.8201 110.76 64.0208 110.76 64.2342V64.4396H108.495V64.0956H110.425L110.32 64.282C110.32 64.1004 110.291 63.9443 110.234 63.8137C110.177 63.6799 110.091 63.5764 109.976 63.5031C109.861 63.4299 109.716 63.3933 109.541 63.3933C109.36 63.3933 109.208 63.4347 109.087 63.5175C108.969 63.6003 108.88 63.7134 108.82 63.8567C108.762 64.0001 108.734 64.1657 108.734 64.3536C108.734 64.5352 108.762 64.6992 108.82 64.8457C108.88 64.9891 108.973 65.1038 109.097 65.1898C109.221 65.2726 109.379 65.314 109.57 65.314C109.771 65.314 109.933 65.2694 110.057 65.1802C110.185 65.091 110.261 64.9875 110.287 64.8696H110.717C110.682 65.0448 110.612 65.1961 110.506 65.3235C110.401 65.451 110.269 65.5481 110.11 65.615C109.951 65.6819 109.771 65.7153 109.57 65.7153ZM111.411 65.6293V63.0779H111.774V64.1721H111.717C111.717 63.9236 111.749 63.7134 111.812 63.5414C111.879 63.3662 111.978 63.2324 112.108 63.14C112.239 63.0476 112.405 63.0015 112.605 63.0015H112.624C112.825 63.0015 112.991 63.0476 113.121 63.14C113.255 63.2324 113.354 63.3662 113.418 63.5414C113.481 63.7134 113.513 63.9236 113.513 64.1721H113.379C113.379 63.9236 113.413 63.7134 113.48 63.5414C113.547 63.3662 113.645 63.2324 113.776 63.14C113.91 63.0476 114.077 63.0015 114.278 63.0015H114.297C114.497 63.0015 114.665 63.0476 114.798 63.14C114.932 63.2324 115.031 63.3662 115.095 63.5414C115.162 63.7134 115.195 63.9236 115.195 64.1721V65.6293H114.736V64.0717C114.736 63.8647 114.685 63.7054 114.583 63.5939C114.482 63.4793 114.34 63.4219 114.158 63.4219C113.97 63.4219 113.819 63.4824 113.704 63.6035C113.59 63.7213 113.532 63.887 113.532 64.1004V65.6293H113.074V64.0717C113.074 63.8647 113.023 63.7054 112.921 63.5939C112.819 63.4793 112.677 63.4219 112.495 63.4219C112.308 63.4219 112.156 63.4824 112.042 63.6035C111.927 63.7213 111.87 63.887 111.87 64.1004V65.6293H111.411ZM115.911 64.497V64.1052H117.688V64.497H115.911ZM118.978 65.6293V62.3708L119.188 62.5332H118.204V62.1414H119.436V65.6293H118.978ZM121.784 66.5849V62.1414H122.195V66.5849H121.784ZM125.748 65.7153C125.487 65.7153 125.264 65.6707 125.079 65.5816C124.898 65.4892 124.749 65.365 124.635 65.2089C124.523 65.0528 124.442 64.8728 124.391 64.669C124.34 64.4619 124.315 64.2437 124.315 64.0144V63.7564C124.315 63.4347 124.364 63.1448 124.463 62.8868C124.565 62.6288 124.721 62.4249 124.931 62.2752C125.144 62.1223 125.417 62.0459 125.748 62.0459C126.079 62.0459 126.35 62.1223 126.56 62.2752C126.771 62.4249 126.925 62.6288 127.024 62.8868C127.126 63.1448 127.177 63.4347 127.177 63.7564V64.0144C127.177 64.2437 127.151 64.4619 127.1 64.669C127.049 64.8728 126.966 65.0528 126.852 65.2089C126.74 65.365 126.594 65.4892 126.412 65.5816C126.231 65.6707 126.009 65.7153 125.748 65.7153ZM125.748 65.2949C126.079 65.2949 126.321 65.1834 126.474 64.9604C126.63 64.7343 126.708 64.3775 126.708 63.8902C126.708 63.3805 126.629 63.0158 126.47 62.796C126.313 62.5762 126.073 62.4663 125.748 62.4663C125.42 62.4663 125.176 62.5762 125.017 62.796C124.861 63.0158 124.783 63.3773 124.783 63.8806C124.783 64.3711 124.861 64.7295 125.017 64.9556C125.173 65.1818 125.417 65.2949 125.748 65.2949ZM127.655 65.6293L128.568 64.2867L128.554 64.3823L127.698 63.0779H128.205L128.821 64.0383H128.888L129.471 63.0779H129.944L129.136 64.3488L129.151 64.2628L130.106 65.6293H129.6L128.883 64.5925H128.816L128.128 65.6293H127.655ZM131.972 65.7153C131.711 65.7153 131.488 65.6707 131.304 65.5816C131.122 65.4892 130.974 65.365 130.859 65.2089C130.748 65.0528 130.667 64.8728 130.616 64.669C130.565 64.4619 130.539 64.2437 130.539 64.0144V63.7564C130.539 63.4347 130.588 63.1448 130.687 62.8868C130.789 62.6288 130.945 62.4249 131.155 62.2752C131.369 62.1223 131.641 62.0459 131.972 62.0459C132.304 62.0459 132.575 62.1223 132.785 62.2752C132.995 62.4249 133.149 62.6288 133.248 62.8868C133.35 63.1448 133.401 63.4347 133.401 63.7564V64.0144C133.401 64.2437 133.376 64.4619 133.325 64.669C133.274 64.8728 133.191 65.0528 133.076 65.2089C132.965 65.365 132.818 65.4892 132.637 65.5816C132.455 65.6707 132.234 65.7153 131.972 65.7153ZM131.972 65.2949C132.304 65.2949 132.546 65.1834 132.699 64.9604C132.855 64.7343 132.933 64.3775 132.933 63.8902C132.933 63.3805 132.853 63.0158 132.694 62.796C132.538 62.5762 132.297 62.4663 131.972 62.4663C131.644 62.4663 131.401 62.5762 131.241 62.796C131.085 63.0158 131.007 63.3773 131.007 63.8806C131.007 64.3711 131.085 64.7295 131.241 64.9556C131.398 65.1818 131.641 65.2949 131.972 65.2949ZM134.109 65.6293V65.056C134.109 64.9158 134.128 64.7964 134.166 64.6976C134.208 64.5989 134.278 64.5097 134.377 64.4301C134.475 64.3473 134.609 64.2676 134.778 64.1912L135.433 63.8902C135.592 63.8169 135.718 63.7229 135.81 63.6083C135.902 63.4904 135.949 63.3391 135.949 63.1544C135.949 62.9314 135.886 62.7578 135.762 62.6336C135.638 62.5093 135.463 62.4472 135.237 62.4472C135.014 62.4472 134.838 62.5093 134.711 62.6336C134.584 62.7578 134.52 62.9314 134.52 63.1544H134.071C134.071 62.9537 134.112 62.7689 134.195 62.6001C134.281 62.4313 134.41 62.2975 134.582 62.1988C134.754 62.0968 134.972 62.0459 135.237 62.0459C135.501 62.0459 135.718 62.0968 135.886 62.1988C136.058 62.2975 136.186 62.4281 136.269 62.5906C136.355 62.753 136.398 62.9298 136.398 63.1209V63.1878C136.398 63.4394 136.324 63.6513 136.178 63.8233C136.035 63.9953 135.84 64.137 135.595 64.2485L134.94 64.5495C134.794 64.6164 134.695 64.6833 134.644 64.7502C134.593 64.8171 134.568 64.9063 134.568 65.0178V65.4573L134.443 65.2375H136.441V65.6293H134.109Z" fill="white"/>
<rect x="98.4302" y="69.5898" width="44.3667" height="8.19077" rx="1.36513" fill="#1D267D"/>
<path d="M104.57 75.1852V71.6973H105.038V75.1852H104.57ZM106.99 75.2139C106.799 75.2139 106.633 75.1868 106.493 75.1327C106.356 75.0785 106.249 74.9862 106.173 74.8556C106.1 74.7218 106.063 74.5418 106.063 74.3157V71.8598H106.502V74.373C106.502 74.51 106.539 74.6167 106.612 74.6931C106.689 74.7664 106.796 74.803 106.933 74.803H107.382V75.2139H106.99ZM105.623 72.9778V72.6338H107.382V72.9778H105.623ZM109.096 75.2712C108.873 75.2712 108.681 75.233 108.518 75.1566C108.356 75.0801 108.224 74.9798 108.122 74.8556C108.02 74.7282 107.943 74.5864 107.892 74.4303C107.844 74.2742 107.821 74.115 107.821 73.9525V73.8665C107.821 73.7009 107.844 73.54 107.892 73.384C107.943 73.2279 108.02 73.0877 108.122 72.9635C108.224 72.8361 108.353 72.7357 108.509 72.6625C108.668 72.586 108.854 72.5478 109.068 72.5478C109.345 72.5478 109.573 72.6083 109.751 72.7294C109.932 72.8472 110.066 73.0001 110.152 73.1881C110.241 73.376 110.286 73.5767 110.286 73.7901V73.9955H108.021V73.6515H109.952L109.846 73.8379C109.846 73.6563 109.818 73.5002 109.76 73.3696C109.703 73.2358 109.617 73.1323 109.502 73.0591C109.388 72.9858 109.243 72.9492 109.068 72.9492C108.886 72.9492 108.735 72.9906 108.614 73.0734C108.496 73.1562 108.407 73.2693 108.346 73.4126C108.289 73.556 108.26 73.7216 108.26 73.9095C108.26 74.0911 108.289 74.2551 108.346 74.4017C108.407 74.545 108.499 74.6597 108.623 74.7457C108.748 74.8285 108.905 74.8699 109.096 74.8699C109.297 74.8699 109.459 74.8253 109.584 74.7361C109.711 74.6469 109.788 74.5434 109.813 74.4255H110.243C110.208 74.6007 110.138 74.752 110.033 74.8795C109.928 75.0069 109.795 75.104 109.636 75.1709C109.477 75.2378 109.297 75.2712 109.096 75.2712ZM110.937 75.1852V72.6338H111.3V73.728H111.243C111.243 73.4795 111.275 73.2693 111.339 73.0973C111.406 72.9221 111.504 72.7883 111.635 72.6959C111.765 72.6036 111.931 72.5574 112.132 72.5574H112.151C112.352 72.5574 112.517 72.6036 112.648 72.6959C112.782 72.7883 112.88 72.9221 112.944 73.0973C113.008 73.2693 113.04 73.4795 113.04 73.728H112.906C112.906 73.4795 112.939 73.2693 113.006 73.0973C113.073 72.9221 113.172 72.7883 113.302 72.6959C113.436 72.6036 113.603 72.5574 113.804 72.5574H113.823C114.024 72.5574 114.191 72.6036 114.325 72.6959C114.459 72.7883 114.557 72.9221 114.621 73.0973C114.688 73.2693 114.721 73.4795 114.721 73.728V75.1852H114.263V73.6276C114.263 73.4206 114.212 73.2613 114.11 73.1498C114.008 73.0352 113.866 72.9778 113.685 72.9778C113.497 72.9778 113.345 73.0384 113.231 73.1594C113.116 73.2772 113.059 73.4429 113.059 73.6563V75.1852H112.6V73.6276C112.6 73.4206 112.549 73.2613 112.447 73.1498C112.345 73.0352 112.203 72.9778 112.022 72.9778C111.834 72.9778 111.683 73.0384 111.568 73.1594C111.453 73.2772 111.396 73.4429 111.396 73.6563V75.1852H110.937ZM115.437 74.0529V73.6611H117.214V74.0529H115.437ZM117.892 75.1852V74.6119C117.892 74.4717 117.912 74.3523 117.95 74.2535C117.991 74.1548 118.061 74.0656 118.16 73.986C118.259 73.9032 118.393 73.8235 118.561 73.7471L119.216 73.4461C119.375 73.3728 119.501 73.2788 119.593 73.1642C119.686 73.0463 119.732 72.895 119.732 72.7103C119.732 72.4873 119.67 72.3137 119.546 72.1895C119.421 72.0652 119.246 72.0031 119.02 72.0031C118.797 72.0031 118.622 72.0652 118.494 72.1895C118.367 72.3137 118.303 72.4873 118.303 72.7103H117.854C117.854 72.5096 117.896 72.3248 117.978 72.156C118.064 71.9872 118.193 71.8534 118.365 71.7547C118.537 71.6527 118.756 71.6018 119.02 71.6018C119.284 71.6018 119.501 71.6527 119.67 71.7547C119.842 71.8534 119.969 71.984 120.052 72.1465C120.138 72.3089 120.181 72.4857 120.181 72.6768V72.7437C120.181 72.9953 120.108 73.2072 119.961 73.3792C119.818 73.5512 119.624 73.6929 119.378 73.8044L118.724 74.1054C118.577 74.1723 118.479 74.2392 118.428 74.3061C118.377 74.373 118.351 74.4622 118.351 74.5737V75.0132L118.227 74.7934H120.224V75.1852H117.892ZM122.258 76.1408V71.6973H122.669V76.1408H122.258ZM126.222 75.2712C125.96 75.2712 125.738 75.2267 125.553 75.1375C125.371 75.0451 125.223 74.9209 125.108 74.7648C124.997 74.6087 124.916 74.4287 124.865 74.2249C124.814 74.0178 124.788 73.7996 124.788 73.5703V73.3123C124.788 72.9906 124.838 72.7007 124.936 72.4427C125.038 72.1847 125.194 71.9808 125.405 71.8311C125.618 71.6782 125.89 71.6018 126.222 71.6018C126.553 71.6018 126.824 71.6782 127.034 71.8311C127.244 71.9808 127.399 72.1847 127.497 72.4427C127.599 72.7007 127.65 72.9906 127.65 73.3123V73.5703C127.65 73.7996 127.625 74.0178 127.574 74.2249C127.523 74.4287 127.44 74.6087 127.325 74.7648C127.214 74.9209 127.067 75.0451 126.886 75.1375C126.704 75.2267 126.483 75.2712 126.222 75.2712ZM126.222 74.8508C126.553 74.8508 126.795 74.7393 126.948 74.5163C127.104 74.2902 127.182 73.9334 127.182 73.4461C127.182 72.9364 127.102 72.5717 126.943 72.3519C126.787 72.1321 126.547 72.0222 126.222 72.0222C125.894 72.0222 125.65 72.1321 125.491 72.3519C125.335 72.5717 125.257 72.9332 125.257 73.4365C125.257 73.927 125.335 74.2854 125.491 74.5116C125.647 74.7377 125.89 74.8508 126.222 74.8508ZM128.129 75.1852L129.041 73.8426L129.027 73.9382L128.172 72.6338H128.678L129.295 73.5942H129.362L129.944 72.6338H130.418L129.61 73.9048L129.624 73.8187L130.58 75.1852H130.073L129.357 74.1484H129.29L128.602 75.1852H128.129ZM132.446 75.2712C132.185 75.2712 131.962 75.2267 131.777 75.1375C131.596 75.0451 131.447 74.9209 131.333 74.7648C131.221 74.6087 131.14 74.4287 131.089 74.2249C131.038 74.0178 131.013 73.7996 131.013 73.5703V73.3123C131.013 72.9906 131.062 72.7007 131.161 72.4427C131.263 72.1847 131.419 71.9808 131.629 71.8311C131.842 71.6782 132.115 71.6018 132.446 71.6018C132.777 71.6018 133.048 71.6782 133.258 71.8311C133.469 71.9808 133.623 72.1847 133.722 72.4427C133.824 72.7007 133.875 72.9906 133.875 73.3123V73.5703C133.875 73.7996 133.849 74.0178 133.798 74.2249C133.747 74.4287 133.664 74.6087 133.55 74.7648C133.438 74.9209 133.292 75.0451 133.11 75.1375C132.929 75.2267 132.707 75.2712 132.446 75.2712ZM132.446 74.8508C132.777 74.8508 133.019 74.7393 133.172 74.5163C133.328 74.2902 133.406 73.9334 133.406 73.4461C133.406 72.9364 133.327 72.5717 133.168 72.3519C133.011 72.1321 132.771 72.0222 132.446 72.0222C132.118 72.0222 131.874 72.1321 131.715 72.3519C131.559 72.5717 131.481 72.9332 131.481 73.4365C131.481 73.927 131.559 74.2854 131.715 74.5116C131.871 74.7377 132.115 74.8508 132.446 74.8508ZM134.583 75.1852V74.6119C134.583 74.4717 134.602 74.3523 134.64 74.2535C134.681 74.1548 134.751 74.0656 134.85 73.986C134.949 73.9032 135.083 73.8235 135.252 73.7471L135.906 73.4461C136.065 73.3728 136.191 73.2788 136.284 73.1642C136.376 73.0463 136.422 72.895 136.422 72.7103C136.422 72.4873 136.36 72.3137 136.236 72.1895C136.112 72.0652 135.936 72.0031 135.71 72.0031C135.487 72.0031 135.312 72.0652 135.185 72.1895C135.057 72.3137 134.994 72.4873 134.994 72.7103H134.544C134.544 72.5096 134.586 72.3248 134.669 72.156C134.755 71.9872 134.884 71.8534 135.056 71.7547C135.228 71.6527 135.446 71.6018 135.71 71.6018C135.975 71.6018 136.191 71.6527 136.36 71.7547C136.532 71.8534 136.659 71.984 136.742 72.1465C136.828 72.3089 136.871 72.4857 136.871 72.6768V72.7437C136.871 72.9953 136.798 73.2072 136.651 73.3792C136.508 73.5512 136.314 73.6929 136.069 73.8044L135.414 74.1054C135.267 74.1723 135.169 74.2392 135.118 74.3061C135.067 74.373 135.041 74.4622 135.041 74.5737V75.0132L134.917 74.7934H136.914V75.1852H134.583Z" fill="white"/>
<rect x="98.4302" y="79.1458" width="44.3667" height="8.19077" rx="1.36513" fill="#0C134F"/>
<path d="M111.095 84.8272C110.873 84.8272 110.677 84.7889 110.508 84.7125C110.339 84.636 110.196 84.5357 110.078 84.4115C109.963 84.2841 109.876 84.1423 109.815 83.9862C109.758 83.8302 109.729 83.6709 109.729 83.5084V83.4224C109.729 83.26 109.759 83.1007 109.82 82.9446C109.88 82.7854 109.969 82.6436 110.087 82.5194C110.205 82.392 110.349 82.2917 110.517 82.2184C110.686 82.1419 110.879 82.1037 111.095 82.1037C111.312 82.1037 111.505 82.1419 111.674 82.2184C111.842 82.2917 111.986 82.392 112.104 82.5194C112.221 82.6436 112.311 82.7854 112.371 82.9446C112.432 83.1007 112.462 83.26 112.462 83.4224V83.5084C112.462 83.6709 112.432 83.8302 112.371 83.9862C112.314 84.1423 112.226 84.2841 112.108 84.4115C111.994 84.5357 111.852 84.636 111.683 84.7125C111.514 84.7889 111.318 84.8272 111.095 84.8272ZM111.095 84.4162C111.287 84.4162 111.449 84.3748 111.583 84.292C111.72 84.206 111.823 84.0913 111.893 83.948C111.967 83.8047 112.003 83.6438 112.003 83.4654C112.003 83.2839 111.967 83.1214 111.893 82.9781C111.82 82.8347 111.715 82.7217 111.578 82.6389C111.444 82.556 111.283 82.5146 111.095 82.5146C110.911 82.5146 110.75 82.556 110.613 82.6389C110.476 82.7217 110.371 82.8347 110.298 82.9781C110.224 83.1214 110.188 83.2839 110.188 83.4654C110.188 83.6438 110.223 83.8047 110.293 83.948C110.366 84.0913 110.47 84.206 110.603 84.292C110.74 84.3748 110.904 84.4162 111.095 84.4162ZM113.149 85.6967V82.1897H113.512V83.2934L113.426 83.2839C113.442 83.0099 113.499 82.787 113.598 82.615C113.7 82.4398 113.832 82.3108 113.995 82.2279C114.157 82.1451 114.334 82.1037 114.525 82.1037C114.71 82.1037 114.877 82.1388 115.027 82.2088C115.18 82.2789 115.31 82.3745 115.418 82.4955C115.527 82.6166 115.61 82.7567 115.667 82.916C115.724 83.0752 115.753 83.2441 115.753 83.4224V83.5084C115.753 83.6868 115.723 83.8556 115.662 84.0149C115.602 84.1742 115.516 84.3143 115.404 84.4354C115.296 84.5564 115.165 84.652 115.012 84.722C114.863 84.7921 114.697 84.8272 114.515 84.8272C114.334 84.8272 114.16 84.7873 113.995 84.7077C113.829 84.6281 113.692 84.4991 113.584 84.3207C113.475 84.1423 113.413 83.9082 113.397 83.6183L113.608 84.0006V85.6967H113.149ZM114.444 84.4258C114.616 84.4258 114.765 84.386 114.893 84.3064C115.02 84.2235 115.119 84.1105 115.189 83.9671C115.259 83.8206 115.294 83.6534 115.294 83.4654C115.294 83.2743 115.259 83.1071 115.189 82.9638C115.119 82.8204 115.02 82.7089 114.893 82.6293C114.765 82.5465 114.616 82.5051 114.444 82.5051C114.291 82.5051 114.149 82.5401 114.019 82.6102C113.888 82.6771 113.783 82.7758 113.703 82.9064C113.627 83.0338 113.589 83.1883 113.589 83.3699V83.5897C113.589 83.7649 113.628 83.9146 113.708 84.0388C113.788 84.163 113.893 84.2586 114.023 84.3255C114.154 84.3924 114.294 84.4258 114.444 84.4258ZM116.319 83.6088V83.217H118.096V83.6088H116.319ZM119.935 84.8272C119.712 84.8272 119.52 84.7889 119.357 84.7125C119.195 84.636 119.063 84.5357 118.961 84.4115C118.859 84.2841 118.782 84.1423 118.731 83.9862C118.684 83.8302 118.66 83.6709 118.66 83.5084V83.4224C118.66 83.2568 118.684 83.0959 118.731 82.9399C118.782 82.7838 118.859 82.6436 118.961 82.5194C119.063 82.392 119.192 82.2917 119.348 82.2184C119.507 82.1419 119.693 82.1037 119.907 82.1037C120.184 82.1037 120.412 82.1642 120.59 82.2853C120.771 82.4031 120.905 82.556 120.991 82.744C121.08 82.9319 121.125 83.1326 121.125 83.346V83.5514H118.86V83.2074H120.791L120.685 83.3938C120.685 83.2122 120.657 83.0561 120.599 82.9255C120.542 82.7917 120.456 82.6882 120.341 82.615C120.227 82.5417 120.082 82.5051 119.907 82.5051C119.725 82.5051 119.574 82.5465 119.453 82.6293C119.335 82.7121 119.246 82.8252 119.185 82.9685C119.128 83.1119 119.099 83.2775 119.099 83.4654C119.099 83.647 119.128 83.811 119.185 83.9576C119.246 84.1009 119.338 84.2156 119.462 84.3016C119.587 84.3844 119.744 84.4258 119.935 84.4258C120.136 84.4258 120.298 84.3812 120.423 84.292C120.55 84.2028 120.627 84.0993 120.652 83.9815H121.082C121.047 84.1566 120.977 84.3079 120.872 84.4354C120.767 84.5628 120.635 84.6599 120.475 84.7268C120.316 84.7937 120.136 84.8272 119.935 84.8272ZM123.731 85.6967V83.9815L123.912 83.6183C123.903 83.8955 123.847 84.1232 123.745 84.3016C123.643 84.48 123.511 84.6121 123.348 84.6981C123.189 84.7842 123.014 84.8272 122.823 84.8272C122.641 84.8272 122.474 84.7921 122.321 84.722C122.171 84.652 122.041 84.5548 121.929 84.4306C121.821 84.3064 121.737 84.1646 121.676 84.0053C121.615 83.8429 121.585 83.6709 121.585 83.4893V83.4033C121.585 83.2218 121.615 83.0529 121.676 82.8969C121.737 82.7408 121.823 82.6038 121.934 82.486C122.045 82.3649 122.178 82.271 122.331 82.2041C122.483 82.1372 122.654 82.1037 122.842 82.1037C123.058 82.1037 123.248 82.1499 123.41 82.2423C123.576 82.3347 123.707 82.4684 123.802 82.6436C123.898 82.8188 123.95 83.0322 123.96 83.2839H123.826V82.1897H124.189V85.6967H123.731ZM122.904 84.4067C123.06 84.4067 123.202 84.3717 123.329 84.3016C123.457 84.2315 123.558 84.1312 123.635 84.0006C123.711 83.8668 123.75 83.7107 123.75 83.5323V83.3125C123.75 83.1374 123.71 82.9892 123.63 82.8682C123.554 82.744 123.45 82.65 123.32 82.5863C123.192 82.5194 123.054 82.486 122.904 82.486C122.732 82.486 122.581 82.5258 122.45 82.6054C122.323 82.685 122.222 82.7981 122.149 82.9446C122.079 83.088 122.044 83.2552 122.044 83.4463C122.044 83.6374 122.081 83.8063 122.154 83.9528C122.227 84.0961 122.329 84.2076 122.46 84.2872C122.59 84.3669 122.738 84.4067 122.904 84.4067ZM125.954 84.8176C125.652 84.8176 125.419 84.7189 125.257 84.5214C125.094 84.3239 125.013 84.0388 125.013 83.6661V82.1849H125.472V83.7569C125.472 83.9576 125.526 84.1152 125.634 84.2299C125.743 84.3414 125.889 84.3971 126.074 84.3971C126.265 84.3971 126.421 84.3366 126.542 84.2156C126.663 84.0913 126.724 83.9225 126.724 83.7091V82.1849H127.182V84.7411H126.819V83.647H126.877C126.877 83.8986 126.843 84.1121 126.776 84.2872C126.709 84.4593 126.609 84.5914 126.475 84.6838C126.345 84.773 126.177 84.8176 125.974 84.8176H125.954ZM129.614 84.7411V83.9767H129.538V83.0928C129.538 82.9176 129.491 82.7854 129.399 82.6962C129.31 82.607 129.178 82.5624 129.002 82.5624C128.904 82.5624 128.802 82.564 128.697 82.5672C128.592 82.5704 128.491 82.5736 128.396 82.5767C128.3 82.5799 128.217 82.5847 128.147 82.5911V82.1897C128.217 82.1834 128.29 82.1786 128.367 82.1754C128.447 82.169 128.528 82.1658 128.611 82.1658C128.693 82.1627 128.773 82.1611 128.85 82.1611C129.111 82.1611 129.324 82.1929 129.49 82.2566C129.655 82.3171 129.778 82.4175 129.858 82.5576C129.937 82.6978 129.977 82.8873 129.977 83.1262V84.7411H129.614ZM128.778 84.808C128.587 84.808 128.421 84.7762 128.281 84.7125C128.144 84.6456 128.037 84.55 127.961 84.4258C127.888 84.3016 127.851 84.1519 127.851 83.9767C127.851 83.7951 127.891 83.6438 127.97 83.5228C128.053 83.4017 128.173 83.311 128.329 83.2504C128.485 83.1867 128.673 83.1549 128.893 83.1549H129.585V83.4989H128.873C128.689 83.4989 128.547 83.5435 128.448 83.6327C128.349 83.7219 128.3 83.8365 128.3 83.9767C128.3 84.1168 128.349 84.2299 128.448 84.3159C128.547 84.4019 128.689 84.4449 128.873 84.4449C128.982 84.4449 129.085 84.4258 129.184 84.3876C129.283 84.3462 129.364 84.2793 129.428 84.1869C129.495 84.0913 129.531 83.9608 129.538 83.7951L129.662 83.9767C129.646 84.1582 129.601 84.3111 129.528 84.4354C129.458 84.5564 129.359 84.6488 129.232 84.7125C129.108 84.7762 128.956 84.808 128.778 84.808ZM130.848 84.7411V81.2532H131.306V84.7411H130.848ZM130.494 81.6164V81.2532H131.306V81.6164H130.494Z" fill="white"/>
<path d="M150.217 72.6144V72.1475H153.03V72.6144H150.217ZM150.217 73.7079V73.241H153.03V73.7079H150.217Z" fill="#0C134F"/>
<path d="M64.3019 63.787V35.4606C64.3019 32.4448 66.7467 30.0001 69.7625 30.0001H115.153C118.169 30.0001 120.613 32.4448 120.613 35.4606V52.1834" stroke="#252525" stroke-width="0.341282" stroke-linecap="round" stroke-dasharray="1.71 1.71"/>
<path d="M64.3016 66.0061C65.1498 66.0061 65.8374 65.3185 65.8374 64.4703C65.8374 63.6221 65.1498 62.9345 64.3016 62.9345C63.4534 62.9345 62.7658 63.6221 62.7658 64.4703C62.7658 65.3185 63.4534 66.0061 64.3016 66.0061Z" fill="white" stroke="#252525" stroke-width="1.02385"/>
<path d="M120.246 55.0235L118.645 52.4476C118.482 52.1859 118.588 51.86 118.826 51.7296C118.965 51.6537 119.131 51.6991 119.28 51.7526L119.92 51.9834C120.369 52.1452 120.86 52.1452 121.309 51.9834L121.949 51.7526C122.097 51.6991 122.264 51.6538 122.402 51.7296C122.637 51.8581 122.744 52.1761 122.59 52.4372L121.073 55.0131C120.886 55.3313 120.441 55.3368 120.246 55.0235Z" fill="#252525"/>
<defs>
<linearGradient id="paint0_linear_6353_5724" x1="35.0628" y1="40.5821" x2="67.3579" y2="108.99" gradientUnits="userSpaceOnUse">
<stop stop-color="#662B64"/>
<stop offset="1" stop-color="#456F97"/>
</linearGradient>
<linearGradient id="paint1_linear_6353_5724" x1="158.063" y1="40.5821" x2="190.358" y2="108.99" gradientUnits="userSpaceOnUse">
<stop stop-color="#662B64"/>
<stop offset="1" stop-color="#456F97"/>
</linearGradient>
</defs>
</svg>
