<svg width="253" height="123" viewBox="0 0 253 123" fill="none" xmlns="http://www.w3.org/2000/svg">
<rect width="253" height="123" rx="10" fill="#F4F4F4"/>
<mask id="path-2-inside-1_6353_6152" fill="white">
<path d="M12 46.0405C12 45.2865 12.6112 44.6754 13.3651 44.6754H65.24C65.9939 44.6754 66.6051 45.2865 66.6051 46.0405V91.0897C66.6051 91.8437 65.9939 92.4548 65.24 92.4548H13.3651C12.6112 92.4548 12 91.8437 12 91.0897V46.0405Z"/>
</mask>
<path d="M12 46.0405C12 45.2865 12.6112 44.6754 13.3651 44.6754H65.24C65.9939 44.6754 66.6051 45.2865 66.6051 46.0405V91.0897C66.6051 91.8437 65.9939 92.4548 65.24 92.4548H13.3651C12.6112 92.4548 12 91.8437 12 91.0897V46.0405Z" fill="white"/>
<path d="M12 44.6754H66.6051H12ZM68.6528 91.0897C68.6528 92.9746 67.1248 94.5025 65.24 94.5025H13.3651C11.4803 94.5025 9.95231 92.9746 9.95231 91.0897L14.0477 90.4071H64.5574L68.6528 91.0897ZM13.3651 94.5025C11.4803 94.5025 9.95231 92.9746 9.95231 91.0897V48.0882C9.95231 46.2033 11.4803 44.6754 13.3651 44.6754H14.0477C14.0477 44.6754 14.0477 45.2865 14.0477 46.0405V90.4071L13.3651 94.5025ZM65.24 44.6754C67.1248 44.6754 68.6528 46.2033 68.6528 48.0882V91.0897C68.6528 92.9746 67.1248 94.5025 65.24 94.5025L64.5574 90.4071V46.0405C64.5574 45.2865 64.5574 44.6754 64.5574 44.6754H65.24Z" fill="url(#paint0_linear_6353_6152)" fill-opacity="0.3" mask="url(#path-2-inside-1_6353_6152)"/>
<rect x="17.1192" y="79.1456" width="44.3667" height="8.19077" rx="1.36513" fill="#1D267D"/>
<path d="M24.2703 84.741V82.1895H24.729V84.741H24.2703ZM23.8785 82.5527V82.1895H24.729V82.5527H23.8785ZM24.3993 81.7786C24.2974 81.7786 24.221 81.7516 24.17 81.6974C24.1222 81.6433 24.0983 81.5748 24.0983 81.492C24.0983 81.4091 24.1222 81.3407 24.17 81.2865C24.221 81.2324 24.2974 81.2053 24.3993 81.2053C24.5013 81.2053 24.5761 81.2324 24.6239 81.2865C24.6749 81.3407 24.7003 81.4091 24.7003 81.492C24.7003 81.5748 24.6749 81.6433 24.6239 81.6974C24.5761 81.7516 24.5013 81.7786 24.3993 81.7786ZM26.6097 84.7696C26.4186 84.7696 26.2529 84.7426 26.1128 84.6884C25.9758 84.6343 25.8691 84.5419 25.7927 84.4113C25.7194 84.2775 25.6828 84.0975 25.6828 83.8714V81.4155H26.1223V83.9287C26.1223 84.0657 26.159 84.1724 26.2322 84.2488C26.3087 84.3221 26.4154 84.3587 26.5524 84.3587H27.0015V84.7696H26.6097ZM25.2432 82.5336V82.1895H27.0015V82.5336H25.2432ZM28.7162 84.827C28.4932 84.827 28.3005 84.7887 28.138 84.7123C27.9756 84.6359 27.8434 84.5355 27.7415 84.4113C27.6395 84.2839 27.5631 84.1421 27.5121 83.9861C27.4644 83.83 27.4405 83.6707 27.4405 83.5083V83.4223C27.4405 83.2566 27.4644 83.0958 27.5121 82.9397C27.5631 82.7836 27.6395 82.6434 27.7415 82.5192C27.8434 82.3918 27.9724 82.2915 28.1285 82.2182C28.2878 82.1418 28.4741 82.1035 28.6875 82.1035C28.9646 82.1035 29.1924 82.1641 29.3708 82.2851C29.5523 82.403 29.6861 82.5559 29.7721 82.7438C29.8613 82.9317 29.9059 83.1324 29.9059 83.3458V83.5513H27.6411V83.2072H29.5714L29.4663 83.3936C29.4663 83.212 29.4376 83.0559 29.3803 82.9253C29.323 82.7916 29.237 82.688 29.1223 82.6148C29.0076 82.5415 28.8627 82.5049 28.6875 82.5049C28.5059 82.5049 28.3546 82.5463 28.2336 82.6291C28.1157 82.7119 28.0266 82.825 27.966 82.9683C27.9087 83.1117 27.88 83.2773 27.88 83.4653C27.88 83.6468 27.9087 83.8109 27.966 83.9574C28.0266 84.1007 28.1189 84.2154 28.2432 84.3014C28.3674 84.3842 28.5251 84.4256 28.7162 84.4256C28.9168 84.4256 29.0793 84.381 29.2035 84.2918C29.3309 84.2027 29.4074 84.0991 29.4329 83.9813H29.8629C29.8278 84.1565 29.7578 84.3078 29.6527 84.4352C29.5475 84.5626 29.4153 84.6597 29.2561 84.7266C29.0968 84.7935 28.9168 84.827 28.7162 84.827ZM30.5571 84.741V82.1895H30.9203V83.2837H30.8629C30.8629 83.0352 30.8948 82.825 30.9585 82.653C31.0254 82.4778 31.1241 82.344 31.2547 82.2517C31.3853 82.1593 31.551 82.1131 31.7516 82.1131H31.7707C31.9714 82.1131 32.137 82.1593 32.2676 82.2517C32.4014 82.344 32.5002 82.4778 32.5639 82.653C32.6276 82.825 32.6594 83.0352 32.6594 83.2837H32.5257C32.5257 83.0352 32.5591 82.825 32.626 82.653C32.6929 82.4778 32.7916 82.344 32.9222 82.2517C33.056 82.1593 33.2232 82.1131 33.4239 82.1131H33.443C33.6437 82.1131 33.8109 82.1593 33.9447 82.2517C34.0785 82.344 34.1772 82.4778 34.2409 82.653C34.3078 82.825 34.3413 83.0352 34.3413 83.2837V84.741H33.8826V83.1834C33.8826 82.9763 33.8316 82.817 33.7297 82.7056C33.6278 82.5909 33.486 82.5336 33.3045 82.5336C33.1165 82.5336 32.9652 82.5941 32.8506 82.7151C32.7359 82.833 32.6785 82.9986 32.6785 83.212V84.741H32.2199V83.1834C32.2199 82.9763 32.1689 82.817 32.067 82.7056C31.965 82.5909 31.8233 82.5336 31.6417 82.5336C31.4538 82.5336 31.3025 82.5941 31.1878 82.7151C31.0732 82.833 31.0158 82.9986 31.0158 83.212V84.741H30.5571ZM35.0569 83.6086V83.2168H36.8343V83.6086H35.0569ZM38.1239 84.741V81.4824L38.3341 81.6449H37.3499V81.2531H38.5826V84.741H38.1239ZM40.9307 85.6966V81.2531H41.3416V85.6966H40.9307ZM44.8943 84.827C44.6331 84.827 44.4102 84.7824 44.2254 84.6932C44.0439 84.6008 43.8958 84.4766 43.7811 84.3205C43.6696 84.1644 43.5884 83.9845 43.5374 83.7806C43.4864 83.5736 43.461 83.3554 43.461 83.126V82.868C43.461 82.5463 43.5103 82.2564 43.6091 81.9984C43.711 81.7404 43.8671 81.5366 44.0773 81.3868C44.2907 81.234 44.5631 81.1575 44.8943 81.1575C45.2256 81.1575 45.4964 81.234 45.7066 81.3868C45.9168 81.5366 46.0713 81.7404 46.1701 81.9984C46.272 82.2564 46.323 82.5463 46.323 82.868V83.126C46.323 83.3554 46.2975 83.5736 46.2465 83.7806C46.1955 83.9845 46.1127 84.1644 45.9981 84.3205C45.8866 84.4766 45.74 84.6008 45.5585 84.6932C45.3769 84.7824 45.1555 84.827 44.8943 84.827ZM44.8943 84.4065C45.2256 84.4065 45.4677 84.295 45.6206 84.0721C45.7767 83.8459 45.8547 83.4891 45.8547 83.0018C45.8547 82.4921 45.7751 82.1274 45.6158 81.9076C45.4597 81.6879 45.2192 81.578 44.8943 81.578C44.5663 81.578 44.3226 81.6879 44.1633 81.9076C44.0072 82.1274 43.9292 82.489 43.9292 82.9922C43.9292 83.4828 44.0072 83.8411 44.1633 84.0673C44.3194 84.2934 44.5631 84.4065 44.8943 84.4065ZM46.8015 84.741L47.7141 83.3984L47.6998 83.4939L46.8445 82.1895H47.351L47.9673 83.1499H48.0342L48.6171 82.1895H49.0902L48.2827 83.4605L48.297 83.3745L49.2526 84.741H48.7462L48.0295 83.7042H47.9626L47.2745 84.741H46.8015ZM51.1187 84.827C50.8575 84.827 50.6346 84.7824 50.4498 84.6932C50.2683 84.6008 50.1202 84.4766 50.0055 84.3205C49.894 84.1644 49.8128 83.9845 49.7618 83.7806C49.7108 83.5736 49.6854 83.3554 49.6854 83.126V82.868C49.6854 82.5463 49.7347 82.2564 49.8335 81.9984C49.9354 81.7404 50.0915 81.5366 50.3017 81.3868C50.5151 81.234 50.7875 81.1575 51.1187 81.1575C51.45 81.1575 51.7208 81.234 51.931 81.3868C52.1412 81.5366 52.2957 81.7404 52.3945 81.9984C52.4964 82.2564 52.5473 82.5463 52.5473 82.868V83.126C52.5473 83.3554 52.5219 83.5736 52.4709 83.7806C52.4199 83.9845 52.3371 84.1644 52.2224 84.3205C52.111 84.4766 51.9644 84.6008 51.7829 84.6932C51.6013 84.7824 51.3799 84.827 51.1187 84.827ZM51.1187 84.4065C51.45 84.4065 51.6921 84.295 51.845 84.0721C52.0011 83.8459 52.0791 83.4891 52.0791 83.0018C52.0791 82.4921 51.9995 82.1274 51.8402 81.9076C51.6841 81.6879 51.4436 81.578 51.1187 81.578C50.7907 81.578 50.547 81.6879 50.3877 81.9076C50.2316 82.1274 50.1536 82.489 50.1536 82.9922C50.1536 83.4828 50.2316 83.8411 50.3877 84.0673C50.5438 84.2934 50.7875 84.4065 51.1187 84.4065ZM53.8668 84.741V81.4824L54.0771 81.6449H53.0928V81.2531H54.3255V84.741H53.8668Z" fill="white"/>
<rect x="17.1192" y="69.5898" width="44.3667" height="8.19077" rx="1.36513" fill="#5C469C"/>
<path d="M23.3231 75.1852V72.6338H23.7818V75.1852H23.3231ZM22.9313 72.9969V72.6338H23.7818V72.9969H22.9313ZM23.4521 72.2229C23.3502 72.2229 23.2738 72.1958 23.2228 72.1416C23.175 72.0875 23.1511 72.019 23.1511 71.9362C23.1511 71.8534 23.175 71.7849 23.2228 71.7307C23.2738 71.6766 23.3502 71.6495 23.4521 71.6495C23.5541 71.6495 23.6289 71.6766 23.6767 71.7307C23.7277 71.7849 23.7532 71.8534 23.7532 71.9362C23.7532 72.019 23.7277 72.0875 23.6767 72.1416C23.6289 72.1958 23.5541 72.2229 23.4521 72.2229ZM25.6625 75.2138C25.4714 75.2138 25.3058 75.1868 25.1656 75.1326C25.0286 75.0785 24.9219 74.9861 24.8455 74.8555C24.7722 74.7217 24.7356 74.5418 24.7356 74.3156V71.8597H25.1752V74.3729C25.1752 74.5099 25.2118 74.6166 25.285 74.6931C25.3615 74.7663 25.4682 74.8029 25.6052 74.8029H26.0543V75.2138H25.6625ZM24.296 72.9778V72.6338H26.0543V72.9778H24.296ZM27.769 75.2712C27.546 75.2712 27.3533 75.233 27.1909 75.1565C27.0284 75.0801 26.8962 74.9797 26.7943 74.8555C26.6924 74.7281 26.6159 74.5863 26.5649 74.4303C26.5172 74.2742 26.4933 74.1149 26.4933 73.9525V73.8665C26.4933 73.7008 26.5172 73.54 26.5649 73.3839C26.6159 73.2278 26.6924 73.0877 26.7943 72.9634C26.8962 72.836 27.0252 72.7357 27.1813 72.6624C27.3406 72.586 27.5269 72.5478 27.7403 72.5478C28.0174 72.5478 28.2452 72.6083 28.4236 72.7293C28.6051 72.8472 28.7389 73.0001 28.8249 73.188C28.9141 73.3759 28.9587 73.5766 28.9587 73.79V73.9955H26.6939V73.6515H28.6242L28.5191 73.8378C28.5191 73.6562 28.4905 73.5002 28.4331 73.3696C28.3758 73.2358 28.2898 73.1323 28.1751 73.059C28.0604 72.9857 27.9155 72.9491 27.7403 72.9491C27.5588 72.9491 27.4075 72.9905 27.2864 73.0733C27.1686 73.1561 27.0794 73.2692 27.0188 73.4126C26.9615 73.5559 26.9328 73.7215 26.9328 73.9095C26.9328 74.091 26.9615 74.2551 27.0188 74.4016C27.0794 74.5449 27.1717 74.6596 27.296 74.7456C27.4202 74.8284 27.5779 74.8698 27.769 74.8698C27.9697 74.8698 28.1321 74.8252 28.2563 74.7361C28.3837 74.6469 28.4602 74.5433 28.4857 74.4255H28.9157C28.8807 74.6007 28.8106 74.752 28.7055 74.8794C28.6003 75.0068 28.4682 75.104 28.3089 75.1708C28.1496 75.2377 27.9697 75.2712 27.769 75.2712ZM29.6099 75.1852V72.6338H29.9731V73.7279H29.9157C29.9157 73.4795 29.9476 73.2692 30.0113 73.0972C30.0782 72.922 30.1769 72.7882 30.3075 72.6959C30.4381 72.6035 30.6038 72.5573 30.8044 72.5573H30.8235C31.0242 72.5573 31.1899 72.6035 31.3205 72.6959C31.4542 72.7882 31.553 72.922 31.6167 73.0972C31.6804 73.2692 31.7122 73.4795 31.7122 73.7279H31.5785C31.5785 73.4795 31.6119 73.2692 31.6788 73.0972C31.7457 72.922 31.8444 72.7882 31.975 72.6959C32.1088 72.6035 32.276 72.5573 32.4767 72.5573H32.4958C32.6965 72.5573 32.8637 72.6035 32.9975 72.6959C33.1313 72.7882 33.23 72.922 33.2937 73.0972C33.3606 73.2692 33.3941 73.4795 33.3941 73.7279V75.1852H32.9354V73.6276C32.9354 73.4205 32.8844 73.2613 32.7825 73.1498C32.6806 73.0351 32.5388 72.9778 32.3573 72.9778C32.1693 72.9778 32.018 73.0383 31.9034 73.1593C31.7887 73.2772 31.7314 73.4428 31.7314 73.6562V75.1852H31.2727V73.6276C31.2727 73.4205 31.2217 73.2613 31.1198 73.1498C31.0179 73.0351 30.8761 72.9778 30.6945 72.9778C30.5066 72.9778 30.3553 73.0383 30.2406 73.1593C30.126 73.2772 30.0686 73.4428 30.0686 73.6562V75.1852H29.6099ZM34.1097 74.0528V73.661H35.8871V74.0528H34.1097ZM36.5651 75.1852V74.6118C36.5651 74.4717 36.5842 74.3522 36.6224 74.2535C36.6639 74.1547 36.7339 74.0655 36.8327 73.9859C36.9314 73.9031 37.0652 73.8235 37.234 73.747L37.8886 73.446C38.0479 73.3727 38.1737 73.2788 38.2661 73.1641C38.3584 73.0463 38.4046 72.895 38.4046 72.7102C38.4046 72.4872 38.3425 72.3136 38.2183 72.1894C38.0941 72.0652 37.9189 72.0031 37.6927 72.0031C37.4697 72.0031 37.2945 72.0652 37.1671 72.1894C37.0397 72.3136 36.976 72.4872 36.976 72.7102H36.5269C36.5269 72.5095 36.5683 72.3248 36.6511 72.156C36.7371 71.9871 36.8661 71.8534 37.0381 71.7546C37.2101 71.6527 37.4283 71.6017 37.6927 71.6017C37.9571 71.6017 38.1737 71.6527 38.3425 71.7546C38.5145 71.8534 38.6419 71.984 38.7247 72.1464C38.8107 72.3089 38.8537 72.4856 38.8537 72.6768V72.7436C38.8537 72.9953 38.7805 73.2071 38.634 73.3791C38.4906 73.5511 38.2963 73.6929 38.0511 73.8044L37.3965 74.1054C37.2499 74.1723 37.1512 74.2391 37.1002 74.306C37.0493 74.3729 37.0238 74.4621 37.0238 74.5736V75.0132L36.8996 74.7934H38.8967V75.1852H36.5651ZM40.9307 76.1408V71.6973H41.3416V76.1408H40.9307ZM44.8943 75.2712C44.6331 75.2712 44.4102 75.2266 44.2254 75.1374C44.0439 75.045 43.8958 74.9208 43.7811 74.7647C43.6696 74.6086 43.5884 74.4287 43.5374 74.2248C43.4864 74.0178 43.461 73.7996 43.461 73.5702V73.3122C43.461 72.9905 43.5103 72.7006 43.6091 72.4426C43.711 72.1846 43.8671 71.9808 44.0773 71.8311C44.2907 71.6782 44.5631 71.6017 44.8943 71.6017C45.2256 71.6017 45.4964 71.6782 45.7066 71.8311C45.9168 71.9808 46.0713 72.1846 46.1701 72.4426C46.272 72.7006 46.323 72.9905 46.323 73.3122V73.5702C46.323 73.7996 46.2975 74.0178 46.2465 74.2248C46.1955 74.4287 46.1127 74.6086 45.9981 74.7647C45.8866 74.9208 45.74 75.045 45.5585 75.1374C45.3769 75.2266 45.1555 75.2712 44.8943 75.2712ZM44.8943 74.8507C45.2256 74.8507 45.4677 74.7392 45.6206 74.5163C45.7767 74.2901 45.8547 73.9334 45.8547 73.446C45.8547 72.9364 45.7751 72.5716 45.6158 72.3519C45.4597 72.1321 45.2192 72.0222 44.8943 72.0222C44.5663 72.0222 44.3226 72.1321 44.1633 72.3519C44.0072 72.5716 43.9292 72.9332 43.9292 73.4365C43.9292 73.927 44.0072 74.2853 44.1633 74.5115C44.3194 74.7376 44.5631 74.8507 44.8943 74.8507ZM46.8015 75.1852L47.7141 73.8426L47.6998 73.9381L46.8445 72.6338H47.351L47.9673 73.5941H48.0342L48.6171 72.6338H49.0902L48.2827 73.9047L48.297 73.8187L49.2526 75.1852H48.7462L48.0295 74.1484H47.9626L47.2745 75.1852H46.8015ZM51.1187 75.2712C50.8575 75.2712 50.6346 75.2266 50.4498 75.1374C50.2683 75.045 50.1202 74.9208 50.0055 74.7647C49.894 74.6086 49.8128 74.4287 49.7618 74.2248C49.7108 74.0178 49.6854 73.7996 49.6854 73.5702V73.3122C49.6854 72.9905 49.7347 72.7006 49.8335 72.4426C49.9354 72.1846 50.0915 71.9808 50.3017 71.8311C50.5151 71.6782 50.7875 71.6017 51.1187 71.6017C51.45 71.6017 51.7208 71.6782 51.931 71.8311C52.1412 71.9808 52.2957 72.1846 52.3945 72.4426C52.4964 72.7006 52.5473 72.9905 52.5473 73.3122V73.5702C52.5473 73.7996 52.5219 74.0178 52.4709 74.2248C52.4199 74.4287 52.3371 74.6086 52.2224 74.7647C52.111 74.9208 51.9644 75.045 51.7829 75.1374C51.6013 75.2266 51.3799 75.2712 51.1187 75.2712ZM51.1187 74.8507C51.45 74.8507 51.6921 74.7392 51.845 74.5163C52.0011 74.2901 52.0791 73.9334 52.0791 73.446C52.0791 72.9364 51.9995 72.5716 51.8402 72.3519C51.6841 72.1321 51.4436 72.0222 51.1187 72.0222C50.7907 72.0222 50.547 72.1321 50.3877 72.3519C50.2316 72.5716 50.1536 72.9332 50.1536 73.4365C50.1536 73.927 50.2316 74.2853 50.3877 74.5115C50.5438 74.7376 50.7875 74.8507 51.1187 74.8507ZM53.2553 75.1852V74.6118C53.2553 74.4717 53.2744 74.3522 53.3126 74.2535C53.354 74.1547 53.4241 74.0655 53.5228 73.9859C53.6216 73.9031 53.7554 73.8235 53.9242 73.747L54.5788 73.446C54.738 73.3727 54.8638 73.2788 54.9562 73.1641C55.0486 73.0463 55.0948 72.895 55.0948 72.7102C55.0948 72.4872 55.0327 72.3136 54.9084 72.1894C54.7842 72.0652 54.609 72.0031 54.3829 72.0031C54.1599 72.0031 53.9847 72.0652 53.8573 72.1894C53.7299 72.3136 53.6662 72.4872 53.6662 72.7102H53.217C53.217 72.5095 53.2585 72.3248 53.3413 72.156C53.4273 71.9871 53.5563 71.8534 53.7283 71.7546C53.9003 71.6527 54.1185 71.6017 54.3829 71.6017C54.6472 71.6017 54.8638 71.6527 55.0327 71.7546C55.2047 71.8534 55.3321 71.984 55.4149 72.1464C55.5009 72.3089 55.5439 72.4856 55.5439 72.6768V72.7436C55.5439 72.9953 55.4706 73.2071 55.3241 73.3791C55.1808 73.5511 54.9865 73.6929 54.7412 73.8044L54.0866 74.1054C53.9401 74.1723 53.8414 74.2391 53.7904 74.306C53.7394 74.3729 53.714 74.4621 53.714 74.5736V75.0132L53.5897 74.7934H55.5869V75.1852H53.2553Z" fill="white"/>
<rect x="73.4302" y="60.0339" width="44.3667" height="8.19077" rx="1.36513" fill="#1D267D"/>
<path d="M80.5813 65.6293V63.0779H81.04V65.6293H80.5813ZM80.1895 63.441V63.0779H81.04V63.441H80.1895ZM80.7103 62.667C80.6084 62.667 80.532 62.6399 80.481 62.5858C80.4332 62.5316 80.4093 62.4631 80.4093 62.3803C80.4093 62.2975 80.4332 62.229 80.481 62.1749C80.532 62.1207 80.6084 62.0937 80.7103 62.0937C80.8123 62.0937 80.8871 62.1207 80.9349 62.1749C80.9859 62.229 81.0113 62.2975 81.0113 62.3803C81.0113 62.4631 80.9859 62.5316 80.9349 62.5858C80.8871 62.6399 80.8123 62.667 80.7103 62.667ZM82.9207 65.658C82.7296 65.658 82.5639 65.6309 82.4238 65.5768C82.2868 65.5226 82.1801 65.4303 82.1037 65.2997C82.0304 65.1659 81.9938 64.9859 81.9938 64.7597V62.3039H82.4333V64.8171C82.4333 64.9541 82.47 65.0608 82.5432 65.1372C82.6197 65.2105 82.7264 65.2471 82.8634 65.2471H83.3125V65.658H82.9207ZM81.5542 63.4219V63.0779H83.3125V63.4219H81.5542ZM85.0272 65.7153C84.8042 65.7153 84.6115 65.6771 84.449 65.6007C84.2866 65.5242 84.1544 65.4239 84.0525 65.2997C83.9505 65.1722 83.8741 65.0305 83.8231 64.8744C83.7754 64.7183 83.7515 64.5591 83.7515 64.3966V64.3106C83.7515 64.145 83.7754 63.9841 83.8231 63.828C83.8741 63.672 83.9505 63.5318 84.0525 63.4076C84.1544 63.2802 84.2834 63.1798 84.4395 63.1066C84.5988 63.0301 84.7851 62.9919 84.9985 62.9919C85.2756 62.9919 85.5034 63.0524 85.6818 63.1735C85.8633 63.2913 85.9971 63.4442 86.0831 63.6322C86.1723 63.8201 86.2169 64.0208 86.2169 64.2342V64.4396H83.9521V64.0956H85.8824L85.7773 64.282C85.7773 64.1004 85.7486 63.9443 85.6913 63.8137C85.634 63.6799 85.548 63.5764 85.4333 63.5031C85.3186 63.4299 85.1737 63.3933 84.9985 63.3933C84.8169 63.3933 84.6656 63.4347 84.5446 63.5175C84.4267 63.6003 84.3376 63.7134 84.277 63.8567C84.2197 64.0001 84.191 64.1657 84.191 64.3536C84.191 64.5352 84.2197 64.6992 84.277 64.8457C84.3376 64.9891 84.4299 65.1038 84.5542 65.1898C84.6784 65.2726 84.8361 65.314 85.0272 65.314C85.2278 65.314 85.3903 65.2694 85.5145 65.1802C85.6419 65.091 85.7184 64.9875 85.7439 64.8696H86.1739C86.1388 65.0448 86.0688 65.1961 85.9637 65.3235C85.8585 65.451 85.7263 65.5481 85.5671 65.615C85.4078 65.6819 85.2278 65.7153 85.0272 65.7153ZM86.8681 65.6293V63.0779H87.2313V64.1721H87.1739C87.1739 63.9236 87.2058 63.7134 87.2695 63.5414C87.3364 63.3662 87.4351 63.2324 87.5657 63.14C87.6963 63.0476 87.862 63.0015 88.0626 63.0015H88.0817C88.2824 63.0015 88.448 63.0476 88.5786 63.14C88.7124 63.2324 88.8112 63.3662 88.8749 63.5414C88.9386 63.7134 88.9704 63.9236 88.9704 64.1721H88.8367C88.8367 63.9236 88.8701 63.7134 88.937 63.5414C89.0039 63.3662 89.1026 63.2324 89.2332 63.14C89.367 63.0476 89.5342 63.0015 89.7349 63.0015H89.754C89.9547 63.0015 90.1219 63.0476 90.2557 63.14C90.3895 63.2324 90.4882 63.3662 90.5519 63.5414C90.6188 63.7134 90.6523 63.9236 90.6523 64.1721V65.6293H90.1936V64.0717C90.1936 63.8647 90.1426 63.7054 90.0407 63.5939C89.9388 63.4793 89.797 63.4219 89.6155 63.4219C89.4275 63.4219 89.2762 63.4824 89.1616 63.6035C89.0469 63.7213 88.9895 63.887 88.9895 64.1004V65.6293H88.5309V64.0717C88.5309 63.8647 88.4799 63.7054 88.378 63.5939C88.276 63.4793 88.1343 63.4219 87.9527 63.4219C87.7648 63.4219 87.6135 63.4824 87.4988 63.6035C87.3842 63.7213 87.3268 63.887 87.3268 64.1004V65.6293H86.8681ZM91.3679 64.497V64.1052H93.1453V64.497H91.3679ZM94.4349 65.6293V62.3708L94.6451 62.5332H93.6609V62.1414H94.8936V65.6293H94.4349ZM97.2417 66.5849V62.1414H97.6526V66.5849H97.2417ZM101.205 65.7153C100.944 65.7153 100.721 65.6707 100.536 65.5816C100.355 65.4892 100.207 65.365 100.092 65.2089C99.9806 65.0528 99.8994 64.8728 99.8484 64.669C99.7974 64.4619 99.772 64.2437 99.772 64.0144V63.7564C99.772 63.4347 99.8213 63.1448 99.9201 62.8868C100.022 62.6288 100.178 62.4249 100.388 62.2752C100.602 62.1223 100.874 62.0459 101.205 62.0459C101.537 62.0459 101.807 62.1223 102.018 62.2752C102.228 62.4249 102.382 62.6288 102.481 62.8868C102.583 63.1448 102.634 63.4347 102.634 63.7564V64.0144C102.634 64.2437 102.608 64.4619 102.558 64.669C102.507 64.8728 102.424 65.0528 102.309 65.2089C102.198 65.365 102.051 65.4892 101.869 65.5816C101.688 65.6707 101.467 65.7153 101.205 65.7153ZM101.205 65.2949C101.537 65.2949 101.779 65.1834 101.932 64.9604C102.088 64.7343 102.166 64.3775 102.166 63.8902C102.166 63.3805 102.086 63.0158 101.927 62.796C101.771 62.5762 101.53 62.4663 101.205 62.4663C100.877 62.4663 100.634 62.5762 100.474 62.796C100.318 63.0158 100.24 63.3773 100.24 63.8806C100.24 64.3711 100.318 64.7295 100.474 64.9556C100.63 65.1818 100.874 65.2949 101.205 65.2949ZM103.113 65.6293L104.025 64.2867L104.011 64.3823L103.156 63.0779H103.662L104.278 64.0383H104.345L104.928 63.0779H105.401L104.594 64.3488L104.608 64.2628L105.564 65.6293H105.057L104.34 64.5925H104.274L103.586 65.6293H103.113ZM107.43 65.7153C107.169 65.7153 106.946 65.6707 106.761 65.5816C106.579 65.4892 106.431 65.365 106.316 65.2089C106.205 65.0528 106.124 64.8728 106.073 64.669C106.022 64.4619 105.996 64.2437 105.996 64.0144V63.7564C105.996 63.4347 106.046 63.1448 106.144 62.8868C106.246 62.6288 106.402 62.4249 106.613 62.2752C106.826 62.1223 107.098 62.0459 107.43 62.0459C107.761 62.0459 108.032 62.1223 108.242 62.2752C108.452 62.4249 108.607 62.6288 108.705 62.8868C108.807 63.1448 108.858 63.4347 108.858 63.7564V64.0144C108.858 64.2437 108.833 64.4619 108.782 64.669C108.731 64.8728 108.648 65.0528 108.533 65.2089C108.422 65.365 108.275 65.4892 108.094 65.5816C107.912 65.6707 107.691 65.7153 107.43 65.7153ZM107.43 65.2949C107.761 65.2949 108.003 65.1834 108.156 64.9604C108.312 64.7343 108.39 64.3775 108.39 63.8902C108.39 63.3805 108.31 63.0158 108.151 62.796C107.995 62.5762 107.755 62.4663 107.43 62.4663C107.102 62.4663 106.858 62.5762 106.699 62.796C106.543 63.0158 106.465 63.3773 106.465 63.8806C106.465 64.3711 106.543 64.7295 106.699 64.9556C106.855 65.1818 107.098 65.2949 107.43 65.2949ZM110.178 65.6293V62.3708L110.388 62.5332H109.404V62.1414H110.637V65.6293H110.178Z" fill="white"/>
<rect x="73.4302" y="69.5898" width="44.3667" height="8.19077" rx="1.36513" fill="#5C469C"/>
<path d="M79.6341 75.1852V72.6338H80.0928V75.1852H79.6341ZM79.2423 72.9969V72.6338H80.0928V72.9969H79.2423ZM79.7631 72.2229C79.6612 72.2229 79.5848 72.1958 79.5338 72.1417C79.486 72.0875 79.4621 72.0191 79.4621 71.9362C79.4621 71.8534 79.486 71.7849 79.5338 71.7308C79.5848 71.6766 79.6612 71.6496 79.7631 71.6496C79.8651 71.6496 79.9399 71.6766 79.9877 71.7308C80.0387 71.7849 80.0642 71.8534 80.0642 71.9362C80.0642 72.0191 80.0387 72.0875 79.9877 72.1417C79.9399 72.1958 79.8651 72.2229 79.7631 72.2229ZM81.9735 75.2139C81.7824 75.2139 81.6168 75.1868 81.4766 75.1327C81.3396 75.0785 81.2329 74.9862 81.1565 74.8556C81.0832 74.7218 81.0466 74.5418 81.0466 74.3157V71.8598H81.4862V74.373C81.4862 74.51 81.5228 74.6167 81.596 74.6931C81.6725 74.7664 81.7792 74.803 81.9162 74.803H82.3653V75.2139H81.9735ZM80.607 72.9778V72.6338H82.3653V72.9778H80.607ZM84.08 75.2712C83.857 75.2712 83.6643 75.233 83.5019 75.1566C83.3394 75.0801 83.2072 74.9798 83.1053 74.8556C83.0034 74.7282 82.9269 74.5864 82.8759 74.4303C82.8282 74.2742 82.8043 74.115 82.8043 73.9525V73.8665C82.8043 73.7009 82.8282 73.54 82.8759 73.384C82.9269 73.2279 83.0034 73.0877 83.1053 72.9635C83.2072 72.8361 83.3362 72.7357 83.4923 72.6625C83.6516 72.586 83.8379 72.5478 84.0513 72.5478C84.3284 72.5478 84.5562 72.6083 84.7346 72.7294C84.9161 72.8472 85.0499 73.0001 85.1359 73.1881C85.2251 73.376 85.2697 73.5767 85.2697 73.7901V73.9955H83.0049V73.6515H84.9352L84.8301 73.8379C84.8301 73.6563 84.8015 73.5002 84.7441 73.3696C84.6868 73.2358 84.6008 73.1323 84.4861 73.0591C84.3714 72.9858 84.2265 72.9492 84.0513 72.9492C83.8698 72.9492 83.7185 72.9906 83.5974 73.0734C83.4796 73.1562 83.3904 73.2693 83.3298 73.4126C83.2725 73.556 83.2438 73.7216 83.2438 73.9095C83.2438 74.0911 83.2725 74.2551 83.3298 74.4017C83.3904 74.545 83.4827 74.6597 83.607 74.7457C83.7312 74.8285 83.8889 74.8699 84.08 74.8699C84.2807 74.8699 84.4431 74.8253 84.5673 74.7361C84.6947 74.6469 84.7712 74.5434 84.7967 74.4255H85.2267C85.1917 74.6007 85.1216 74.752 85.0165 74.8795C84.9113 75.0069 84.7792 75.104 84.6199 75.1709C84.4606 75.2378 84.2807 75.2712 84.08 75.2712ZM85.9209 75.1852V72.6338H86.2841V73.728H86.2267C86.2267 73.4795 86.2586 73.2693 86.3223 73.0973C86.3892 72.9221 86.4879 72.7883 86.6185 72.6959C86.7491 72.6036 86.9148 72.5574 87.1154 72.5574H87.1345C87.3352 72.5574 87.5009 72.6036 87.6315 72.6959C87.7652 72.7883 87.864 72.9221 87.9277 73.0973C87.9914 73.2693 88.0232 73.4795 88.0232 73.728H87.8895C87.8895 73.4795 87.9229 73.2693 87.9898 73.0973C88.0567 72.9221 88.1554 72.7883 88.286 72.6959C88.4198 72.6036 88.587 72.5574 88.7877 72.5574H88.8068C89.0075 72.5574 89.1747 72.6036 89.3085 72.6959C89.4423 72.7883 89.541 72.9221 89.6047 73.0973C89.6716 73.2693 89.7051 73.4795 89.7051 73.728V75.1852H89.2464V73.6276C89.2464 73.4206 89.1954 73.2613 89.0935 73.1498C88.9916 73.0352 88.8498 72.9778 88.6683 72.9778C88.4803 72.9778 88.329 73.0384 88.2144 73.1594C88.0997 73.2772 88.0424 73.4429 88.0424 73.6563V75.1852H87.5837V73.6276C87.5837 73.4206 87.5327 73.2613 87.4308 73.1498C87.3289 73.0352 87.1871 72.9778 87.0055 72.9778C86.8176 72.9778 86.6663 73.0384 86.5516 73.1594C86.437 73.2772 86.3796 73.4429 86.3796 73.6563V75.1852H85.9209ZM90.4207 74.0529V73.6611H92.1981V74.0529H90.4207ZM92.8761 75.1852V74.6119C92.8761 74.4717 92.8952 74.3523 92.9334 74.2535C92.9749 74.1548 93.0449 74.0656 93.1437 73.986C93.2424 73.9032 93.3762 73.8235 93.545 73.7471L94.1996 73.4461C94.3589 73.3728 94.4847 73.2788 94.5771 73.1642C94.6694 73.0463 94.7156 72.895 94.7156 72.7103C94.7156 72.4873 94.6535 72.3137 94.5293 72.1895C94.4051 72.0652 94.2299 72.0031 94.0037 72.0031C93.7807 72.0031 93.6055 72.0652 93.4781 72.1895C93.3507 72.3137 93.287 72.4873 93.287 72.7103H92.8379C92.8379 72.5096 92.8793 72.3248 92.9621 72.156C93.0481 71.9872 93.1771 71.8534 93.3491 71.7547C93.5211 71.6527 93.7393 71.6018 94.0037 71.6018C94.2681 71.6018 94.4847 71.6527 94.6535 71.7547C94.8255 71.8534 94.9529 71.984 95.0357 72.1465C95.1217 72.3089 95.1647 72.4857 95.1647 72.6768V72.7437C95.1647 72.9953 95.0915 73.2072 94.945 73.3792C94.8016 73.5512 94.6073 73.6929 94.3621 73.8044L93.7075 74.1054C93.561 74.1723 93.4622 74.2392 93.4112 74.3061C93.3603 74.373 93.3348 74.4622 93.3348 74.5737V75.0132L93.2106 74.7934H95.2078V75.1852H92.8761ZM97.2417 76.1408V71.6973H97.6526V76.1408H97.2417ZM101.205 75.2712C100.944 75.2712 100.721 75.2267 100.536 75.1375C100.355 75.0451 100.207 74.9209 100.092 74.7648C99.9806 74.6087 99.8994 74.4287 99.8484 74.2249C99.7974 74.0178 99.772 73.7996 99.772 73.5703V73.3123C99.772 72.9906 99.8213 72.7007 99.9201 72.4427C100.022 72.1847 100.178 71.9808 100.388 71.8311C100.602 71.6782 100.874 71.6018 101.205 71.6018C101.537 71.6018 101.807 71.6782 102.018 71.8311C102.228 71.9808 102.382 72.1847 102.481 72.4427C102.583 72.7007 102.634 72.9906 102.634 73.3123V73.5703C102.634 73.7996 102.608 74.0178 102.558 74.2249C102.507 74.4287 102.424 74.6087 102.309 74.7648C102.198 74.9209 102.051 75.0451 101.869 75.1375C101.688 75.2267 101.467 75.2712 101.205 75.2712ZM101.205 74.8508C101.537 74.8508 101.779 74.7393 101.932 74.5163C102.088 74.2902 102.166 73.9334 102.166 73.4461C102.166 72.9364 102.086 72.5717 101.927 72.3519C101.771 72.1321 101.53 72.0222 101.205 72.0222C100.877 72.0222 100.634 72.1321 100.474 72.3519C100.318 72.5717 100.24 72.9332 100.24 73.4365C100.24 73.927 100.318 74.2854 100.474 74.5116C100.63 74.7377 100.874 74.8508 101.205 74.8508ZM103.113 75.1852L104.025 73.8426L104.011 73.9382L103.156 72.6338H103.662L104.278 73.5942H104.345L104.928 72.6338H105.401L104.594 73.9048L104.608 73.8187L105.564 75.1852H105.057L104.34 74.1484H104.274L103.586 75.1852H103.113ZM107.43 75.2712C107.169 75.2712 106.946 75.2267 106.761 75.1375C106.579 75.0451 106.431 74.9209 106.316 74.7648C106.205 74.6087 106.124 74.4287 106.073 74.2249C106.022 74.0178 105.996 73.7996 105.996 73.5703V73.3123C105.996 72.9906 106.046 72.7007 106.144 72.4427C106.246 72.1847 106.402 71.9808 106.613 71.8311C106.826 71.6782 107.098 71.6018 107.43 71.6018C107.761 71.6018 108.032 71.6782 108.242 71.8311C108.452 71.9808 108.607 72.1847 108.705 72.4427C108.807 72.7007 108.858 72.9906 108.858 73.3123V73.5703C108.858 73.7996 108.833 74.0178 108.782 74.2249C108.731 74.4287 108.648 74.6087 108.533 74.7648C108.422 74.9209 108.275 75.0451 108.094 75.1375C107.912 75.2267 107.691 75.2712 107.43 75.2712ZM107.43 74.8508C107.761 74.8508 108.003 74.7393 108.156 74.5163C108.312 74.2902 108.39 73.9334 108.39 73.4461C108.39 72.9364 108.31 72.5717 108.151 72.3519C107.995 72.1321 107.755 72.0222 107.43 72.0222C107.102 72.0222 106.858 72.1321 106.699 72.3519C106.543 72.5717 106.465 72.9332 106.465 73.4365C106.465 73.927 106.543 74.2854 106.699 74.5116C106.855 74.7377 107.098 74.8508 107.43 74.8508ZM109.566 75.1852V74.6119C109.566 74.4717 109.585 74.3523 109.624 74.2535C109.665 74.1548 109.735 74.0656 109.834 73.986C109.933 73.9032 110.066 73.8235 110.235 73.7471L110.89 73.4461C111.049 73.3728 111.175 73.2788 111.267 73.1642C111.36 73.0463 111.406 72.895 111.406 72.7103C111.406 72.4873 111.344 72.3137 111.219 72.1895C111.095 72.0652 110.92 72.0031 110.694 72.0031C110.471 72.0031 110.296 72.0652 110.168 72.1895C110.041 72.3137 109.977 72.4873 109.977 72.7103H109.528C109.528 72.5096 109.569 72.3248 109.652 72.156C109.738 71.9872 109.867 71.8534 110.039 71.7547C110.211 71.6527 110.429 71.6018 110.694 71.6018C110.958 71.6018 111.175 71.6527 111.344 71.7547C111.516 71.8534 111.643 71.984 111.726 72.1465C111.812 72.3089 111.855 72.4857 111.855 72.6768V72.7437C111.855 72.9953 111.782 73.2072 111.635 73.3792C111.492 73.5512 111.297 73.6929 111.052 73.8044L110.398 74.1054C110.251 74.1723 110.152 74.2392 110.101 74.3061C110.05 74.373 110.025 74.4622 110.025 74.5737V75.0132L109.901 74.7934H111.898V75.1852H109.566Z" fill="white"/>
<rect x="73.4302" y="79.1458" width="44.3667" height="8.19077" rx="1.36513" fill="#0C134F"/>
<path d="M78.427 84.8272C78.204 84.8272 78.0081 84.7889 77.8393 84.7125C77.6705 84.636 77.5271 84.5357 77.4093 84.4115C77.2946 84.2841 77.207 84.1423 77.1465 83.9862C77.0891 83.8302 77.0605 83.6709 77.0605 83.5084V83.4224C77.0605 83.26 77.0907 83.1007 77.1513 82.9446C77.2118 82.7854 77.301 82.6436 77.4188 82.5194C77.5367 82.392 77.68 82.2917 77.8488 82.2184C78.0177 82.1419 78.2104 82.1037 78.427 82.1037C78.6436 82.1037 78.8363 82.1419 79.0051 82.2184C79.1739 82.2917 79.3173 82.392 79.4351 82.5194C79.553 82.6436 79.6422 82.7854 79.7027 82.9446C79.7632 83.1007 79.7935 83.26 79.7935 83.4224V83.5084C79.7935 83.6709 79.7632 83.8302 79.7027 83.9862C79.6453 84.1423 79.5577 84.2841 79.4399 84.4115C79.3252 84.5357 79.1835 84.636 79.0147 84.7125C78.8458 84.7889 78.6499 84.8272 78.427 84.8272ZM78.427 84.4162C78.6181 84.4162 78.7805 84.3748 78.9143 84.292C79.0513 84.206 79.1548 84.0913 79.2249 83.948C79.2981 83.8047 79.3348 83.6438 79.3348 83.4654C79.3348 83.2839 79.2981 83.1214 79.2249 82.9781C79.1516 82.8347 79.0465 82.7217 78.9095 82.6389C78.7758 82.556 78.6149 82.5146 78.427 82.5146C78.2422 82.5146 78.0814 82.556 77.9444 82.6389C77.8074 82.7217 77.7023 82.8347 77.629 82.9781C77.5558 83.1214 77.5192 83.2839 77.5192 83.4654C77.5192 83.6438 77.5542 83.8047 77.6243 83.948C77.6975 84.0913 77.8011 84.206 77.9348 84.292C78.0718 84.3748 78.2358 84.4162 78.427 84.4162ZM80.4804 85.6967V82.1897H80.8436V83.2934L80.7576 83.2839C80.7735 83.0099 80.8308 82.787 80.9296 82.615C81.0315 82.4398 81.1637 82.3108 81.3261 82.2279C81.4886 82.1451 81.6654 82.1037 81.8565 82.1037C82.0412 82.1037 82.2085 82.1388 82.3582 82.2088C82.5111 82.2789 82.6417 82.3745 82.75 82.4955C82.8583 82.6166 82.9411 82.7567 82.9984 82.916C83.0558 83.0752 83.0844 83.2441 83.0844 83.4224V83.5084C83.0844 83.6868 83.0542 83.8556 82.9936 84.0149C82.9331 84.1742 82.8471 84.3143 82.7356 84.4354C82.6273 84.5564 82.4967 84.652 82.3438 84.722C82.1941 84.7921 82.0285 84.8272 81.8469 84.8272C81.6654 84.8272 81.4918 84.7873 81.3261 84.7077C81.1605 84.6281 81.0235 84.4991 80.9152 84.3207C80.8069 84.1423 80.7448 83.9082 80.7289 83.6183L80.9391 84.0006V85.6967H80.4804ZM81.7753 84.4258C81.9473 84.4258 82.097 84.386 82.2244 84.3064C82.3518 84.2235 82.4505 84.1105 82.5206 83.9671C82.5907 83.8206 82.6257 83.6534 82.6257 83.4654C82.6257 83.2743 82.5907 83.1071 82.5206 82.9638C82.4505 82.8204 82.3518 82.7089 82.2244 82.6293C82.097 82.5465 81.9473 82.5051 81.7753 82.5051C81.6224 82.5051 81.4806 82.5401 81.35 82.6102C81.2194 82.6771 81.1143 82.7758 81.0347 82.9064C80.9582 83.0338 80.92 83.1883 80.92 83.3699V83.5897C80.92 83.7649 80.9598 83.9146 81.0395 84.0388C81.1191 84.163 81.2242 84.2586 81.3548 84.3255C81.4854 84.3924 81.6256 84.4258 81.7753 84.4258ZM83.6504 83.6088V83.217H85.4278V83.6088H83.6504ZM87.1474 85.735C87.0295 85.735 86.9101 85.7302 86.789 85.7206C86.6712 85.7111 86.5581 85.6983 86.4498 85.6824V85.2954C86.5645 85.3113 86.6839 85.3241 86.8082 85.3336C86.9356 85.3464 87.055 85.3527 87.1665 85.3527C87.399 85.3527 87.5838 85.3209 87.7207 85.2572C87.8609 85.1966 87.9612 85.0995 88.0218 84.9657C88.0855 84.8351 88.1173 84.6663 88.1173 84.4593V83.9719L88.2702 83.6088C88.2607 83.8668 88.2065 84.0818 88.1078 84.2538C88.009 84.4226 87.88 84.55 87.7207 84.636C87.5647 84.7189 87.3911 84.7603 87.2 84.7603C87.0216 84.7603 86.8575 84.7268 86.7078 84.6599C86.5613 84.5898 86.4339 84.4943 86.3256 84.3732C86.2205 84.2522 86.1377 84.1136 86.0771 83.9576C86.0198 83.7983 85.9911 83.6311 85.9911 83.4559V83.3699C85.9911 83.1915 86.0214 83.0259 86.0819 82.873C86.1424 82.7169 86.2268 82.5815 86.3351 82.4668C86.4434 82.3522 86.5724 82.263 86.7222 82.1993C86.8751 82.1356 87.0423 82.1037 87.2238 82.1037C87.4373 82.1037 87.6252 82.1499 87.7876 82.2423C87.9501 82.3315 88.0775 82.4637 88.1699 82.6389C88.2654 82.8109 88.318 83.0227 88.3275 83.2743L88.1938 83.2791V82.1897H88.5569V84.4401C88.5569 84.7459 88.5091 84.9928 88.4135 85.1807C88.3212 85.3718 88.1715 85.512 87.9644 85.6012C87.7606 85.6904 87.4882 85.735 87.1474 85.735ZM87.286 84.3398C87.4388 84.3398 87.5774 84.3064 87.7016 84.2395C87.829 84.1726 87.9294 84.077 88.0026 83.9528C88.0791 83.8254 88.1173 83.6741 88.1173 83.4989V83.2791C88.1173 83.1071 88.0775 82.9622 87.9979 82.8443C87.9214 82.7264 87.8211 82.6373 87.6969 82.5767C87.5726 82.5162 87.4373 82.486 87.2907 82.486C87.1251 82.486 86.9786 82.5242 86.8512 82.6006C86.7237 82.6771 86.625 82.7854 86.5549 82.9255C86.4849 83.0625 86.4498 83.2249 86.4498 83.4129C86.4498 83.6008 86.4849 83.7649 86.5549 83.905C86.6282 84.0452 86.7269 84.1535 86.8512 84.2299C86.9786 84.3032 87.1235 84.3398 87.286 84.3398ZM89.4064 84.7411V82.1897H89.7696V83.2409H89.7504C89.7504 82.8682 89.8317 82.5959 89.9941 82.4238C90.1598 82.2487 90.4066 82.1611 90.7347 82.1611H90.8207V82.572H90.6583C90.4034 82.572 90.2075 82.6404 90.0706 82.7774C89.9336 82.9112 89.8651 83.1055 89.8651 83.3603V84.7411H89.4064ZM92.4227 84.8272C92.1998 84.8272 92.0071 84.7889 91.8446 84.7125C91.6822 84.636 91.55 84.5357 91.448 84.4115C91.3461 84.2841 91.2697 84.1423 91.2187 83.9862C91.1709 83.8302 91.147 83.6709 91.147 83.5084V83.4224C91.147 83.2568 91.1709 83.0959 91.2187 82.9399C91.2697 82.7838 91.3461 82.6436 91.448 82.5194C91.55 82.392 91.679 82.2917 91.835 82.2184C91.9943 82.1419 92.1807 82.1037 92.3941 82.1037C92.6712 82.1037 92.8989 82.1642 93.0773 82.2853C93.2589 82.4031 93.3927 82.556 93.4787 82.744C93.5678 82.9319 93.6124 83.1326 93.6124 83.346V83.5514H91.3477V83.2074H93.278L93.1729 83.3938C93.1729 83.2122 93.1442 83.0561 93.0869 82.9255C93.0295 82.7917 92.9435 82.6882 92.8289 82.615C92.7142 82.5417 92.5693 82.5051 92.3941 82.5051C92.2125 82.5051 92.0612 82.5465 91.9402 82.6293C91.8223 82.7121 91.7331 82.8252 91.6726 82.9685C91.6153 83.1119 91.5866 83.2775 91.5866 83.4654C91.5866 83.647 91.6153 83.811 91.6726 83.9576C91.7331 84.1009 91.8255 84.2156 91.9497 84.3016C92.0739 84.3844 92.2316 84.4258 92.4227 84.4258C92.6234 84.4258 92.7859 84.3812 92.9101 84.292C93.0375 84.2028 93.1139 84.0993 93.1394 83.9815H93.5694C93.5344 84.1566 93.4643 84.3079 93.3592 84.4354C93.2541 84.5628 93.1219 84.6599 92.9626 84.7268C92.8034 84.7937 92.6234 84.8272 92.4227 84.8272ZM95.807 84.7411V83.9767H95.7305V83.0928C95.7305 82.9176 95.6843 82.7854 95.592 82.6962C95.5028 82.607 95.3706 82.5624 95.1954 82.5624C95.0967 82.5624 94.9947 82.564 94.8896 82.5672C94.7845 82.5704 94.6842 82.5736 94.5886 82.5767C94.493 82.5799 94.4102 82.5847 94.3401 82.5911V82.1897C94.4102 82.1834 94.4835 82.1786 94.5599 82.1754C94.6396 82.169 94.7208 82.1658 94.8036 82.1658C94.8864 82.1627 94.9661 82.1611 95.0425 82.1611C95.3037 82.1611 95.5171 82.1929 95.6828 82.2566C95.8484 82.3171 95.971 82.4175 96.0507 82.5576C96.1303 82.6978 96.1701 82.8873 96.1701 83.1262V84.7411H95.807ZM94.9708 84.808C94.7797 84.808 94.6141 84.7762 94.4739 84.7125C94.337 84.6456 94.2303 84.55 94.1538 84.4258C94.0805 84.3016 94.0439 84.1519 94.0439 83.9767C94.0439 83.7951 94.0837 83.6438 94.1634 83.5228C94.2462 83.4017 94.3656 83.311 94.5217 83.2504C94.6778 83.1867 94.8657 83.1549 95.0855 83.1549H95.7783V83.4989H95.0664C94.8816 83.4989 94.7399 83.5435 94.6412 83.6327C94.5424 83.7219 94.493 83.8365 94.493 83.9767C94.493 84.1168 94.5424 84.2299 94.6412 84.3159C94.7399 84.4019 94.8816 84.4449 95.0664 84.4449C95.1747 84.4449 95.2782 84.4258 95.377 84.3876C95.4757 84.3462 95.5569 84.2793 95.6206 84.1869C95.6875 84.0913 95.7242 83.9608 95.7305 83.7951L95.8548 83.9767C95.8388 84.1582 95.7942 84.3111 95.721 84.4354C95.6509 84.5564 95.5522 84.6488 95.4247 84.7125C95.3005 84.7762 95.1492 84.808 94.9708 84.808ZM98.0058 84.7698C97.8146 84.7698 97.649 84.7427 97.5089 84.6886C97.3719 84.6344 97.2652 84.5421 97.1887 84.4115C97.1155 84.2777 97.0788 84.0977 97.0788 83.8716V81.4157H97.5184V83.9289C97.5184 84.0659 97.555 84.1726 97.6283 84.249C97.7048 84.3223 97.8115 84.3589 97.9484 84.3589H98.3976V84.7698H98.0058ZM96.6393 82.5337V82.1897H98.3976V82.5337H96.6393ZM100.112 84.8272C99.8893 84.8272 99.6966 84.7889 99.5341 84.7125C99.3717 84.636 99.2395 84.5357 99.1375 84.4115C99.0356 84.2841 98.9592 84.1423 98.9082 83.9862C98.8604 83.8302 98.8365 83.6709 98.8365 83.5084V83.4224C98.8365 83.2568 98.8604 83.0959 98.9082 82.9399C98.9592 82.7838 99.0356 82.6436 99.1375 82.5194C99.2395 82.392 99.3685 82.2917 99.5246 82.2184C99.6838 82.1419 99.8702 82.1037 100.084 82.1037C100.361 82.1037 100.588 82.1642 100.767 82.2853C100.948 82.4031 101.082 82.556 101.168 82.744C101.257 82.9319 101.302 83.1326 101.302 83.346V83.5514H99.0372V83.2074H100.967L100.862 83.3938C100.862 83.2122 100.834 83.0561 100.776 82.9255C100.719 82.7917 100.633 82.6882 100.518 82.615C100.404 82.5417 100.259 82.5051 100.084 82.5051C99.902 82.5051 99.7507 82.5465 99.6297 82.6293C99.5118 82.7121 99.4226 82.8252 99.3621 82.9685C99.3048 83.1119 99.2761 83.2775 99.2761 83.4654C99.2761 83.647 99.3048 83.811 99.3621 83.9576C99.4226 84.1009 99.515 84.2156 99.6392 84.3016C99.7635 84.3844 99.9211 84.4258 100.112 84.4258C100.313 84.4258 100.475 84.3812 100.6 84.292C100.727 84.2028 100.803 84.0993 100.829 83.9815H101.259C101.224 84.1566 101.154 84.3079 101.049 84.4354C100.944 84.5628 100.811 84.6599 100.652 84.7268C100.493 84.7937 100.313 84.8272 100.112 84.8272ZM101.953 84.7411V82.1897H102.316V83.2409H102.297C102.297 82.8682 102.378 82.5959 102.541 82.4238C102.707 82.2487 102.953 82.1611 103.281 82.1611H103.367V82.572H103.205C102.95 82.572 102.754 82.6404 102.617 82.7774C102.48 82.9112 102.412 83.1055 102.412 83.3603V84.7411H101.953ZM104.953 84.7698C104.762 84.7698 104.597 84.7427 104.456 84.6886C104.32 84.6344 104.213 84.5421 104.136 84.4115C104.063 84.2777 104.026 84.0977 104.026 83.8716V81.4157H104.466V83.9289C104.466 84.0659 104.503 84.1726 104.576 84.249C104.652 84.3223 104.759 84.3589 104.896 84.3589H105.345V84.7698H104.953ZM103.587 82.5337V82.1897H105.345V82.5337H103.587ZM105.994 84.7411V81.2532H106.453V83.3364H106.338C106.338 83.0848 106.37 82.8682 106.434 82.6866C106.5 82.5019 106.602 82.3601 106.739 82.2614C106.876 82.1627 107.051 82.1133 107.265 82.1133H107.284C107.59 82.1133 107.821 82.2152 107.977 82.4191C108.133 82.6197 108.211 82.908 108.211 83.2839V84.7411H107.752V83.1883C107.752 82.9813 107.693 82.8204 107.575 82.7057C107.461 82.5911 107.311 82.5337 107.126 82.5337C106.922 82.5337 106.758 82.6022 106.634 82.7392C106.513 82.873 106.453 83.0498 106.453 83.2695V84.7411H105.994ZM110.593 84.7411V83.9767H110.517V83.0928C110.517 82.9176 110.471 82.7854 110.378 82.6962C110.289 82.607 110.157 82.5624 109.982 82.5624C109.883 82.5624 109.781 82.564 109.676 82.5672C109.571 82.5704 109.471 82.5736 109.375 82.5767C109.279 82.5799 109.197 82.5847 109.127 82.5911V82.1897C109.197 82.1834 109.27 82.1786 109.346 82.1754C109.426 82.169 109.507 82.1658 109.59 82.1658C109.673 82.1627 109.753 82.1611 109.829 82.1611C110.09 82.1611 110.304 82.1929 110.469 82.2566C110.635 82.3171 110.757 82.4175 110.837 82.5576C110.917 82.6978 110.957 82.8873 110.957 83.1262V84.7411H110.593ZM109.757 84.808C109.566 84.808 109.401 84.7762 109.26 84.7125C109.123 84.6456 109.017 84.55 108.94 84.4258C108.867 84.3016 108.83 84.1519 108.83 83.9767C108.83 83.7951 108.87 83.6438 108.95 83.5228C109.033 83.4017 109.152 83.311 109.308 83.2504C109.464 83.1867 109.652 83.1549 109.872 83.1549H110.565V83.4989H109.853C109.668 83.4989 109.526 83.5435 109.428 83.6327C109.329 83.7219 109.279 83.8365 109.279 83.9767C109.279 84.1168 109.329 84.2299 109.428 84.3159C109.526 84.4019 109.668 84.4449 109.853 84.4449C109.961 84.4449 110.065 84.4258 110.163 84.3876C110.262 84.3462 110.343 84.2793 110.407 84.1869C110.474 84.0913 110.511 83.9608 110.517 83.7951L110.641 83.9767C110.625 84.1582 110.581 84.3111 110.507 84.4354C110.437 84.5564 110.339 84.6488 110.211 84.7125C110.087 84.7762 109.936 84.808 109.757 84.808ZM111.798 84.7411V82.1897H112.162V83.2839H112.104C112.104 83.0322 112.138 82.8204 112.205 82.6484C112.275 82.4732 112.38 82.341 112.52 82.2518C112.66 82.1595 112.837 82.1133 113.05 82.1133H113.069C113.391 82.1133 113.628 82.2136 113.781 82.4143C113.937 82.615 114.015 82.9048 114.015 83.2839V84.7411H113.557V83.1883C113.557 82.9908 113.501 82.8332 113.389 82.7153C113.278 82.5943 113.125 82.5337 112.931 82.5337C112.73 82.5337 112.568 82.5959 112.443 82.7201C112.319 82.8443 112.257 83.0099 112.257 83.217V84.7411H111.798Z" fill="white"/>
<path d="M125.217 72.6144V72.1475H128.03V72.6144H125.217ZM125.217 73.7079V73.241H128.03V73.7079H125.217Z" fill="#0C134F"/>
<path d="M39.3019 63.787V35.4606C39.3019 32.4448 41.7467 30.0001 44.7625 30.0001H90.153C93.1687 30.0001 95.6135 32.4448 95.6135 35.4606V52.1834" stroke="#252525" stroke-width="0.341282" stroke-linecap="round" stroke-dasharray="1.71 1.71"/>
<path d="M39.3016 66.0061C40.1498 66.0061 40.8374 65.3185 40.8374 64.4703C40.8374 63.6221 40.1498 62.9345 39.3016 62.9345C38.4534 62.9345 37.7658 63.6221 37.7658 64.4703C37.7658 65.3185 38.4534 66.0061 39.3016 66.0061Z" fill="white" stroke="#252525" stroke-width="1.02385"/>
<path d="M95.2458 55.0235L93.6446 52.4476C93.4819 52.1859 93.5883 51.86 93.8263 51.7296C93.9647 51.6537 94.1311 51.6991 94.2796 51.7526L94.9198 51.9834C95.3686 52.1452 95.8599 52.1452 96.3087 51.9834L96.9489 51.7526C97.0974 51.6991 97.2638 51.6538 97.4022 51.7296C97.6365 51.8581 97.7439 52.1761 97.5901 52.4372L96.0732 55.0131C95.8859 55.3313 95.4406 55.3368 95.2458 55.0235Z" fill="#252525"/>
<mask id="path-18-inside-2_6353_6152" fill="white">
<path d="M186 46.3651C186 45.6112 186.611 45 187.365 45H239.24C239.994 45 240.605 45.6112 240.605 46.3651V91.4144C240.605 92.1683 239.994 92.7795 239.24 92.7795H187.365C186.611 92.7795 186 92.1683 186 91.4144V46.3651Z"/>
</mask>
<path d="M186 46.3651C186 45.6112 186.611 45 187.365 45H239.24C239.994 45 240.605 45.6112 240.605 46.3651V91.4144C240.605 92.1683 239.994 92.7795 239.24 92.7795H187.365C186.611 92.7795 186 92.1683 186 91.4144V46.3651Z" fill="white"/>
<path d="M186 45H240.605H186ZM242.653 91.4144C242.653 93.2992 241.125 94.8272 239.24 94.8272H187.365C185.48 94.8272 183.952 93.2992 183.952 91.4144L188.048 90.7318H238.557L242.653 91.4144ZM187.365 94.8272C185.48 94.8272 183.952 93.2992 183.952 91.4144V48.4128C183.952 46.528 185.48 45 187.365 45H188.048C188.048 45 188.048 45.6112 188.048 46.3651V90.7318L187.365 94.8272ZM239.24 45C241.125 45 242.653 46.528 242.653 48.4128V91.4144C242.653 93.2992 241.125 94.8272 239.24 94.8272L238.557 90.7318V46.3651C238.557 45.6112 238.557 45 238.557 45H239.24Z" fill="url(#paint1_linear_6353_6152)" fill-opacity="0.3" mask="url(#path-18-inside-2_6353_6152)"/>
<rect x="191.515" y="79.1456" width="44.3667" height="8.19077" rx="1.36513" fill="#1D267D"/>
<path d="M198.202 84.741V82.1895H198.66V84.741H198.202ZM197.81 82.5527V82.1895H198.66V82.5527H197.81ZM198.331 81.7786C198.229 81.7786 198.152 81.7516 198.101 81.6974C198.054 81.6433 198.03 81.5748 198.03 81.492C198.03 81.4091 198.054 81.3407 198.101 81.2865C198.152 81.2324 198.229 81.2053 198.331 81.2053C198.433 81.2053 198.507 81.2324 198.555 81.2865C198.606 81.3407 198.632 81.4091 198.632 81.492C198.632 81.5748 198.606 81.6433 198.555 81.6974C198.507 81.7516 198.433 81.7786 198.331 81.7786ZM200.541 84.7696C200.35 84.7696 200.184 84.7426 200.044 84.6884C199.907 84.6343 199.8 84.5419 199.724 84.4113C199.651 84.2775 199.614 84.0975 199.614 83.8714V81.4155H200.054V83.9287C200.054 84.0657 200.09 84.1724 200.164 84.2488C200.24 84.3221 200.347 84.3587 200.484 84.3587H200.933V84.7696H200.541ZM199.175 82.5336V82.1895H200.933V82.5336H199.175ZM202.647 84.827C202.425 84.827 202.232 84.7887 202.069 84.7123C201.907 84.6359 201.775 84.5355 201.673 84.4113C201.571 84.2839 201.494 84.1421 201.443 83.9861C201.396 83.83 201.372 83.6707 201.372 83.5083V83.4223C201.372 83.2566 201.396 83.0958 201.443 82.9397C201.494 82.7836 201.571 82.6434 201.673 82.5192C201.775 82.3918 201.904 82.2915 202.06 82.2182C202.219 82.1418 202.405 82.1035 202.619 82.1035C202.896 82.1035 203.124 82.1641 203.302 82.2851C203.484 82.403 203.617 82.5559 203.703 82.7438C203.793 82.9317 203.837 83.1324 203.837 83.3458V83.5513H201.572V83.2072H203.503L203.398 83.3936C203.398 83.212 203.369 83.0559 203.312 82.9253C203.254 82.7916 203.168 82.688 203.054 82.6148C202.939 82.5415 202.794 82.5049 202.619 82.5049C202.437 82.5049 202.286 82.5463 202.165 82.6291C202.047 82.7119 201.958 82.825 201.897 82.9683C201.84 83.1117 201.811 83.2773 201.811 83.4653C201.811 83.6468 201.84 83.8109 201.897 83.9574C201.958 84.1007 202.05 84.2154 202.174 84.3014C202.299 84.3842 202.456 84.4256 202.647 84.4256C202.848 84.4256 203.011 84.381 203.135 84.2918C203.262 84.2027 203.339 84.0991 203.364 83.9813H203.794C203.759 84.1565 203.689 84.3078 203.584 84.4352C203.479 84.5626 203.347 84.6597 203.187 84.7266C203.028 84.7935 202.848 84.827 202.647 84.827ZM204.488 84.741V82.1895H204.852V83.2837H204.794C204.794 83.0352 204.826 82.825 204.89 82.653C204.957 82.4778 205.055 82.344 205.186 82.2517C205.317 82.1593 205.482 82.1131 205.683 82.1131H205.702C205.903 82.1131 206.068 82.1593 206.199 82.2517C206.333 82.344 206.431 82.4778 206.495 82.653C206.559 82.825 206.591 83.0352 206.591 83.2837H206.457C206.457 83.0352 206.49 82.825 206.557 82.653C206.624 82.4778 206.723 82.344 206.854 82.2517C206.987 82.1593 207.155 82.1131 207.355 82.1131H207.374C207.575 82.1131 207.742 82.1593 207.876 82.2517C208.01 82.344 208.109 82.4778 208.172 82.653C208.239 82.825 208.273 83.0352 208.273 83.2837V84.741H207.814V83.1834C207.814 82.9763 207.763 82.817 207.661 82.7056C207.559 82.5909 207.417 82.5336 207.236 82.5336C207.048 82.5336 206.897 82.5941 206.782 82.7151C206.667 82.833 206.61 82.9986 206.61 83.212V84.741H206.151V83.1834C206.151 82.9763 206.1 82.817 205.998 82.7056C205.896 82.5909 205.755 82.5336 205.573 82.5336C205.385 82.5336 205.234 82.5941 205.119 82.7151C205.004 82.833 204.947 82.9986 204.947 83.212V84.741H204.488ZM208.988 83.6086V83.2168H210.766V83.6086H208.988ZM212.509 84.827C212.248 84.827 212.027 84.776 211.845 84.6741C211.663 84.5721 211.525 84.4368 211.429 84.2679C211.337 84.0991 211.291 83.916 211.291 83.7185H211.74C211.74 83.9351 211.808 84.1071 211.945 84.2345C212.085 84.3619 212.273 84.4256 212.509 84.4256C212.665 84.4256 212.801 84.397 212.915 84.3396C213.03 84.2823 213.119 84.2011 213.183 84.0959C213.246 83.9876 213.278 83.8618 213.278 83.7185C213.278 83.5019 213.208 83.3267 213.068 83.1929C212.931 83.0591 212.746 82.9922 212.514 82.9922C212.415 82.9922 212.329 83.005 212.256 83.0305C212.186 83.0528 212.124 83.0814 212.07 83.1165L211.84 82.7056L213.173 81.7309L213.125 81.6449H211.429V81.2531H213.555V81.8885L212.452 82.6912L212.117 82.7056C212.171 82.6864 212.23 82.6705 212.294 82.6578C212.361 82.645 212.439 82.6387 212.528 82.6387C212.783 82.6387 213 82.6864 213.178 82.782C213.356 82.8776 213.492 83.005 213.584 83.1642C213.68 83.3235 213.727 83.4971 213.727 83.685V83.7519C213.727 83.9367 213.68 84.1119 213.584 84.2775C213.492 84.44 213.355 84.5721 213.173 84.6741C212.995 84.776 212.773 84.827 212.509 84.827ZM215.791 85.6966V81.2531H216.201V85.6966H215.791ZM219.754 84.827C219.493 84.827 219.27 84.7824 219.085 84.6932C218.904 84.6008 218.756 84.4766 218.641 84.3205C218.529 84.1644 218.448 83.9845 218.397 83.7806C218.346 83.5736 218.321 83.3554 218.321 83.126V82.868C218.321 82.5463 218.37 82.2564 218.469 81.9984C218.571 81.7404 218.727 81.5366 218.937 81.3868C219.151 81.234 219.423 81.1575 219.754 81.1575C220.085 81.1575 220.356 81.234 220.566 81.3868C220.777 81.5366 220.931 81.7404 221.03 81.9984C221.132 82.2564 221.183 82.5463 221.183 82.868V83.126C221.183 83.3554 221.157 83.5736 221.106 83.7806C221.055 83.9845 220.973 84.1644 220.858 84.3205C220.746 84.4766 220.6 84.6008 220.418 84.6932C220.237 84.7824 220.015 84.827 219.754 84.827ZM219.754 84.4065C220.085 84.4065 220.328 84.295 220.48 84.0721C220.637 83.8459 220.715 83.4891 220.715 83.0018C220.715 82.4921 220.635 82.1274 220.476 81.9076C220.32 81.6879 220.079 81.578 219.754 81.578C219.426 81.578 219.182 81.6879 219.023 81.9076C218.867 82.1274 218.789 82.489 218.789 82.9922C218.789 83.4828 218.867 83.8411 219.023 84.0673C219.179 84.2934 219.423 84.4065 219.754 84.4065ZM221.661 84.741L222.574 83.3984L222.56 83.4939L221.704 82.1895H222.211L222.827 83.1499H222.894L223.477 82.1895H223.95L223.143 83.4605L223.157 83.3745L224.112 84.741H223.606L222.889 83.7042H222.822L222.134 84.741H221.661ZM225.979 84.827C225.717 84.827 225.494 84.7824 225.31 84.6932C225.128 84.6008 224.98 84.4766 224.865 84.3205C224.754 84.1644 224.673 83.9845 224.622 83.7806C224.571 83.5736 224.545 83.3554 224.545 83.126V82.868C224.545 82.5463 224.595 82.2564 224.693 81.9984C224.795 81.7404 224.951 81.5366 225.162 81.3868C225.375 81.234 225.647 81.1575 225.979 81.1575C226.31 81.1575 226.581 81.234 226.791 81.3868C227.001 81.5366 227.156 81.7404 227.254 81.9984C227.356 82.2564 227.407 82.5463 227.407 82.868V83.126C227.407 83.3554 227.382 83.5736 227.331 83.7806C227.28 83.9845 227.197 84.1644 227.082 84.3205C226.971 84.4766 226.824 84.6008 226.643 84.6932C226.461 84.7824 226.24 84.827 225.979 84.827ZM225.979 84.4065C226.31 84.4065 226.552 84.295 226.705 84.0721C226.861 83.8459 226.939 83.4891 226.939 83.0018C226.939 82.4921 226.859 82.1274 226.7 81.9076C226.544 81.6879 226.303 81.578 225.979 81.578C225.65 81.578 225.407 81.6879 225.248 81.9076C225.091 82.1274 225.013 82.489 225.013 82.9922C225.013 83.4828 225.091 83.8411 225.248 84.0673C225.404 84.2934 225.647 84.4065 225.979 84.4065ZM228.727 84.741V81.4824L228.937 81.6449H227.953V81.2531H229.185V84.741H228.727Z" fill="white"/>
<rect x="135.373" y="69.7604" width="44.0254" height="7.84949" rx="1.19449" fill="#1D267D"/>
<rect x="135.373" y="69.7604" width="44.0254" height="7.84949" rx="1.19449" stroke="#0C134F" stroke-width="0.341282"/>
<path d="M141.89 75.1852V72.6338H142.348V75.1852H141.89ZM141.498 72.9969V72.6338H142.348V72.9969H141.498ZM142.019 72.2229C141.917 72.2229 141.84 72.1958 141.789 72.1416C141.741 72.0875 141.718 72.019 141.718 71.9362C141.718 71.8534 141.741 71.7849 141.789 71.7307C141.84 71.6766 141.917 71.6495 142.019 71.6495C142.12 71.6495 142.195 71.6766 142.243 71.7307C142.294 71.7849 142.32 71.8534 142.32 71.9362C142.32 72.019 142.294 72.0875 142.243 72.1416C142.195 72.1958 142.12 72.2229 142.019 72.2229ZM144.229 75.2138C144.038 75.2138 143.872 75.1868 143.732 75.1326C143.595 75.0785 143.488 74.9861 143.412 74.8555C143.339 74.7217 143.302 74.5418 143.302 74.3156V71.8597H143.742V74.3729C143.742 74.5099 143.778 74.6166 143.851 74.6931C143.928 74.7663 144.035 74.8029 144.172 74.8029H144.621V75.2138H144.229ZM142.862 72.9778V72.6338H144.621V72.9778H142.862ZM146.335 75.2712C146.112 75.2712 145.92 75.233 145.757 75.1565C145.595 75.0801 145.463 74.9797 145.361 74.8555C145.259 74.7281 145.182 74.5863 145.131 74.4303C145.084 74.2742 145.06 74.1149 145.06 73.9525V73.8665C145.06 73.7008 145.084 73.54 145.131 73.3839C145.182 73.2278 145.259 73.0877 145.361 72.9634C145.463 72.836 145.592 72.7357 145.748 72.6624C145.907 72.586 146.093 72.5478 146.307 72.5478C146.584 72.5478 146.812 72.6083 146.99 72.7293C147.171 72.8472 147.305 73.0001 147.391 73.188C147.48 73.3759 147.525 73.5766 147.525 73.79V73.9955H145.26V73.6515H147.191L147.085 73.8378C147.085 73.6562 147.057 73.5002 146.999 73.3696C146.942 73.2358 146.856 73.1323 146.741 73.059C146.627 72.9857 146.482 72.9491 146.307 72.9491C146.125 72.9491 145.974 72.9905 145.853 73.0733C145.735 73.1561 145.646 73.2692 145.585 73.4126C145.528 73.5559 145.499 73.7215 145.499 73.9095C145.499 74.091 145.528 74.2551 145.585 74.4016C145.646 74.5449 145.738 74.6596 145.862 74.7456C145.987 74.8284 146.144 74.8698 146.335 74.8698C146.536 74.8698 146.698 74.8252 146.823 74.7361C146.95 74.6469 147.027 74.5433 147.052 74.4255H147.482C147.447 74.6007 147.377 74.752 147.272 74.8794C147.167 75.0068 147.035 75.104 146.875 75.1708C146.716 75.2377 146.536 75.2712 146.335 75.2712ZM148.176 75.1852V72.6338H148.539V73.7279H148.482C148.482 73.4795 148.514 73.2692 148.578 73.0972C148.645 72.922 148.743 72.7882 148.874 72.6959C149.004 72.6035 149.17 72.5573 149.371 72.5573H149.39C149.591 72.5573 149.756 72.6035 149.887 72.6959C150.021 72.7882 150.119 72.922 150.183 73.0972C150.247 73.2692 150.279 73.4795 150.279 73.7279H150.145C150.145 73.4795 150.178 73.2692 150.245 73.0972C150.312 72.922 150.411 72.7882 150.541 72.6959C150.675 72.6035 150.842 72.5573 151.043 72.5573H151.062C151.263 72.5573 151.43 72.6035 151.564 72.6959C151.698 72.7882 151.796 72.922 151.86 73.0972C151.927 73.2692 151.96 73.4795 151.96 73.7279V75.1852H151.502V73.6276C151.502 73.4205 151.451 73.2613 151.349 73.1498C151.247 73.0351 151.105 72.9778 150.924 72.9778C150.736 72.9778 150.584 73.0383 150.47 73.1593C150.355 73.2772 150.298 73.4428 150.298 73.6562V75.1852H149.839V73.6276C149.839 73.4205 149.788 73.2613 149.686 73.1498C149.584 73.0351 149.442 72.9778 149.261 72.9778C149.073 72.9778 148.922 73.0383 148.807 73.1593C148.692 73.2772 148.635 73.4428 148.635 73.6562V75.1852H148.176ZM152.676 74.0528V73.661H154.453V74.0528H152.676ZM156.197 75.2712C155.936 75.2712 155.714 75.2202 155.533 75.1183C155.351 75.0164 155.213 74.881 155.117 74.7122C155.025 74.5433 154.979 74.3602 154.979 74.1627H155.428C155.428 74.3793 155.496 74.5513 155.633 74.6787C155.773 74.8061 155.961 74.8698 156.197 74.8698C156.353 74.8698 156.488 74.8412 156.603 74.7838C156.718 74.7265 156.807 74.6453 156.871 74.5402C156.934 74.4319 156.966 74.306 156.966 74.1627C156.966 73.9461 156.896 73.7709 156.756 73.6371C156.619 73.5033 156.434 73.4365 156.202 73.4365C156.103 73.4365 156.017 73.4492 155.944 73.4747C155.874 73.497 155.812 73.5256 155.757 73.5607L155.528 73.1498L156.861 72.1751L156.813 72.0891H155.117V71.6973H157.243V72.3327L156.14 73.1354L155.805 73.1498C155.859 73.1307 155.918 73.1147 155.982 73.102C156.049 73.0893 156.127 73.0829 156.216 73.0829C156.471 73.0829 156.688 73.1307 156.866 73.2262C157.044 73.3218 157.18 73.4492 157.272 73.6085C157.368 73.7677 157.415 73.9413 157.415 74.1293V74.1961C157.415 74.3809 157.368 74.5561 157.272 74.7217C157.18 74.8842 157.043 75.0164 156.861 75.1183C156.683 75.2202 156.461 75.2712 156.197 75.2712ZM159.478 76.1408V71.6973H159.889V76.1408H159.478ZM163.442 75.2712C163.181 75.2712 162.958 75.2266 162.773 75.1374C162.592 75.045 162.443 74.9208 162.329 74.7647C162.217 74.6086 162.136 74.4287 162.085 74.2248C162.034 74.0178 162.009 73.7996 162.009 73.5702V73.3122C162.009 72.9905 162.058 72.7006 162.157 72.4426C162.259 72.1846 162.415 71.9808 162.625 71.8311C162.838 71.6782 163.111 71.6017 163.442 71.6017C163.773 71.6017 164.044 71.6782 164.254 71.8311C164.465 71.9808 164.619 72.1846 164.718 72.4426C164.82 72.7006 164.871 72.9905 164.871 73.3122V73.5702C164.871 73.7996 164.845 74.0178 164.794 74.2248C164.743 74.4287 164.66 74.6086 164.546 74.7647C164.434 74.9208 164.288 75.045 164.106 75.1374C163.925 75.2266 163.703 75.2712 163.442 75.2712ZM163.442 74.8507C163.773 74.8507 164.015 74.7392 164.168 74.5163C164.324 74.2901 164.402 73.9334 164.402 73.446C164.402 72.9364 164.323 72.5716 164.164 72.3519C164.007 72.1321 163.767 72.0222 163.442 72.0222C163.114 72.0222 162.87 72.1321 162.711 72.3519C162.555 72.5716 162.477 72.9332 162.477 73.4365C162.477 73.927 162.555 74.2853 162.711 74.5115C162.867 74.7376 163.111 74.8507 163.442 74.8507ZM165.349 75.1852L166.262 73.8426L166.247 73.9381L165.392 72.6338H165.899L166.515 73.5941H166.582L167.165 72.6338H167.638L166.83 73.9047L166.845 73.8187L167.8 75.1852H167.294L166.577 74.1484H166.51L165.822 75.1852H165.349ZM169.666 75.2712C169.405 75.2712 169.182 75.2266 168.998 75.1374C168.816 75.045 168.668 74.9208 168.553 74.7647C168.442 74.6086 168.36 74.4287 168.31 74.2248C168.259 74.0178 168.233 73.7996 168.233 73.5702V73.3122C168.233 72.9905 168.282 72.7006 168.381 72.4426C168.483 72.1846 168.639 71.9808 168.849 71.8311C169.063 71.6782 169.335 71.6017 169.666 71.6017C169.998 71.6017 170.268 71.6782 170.479 71.8311C170.689 71.9808 170.843 72.1846 170.942 72.4426C171.044 72.7006 171.095 72.9905 171.095 73.3122V73.5702C171.095 73.7996 171.07 74.0178 171.019 74.2248C170.968 74.4287 170.885 74.6086 170.77 74.7647C170.659 74.9208 170.512 75.045 170.331 75.1374C170.149 75.2266 169.928 75.2712 169.666 75.2712ZM169.666 74.8507C169.998 74.8507 170.24 74.7392 170.393 74.5163C170.549 74.2901 170.627 73.9334 170.627 73.446C170.627 72.9364 170.547 72.5716 170.388 72.3519C170.232 72.1321 169.991 72.0222 169.666 72.0222C169.338 72.0222 169.095 72.1321 168.935 72.3519C168.779 72.5716 168.701 72.9332 168.701 73.4365C168.701 73.927 168.779 74.2853 168.935 74.5115C169.092 74.7376 169.335 74.8507 169.666 74.8507ZM172.415 75.1852V71.9266L172.625 72.0891H171.641V71.6973H172.873V75.1852H172.415Z" fill="white"/>
<path d="M158.409 63.7869V35.4605C158.409 32.4448 160.854 30 163.87 30H209.26C212.276 30 214.721 32.4448 214.721 35.4605V59.5887" stroke="#252525" stroke-width="0.341282" stroke-linecap="round" stroke-dasharray="1.71 1.71"/>
<path d="M158.409 66.005C159.257 66.005 159.945 65.3174 159.945 64.4692C159.945 63.621 159.257 62.9334 158.409 62.9334C157.561 62.9334 156.873 63.621 156.873 64.4692C156.873 65.3174 157.561 66.005 158.409 66.005Z" fill="white" stroke="#252525" stroke-width="1.02385"/>
<path d="M214.353 62.0869L212.752 59.511C212.589 59.2493 212.696 58.9234 212.934 58.793C213.072 58.7171 213.238 58.7625 213.387 58.816L214.027 59.0468C214.476 59.2086 214.967 59.2086 215.416 59.0468L216.056 58.816C216.205 58.7625 216.371 58.7172 216.51 58.7931C216.744 58.9215 216.851 59.2395 216.697 59.5007L215.181 62.0765C214.993 62.3947 214.548 62.4003 214.353 62.0869Z" fill="#252525"/>
<defs>
<linearGradient id="paint0_linear_6353_6152" x1="10.0628" y1="40.5821" x2="42.3579" y2="108.99" gradientUnits="userSpaceOnUse">
<stop stop-color="#662B64"/>
<stop offset="1" stop-color="#456F97"/>
</linearGradient>
<linearGradient id="paint1_linear_6353_6152" x1="184.063" y1="40.9067" x2="216.358" y2="109.315" gradientUnits="userSpaceOnUse">
<stop stop-color="#662B64"/>
<stop offset="1" stop-color="#456F97"/>
</linearGradient>
</defs>
</svg>
