<svg width="253" height="123" viewBox="0 0 253 123" fill="none" xmlns="http://www.w3.org/2000/svg">
<rect width="253" height="123" rx="10" fill="#F4F4F4"/>
<mask id="path-2-inside-1_1787_8022" fill="white">
<path d="M11 46.0405C11 45.2865 11.6112 44.6754 12.3651 44.6754H64.24C64.9939 44.6754 65.6051 45.2865 65.6051 46.0405V91.0897C65.6051 91.8437 64.9939 92.4548 64.24 92.4548H12.3651C11.6112 92.4548 11 91.8437 11 91.0897V46.0405Z"/>
</mask>
<path d="M11 46.0405C11 45.2865 11.6112 44.6754 12.3651 44.6754H64.24C64.9939 44.6754 65.6051 45.2865 65.6051 46.0405V91.0897C65.6051 91.8437 64.9939 92.4548 64.24 92.4548H12.3651C11.6112 92.4548 11 91.8437 11 91.0897V46.0405Z" fill="white"/>
<path d="M11 44.6754H65.6051H11ZM67.6528 91.0897C67.6528 92.9746 66.1248 94.5025 64.24 94.5025H12.3651C10.4803 94.5025 8.95231 92.9746 8.95231 91.0897L13.0477 90.4071H63.5574L67.6528 91.0897ZM12.3651 94.5025C10.4803 94.5025 8.95231 92.9746 8.95231 91.0897V48.0882C8.95231 46.2033 10.4803 44.6754 12.3651 44.6754H13.0477C13.0477 44.6754 13.0477 45.2865 13.0477 46.0405V90.4071L12.3651 94.5025ZM64.24 44.6754C66.1248 44.6754 67.6528 46.2033 67.6528 48.0882V91.0897C67.6528 92.9746 66.1248 94.5025 64.24 94.5025L63.5574 90.4071V46.0405C63.5574 45.2865 63.5574 44.6754 63.5574 44.6754H64.24Z" fill="url(#paint0_linear_1787_8022)" fill-opacity="0.3" mask="url(#path-2-inside-1_1787_8022)"/>
<mask id="path-4-inside-2_1787_8022" fill="white">
<path d="M185.396 46.0405C185.396 45.2865 186.007 44.6754 186.761 44.6754H238.636C239.39 44.6754 240.001 45.2865 240.001 46.0405V91.0897C240.001 91.8437 239.39 92.4548 238.636 92.4548H186.761C186.007 92.4548 185.396 91.8437 185.396 91.0897V46.0405Z"/>
</mask>
<path d="M185.396 46.0405C185.396 45.2865 186.007 44.6754 186.761 44.6754H238.636C239.39 44.6754 240.001 45.2865 240.001 46.0405V91.0897C240.001 91.8437 239.39 92.4548 238.636 92.4548H186.761C186.007 92.4548 185.396 91.8437 185.396 91.0897V46.0405Z" fill="white"/>
<path d="M185.396 44.6754H240.001H185.396ZM242.048 91.0897C242.048 92.9746 240.52 94.5025 238.636 94.5025H186.761C184.876 94.5025 183.348 92.9746 183.348 91.0897L187.443 90.4071H237.953L242.048 91.0897ZM186.761 94.5025C184.876 94.5025 183.348 92.9746 183.348 91.0897V48.0882C183.348 46.2033 184.876 44.6754 186.761 44.6754H187.443C187.443 44.6754 187.443 45.2865 187.443 46.0405V90.4071L186.761 94.5025ZM238.636 44.6754C240.52 44.6754 242.048 46.2033 242.048 48.0882V91.0897C242.048 92.9746 240.52 94.5025 238.636 94.5025L237.953 90.4071V46.0405C237.953 45.2865 237.953 44.6754 237.953 44.6754H238.636Z" fill="url(#paint1_linear_1787_8022)" fill-opacity="0.3" mask="url(#path-4-inside-2_1787_8022)"/>
<rect x="16.1191" y="79.1456" width="44.3667" height="8.19077" rx="1.36513" fill="#1D267D"/>
<path d="M31.0777 84.741V81.2531H31.5459V84.741H31.0777ZM33.4975 84.7696C33.3064 84.7696 33.1407 84.7426 33.0006 84.6884C32.8636 84.6343 32.7569 84.5419 32.6805 84.4113C32.6072 84.2775 32.5706 84.0975 32.5706 83.8714V81.4155H33.0101V83.9287C33.0101 84.0657 33.0468 84.1724 33.12 84.2488C33.1965 84.3221 33.3032 84.3587 33.4401 84.3587H33.8893V84.7696H33.4975ZM32.131 82.5336V82.1895H33.8893V82.5336H32.131ZM35.604 84.827C35.381 84.827 35.1883 84.7887 35.0258 84.7123C34.8634 84.6359 34.7312 84.5355 34.6293 84.4113C34.5273 84.2839 34.4509 84.1421 34.3999 83.9861C34.3521 83.83 34.3282 83.6707 34.3282 83.5083V83.4223C34.3282 83.2566 34.3521 83.0958 34.3999 82.9397C34.4509 82.7836 34.5273 82.6434 34.6293 82.5192C34.7312 82.3918 34.8602 82.2915 35.0163 82.2182C35.1755 82.1418 35.3619 82.1035 35.5753 82.1035C35.8524 82.1035 36.0802 82.1641 36.2585 82.2851C36.4401 82.403 36.5739 82.5559 36.6599 82.7438C36.7491 82.9317 36.7937 83.1324 36.7937 83.3458V83.5513H34.5289V83.2072H36.4592L36.3541 83.3936C36.3541 83.212 36.3254 83.0559 36.2681 82.9253C36.2108 82.7916 36.1248 82.688 36.0101 82.6148C35.8954 82.5415 35.7505 82.5049 35.5753 82.5049C35.3937 82.5049 35.2424 82.5463 35.1214 82.6291C35.0035 82.7119 34.9143 82.825 34.8538 82.9683C34.7965 83.1117 34.7678 83.2773 34.7678 83.4653C34.7678 83.6468 34.7965 83.8109 34.8538 83.9574C34.9143 84.1007 35.0067 84.2154 35.1309 84.3014C35.2552 84.3842 35.4128 84.4256 35.604 84.4256C35.8046 84.4256 35.9671 84.381 36.0913 84.2918C36.2187 84.2027 36.2952 84.0991 36.3206 83.9813H36.7507C36.7156 84.1565 36.6456 84.3078 36.5404 84.4352C36.4353 84.5626 36.3031 84.6597 36.1439 84.7266C35.9846 84.7935 35.8046 84.827 35.604 84.827ZM37.4449 84.741V82.1895H37.808V83.2837H37.7507C37.7507 83.0352 37.7826 82.825 37.8463 82.653C37.9132 82.4778 38.0119 82.344 38.1425 82.2517C38.2731 82.1593 38.4387 82.1131 38.6394 82.1131H38.6585C38.8592 82.1131 39.0248 82.1593 39.1554 82.2517C39.2892 82.344 39.388 82.4778 39.4517 82.653C39.5154 82.825 39.5472 83.0352 39.5472 83.2837H39.4134C39.4134 83.0352 39.4469 82.825 39.5138 82.653C39.5807 82.4778 39.6794 82.344 39.81 82.2517C39.9438 82.1593 40.111 82.1131 40.3117 82.1131H40.3308C40.5315 82.1131 40.6987 82.1593 40.8325 82.2517C40.9663 82.344 41.065 82.4778 41.1287 82.653C41.1956 82.825 41.2291 83.0352 41.2291 83.2837V84.741H40.7704V83.1834C40.7704 82.9763 40.7194 82.817 40.6175 82.7056C40.5156 82.5909 40.3738 82.5336 40.1922 82.5336C40.0043 82.5336 39.853 82.5941 39.7383 82.7151C39.6237 82.833 39.5663 82.9986 39.5663 83.212V84.741H39.1076V83.1834C39.1076 82.9763 39.0567 82.817 38.9548 82.7056C38.8528 82.5909 38.7111 82.5336 38.5295 82.5336C38.3416 82.5336 38.1903 82.5941 38.0756 82.7151C37.9609 82.833 37.9036 82.9986 37.9036 83.212V84.741H37.4449ZM41.9447 83.6086V83.2168H43.7221V83.6086H41.9447ZM45.0117 84.741V81.4824L45.2219 81.6449H44.2376V81.2531H45.4703V84.741H45.0117Z" fill="white"/>
<rect x="190.515" y="79.1456" width="44.3667" height="8.19077" rx="1.36513" fill="#1D267D"/>
<path d="M199.922 83.384L198.814 81.2531H199.301L200.238 83.0782L200.056 83.0257H200.62L200.429 83.0782L201.308 81.2531H201.767L200.725 83.384H199.922ZM200.094 84.741V83.2885H200.553V84.741H200.094ZM202.084 83.9144V83.3506L203.531 81.1671L203.852 81.4203L202.499 83.4653L202.542 83.5513H204.798V83.9144H202.084ZM203.904 84.741V82.2708H204.334V84.741H203.904ZM206.315 84.827C206.089 84.827 205.884 84.7792 205.699 84.6836C205.514 84.5881 205.367 84.4463 205.259 84.2584C205.154 84.0705 205.102 83.8363 205.102 83.556V83.4366H205.57V83.642C205.57 83.8809 205.64 84.0673 205.78 84.2011C205.92 84.3317 206.099 84.397 206.315 84.397C206.532 84.397 206.71 84.3317 206.85 84.2011C206.99 84.0673 207.06 83.8809 207.06 83.642V81.578H207.529V83.556C207.529 83.8363 207.475 84.0705 207.366 84.2584C207.261 84.4463 207.116 84.5881 206.931 84.6836C206.75 84.7792 206.544 84.827 206.315 84.827ZM205.56 81.6735V81.2531H207.529V81.6735H205.56ZM209.754 84.827C209.492 84.827 209.269 84.7824 209.085 84.6932C208.903 84.6008 208.755 84.4766 208.64 84.3205C208.529 84.1644 208.448 83.9845 208.397 83.7806C208.346 83.5736 208.32 83.3554 208.32 83.126V82.868C208.32 82.5463 208.37 82.2564 208.468 81.9984C208.57 81.7404 208.726 81.5366 208.937 81.3868C209.15 81.234 209.422 81.1575 209.754 81.1575C210.085 81.1575 210.356 81.234 210.566 81.3868C210.776 81.5366 210.931 81.7404 211.029 81.9984C211.131 82.2564 211.182 82.5463 211.182 82.868V83.126C211.182 83.3554 211.157 83.5736 211.106 83.7806C211.055 83.9845 210.972 84.1644 210.857 84.3205C210.746 84.4766 210.599 84.6008 210.418 84.6932C210.236 84.7824 210.015 84.827 209.754 84.827ZM209.754 84.4065C210.085 84.4065 210.327 84.295 210.48 84.0721C210.636 83.8459 210.714 83.4891 210.714 83.0018C210.714 82.4921 210.634 82.1274 210.475 81.9076C210.319 81.6879 210.078 81.578 209.754 81.578C209.425 81.578 209.182 81.6879 209.023 81.9076C208.866 82.1274 208.788 82.489 208.788 82.9922C208.788 83.4828 208.866 83.8411 209.023 84.0673C209.179 84.2934 209.422 84.4065 209.754 84.4065ZM211.876 84.741V84.1581H212.43V84.741H211.876ZM213.126 84.741V84.1581H213.68V84.741H213.126ZM214.377 84.741V84.1581H214.931V84.741H214.377ZM217.127 84.827C216.808 84.827 216.536 84.7712 216.31 84.6597C216.087 84.5483 215.907 84.4033 215.77 84.2249C215.633 84.0466 215.533 83.8539 215.469 83.6468C215.405 83.4366 215.373 83.2343 215.373 83.04V82.9349C215.373 82.7247 215.405 82.5144 215.469 82.3042C215.536 82.094 215.638 81.9029 215.775 81.7309C215.912 81.5589 216.09 81.4203 216.31 81.3152C216.53 81.2101 216.792 81.1575 217.098 81.1575C217.41 81.1575 217.678 81.2117 217.901 81.32C218.124 81.4283 218.301 81.5796 218.431 81.7739C218.562 81.9682 218.641 82.1975 218.67 82.4619H218.192C218.167 82.2644 218.103 82.1019 218.001 81.9745C217.899 81.8439 217.77 81.7468 217.614 81.6831C217.461 81.6194 217.289 81.5875 217.098 81.5875C216.891 81.5875 216.71 81.6242 216.553 81.6974C216.397 81.7675 216.267 81.8678 216.162 81.9984C216.06 82.1258 215.982 82.274 215.928 82.4428C215.877 82.6116 215.851 82.7947 215.851 82.9922C215.851 83.1802 215.877 83.3585 215.928 83.5274C215.982 83.6962 216.061 83.8459 216.166 83.9765C216.275 84.1071 216.409 84.2106 216.568 84.2871C216.727 84.3603 216.913 84.397 217.127 84.397C217.426 84.397 217.678 84.3221 217.882 84.1724C218.086 84.0227 218.21 83.8061 218.254 83.5226H218.732C218.7 83.7615 218.619 83.9797 218.489 84.1772C218.361 84.3747 218.183 84.5323 217.953 84.6502C217.727 84.768 217.452 84.827 217.127 84.827ZM219.41 84.741V81.2531H219.879V84.741H219.41ZM219.783 84.741V84.3205H221.379V84.741H219.783ZM222.477 84.741V81.4824L222.688 81.6449H221.703V81.2531H222.936V84.741H222.477ZM224.99 81.1575C225.245 81.1575 225.457 81.2021 225.626 81.2913C225.798 81.3805 225.933 81.5031 226.032 81.6592C226.134 81.8121 226.206 81.9889 226.247 82.1895C226.292 82.3902 226.314 82.6004 226.314 82.8202V83.0496C226.314 83.6006 226.177 84.0259 225.903 84.3253C225.629 84.6215 225.232 84.7696 224.713 84.7696C224.589 84.7696 224.484 84.7664 224.398 84.7601C224.312 84.7537 224.218 84.7442 224.116 84.7314V84.3396C224.221 84.3524 224.318 84.3619 224.407 84.3683C224.497 84.3747 224.605 84.3778 224.732 84.3778C225.022 84.3778 225.252 84.3237 225.42 84.2154C225.589 84.1071 225.71 83.9526 225.783 83.7519C225.857 83.5481 225.893 83.3028 225.893 83.0161V82.8011L226.008 82.3759C226.005 82.6275 225.955 82.8362 225.86 83.0018C225.768 83.1674 225.639 83.2917 225.473 83.3745C225.31 83.4573 225.123 83.4987 224.909 83.4987C224.661 83.4987 224.45 83.4493 224.278 83.3506C224.106 83.2487 223.976 83.1101 223.887 82.9349C223.801 82.7597 223.758 82.5606 223.758 82.3377C223.758 82.1115 223.804 81.9092 223.896 81.7309C223.989 81.5525 224.126 81.4123 224.307 81.3104C224.492 81.2085 224.72 81.1575 224.99 81.1575ZM224.99 81.5589C224.815 81.5589 224.669 81.5923 224.551 81.6592C224.433 81.7261 224.344 81.8185 224.283 81.9363C224.226 82.051 224.197 82.1848 224.197 82.3377C224.197 82.4906 224.226 82.6259 224.283 82.7438C224.341 82.8616 224.425 82.954 224.536 83.0209C224.651 83.0846 224.791 83.1165 224.957 83.1165C225.119 83.1165 225.264 83.0862 225.392 83.0257C225.522 82.9652 225.624 82.8776 225.697 82.7629C225.771 82.645 225.807 82.5017 225.807 82.3329C225.807 82.1927 225.779 82.0637 225.721 81.9459C225.664 81.828 225.575 81.734 225.454 81.664C225.333 81.5939 225.178 81.5589 224.99 81.5589Z" fill="white"/>
<rect x="72.4302" y="59" width="44.3667" height="8.19077" rx="1.36513" fill="#1D267D"/>
<path d="M87.3887 64.5954V61.1075H87.8569V64.5954H87.3887ZM89.8085 64.6241C89.6174 64.6241 89.4518 64.597 89.3116 64.5428C89.1746 64.4887 89.0679 64.3963 88.9915 64.2657C88.9182 64.1319 88.8816 63.952 88.8816 63.7258V61.2699H89.3212V63.7831C89.3212 63.9201 89.3578 64.0268 89.4311 64.1033C89.5075 64.1765 89.6142 64.2132 89.7512 64.2132H90.2003V64.6241H89.8085ZM88.442 62.388V62.044H90.2003V62.388H88.442ZM91.915 64.6814C91.692 64.6814 91.4993 64.6432 91.3369 64.5667C91.1744 64.4903 91.0422 64.3899 90.9403 64.2657C90.8384 64.1383 90.7619 63.9966 90.7109 63.8405C90.6632 63.6844 90.6393 63.5251 90.6393 63.3627V63.2767C90.6393 63.111 90.6632 62.9502 90.7109 62.7941C90.7619 62.638 90.8384 62.4979 90.9403 62.3737C91.0422 62.2462 91.1712 62.1459 91.3273 62.0726C91.4866 61.9962 91.6729 61.958 91.8863 61.958C92.1634 61.958 92.3912 62.0185 92.5696 62.1395C92.7511 62.2574 92.8849 62.4103 92.9709 62.5982C93.0601 62.7861 93.1047 62.9868 93.1047 63.2002V63.4057H90.84V63.0617H92.7702L92.6651 63.248C92.6651 63.0665 92.6365 62.9104 92.5791 62.7798C92.5218 62.646 92.4358 62.5425 92.3211 62.4692C92.2064 62.3959 92.0615 62.3593 91.8863 62.3593C91.7048 62.3593 91.5535 62.4007 91.4324 62.4835C91.3146 62.5664 91.2254 62.6794 91.1649 62.8228C91.1075 62.9661 91.0789 63.1318 91.0789 63.3197C91.0789 63.5012 91.1075 63.6653 91.1649 63.8118C91.2254 63.9552 91.3177 64.0698 91.442 64.1558C91.5662 64.2386 91.7239 64.2801 91.915 64.2801C92.1157 64.2801 92.2781 64.2355 92.4023 64.1463C92.5298 64.0571 92.6062 63.9536 92.6317 63.8357H93.0617C93.0267 64.0109 92.9566 64.1622 92.8515 64.2896C92.7464 64.417 92.6142 64.5142 92.4549 64.5811C92.2956 64.648 92.1157 64.6814 91.915 64.6814ZM93.756 64.5954V62.044H94.1191V63.1381H94.0617C94.0617 62.8897 94.0936 62.6794 94.1573 62.5074C94.2242 62.3322 94.3229 62.1985 94.4535 62.1061C94.5841 62.0137 94.7498 61.9675 94.9504 61.9675H94.9696C95.1702 61.9675 95.3359 62.0137 95.4665 62.1061C95.6002 62.1985 95.699 62.3322 95.7627 62.5074C95.8264 62.6794 95.8583 62.8897 95.8583 63.1381H95.7245C95.7245 62.8897 95.7579 62.6794 95.8248 62.5074C95.8917 62.3322 95.9904 62.1985 96.121 62.1061C96.2548 62.0137 96.4221 61.9675 96.6227 61.9675H96.6418C96.8425 61.9675 97.0097 62.0137 97.1435 62.1061C97.2773 62.1985 97.3761 62.3322 97.4398 62.5074C97.5066 62.6794 97.5401 62.8897 97.5401 63.1381V64.5954H97.0814V63.0378C97.0814 62.8307 97.0304 62.6715 96.9285 62.56C96.8266 62.4453 96.6848 62.388 96.5033 62.388C96.3153 62.388 96.164 62.4485 96.0494 62.5695C95.9347 62.6874 95.8774 62.853 95.8774 63.0665V64.5954H95.4187V63.0378C95.4187 62.8307 95.3677 62.6715 95.2658 62.56C95.1639 62.4453 95.0221 62.388 94.8406 62.388C94.6526 62.388 94.5013 62.4485 94.3866 62.5695C94.272 62.6874 94.2146 62.853 94.2146 63.0665V64.5954H93.756ZM98.2557 63.463V63.0712H100.033V63.463H98.2557ZM101.323 64.5954V61.3368L101.533 61.4993H100.549V61.1075H101.781V64.5954H101.323Z" fill="white"/>
<rect x="72.4302" y="68.5559" width="44.3667" height="8.19077" rx="1.36513" fill="#0C134F"/>
<path d="M83.0401 74.2373C82.8172 74.2373 82.6213 74.1991 82.4524 74.1226C82.2836 74.0462 82.1403 73.9459 82.0224 73.8216C81.9077 73.6942 81.8202 73.5525 81.7596 73.3964C81.7023 73.2403 81.6736 73.081 81.6736 72.9186V72.8326C81.6736 72.6701 81.7039 72.5109 81.7644 72.3548C81.8249 72.1955 81.9141 72.0538 82.032 71.9296C82.1498 71.8021 82.2932 71.7018 82.462 71.6285C82.6308 71.5521 82.8235 71.5139 83.0401 71.5139C83.2567 71.5139 83.4494 71.5521 83.6183 71.6285C83.7871 71.7018 83.9304 71.8021 84.0483 71.9296C84.1661 72.0538 84.2553 72.1955 84.3158 72.3548C84.3764 72.5109 84.4066 72.6701 84.4066 72.8326V72.9186C84.4066 73.081 84.3764 73.2403 84.3158 73.3964C84.2585 73.5525 84.1709 73.6942 84.053 73.8216C83.9384 73.9459 83.7966 74.0462 83.6278 74.1226C83.459 74.1991 83.2631 74.2373 83.0401 74.2373ZM83.0401 73.8264C83.2312 73.8264 83.3937 73.785 83.5275 73.7022C83.6644 73.6162 83.768 73.5015 83.838 73.3582C83.9113 73.2148 83.9479 73.054 83.9479 72.8756C83.9479 72.694 83.9113 72.5316 83.838 72.3882C83.7648 72.2449 83.6597 72.1318 83.5227 72.049C83.3889 71.9662 83.2281 71.9248 83.0401 71.9248C82.8554 71.9248 82.6945 71.9662 82.5575 72.049C82.4206 72.1318 82.3155 72.2449 82.2422 72.3882C82.1689 72.5316 82.1323 72.694 82.1323 72.8756C82.1323 73.054 82.1673 73.2148 82.2374 73.3582C82.3107 73.5015 82.4142 73.6162 82.548 73.7022C82.685 73.785 82.849 73.8264 83.0401 73.8264ZM85.0936 75.1069V71.5999H85.4567V72.7036L85.3707 72.694C85.3866 72.4201 85.444 72.1971 85.5427 72.0251C85.6447 71.8499 85.7768 71.7209 85.9393 71.6381C86.1017 71.5553 86.2785 71.5139 86.4696 71.5139C86.6544 71.5139 86.8216 71.5489 86.9713 71.619C87.1242 71.6891 87.2548 71.7846 87.3631 71.9057C87.4714 72.0267 87.5542 72.1669 87.6116 72.3261C87.6689 72.4854 87.6976 72.6542 87.6976 72.8326V72.9186C87.6976 73.097 87.6673 73.2658 87.6068 73.4251C87.5463 73.5843 87.4603 73.7245 87.3488 73.8455C87.2405 73.9666 87.1099 74.0621 86.957 74.1322C86.8073 74.2023 86.6416 74.2373 86.4601 74.2373C86.2785 74.2373 86.1049 74.1975 85.9393 74.1179C85.7737 74.0382 85.6367 73.9092 85.5284 73.7308C85.4201 73.5525 85.358 73.3184 85.342 73.0285L85.5523 73.4107V75.1069H85.0936ZM86.3884 73.836C86.5604 73.836 86.7101 73.7961 86.8375 73.7165C86.965 73.6337 87.0637 73.5206 87.1338 73.3773C87.2039 73.2308 87.2389 73.0635 87.2389 72.8756C87.2389 72.6845 87.2039 72.5172 87.1338 72.3739C87.0637 72.2306 86.965 72.1191 86.8375 72.0395C86.7101 71.9566 86.5604 71.9152 86.3884 71.9152C86.2355 71.9152 86.0938 71.9503 85.9632 72.0203C85.8326 72.0872 85.7275 72.186 85.6478 72.3166C85.5714 72.444 85.5332 72.5985 85.5332 72.78V72.9998C85.5332 73.175 85.573 73.3247 85.6526 73.4489C85.7322 73.5732 85.8374 73.6687 85.968 73.7356C86.0986 73.8025 86.2387 73.836 86.3884 73.836ZM88.2635 73.0189V72.6271H90.0409V73.0189H88.2635ZM91.6315 74.2278C91.2971 74.2278 91.0375 74.1561 90.8527 74.0127C90.6712 73.8694 90.5772 73.6735 90.5708 73.4251H91.0009C91.0072 73.5238 91.0566 73.6178 91.149 73.707C91.2445 73.793 91.4054 73.836 91.6315 73.836C91.8354 73.836 91.9915 73.7961 92.0998 73.7165C92.2081 73.6337 92.2622 73.5334 92.2622 73.4155C92.2622 73.3104 92.2224 73.2292 92.1428 73.1718C92.0632 73.1113 91.9341 73.0715 91.7558 73.0524L91.4787 73.0237C91.2366 72.9982 91.0391 72.9266 90.8862 72.8087C90.7333 72.6877 90.6568 72.5188 90.6568 72.3022C90.6568 72.1398 90.6983 72.0012 90.7811 71.8866C90.8639 71.7687 90.9786 71.6795 91.1251 71.619C91.2716 71.5553 91.4404 71.5234 91.6315 71.5234C91.9182 71.5234 92.1507 71.5871 92.3291 71.7146C92.5075 71.842 92.5999 72.0315 92.6062 72.2831H92.1762C92.173 72.1812 92.1253 72.0952 92.0329 72.0251C91.9437 71.9519 91.8099 71.9152 91.6315 71.9152C91.4532 71.9152 91.3178 71.9519 91.2254 72.0251C91.133 72.0984 91.0869 72.1908 91.0869 72.3022C91.0869 72.3978 91.1187 72.4742 91.1824 72.5316C91.2493 72.5889 91.3576 72.6255 91.5073 72.6415L91.7844 72.6701C92.0584 72.6988 92.2782 72.7753 92.4438 72.8995C92.6094 73.0205 92.6922 73.1925 92.6922 73.4155C92.6922 73.5748 92.6461 73.7165 92.5537 73.8407C92.4645 73.9618 92.3403 74.0573 92.181 74.1274C92.0217 74.1943 91.8386 74.2278 91.6315 74.2278ZM93.357 74.1513V70.6634H93.8157V72.7466H93.701C93.701 72.495 93.7329 72.2784 93.7966 72.0968C93.8635 71.912 93.9654 71.7703 94.1024 71.6716C94.2393 71.5728 94.4145 71.5234 94.628 71.5234H94.6471C94.9529 71.5234 95.1838 71.6254 95.3399 71.8292C95.4959 72.0299 95.574 72.3182 95.574 72.694V74.1513H95.1153V72.5985C95.1153 72.3914 95.0564 72.2306 94.9385 72.1159C94.8238 72.0012 94.6741 71.9439 94.4894 71.9439C94.2855 71.9439 94.1215 72.0124 93.9973 72.1493C93.8762 72.2831 93.8157 72.4599 93.8157 72.6797V74.1513H93.357ZM97.9565 74.1513V73.3868H97.8801V72.5029C97.8801 72.3277 97.8339 72.1955 97.7415 72.1063C97.6523 72.0172 97.5201 71.9726 97.3449 71.9726C97.2462 71.9726 97.1443 71.9742 97.0391 71.9773C96.934 71.9805 96.8337 71.9837 96.7381 71.9869C96.6426 71.9901 96.5597 71.9949 96.4897 72.0012V71.5999C96.5597 71.5935 96.633 71.5887 96.7095 71.5855C96.7891 71.5792 96.8703 71.576 96.9531 71.576C97.036 71.5728 97.1156 71.5712 97.192 71.5712C97.4532 71.5712 97.6666 71.6031 97.8323 71.6668C97.9979 71.7273 98.1205 71.8276 98.2002 71.9678C98.2798 72.1079 98.3196 72.2975 98.3196 72.5364V74.1513H97.9565ZM97.1204 74.2182C96.9292 74.2182 96.7636 74.1863 96.6235 74.1226C96.4865 74.0557 96.3798 73.9602 96.3033 73.836C96.2301 73.7117 96.1934 73.562 96.1934 73.3868C96.1934 73.2053 96.2333 73.054 96.3129 72.9329C96.3957 72.8119 96.5152 72.7211 96.6712 72.6606C96.8273 72.5969 97.0152 72.565 97.235 72.565H97.9278V72.909H97.2159C97.0312 72.909 96.8894 72.9536 96.7907 73.0428C96.6919 73.132 96.6426 73.2467 96.6426 73.3868C96.6426 73.527 96.6919 73.6401 96.7907 73.7261C96.8894 73.8121 97.0312 73.8551 97.2159 73.8551C97.3242 73.8551 97.4277 73.836 97.5265 73.7977C97.6252 73.7563 97.7065 73.6894 97.7702 73.5971C97.8371 73.5015 97.8737 73.3709 97.8801 73.2053L98.0043 73.3868C97.9884 73.5684 97.9438 73.7213 97.8705 73.8455C97.8004 73.9666 97.7017 74.0589 97.5743 74.1226C97.45 74.1863 97.2987 74.2182 97.1204 74.2182ZM99.085 74.1513V73.578C99.085 73.4378 99.1041 73.3184 99.1424 73.2196C99.1838 73.1209 99.2539 73.0317 99.3526 72.952C99.4513 72.8692 99.5851 72.7896 99.7539 72.7131L100.409 72.4121C100.568 72.3389 100.694 72.2449 100.786 72.1302C100.878 72.0124 100.925 71.8611 100.925 71.6763C100.925 71.4534 100.862 71.2798 100.738 71.1555C100.614 71.0313 100.439 70.9692 100.213 70.9692C99.9897 70.9692 99.8145 71.0313 99.6871 71.1555C99.5596 71.2798 99.4959 71.4534 99.4959 71.6763H99.0468C99.0468 71.4757 99.0882 71.2909 99.171 71.1221C99.257 70.9533 99.386 70.8195 99.558 70.7207C99.7301 70.6188 99.9482 70.5678 100.213 70.5678C100.477 70.5678 100.694 70.6188 100.862 70.7207C101.034 70.8195 101.162 70.9501 101.245 71.1125C101.331 71.275 101.374 71.4518 101.374 71.6429V71.7098C101.374 71.9614 101.3 72.1732 101.154 72.3452C101.011 72.5172 100.816 72.659 100.571 72.7705L99.9164 73.0715C99.7699 73.1384 99.6711 73.2053 99.6202 73.2722C99.5692 73.3391 99.5437 73.4282 99.5437 73.5397V73.9793L99.4195 73.7595H101.417V74.1513H99.085ZM103.185 74.2373C102.918 74.2373 102.692 74.1832 102.507 74.0749C102.322 73.9634 102.182 73.8184 102.086 73.6401C101.991 73.4617 101.943 73.2722 101.943 73.0715H102.392C102.392 73.218 102.424 73.3486 102.488 73.4633C102.555 73.578 102.647 73.6687 102.765 73.7356C102.883 73.8025 103.023 73.836 103.185 73.836C103.345 73.836 103.483 73.8041 103.601 73.7404C103.722 73.6735 103.816 73.5827 103.883 73.4681C103.95 73.3502 103.983 73.218 103.983 73.0715C103.983 72.925 103.95 72.7928 103.883 72.6749C103.819 72.5571 103.727 72.4631 103.606 72.393C103.488 72.3229 103.348 72.2879 103.185 72.2879C103.067 72.2879 102.948 72.3086 102.827 72.35C102.706 72.3882 102.609 72.444 102.535 72.5172H102.115L102.292 70.6634H104.122V71.0552H102.559L102.674 70.8975L102.54 72.2497L102.416 72.2067C102.508 72.1143 102.62 72.041 102.751 71.9869C102.884 71.9327 103.036 71.9057 103.204 71.9057C103.472 71.9057 103.697 71.9614 103.878 72.0729C104.06 72.1812 104.197 72.3229 104.289 72.4981C104.385 72.6701 104.432 72.8501 104.432 73.038V73.1049C104.432 73.2929 104.385 73.4744 104.289 73.6496C104.193 73.8216 104.052 73.9634 103.864 74.0749C103.679 74.1832 103.453 74.2373 103.185 74.2373ZM106.32 74.2469C106.065 74.2469 105.852 74.2023 105.68 74.1131C105.511 74.0239 105.375 73.9029 105.273 73.75C105.175 73.5939 105.103 73.4155 105.058 73.2148C105.017 73.0142 104.996 72.8039 104.996 72.5841V72.3548C104.996 71.8037 105.133 71.3801 105.407 71.0839C105.681 70.7844 106.078 70.6347 106.597 70.6347C106.721 70.6347 106.826 70.6379 106.912 70.6443C106.998 70.6507 107.092 70.6602 107.194 70.673V71.0648C107.089 71.052 106.992 71.0425 106.903 71.0361C106.814 71.0297 106.705 71.0265 106.578 71.0265C106.288 71.0265 106.059 71.0807 105.89 71.189C105.721 71.2973 105.6 71.4534 105.527 71.6572C105.453 71.8579 105.417 72.1016 105.417 72.3882V72.6033L105.302 73.0285C105.305 72.7768 105.353 72.5682 105.445 72.4026C105.541 72.2369 105.67 72.1127 105.833 72.0299C105.998 71.9471 106.188 71.9057 106.401 71.9057C106.65 71.9057 106.86 71.9566 107.032 72.0586C107.204 72.1573 107.333 72.2943 107.419 72.4695C107.508 72.6447 107.553 72.8437 107.553 73.0667C107.553 73.2929 107.506 73.4951 107.414 73.6735C107.322 73.8519 107.183 73.992 106.998 74.094C106.817 74.1959 106.591 74.2469 106.32 74.2469ZM106.32 73.8455C106.495 73.8455 106.642 73.8121 106.759 73.7452C106.877 73.6783 106.965 73.5875 107.022 73.4728C107.083 73.355 107.113 73.2196 107.113 73.0667C107.113 72.9138 107.084 72.7784 107.027 72.6606C106.97 72.5427 106.884 72.4519 106.769 72.3882C106.657 72.3214 106.519 72.2879 106.353 72.2879C106.191 72.2879 106.044 72.3182 105.914 72.3787C105.786 72.4392 105.686 72.5284 105.613 72.6463C105.539 72.7609 105.503 72.9027 105.503 73.0715C105.503 73.2116 105.531 73.3406 105.589 73.4585C105.646 73.5764 105.735 73.6703 105.856 73.7404C105.977 73.8105 106.132 73.8455 106.32 73.8455Z" fill="white"/>
<rect x="72.4302" y="78.1118" width="44.3667" height="8.19077" rx="1.36513" fill="#0C134F"/>
<path d="M78.6261 83.7932C78.4031 83.7932 78.2073 83.755 78.0384 83.6785C77.8696 83.6021 77.7263 83.5017 77.6084 83.3775C77.4937 83.2501 77.4061 83.1083 77.3456 82.9523C77.2883 82.7962 77.2596 82.6369 77.2596 82.4745V82.3885C77.2596 82.226 77.2899 82.0668 77.3504 81.9107C77.4109 81.7514 77.5001 81.6097 77.618 81.4854C77.7358 81.358 77.8792 81.2577 78.048 81.1844C78.2168 81.108 78.4095 81.0698 78.6261 81.0698C78.8427 81.0698 79.0354 81.108 79.2042 81.1844C79.3731 81.2577 79.5164 81.358 79.6343 81.4854C79.7521 81.6097 79.8413 81.7514 79.9018 81.9107C79.9624 82.0668 79.9926 82.226 79.9926 82.3885V82.4745C79.9926 82.6369 79.9624 82.7962 79.9018 82.9523C79.8445 83.1083 79.7569 83.2501 79.639 83.3775C79.5244 83.5017 79.3826 83.6021 79.2138 83.6785C79.045 83.755 78.8491 83.7932 78.6261 83.7932ZM78.6261 83.3823C78.8172 83.3823 78.9797 83.3409 79.1135 83.2581C79.2504 83.1721 79.354 83.0574 79.424 82.914C79.4973 82.7707 79.5339 82.6098 79.5339 82.4315C79.5339 82.2499 79.4973 82.0875 79.424 81.9441C79.3508 81.8008 79.2457 81.6877 79.1087 81.6049C78.9749 81.5221 78.8141 81.4807 78.6261 81.4807C78.4414 81.4807 78.2805 81.5221 78.1435 81.6049C78.0066 81.6877 77.9015 81.8008 77.8282 81.9441C77.7549 82.0875 77.7183 82.2499 77.7183 82.4315C77.7183 82.6098 77.7533 82.7707 77.8234 82.914C77.8967 83.0574 78.0002 83.1721 78.134 83.2581C78.271 83.3409 78.435 83.3823 78.6261 83.3823ZM80.6796 84.6628V81.1558H81.0427V82.2595L80.9567 82.2499C80.9726 81.976 81.03 81.753 81.1287 81.581C81.2306 81.4058 81.3628 81.2768 81.5253 81.194C81.6877 81.1112 81.8645 81.0698 82.0556 81.0698C82.2404 81.0698 82.4076 81.1048 82.5573 81.1749C82.7102 81.2449 82.8408 81.3405 82.9491 81.4615C83.0574 81.5826 83.1402 81.7227 83.1976 81.882C83.2549 82.0413 83.2836 82.2101 83.2836 82.3885V82.4745C83.2836 82.6528 83.2533 82.8217 83.1928 82.9809C83.1323 83.1402 83.0463 83.2804 82.9348 83.4014C82.8265 83.5224 82.6959 83.618 82.543 83.6881C82.3933 83.7581 82.2276 83.7932 82.0461 83.7932C81.8645 83.7932 81.6909 83.7534 81.5253 83.6737C81.3597 83.5941 81.2227 83.4651 81.1144 83.2867C81.0061 83.1083 80.944 82.8742 80.928 82.5844L81.1383 82.9666V84.6628H80.6796ZM81.9744 83.3918C82.1464 83.3918 82.2961 83.352 82.4235 83.2724C82.551 83.1896 82.6497 83.0765 82.7198 82.9332C82.7899 82.7866 82.8249 82.6194 82.8249 82.4315C82.8249 82.2404 82.7899 82.0731 82.7198 81.9298C82.6497 81.7864 82.551 81.675 82.4235 81.5953C82.2961 81.5125 82.1464 81.4711 81.9744 81.4711C81.8215 81.4711 81.6798 81.5061 81.5492 81.5762C81.4186 81.6431 81.3135 81.7419 81.2338 81.8725C81.1574 81.9999 81.1192 82.1544 81.1192 82.3359V82.5557C81.1192 82.7309 81.159 82.8806 81.2386 83.0048C81.3182 83.1291 81.4234 83.2246 81.554 83.2915C81.6846 83.3584 81.8247 83.3918 81.9744 83.3918ZM83.8495 82.5748V82.183H85.6269V82.5748H83.8495ZM86.3814 83.7072V81.1558H86.7445V82.2069H86.7254C86.7254 81.8342 86.8066 81.5619 86.9691 81.3899C87.1347 81.2147 87.3816 81.1271 87.7097 81.1271H87.7957V81.538H87.6332C87.3784 81.538 87.1825 81.6065 87.0455 81.7434C86.9086 81.8772 86.8401 82.0715 86.8401 82.3264V83.7072H86.3814ZM88.4653 83.7072V81.1558H88.924V83.7072H88.4653ZM88.0735 81.5189V81.1558H88.924V81.5189H88.0735ZM88.5943 80.7449C88.4924 80.7449 88.416 80.7178 88.365 80.6636C88.3172 80.6095 88.2933 80.541 88.2933 80.4582C88.2933 80.3754 88.3172 80.3069 88.365 80.2527C88.416 80.1986 88.4924 80.1715 88.5943 80.1715C88.6963 80.1715 88.7711 80.1986 88.8189 80.2527C88.8699 80.3069 88.8953 80.3754 88.8953 80.4582C88.8953 80.541 88.8699 80.6095 88.8189 80.6636C88.7711 80.7178 88.6963 80.7449 88.5943 80.7449ZM89.8109 84.6628V81.1558H90.174V82.2595L90.088 82.2499C90.1039 81.976 90.1613 81.753 90.26 81.581C90.3619 81.4058 90.4941 81.2768 90.6566 81.194C90.819 81.1112 90.9958 81.0698 91.1869 81.0698C91.3717 81.0698 91.5389 81.1048 91.6886 81.1749C91.8415 81.2449 91.9721 81.3405 92.0804 81.4615C92.1887 81.5826 92.2715 81.7227 92.3289 81.882C92.3862 82.0413 92.4149 82.2101 92.4149 82.3885V82.4745C92.4149 82.6528 92.3846 82.8217 92.3241 82.9809C92.2636 83.1402 92.1776 83.2804 92.0661 83.4014C91.9578 83.5224 91.8272 83.618 91.6743 83.6881C91.5246 83.7581 91.3589 83.7932 91.1774 83.7932C90.9958 83.7932 90.8222 83.7534 90.6566 83.6737C90.4909 83.5941 90.354 83.4651 90.2457 83.2867C90.1374 83.1083 90.0753 82.8742 90.0593 82.5844L90.2696 82.9666V84.6628H89.8109ZM91.1057 83.3918C91.2777 83.3918 91.4274 83.352 91.5548 83.2724C91.6822 83.1896 91.781 83.0765 91.8511 82.9332C91.9211 82.7866 91.9562 82.6194 91.9562 82.4315C91.9562 82.2404 91.9211 82.0731 91.8511 81.9298C91.781 81.7864 91.6822 81.675 91.5548 81.5953C91.4274 81.5125 91.2777 81.4711 91.1057 81.4711C90.9528 81.4711 90.8111 81.5061 90.6805 81.5762C90.5499 81.6431 90.4448 81.7419 90.3651 81.8725C90.2887 81.9999 90.2505 82.1544 90.2505 82.3359V82.5557C90.2505 82.7309 90.2903 82.8806 90.3699 83.0048C90.4495 83.1291 90.5547 83.2246 90.6852 83.2915C90.8158 83.3584 90.956 83.3918 91.1057 83.3918ZM94.1897 83.7932C93.9667 83.7932 93.774 83.755 93.6115 83.6785C93.4491 83.6021 93.3169 83.5017 93.2149 83.3775C93.113 83.2501 93.0366 83.1083 92.9856 82.9523C92.9378 82.7962 92.9139 82.6369 92.9139 82.4745V82.3885C92.9139 82.2228 92.9378 82.062 92.9856 81.9059C93.0366 81.7498 93.113 81.6097 93.2149 81.4854C93.3169 81.358 93.4459 81.2577 93.602 81.1844C93.7612 81.108 93.9476 81.0698 94.161 81.0698C94.4381 81.0698 94.6659 81.1303 94.8442 81.2513C95.0258 81.3692 95.1596 81.5221 95.2456 81.71C95.3348 81.8979 95.3794 82.0986 95.3794 82.312V82.5175H93.1146V82.1735H95.0449L94.9398 82.3598C94.9398 82.1782 94.9111 82.0222 94.8538 81.8916C94.7965 81.7578 94.7104 81.6543 94.5958 81.581C94.4811 81.5077 94.3362 81.4711 94.161 81.4711C93.9794 81.4711 93.8281 81.5125 93.7071 81.5953C93.5892 81.6781 93.5 81.7912 93.4395 81.9346C93.3822 82.0779 93.3535 82.2435 93.3535 82.4315C93.3535 82.613 93.3822 82.7771 93.4395 82.9236C93.5 83.0669 93.5924 83.1816 93.7166 83.2676C93.8409 83.3504 93.9985 83.3918 94.1897 83.3918C94.3903 83.3918 94.5528 83.3472 94.677 83.2581C94.8044 83.1689 94.8809 83.0653 94.9063 82.9475H95.3364C95.3013 83.1227 95.2312 83.274 95.1261 83.4014C95.021 83.5288 94.8888 83.626 94.7296 83.6928C94.5703 83.7597 94.3903 83.7932 94.1897 83.7932ZM96.0306 83.7072V81.1558H96.3937V82.2499H96.3364C96.3364 82.0015 96.3683 81.7912 96.432 81.6192C96.4989 81.444 96.5976 81.3102 96.7282 81.2179C96.8588 81.1255 97.0244 81.0793 97.2251 81.0793H97.2442C97.4449 81.0793 97.6105 81.1255 97.7411 81.2179C97.8749 81.3102 97.9736 81.444 98.0374 81.6192C98.1011 81.7912 98.1329 82.0015 98.1329 82.2499H97.9991C97.9991 82.0015 98.0326 81.7912 98.0995 81.6192C98.1664 81.444 98.2651 81.3102 98.3957 81.2179C98.5295 81.1255 98.6967 81.0793 98.8974 81.0793H98.9165C99.1172 81.0793 99.2844 81.1255 99.4182 81.2179C99.552 81.3102 99.6507 81.444 99.7144 81.6192C99.7813 81.7912 99.8148 82.0015 99.8148 82.2499V83.7072H99.3561V82.1496C99.3561 81.9425 99.3051 81.7833 99.2032 81.6718C99.1012 81.5571 98.9595 81.4998 98.7779 81.4998C98.59 81.4998 98.4387 81.5603 98.324 81.6813C98.2094 81.7992 98.152 81.9648 98.152 82.1782V83.7072H97.6933V82.1496C97.6933 81.9425 97.6424 81.7833 97.5404 81.6718C97.4385 81.5571 97.2968 81.4998 97.1152 81.4998C96.9273 81.4998 96.776 81.5603 96.6613 81.6813C96.5466 81.7992 96.4893 81.9648 96.4893 82.1782V83.7072H96.0306ZM101.72 83.7932C101.539 83.7932 101.371 83.7597 101.218 83.6928C101.065 83.626 100.932 83.532 100.817 83.411C100.706 83.2899 100.618 83.1498 100.554 82.9905C100.494 82.8312 100.463 82.6592 100.463 82.4745V82.3885C100.463 82.2069 100.494 82.0365 100.554 81.8772C100.615 81.718 100.699 81.5778 100.807 81.4568C100.919 81.3357 101.05 81.2418 101.199 81.1749C101.352 81.1048 101.521 81.0698 101.706 81.0698C101.9 81.0698 102.077 81.1112 102.236 81.194C102.395 81.2736 102.526 81.3994 102.628 81.5714C102.73 81.7434 102.787 81.9664 102.8 82.2404L102.609 81.9346V80.2193H103.067V83.7072H102.704V82.5748H102.838C102.825 82.8647 102.765 83.1004 102.657 83.2819C102.548 83.4603 102.411 83.5909 102.246 83.6737C102.083 83.7534 101.908 83.7932 101.72 83.7932ZM101.782 83.3918C101.938 83.3918 102.08 83.3568 102.207 83.2867C102.335 83.2166 102.437 83.1163 102.513 82.9857C102.59 82.8519 102.628 82.6959 102.628 82.5175V82.2977C102.628 82.1225 102.588 81.9744 102.508 81.8533C102.432 81.7291 102.328 81.6351 102.198 81.5714C102.07 81.5045 101.93 81.4711 101.777 81.4711C101.609 81.4711 101.459 81.5109 101.328 81.5906C101.201 81.6702 101.101 81.7817 101.027 81.925C100.957 82.0683 100.922 82.2372 100.922 82.4315C100.922 82.6258 100.959 82.7962 101.032 82.9427C101.105 83.0861 101.207 83.1975 101.338 83.2772C101.468 83.3536 101.617 83.3918 101.782 83.3918ZM104.484 83.7072V80.4486L104.694 80.6111H103.71V80.2193H104.943V83.7072H104.484ZM107.183 83.8027C106.928 83.8027 106.715 83.7581 106.543 83.669C106.374 83.5798 106.239 83.4587 106.137 83.3058C106.038 83.1498 105.966 82.9714 105.922 82.7707C105.88 82.57 105.86 82.3598 105.86 82.14V81.9107C105.86 81.3596 105.997 80.936 106.27 80.6397C106.544 80.3403 106.941 80.1906 107.46 80.1906C107.584 80.1906 107.69 80.1938 107.776 80.2002C107.862 80.2065 107.955 80.2161 108.057 80.2288V80.6206C107.952 80.6079 107.855 80.5983 107.766 80.592C107.677 80.5856 107.568 80.5824 107.441 80.5824C107.151 80.5824 106.922 80.6366 106.753 80.7449C106.584 80.8532 106.463 81.0092 106.39 81.2131C106.317 81.4138 106.28 81.6574 106.28 81.9441V82.1591L106.165 82.5844C106.169 82.3327 106.216 82.1241 106.309 81.9585C106.404 81.7928 106.533 81.6686 106.696 81.5858C106.861 81.503 107.051 81.4615 107.264 81.4615C107.513 81.4615 107.723 81.5125 107.895 81.6144C108.067 81.7132 108.196 81.8502 108.282 82.0253C108.371 82.2005 108.416 82.3996 108.416 82.6226C108.416 82.8487 108.37 83.051 108.277 83.2294C108.185 83.4078 108.046 83.5479 107.862 83.6498C107.68 83.7518 107.454 83.8027 107.183 83.8027ZM107.183 83.4014C107.358 83.4014 107.505 83.3679 107.623 83.3011C107.74 83.2342 107.828 83.1434 107.885 83.0287C107.946 82.9109 107.976 82.7755 107.976 82.6226C107.976 82.4697 107.948 82.3343 107.89 82.2165C107.833 82.0986 107.747 82.0078 107.632 81.9441C107.521 81.8772 107.382 81.8438 107.217 81.8438C107.054 81.8438 106.908 81.874 106.777 81.9346C106.65 81.9951 106.549 82.0843 106.476 82.2021C106.403 82.3168 106.366 82.4585 106.366 82.6274C106.366 82.7675 106.395 82.8965 106.452 83.0144C106.509 83.1322 106.599 83.2262 106.72 83.2963C106.841 83.3664 106.995 83.4014 107.183 83.4014ZM110.442 83.7932C110.181 83.7932 109.958 83.7486 109.774 83.6594C109.592 83.567 109.444 83.4428 109.329 83.2867C109.218 83.1306 109.137 82.9507 109.086 82.7468C109.035 82.5398 109.009 82.3216 109.009 82.0922V81.8342C109.009 81.5125 109.058 81.2227 109.157 80.9646C109.259 80.7066 109.415 80.5028 109.625 80.3531C109.839 80.2002 110.111 80.1237 110.442 80.1237C110.774 80.1237 111.044 80.2002 111.255 80.3531C111.465 80.5028 111.619 80.7066 111.718 80.9646C111.82 81.2227 111.871 81.5125 111.871 81.8342V82.0922C111.871 82.3216 111.846 82.5398 111.795 82.7468C111.744 82.9507 111.661 83.1306 111.546 83.2867C111.435 83.4428 111.288 83.567 111.107 83.6594C110.925 83.7486 110.704 83.7932 110.442 83.7932ZM110.442 83.3727C110.774 83.3727 111.016 83.2612 111.169 83.0383C111.325 82.8121 111.403 82.4554 111.403 81.968C111.403 81.4584 111.323 81.0936 111.164 80.8739C111.008 80.6541 110.767 80.5442 110.442 80.5442C110.114 80.5442 109.871 80.6541 109.711 80.8739C109.555 81.0936 109.477 81.4552 109.477 81.9585C109.477 82.449 109.555 82.8073 109.711 83.0335C109.868 83.2596 110.111 83.3727 110.442 83.3727Z" fill="white"/>
<path d="M124.217 72.6144V72.1475H127.03V72.6144H124.217ZM124.217 73.7079V73.241H127.03V73.7079H124.217Z" fill="#0C134F"/>
<rect x="134.373" y="69.7604" width="44.0254" height="7.84949" rx="1.19449" fill="#1D267D"/>
<path d="M143.61 73.8282L142.502 71.6973H142.989L143.926 73.5225L143.744 73.4699H144.308L144.117 73.5225L144.996 71.6973H145.455L144.413 73.8282H143.61ZM143.782 75.1852V73.7327H144.241V75.1852H143.782ZM145.772 74.3586V73.7948L147.219 71.6113L147.54 71.8645L146.187 73.9095L146.23 73.9955H148.486V74.3586H145.772ZM147.592 75.1852V72.715H148.022V75.1852H147.592ZM150.003 75.2712C149.777 75.2712 149.571 75.2234 149.387 75.1278C149.202 75.0323 149.055 74.8905 148.947 74.7026C148.842 74.5147 148.79 74.2806 148.79 74.0002V73.8808H149.258V74.0863C149.258 74.3251 149.328 74.5115 149.468 74.6453C149.608 74.7759 149.787 74.8412 150.003 74.8412C150.22 74.8412 150.398 74.7759 150.538 74.6453C150.678 74.5115 150.748 74.3251 150.748 74.0863V72.0222H151.217V74.0002C151.217 74.2806 151.163 74.5147 151.054 74.7026C150.949 74.8905 150.804 75.0323 150.619 75.1278C150.438 75.2234 150.232 75.2712 150.003 75.2712ZM149.248 72.1177V71.6973H151.217V72.1177H149.248ZM153.442 75.2712C153.18 75.2712 152.957 75.2266 152.773 75.1374C152.591 75.045 152.443 74.9208 152.328 74.7647C152.217 74.6086 152.136 74.4287 152.085 74.2248C152.034 74.0178 152.008 73.7996 152.008 73.5702V73.3122C152.008 72.9905 152.058 72.7006 152.156 72.4426C152.258 72.1846 152.414 71.9808 152.625 71.8311C152.838 71.6782 153.11 71.6017 153.442 71.6017C153.773 71.6017 154.044 71.6782 154.254 71.8311C154.464 71.9808 154.619 72.1846 154.717 72.4426C154.819 72.7006 154.87 72.9905 154.87 73.3122V73.5702C154.87 73.7996 154.845 74.0178 154.794 74.2248C154.743 74.4287 154.66 74.6086 154.545 74.7647C154.434 74.9208 154.287 75.045 154.106 75.1374C153.924 75.2266 153.703 75.2712 153.442 75.2712ZM153.442 74.8507C153.773 74.8507 154.015 74.7392 154.168 74.5163C154.324 74.2901 154.402 73.9334 154.402 73.446C154.402 72.9364 154.322 72.5716 154.163 72.3519C154.007 72.1321 153.766 72.0222 153.442 72.0222C153.113 72.0222 152.87 72.1321 152.711 72.3519C152.554 72.5716 152.476 72.9332 152.476 73.4365C152.476 73.927 152.554 74.2853 152.711 74.5115C152.867 74.7376 153.11 74.8507 153.442 74.8507ZM155.564 75.1852V74.6023H156.118V75.1852H155.564ZM156.814 75.1852V74.6023H157.368V75.1852H156.814ZM158.065 75.1852V74.6023H158.619V75.1852H158.065ZM160.815 75.2712C160.496 75.2712 160.224 75.2154 159.998 75.104C159.775 74.9925 159.595 74.8475 159.458 74.6692C159.321 74.4908 159.221 74.2981 159.157 74.091C159.093 73.8808 159.061 73.6785 159.061 73.4842V73.3791C159.061 73.1689 159.093 72.9587 159.157 72.7484C159.224 72.5382 159.326 72.3471 159.463 72.1751C159.6 72.0031 159.778 71.8645 159.998 71.7594C160.218 71.6543 160.48 71.6017 160.786 71.6017C161.098 71.6017 161.366 71.6559 161.589 71.7642C161.812 71.8725 161.989 72.0238 162.119 72.2181C162.25 72.4124 162.329 72.6417 162.358 72.9061H161.88C161.855 72.7086 161.791 72.5462 161.689 72.4187C161.587 72.2882 161.458 72.191 161.302 72.1273C161.149 72.0636 160.977 72.0317 160.786 72.0317C160.579 72.0317 160.398 72.0684 160.241 72.1416C160.085 72.2117 159.955 72.312 159.85 72.4426C159.748 72.5701 159.67 72.7182 159.616 72.887C159.565 73.0558 159.539 73.239 159.539 73.4365C159.539 73.6244 159.565 73.8028 159.616 73.9716C159.67 74.1404 159.749 74.2901 159.854 74.4207C159.963 74.5513 160.097 74.6548 160.256 74.7313C160.415 74.8045 160.601 74.8412 160.815 74.8412C161.114 74.8412 161.366 74.7663 161.57 74.6166C161.774 74.4669 161.898 74.2503 161.942 73.9668H162.42C162.388 74.2057 162.307 74.4239 162.177 74.6214C162.049 74.8189 161.871 74.9765 161.641 75.0944C161.415 75.2123 161.14 75.2712 160.815 75.2712ZM163.098 75.1852V71.6973H163.567V75.1852H163.098ZM163.471 75.1852V74.7647H165.067V75.1852H163.471ZM166.165 75.1852V71.9266L166.376 72.0891H165.391V71.6973H166.624V75.1852H166.165ZM168.678 71.6017C168.933 71.6017 169.145 71.6463 169.314 71.7355C169.486 71.8247 169.621 71.9473 169.72 72.1034C169.822 72.2563 169.894 72.4331 169.935 72.6338C169.98 72.8344 170.002 73.0447 170.002 73.2644V73.4938C170.002 74.0448 169.865 74.4701 169.591 74.7695C169.317 75.0657 168.92 75.2138 168.401 75.2138C168.277 75.2138 168.172 75.2107 168.086 75.2043C168 75.1979 167.906 75.1884 167.804 75.1756V74.7838C167.909 74.7966 168.006 74.8061 168.095 74.8125C168.185 74.8189 168.293 74.8221 168.42 74.8221C168.71 74.8221 168.94 74.7679 169.108 74.6596C169.277 74.5513 169.398 74.3968 169.471 74.1961C169.545 73.9923 169.581 73.747 169.581 73.4603V73.2453L169.696 72.8201C169.693 73.0717 169.643 73.2804 169.548 73.446C169.456 73.6116 169.327 73.7359 169.161 73.8187C168.998 73.9015 168.811 73.9429 168.597 73.9429C168.349 73.9429 168.138 73.8935 167.966 73.7948C167.794 73.6929 167.664 73.5543 167.575 73.3791C167.489 73.2039 167.446 73.0048 167.446 72.7819C167.446 72.5557 167.492 72.3534 167.584 72.1751C167.677 71.9967 167.814 71.8565 167.995 71.7546C168.18 71.6527 168.408 71.6017 168.678 71.6017ZM168.678 72.0031C168.503 72.0031 168.357 72.0365 168.239 72.1034C168.121 72.1703 168.032 72.2627 167.971 72.3805C167.914 72.4952 167.885 72.629 167.885 72.7819C167.885 72.9348 167.914 73.0701 167.971 73.188C168.029 73.3059 168.113 73.3982 168.224 73.4651C168.339 73.5288 168.479 73.5607 168.645 73.5607C168.807 73.5607 168.952 73.5304 169.08 73.4699C169.21 73.4094 169.312 73.3218 169.385 73.2071C169.459 73.0893 169.495 72.9459 169.495 72.7771C169.495 72.6369 169.467 72.5079 169.409 72.3901C169.352 72.2722 169.263 72.1783 169.142 72.1082C169.021 72.0381 168.866 72.0031 168.678 72.0031Z" fill="white"/>
<rect x="134.373" y="69.7604" width="44.0254" height="7.84949" rx="1.19449" stroke="#0C134F" stroke-width="0.341282"/>
<path d="M38.302 73.787V35.4606C38.302 32.4448 40.7468 30.0001 43.7625 30.0001H89.153C92.1688 30.0001 94.6135 32.4448 94.6135 35.4606V51.1834" stroke="#252525" stroke-width="0.341282" stroke-linecap="round" stroke-dasharray="1.71 1.71"/>
<path d="M38.3017 75.0061C39.1499 75.0061 39.8375 74.3185 39.8375 73.4703C39.8375 72.6221 39.1499 71.9345 38.3017 71.9345C37.4535 71.9345 36.766 72.6221 36.766 73.4703C36.766 74.3185 37.4535 75.0061 38.3017 75.0061Z" fill="white" stroke="#252525" stroke-width="1.02385"/>
<path d="M94.2459 52.0235L92.6448 49.4476C92.4821 49.1859 92.5884 48.86 92.8264 48.7296C92.9648 48.6537 93.1312 48.6991 93.2797 48.7526L93.9199 48.9834C94.3687 49.1452 94.86 49.1452 95.3088 48.9834L95.949 48.7526C96.0975 48.6991 96.2639 48.6538 96.4023 48.7296C96.6366 48.8581 96.744 49.1761 96.5902 49.4372L95.0733 52.0131C94.886 52.3313 94.4407 52.3368 94.2459 52.0235Z" fill="#252525"/>
<path d="M157.409 63.7869V35.4605C157.409 32.4448 159.854 30 162.87 30H208.26C211.276 30 213.721 32.4448 213.721 35.4605V59.5887" stroke="#252525" stroke-width="0.341282" stroke-linecap="round" stroke-dasharray="1.71 1.71"/>
<path d="M157.409 66.0049C158.257 66.0049 158.945 65.3173 158.945 64.4691C158.945 63.621 158.257 62.9334 157.409 62.9334C156.561 62.9334 155.873 63.621 155.873 64.4691C155.873 65.3173 156.561 66.0049 157.409 66.0049Z" fill="white" stroke="#252525" stroke-width="1.02385"/>
<path d="M213.353 62.0869L211.752 59.511C211.589 59.2493 211.696 58.9234 211.934 58.793C212.072 58.7171 212.238 58.7625 212.387 58.816L213.027 59.0468C213.476 59.2086 213.967 59.2086 214.416 59.0468L215.056 58.816C215.205 58.7625 215.371 58.7172 215.509 58.7931C215.744 58.9215 215.851 59.2395 215.697 59.5007L214.181 62.0765C213.993 62.3947 213.548 62.4003 213.353 62.0869Z" fill="#252525"/>
<defs>
<linearGradient id="paint0_linear_1787_8022" x1="9.06279" y1="40.5821" x2="41.3579" y2="108.99" gradientUnits="userSpaceOnUse">
<stop stop-color="#662B64"/>
<stop offset="1" stop-color="#456F97"/>
</linearGradient>
<linearGradient id="paint1_linear_1787_8022" x1="183.458" y1="40.5821" x2="215.754" y2="108.99" gradientUnits="userSpaceOnUse">
<stop stop-color="#662B64"/>
<stop offset="1" stop-color="#456F97"/>
</linearGradient>
</defs>
</svg>
