<svg width="253" height="123" viewBox="0 0 253 123" fill="none" xmlns="http://www.w3.org/2000/svg">
<rect width="253" height="123" rx="10" fill="#F4F4F4"/>
<mask id="path-2-inside-1_4585_268" fill="white">
<path d="M11 46.0405C11 45.2865 11.6112 44.6754 12.3651 44.6754H64.24C64.9939 44.6754 65.6051 45.2865 65.6051 46.0405V91.0897C65.6051 91.8437 64.9939 92.4548 64.24 92.4548H12.3651C11.6112 92.4548 11 91.8437 11 91.0897V46.0405Z"/>
</mask>
<path d="M11 46.0405C11 45.2865 11.6112 44.6754 12.3651 44.6754H64.24C64.9939 44.6754 65.6051 45.2865 65.6051 46.0405V91.0897C65.6051 91.8437 64.9939 92.4548 64.24 92.4548H12.3651C11.6112 92.4548 11 91.8437 11 91.0897V46.0405Z" fill="white"/>
<path d="M11 44.6754H65.6051H11ZM67.6528 91.0897C67.6528 92.9746 66.1248 94.5025 64.24 94.5025H12.3651C10.4803 94.5025 8.95231 92.9746 8.95231 91.0897L13.0477 90.4071H63.5574L67.6528 91.0897ZM12.3651 94.5025C10.4803 94.5025 8.95231 92.9746 8.95231 91.0897V48.0882C8.95231 46.2033 10.4803 44.6754 12.3651 44.6754H13.0477C13.0477 44.6754 13.0477 45.2865 13.0477 46.0405V90.4071L12.3651 94.5025ZM64.24 44.6754C66.1248 44.6754 67.6528 46.2033 67.6528 48.0882V91.0897C67.6528 92.9746 66.1248 94.5025 64.24 94.5025L63.5574 90.4071V46.0405C63.5574 45.2865 63.5574 44.6754 63.5574 44.6754H64.24Z" fill="url(#paint0_linear_4585_268)" fill-opacity="0.3" mask="url(#path-2-inside-1_4585_268)"/>
<rect x="16.1191" y="79.1456" width="44.3667" height="8.19077" rx="1.36513" fill="#1D267D"/>
<path d="M31.0777 84.741V81.2531H31.5459V84.741H31.0777ZM33.4975 84.7696C33.3064 84.7696 33.1407 84.7426 33.0006 84.6884C32.8636 84.6343 32.7569 84.5419 32.6805 84.4113C32.6072 84.2775 32.5706 84.0975 32.5706 83.8714V81.4155H33.0101V83.9287C33.0101 84.0657 33.0468 84.1724 33.12 84.2488C33.1965 84.3221 33.3032 84.3587 33.4401 84.3587H33.8893V84.7696H33.4975ZM32.131 82.5336V82.1895H33.8893V82.5336H32.131ZM35.604 84.827C35.381 84.827 35.1883 84.7887 35.0258 84.7123C34.8634 84.6359 34.7312 84.5355 34.6293 84.4113C34.5273 84.2839 34.4509 84.1421 34.3999 83.9861C34.3521 83.83 34.3282 83.6707 34.3282 83.5083V83.4223C34.3282 83.2566 34.3521 83.0958 34.3999 82.9397C34.4509 82.7836 34.5273 82.6434 34.6293 82.5192C34.7312 82.3918 34.8602 82.2915 35.0163 82.2182C35.1755 82.1418 35.3619 82.1035 35.5753 82.1035C35.8524 82.1035 36.0802 82.1641 36.2585 82.2851C36.4401 82.403 36.5739 82.5559 36.6599 82.7438C36.7491 82.9317 36.7937 83.1324 36.7937 83.3458V83.5513H34.5289V83.2072H36.4592L36.3541 83.3936C36.3541 83.212 36.3254 83.0559 36.2681 82.9253C36.2108 82.7916 36.1248 82.688 36.0101 82.6148C35.8954 82.5415 35.7505 82.5049 35.5753 82.5049C35.3937 82.5049 35.2424 82.5463 35.1214 82.6291C35.0035 82.7119 34.9143 82.825 34.8538 82.9683C34.7965 83.1117 34.7678 83.2773 34.7678 83.4653C34.7678 83.6468 34.7965 83.8109 34.8538 83.9574C34.9143 84.1007 35.0067 84.2154 35.1309 84.3014C35.2552 84.3842 35.4128 84.4256 35.604 84.4256C35.8046 84.4256 35.9671 84.381 36.0913 84.2918C36.2187 84.2027 36.2952 84.0991 36.3206 83.9813H36.7507C36.7156 84.1565 36.6456 84.3078 36.5404 84.4352C36.4353 84.5626 36.3031 84.6597 36.1439 84.7266C35.9846 84.7935 35.8046 84.827 35.604 84.827ZM37.4449 84.741V82.1895H37.808V83.2837H37.7507C37.7507 83.0352 37.7826 82.825 37.8463 82.653C37.9132 82.4778 38.0119 82.344 38.1425 82.2517C38.2731 82.1593 38.4387 82.1131 38.6394 82.1131H38.6585C38.8592 82.1131 39.0248 82.1593 39.1554 82.2517C39.2892 82.344 39.388 82.4778 39.4517 82.653C39.5154 82.825 39.5472 83.0352 39.5472 83.2837H39.4134C39.4134 83.0352 39.4469 82.825 39.5138 82.653C39.5807 82.4778 39.6794 82.344 39.81 82.2517C39.9438 82.1593 40.111 82.1131 40.3117 82.1131H40.3308C40.5315 82.1131 40.6987 82.1593 40.8325 82.2517C40.9663 82.344 41.065 82.4778 41.1287 82.653C41.1956 82.825 41.2291 83.0352 41.2291 83.2837V84.741H40.7704V83.1834C40.7704 82.9763 40.7194 82.817 40.6175 82.7056C40.5156 82.5909 40.3738 82.5336 40.1922 82.5336C40.0043 82.5336 39.853 82.5941 39.7383 82.7151C39.6237 82.833 39.5663 82.9986 39.5663 83.212V84.741H39.1076V83.1834C39.1076 82.9763 39.0567 82.817 38.9548 82.7056C38.8528 82.5909 38.7111 82.5336 38.5295 82.5336C38.3416 82.5336 38.1903 82.5941 38.0756 82.7151C37.9609 82.833 37.9036 82.9986 37.9036 83.212V84.741H37.4449ZM41.9447 83.6086V83.2168H43.7221V83.6086H41.9447ZM45.0117 84.741V81.4824L45.2219 81.6449H44.2376V81.2531H45.4703V84.741H45.0117Z" fill="white"/>
<rect x="72.4302" y="65.0339" width="44.3667" height="8.19077" rx="1.36513" fill="#1D267D"/>
<path d="M87.3887 70.6293V67.1414H87.8569V70.6293H87.3887ZM89.8085 70.658C89.6174 70.658 89.4518 70.6309 89.3116 70.5768C89.1746 70.5226 89.0679 70.4303 88.9915 70.2997C88.9182 70.1659 88.8816 69.9859 88.8816 69.7597V67.3039H89.3212V69.8171C89.3212 69.9541 89.3578 70.0608 89.4311 70.1372C89.5075 70.2105 89.6142 70.2471 89.7512 70.2471H90.2003V70.658H89.8085ZM88.442 68.4219V68.0779H90.2003V68.4219H88.442ZM91.915 70.7153C91.692 70.7153 91.4993 70.6771 91.3369 70.6007C91.1744 70.5242 91.0422 70.4239 90.9403 70.2997C90.8384 70.1722 90.7619 70.0305 90.7109 69.8744C90.6632 69.7183 90.6393 69.5591 90.6393 69.3966V69.3106C90.6393 69.145 90.6632 68.9841 90.7109 68.828C90.7619 68.672 90.8384 68.5318 90.9403 68.4076C91.0422 68.2802 91.1712 68.1798 91.3273 68.1066C91.4866 68.0301 91.6729 67.9919 91.8863 67.9919C92.1634 67.9919 92.3912 68.0524 92.5696 68.1735C92.7511 68.2913 92.8849 68.4442 92.9709 68.6322C93.0601 68.8201 93.1047 69.0208 93.1047 69.2342V69.4396H90.84V69.0956H92.7702L92.6651 69.282C92.6651 69.1004 92.6365 68.9443 92.5791 68.8137C92.5218 68.6799 92.4358 68.5764 92.3211 68.5031C92.2064 68.4299 92.0615 68.3933 91.8863 68.3933C91.7048 68.3933 91.5535 68.4347 91.4324 68.5175C91.3146 68.6003 91.2254 68.7134 91.1649 68.8567C91.1075 69.0001 91.0789 69.1657 91.0789 69.3536C91.0789 69.5352 91.1075 69.6992 91.1649 69.8457C91.2254 69.9891 91.3177 70.1038 91.442 70.1898C91.5662 70.2726 91.7239 70.314 91.915 70.314C92.1157 70.314 92.2781 70.2694 92.4023 70.1802C92.5298 70.091 92.6062 69.9875 92.6317 69.8696H93.0617C93.0267 70.0448 92.9566 70.1961 92.8515 70.3235C92.7464 70.451 92.6142 70.5481 92.4549 70.615C92.2956 70.6819 92.1157 70.7153 91.915 70.7153ZM93.756 70.6293V68.0779H94.1191V69.1721H94.0617C94.0617 68.9236 94.0936 68.7134 94.1573 68.5414C94.2242 68.3662 94.3229 68.2324 94.4535 68.14C94.5841 68.0476 94.7498 68.0015 94.9504 68.0015H94.9696C95.1702 68.0015 95.3359 68.0476 95.4665 68.14C95.6002 68.2324 95.699 68.3662 95.7627 68.5414C95.8264 68.7134 95.8583 68.9236 95.8583 69.1721H95.7245C95.7245 68.9236 95.7579 68.7134 95.8248 68.5414C95.8917 68.3662 95.9904 68.2324 96.121 68.14C96.2548 68.0476 96.4221 68.0015 96.6227 68.0015H96.6418C96.8425 68.0015 97.0097 68.0476 97.1435 68.14C97.2773 68.2324 97.3761 68.3662 97.4398 68.5414C97.5066 68.7134 97.5401 68.9236 97.5401 69.1721V70.6293H97.0814V69.0717C97.0814 68.8647 97.0304 68.7054 96.9285 68.5939C96.8266 68.4793 96.6848 68.4219 96.5033 68.4219C96.3153 68.4219 96.164 68.4824 96.0494 68.6035C95.9347 68.7213 95.8774 68.887 95.8774 69.1004V70.6293H95.4187V69.0717C95.4187 68.8647 95.3677 68.7054 95.2658 68.5939C95.1639 68.4793 95.0221 68.4219 94.8406 68.4219C94.6526 68.4219 94.5013 68.4824 94.3866 68.6035C94.272 68.7213 94.2146 68.887 94.2146 69.1004V70.6293H93.756ZM98.2557 69.497V69.1052H100.033V69.497H98.2557ZM101.323 70.6293V67.3708L101.533 67.5332H100.549V67.1414H101.781V70.6293H101.323Z" fill="white"/>
<rect x="72.4302" y="74.5898" width="44.3667" height="8.19077" rx="1.36513" fill="#0C134F"/>
<path d="M81.512 80.2712C81.289 80.2712 81.0932 80.233 80.9243 80.1566C80.7555 80.0801 80.6122 79.9798 80.4943 79.8556C80.3796 79.7282 80.292 79.5864 80.2315 79.4303C80.1742 79.2742 80.1455 79.115 80.1455 78.9525V78.8665C80.1455 78.7041 80.1758 78.5448 80.2363 78.3887C80.2968 78.2295 80.386 78.0877 80.5039 77.9635C80.6217 77.8361 80.7651 77.7357 80.9339 77.6625C81.1027 77.586 81.2954 77.5478 81.512 77.5478C81.7286 77.5478 81.9213 77.586 82.0901 77.6625C82.259 77.7357 82.4023 77.8361 82.5202 77.9635C82.638 78.0877 82.7272 78.2295 82.7877 78.3887C82.8483 78.5448 82.8785 78.7041 82.8785 78.8665V78.9525C82.8785 79.115 82.8483 79.2742 82.7877 79.4303C82.7304 79.5864 82.6428 79.7282 82.5249 79.8556C82.4103 79.9798 82.2685 80.0801 82.0997 80.1566C81.9309 80.233 81.735 80.2712 81.512 80.2712ZM81.512 79.8603C81.7031 79.8603 81.8656 79.8189 81.9994 79.7361C82.1363 79.6501 82.2399 79.5354 82.3099 79.3921C82.3832 79.2488 82.4198 79.0879 82.4198 78.9095C82.4198 78.728 82.3832 78.5655 82.3099 78.4222C82.2367 78.2788 82.1316 78.1658 81.9946 78.0829C81.8608 78.0001 81.7 77.9587 81.512 77.9587C81.3273 77.9587 81.1664 78.0001 81.0294 78.0829C80.8925 78.1658 80.7874 78.2788 80.7141 78.4222C80.6408 78.5655 80.6042 78.728 80.6042 78.9095C80.6042 79.0879 80.6392 79.2488 80.7093 79.3921C80.7826 79.5354 80.8861 79.6501 81.0199 79.7361C81.1569 79.8189 81.3209 79.8603 81.512 79.8603ZM83.5655 81.1408V77.6338H83.9286V78.7375L83.8426 78.728C83.8585 78.454 83.9159 78.2311 84.0146 78.0591C84.1165 77.8839 84.2487 77.7549 84.4112 77.672C84.5736 77.5892 84.7504 77.5478 84.9415 77.5478C85.1263 77.5478 85.2935 77.5829 85.4432 77.6529C85.5961 77.723 85.7267 77.8186 85.835 77.9396C85.9433 78.0606 86.0261 78.2008 86.0835 78.3601C86.1408 78.5193 86.1695 78.6882 86.1695 78.8665V78.9525C86.1695 79.1309 86.1392 79.2997 86.0787 79.459C86.0182 79.6183 85.9322 79.7584 85.8207 79.8795C85.7124 80.0005 85.5818 80.0961 85.4289 80.1661C85.2792 80.2362 85.1135 80.2712 84.932 80.2712C84.7504 80.2712 84.5768 80.2314 84.4112 80.1518C84.2456 80.0722 84.1086 79.9432 84.0003 79.7648C83.892 79.5864 83.8299 79.3523 83.8139 79.0624L84.0242 79.4447V81.1408H83.5655ZM84.8603 79.8699C85.0323 79.8699 85.182 79.8301 85.3094 79.7504C85.4369 79.6676 85.5356 79.5546 85.6057 79.4112C85.6758 79.2647 85.7108 79.0975 85.7108 78.9095C85.7108 78.7184 85.6758 78.5512 85.6057 78.4078C85.5356 78.2645 85.4369 78.153 85.3094 78.0734C85.182 77.9906 85.0323 77.9492 84.8603 77.9492C84.7074 77.9492 84.5657 77.9842 84.4351 78.0543C84.3045 78.1212 84.1994 78.2199 84.1197 78.3505C84.0433 78.4779 84.0051 78.6324 84.0051 78.814V79.0338C84.0051 79.2089 84.0449 79.3587 84.1245 79.4829C84.2041 79.6071 84.3093 79.7027 84.4399 79.7696C84.5705 79.8365 84.7106 79.8699 84.8603 79.8699ZM86.7354 79.0529V78.6611H88.5128V79.0529H86.7354ZM89.2673 80.1852V76.6973H89.726V78.7805H89.6113C89.6113 78.5289 89.6432 78.3123 89.7069 78.1307C89.7738 77.946 89.8757 77.8042 90.0127 77.7055C90.1496 77.6067 90.3248 77.5574 90.5382 77.5574H90.5573C90.8631 77.5574 91.0941 77.6593 91.2501 77.8632C91.4062 78.0638 91.4843 78.3521 91.4843 78.728V80.1852H91.0256V78.6324C91.0256 78.4254 90.9667 78.2645 90.8488 78.1498C90.7341 78.0352 90.5844 77.9778 90.3997 77.9778C90.1958 77.9778 90.0318 78.0463 89.9075 78.1833C89.7865 78.3171 89.726 78.4938 89.726 78.7136V80.1852H89.2673ZM93.8668 80.1852V79.4208H93.7903V78.5368C93.7903 78.3617 93.7441 78.2295 93.6518 78.1403C93.5626 78.0511 93.4304 78.0065 93.2552 78.0065C93.1565 78.0065 93.0545 78.0081 92.9494 78.0113C92.8443 78.0145 92.744 78.0176 92.6484 78.0208C92.5528 78.024 92.47 78.0288 92.4 78.0352V77.6338C92.47 77.6274 92.5433 77.6227 92.6197 77.6195C92.6994 77.6131 92.7806 77.6099 92.8634 77.6099C92.9462 77.6067 93.0259 77.6051 93.1023 77.6051C93.3635 77.6051 93.5769 77.637 93.7426 77.7007C93.9082 77.7612 94.0308 77.8616 94.1105 78.0017C94.1901 78.1419 94.2299 78.3314 94.2299 78.5703V80.1852H93.8668ZM93.0306 80.2521C92.8395 80.2521 92.6739 80.2203 92.5337 80.1566C92.3968 80.0897 92.2901 79.9941 92.2136 79.8699C92.1404 79.7457 92.1037 79.596 92.1037 79.4208C92.1037 79.2392 92.1435 79.0879 92.2232 78.9669C92.306 78.8458 92.4254 78.755 92.5815 78.6945C92.7376 78.6308 92.9255 78.599 93.1453 78.599H93.8381V78.943H93.1262C92.9415 78.943 92.7997 78.9876 92.701 79.0768C92.6022 79.1659 92.5528 79.2806 92.5528 79.4208C92.5528 79.5609 92.6022 79.674 92.701 79.76C92.7997 79.846 92.9415 79.889 93.1262 79.889C93.2345 79.889 93.338 79.8699 93.4368 79.8317C93.5355 79.7903 93.6167 79.7234 93.6804 79.631C93.7473 79.5354 93.784 79.4048 93.7903 79.2392L93.9146 79.4208C93.8986 79.6023 93.854 79.7552 93.7808 79.8795C93.7107 80.0005 93.612 80.0929 93.4845 80.1566C93.3603 80.2203 93.209 80.2521 93.0306 80.2521ZM95.9079 80.2617C95.5734 80.2617 95.3138 80.19 95.1291 80.0467C94.9475 79.9033 94.8536 79.7074 94.8472 79.459H95.2772C95.2836 79.5577 95.333 79.6517 95.4253 79.7409C95.5209 79.8269 95.6817 79.8699 95.9079 79.8699C96.1118 79.8699 96.2678 79.8301 96.3761 79.7504C96.4844 79.6676 96.5386 79.5673 96.5386 79.4494C96.5386 79.3443 96.4988 79.2631 96.4191 79.2058C96.3395 79.1452 96.2105 79.1054 96.0321 79.0863L95.755 79.0576C95.5129 79.0322 95.3154 78.9605 95.1625 78.8426C95.0096 78.7216 94.9332 78.5528 94.9332 78.3362C94.9332 78.1737 94.9746 78.0352 95.0574 77.9205C95.1402 77.8026 95.2549 77.7134 95.4014 77.6529C95.548 77.5892 95.7168 77.5574 95.9079 77.5574C96.1946 77.5574 96.4271 77.6211 96.6055 77.7485C96.7839 77.8759 96.8762 78.0654 96.8826 78.3171H96.4526C96.4494 78.2151 96.4016 78.1291 96.3092 78.0591C96.2201 77.9858 96.0863 77.9492 95.9079 77.9492C95.7295 77.9492 95.5941 77.9858 95.5018 78.0591C95.4094 78.1323 95.3632 78.2247 95.3632 78.3362C95.3632 78.4317 95.3951 78.5082 95.4588 78.5655C95.5257 78.6229 95.634 78.6595 95.7837 78.6754L96.0608 78.7041C96.3347 78.7327 96.5545 78.8092 96.7202 78.9334C96.8858 79.0545 96.9686 79.2265 96.9686 79.4494C96.9686 79.6087 96.9224 79.7504 96.83 79.8747C96.7409 79.9957 96.6166 80.0913 96.4574 80.1614C96.2981 80.2282 96.1149 80.2617 95.9079 80.2617ZM97.6334 80.1852V76.6973H98.0921V78.7805H97.9774C97.9774 78.5289 98.0092 78.3123 98.0729 78.1307C98.1398 77.946 98.2418 77.8042 98.3787 77.7055C98.5157 77.6067 98.6909 77.5574 98.9043 77.5574H98.9234C99.2292 77.5574 99.4601 77.6593 99.6162 77.8632C99.7723 78.0638 99.8503 78.3521 99.8503 78.728V80.1852H99.3917V78.6324C99.3917 78.4254 99.3327 78.2645 99.2149 78.1498C99.1002 78.0352 98.9505 77.9778 98.7658 77.9778C98.5619 77.9778 98.3978 78.0463 98.2736 78.1833C98.1526 78.3171 98.0921 78.4938 98.0921 78.7136V80.1852H97.6334ZM100.613 80.1852V79.6119C100.613 79.4717 100.632 79.3523 100.67 79.2535C100.712 79.1548 100.782 79.0656 100.881 78.986C100.979 78.9032 101.113 78.8235 101.282 78.7471L101.937 78.4461C102.096 78.3728 102.222 78.2788 102.314 78.1642C102.406 78.0463 102.453 77.895 102.453 77.7103C102.453 77.4873 102.391 77.3137 102.266 77.1895C102.142 77.0652 101.967 77.0031 101.741 77.0031C101.518 77.0031 101.343 77.0652 101.215 77.1895C101.088 77.3137 101.024 77.4873 101.024 77.7103H100.575C100.575 77.5096 100.616 77.3248 100.699 77.156C100.785 76.9872 100.914 76.8534 101.086 76.7547C101.258 76.6527 101.476 76.6018 101.741 76.6018C102.005 76.6018 102.222 76.6527 102.391 76.7547C102.563 76.8534 102.69 76.984 102.773 77.1465C102.859 77.3089 102.902 77.4857 102.902 77.6768V77.7437C102.902 77.9953 102.829 78.2072 102.682 78.3792C102.539 78.5512 102.344 78.6929 102.099 78.8044L101.444 79.1054C101.298 79.1723 101.199 79.2392 101.148 79.3061C101.097 79.373 101.072 79.4622 101.072 79.5737V80.0132L100.948 79.7934H102.945V80.1852H100.613ZM104.713 80.2712C104.446 80.2712 104.22 80.2171 104.035 80.1088C103.85 79.9973 103.71 79.8524 103.614 79.674C103.519 79.4956 103.471 79.3061 103.471 79.1054H103.92C103.92 79.2519 103.952 79.3825 104.016 79.4972C104.083 79.6119 104.175 79.7027 104.293 79.7696C104.411 79.8365 104.551 79.8699 104.713 79.8699C104.873 79.8699 105.011 79.838 105.129 79.7743C105.25 79.7074 105.344 79.6167 105.411 79.502C105.478 79.3841 105.511 79.2519 105.511 79.1054C105.511 78.9589 105.478 78.8267 105.411 78.7089C105.347 78.591 105.255 78.497 105.134 78.427C105.016 78.3569 104.876 78.3218 104.713 78.3218C104.596 78.3218 104.476 78.3425 104.355 78.384C104.234 78.4222 104.137 78.4779 104.064 78.5512H103.643L103.82 76.6973H105.65V77.0891H104.087L104.202 76.9315L104.068 78.2836L103.944 78.2406C104.037 78.1482 104.148 78.075 104.279 78.0208C104.412 77.9667 104.564 77.9396 104.733 77.9396C105 77.9396 105.225 77.9953 105.406 78.1068C105.588 78.2151 105.725 78.3569 105.817 78.5321C105.913 78.7041 105.96 78.884 105.96 79.072V79.1389C105.96 79.3268 105.913 79.5084 105.817 79.6836C105.722 79.8556 105.58 79.9973 105.392 80.1088C105.207 80.2171 104.981 80.2712 104.713 80.2712ZM107.848 80.2808C107.593 80.2808 107.38 80.2362 107.208 80.147C107.039 80.0578 106.904 79.9368 106.802 79.7839C106.703 79.6278 106.631 79.4494 106.587 79.2488C106.545 79.0481 106.524 78.8379 106.524 78.6181V78.3887C106.524 77.8377 106.661 77.414 106.935 77.1178C107.209 76.8184 107.606 76.6687 108.125 76.6687C108.249 76.6687 108.354 76.6719 108.44 76.6782C108.526 76.6846 108.62 76.6942 108.722 76.7069V77.0987C108.617 77.0859 108.52 77.0764 108.431 77.07C108.342 77.0636 108.233 77.0605 108.106 77.0605C107.816 77.0605 107.587 77.1146 107.418 77.2229C107.249 77.3312 107.128 77.4873 107.055 77.6912C106.982 77.8918 106.945 78.1355 106.945 78.4222V78.6372L106.83 79.0624C106.833 78.8108 106.881 78.6021 106.974 78.4365C107.069 78.2709 107.198 78.1467 107.361 78.0638C107.526 77.981 107.716 77.9396 107.929 77.9396C108.178 77.9396 108.388 77.9906 108.56 78.0925C108.732 78.1912 108.861 78.3282 108.947 78.5034C109.036 78.6786 109.081 78.8777 109.081 79.1006C109.081 79.3268 109.034 79.5291 108.942 79.7074C108.85 79.8858 108.711 80.026 108.526 80.1279C108.345 80.2298 108.119 80.2808 107.848 80.2808ZM107.848 79.8795C108.023 79.8795 108.17 79.846 108.288 79.7791C108.405 79.7122 108.493 79.6214 108.55 79.5068C108.611 79.3889 108.641 79.2535 108.641 79.1006C108.641 78.9478 108.612 78.8124 108.555 78.6945C108.498 78.5767 108.412 78.4859 108.297 78.4222C108.186 78.3553 108.047 78.3218 107.881 78.3218C107.719 78.3218 107.572 78.3521 107.442 78.4126C107.314 78.4731 107.214 78.5623 107.141 78.6802C107.068 78.7949 107.031 78.9366 107.031 79.1054C107.031 79.2456 107.06 79.3746 107.117 79.4924C107.174 79.6103 107.263 79.7043 107.384 79.7743C107.506 79.8444 107.66 79.8795 107.848 79.8795Z" fill="white"/>
<path d="M124.217 72.6144V72.1475H127.03V72.6144H124.217ZM124.217 73.7079V73.241H127.03V73.7079H124.217Z" fill="#0C134F"/>
<path d="M38.302 73.787V35.4606C38.302 32.4448 40.7468 30.0001 43.7625 30.0001H89.153C92.1688 30.0001 94.6135 32.4448 94.6135 35.4606V61.1834" stroke="#252525" stroke-width="0.341282" stroke-linecap="round" stroke-dasharray="1.71 1.71"/>
<path d="M38.3018 75.0061C39.15 75.0061 39.8376 74.3185 39.8376 73.4703C39.8376 72.6221 39.15 71.9345 38.3018 71.9345C37.4537 71.9345 36.7661 72.6221 36.7661 73.4703C36.7661 74.3185 37.4537 75.0061 38.3018 75.0061Z" fill="white" stroke="#252525" stroke-width="1.02385"/>
<path d="M94.2459 62.0235L92.6448 59.4476C92.4821 59.1859 92.5884 58.86 92.8264 58.7296C92.9648 58.6537 93.1312 58.6991 93.2797 58.7526L93.9199 58.9834C94.3687 59.1452 94.86 59.1452 95.3088 58.9834L95.949 58.7526C96.0975 58.6991 96.2639 58.6538 96.4023 58.7296C96.6366 58.8581 96.744 59.1761 96.5902 59.4372L95.0733 62.0131C94.886 62.3313 94.4407 62.3368 94.2459 62.0235Z" fill="#252525"/>
<mask id="path-14-inside-2_4585_268" fill="white">
<path d="M185.396 46.0405C185.396 45.2865 186.007 44.6754 186.761 44.6754H238.636C239.389 44.6754 240.001 45.2865 240.001 46.0405V91.0897C240.001 91.8437 239.389 92.4548 238.636 92.4548H186.761C186.007 92.4548 185.396 91.8437 185.396 91.0897V46.0405Z"/>
</mask>
<path d="M185.396 46.0405C185.396 45.2865 186.007 44.6754 186.761 44.6754H238.636C239.389 44.6754 240.001 45.2865 240.001 46.0405V91.0897C240.001 91.8437 239.389 92.4548 238.636 92.4548H186.761C186.007 92.4548 185.396 91.8437 185.396 91.0897V46.0405Z" fill="white"/>
<path d="M185.396 44.6754H240.001H185.396ZM242.048 91.0897C242.048 92.9746 240.52 94.5025 238.636 94.5025H186.761C184.876 94.5025 183.348 92.9746 183.348 91.0897L187.443 90.4071H237.953L242.048 91.0897ZM186.761 94.5025C184.876 94.5025 183.348 92.9746 183.348 91.0897V48.0882C183.348 46.2033 184.876 44.6754 186.761 44.6754H187.443C187.443 44.6754 187.443 45.2865 187.443 46.0405V90.4071L186.761 94.5025ZM238.636 44.6754C240.52 44.6754 242.048 46.2033 242.048 48.0882V91.0897C242.048 92.9746 240.52 94.5025 238.636 94.5025L237.953 90.4071V46.0405C237.953 45.2865 237.953 44.6754 237.953 44.6754H238.636Z" fill="url(#paint1_linear_4585_268)" fill-opacity="0.3" mask="url(#path-14-inside-2_4585_268)"/>
<rect x="190.515" y="79.1456" width="44.3667" height="8.19077" rx="1.36513" fill="#1D267D"/>
<path d="M199.036 84.7601V84.3301H199.905C200.115 84.3301 200.302 84.2966 200.464 84.2297C200.63 84.1596 200.77 84.0641 200.885 83.943C201.003 83.822 201.092 83.6803 201.152 83.5178C201.213 83.3554 201.243 83.1802 201.243 82.9922C201.243 82.7947 201.213 82.6164 201.152 82.4571C201.092 82.2947 201.003 82.1545 200.885 82.0366C200.77 81.9156 200.63 81.8232 200.464 81.7595C200.302 81.6958 200.115 81.664 199.905 81.664H199.036V81.234H199.857C200.173 81.234 200.447 81.2833 200.679 81.3821C200.912 81.4776 201.105 81.6082 201.257 81.7739C201.413 81.9363 201.53 82.1195 201.606 82.3233C201.683 82.524 201.721 82.7295 201.721 82.9397V83.0448C201.721 83.2487 201.683 83.4525 201.606 83.6564C201.53 83.8602 201.413 84.045 201.257 84.2106C201.105 84.3763 200.912 84.51 200.679 84.612C200.447 84.7107 200.173 84.7601 199.857 84.7601H199.036ZM198.663 84.7601V81.234H199.131V84.7601H198.663ZM203.446 84.827C203.178 84.827 202.952 84.7728 202.767 84.6645C202.583 84.553 202.442 84.4081 202.347 84.2297C202.251 84.0513 202.204 83.8618 202.204 83.6612H202.653C202.653 83.8077 202.684 83.9383 202.748 84.0529C202.815 84.1676 202.907 84.2584 203.025 84.3253C203.143 84.3922 203.283 84.4256 203.446 84.4256C203.605 84.4256 203.744 84.3938 203.861 84.3301C203.983 84.2632 204.076 84.1724 204.143 84.0577C204.21 83.9399 204.244 83.8077 204.244 83.6612C204.244 83.5146 204.21 83.3824 204.143 83.2646C204.08 83.1467 203.987 83.0528 203.866 82.9827C203.748 82.9126 203.608 82.8776 203.446 82.8776C203.328 82.8776 203.208 82.8983 203.087 82.9397C202.966 82.9779 202.869 83.0336 202.796 83.1069H202.376L202.552 81.2531H204.382V81.6449H202.82L202.935 81.4872L202.801 82.8393L202.677 82.7963C202.769 82.704 202.88 82.6307 203.011 82.5766C203.145 82.5224 203.296 82.4953 203.465 82.4953C203.732 82.4953 203.957 82.5511 204.139 82.6626C204.32 82.7709 204.457 82.9126 204.549 83.0878C204.645 83.2598 204.693 83.4398 204.693 83.6277V83.6946C204.693 83.8825 204.645 84.0641 204.549 84.2393C204.454 84.4113 204.312 84.553 204.124 84.6645C203.94 84.7728 203.713 84.827 203.446 84.827ZM205.419 84.741V81.2531H205.888V84.741H205.419ZM205.792 84.741V84.3205H207.388V84.741H205.792ZM209.022 84.827C208.754 84.827 208.528 84.7728 208.343 84.6645C208.158 84.553 208.018 84.4081 207.923 84.2297C207.827 84.0513 207.779 83.8618 207.779 83.6612H208.228C208.228 83.8077 208.26 83.9383 208.324 84.0529C208.391 84.1676 208.483 84.2584 208.601 84.3253C208.719 84.3922 208.859 84.4256 209.022 84.4256C209.181 84.4256 209.319 84.3938 209.437 84.3301C209.558 84.2632 209.652 84.1724 209.719 84.0577C209.786 83.9399 209.82 83.8077 209.82 83.6612C209.82 83.5146 209.786 83.3824 209.719 83.2646C209.655 83.1467 209.563 83.0528 209.442 82.9827C209.324 82.9126 209.184 82.8776 209.022 82.8776C208.904 82.8776 208.784 82.8983 208.663 82.9397C208.542 82.9779 208.445 83.0336 208.372 83.1069H207.951L208.128 81.2531H209.958V81.6449H208.396L208.51 81.4872L208.377 82.8393L208.252 82.7963C208.345 82.704 208.456 82.6307 208.587 82.5766C208.721 82.5224 208.872 82.4953 209.041 82.4953C209.308 82.4953 209.533 82.5511 209.714 82.6626C209.896 82.7709 210.033 82.9126 210.125 83.0878C210.221 83.2598 210.269 83.4398 210.269 83.6277V83.6946C210.269 83.8825 210.221 84.0641 210.125 84.2393C210.03 84.4113 209.888 84.553 209.7 84.6645C209.515 84.7728 209.289 84.827 209.022 84.827ZM210.837 84.741V84.1581H211.392V84.741H210.837ZM212.088 84.741V84.1581H212.642V84.741H212.088ZM213.338 84.741V84.1581H213.893V84.741H213.338ZM215.042 83.384L213.934 81.2531H214.421L215.358 83.0782L215.176 83.0257H215.74L215.549 83.0782L216.428 81.2531H216.887L215.845 83.384H215.042ZM215.214 84.741V83.2885H215.673V84.741H215.214ZM219.572 85.7491C219.4 85.7491 219.25 85.7236 219.122 85.6727C218.995 85.6249 218.896 85.5405 218.826 85.4194C218.756 85.2984 218.721 85.1328 218.721 84.9225V84.5021H219.151V84.9942C219.151 85.0993 219.181 85.1821 219.242 85.2427C219.306 85.3032 219.388 85.3334 219.49 85.3334H220.083V85.7491H219.572ZM218.927 84.827C218.614 84.827 218.345 84.7712 218.119 84.6597C217.893 84.5483 217.707 84.4017 217.56 84.2202C217.414 84.0386 217.304 83.8443 217.23 83.6373C217.16 83.4302 217.125 83.2311 217.125 83.04V82.9349C217.125 82.7279 217.162 82.5192 217.235 82.309C217.308 82.0988 217.42 81.9076 217.57 81.7356C217.719 81.5604 217.906 81.4203 218.129 81.3152C218.355 81.2101 218.621 81.1575 218.927 81.1575C219.232 81.1575 219.497 81.2101 219.72 81.3152C219.946 81.4203 220.134 81.5604 220.283 81.7356C220.433 81.9076 220.545 82.0988 220.618 82.309C220.691 82.5192 220.728 82.7279 220.728 82.9349V83.04C220.728 83.2311 220.691 83.4302 220.618 83.6373C220.548 83.8443 220.44 84.0386 220.293 84.2202C220.147 84.4017 219.96 84.5483 219.734 84.6597C219.508 84.7712 219.239 84.827 218.927 84.827ZM218.927 84.397C219.13 84.397 219.314 84.3587 219.476 84.2823C219.642 84.2058 219.782 84.1023 219.896 83.9717C220.011 83.8379 220.099 83.6882 220.159 83.5226C220.22 83.3538 220.25 83.177 220.25 82.9922C220.25 82.7979 220.22 82.6164 220.159 82.4476C220.099 82.2787 220.011 82.1306 219.896 82.0032C219.782 81.8726 219.642 81.7707 219.476 81.6974C219.314 81.6242 219.13 81.5875 218.927 81.5875C218.723 81.5875 218.538 81.6242 218.372 81.6974C218.21 81.7707 218.071 81.8726 217.957 82.0032C217.842 82.1306 217.754 82.2787 217.694 82.4476C217.633 82.6164 217.603 82.7979 217.603 82.9922C217.603 83.177 217.633 83.3538 217.694 83.5226C217.754 83.6882 217.842 83.8379 217.957 83.9717C218.071 84.1023 218.21 84.2058 218.372 84.2823C218.538 84.3587 218.723 84.397 218.927 84.397ZM222.631 84.827C222.341 84.827 222.094 84.7792 221.89 84.6836C221.686 84.5881 221.53 84.4559 221.422 84.2871C221.313 84.1182 221.259 83.9271 221.259 83.7137H221.728C221.728 83.8188 221.755 83.9239 221.809 84.0291C221.866 84.1342 221.96 84.2218 222.091 84.2918C222.224 84.3619 222.404 84.397 222.631 84.397C222.841 84.397 223.013 84.3667 223.147 84.3062C223.28 84.2425 223.379 84.1612 223.443 84.0625C223.507 83.9606 223.538 83.8507 223.538 83.7328C223.538 83.5895 223.476 83.4716 223.352 83.3793C223.228 83.2837 223.046 83.2248 222.807 83.2025L222.42 83.169C222.111 83.1435 221.865 83.048 221.68 82.8823C221.495 82.7167 221.403 82.4985 221.403 82.2278C221.403 82.0144 221.454 81.828 221.556 81.6687C221.661 81.5095 221.806 81.3853 221.99 81.2961C222.175 81.2037 222.39 81.1575 222.635 81.1575C222.877 81.1575 223.091 81.2021 223.276 81.2913C223.46 81.3805 223.604 81.5063 223.706 81.6687C223.811 81.828 223.863 82.0191 223.863 82.2421H223.395C223.395 82.1306 223.368 82.0255 223.314 81.9268C223.263 81.828 223.182 81.7468 223.07 81.6831C222.959 81.6194 222.814 81.5875 222.635 81.5875C222.463 81.5875 222.32 81.6178 222.205 81.6783C222.094 81.7388 222.009 81.8185 221.952 81.9172C221.898 82.0128 221.871 82.1163 221.871 82.2278C221.871 82.3552 221.92 82.4683 222.019 82.567C222.118 82.6657 222.264 82.7231 222.459 82.739L222.846 82.7725C223.084 82.7916 223.29 82.8425 223.462 82.9253C223.637 83.005 223.771 83.1133 223.863 83.2502C223.959 83.384 224.007 83.5449 224.007 83.7328C224.007 83.9462 223.949 84.1358 223.835 84.3014C223.72 84.467 223.559 84.596 223.352 84.6884C223.145 84.7808 222.905 84.827 222.631 84.827ZM224.649 84.741V84.1676C224.649 84.0275 224.668 83.908 224.706 83.8093C224.748 83.7105 224.818 83.6213 224.917 83.5417C225.015 83.4589 225.149 83.3793 225.318 83.3028L225.973 83.0018C226.132 82.9285 226.258 82.8346 226.35 82.7199C226.442 82.602 226.489 82.4507 226.489 82.266C226.489 82.043 226.426 81.8694 226.302 81.7452C226.178 81.621 226.003 81.5589 225.777 81.5589C225.554 81.5589 225.378 81.621 225.251 81.7452C225.124 81.8694 225.06 82.043 225.06 82.266H224.611C224.611 82.0653 224.652 81.8806 224.735 81.7117C224.821 81.5429 224.95 81.4091 225.122 81.3104C225.294 81.2085 225.512 81.1575 225.777 81.1575C226.041 81.1575 226.258 81.2085 226.426 81.3104C226.598 81.4091 226.726 81.5397 226.809 81.7022C226.895 81.8646 226.938 82.0414 226.938 82.2325V82.2994C226.938 82.5511 226.864 82.7629 226.718 82.9349C226.575 83.1069 226.38 83.2487 226.135 83.3601L225.48 83.6612C225.334 83.728 225.235 83.7949 225.184 83.8618C225.133 83.9287 225.108 84.0179 225.108 84.1294V84.569L224.984 84.3492H226.981V84.741H224.649Z" fill="white"/>
<rect x="134.373" y="69.7604" width="44.0254" height="7.84949" rx="1.19449" fill="#1D267D"/>
<rect x="134.373" y="69.7604" width="44.0254" height="7.84949" rx="1.19449" stroke="#0C134F" stroke-width="0.341282"/>
<path d="M142.724 75.2043V74.7743H143.593C143.803 74.7743 143.99 74.7408 144.152 74.6739C144.318 74.6039 144.458 74.5083 144.573 74.3873C144.691 74.2662 144.78 74.1245 144.84 73.962C144.901 73.7996 144.931 73.6244 144.931 73.4365C144.931 73.239 144.901 73.0606 144.84 72.9013C144.78 72.7389 144.691 72.5987 144.573 72.4809C144.458 72.3598 144.318 72.2674 144.152 72.2037C143.99 72.14 143.803 72.1082 143.593 72.1082H142.724V71.6782H143.545C143.861 71.6782 144.135 71.7275 144.367 71.8263C144.6 71.9218 144.793 72.0524 144.945 72.2181C145.101 72.3805 145.218 72.5637 145.294 72.7675C145.371 72.9682 145.409 73.1737 145.409 73.3839V73.489C145.409 73.6929 145.371 73.8967 145.294 74.1006C145.218 74.3044 145.101 74.4892 144.945 74.6548C144.793 74.8205 144.6 74.9542 144.367 75.0562C144.135 75.1549 143.861 75.2043 143.545 75.2043H142.724ZM142.351 75.2043V71.6782H142.819V75.2043H142.351ZM147.134 75.2712C146.866 75.2712 146.64 75.217 146.455 75.1087C146.271 74.9972 146.13 74.8523 146.035 74.6739C145.939 74.4956 145.892 74.306 145.892 74.1054H146.341C146.341 74.2519 146.372 74.3825 146.436 74.4972C146.503 74.6118 146.595 74.7026 146.713 74.7695C146.831 74.8364 146.971 74.8698 147.134 74.8698C147.293 74.8698 147.432 74.838 147.549 74.7743C147.67 74.7074 147.764 74.6166 147.831 74.5019C147.898 74.3841 147.932 74.2519 147.932 74.1054C147.932 73.9588 147.898 73.8267 147.831 73.7088C147.768 73.5909 147.675 73.497 147.554 73.4269C147.436 73.3568 147.296 73.3218 147.134 73.3218C147.016 73.3218 146.896 73.3425 146.775 73.3839C146.654 73.4221 146.557 73.4779 146.484 73.5511H146.064L146.24 71.6973H148.07V72.0891H146.508L146.623 71.9314L146.489 73.2836L146.365 73.2406C146.457 73.1482 146.568 73.0749 146.699 73.0208C146.833 72.9666 146.984 72.9395 147.153 72.9395C147.42 72.9395 147.645 72.9953 147.827 73.1068C148.008 73.2151 148.145 73.3568 148.237 73.532C148.333 73.704 148.381 73.884 148.381 74.0719V74.1388C148.381 74.3267 148.333 74.5083 148.237 74.6835C148.142 74.8555 148 74.9972 147.812 75.1087C147.627 75.217 147.401 75.2712 147.134 75.2712ZM149.107 75.1852V71.6973H149.576V75.1852H149.107ZM149.48 75.1852V74.7647H151.076V75.1852H149.48ZM152.71 75.2712C152.442 75.2712 152.216 75.217 152.031 75.1087C151.846 74.9972 151.706 74.8523 151.611 74.6739C151.515 74.4956 151.467 74.306 151.467 74.1054H151.916C151.916 74.2519 151.948 74.3825 152.012 74.4972C152.079 74.6118 152.171 74.7026 152.289 74.7695C152.407 74.8364 152.547 74.8698 152.71 74.8698C152.869 74.8698 153.007 74.838 153.125 74.7743C153.246 74.7074 153.34 74.6166 153.407 74.5019C153.474 74.3841 153.508 74.2519 153.508 74.1054C153.508 73.9588 153.474 73.8267 153.407 73.7088C153.343 73.5909 153.251 73.497 153.13 73.4269C153.012 73.3568 152.872 73.3218 152.71 73.3218C152.592 73.3218 152.472 73.3425 152.351 73.3839C152.23 73.4221 152.133 73.4779 152.06 73.5511H151.639L151.816 71.6973H153.646V72.0891H152.084L152.198 71.9314L152.065 73.2836L151.94 73.2406C152.033 73.1482 152.144 73.0749 152.275 73.0208C152.409 72.9666 152.56 72.9395 152.729 72.9395C152.996 72.9395 153.221 72.9953 153.402 73.1068C153.584 73.2151 153.721 73.3568 153.813 73.532C153.909 73.704 153.957 73.884 153.957 74.0719V74.1388C153.957 74.3267 153.909 74.5083 153.813 74.6835C153.718 74.8555 153.576 74.9972 153.388 75.1087C153.203 75.217 152.977 75.2712 152.71 75.2712ZM154.525 75.1852V74.6023H155.08V75.1852H154.525ZM155.776 75.1852V74.6023H156.33V75.1852H155.776ZM157.026 75.1852V74.6023H157.581V75.1852H157.026ZM158.73 73.8282L157.622 71.6973H158.109L159.046 73.5225L158.864 73.4699H159.428L159.237 73.5225L160.116 71.6973H160.575L159.533 73.8282H158.73ZM158.902 75.1852V73.7327H159.361V75.1852H158.902ZM163.26 76.1933C163.088 76.1933 162.938 76.1678 162.81 76.1169C162.683 76.0691 162.584 75.9847 162.514 75.8636C162.444 75.7426 162.409 75.577 162.409 75.3667V74.9463H162.839V75.4384C162.839 75.5435 162.869 75.6263 162.93 75.6869C162.994 75.7474 163.076 75.7776 163.178 75.7776H163.771V76.1933H163.26ZM162.615 75.2712C162.302 75.2712 162.033 75.2154 161.807 75.104C161.581 74.9925 161.395 74.8459 161.248 74.6644C161.102 74.4828 160.992 74.2885 160.918 74.0815C160.848 73.8744 160.813 73.6753 160.813 73.4842V73.3791C160.813 73.1721 160.85 72.9634 160.923 72.7532C160.996 72.543 161.108 72.3519 161.258 72.1799C161.407 72.0047 161.594 71.8645 161.817 71.7594C162.043 71.6543 162.309 71.6017 162.615 71.6017C162.92 71.6017 163.185 71.6543 163.408 71.7594C163.634 71.8645 163.822 72.0047 163.971 72.1799C164.121 72.3519 164.233 72.543 164.306 72.7532C164.379 72.9634 164.416 73.1721 164.416 73.3791V73.4842C164.416 73.6753 164.379 73.8744 164.306 74.0815C164.236 74.2885 164.128 74.4828 163.981 74.6644C163.835 74.8459 163.648 74.9925 163.422 75.104C163.196 75.2154 162.927 75.2712 162.615 75.2712ZM162.615 74.8412C162.818 74.8412 163.002 74.8029 163.164 74.7265C163.33 74.6501 163.47 74.5465 163.584 74.4159C163.699 74.2821 163.787 74.1324 163.847 73.9668C163.908 73.798 163.938 73.6212 163.938 73.4365C163.938 73.2421 163.908 73.0606 163.847 72.8918C163.787 72.7229 163.699 72.5748 163.584 72.4474C163.47 72.3168 163.33 72.2149 163.164 72.1416C163.002 72.0684 162.818 72.0317 162.615 72.0317C162.411 72.0317 162.226 72.0684 162.06 72.1416C161.898 72.2149 161.759 72.3168 161.645 72.4474C161.53 72.5748 161.442 72.7229 161.382 72.8918C161.321 73.0606 161.291 73.2421 161.291 73.4365C161.291 73.6212 161.321 73.798 161.382 73.9668C161.442 74.1324 161.53 74.2821 161.645 74.4159C161.759 74.5465 161.898 74.6501 162.06 74.7265C162.226 74.8029 162.411 74.8412 162.615 74.8412ZM166.319 75.2712C166.029 75.2712 165.782 75.2234 165.578 75.1278C165.374 75.0323 165.218 74.9001 165.11 74.7313C165.001 74.5625 164.947 74.3713 164.947 74.1579H165.416C165.416 74.263 165.443 74.3682 165.497 74.4733C165.554 74.5784 165.648 74.666 165.779 74.7361C165.912 74.8061 166.092 74.8412 166.319 74.8412C166.529 74.8412 166.701 74.8109 166.835 74.7504C166.968 74.6867 167.067 74.6055 167.131 74.5067C167.195 74.4048 167.226 74.2949 167.226 74.177C167.226 74.0337 167.164 73.9158 167.04 73.8235C166.916 73.7279 166.734 73.669 166.495 73.6467L166.108 73.6132C165.799 73.5878 165.553 73.4922 165.368 73.3266C165.183 73.1609 165.091 72.9427 165.091 72.672C165.091 72.4586 165.142 72.2722 165.244 72.113C165.349 71.9537 165.494 71.8295 165.678 71.7403C165.863 71.6479 166.078 71.6017 166.323 71.6017C166.565 71.6017 166.779 71.6463 166.964 71.7355C167.148 71.8247 167.292 71.9505 167.394 72.113C167.499 72.2722 167.551 72.4633 167.551 72.6863H167.083C167.083 72.5748 167.056 72.4697 167.002 72.371C166.951 72.2722 166.87 72.191 166.758 72.1273C166.647 72.0636 166.502 72.0317 166.323 72.0317C166.151 72.0317 166.008 72.062 165.893 72.1225C165.782 72.183 165.697 72.2627 165.64 72.3614C165.586 72.457 165.559 72.5605 165.559 72.672C165.559 72.7994 165.608 72.9125 165.707 73.0112C165.806 73.11 165.952 73.1673 166.147 73.1832L166.534 73.2167C166.772 73.2358 166.978 73.2867 167.15 73.3696C167.325 73.4492 167.459 73.5575 167.551 73.6945C167.647 73.8282 167.695 73.9891 167.695 74.177C167.695 74.3904 167.637 74.58 167.523 74.7456C167.408 74.9112 167.247 75.0402 167.04 75.1326C166.833 75.225 166.593 75.2712 166.319 75.2712ZM168.337 75.1852V74.6118C168.337 74.4717 168.356 74.3522 168.394 74.2535C168.436 74.1547 168.506 74.0655 168.605 73.9859C168.703 73.9031 168.837 73.8235 169.006 73.747L169.661 73.446C169.82 73.3727 169.946 73.2788 170.038 73.1641C170.13 73.0463 170.177 72.895 170.177 72.7102C170.177 72.4872 170.114 72.3136 169.99 72.1894C169.866 72.0652 169.691 72.0031 169.465 72.0031C169.242 72.0031 169.066 72.0652 168.939 72.1894C168.812 72.3136 168.748 72.4872 168.748 72.7102H168.299C168.299 72.5095 168.34 72.3248 168.423 72.156C168.509 71.9871 168.638 71.8534 168.81 71.7546C168.982 71.6527 169.2 71.6017 169.465 71.6017C169.729 71.6017 169.946 71.6527 170.114 71.7546C170.286 71.8534 170.414 71.984 170.497 72.1464C170.583 72.3089 170.626 72.4856 170.626 72.6768V72.7436C170.626 72.9953 170.552 73.2071 170.406 73.3791C170.263 73.5511 170.068 73.6929 169.823 73.8044L169.168 74.1054C169.022 74.1723 168.923 74.2391 168.872 74.306C168.821 74.3729 168.796 74.4621 168.796 74.5736V75.0132L168.671 74.7934H170.669V75.1852H168.337Z" fill="white"/>
<path d="M157.409 63.7869V35.4605C157.409 32.4448 159.854 30 162.87 30H208.26C211.276 30 213.721 32.4448 213.721 35.4605V59.5887" stroke="#252525" stroke-width="0.341282" stroke-linecap="round" stroke-dasharray="1.71 1.71"/>
<path d="M157.409 66.005C158.257 66.005 158.945 65.3174 158.945 64.4692C158.945 63.621 158.257 62.9334 157.409 62.9334C156.561 62.9334 155.873 63.621 155.873 64.4692C155.873 65.3174 156.561 66.005 157.409 66.005Z" fill="white" stroke="#252525" stroke-width="1.02385"/>
<path d="M213.353 62.0869L211.752 59.511C211.589 59.2493 211.696 58.9234 211.934 58.793C212.072 58.7171 212.238 58.7625 212.387 58.816L213.027 59.0468C213.476 59.2086 213.967 59.2086 214.416 59.0468L215.056 58.816C215.205 58.7625 215.371 58.7172 215.509 58.7931C215.744 58.9215 215.851 59.2395 215.697 59.5007L214.181 62.0765C213.993 62.3947 213.548 62.4003 213.353 62.0869Z" fill="#252525"/>
<defs>
<linearGradient id="paint0_linear_4585_268" x1="9.06279" y1="40.5821" x2="41.3579" y2="108.99" gradientUnits="userSpaceOnUse">
<stop stop-color="#662B64"/>
<stop offset="1" stop-color="#456F97"/>
</linearGradient>
<linearGradient id="paint1_linear_4585_268" x1="183.458" y1="40.5821" x2="215.753" y2="108.99" gradientUnits="userSpaceOnUse">
<stop stop-color="#662B64"/>
<stop offset="1" stop-color="#456F97"/>
</linearGradient>
</defs>
</svg>
