<svg width="253" height="123" viewBox="0 0 253 123" fill="none" xmlns="http://www.w3.org/2000/svg">
<rect width="253" height="123" rx="10" fill="#F4F4F4"/>
<mask id="path-2-inside-1_6353_6260" fill="white">
<path d="M12 46.0405C12 45.2865 12.6112 44.6754 13.3651 44.6754H65.24C65.9939 44.6754 66.6051 45.2865 66.6051 46.0405V91.0897C66.6051 91.8437 65.9939 92.4548 65.24 92.4548H13.3651C12.6112 92.4548 12 91.8437 12 91.0897V46.0405Z"/>
</mask>
<path d="M12 46.0405C12 45.2865 12.6112 44.6754 13.3651 44.6754H65.24C65.9939 44.6754 66.6051 45.2865 66.6051 46.0405V91.0897C66.6051 91.8437 65.9939 92.4548 65.24 92.4548H13.3651C12.6112 92.4548 12 91.8437 12 91.0897V46.0405Z" fill="white"/>
<path d="M12 44.6754H66.6051H12ZM68.6528 91.0897C68.6528 92.9746 67.1248 94.5025 65.24 94.5025H13.3651C11.4803 94.5025 9.95231 92.9746 9.95231 91.0897L14.0477 90.4071H64.5574L68.6528 91.0897ZM13.3651 94.5025C11.4803 94.5025 9.95231 92.9746 9.95231 91.0897V48.0882C9.95231 46.2033 11.4803 44.6754 13.3651 44.6754H14.0477C14.0477 44.6754 14.0477 45.2865 14.0477 46.0405V90.4071L13.3651 94.5025ZM65.24 44.6754C67.1248 44.6754 68.6528 46.2033 68.6528 48.0882V91.0897C68.6528 92.9746 67.1248 94.5025 65.24 94.5025L64.5574 90.4071V46.0405C64.5574 45.2865 64.5574 44.6754 64.5574 44.6754H65.24Z" fill="url(#paint0_linear_6353_6260)" fill-opacity="0.3" mask="url(#path-2-inside-1_6353_6260)"/>
<rect x="17.1192" y="79.1456" width="44.3667" height="8.19077" rx="1.36513" fill="#1D267D"/>
<path d="M24.2704 84.741V82.1895H24.729V84.741H24.2704ZM23.8786 82.5527V82.1895H24.729V82.5527H23.8786ZM24.3994 81.7786C24.2974 81.7786 24.221 81.7516 24.17 81.6974C24.1222 81.6433 24.0984 81.5748 24.0984 81.492C24.0984 81.4091 24.1222 81.3407 24.17 81.2865C24.221 81.2324 24.2974 81.2053 24.3994 81.2053C24.5013 81.2053 24.5761 81.2324 24.6239 81.2865C24.6749 81.3407 24.7004 81.4091 24.7004 81.492C24.7004 81.5748 24.6749 81.6433 24.6239 81.6974C24.5761 81.7516 24.5013 81.7786 24.3994 81.7786ZM26.6097 84.7696C26.4186 84.7696 26.253 84.7426 26.1128 84.6884C25.9759 84.6343 25.8691 84.5419 25.7927 84.4113C25.7194 84.2775 25.6828 84.0975 25.6828 83.8714V81.4155H26.1224V83.9287C26.1224 84.0657 26.159 84.1724 26.2323 84.2488C26.3087 84.3221 26.4154 84.3587 26.5524 84.3587H27.0015V84.7696H26.6097ZM25.2432 82.5336V82.1895H27.0015V82.5336H25.2432ZM28.7162 84.827C28.4932 84.827 28.3005 84.7887 28.1381 84.7123C27.9756 84.6359 27.8434 84.5355 27.7415 84.4113C27.6396 84.2839 27.5631 84.1421 27.5122 83.9861C27.4644 83.83 27.4405 83.6707 27.4405 83.5083V83.4223C27.4405 83.2566 27.4644 83.0958 27.5122 82.9397C27.5631 82.7836 27.6396 82.6434 27.7415 82.5192C27.8434 82.3918 27.9724 82.2915 28.1285 82.2182C28.2878 82.1418 28.4741 82.1035 28.6875 82.1035C28.9647 82.1035 29.1924 82.1641 29.3708 82.2851C29.5523 82.403 29.6861 82.5559 29.7721 82.7438C29.8613 82.9317 29.9059 83.1324 29.9059 83.3458V83.5513H27.6412V83.2072H29.5715L29.4663 83.3936C29.4663 83.212 29.4377 83.0559 29.3803 82.9253C29.323 82.7916 29.237 82.688 29.1223 82.6148C29.0077 82.5415 28.8627 82.5049 28.6875 82.5049C28.506 82.5049 28.3547 82.5463 28.2336 82.6291C28.1158 82.7119 28.0266 82.825 27.9661 82.9683C27.9087 83.1117 27.8801 83.2773 27.8801 83.4653C27.8801 83.6468 27.9087 83.8109 27.9661 83.9574C28.0266 84.1007 28.119 84.2154 28.2432 84.3014C28.3674 84.3842 28.5251 84.4256 28.7162 84.4256C28.9169 84.4256 29.0793 84.381 29.2036 84.2918C29.331 84.2027 29.4074 84.0991 29.4329 83.9813H29.8629C29.8279 84.1565 29.7578 84.3078 29.6527 84.4352C29.5476 84.5626 29.4154 84.6597 29.2561 84.7266C29.0968 84.7935 28.9169 84.827 28.7162 84.827ZM30.5572 84.741V82.1895H30.9203V83.2837H30.863C30.863 83.0352 30.8948 82.825 30.9585 82.653C31.0254 82.4778 31.1242 82.344 31.2548 82.2517C31.3853 82.1593 31.551 82.1131 31.7517 82.1131H31.7708C31.9714 82.1131 32.1371 82.1593 32.2677 82.2517C32.4015 82.344 32.5002 82.4778 32.5639 82.653C32.6276 82.825 32.6595 83.0352 32.6595 83.2837H32.5257C32.5257 83.0352 32.5591 82.825 32.626 82.653C32.6929 82.4778 32.7917 82.344 32.9223 82.2517C33.056 82.1593 33.2233 82.1131 33.4239 82.1131H33.4431C33.6437 82.1131 33.811 82.1593 33.9447 82.2517C34.0785 82.344 34.1773 82.4778 34.241 82.653C34.3079 82.825 34.3413 83.0352 34.3413 83.2837V84.741H33.8826V83.1834C33.8826 82.9763 33.8317 82.817 33.7297 82.7056C33.6278 82.5909 33.4861 82.5336 33.3045 82.5336C33.1166 82.5336 32.9653 82.5941 32.8506 82.7151C32.7359 82.833 32.6786 82.9986 32.6786 83.212V84.741H32.2199V83.1834C32.2199 82.9763 32.1689 82.817 32.067 82.7056C31.9651 82.5909 31.8233 82.5336 31.6418 82.5336C31.4538 82.5336 31.3025 82.5941 31.1879 82.7151C31.0732 82.833 31.0159 82.9986 31.0159 83.212V84.741H30.5572ZM35.0569 83.6086V83.2168H36.8343V83.6086H35.0569ZM38.1239 84.741V81.4824L38.3341 81.6449H37.3499V81.2531H38.5826V84.741H38.1239ZM40.9308 85.6966V81.2531H41.3417V85.6966H40.9308ZM44.8944 84.827C44.6332 84.827 44.4102 84.7824 44.2255 84.6932C44.0439 84.6008 43.8958 84.4766 43.7811 84.3205C43.6696 84.1644 43.5884 83.9845 43.5374 83.7806C43.4865 83.5736 43.461 83.3554 43.461 83.126V82.868C43.461 82.5463 43.5104 82.2564 43.6091 81.9984C43.711 81.7404 43.8671 81.5366 44.0773 81.3868C44.2908 81.234 44.5631 81.1575 44.8944 81.1575C45.2256 81.1575 45.4964 81.234 45.7066 81.3868C45.9169 81.5366 46.0713 81.7404 46.1701 81.9984C46.272 82.2564 46.323 82.5463 46.323 82.868V83.126C46.323 83.3554 46.2975 83.5736 46.2465 83.7806C46.1956 83.9845 46.1128 84.1644 45.9981 84.3205C45.8866 84.4766 45.7401 84.6008 45.5585 84.6932C45.3769 84.7824 45.1556 84.827 44.8944 84.827ZM44.8944 84.4065C45.2256 84.4065 45.4677 84.295 45.6206 84.0721C45.7767 83.8459 45.8547 83.4891 45.8547 83.0018C45.8547 82.4921 45.7751 82.1274 45.6158 81.9076C45.4598 81.6879 45.2193 81.578 44.8944 81.578C44.5663 81.578 44.3226 81.6879 44.1633 81.9076C44.0073 82.1274 43.9292 82.489 43.9292 82.9922C43.9292 83.4828 44.0073 83.8411 44.1633 84.0673C44.3194 84.2934 44.5631 84.4065 44.8944 84.4065ZM46.8016 84.741L47.7141 83.3984L47.6998 83.4939L46.8446 82.1895H47.351L47.9674 83.1499H48.0343L48.6172 82.1895H49.0902L48.2827 83.4605L48.2971 83.3745L49.2526 84.741H48.7462L48.0295 83.7042H47.9626L47.2746 84.741H46.8016ZM51.1188 84.827C50.8576 84.827 50.6346 84.7824 50.4499 84.6932C50.2683 84.6008 50.1202 84.4766 50.0055 84.3205C49.894 84.1644 49.8128 83.9845 49.7618 83.7806C49.7109 83.5736 49.6854 83.3554 49.6854 83.126V82.868C49.6854 82.5463 49.7348 82.2564 49.8335 81.9984C49.9354 81.7404 50.0915 81.5366 50.3017 81.3868C50.5152 81.234 50.7875 81.1575 51.1188 81.1575C51.45 81.1575 51.7208 81.234 51.931 81.3868C52.1413 81.5366 52.2957 81.7404 52.3945 81.9984C52.4964 82.2564 52.5474 82.5463 52.5474 82.868V83.126C52.5474 83.3554 52.5219 83.5736 52.4709 83.7806C52.42 83.9845 52.3371 84.1644 52.2225 84.3205C52.111 84.4766 51.9645 84.6008 51.7829 84.6932C51.6013 84.7824 51.38 84.827 51.1188 84.827ZM51.1188 84.4065C51.45 84.4065 51.6921 84.295 51.845 84.0721C52.0011 83.8459 52.0791 83.4891 52.0791 83.0018C52.0791 82.4921 51.9995 82.1274 51.8402 81.9076C51.6842 81.6879 51.4437 81.578 51.1188 81.578C50.7907 81.578 50.547 81.6879 50.3877 81.9076C50.2317 82.1274 50.1536 82.489 50.1536 82.9922C50.1536 83.4828 50.2317 83.8411 50.3877 84.0673C50.5438 84.2934 50.7875 84.4065 51.1188 84.4065ZM53.8669 84.741V81.4824L54.0771 81.6449H53.0928V81.2531H54.3256V84.741H53.8669Z" fill="white"/>
<rect x="17.1192" y="69.5898" width="44.3667" height="8.19077" rx="1.36513" fill="#5C469C"/>
<path d="M23.3232 75.1852V72.6338H23.7819V75.1852H23.3232ZM22.9314 72.9969V72.6338H23.7819V72.9969H22.9314ZM23.4522 72.2229C23.3502 72.2229 23.2738 72.1958 23.2228 72.1416C23.1751 72.0875 23.1512 72.019 23.1512 71.9362C23.1512 71.8534 23.1751 71.7849 23.2228 71.7307C23.2738 71.6766 23.3502 71.6495 23.4522 71.6495C23.5541 71.6495 23.629 71.6766 23.6767 71.7307C23.7277 71.7849 23.7532 71.8534 23.7532 71.9362C23.7532 72.019 23.7277 72.0875 23.6767 72.1416C23.629 72.1958 23.5541 72.2229 23.4522 72.2229ZM25.6625 75.2138C25.4714 75.2138 25.3058 75.1868 25.1656 75.1326C25.0287 75.0785 24.922 74.9861 24.8455 74.8555C24.7722 74.7217 24.7356 74.5418 24.7356 74.3156V71.8597H25.1752V74.3729C25.1752 74.5099 25.2118 74.6166 25.2851 74.6931C25.3615 74.7663 25.4682 74.8029 25.6052 74.8029H26.0543V75.2138H25.6625ZM24.296 72.9778V72.6338H26.0543V72.9778H24.296ZM27.769 75.2712C27.546 75.2712 27.3533 75.233 27.1909 75.1565C27.0284 75.0801 26.8962 74.9797 26.7943 74.8555C26.6924 74.7281 26.6159 74.5863 26.565 74.4303C26.5172 74.2742 26.4933 74.1149 26.4933 73.9525V73.8665C26.4933 73.7008 26.5172 73.54 26.565 73.3839C26.6159 73.2278 26.6924 73.0877 26.7943 72.9634C26.8962 72.836 27.0252 72.7357 27.1813 72.6624C27.3406 72.586 27.5269 72.5478 27.7403 72.5478C28.0175 72.5478 28.2452 72.6083 28.4236 72.7293C28.6052 72.8472 28.7389 73.0001 28.8249 73.188C28.9141 73.3759 28.9587 73.5766 28.9587 73.79V73.9955H26.694V73.6515H28.6243L28.5192 73.8378C28.5192 73.6562 28.4905 73.5002 28.4331 73.3696C28.3758 73.2358 28.2898 73.1323 28.1751 73.059C28.0605 72.9857 27.9155 72.9491 27.7403 72.9491C27.5588 72.9491 27.4075 72.9905 27.2864 73.0733C27.1686 73.1561 27.0794 73.2692 27.0189 73.4126C26.9615 73.5559 26.9329 73.7215 26.9329 73.9095C26.9329 74.091 26.9615 74.2551 27.0189 74.4016C27.0794 74.5449 27.1718 74.6596 27.296 74.7456C27.4202 74.8284 27.5779 74.8698 27.769 74.8698C27.9697 74.8698 28.1321 74.8252 28.2564 74.7361C28.3838 74.6469 28.4602 74.5433 28.4857 74.4255H28.9157C28.8807 74.6007 28.8106 74.752 28.7055 74.8794C28.6004 75.0068 28.4682 75.104 28.3089 75.1708C28.1497 75.2377 27.9697 75.2712 27.769 75.2712ZM29.61 75.1852V72.6338H29.9731V73.7279H29.9158C29.9158 73.4795 29.9476 73.2692 30.0113 73.0972C30.0782 72.922 30.177 72.7882 30.3076 72.6959C30.4382 72.6035 30.6038 72.5573 30.8045 72.5573H30.8236C31.0243 72.5573 31.1899 72.6035 31.3205 72.6959C31.4543 72.7882 31.553 72.922 31.6167 73.0972C31.6804 73.2692 31.7123 73.4795 31.7123 73.7279H31.5785C31.5785 73.4795 31.6119 73.2692 31.6788 73.0972C31.7457 72.922 31.8445 72.7882 31.9751 72.6959C32.1088 72.6035 32.2761 72.5573 32.4767 72.5573H32.4959C32.6965 72.5573 32.8638 72.6035 32.9975 72.6959C33.1313 72.7882 33.2301 72.922 33.2938 73.0972C33.3607 73.2692 33.3941 73.4795 33.3941 73.7279V75.1852H32.9354V73.6276C32.9354 73.4205 32.8845 73.2613 32.7825 73.1498C32.6806 73.0351 32.5389 72.9778 32.3573 72.9778C32.1694 72.9778 32.0181 73.0383 31.9034 73.1593C31.7887 73.2772 31.7314 73.4428 31.7314 73.6562V75.1852H31.2727V73.6276C31.2727 73.4205 31.2217 73.2613 31.1198 73.1498C31.0179 73.0351 30.8761 72.9778 30.6946 72.9778C30.5066 72.9778 30.3553 73.0383 30.2407 73.1593C30.126 73.2772 30.0687 73.4428 30.0687 73.6562V75.1852H29.61ZM34.1097 74.0528V73.661H35.8871V74.0528H34.1097ZM36.5651 75.1852V74.6118C36.5651 74.4717 36.5843 74.3522 36.6225 74.2535C36.6639 74.1547 36.734 74.0655 36.8327 73.9859C36.9315 73.9031 37.0652 73.8235 37.2341 73.747L37.8886 73.446C38.0479 73.3727 38.1737 73.2788 38.2661 73.1641C38.3585 73.0463 38.4047 72.895 38.4047 72.7102C38.4047 72.4872 38.3425 72.3136 38.2183 72.1894C38.0941 72.0652 37.9189 72.0031 37.6927 72.0031C37.4698 72.0031 37.2946 72.0652 37.1672 72.1894C37.0398 72.3136 36.976 72.4872 36.976 72.7102H36.5269C36.5269 72.5095 36.5683 72.3248 36.6511 72.156C36.7371 71.9871 36.8662 71.8534 37.0382 71.7546C37.2102 71.6527 37.4284 71.6017 37.6927 71.6017C37.9571 71.6017 38.1737 71.6527 38.3425 71.7546C38.5145 71.8534 38.642 71.984 38.7248 72.1464C38.8108 72.3089 38.8538 72.4856 38.8538 72.6768V72.7436C38.8538 72.9953 38.7805 73.2071 38.634 73.3791C38.4907 73.5511 38.2964 73.6929 38.0511 73.8044L37.3965 74.1054C37.25 74.1723 37.1512 74.2391 37.1003 74.306C37.0493 74.3729 37.0238 74.4621 37.0238 74.5736V75.0132L36.8996 74.7934H38.8968V75.1852H36.5651ZM40.9308 76.1408V71.6973H41.3417V76.1408H40.9308ZM44.8944 75.2712C44.6332 75.2712 44.4102 75.2266 44.2255 75.1374C44.0439 75.045 43.8958 74.9208 43.7811 74.7647C43.6696 74.6086 43.5884 74.4287 43.5374 74.2248C43.4865 74.0178 43.461 73.7996 43.461 73.5702V73.3122C43.461 72.9905 43.5104 72.7006 43.6091 72.4426C43.711 72.1846 43.8671 71.9808 44.0773 71.8311C44.2908 71.6782 44.5631 71.6017 44.8944 71.6017C45.2256 71.6017 45.4964 71.6782 45.7066 71.8311C45.9169 71.9808 46.0713 72.1846 46.1701 72.4426C46.272 72.7006 46.323 72.9905 46.323 73.3122V73.5702C46.323 73.7996 46.2975 74.0178 46.2465 74.2248C46.1956 74.4287 46.1128 74.6086 45.9981 74.7647C45.8866 74.9208 45.7401 75.045 45.5585 75.1374C45.3769 75.2266 45.1556 75.2712 44.8944 75.2712ZM44.8944 74.8507C45.2256 74.8507 45.4677 74.7392 45.6206 74.5163C45.7767 74.2901 45.8547 73.9334 45.8547 73.446C45.8547 72.9364 45.7751 72.5716 45.6158 72.3519C45.4598 72.1321 45.2193 72.0222 44.8944 72.0222C44.5663 72.0222 44.3226 72.1321 44.1633 72.3519C44.0073 72.5716 43.9292 72.9332 43.9292 73.4365C43.9292 73.927 44.0073 74.2853 44.1633 74.5115C44.3194 74.7376 44.5631 74.8507 44.8944 74.8507ZM46.8016 75.1852L47.7141 73.8426L47.6998 73.9381L46.8446 72.6338H47.351L47.9674 73.5941H48.0343L48.6172 72.6338H49.0902L48.2827 73.9047L48.2971 73.8187L49.2526 75.1852H48.7462L48.0295 74.1484H47.9626L47.2746 75.1852H46.8016ZM51.1188 75.2712C50.8576 75.2712 50.6346 75.2266 50.4499 75.1374C50.2683 75.045 50.1202 74.9208 50.0055 74.7647C49.894 74.6086 49.8128 74.4287 49.7618 74.2248C49.7109 74.0178 49.6854 73.7996 49.6854 73.5702V73.3122C49.6854 72.9905 49.7348 72.7006 49.8335 72.4426C49.9354 72.1846 50.0915 71.9808 50.3017 71.8311C50.5152 71.6782 50.7875 71.6017 51.1188 71.6017C51.45 71.6017 51.7208 71.6782 51.931 71.8311C52.1413 71.9808 52.2957 72.1846 52.3945 72.4426C52.4964 72.7006 52.5474 72.9905 52.5474 73.3122V73.5702C52.5474 73.7996 52.5219 74.0178 52.4709 74.2248C52.42 74.4287 52.3371 74.6086 52.2225 74.7647C52.111 74.9208 51.9645 75.045 51.7829 75.1374C51.6013 75.2266 51.38 75.2712 51.1188 75.2712ZM51.1188 74.8507C51.45 74.8507 51.6921 74.7392 51.845 74.5163C52.0011 74.2901 52.0791 73.9334 52.0791 73.446C52.0791 72.9364 51.9995 72.5716 51.8402 72.3519C51.6842 72.1321 51.4437 72.0222 51.1188 72.0222C50.7907 72.0222 50.547 72.1321 50.3877 72.3519C50.2317 72.5716 50.1536 72.9332 50.1536 73.4365C50.1536 73.927 50.2317 74.2853 50.3877 74.5115C50.5438 74.7376 50.7875 74.8507 51.1188 74.8507ZM53.2553 75.1852V74.6118C53.2553 74.4717 53.2744 74.3522 53.3126 74.2535C53.354 74.1547 53.4241 74.0655 53.5229 73.9859C53.6216 73.9031 53.7554 73.8235 53.9242 73.747L54.5788 73.446C54.7381 73.3727 54.8639 73.2788 54.9562 73.1641C55.0486 73.0463 55.0948 72.895 55.0948 72.7102C55.0948 72.4872 55.0327 72.3136 54.9085 72.1894C54.7842 72.0652 54.609 72.0031 54.3829 72.0031C54.1599 72.0031 53.9847 72.0652 53.8573 72.1894C53.7299 72.3136 53.6662 72.4872 53.6662 72.7102H53.2171C53.2171 72.5095 53.2585 72.3248 53.3413 72.156C53.4273 71.9871 53.5563 71.8534 53.7283 71.7546C53.9003 71.6527 54.1185 71.6017 54.3829 71.6017C54.6473 71.6017 54.8639 71.6527 55.0327 71.7546C55.2047 71.8534 55.3321 71.984 55.4149 72.1464C55.5009 72.3089 55.5439 72.4856 55.5439 72.6768V72.7436C55.5439 72.9953 55.4707 73.2071 55.3241 73.3791C55.1808 73.5511 54.9865 73.6929 54.7412 73.8044L54.0867 74.1054C53.9401 74.1723 53.8414 74.2391 53.7904 74.306C53.7395 74.3729 53.714 74.4621 53.714 74.5736V75.0132L53.5898 74.7934H55.5869V75.1852H53.2553Z" fill="white"/>
<rect x="73.4302" y="60.0339" width="44.3667" height="8.19077" rx="1.36513" fill="#1D267D"/>
<path d="M80.5813 65.6293V63.0779H81.04V65.6293H80.5813ZM80.1895 63.441V63.0779H81.04V63.441H80.1895ZM80.7103 62.667C80.6084 62.667 80.532 62.6399 80.481 62.5858C80.4332 62.5316 80.4093 62.4631 80.4093 62.3803C80.4093 62.2975 80.4332 62.229 80.481 62.1749C80.532 62.1207 80.6084 62.0937 80.7103 62.0937C80.8123 62.0937 80.8871 62.1207 80.9349 62.1749C80.9859 62.229 81.0113 62.2975 81.0113 62.3803C81.0113 62.4631 80.9859 62.5316 80.9349 62.5858C80.8871 62.6399 80.8123 62.667 80.7103 62.667ZM82.9207 65.658C82.7296 65.658 82.5639 65.6309 82.4238 65.5768C82.2868 65.5226 82.1801 65.4303 82.1037 65.2997C82.0304 65.1659 81.9938 64.9859 81.9938 64.7597V62.3039H82.4333V64.8171C82.4333 64.9541 82.47 65.0608 82.5432 65.1372C82.6197 65.2105 82.7264 65.2471 82.8634 65.2471H83.3125V65.658H82.9207ZM81.5542 63.4219V63.0779H83.3125V63.4219H81.5542ZM85.0272 65.7153C84.8042 65.7153 84.6115 65.6771 84.449 65.6007C84.2866 65.5242 84.1544 65.4239 84.0525 65.2997C83.9505 65.1722 83.8741 65.0305 83.8231 64.8744C83.7754 64.7183 83.7515 64.5591 83.7515 64.3966V64.3106C83.7515 64.145 83.7754 63.9841 83.8231 63.828C83.8741 63.672 83.9505 63.5318 84.0525 63.4076C84.1544 63.2802 84.2834 63.1798 84.4395 63.1066C84.5988 63.0301 84.7851 62.9919 84.9985 62.9919C85.2756 62.9919 85.5034 63.0524 85.6818 63.1735C85.8633 63.2913 85.9971 63.4442 86.0831 63.6322C86.1723 63.8201 86.2169 64.0208 86.2169 64.2342V64.4396H83.9521V64.0956H85.8824L85.7773 64.282C85.7773 64.1004 85.7486 63.9443 85.6913 63.8137C85.634 63.6799 85.548 63.5764 85.4333 63.5031C85.3186 63.4299 85.1737 63.3933 84.9985 63.3933C84.8169 63.3933 84.6656 63.4347 84.5446 63.5175C84.4267 63.6003 84.3376 63.7134 84.277 63.8567C84.2197 64.0001 84.191 64.1657 84.191 64.3536C84.191 64.5352 84.2197 64.6992 84.277 64.8457C84.3376 64.9891 84.4299 65.1038 84.5542 65.1898C84.6784 65.2726 84.8361 65.314 85.0272 65.314C85.2279 65.314 85.3903 65.2694 85.5145 65.1802C85.6419 65.091 85.7184 64.9875 85.7439 64.8696H86.1739C86.1388 65.0448 86.0688 65.1961 85.9637 65.3235C85.8585 65.451 85.7264 65.5481 85.5671 65.615C85.4078 65.6819 85.2279 65.7153 85.0272 65.7153ZM86.8681 65.6293V63.0779H87.2313V64.1721H87.1739C87.1739 63.9236 87.2058 63.7134 87.2695 63.5414C87.3364 63.3662 87.4351 63.2324 87.5657 63.14C87.6963 63.0476 87.862 63.0015 88.0626 63.0015H88.0817C88.2824 63.0015 88.4481 63.0476 88.5786 63.14C88.7124 63.2324 88.8112 63.3662 88.8749 63.5414C88.9386 63.7134 88.9704 63.9236 88.9704 64.1721H88.8367C88.8367 63.9236 88.8701 63.7134 88.937 63.5414C89.0039 63.3662 89.1026 63.2324 89.2332 63.14C89.367 63.0476 89.5342 63.0015 89.7349 63.0015H89.754C89.9547 63.0015 90.1219 63.0476 90.2557 63.14C90.3895 63.2324 90.4882 63.3662 90.5519 63.5414C90.6188 63.7134 90.6523 63.9236 90.6523 64.1721V65.6293H90.1936V64.0717C90.1936 63.8647 90.1426 63.7054 90.0407 63.5939C89.9388 63.4793 89.797 63.4219 89.6155 63.4219C89.4275 63.4219 89.2762 63.4824 89.1616 63.6035C89.0469 63.7213 88.9896 63.887 88.9896 64.1004V65.6293H88.5309V64.0717C88.5309 63.8647 88.4799 63.7054 88.378 63.5939C88.276 63.4793 88.1343 63.4219 87.9527 63.4219C87.7648 63.4219 87.6135 63.4824 87.4988 63.6035C87.3842 63.7213 87.3268 63.887 87.3268 64.1004V65.6293H86.8681ZM91.3679 64.497V64.1052H93.1453V64.497H91.3679ZM94.4349 65.6293V62.3708L94.6451 62.5332H93.6609V62.1414H94.8936V65.6293H94.4349ZM97.2417 66.5849V62.1414H97.6526V66.5849H97.2417ZM101.205 65.7153C100.944 65.7153 100.721 65.6707 100.536 65.5816C100.355 65.4892 100.207 65.365 100.092 65.2089C99.9806 65.0528 99.8994 64.8728 99.8484 64.669C99.7974 64.4619 99.772 64.2437 99.772 64.0144V63.7564C99.772 63.4347 99.8213 63.1448 99.9201 62.8868C100.022 62.6288 100.178 62.4249 100.388 62.2752C100.602 62.1223 100.874 62.0459 101.205 62.0459C101.537 62.0459 101.807 62.1223 102.018 62.2752C102.228 62.4249 102.382 62.6288 102.481 62.8868C102.583 63.1448 102.634 63.4347 102.634 63.7564V64.0144C102.634 64.2437 102.608 64.4619 102.558 64.669C102.507 64.8728 102.424 65.0528 102.309 65.2089C102.198 65.365 102.051 65.4892 101.869 65.5816C101.688 65.6707 101.467 65.7153 101.205 65.7153ZM101.205 65.2949C101.537 65.2949 101.779 65.1834 101.932 64.9604C102.088 64.7343 102.166 64.3775 102.166 63.8902C102.166 63.3805 102.086 63.0158 101.927 62.796C101.771 62.5762 101.53 62.4663 101.205 62.4663C100.877 62.4663 100.634 62.5762 100.474 62.796C100.318 63.0158 100.24 63.3773 100.24 63.8806C100.24 64.3711 100.318 64.7295 100.474 64.9556C100.63 65.1818 100.874 65.2949 101.205 65.2949ZM103.113 65.6293L104.025 64.2867L104.011 64.3823L103.156 63.0779H103.662L104.278 64.0383H104.345L104.928 63.0779H105.401L104.594 64.3488L104.608 64.2628L105.564 65.6293H105.057L104.34 64.5925H104.274L103.586 65.6293H103.113ZM107.43 65.7153C107.169 65.7153 106.946 65.6707 106.761 65.5816C106.579 65.4892 106.431 65.365 106.316 65.2089C106.205 65.0528 106.124 64.8728 106.073 64.669C106.022 64.4619 105.996 64.2437 105.996 64.0144V63.7564C105.996 63.4347 106.046 63.1448 106.144 62.8868C106.246 62.6288 106.402 62.4249 106.613 62.2752C106.826 62.1223 107.098 62.0459 107.43 62.0459C107.761 62.0459 108.032 62.1223 108.242 62.2752C108.452 62.4249 108.607 62.6288 108.705 62.8868C108.807 63.1448 108.858 63.4347 108.858 63.7564V64.0144C108.858 64.2437 108.833 64.4619 108.782 64.669C108.731 64.8728 108.648 65.0528 108.533 65.2089C108.422 65.365 108.275 65.4892 108.094 65.5816C107.912 65.6707 107.691 65.7153 107.43 65.7153ZM107.43 65.2949C107.761 65.2949 108.003 65.1834 108.156 64.9604C108.312 64.7343 108.39 64.3775 108.39 63.8902C108.39 63.3805 108.31 63.0158 108.151 62.796C107.995 62.5762 107.755 62.4663 107.43 62.4663C107.102 62.4663 106.858 62.5762 106.699 62.796C106.543 63.0158 106.465 63.3773 106.465 63.8806C106.465 64.3711 106.543 64.7295 106.699 64.9556C106.855 65.1818 107.098 65.2949 107.43 65.2949ZM110.178 65.6293V62.3708L110.388 62.5332H109.404V62.1414H110.637V65.6293H110.178Z" fill="white"/>
<rect x="73.4302" y="69.5898" width="44.3667" height="8.19077" rx="1.36513" fill="#5C469C"/>
<path d="M79.6341 75.1852V72.6338H80.0928V75.1852H79.6341ZM79.2424 72.9969V72.6338H80.0928V72.9969H79.2424ZM79.7631 72.2229C79.6612 72.2229 79.5848 72.1958 79.5338 72.1417C79.486 72.0875 79.4621 72.0191 79.4621 71.9362C79.4621 71.8534 79.486 71.7849 79.5338 71.7308C79.5848 71.6766 79.6612 71.6496 79.7631 71.6496C79.8651 71.6496 79.9399 71.6766 79.9877 71.7308C80.0387 71.7849 80.0642 71.8534 80.0642 71.9362C80.0642 72.0191 80.0387 72.0875 79.9877 72.1417C79.9399 72.1958 79.8651 72.2229 79.7631 72.2229ZM81.9735 75.2139C81.7824 75.2139 81.6168 75.1868 81.4766 75.1327C81.3396 75.0785 81.2329 74.9862 81.1565 74.8556C81.0832 74.7218 81.0466 74.5418 81.0466 74.3157V71.8598H81.4862V74.373C81.4862 74.51 81.5228 74.6167 81.5961 74.6931C81.6725 74.7664 81.7792 74.803 81.9162 74.803H82.3653V75.2139H81.9735ZM80.607 72.9778V72.6338H82.3653V72.9778H80.607ZM84.08 75.2712C83.857 75.2712 83.6643 75.233 83.5019 75.1566C83.3394 75.0801 83.2072 74.9798 83.1053 74.8556C83.0034 74.7282 82.9269 74.5864 82.8759 74.4303C82.8282 74.2742 82.8043 74.115 82.8043 73.9525V73.8665C82.8043 73.7009 82.8282 73.54 82.8759 73.384C82.9269 73.2279 83.0034 73.0877 83.1053 72.9635C83.2072 72.8361 83.3362 72.7357 83.4923 72.6625C83.6516 72.586 83.8379 72.5478 84.0513 72.5478C84.3284 72.5478 84.5562 72.6083 84.7346 72.7294C84.9161 72.8472 85.0499 73.0001 85.1359 73.1881C85.2251 73.376 85.2697 73.5767 85.2697 73.7901V73.9955H83.0049V73.6515H84.9352L84.8301 73.8379C84.8301 73.6563 84.8015 73.5002 84.7441 73.3696C84.6868 73.2358 84.6008 73.1323 84.4861 73.0591C84.3714 72.9858 84.2265 72.9492 84.0513 72.9492C83.8698 72.9492 83.7185 72.9906 83.5974 73.0734C83.4796 73.1562 83.3904 73.2693 83.3298 73.4126C83.2725 73.556 83.2438 73.7216 83.2438 73.9095C83.2438 74.0911 83.2725 74.2551 83.3298 74.4017C83.3904 74.545 83.4827 74.6597 83.607 74.7457C83.7312 74.8285 83.8889 74.8699 84.08 74.8699C84.2807 74.8699 84.4431 74.8253 84.5673 74.7361C84.6947 74.6469 84.7712 74.5434 84.7967 74.4255H85.2267C85.1917 74.6007 85.1216 74.752 85.0165 74.8795C84.9113 75.0069 84.7792 75.104 84.6199 75.1709C84.4606 75.2378 84.2807 75.2712 84.08 75.2712ZM85.921 75.1852V72.6338H86.2841V73.728H86.2267C86.2267 73.4795 86.2586 73.2693 86.3223 73.0973C86.3892 72.9221 86.4879 72.7883 86.6185 72.6959C86.7491 72.6036 86.9148 72.5574 87.1154 72.5574H87.1346C87.3352 72.5574 87.5009 72.6036 87.6315 72.6959C87.7652 72.7883 87.864 72.9221 87.9277 73.0973C87.9914 73.2693 88.0232 73.4795 88.0232 73.728H87.8895C87.8895 73.4795 87.9229 73.2693 87.9898 73.0973C88.0567 72.9221 88.1554 72.7883 88.286 72.6959C88.4198 72.6036 88.587 72.5574 88.7877 72.5574H88.8068C89.0075 72.5574 89.1747 72.6036 89.3085 72.6959C89.4423 72.7883 89.541 72.9221 89.6048 73.0973C89.6716 73.2693 89.7051 73.4795 89.7051 73.728V75.1852H89.2464V73.6276C89.2464 73.4206 89.1954 73.2613 89.0935 73.1498C88.9916 73.0352 88.8498 72.9778 88.6683 72.9778C88.4803 72.9778 88.329 73.0384 88.2144 73.1594C88.0997 73.2772 88.0424 73.4429 88.0424 73.6563V75.1852H87.5837V73.6276C87.5837 73.4206 87.5327 73.2613 87.4308 73.1498C87.3289 73.0352 87.1871 72.9778 87.0055 72.9778C86.8176 72.9778 86.6663 73.0384 86.5516 73.1594C86.437 73.2772 86.3796 73.4429 86.3796 73.6563V75.1852H85.921ZM90.4207 74.0529V73.6611H92.1981V74.0529H90.4207ZM92.8761 75.1852V74.6119C92.8761 74.4717 92.8952 74.3523 92.9335 74.2535C92.9749 74.1548 93.0449 74.0656 93.1437 73.986C93.2424 73.9032 93.3762 73.8235 93.545 73.7471L94.1996 73.4461C94.3589 73.3728 94.4847 73.2788 94.5771 73.1642C94.6694 73.0463 94.7156 72.895 94.7156 72.7103C94.7156 72.4873 94.6535 72.3137 94.5293 72.1895C94.4051 72.0652 94.2299 72.0031 94.0037 72.0031C93.7807 72.0031 93.6055 72.0652 93.4781 72.1895C93.3507 72.3137 93.287 72.4873 93.287 72.7103H92.8379C92.8379 72.5096 92.8793 72.3248 92.9621 72.156C93.0481 71.9872 93.1771 71.8534 93.3491 71.7547C93.5211 71.6527 93.7393 71.6018 94.0037 71.6018C94.2681 71.6018 94.4847 71.6527 94.6535 71.7547C94.8255 71.8534 94.9529 71.984 95.0357 72.1465C95.1218 72.3089 95.1648 72.4857 95.1648 72.6768V72.7437C95.1648 72.9953 95.0915 73.2072 94.945 73.3792C94.8016 73.5512 94.6073 73.6929 94.3621 73.8044L93.7075 74.1054C93.561 74.1723 93.4622 74.2392 93.4112 74.3061C93.3603 74.373 93.3348 74.4622 93.3348 74.5737V75.0132L93.2106 74.7934H95.2078V75.1852H92.8761ZM97.2417 76.1408V71.6973H97.6526V76.1408H97.2417ZM101.205 75.2712C100.944 75.2712 100.721 75.2267 100.536 75.1375C100.355 75.0451 100.207 74.9209 100.092 74.7648C99.9806 74.6087 99.8994 74.4287 99.8484 74.2249C99.7974 74.0178 99.772 73.7996 99.772 73.5703V73.3123C99.772 72.9906 99.8213 72.7007 99.9201 72.4427C100.022 72.1847 100.178 71.9808 100.388 71.8311C100.602 71.6782 100.874 71.6018 101.205 71.6018C101.537 71.6018 101.807 71.6782 102.018 71.8311C102.228 71.9808 102.382 72.1847 102.481 72.4427C102.583 72.7007 102.634 72.9906 102.634 73.3123V73.5703C102.634 73.7996 102.608 74.0178 102.558 74.2249C102.507 74.4287 102.424 74.6087 102.309 74.7648C102.198 74.9209 102.051 75.0451 101.869 75.1375C101.688 75.2267 101.467 75.2712 101.205 75.2712ZM101.205 74.8508C101.537 74.8508 101.779 74.7393 101.932 74.5163C102.088 74.2902 102.166 73.9334 102.166 73.4461C102.166 72.9364 102.086 72.5717 101.927 72.3519C101.771 72.1321 101.53 72.0222 101.205 72.0222C100.877 72.0222 100.634 72.1321 100.474 72.3519C100.318 72.5717 100.24 72.9332 100.24 73.4365C100.24 73.927 100.318 74.2854 100.474 74.5116C100.63 74.7377 100.874 74.8508 101.205 74.8508ZM103.113 75.1852L104.025 73.8426L104.011 73.9382L103.156 72.6338H103.662L104.278 73.5942H104.345L104.928 72.6338H105.401L104.594 73.9048L104.608 73.8187L105.564 75.1852H105.057L104.34 74.1484H104.274L103.586 75.1852H103.113ZM107.43 75.2712C107.169 75.2712 106.946 75.2267 106.761 75.1375C106.579 75.0451 106.431 74.9209 106.316 74.7648C106.205 74.6087 106.124 74.4287 106.073 74.2249C106.022 74.0178 105.996 73.7996 105.996 73.5703V73.3123C105.996 72.9906 106.046 72.7007 106.144 72.4427C106.246 72.1847 106.402 71.9808 106.613 71.8311C106.826 71.6782 107.098 71.6018 107.43 71.6018C107.761 71.6018 108.032 71.6782 108.242 71.8311C108.452 71.9808 108.607 72.1847 108.705 72.4427C108.807 72.7007 108.858 72.9906 108.858 73.3123V73.5703C108.858 73.7996 108.833 74.0178 108.782 74.2249C108.731 74.4287 108.648 74.6087 108.533 74.7648C108.422 74.9209 108.275 75.0451 108.094 75.1375C107.912 75.2267 107.691 75.2712 107.43 75.2712ZM107.43 74.8508C107.761 74.8508 108.003 74.7393 108.156 74.5163C108.312 74.2902 108.39 73.9334 108.39 73.4461C108.39 72.9364 108.31 72.5717 108.151 72.3519C107.995 72.1321 107.755 72.0222 107.43 72.0222C107.102 72.0222 106.858 72.1321 106.699 72.3519C106.543 72.5717 106.465 72.9332 106.465 73.4365C106.465 73.927 106.543 74.2854 106.699 74.5116C106.855 74.7377 107.098 74.8508 107.43 74.8508ZM109.566 75.1852V74.6119C109.566 74.4717 109.585 74.3523 109.624 74.2535C109.665 74.1548 109.735 74.0656 109.834 73.986C109.933 73.9032 110.066 73.8235 110.235 73.7471L110.89 73.4461C111.049 73.3728 111.175 73.2788 111.267 73.1642C111.36 73.0463 111.406 72.895 111.406 72.7103C111.406 72.4873 111.344 72.3137 111.219 72.1895C111.095 72.0652 110.92 72.0031 110.694 72.0031C110.471 72.0031 110.296 72.0652 110.168 72.1895C110.041 72.3137 109.977 72.4873 109.977 72.7103H109.528C109.528 72.5096 109.569 72.3248 109.652 72.156C109.738 71.9872 109.867 71.8534 110.039 71.7547C110.211 71.6527 110.429 71.6018 110.694 71.6018C110.958 71.6018 111.175 71.6527 111.344 71.7547C111.516 71.8534 111.643 71.984 111.726 72.1465C111.812 72.3089 111.855 72.4857 111.855 72.6768V72.7437C111.855 72.9953 111.782 73.2072 111.635 73.3792C111.492 73.5512 111.297 73.6929 111.052 73.8044L110.398 74.1054C110.251 74.1723 110.152 74.2392 110.101 74.3061C110.05 74.373 110.025 74.4622 110.025 74.5737V75.0132L109.901 74.7934H111.898V75.1852H109.566Z" fill="white"/>
<rect x="73.4302" y="79.1458" width="44.3667" height="8.19077" rx="1.36513" fill="#0C134F"/>
<path d="M82.6077 84.8272C82.3847 84.8272 82.1888 84.7889 82.02 84.7125C81.8512 84.636 81.7078 84.5357 81.59 84.4115C81.4753 84.2841 81.3877 84.1423 81.3272 83.9862C81.2698 83.8302 81.2412 83.6709 81.2412 83.5084V83.4224C81.2412 83.26 81.2714 83.1007 81.332 82.9446C81.3925 82.7854 81.4817 82.6436 81.5995 82.5194C81.7174 82.392 81.8607 82.2917 82.0295 82.2184C82.1984 82.1419 82.3911 82.1037 82.6077 82.1037C82.8243 82.1037 83.017 82.1419 83.1858 82.2184C83.3546 82.2917 83.498 82.392 83.6158 82.5194C83.7337 82.6436 83.8229 82.7854 83.8834 82.9446C83.9439 83.1007 83.9742 83.26 83.9742 83.4224V83.5084C83.9742 83.6709 83.9439 83.8302 83.8834 83.9862C83.826 84.1423 83.7385 84.2841 83.6206 84.4115C83.5059 84.5357 83.3642 84.636 83.1954 84.7125C83.0265 84.7889 82.8306 84.8272 82.6077 84.8272ZM82.6077 84.4162C82.7988 84.4162 82.9612 84.3748 83.095 84.292C83.232 84.206 83.3355 84.0913 83.4056 83.948C83.4788 83.8047 83.5155 83.6438 83.5155 83.4654C83.5155 83.2839 83.4788 83.1214 83.4056 82.9781C83.3323 82.8347 83.2272 82.7217 83.0902 82.6389C82.9565 82.556 82.7956 82.5146 82.6077 82.5146C82.4229 82.5146 82.2621 82.556 82.1251 82.6389C81.9881 82.7217 81.883 82.8347 81.8098 82.9781C81.7365 83.1214 81.6999 83.2839 81.6999 83.4654C81.6999 83.6438 81.7349 83.8047 81.805 83.948C81.8782 84.0913 81.9818 84.206 82.1155 84.292C82.2525 84.3748 82.4166 84.4162 82.6077 84.4162ZM84.6611 85.6967V82.1897H85.0243V83.2934L84.9383 83.2839C84.9542 83.0099 85.0115 82.787 85.1103 82.615C85.2122 82.4398 85.3444 82.3108 85.5068 82.2279C85.6693 82.1451 85.8461 82.1037 86.0372 82.1037C86.2219 82.1037 86.3892 82.1388 86.5389 82.2088C86.6918 82.2789 86.8224 82.3745 86.9307 82.4955C87.039 82.6166 87.1218 82.7567 87.1791 82.916C87.2365 83.0752 87.2651 83.2441 87.2651 83.4224V83.5084C87.2651 83.6868 87.2349 83.8556 87.1743 84.0149C87.1138 84.1742 87.0278 84.3143 86.9163 84.4354C86.808 84.5564 86.6774 84.652 86.5245 84.722C86.3748 84.7921 86.2092 84.8272 86.0276 84.8272C85.8461 84.8272 85.6725 84.7873 85.5068 84.7077C85.3412 84.6281 85.2042 84.4991 85.0959 84.3207C84.9876 84.1423 84.9255 83.9082 84.9096 83.6183L85.1198 84.0006V85.6967H84.6611ZM85.956 84.4258C86.128 84.4258 86.2777 84.386 86.4051 84.3064C86.5325 84.2235 86.6313 84.1105 86.7013 83.9671C86.7714 83.8206 86.8064 83.6534 86.8064 83.4654C86.8064 83.2743 86.7714 83.1071 86.7013 82.9638C86.6313 82.8204 86.5325 82.7089 86.4051 82.6293C86.2777 82.5465 86.128 82.5051 85.956 82.5051C85.8031 82.5051 85.6613 82.5401 85.5307 82.6102C85.4001 82.6771 85.295 82.7758 85.2154 82.9064C85.1389 83.0338 85.1007 83.1883 85.1007 83.3699V83.5897C85.1007 83.7649 85.1405 83.9146 85.2202 84.0388C85.2998 84.163 85.4049 84.2586 85.5355 84.3255C85.6661 84.3924 85.8063 84.4258 85.956 84.4258ZM87.8311 83.6088V83.217H89.6085V83.6088H87.8311ZM90.3916 84.7411V81.2532H90.8503V84.7411H90.3916ZM90.0381 81.6164V81.2532H90.8503V81.6164H90.0381ZM92.8147 84.8272C92.5917 84.8272 92.399 84.7889 92.2365 84.7125C92.0741 84.636 91.9419 84.5357 91.84 84.4115C91.738 84.2841 91.6616 84.1423 91.6106 83.9862C91.5629 83.8302 91.539 83.6709 91.539 83.5084V83.4224C91.539 83.2568 91.5629 83.0959 91.6106 82.9399C91.6616 82.7838 91.738 82.6436 91.84 82.5194C91.9419 82.392 92.0709 82.2917 92.227 82.2184C92.3863 82.1419 92.5726 82.1037 92.786 82.1037C93.0631 82.1037 93.2909 82.1642 93.4693 82.2853C93.6508 82.4031 93.7846 82.556 93.8706 82.744C93.9598 82.9319 94.0044 83.1326 94.0044 83.346V83.5514H91.7396V83.2074H93.6699L93.5648 83.3938C93.5648 83.2122 93.5361 83.0561 93.4788 82.9255C93.4215 82.7917 93.3355 82.6882 93.2208 82.615C93.1061 82.5417 92.9612 82.5051 92.786 82.5051C92.6044 82.5051 92.4531 82.5465 92.3321 82.6293C92.2142 82.7121 92.1251 82.8252 92.0645 82.9685C92.0072 83.1119 91.9785 83.2775 91.9785 83.4654C91.9785 83.647 92.0072 83.811 92.0645 83.9576C92.1251 84.1009 92.2174 84.2156 92.3417 84.3016C92.4659 84.3844 92.6236 84.4258 92.8147 84.4258C93.0153 84.4258 93.1778 84.3812 93.302 84.292C93.4294 84.2028 93.5059 84.0993 93.5314 83.9815H93.9614C93.9263 84.1566 93.8563 84.3079 93.7512 84.4354C93.646 84.5628 93.5138 84.6599 93.3546 84.7268C93.1953 84.7937 93.0153 84.8272 92.8147 84.8272ZM95.4918 84.8176C95.1573 84.8176 94.8977 84.7459 94.713 84.6026C94.5314 84.4593 94.4374 84.2634 94.4311 84.0149H94.8611C94.8675 84.1136 94.9168 84.2076 95.0092 84.2968C95.1048 84.3828 95.2656 84.4258 95.4918 84.4258C95.6956 84.4258 95.8517 84.386 95.96 84.3064C96.0683 84.2235 96.1225 84.1232 96.1225 84.0053C96.1225 83.9002 96.0827 83.819 96.003 83.7617C95.9234 83.7011 95.7944 83.6613 95.616 83.6422L95.3389 83.6136C95.0968 83.5881 94.8993 83.5164 94.7464 83.3985C94.5935 83.2775 94.5171 83.1087 94.5171 82.8921C94.5171 82.7296 94.5585 82.5911 94.6413 82.4764C94.7241 82.3585 94.8388 82.2694 94.9853 82.2088C95.1318 82.1451 95.3007 82.1133 95.4918 82.1133C95.7785 82.1133 96.011 82.177 96.1894 82.3044C96.3677 82.4318 96.4601 82.6213 96.4665 82.873H96.0365C96.0333 82.771 95.9855 82.685 95.8931 82.615C95.8039 82.5417 95.6702 82.5051 95.4918 82.5051C95.3134 82.5051 95.178 82.5417 95.0857 82.615C94.9933 82.6882 94.9471 82.7806 94.9471 82.8921C94.9471 82.9876 94.9789 83.0641 95.0427 83.1214C95.1095 83.1788 95.2178 83.2154 95.3676 83.2313L95.6447 83.26C95.9186 83.2887 96.1384 83.3651 96.304 83.4893C96.4697 83.6104 96.5525 83.7824 96.5525 84.0053C96.5525 84.1646 96.5063 84.3064 96.4139 84.4306C96.3247 84.5516 96.2005 84.6472 96.0412 84.7173C95.882 84.7842 95.6988 84.8176 95.4918 84.8176ZM98.0534 84.8176C97.7189 84.8176 97.4593 84.7459 97.2746 84.6026C97.093 84.4593 96.9991 84.2634 96.9927 84.0149H97.4227C97.4291 84.1136 97.4784 84.2076 97.5708 84.2968C97.6664 84.3828 97.8272 84.4258 98.0534 84.4258C98.2573 84.4258 98.4133 84.386 98.5216 84.3064C98.6299 84.2235 98.6841 84.1232 98.6841 84.0053C98.6841 83.9002 98.6443 83.819 98.5646 83.7617C98.485 83.7011 98.356 83.6613 98.1776 83.6422L97.9005 83.6136C97.6584 83.5881 97.4609 83.5164 97.308 83.3985C97.1551 83.2775 97.0787 83.1087 97.0787 82.8921C97.0787 82.7296 97.1201 82.5911 97.2029 82.4764C97.2857 82.3585 97.4004 82.2694 97.5469 82.2088C97.6935 82.1451 97.8623 82.1133 98.0534 82.1133C98.3401 82.1133 98.5726 82.177 98.751 82.3044C98.9294 82.4318 99.0217 82.6213 99.0281 82.873H98.5981C98.5949 82.771 98.5471 82.685 98.4547 82.615C98.3656 82.5417 98.2318 82.5051 98.0534 82.5051C97.875 82.5051 97.7396 82.5417 97.6473 82.615C97.5549 82.6882 97.5087 82.7806 97.5087 82.8921C97.5087 82.9876 97.5406 83.0641 97.6043 83.1214C97.6712 83.1788 97.7795 83.2154 97.9292 83.2313L98.2063 83.26C98.4802 83.2887 98.7 83.3651 98.8656 83.4893C99.0313 83.6104 99.1141 83.7824 99.1141 84.0053C99.1141 84.1646 99.0679 84.3064 98.9755 84.4306C98.8864 84.5516 98.7621 84.6472 98.6029 84.7173C98.4436 84.7842 98.2604 84.8176 98.0534 84.8176ZM100.773 84.7698C100.582 84.7698 100.416 84.7427 100.276 84.6886C100.139 84.6344 100.032 84.5421 99.9557 84.4115C99.8824 84.2777 99.8458 84.0977 99.8458 83.8716V81.4157H100.285V83.9289C100.285 84.0659 100.322 84.1726 100.395 84.249C100.472 84.3223 100.578 84.3589 100.715 84.3589H101.164V84.7698H100.773ZM99.4062 82.5337V82.1897H101.164V82.5337H99.4062ZM101.813 84.7411V81.2532H102.272V83.3364H102.157C102.157 83.0848 102.189 82.8682 102.253 82.6866C102.32 82.5019 102.422 82.3601 102.559 82.2614C102.696 82.1627 102.871 82.1133 103.084 82.1133H103.103C103.409 82.1133 103.64 82.2152 103.796 82.4191C103.952 82.6197 104.03 82.908 104.03 83.2839V84.7411H103.572V83.1883C103.572 82.9813 103.513 82.8204 103.395 82.7057C103.28 82.5911 103.13 82.5337 102.946 82.5337C102.742 82.5337 102.578 82.6022 102.453 82.7392C102.332 82.873 102.272 83.0498 102.272 83.2695V84.7411H101.813ZM106.413 84.7411V83.9767H106.336V83.0928C106.336 82.9176 106.29 82.7854 106.198 82.6962C106.109 82.607 105.976 82.5624 105.801 82.5624C105.702 82.5624 105.6 82.564 105.495 82.5672C105.39 82.5704 105.29 82.5736 105.194 82.5767C105.099 82.5799 105.016 82.5847 104.946 82.5911V82.1897C105.016 82.1834 105.089 82.1786 105.166 82.1754C105.245 82.169 105.327 82.1658 105.409 82.1658C105.492 82.1627 105.572 82.1611 105.648 82.1611C105.909 82.1611 106.123 82.1929 106.288 82.2566C106.454 82.3171 106.577 82.4175 106.656 82.5576C106.736 82.6978 106.776 82.8873 106.776 83.1262V84.7411H106.413ZM105.577 84.808C105.385 84.808 105.22 84.7762 105.08 84.7125C104.943 84.6456 104.836 84.55 104.76 84.4258C104.686 84.3016 104.65 84.1519 104.65 83.9767C104.65 83.7951 104.689 83.6438 104.769 83.5228C104.852 83.4017 104.971 83.311 105.127 83.2504C105.284 83.1867 105.471 83.1549 105.691 83.1549H106.384V83.4989H105.672C105.487 83.4989 105.346 83.5435 105.247 83.6327C105.148 83.7219 105.099 83.8365 105.099 83.9767C105.099 84.1168 105.148 84.2299 105.247 84.3159C105.346 84.4019 105.487 84.4449 105.672 84.4449C105.78 84.4449 105.884 84.4258 105.983 84.3876C106.081 84.3462 106.163 84.2793 106.226 84.1869C106.293 84.0913 106.33 83.9608 106.336 83.7951L106.46 83.9767C106.445 84.1582 106.4 84.3111 106.327 84.4354C106.257 84.5564 106.158 84.6488 106.03 84.7125C105.906 84.7762 105.755 84.808 105.577 84.808ZM107.618 84.7411V82.1897H107.981V83.2839H107.923C107.923 83.0322 107.957 82.8204 108.024 82.6484C108.094 82.4732 108.199 82.341 108.339 82.2518C108.479 82.1595 108.656 82.1133 108.87 82.1133H108.889C109.21 82.1133 109.448 82.2136 109.601 82.4143C109.757 82.615 109.835 82.9048 109.835 83.2839V84.7411H109.376V83.1883C109.376 82.9908 109.32 82.8332 109.209 82.7153C109.097 82.5943 108.944 82.5337 108.75 82.5337C108.549 82.5337 108.387 82.5959 108.263 82.7201C108.138 82.8443 108.076 83.0099 108.076 83.217V84.7411H107.618Z" fill="white"/>
<path d="M125.217 72.6144V72.1475H128.03V72.6144H125.217ZM125.217 73.7079V73.241H128.03V73.7079H125.217Z" fill="#0C134F"/>
<path d="M39.3019 63.787V35.4606C39.3019 32.4448 41.7467 30.0001 44.7625 30.0001H90.153C93.1687 30.0001 95.6135 32.4448 95.6135 35.4606V52.1834" stroke="#252525" stroke-width="0.341282" stroke-linecap="round" stroke-dasharray="1.71 1.71"/>
<path d="M39.3016 66.0061C40.1498 66.0061 40.8374 65.3185 40.8374 64.4703C40.8374 63.6221 40.1498 62.9345 39.3016 62.9345C38.4534 62.9345 37.7658 63.6221 37.7658 64.4703C37.7658 65.3185 38.4534 66.0061 39.3016 66.0061Z" fill="white" stroke="#252525" stroke-width="1.02385"/>
<path d="M95.2458 55.0235L93.6446 52.4476C93.4819 52.1859 93.5883 51.86 93.8263 51.7296C93.9647 51.6537 94.1311 51.6991 94.2796 51.7526L94.9198 51.9834C95.3686 52.1452 95.8599 52.1452 96.3087 51.9834L96.9489 51.7526C97.0974 51.6991 97.2638 51.6538 97.4022 51.7296C97.6365 51.8581 97.7439 52.1761 97.5901 52.4372L96.0732 55.0131C95.8859 55.3313 95.4406 55.3368 95.2458 55.0235Z" fill="#252525"/>
<mask id="path-18-inside-2_6353_6260" fill="white">
<path d="M186 46.3651C186 45.6112 186.611 45 187.365 45H239.24C239.994 45 240.605 45.6112 240.605 46.3651V91.4144C240.605 92.1683 239.994 92.7795 239.24 92.7795H187.365C186.611 92.7795 186 92.1683 186 91.4144V46.3651Z"/>
</mask>
<path d="M186 46.3651C186 45.6112 186.611 45 187.365 45H239.24C239.994 45 240.605 45.6112 240.605 46.3651V91.4144C240.605 92.1683 239.994 92.7795 239.24 92.7795H187.365C186.611 92.7795 186 92.1683 186 91.4144V46.3651Z" fill="white"/>
<path d="M186 45H240.605H186ZM242.653 91.4144C242.653 93.2992 241.125 94.8272 239.24 94.8272H187.365C185.48 94.8272 183.952 93.2992 183.952 91.4144L188.048 90.7318H238.557L242.653 91.4144ZM187.365 94.8272C185.48 94.8272 183.952 93.2992 183.952 91.4144V48.4128C183.952 46.528 185.48 45 187.365 45H188.048C188.048 45 188.048 45.6112 188.048 46.3651V90.7318L187.365 94.8272ZM239.24 45C241.125 45 242.653 46.528 242.653 48.4128V91.4144C242.653 93.2992 241.125 94.8272 239.24 94.8272L238.557 90.7318V46.3651C238.557 45.6112 238.557 45 238.557 45H239.24Z" fill="url(#paint1_linear_6353_6260)" fill-opacity="0.3" mask="url(#path-18-inside-2_6353_6260)"/>
<rect x="191.515" y="79.1456" width="44.3667" height="8.19077" rx="1.36513" fill="#1D267D"/>
<path d="M197.429 84.741V82.1895H197.888V84.741H197.429ZM197.038 82.5527V82.1895H197.888V82.5527H197.038ZM197.558 81.7786C197.457 81.7786 197.38 81.7516 197.329 81.6974C197.281 81.6433 197.257 81.5748 197.257 81.492C197.257 81.4091 197.281 81.3407 197.329 81.2865C197.38 81.2324 197.457 81.2053 197.558 81.2053C197.66 81.2053 197.735 81.2324 197.783 81.2865C197.834 81.3407 197.859 81.4091 197.859 81.492C197.859 81.5748 197.834 81.6433 197.783 81.6974C197.735 81.7516 197.66 81.7786 197.558 81.7786ZM199.769 84.7696C199.578 84.7696 199.412 84.7426 199.272 84.6884C199.135 84.6343 199.028 84.5419 198.952 84.4113C198.879 84.2775 198.842 84.0975 198.842 83.8714V81.4155H199.281V83.9287C199.281 84.0657 199.318 84.1724 199.391 84.2488C199.468 84.3221 199.575 84.3587 199.711 84.3587H200.161V84.7696H199.769ZM198.402 82.5336V82.1895H200.161V82.5336H198.402ZM201.875 84.827C201.652 84.827 201.46 84.7887 201.297 84.7123C201.135 84.6359 201.003 84.5355 200.901 84.4113C200.799 84.2839 200.722 84.1421 200.671 83.9861C200.623 83.83 200.6 83.6707 200.6 83.5083V83.4223C200.6 83.2566 200.623 83.0958 200.671 82.9397C200.722 82.7836 200.799 82.6434 200.901 82.5192C201.003 82.3918 201.132 82.2915 201.288 82.2182C201.447 82.1418 201.633 82.1035 201.847 82.1035C202.124 82.1035 202.351 82.1641 202.53 82.2851C202.711 82.403 202.845 82.5559 202.931 82.7438C203.02 82.9317 203.065 83.1324 203.065 83.3458V83.5513H200.8V83.2072H202.731L202.625 83.3936C202.625 83.212 202.597 83.0559 202.539 82.9253C202.482 82.7916 202.396 82.688 202.281 82.6148C202.167 82.5415 202.022 82.5049 201.847 82.5049C201.665 82.5049 201.514 82.5463 201.393 82.6291C201.275 82.7119 201.186 82.825 201.125 82.9683C201.068 83.1117 201.039 83.2773 201.039 83.4653C201.039 83.6468 201.068 83.8109 201.125 83.9574C201.186 84.1007 201.278 84.2154 201.402 84.3014C201.527 84.3842 201.684 84.4256 201.875 84.4256C202.076 84.4256 202.238 84.381 202.363 84.2918C202.49 84.2027 202.567 84.0991 202.592 83.9813H203.022C202.987 84.1565 202.917 84.3078 202.812 84.4352C202.707 84.5626 202.574 84.6597 202.415 84.7266C202.256 84.7935 202.076 84.827 201.875 84.827ZM203.716 84.741V82.1895H204.079V83.2837H204.022C204.022 83.0352 204.054 82.825 204.118 82.653C204.184 82.4778 204.283 82.344 204.414 82.2517C204.544 82.1593 204.71 82.1131 204.911 82.1131H204.93C205.131 82.1131 205.296 82.1593 205.427 82.2517C205.561 82.344 205.659 82.4778 205.723 82.653C205.787 82.825 205.819 83.0352 205.819 83.2837H205.685C205.685 83.0352 205.718 82.825 205.785 82.653C205.852 82.4778 205.951 82.344 206.081 82.2517C206.215 82.1593 206.382 82.1131 206.583 82.1131H206.602C206.803 82.1131 206.97 82.1593 207.104 82.2517C207.238 82.344 207.336 82.4778 207.4 82.653C207.467 82.825 207.5 83.0352 207.5 83.2837V84.741H207.042V83.1834C207.042 82.9763 206.991 82.817 206.889 82.7056C206.787 82.5909 206.645 82.5336 206.464 82.5336C206.276 82.5336 206.124 82.5941 206.01 82.7151C205.895 82.833 205.838 82.9986 205.838 83.212V84.741H205.379V83.1834C205.379 82.9763 205.328 82.817 205.226 82.7056C205.124 82.5909 204.982 82.5336 204.801 82.5336C204.613 82.5336 204.462 82.5941 204.347 82.7151C204.232 82.833 204.175 82.9986 204.175 83.212V84.741H203.716ZM208.216 83.6086V83.2168H209.993V83.6086H208.216ZM211.737 84.827C211.476 84.827 211.254 84.776 211.073 84.6741C210.891 84.5721 210.753 84.4368 210.657 84.2679C210.565 84.0991 210.519 83.916 210.519 83.7185H210.968C210.968 83.9351 211.036 84.1071 211.173 84.2345C211.313 84.3619 211.501 84.4256 211.737 84.4256C211.893 84.4256 212.028 84.397 212.143 84.3396C212.258 84.2823 212.347 84.2011 212.411 84.0959C212.474 83.9876 212.506 83.8618 212.506 83.7185C212.506 83.5019 212.436 83.3267 212.296 83.1929C212.159 83.0591 211.974 82.9922 211.742 82.9922C211.643 82.9922 211.557 83.005 211.484 83.0305C211.414 83.0528 211.351 83.0814 211.297 83.1165L211.068 82.7056L212.401 81.7309L212.353 81.6449H210.657V81.2531H212.783V81.8885L211.68 82.6912L211.345 82.7056C211.399 82.6864 211.458 82.6705 211.522 82.6578C211.589 82.645 211.667 82.6387 211.756 82.6387C212.011 82.6387 212.227 82.6864 212.406 82.782C212.584 82.8776 212.72 83.005 212.812 83.1642C212.908 83.3235 212.955 83.4971 212.955 83.685V83.7519C212.955 83.9367 212.908 84.1119 212.812 84.2775C212.72 84.44 212.583 84.5721 212.401 84.6741C212.223 84.776 212.001 84.827 211.737 84.827ZM215.018 85.6966V81.2531H215.429V85.6966H215.018ZM218.982 84.827C218.721 84.827 218.498 84.7824 218.313 84.6932C218.132 84.6008 217.983 84.4766 217.869 84.3205C217.757 84.1644 217.676 83.9845 217.625 83.7806C217.574 83.5736 217.549 83.3554 217.549 83.126V82.868C217.549 82.5463 217.598 82.2564 217.697 81.9984C217.799 81.7404 217.955 81.5366 218.165 81.3868C218.378 81.234 218.651 81.1575 218.982 81.1575C219.313 81.1575 219.584 81.234 219.794 81.3868C220.004 81.5366 220.159 81.7404 220.258 81.9984C220.36 82.2564 220.411 82.5463 220.411 82.868V83.126C220.411 83.3554 220.385 83.5736 220.334 83.7806C220.283 83.9845 220.2 84.1644 220.086 84.3205C219.974 84.4766 219.828 84.6008 219.646 84.6932C219.465 84.7824 219.243 84.827 218.982 84.827ZM218.982 84.4065C219.313 84.4065 219.555 84.295 219.708 84.0721C219.864 83.8459 219.942 83.4891 219.942 83.0018C219.942 82.4921 219.863 82.1274 219.703 81.9076C219.547 81.6879 219.307 81.578 218.982 81.578C218.654 81.578 218.41 81.6879 218.251 81.9076C218.095 82.1274 218.017 82.489 218.017 82.9922C218.017 83.4828 218.095 83.8411 218.251 84.0673C218.407 84.2934 218.651 84.4065 218.982 84.4065ZM220.889 84.741L221.802 83.3984L221.787 83.4939L220.932 82.1895H221.439L222.055 83.1499H222.122L222.705 82.1895H223.178L222.37 83.4605L222.385 83.3745L223.34 84.741H222.834L222.117 83.7042H222.05L221.362 84.741H220.889ZM225.206 84.827C224.945 84.827 224.722 84.7824 224.537 84.6932C224.356 84.6008 224.208 84.4766 224.093 84.3205C223.982 84.1644 223.9 83.9845 223.849 83.7806C223.798 83.5736 223.773 83.3554 223.773 83.126V82.868C223.773 82.5463 223.822 82.2564 223.921 81.9984C224.023 81.7404 224.179 81.5366 224.389 81.3868C224.603 81.234 224.875 81.1575 225.206 81.1575C225.538 81.1575 225.808 81.234 226.019 81.3868C226.229 81.5366 226.383 81.7404 226.482 81.9984C226.584 82.2564 226.635 82.5463 226.635 82.868V83.126C226.635 83.3554 226.61 83.5736 226.559 83.7806C226.508 83.9845 226.425 84.1644 226.31 84.3205C226.199 84.4766 226.052 84.6008 225.871 84.6932C225.689 84.7824 225.468 84.827 225.206 84.827ZM225.206 84.4065C225.538 84.4065 225.78 84.295 225.933 84.0721C226.089 83.8459 226.167 83.4891 226.167 83.0018C226.167 82.4921 226.087 82.1274 225.928 81.9076C225.772 81.6879 225.531 81.578 225.206 81.578C224.878 81.578 224.635 81.6879 224.475 81.9076C224.319 82.1274 224.241 82.489 224.241 82.9922C224.241 83.4828 224.319 83.8411 224.475 84.0673C224.631 84.2934 224.875 84.4065 225.206 84.4065ZM228.757 84.827C228.496 84.827 228.273 84.7824 228.088 84.6932C227.907 84.6008 227.759 84.4766 227.644 84.3205C227.532 84.1644 227.451 83.9845 227.4 83.7806C227.349 83.5736 227.324 83.3554 227.324 83.126V82.868C227.324 82.5463 227.373 82.2564 227.472 81.9984C227.574 81.7404 227.73 81.5366 227.94 81.3868C228.154 81.234 228.426 81.1575 228.757 81.1575C229.088 81.1575 229.359 81.234 229.569 81.3868C229.78 81.5366 229.934 81.7404 230.033 81.9984C230.135 82.2564 230.186 82.5463 230.186 82.868V83.126C230.186 83.3554 230.16 83.5736 230.109 83.7806C230.058 83.9845 229.976 84.1644 229.861 84.3205C229.749 84.4766 229.603 84.6008 229.421 84.6932C229.24 84.7824 229.018 84.827 228.757 84.827ZM228.757 84.4065C229.088 84.4065 229.331 84.295 229.483 84.0721C229.64 83.8459 229.718 83.4891 229.718 83.0018C229.718 82.4921 229.638 82.1274 229.479 81.9076C229.323 81.6879 229.082 81.578 228.757 81.578C228.429 81.578 228.185 81.6879 228.026 81.9076C227.87 82.1274 227.792 82.489 227.792 82.9922C227.792 83.4828 227.87 83.8411 228.026 84.0673C228.182 84.2934 228.426 84.4065 228.757 84.4065Z" fill="white"/>
<rect x="135.373" y="69.7604" width="44.0254" height="7.84949" rx="1.19449" fill="#1D267D"/>
<rect x="135.373" y="69.7604" width="44.0254" height="7.84949" rx="1.19449" stroke="#0C134F" stroke-width="0.341282"/>
<path d="M141.117 75.1852V72.6338H141.576V75.1852H141.117ZM140.726 72.9969V72.6338H141.576V72.9969H140.726ZM141.246 72.2229C141.144 72.2229 141.068 72.1958 141.017 72.1416C140.969 72.0875 140.945 72.019 140.945 71.9362C140.945 71.8534 140.969 71.7849 141.017 71.7307C141.068 71.6766 141.144 71.6495 141.246 71.6495C141.348 71.6495 141.423 71.6766 141.471 71.7307C141.522 71.7849 141.547 71.8534 141.547 71.9362C141.547 72.019 141.522 72.0875 141.471 72.1416C141.423 72.1958 141.348 72.2229 141.246 72.2229ZM143.457 75.2138C143.266 75.2138 143.1 75.1868 142.96 75.1326C142.823 75.0785 142.716 74.9861 142.64 74.8555C142.566 74.7217 142.53 74.5418 142.53 74.3156V71.8597H142.969V74.3729C142.969 74.5099 143.006 74.6166 143.079 74.6931C143.156 74.7663 143.262 74.8029 143.399 74.8029H143.848V75.2138H143.457ZM142.09 72.9778V72.6338H143.848V72.9778H142.09ZM145.563 75.2712C145.34 75.2712 145.147 75.233 144.985 75.1565C144.823 75.0801 144.69 74.9797 144.588 74.8555C144.487 74.7281 144.41 74.5863 144.359 74.4303C144.311 74.2742 144.287 74.1149 144.287 73.9525V73.8665C144.287 73.7008 144.311 73.54 144.359 73.3839C144.41 73.2278 144.487 73.0877 144.588 72.9634C144.69 72.836 144.819 72.7357 144.975 72.6624C145.135 72.586 145.321 72.5478 145.534 72.5478C145.812 72.5478 146.039 72.6083 146.218 72.7293C146.399 72.8472 146.533 73.0001 146.619 73.188C146.708 73.3759 146.753 73.5766 146.753 73.79V73.9955H144.488V73.6515H146.418L146.313 73.8378C146.313 73.6562 146.285 73.5002 146.227 73.3696C146.17 73.2358 146.084 73.1323 145.969 73.059C145.855 72.9857 145.71 72.9491 145.534 72.9491C145.353 72.9491 145.202 72.9905 145.081 73.0733C144.963 73.1561 144.874 73.2692 144.813 73.4126C144.756 73.5559 144.727 73.7215 144.727 73.9095C144.727 74.091 144.756 74.2551 144.813 74.4016C144.874 74.5449 144.966 74.6596 145.09 74.7456C145.214 74.8284 145.372 74.8698 145.563 74.8698C145.764 74.8698 145.926 74.8252 146.051 74.7361C146.178 74.6469 146.254 74.5433 146.28 74.4255H146.71C146.675 74.6007 146.605 74.752 146.5 74.8794C146.395 75.0068 146.262 75.104 146.103 75.1708C145.944 75.2377 145.764 75.2712 145.563 75.2712ZM147.404 75.1852V72.6338H147.767V73.7279H147.71C147.71 73.4795 147.742 73.2692 147.805 73.0972C147.872 72.922 147.971 72.7882 148.102 72.6959C148.232 72.6035 148.398 72.5573 148.599 72.5573H148.618C148.818 72.5573 148.984 72.6035 149.115 72.6959C149.248 72.7882 149.347 72.922 149.411 73.0972C149.475 73.2692 149.506 73.4795 149.506 73.7279H149.373C149.373 73.4795 149.406 73.2692 149.473 73.0972C149.54 72.922 149.639 72.7882 149.769 72.6959C149.903 72.6035 150.07 72.5573 150.271 72.5573H150.29C150.491 72.5573 150.658 72.6035 150.792 72.6959C150.925 72.7882 151.024 72.922 151.088 73.0972C151.155 73.2692 151.188 73.4795 151.188 73.7279V75.1852H150.73V73.6276C150.73 73.4205 150.679 73.2613 150.577 73.1498C150.475 73.0351 150.333 72.9778 150.151 72.9778C149.964 72.9778 149.812 73.0383 149.698 73.1593C149.583 73.2772 149.526 73.4428 149.526 73.6562V75.1852H149.067V73.6276C149.067 73.4205 149.016 73.2613 148.914 73.1498C148.812 73.0351 148.67 72.9778 148.489 72.9778C148.301 72.9778 148.149 73.0383 148.035 73.1593C147.92 73.2772 147.863 73.4428 147.863 73.6562V75.1852H147.404ZM151.904 74.0528V73.661H153.681V74.0528H151.904ZM155.425 75.2712C155.164 75.2712 154.942 75.2202 154.761 75.1183C154.579 75.0164 154.441 74.881 154.345 74.7122C154.253 74.5433 154.206 74.3602 154.206 74.1627H154.656C154.656 74.3793 154.724 74.5513 154.861 74.6787C155.001 74.8061 155.189 74.8698 155.425 74.8698C155.581 74.8698 155.716 74.8412 155.831 74.7838C155.946 74.7265 156.035 74.6453 156.098 74.5402C156.162 74.4319 156.194 74.306 156.194 74.1627C156.194 73.9461 156.124 73.7709 155.984 73.6371C155.847 73.5033 155.662 73.4365 155.43 73.4365C155.331 73.4365 155.245 73.4492 155.172 73.4747C155.101 73.497 155.039 73.5256 154.985 73.5607L154.756 73.1498L156.089 72.1751L156.041 72.0891H154.345V71.6973H156.471V72.3327L155.367 73.1354L155.033 73.1498C155.087 73.1307 155.146 73.1147 155.21 73.102C155.277 73.0893 155.355 73.0829 155.444 73.0829C155.699 73.0829 155.915 73.1307 156.094 73.2262C156.272 73.3218 156.407 73.4492 156.5 73.6085C156.595 73.7677 156.643 73.9413 156.643 74.1293V74.1961C156.643 74.3809 156.595 74.5561 156.5 74.7217C156.407 74.8842 156.27 75.0164 156.089 75.1183C155.911 75.2202 155.689 75.2712 155.425 75.2712ZM158.706 76.1408V71.6973H159.117V76.1408H158.706ZM162.67 75.2712C162.409 75.2712 162.186 75.2266 162.001 75.1374C161.819 75.045 161.671 74.9208 161.557 74.7647C161.445 74.6086 161.364 74.4287 161.313 74.2248C161.262 74.0178 161.236 73.7996 161.236 73.5702V73.3122C161.236 72.9905 161.286 72.7006 161.385 72.4426C161.487 72.1846 161.643 71.9808 161.853 71.8311C162.066 71.6782 162.339 71.6017 162.67 71.6017C163.001 71.6017 163.272 71.6782 163.482 71.8311C163.692 71.9808 163.847 72.1846 163.946 72.4426C164.047 72.7006 164.098 72.9905 164.098 73.3122V73.5702C164.098 73.7996 164.073 74.0178 164.022 74.2248C163.971 74.4287 163.888 74.6086 163.774 74.7647C163.662 74.9208 163.516 75.045 163.334 75.1374C163.152 75.2266 162.931 75.2712 162.67 75.2712ZM162.67 74.8507C163.001 74.8507 163.243 74.7392 163.396 74.5163C163.552 74.2901 163.63 73.9334 163.63 73.446C163.63 72.9364 163.551 72.5716 163.391 72.3519C163.235 72.1321 162.995 72.0222 162.67 72.0222C162.342 72.0222 162.098 72.1321 161.939 72.3519C161.783 72.5716 161.705 72.9332 161.705 73.4365C161.705 73.927 161.783 74.2853 161.939 74.5115C162.095 74.7376 162.339 74.8507 162.67 74.8507ZM164.577 75.1852L165.49 73.8426L165.475 73.9381L164.62 72.6338H165.127L165.743 73.5941H165.81L166.393 72.6338H166.866L166.058 73.9047L166.073 73.8187L167.028 75.1852H166.522L165.805 74.1484H165.738L165.05 75.1852H164.577ZM168.894 75.2712C168.633 75.2712 168.41 75.2266 168.225 75.1374C168.044 75.045 167.896 74.9208 167.781 74.7647C167.67 74.6086 167.588 74.4287 167.537 74.2248C167.486 74.0178 167.461 73.7996 167.461 73.5702V73.3122C167.461 72.9905 167.51 72.7006 167.609 72.4426C167.711 72.1846 167.867 71.9808 168.077 71.8311C168.291 71.6782 168.563 71.6017 168.894 71.6017C169.226 71.6017 169.496 71.6782 169.707 71.8311C169.917 71.9808 170.071 72.1846 170.17 72.4426C170.272 72.7006 170.323 72.9905 170.323 73.3122V73.5702C170.323 73.7996 170.297 74.0178 170.246 74.2248C170.195 74.4287 170.113 74.6086 169.998 74.7647C169.886 74.9208 169.74 75.045 169.558 75.1374C169.377 75.2266 169.155 75.2712 168.894 75.2712ZM168.894 74.8507C169.226 74.8507 169.468 74.7392 169.621 74.5163C169.777 74.2901 169.855 73.9334 169.855 73.446C169.855 72.9364 169.775 72.5716 169.616 72.3519C169.46 72.1321 169.219 72.0222 168.894 72.0222C168.566 72.0222 168.322 72.1321 168.163 72.3519C168.007 72.5716 167.929 72.9332 167.929 73.4365C167.929 73.927 168.007 74.2853 168.163 74.5115C168.319 74.7376 168.563 74.8507 168.894 74.8507ZM172.445 75.2712C172.184 75.2712 171.961 75.2266 171.776 75.1374C171.595 75.045 171.446 74.9208 171.332 74.7647C171.22 74.6086 171.139 74.4287 171.088 74.2248C171.037 74.0178 171.012 73.7996 171.012 73.5702V73.3122C171.012 72.9905 171.061 72.7006 171.16 72.4426C171.262 72.1846 171.418 71.9808 171.628 71.8311C171.841 71.6782 172.114 71.6017 172.445 71.6017C172.776 71.6017 173.047 71.6782 173.257 71.8311C173.468 71.9808 173.622 72.1846 173.721 72.4426C173.823 72.7006 173.874 72.9905 173.874 73.3122V73.5702C173.874 73.7996 173.848 74.0178 173.797 74.2248C173.746 74.4287 173.663 74.6086 173.549 74.7647C173.437 74.9208 173.291 75.045 173.109 75.1374C172.928 75.2266 172.706 75.2712 172.445 75.2712ZM172.445 74.8507C172.776 74.8507 173.018 74.7392 173.171 74.5163C173.327 74.2901 173.405 73.9334 173.405 73.446C173.405 72.9364 173.326 72.5716 173.167 72.3519C173.01 72.1321 172.77 72.0222 172.445 72.0222C172.117 72.0222 171.873 72.1321 171.714 72.3519C171.558 72.5716 171.48 72.9332 171.48 73.4365C171.48 73.927 171.558 74.2853 171.714 74.5115C171.87 74.7376 172.114 74.8507 172.445 74.8507Z" fill="white"/>
<path d="M158.409 63.7869V35.4605C158.409 32.4448 160.854 30 163.87 30H209.26C212.276 30 214.721 32.4448 214.721 35.4605V59.5887" stroke="#252525" stroke-width="0.341282" stroke-linecap="round" stroke-dasharray="1.71 1.71"/>
<path d="M158.409 66.005C159.257 66.005 159.945 65.3174 159.945 64.4692C159.945 63.621 159.257 62.9334 158.409 62.9334C157.561 62.9334 156.873 63.621 156.873 64.4692C156.873 65.3174 157.561 66.005 158.409 66.005Z" fill="white" stroke="#252525" stroke-width="1.02385"/>
<path d="M214.353 62.0869L212.752 59.511C212.589 59.2493 212.696 58.9234 212.934 58.793C213.072 58.7171 213.238 58.7625 213.387 58.816L214.027 59.0468C214.476 59.2086 214.967 59.2086 215.416 59.0468L216.056 58.816C216.205 58.7625 216.371 58.7172 216.51 58.7931C216.744 58.9215 216.851 59.2395 216.697 59.5007L215.181 62.0765C214.993 62.3947 214.548 62.4003 214.353 62.0869Z" fill="#252525"/>
<defs>
<linearGradient id="paint0_linear_6353_6260" x1="10.0628" y1="40.5821" x2="42.3579" y2="108.99" gradientUnits="userSpaceOnUse">
<stop stop-color="#662B64"/>
<stop offset="1" stop-color="#456F97"/>
</linearGradient>
<linearGradient id="paint1_linear_6353_6260" x1="184.063" y1="40.9067" x2="216.358" y2="109.315" gradientUnits="userSpaceOnUse">
<stop stop-color="#662B64"/>
<stop offset="1" stop-color="#456F97"/>
</linearGradient>
</defs>
</svg>
