<svg width="253" height="123" viewBox="0 0 253 123" fill="none" xmlns="http://www.w3.org/2000/svg">
<rect width="253" height="123" rx="10" fill="#F4F4F4"/>
<mask id="path-2-inside-1_6353_5517" fill="white">
<path d="M11 46.0405C11 45.2865 11.6112 44.6754 12.3651 44.6754H64.24C64.9939 44.6754 65.6051 45.2865 65.6051 46.0405V91.0897C65.6051 91.8437 64.9939 92.4548 64.24 92.4548H12.3651C11.6112 92.4548 11 91.8437 11 91.0897V46.0405Z"/>
</mask>
<path d="M11 46.0405C11 45.2865 11.6112 44.6754 12.3651 44.6754H64.24C64.9939 44.6754 65.6051 45.2865 65.6051 46.0405V91.0897C65.6051 91.8437 64.9939 92.4548 64.24 92.4548H12.3651C11.6112 92.4548 11 91.8437 11 91.0897V46.0405Z" fill="white"/>
<path d="M11 44.6754H65.6051H11ZM67.6528 91.0897C67.6528 92.9746 66.1248 94.5025 64.24 94.5025H12.3651C10.4803 94.5025 8.95231 92.9746 8.95231 91.0897L13.0477 90.4071H63.5574L67.6528 91.0897ZM12.3651 94.5025C10.4803 94.5025 8.95231 92.9746 8.95231 91.0897V48.0882C8.95231 46.2033 10.4803 44.6754 12.3651 44.6754H13.0477C13.0477 44.6754 13.0477 45.2865 13.0477 46.0405V90.4071L12.3651 94.5025ZM64.24 44.6754C66.1248 44.6754 67.6528 46.2033 67.6528 48.0882V91.0897C67.6528 92.9746 66.1248 94.5025 64.24 94.5025L63.5574 90.4071V46.0405C63.5574 45.2865 63.5574 44.6754 63.5574 44.6754H64.24Z" fill="url(#paint0_linear_6353_5517)" fill-opacity="0.3" mask="url(#path-2-inside-1_6353_5517)"/>
<rect x="16.1191" y="79.1456" width="44.3667" height="8.19077" rx="1.36513" fill="#1D267D"/>
<path d="M22.434 84.741V81.2531H22.9022V84.741H22.434ZM24.8538 84.7696C24.6627 84.7696 24.497 84.7426 24.3569 84.6884C24.2199 84.6343 24.1132 84.5419 24.0367 84.4113C23.9635 84.2775 23.9269 84.0975 23.9269 83.8714V81.4155H24.3664V83.9287C24.3664 84.0657 24.4031 84.1724 24.4763 84.2488C24.5528 84.3221 24.6595 84.3587 24.7964 84.3587H25.2456V84.7696H24.8538ZM23.4873 82.5336V82.1895H25.2456V82.5336H23.4873ZM26.9603 84.827C26.7373 84.827 26.5446 84.7887 26.3821 84.7123C26.2197 84.6359 26.0875 84.5355 25.9856 84.4113C25.8836 84.2839 25.8072 84.1421 25.7562 83.9861C25.7084 83.83 25.6845 83.6707 25.6845 83.5083V83.4223C25.6845 83.2566 25.7084 83.0958 25.7562 82.9397C25.8072 82.7836 25.8836 82.6434 25.9856 82.5192C26.0875 82.3918 26.2165 82.2915 26.3726 82.2182C26.5318 82.1418 26.7182 82.1035 26.9316 82.1035C27.2087 82.1035 27.4365 82.1641 27.6148 82.2851C27.7964 82.403 27.9302 82.5559 28.0162 82.7438C28.1054 82.9317 28.15 83.1324 28.15 83.3458V83.5513H25.8852V83.2072H27.8155L27.7104 83.3936C27.7104 83.212 27.6817 83.0559 27.6244 82.9253C27.5671 82.7916 27.4811 82.688 27.3664 82.6148C27.2517 82.5415 27.1068 82.5049 26.9316 82.5049C26.75 82.5049 26.5987 82.5463 26.4777 82.6291C26.3598 82.7119 26.2706 82.825 26.2101 82.9683C26.1528 83.1117 26.1241 83.2773 26.1241 83.4653C26.1241 83.6468 26.1528 83.8109 26.2101 83.9574C26.2706 84.1007 26.363 84.2154 26.4872 84.3014C26.6115 84.3842 26.7691 84.4256 26.9603 84.4256C27.1609 84.4256 27.3234 84.381 27.4476 84.2918C27.575 84.2027 27.6515 84.0991 27.6769 83.9813H28.107C28.0719 84.1565 28.0018 84.3078 27.8967 84.4352C27.7916 84.5626 27.6594 84.6597 27.5002 84.7266C27.3409 84.7935 27.1609 84.827 26.9603 84.827ZM28.8012 84.741V82.1895H29.1643V83.2837H29.107C29.107 83.0352 29.1389 82.825 29.2026 82.653C29.2695 82.4778 29.3682 82.344 29.4988 82.2517C29.6294 82.1593 29.795 82.1131 29.9957 82.1131H30.0148C30.2155 82.1131 30.3811 82.1593 30.5117 82.2517C30.6455 82.344 30.7443 82.4778 30.808 82.653C30.8717 82.825 30.9035 83.0352 30.9035 83.2837H30.7697C30.7697 83.0352 30.8032 82.825 30.8701 82.653C30.937 82.4778 31.0357 82.344 31.1663 82.2517C31.3001 82.1593 31.4673 82.1131 31.668 82.1131H31.6871C31.8878 82.1131 32.055 82.1593 32.1888 82.2517C32.3226 82.344 32.4213 82.4778 32.485 82.653C32.5519 82.825 32.5854 83.0352 32.5854 83.2837V84.741H32.1267V83.1834C32.1267 82.9763 32.0757 82.817 31.9738 82.7056C31.8719 82.5909 31.7301 82.5336 31.5485 82.5336C31.3606 82.5336 31.2093 82.5941 31.0946 82.7151C30.98 82.833 30.9226 82.9986 30.9226 83.212V84.741H30.4639V83.1834C30.4639 82.9763 30.413 82.817 30.3111 82.7056C30.2091 82.5909 30.0674 82.5336 29.8858 82.5336C29.6979 82.5336 29.5466 82.5941 29.4319 82.7151C29.3172 82.833 29.2599 82.9986 29.2599 83.212V84.741H28.8012ZM33.301 83.6086V83.2168H35.0784V83.6086H33.301ZM36.368 84.741V81.4824L36.5782 81.6449H35.5939V81.2531H36.8266V84.741H36.368ZM39.1748 85.6966V81.2531H39.5857V85.6966H39.1748ZM43.1384 84.827C42.8772 84.827 42.6543 84.7824 42.4695 84.6932C42.288 84.6008 42.1398 84.4766 42.0252 84.3205C41.9137 84.1644 41.8325 83.9845 41.7815 83.7806C41.7305 83.5736 41.705 83.3554 41.705 83.126V82.868C41.705 82.5463 41.7544 82.2564 41.8532 81.9984C41.9551 81.7404 42.1112 81.5366 42.3214 81.3868C42.5348 81.234 42.8072 81.1575 43.1384 81.1575C43.4697 81.1575 43.7404 81.234 43.9507 81.3868C44.1609 81.5366 44.3154 81.7404 44.4141 81.9984C44.5161 82.2564 44.567 82.5463 44.567 82.868V83.126C44.567 83.3554 44.5416 83.5736 44.4906 83.7806C44.4396 83.9845 44.3568 84.1644 44.2421 84.3205C44.1306 84.4766 43.9841 84.6008 43.8026 84.6932C43.621 84.7824 43.3996 84.827 43.1384 84.827ZM43.1384 84.4065C43.4697 84.4065 43.7118 84.295 43.8647 84.0721C44.0208 83.8459 44.0988 83.4891 44.0988 83.0018C44.0988 82.4921 44.0192 82.1274 43.8599 81.9076C43.7038 81.6879 43.4633 81.578 43.1384 81.578C42.8103 81.578 42.5667 81.6879 42.4074 81.9076C42.2513 82.1274 42.1733 82.489 42.1733 82.9922C42.1733 83.4828 42.2513 83.8411 42.4074 84.0673C42.5635 84.2934 42.8072 84.4065 43.1384 84.4065ZM45.0456 84.741L45.9582 83.3984L45.9439 83.4939L45.0886 82.1895H45.5951L46.2114 83.1499H46.2783L46.8612 82.1895H47.3343L46.5268 83.4605L46.5411 83.3745L47.4967 84.741H46.9902L46.2735 83.7042H46.2067L45.5186 84.741H45.0456ZM49.3628 84.827C49.1016 84.827 48.8787 84.7824 48.6939 84.6932C48.5124 84.6008 48.3642 84.4766 48.2496 84.3205C48.1381 84.1644 48.0569 83.9845 48.0059 83.7806C47.9549 83.5736 47.9294 83.3554 47.9294 83.126V82.868C47.9294 82.5463 47.9788 82.2564 48.0776 81.9984C48.1795 81.7404 48.3356 81.5366 48.5458 81.3868C48.7592 81.234 49.0316 81.1575 49.3628 81.1575C49.6941 81.1575 49.9648 81.234 50.1751 81.3868C50.3853 81.5366 50.5398 81.7404 50.6385 81.9984C50.7405 82.2564 50.7914 82.5463 50.7914 82.868V83.126C50.7914 83.3554 50.7659 83.5736 50.715 83.7806C50.664 83.9845 50.5812 84.1644 50.4665 84.3205C50.355 84.4766 50.2085 84.6008 50.027 84.6932C49.8454 84.7824 49.624 84.827 49.3628 84.827ZM49.3628 84.4065C49.6941 84.4065 49.9362 84.295 50.0891 84.0721C50.2452 83.8459 50.3232 83.4891 50.3232 83.0018C50.3232 82.4921 50.2436 82.1274 50.0843 81.9076C49.9282 81.6879 49.6877 81.578 49.3628 81.578C49.0347 81.578 48.7911 81.6879 48.6318 81.9076C48.4757 82.1274 48.3977 82.489 48.3977 82.9922C48.3977 83.4828 48.4757 83.8411 48.6318 84.0673C48.7879 84.2934 49.0316 84.4065 49.3628 84.4065ZM52.9136 84.827C52.6524 84.827 52.4295 84.7824 52.2447 84.6932C52.0632 84.6008 51.915 84.4766 51.8004 84.3205C51.6889 84.1644 51.6077 83.9845 51.5567 83.7806C51.5057 83.5736 51.4802 83.3554 51.4802 83.126V82.868C51.4802 82.5463 51.5296 82.2564 51.6284 81.9984C51.7303 81.7404 51.8864 81.5366 52.0966 81.3868C52.31 81.234 52.5824 81.1575 52.9136 81.1575C53.2449 81.1575 53.5156 81.234 53.7259 81.3868C53.9361 81.5366 54.0906 81.7404 54.1893 81.9984C54.2913 82.2564 54.3422 82.5463 54.3422 82.868V83.126C54.3422 83.3554 54.3167 83.5736 54.2658 83.7806C54.2148 83.9845 54.132 84.1644 54.0173 84.3205C53.9058 84.4766 53.7593 84.6008 53.5778 84.6932C53.3962 84.7824 53.1748 84.827 52.9136 84.827ZM52.9136 84.4065C53.2449 84.4065 53.487 84.295 53.6399 84.0721C53.796 83.8459 53.874 83.4891 53.874 83.0018C53.874 82.4921 53.7944 82.1274 53.6351 81.9076C53.479 81.6879 53.2385 81.578 52.9136 81.578C52.5855 81.578 52.3419 81.6879 52.1826 81.9076C52.0265 82.1274 51.9485 82.489 51.9485 82.9922C51.9485 83.4828 52.0265 83.8411 52.1826 84.0673C52.3387 84.2934 52.5824 84.4065 52.9136 84.4065Z" fill="white"/>
<rect x="72.4302" y="65.0339" width="44.3667" height="8.19077" rx="1.36513" fill="#1D267D"/>
<path d="M78.745 70.6293V67.1414H79.2132V70.6293H78.745ZM81.1648 70.658C80.9737 70.658 80.8081 70.6309 80.6679 70.5768C80.5309 70.5226 80.4242 70.4303 80.3478 70.2997C80.2745 70.1659 80.2379 69.9859 80.2379 69.7597V67.3039H80.6775V69.8171C80.6775 69.9541 80.7141 70.0608 80.7874 70.1372C80.8638 70.2105 80.9705 70.2471 81.1075 70.2471H81.5566V70.658H81.1648ZM79.7983 68.4219V68.0779H81.5566V68.4219H79.7983ZM83.2713 70.7153C83.0483 70.7153 82.8556 70.6771 82.6932 70.6007C82.5307 70.5242 82.3985 70.4239 82.2966 70.2997C82.1947 70.1722 82.1182 70.0305 82.0672 69.8744C82.0195 69.7183 81.9956 69.5591 81.9956 69.3966V69.3106C81.9956 69.145 82.0195 68.9841 82.0672 68.828C82.1182 68.672 82.1947 68.5318 82.2966 68.4076C82.3985 68.2802 82.5275 68.1798 82.6836 68.1066C82.8429 68.0301 83.0292 67.9919 83.2426 67.9919C83.5197 67.9919 83.7475 68.0524 83.9259 68.1735C84.1074 68.2913 84.2412 68.4442 84.3272 68.6322C84.4164 68.8201 84.461 69.0208 84.461 69.2342V69.4396H82.1963V69.0956H84.1265L84.0214 69.282C84.0214 69.1004 83.9928 68.9443 83.9354 68.8137C83.8781 68.6799 83.7921 68.5764 83.6774 68.5031C83.5627 68.4299 83.4178 68.3933 83.2426 68.3933C83.0611 68.3933 82.9098 68.4347 82.7887 68.5175C82.6709 68.6003 82.5817 68.7134 82.5212 68.8567C82.4638 69.0001 82.4352 69.1657 82.4352 69.3536C82.4352 69.5352 82.4638 69.6992 82.5212 69.8457C82.5817 69.9891 82.674 70.1038 82.7983 70.1898C82.9225 70.2726 83.0802 70.314 83.2713 70.314C83.472 70.314 83.6344 70.2694 83.7586 70.1802C83.8861 70.091 83.9625 69.9875 83.988 69.8696H84.418C84.383 70.0448 84.3129 70.1961 84.2078 70.3235C84.1027 70.451 83.9705 70.5481 83.8112 70.615C83.6519 70.6819 83.472 70.7153 83.2713 70.7153ZM85.1123 70.6293V68.0779H85.4754V69.1721H85.418C85.418 68.9236 85.4499 68.7134 85.5136 68.5414C85.5805 68.3662 85.6792 68.2324 85.8098 68.14C85.9404 68.0476 86.1061 68.0015 86.3067 68.0015H86.3259C86.5265 68.0015 86.6922 68.0476 86.8228 68.14C86.9565 68.2324 87.0553 68.3662 87.119 68.5414C87.1827 68.7134 87.2146 68.9236 87.2146 69.1721H87.0808C87.0808 68.9236 87.1142 68.7134 87.1811 68.5414C87.248 68.3662 87.3467 68.2324 87.4773 68.14C87.6111 68.0476 87.7784 68.0015 87.979 68.0015H87.9981C88.1988 68.0015 88.366 68.0476 88.4998 68.14C88.6336 68.2324 88.7324 68.3662 88.7961 68.5414C88.8629 68.7134 88.8964 68.9236 88.8964 69.1721V70.6293H88.4377V69.0717C88.4377 68.8647 88.3867 68.7054 88.2848 68.5939C88.1829 68.4793 88.0411 68.4219 87.8596 68.4219C87.6716 68.4219 87.5203 68.4824 87.4057 68.6035C87.291 68.7213 87.2337 68.887 87.2337 69.1004V70.6293H86.775V69.0717C86.775 68.8647 86.724 68.7054 86.6221 68.5939C86.5202 68.4793 86.3784 68.4219 86.1969 68.4219C86.0089 68.4219 85.8576 68.4824 85.7429 68.6035C85.6283 68.7213 85.5709 68.887 85.5709 69.1004V70.6293H85.1123ZM89.612 69.497V69.1052H91.3894V69.497H89.612ZM92.679 70.6293V67.3708L92.8892 67.5332H91.905V67.1414H93.1377V70.6293H92.679ZM95.4859 71.5849V67.1414H95.8968V71.5849H95.4859ZM99.4495 70.7153C99.1883 70.7153 98.9653 70.6707 98.7805 70.5816C98.599 70.4892 98.4509 70.365 98.3362 70.2089C98.2247 70.0528 98.1435 69.8728 98.0925 69.669C98.0416 69.4619 98.0161 69.2437 98.0161 69.0144V68.7564C98.0161 68.4347 98.0655 68.1448 98.1642 67.8868C98.2661 67.6288 98.4222 67.4249 98.6324 67.2752C98.8458 67.1223 99.1182 67.0459 99.4495 67.0459C99.7807 67.0459 100.051 67.1223 100.262 67.2752C100.472 67.4249 100.626 67.6288 100.725 67.8868C100.827 68.1448 100.878 68.4347 100.878 68.7564V69.0144C100.878 69.2437 100.853 69.4619 100.802 69.669C100.751 69.8728 100.668 70.0528 100.553 70.2089C100.442 70.365 100.295 70.4892 100.114 70.5816C99.932 70.6707 99.7107 70.7153 99.4495 70.7153ZM99.4495 70.2949C99.7807 70.2949 100.023 70.1834 100.176 69.9604C100.332 69.7343 100.41 69.3775 100.41 68.8902C100.41 68.3805 100.33 68.0158 100.171 67.796C100.015 67.5762 99.7744 67.4663 99.4495 67.4663C99.1214 67.4663 98.8777 67.5762 98.7184 67.796C98.5624 68.0158 98.4843 68.3773 98.4843 68.8806C98.4843 69.3711 98.5624 69.7295 98.7184 69.9556C98.8745 70.1818 99.1182 70.2949 99.4495 70.2949ZM101.357 70.6293L102.269 69.2867L102.255 69.3823L101.4 68.0779H101.906L102.522 69.0383H102.589L103.172 68.0779H103.645L102.838 69.3488L102.852 69.2628L103.808 70.6293H103.301L102.585 69.5925H102.518L101.83 70.6293H101.357ZM105.674 70.7153C105.413 70.7153 105.19 70.6707 105.005 70.5816C104.823 70.4892 104.675 70.365 104.561 70.2089C104.449 70.0528 104.368 69.8728 104.317 69.669C104.266 69.4619 104.24 69.2437 104.24 69.0144V68.7564C104.24 68.4347 104.29 68.1448 104.389 67.8868C104.491 67.6288 104.647 67.4249 104.857 67.2752C105.07 67.1223 105.343 67.0459 105.674 67.0459C106.005 67.0459 106.276 67.1223 106.486 67.2752C106.696 67.4249 106.851 67.6288 106.95 67.8868C107.052 68.1448 107.102 68.4347 107.102 68.7564V69.0144C107.102 69.2437 107.077 69.4619 107.026 69.669C106.975 69.8728 106.892 70.0528 106.778 70.2089C106.666 70.365 106.52 70.4892 106.338 70.5816C106.156 70.6707 105.935 70.7153 105.674 70.7153ZM105.674 70.2949C106.005 70.2949 106.247 70.1834 106.4 69.9604C106.556 69.7343 106.634 69.3775 106.634 68.8902C106.634 68.3805 106.555 68.0158 106.395 67.796C106.239 67.5762 105.999 67.4663 105.674 67.4663C105.346 67.4663 105.102 67.5762 104.943 67.796C104.787 68.0158 104.709 68.3773 104.709 68.8806C104.709 69.3711 104.787 69.7295 104.943 69.9556C105.099 70.1818 105.343 70.2949 105.674 70.2949ZM109.225 70.7153C108.963 70.7153 108.74 70.6707 108.556 70.5816C108.374 70.4892 108.226 70.365 108.111 70.2089C108 70.0528 107.919 69.8728 107.868 69.669C107.817 69.4619 107.791 69.2437 107.791 69.0144V68.7564C107.791 68.4347 107.841 68.1448 107.939 67.8868C108.041 67.6288 108.197 67.4249 108.408 67.2752C108.621 67.1223 108.893 67.0459 109.225 67.0459C109.556 67.0459 109.827 67.1223 110.037 67.2752C110.247 67.4249 110.402 67.6288 110.5 67.8868C110.602 68.1448 110.653 68.4347 110.653 68.7564V69.0144C110.653 69.2437 110.628 69.4619 110.577 69.669C110.526 69.8728 110.443 70.0528 110.328 70.2089C110.217 70.365 110.07 70.4892 109.889 70.5816C109.707 70.6707 109.486 70.7153 109.225 70.7153ZM109.225 70.2949C109.556 70.2949 109.798 70.1834 109.951 69.9604C110.107 69.7343 110.185 69.3775 110.185 68.8902C110.185 68.3805 110.105 68.0158 109.946 67.796C109.79 67.5762 109.55 67.4663 109.225 67.4663C108.897 67.4663 108.653 67.5762 108.494 67.796C108.338 68.0158 108.26 68.3773 108.26 68.8806C108.26 69.3711 108.338 69.7295 108.494 69.9556C108.65 70.1818 108.893 70.2949 109.225 70.2949Z" fill="white"/>
<rect x="72.4302" y="74.5898" width="44.3667" height="8.19077" rx="1.36513" fill="#0C134F"/>
<path d="M82.4895 80.2712C82.2666 80.2712 82.0707 80.233 81.9018 80.1566C81.733 80.0801 81.5897 79.9798 81.4718 79.8556C81.3572 79.7282 81.2696 79.5864 81.209 79.4303C81.1517 79.2742 81.123 79.115 81.123 78.9525V78.8665C81.123 78.7041 81.1533 78.5448 81.2138 78.3887C81.2743 78.2295 81.3635 78.0877 81.4814 77.9635C81.5992 77.8361 81.7426 77.7357 81.9114 77.6625C82.0802 77.586 82.2729 77.5478 82.4895 77.5478C82.7061 77.5478 82.8988 77.586 83.0677 77.6625C83.2365 77.7357 83.3798 77.8361 83.4977 77.9635C83.6155 78.0877 83.7047 78.2295 83.7652 78.3887C83.8258 78.5448 83.856 78.7041 83.856 78.8665V78.9525C83.856 79.115 83.8258 79.2742 83.7652 79.4303C83.7079 79.5864 83.6203 79.7282 83.5025 79.8556C83.3878 79.9798 83.246 80.0801 83.0772 80.1566C82.9084 80.233 82.7125 80.2712 82.4895 80.2712ZM82.4895 79.8603C82.6807 79.8603 82.8431 79.8189 82.9769 79.7361C83.1139 79.6501 83.2174 79.5354 83.2875 79.3921C83.3607 79.2488 83.3973 79.0879 83.3973 78.9095C83.3973 78.728 83.3607 78.5655 83.2875 78.4222C83.2142 78.2788 83.1091 78.1658 82.9721 78.0829C82.8383 78.0001 82.6775 77.9587 82.4895 77.9587C82.3048 77.9587 82.1439 78.0001 82.007 78.0829C81.87 78.1658 81.7649 78.2788 81.6916 78.4222C81.6184 78.5655 81.5817 78.728 81.5817 78.9095C81.5817 79.0879 81.6168 79.2488 81.6868 79.3921C81.7601 79.5354 81.8636 79.6501 81.9974 79.7361C82.1344 79.8189 82.2984 79.8603 82.4895 79.8603ZM84.543 81.1408V77.6338H84.9061V78.7375L84.8201 78.728C84.8361 78.454 84.8934 78.2311 84.9921 78.0591C85.0941 77.8839 85.2263 77.7549 85.3887 77.672C85.5512 77.5892 85.7279 77.5478 85.9191 77.5478C86.1038 77.5478 86.271 77.5829 86.4207 77.6529C86.5736 77.723 86.7042 77.8186 86.8125 77.9396C86.9208 78.0606 87.0037 78.2008 87.061 78.3601C87.1183 78.5193 87.147 78.6882 87.147 78.8665V78.9525C87.147 79.1309 87.1167 79.2997 87.0562 79.459C86.9957 79.6183 86.9097 79.7584 86.7982 79.8795C86.6899 80.0005 86.5593 80.0961 86.4064 80.1661C86.2567 80.2362 86.0911 80.2712 85.9095 80.2712C85.7279 80.2712 85.5543 80.2314 85.3887 80.1518C85.2231 80.0722 85.0861 79.9432 84.9778 79.7648C84.8695 79.5864 84.8074 79.3523 84.7915 79.0624L85.0017 79.4447V81.1408H84.543ZM85.8378 79.8699C86.0098 79.8699 86.1595 79.8301 86.287 79.7504C86.4144 79.6676 86.5131 79.5546 86.5832 79.4112C86.6533 79.2647 86.6883 79.0975 86.6883 78.9095C86.6883 78.7184 86.6533 78.5512 86.5832 78.4078C86.5131 78.2645 86.4144 78.153 86.287 78.0734C86.1595 77.9906 86.0098 77.9492 85.8378 77.9492C85.6849 77.9492 85.5432 77.9842 85.4126 78.0543C85.282 78.1212 85.1769 78.2199 85.0973 78.3505C85.0208 78.4779 84.9826 78.6324 84.9826 78.814V79.0338C84.9826 79.2089 85.0224 79.3587 85.102 79.4829C85.1817 79.6071 85.2868 79.7027 85.4174 79.7696C85.548 79.8365 85.6881 79.8699 85.8378 79.8699ZM87.713 79.0529V78.6611H89.4904V79.0529H87.713ZM91.4202 80.2712C91.1972 80.2712 91.0013 80.233 90.8325 80.1566C90.6637 80.0801 90.5203 79.9798 90.4025 79.8556C90.2878 79.7282 90.2002 79.5864 90.1397 79.4303C90.0824 79.2742 90.0537 79.115 90.0537 78.9525V78.8665C90.0537 78.7041 90.084 78.5448 90.1445 78.3887C90.205 78.2295 90.2942 78.0877 90.412 77.9635C90.5299 77.8361 90.6732 77.7357 90.8421 77.6625C91.0109 77.586 91.2036 77.5478 91.4202 77.5478C91.6368 77.5478 91.8295 77.586 91.9983 77.6625C92.1671 77.7357 92.3105 77.8361 92.4283 77.9635C92.5462 78.0877 92.6354 78.2295 92.6959 78.3887C92.7564 78.5448 92.7867 78.7041 92.7867 78.8665V78.9525C92.7867 79.115 92.7564 79.2742 92.6959 79.4303C92.6386 79.5864 92.551 79.7282 92.4331 79.8556C92.3184 79.9798 92.1767 80.0801 92.0079 80.1566C91.8391 80.233 91.6432 80.2712 91.4202 80.2712ZM91.4202 79.8603C91.6113 79.8603 91.7738 79.8189 91.9075 79.7361C92.0445 79.6501 92.148 79.5354 92.2181 79.3921C92.2914 79.2488 92.328 79.0879 92.328 78.9095C92.328 78.728 92.2914 78.5655 92.2181 78.4222C92.1449 78.2788 92.0397 78.1658 91.9028 78.0829C91.769 78.0001 91.6081 77.9587 91.4202 77.9587C91.2354 77.9587 91.0746 78.0001 90.9376 78.0829C90.8007 78.1658 90.6955 78.2788 90.6223 78.4222C90.549 78.5655 90.5124 78.728 90.5124 78.9095C90.5124 79.0879 90.5474 79.2488 90.6175 79.3921C90.6908 79.5354 90.7943 79.6501 90.9281 79.7361C91.065 79.8189 91.2291 79.8603 91.4202 79.8603ZM93.4737 80.1852V77.6338H93.8368V78.728H93.7795C93.7795 78.4763 93.8129 78.2645 93.8798 78.0925C93.9499 77.9173 94.055 77.7851 94.1951 77.6959C94.3353 77.6036 94.5121 77.5574 94.7255 77.5574H94.7446C95.0663 77.5574 95.3036 77.6577 95.4565 77.8584C95.6126 78.0591 95.6906 78.3489 95.6906 78.728V80.1852H95.232V78.6324C95.232 78.4349 95.1762 78.2772 95.0647 78.1594C94.9532 78.0384 94.8003 77.9778 94.606 77.9778C94.4054 77.9778 94.2429 78.0399 94.1187 78.1642C93.9945 78.2884 93.9324 78.454 93.9324 78.6611V80.1852H93.4737ZM97.6145 80.2712C97.3915 80.2712 97.1988 80.233 97.0363 80.1566C96.8739 80.0801 96.7417 79.9798 96.6398 79.8556C96.5378 79.7282 96.4614 79.5864 96.4104 79.4303C96.3626 79.2742 96.3388 79.115 96.3388 78.9525V78.8665C96.3388 78.7009 96.3626 78.54 96.4104 78.384C96.4614 78.2279 96.5378 78.0877 96.6398 77.9635C96.7417 77.8361 96.8707 77.7357 97.0268 77.6625C97.186 77.586 97.3724 77.5478 97.5858 77.5478C97.8629 77.5478 98.0907 77.6083 98.269 77.7294C98.4506 77.8472 98.5844 78.0001 98.6704 78.1881C98.7596 78.376 98.8042 78.5767 98.8042 78.7901V78.9955H96.5394V78.6515H98.4697L98.3646 78.8379C98.3646 78.6563 98.3359 78.5002 98.2786 78.3696C98.2213 78.2358 98.1353 78.1323 98.0206 78.0591C97.9059 77.9858 97.761 77.9492 97.5858 77.9492C97.4042 77.9492 97.2529 77.9906 97.1319 78.0734C97.014 78.1562 96.9249 78.2693 96.8643 78.4126C96.807 78.556 96.7783 78.7216 96.7783 78.9095C96.7783 79.0911 96.807 79.2551 96.8643 79.4017C96.9249 79.545 97.0172 79.6597 97.1415 79.7457C97.2657 79.8285 97.4234 79.8699 97.6145 79.8699C97.8151 79.8699 97.9776 79.8253 98.1018 79.7361C98.2292 79.6469 98.3057 79.5434 98.3312 79.4255H98.7612C98.7261 79.6007 98.6561 79.752 98.5509 79.8795C98.4458 80.0069 98.3136 80.104 98.1544 80.1709C97.9951 80.2378 97.8151 80.2712 97.6145 80.2712ZM100.999 80.1852V79.4208H100.922V78.5368C100.922 78.3617 100.876 78.2295 100.784 78.1403C100.695 78.0511 100.562 78.0065 100.387 78.0065C100.288 78.0065 100.186 78.0081 100.081 78.0113C99.9762 78.0145 99.8759 78.0176 99.7803 78.0208C99.6848 78.024 99.602 78.0288 99.5319 78.0352V77.6338C99.602 77.6274 99.6752 77.6227 99.7517 77.6195C99.8313 77.6131 99.9125 77.6099 99.9953 77.6099C100.078 77.6067 100.158 77.6051 100.234 77.6051C100.495 77.6051 100.709 77.637 100.874 77.7007C101.04 77.7612 101.163 77.8616 101.242 78.0017C101.322 78.1419 101.362 78.3314 101.362 78.5703V80.1852H100.999ZM100.163 80.2521C99.9715 80.2521 99.8058 80.2203 99.6657 80.1566C99.5287 80.0897 99.422 79.9941 99.3455 79.8699C99.2723 79.7457 99.2357 79.596 99.2357 79.4208C99.2357 79.2392 99.2755 79.0879 99.3551 78.9669C99.4379 78.8458 99.5574 78.755 99.7134 78.6945C99.8695 78.6308 100.057 78.599 100.277 78.599H100.97V78.943H100.258C100.073 78.943 99.9316 78.9876 99.8329 79.0768C99.7342 79.1659 99.6848 79.2806 99.6848 79.4208C99.6848 79.5609 99.7342 79.674 99.8329 79.76C99.9316 79.846 100.073 79.889 100.258 79.889C100.366 79.889 100.47 79.8699 100.569 79.8317C100.667 79.7903 100.749 79.7234 100.812 79.631C100.879 79.5354 100.916 79.4048 100.922 79.2392L101.046 79.4208C101.031 79.6023 100.986 79.7552 100.913 79.8795C100.843 80.0005 100.744 80.0929 100.616 80.1566C100.492 80.2203 100.341 80.2521 100.163 80.2521ZM103.269 80.2712C103.088 80.2712 102.92 80.2378 102.767 80.1709C102.615 80.104 102.481 80.0101 102.366 79.889C102.255 79.768 102.167 79.6278 102.103 79.4685C102.043 79.3093 102.013 79.1373 102.013 78.9525V78.8665C102.013 78.685 102.043 78.5146 102.103 78.3553C102.164 78.196 102.248 78.0559 102.357 77.9348C102.468 77.8138 102.599 77.7198 102.748 77.6529C102.901 77.5829 103.07 77.5478 103.255 77.5478C103.449 77.5478 103.626 77.5892 103.785 77.672C103.944 77.7517 104.075 77.8775 104.177 78.0495C104.279 78.2215 104.336 78.4445 104.349 78.7184L104.158 78.4126V76.6973H104.617V80.1852H104.253V79.0529H104.387C104.374 79.3427 104.314 79.5784 104.206 79.76C104.097 79.9384 103.96 80.069 103.795 80.1518C103.632 80.2314 103.457 80.2712 103.269 80.2712ZM103.331 79.8699C103.487 79.8699 103.629 79.8349 103.757 79.7648C103.884 79.6947 103.986 79.5944 104.062 79.4638C104.139 79.33 104.177 79.1739 104.177 78.9955V78.7757C104.177 78.6006 104.137 78.4524 104.058 78.3314C103.981 78.2072 103.878 78.1132 103.747 78.0495C103.62 77.9826 103.479 77.9492 103.327 77.9492C103.158 77.9492 103.008 77.989 102.877 78.0686C102.75 78.1482 102.65 78.2597 102.576 78.4031C102.506 78.5464 102.471 78.7152 102.471 78.9095C102.471 79.1038 102.508 79.2742 102.581 79.4208C102.654 79.5641 102.756 79.6756 102.887 79.7552C103.018 79.8317 103.166 79.8699 103.331 79.8699ZM106.563 80.2712C106.382 80.2712 106.215 80.2378 106.062 80.1709C105.909 80.104 105.775 80.0101 105.66 79.889C105.549 79.768 105.461 79.6278 105.398 79.4685C105.337 79.3093 105.307 79.1373 105.307 78.9525V78.8665C105.307 78.685 105.337 78.5146 105.398 78.3553C105.458 78.196 105.542 78.0559 105.651 77.9348C105.762 77.8138 105.893 77.7198 106.043 77.6529C106.195 77.5829 106.364 77.5478 106.549 77.5478C106.743 77.5478 106.92 77.5892 107.079 77.672C107.239 77.7517 107.369 77.8775 107.471 78.0495C107.573 78.2215 107.63 78.4445 107.643 78.7184L107.452 78.4126V76.6973H107.911V80.1852H107.548V79.0529H107.681C107.669 79.3427 107.608 79.5784 107.5 79.76C107.392 79.9384 107.255 80.069 107.089 80.1518C106.926 80.2314 106.751 80.2712 106.563 80.2712ZM106.625 79.8699C106.782 79.8699 106.923 79.8349 107.051 79.7648C107.178 79.6947 107.28 79.5944 107.356 79.4638C107.433 79.33 107.471 79.1739 107.471 78.9955V78.7757C107.471 78.6006 107.431 78.4524 107.352 78.3314C107.275 78.2072 107.172 78.1132 107.041 78.0495C106.914 77.9826 106.774 77.9492 106.621 77.9492C106.452 77.9492 106.302 77.989 106.172 78.0686C106.044 78.1482 105.944 78.2597 105.871 78.4031C105.8 78.5464 105.765 78.7152 105.765 78.9095C105.765 79.1038 105.802 79.2742 105.875 79.4208C105.949 79.5641 106.051 79.6756 106.181 79.7552C106.312 79.8317 106.46 79.8699 106.625 79.8699Z" fill="white"/>
<path d="M124.217 72.6144V72.1475H127.03V72.6144H124.217ZM124.217 73.7079V73.241H127.03V73.7079H124.217Z" fill="#0C134F"/>
<path d="M38.302 73.787V35.4606C38.302 32.4448 40.7468 30.0001 43.7625 30.0001H89.153C92.1688 30.0001 94.6135 32.4448 94.6135 35.4606V61.1834" stroke="#252525" stroke-width="0.341282" stroke-linecap="round" stroke-dasharray="1.71 1.71"/>
<path d="M38.3017 75.0061C39.1499 75.0061 39.8375 74.3185 39.8375 73.4703C39.8375 72.6221 39.1499 71.9345 38.3017 71.9345C37.4535 71.9345 36.766 72.6221 36.766 73.4703C36.766 74.3185 37.4535 75.0061 38.3017 75.0061Z" fill="white" stroke="#252525" stroke-width="1.02385"/>
<path d="M94.2459 62.0235L92.6448 59.4476C92.4821 59.1859 92.5884 58.86 92.8264 58.7296C92.9648 58.6537 93.1312 58.6991 93.2797 58.7526L93.9199 58.9834C94.3687 59.1452 94.86 59.1452 95.3088 58.9834L95.949 58.7526C96.0975 58.6991 96.2639 58.6538 96.4023 58.7296C96.6366 58.8581 96.744 59.1761 96.5902 59.4372L95.0733 62.0131C94.886 62.3313 94.4407 62.3368 94.2459 62.0235Z" fill="#252525"/>
<mask id="path-14-inside-2_6353_5517" fill="white">
<path d="M185.396 46.0405C185.396 45.2865 186.007 44.6754 186.761 44.6754H238.636C239.39 44.6754 240.001 45.2865 240.001 46.0405V91.0897C240.001 91.8437 239.39 92.4548 238.636 92.4548H186.761C186.007 92.4548 185.396 91.8437 185.396 91.0897V46.0405Z"/>
</mask>
<path d="M185.396 46.0405C185.396 45.2865 186.007 44.6754 186.761 44.6754H238.636C239.39 44.6754 240.001 45.2865 240.001 46.0405V91.0897C240.001 91.8437 239.39 92.4548 238.636 92.4548H186.761C186.007 92.4548 185.396 91.8437 185.396 91.0897V46.0405Z" fill="white"/>
<path d="M185.396 44.6754H240.001H185.396ZM242.048 91.0897C242.048 92.9746 240.52 94.5025 238.636 94.5025H186.761C184.876 94.5025 183.348 92.9746 183.348 91.0897L187.443 90.4071H237.953L242.048 91.0897ZM186.761 94.5025C184.876 94.5025 183.348 92.9746 183.348 91.0897V48.0882C183.348 46.2033 184.876 44.6754 186.761 44.6754H187.443C187.443 44.6754 187.443 45.2865 187.443 46.0405V90.4071L186.761 94.5025ZM238.636 44.6754C240.52 44.6754 242.048 46.2033 242.048 48.0882V91.0897C242.048 92.9746 240.52 94.5025 238.636 94.5025L237.953 90.4071V46.0405C237.953 45.2865 237.953 44.6754 237.953 44.6754H238.636Z" fill="url(#paint1_linear_6353_5517)" fill-opacity="0.3" mask="url(#path-14-inside-2_6353_5517)"/>
<rect x="190.515" y="79.1456" width="44.3667" height="8.19077" rx="1.36513" fill="#1D267D"/>
<path d="M197.128 84.741V81.2531H197.596V84.741H197.128ZM199.548 84.7696C199.357 84.7696 199.191 84.7426 199.051 84.6884C198.914 84.6343 198.807 84.5419 198.731 84.4113C198.658 84.2775 198.621 84.0975 198.621 83.8714V81.4155H199.061V83.9287C199.061 84.0657 199.097 84.1724 199.171 84.2488C199.247 84.3221 199.354 84.3587 199.491 84.3587H199.94V84.7696H199.548ZM198.182 82.5336V82.1895H199.94V82.5336H198.182ZM201.655 84.827C201.432 84.827 201.239 84.7887 201.076 84.7123C200.914 84.6359 200.782 84.5355 200.68 84.4113C200.578 84.2839 200.501 84.1421 200.45 83.9861C200.403 83.83 200.379 83.6707 200.379 83.5083V83.4223C200.379 83.2566 200.403 83.0958 200.45 82.9397C200.501 82.7836 200.578 82.6434 200.68 82.5192C200.782 82.3918 200.911 82.2915 201.067 82.2182C201.226 82.1418 201.412 82.1035 201.626 82.1035C201.903 82.1035 202.131 82.1641 202.309 82.2851C202.491 82.403 202.624 82.5559 202.71 82.7438C202.8 82.9317 202.844 83.1324 202.844 83.3458V83.5513H200.579V83.2072H202.51L202.405 83.3936C202.405 83.212 202.376 83.0559 202.319 82.9253C202.261 82.7916 202.175 82.688 202.061 82.6148C201.946 82.5415 201.801 82.5049 201.626 82.5049C201.444 82.5049 201.293 82.5463 201.172 82.6291C201.054 82.7119 200.965 82.825 200.904 82.9683C200.847 83.1117 200.818 83.2773 200.818 83.4653C200.818 83.6468 200.847 83.8109 200.904 83.9574C200.965 84.1007 201.057 84.2154 201.181 84.3014C201.306 84.3842 201.463 84.4256 201.655 84.4256C201.855 84.4256 202.018 84.381 202.142 84.2918C202.269 84.2027 202.346 84.0991 202.371 83.9813H202.801C202.766 84.1565 202.696 84.3078 202.591 84.4352C202.486 84.5626 202.354 84.6597 202.194 84.7266C202.035 84.7935 201.855 84.827 201.655 84.827ZM203.495 84.741V82.1895H203.859V83.2837H203.801C203.801 83.0352 203.833 82.825 203.897 82.653C203.964 82.4778 204.062 82.344 204.193 82.2517C204.324 82.1593 204.489 82.1131 204.69 82.1131H204.709C204.91 82.1131 205.075 82.1593 205.206 82.2517C205.34 82.344 205.439 82.4778 205.502 82.653C205.566 82.825 205.598 83.0352 205.598 83.2837H205.464C205.464 83.0352 205.497 82.825 205.564 82.653C205.631 82.4778 205.73 82.344 205.861 82.2517C205.994 82.1593 206.162 82.1131 206.362 82.1131H206.381C206.582 82.1131 206.749 82.1593 206.883 82.2517C207.017 82.344 207.116 82.4778 207.179 82.653C207.246 82.825 207.28 83.0352 207.28 83.2837V84.741H206.821V83.1834C206.821 82.9763 206.77 82.817 206.668 82.7056C206.566 82.5909 206.424 82.5336 206.243 82.5336C206.055 82.5336 205.904 82.5941 205.789 82.7151C205.674 82.833 205.617 82.9986 205.617 83.212V84.741H205.158V83.1834C205.158 82.9763 205.107 82.817 205.005 82.7056C204.903 82.5909 204.762 82.5336 204.58 82.5336C204.392 82.5336 204.241 82.5941 204.126 82.7151C204.011 82.833 203.954 82.9986 203.954 83.212V84.741H203.495ZM207.995 83.6086V83.2168H209.773V83.6086H207.995ZM210.451 84.741V84.1676C210.451 84.0275 210.47 83.908 210.508 83.8093C210.549 83.7105 210.619 83.6213 210.718 83.5417C210.817 83.4589 210.951 83.3793 211.12 83.3028L211.774 83.0018C211.933 82.9285 212.059 82.8346 212.152 82.7199C212.244 82.602 212.29 82.4507 212.29 82.266C212.29 82.043 212.228 81.8694 212.104 81.7452C211.98 81.621 211.804 81.5589 211.578 81.5589C211.355 81.5589 211.18 81.621 211.053 81.7452C210.925 81.8694 210.862 82.043 210.862 82.266H210.412C210.412 82.0653 210.454 81.8806 210.537 81.7117C210.623 81.5429 210.752 81.4091 210.924 81.3104C211.096 81.2085 211.314 81.1575 211.578 81.1575C211.843 81.1575 212.059 81.2085 212.228 81.3104C212.4 81.4091 212.527 81.5397 212.61 81.7022C212.696 81.8646 212.739 82.0414 212.739 82.2325V82.2994C212.739 82.5511 212.666 82.7629 212.519 82.9349C212.376 83.1069 212.182 83.2487 211.937 83.3601L211.282 83.6612C211.135 83.728 211.037 83.7949 210.986 83.8618C210.935 83.9287 210.909 84.0179 210.909 84.1294V84.569L210.785 84.3492H212.782V84.741H210.451ZM214.816 85.6966V81.2531H215.227V85.6966H214.816ZM218.78 84.827C218.519 84.827 218.296 84.7824 218.111 84.6932C217.929 84.6008 217.781 84.4766 217.667 84.3205C217.555 84.1644 217.474 83.9845 217.423 83.7806C217.372 83.5736 217.346 83.3554 217.346 83.126V82.868C217.346 82.5463 217.396 82.2564 217.495 81.9984C217.597 81.7404 217.753 81.5366 217.963 81.3868C218.176 81.234 218.449 81.1575 218.78 81.1575C219.111 81.1575 219.382 81.234 219.592 81.3868C219.802 81.5366 219.957 81.7404 220.056 81.9984C220.158 82.2564 220.208 82.5463 220.208 82.868V83.126C220.208 83.3554 220.183 83.5736 220.132 83.7806C220.081 83.9845 219.998 84.1644 219.884 84.3205C219.772 84.4766 219.626 84.6008 219.444 84.6932C219.262 84.7824 219.041 84.827 218.78 84.827ZM218.78 84.4065C219.111 84.4065 219.353 84.295 219.506 84.0721C219.662 83.8459 219.74 83.4891 219.74 83.0018C219.74 82.4921 219.661 82.1274 219.501 81.9076C219.345 81.6879 219.105 81.578 218.78 81.578C218.452 81.578 218.208 81.6879 218.049 81.9076C217.893 82.1274 217.815 82.489 217.815 82.9922C217.815 83.4828 217.893 83.8411 218.049 84.0673C218.205 84.2934 218.449 84.4065 218.78 84.4065ZM220.687 84.741L221.6 83.3984L221.585 83.4939L220.73 82.1895H221.237L221.853 83.1499H221.92L222.503 82.1895H222.976L222.168 83.4605L222.183 83.3745L223.138 84.741H222.632L221.915 83.7042H221.848L221.16 84.741H220.687ZM225.004 84.827C224.743 84.827 224.52 84.7824 224.335 84.6932C224.154 84.6008 224.006 84.4766 223.891 84.3205C223.78 84.1644 223.698 83.9845 223.647 83.7806C223.596 83.5736 223.571 83.3554 223.571 83.126V82.868C223.571 82.5463 223.62 82.2564 223.719 81.9984C223.821 81.7404 223.977 81.5366 224.187 81.3868C224.401 81.234 224.673 81.1575 225.004 81.1575C225.336 81.1575 225.606 81.234 225.817 81.3868C226.027 81.5366 226.181 81.7404 226.28 81.9984C226.382 82.2564 226.433 82.5463 226.433 82.868V83.126C226.433 83.3554 226.407 83.5736 226.356 83.7806C226.305 83.9845 226.223 84.1644 226.108 84.3205C225.996 84.4766 225.85 84.6008 225.668 84.6932C225.487 84.7824 225.265 84.827 225.004 84.827ZM225.004 84.4065C225.336 84.4065 225.578 84.295 225.731 84.0721C225.887 83.8459 225.965 83.4891 225.965 83.0018C225.965 82.4921 225.885 82.1274 225.726 81.9076C225.57 81.6879 225.329 81.578 225.004 81.578C224.676 81.578 224.433 81.6879 224.273 81.9076C224.117 82.1274 224.039 82.489 224.039 82.9922C224.039 83.4828 224.117 83.8411 224.273 84.0673C224.429 84.2934 224.673 84.4065 225.004 84.4065ZM227.752 84.741V81.4824L227.963 81.6449H226.978V81.2531H228.211V84.741H227.752Z" fill="white"/>
<rect x="134.373" y="69.7604" width="44.0254" height="7.84949" rx="1.19449" fill="#1D267D"/>
<rect x="134.373" y="69.7604" width="44.0254" height="7.84949" rx="1.19449" stroke="#0C134F" stroke-width="0.341282"/>
<path d="M140.816 75.1852V71.6973H141.284V75.1852H140.816ZM143.236 75.2138C143.045 75.2138 142.879 75.1868 142.739 75.1326C142.602 75.0785 142.495 74.9861 142.419 74.8555C142.346 74.7217 142.309 74.5418 142.309 74.3156V71.8597H142.749V74.3729C142.749 74.5099 142.785 74.6166 142.858 74.6931C142.935 74.7663 143.042 74.8029 143.179 74.8029H143.628V75.2138H143.236ZM141.869 72.9778V72.6338H143.628V72.9778H141.869ZM145.342 75.2712C145.119 75.2712 144.927 75.233 144.764 75.1565C144.602 75.0801 144.47 74.9797 144.368 74.8555C144.266 74.7281 144.189 74.5863 144.138 74.4303C144.091 74.2742 144.067 74.1149 144.067 73.9525V73.8665C144.067 73.7008 144.091 73.54 144.138 73.3839C144.189 73.2278 144.266 73.0877 144.368 72.9634C144.47 72.836 144.599 72.7357 144.755 72.6624C144.914 72.586 145.1 72.5478 145.314 72.5478C145.591 72.5478 145.819 72.6083 145.997 72.7293C146.179 72.8472 146.312 73.0001 146.398 73.188C146.487 73.3759 146.532 73.5766 146.532 73.79V73.9955H144.267V73.6515H146.198L146.093 73.8378C146.093 73.6562 146.064 73.5002 146.007 73.3696C145.949 73.2358 145.863 73.1323 145.749 73.059C145.634 72.9857 145.489 72.9491 145.314 72.9491C145.132 72.9491 144.981 72.9905 144.86 73.0733C144.742 73.1561 144.653 73.2692 144.592 73.4126C144.535 73.5559 144.506 73.7215 144.506 73.9095C144.506 74.091 144.535 74.2551 144.592 74.4016C144.653 74.5449 144.745 74.6596 144.869 74.7456C144.994 74.8284 145.151 74.8698 145.342 74.8698C145.543 74.8698 145.705 74.8252 145.83 74.7361C145.957 74.6469 146.034 74.5433 146.059 74.4255H146.489C146.454 74.6007 146.384 74.752 146.279 74.8794C146.174 75.0068 146.042 75.104 145.882 75.1708C145.723 75.2377 145.543 75.2712 145.342 75.2712ZM147.183 75.1852V72.6338H147.546V73.7279H147.489C147.489 73.4795 147.521 73.2692 147.585 73.0972C147.652 72.922 147.75 72.7882 147.881 72.6959C148.012 72.6035 148.177 72.5573 148.378 72.5573H148.397C148.598 72.5573 148.763 72.6035 148.894 72.6959C149.028 72.7882 149.126 72.922 149.19 73.0972C149.254 73.2692 149.286 73.4795 149.286 73.7279H149.152C149.152 73.4795 149.185 73.2692 149.252 73.0972C149.319 72.922 149.418 72.7882 149.548 72.6959C149.682 72.6035 149.849 72.5573 150.05 72.5573H150.069C150.27 72.5573 150.437 72.6035 150.571 72.6959C150.705 72.7882 150.803 72.922 150.867 73.0972C150.934 73.2692 150.967 73.4795 150.967 73.7279V75.1852H150.509V73.6276C150.509 73.4205 150.458 73.2613 150.356 73.1498C150.254 73.0351 150.112 72.9778 149.931 72.9778C149.743 72.9778 149.591 73.0383 149.477 73.1593C149.362 73.2772 149.305 73.4428 149.305 73.6562V75.1852H148.846V73.6276C148.846 73.4205 148.795 73.2613 148.693 73.1498C148.591 73.0351 148.449 72.9778 148.268 72.9778C148.08 72.9778 147.929 73.0383 147.814 73.1593C147.699 73.2772 147.642 73.4428 147.642 73.6562V75.1852H147.183ZM151.683 74.0528V73.661H153.46V74.0528H151.683ZM154.139 75.1852V74.6118C154.139 74.4717 154.158 74.3522 154.196 74.2535C154.237 74.1547 154.307 74.0655 154.406 73.9859C154.505 73.9031 154.639 73.8235 154.807 73.747L155.462 73.446C155.621 73.3727 155.747 73.2788 155.839 73.1641C155.932 73.0463 155.978 72.895 155.978 72.7102C155.978 72.4872 155.916 72.3136 155.792 72.1894C155.667 72.0652 155.492 72.0031 155.266 72.0031C155.043 72.0031 154.868 72.0652 154.741 72.1894C154.613 72.3136 154.549 72.4872 154.549 72.7102H154.1C154.1 72.5095 154.142 72.3248 154.225 72.156C154.311 71.9871 154.44 71.8534 154.612 71.7546C154.784 71.6527 155.002 71.6017 155.266 71.6017C155.53 71.6017 155.747 71.6527 155.916 71.7546C156.088 71.8534 156.215 71.984 156.298 72.1464C156.384 72.3089 156.427 72.4856 156.427 72.6768V72.7436C156.427 72.9953 156.354 73.2071 156.207 73.3791C156.064 73.5511 155.87 73.6929 155.624 73.8044L154.97 74.1054C154.823 74.1723 154.725 74.2391 154.674 74.306C154.623 74.3729 154.597 74.4621 154.597 74.5736V75.0132L154.473 74.7934H156.47V75.1852H154.139ZM158.504 76.1408V71.6973H158.915V76.1408H158.504ZM162.468 75.2712C162.207 75.2712 161.984 75.2266 161.799 75.1374C161.617 75.045 161.469 74.9208 161.354 74.7647C161.243 74.6086 161.162 74.4287 161.111 74.2248C161.06 74.0178 161.034 73.7996 161.034 73.5702V73.3122C161.034 72.9905 161.084 72.7006 161.182 72.4426C161.284 72.1846 161.44 71.9808 161.651 71.8311C161.864 71.6782 162.136 71.6017 162.468 71.6017C162.799 71.6017 163.07 71.6782 163.28 71.8311C163.49 71.9808 163.645 72.1846 163.743 72.4426C163.845 72.7006 163.896 72.9905 163.896 73.3122V73.5702C163.896 73.7996 163.871 74.0178 163.82 74.2248C163.769 74.4287 163.686 74.6086 163.571 74.7647C163.46 74.9208 163.313 75.045 163.132 75.1374C162.95 75.2266 162.729 75.2712 162.468 75.2712ZM162.468 74.8507C162.799 74.8507 163.041 74.7392 163.194 74.5163C163.35 74.2901 163.428 73.9334 163.428 73.446C163.428 72.9364 163.348 72.5716 163.189 72.3519C163.033 72.1321 162.793 72.0222 162.468 72.0222C162.14 72.0222 161.896 72.1321 161.737 72.3519C161.581 72.5716 161.503 72.9332 161.503 73.4365C161.503 73.927 161.581 74.2853 161.737 74.5115C161.893 74.7376 162.136 74.8507 162.468 74.8507ZM164.375 75.1852L165.288 73.8426L165.273 73.9381L164.418 72.6338H164.924L165.541 73.5941H165.608L166.191 72.6338H166.664L165.856 73.9047L165.87 73.8187L166.826 75.1852H166.32L165.603 74.1484H165.536L164.848 75.1852H164.375ZM168.692 75.2712C168.431 75.2712 168.208 75.2266 168.023 75.1374C167.842 75.045 167.694 74.9208 167.579 74.7647C167.467 74.6086 167.386 74.4287 167.335 74.2248C167.284 74.0178 167.259 73.7996 167.259 73.5702V73.3122C167.259 72.9905 167.308 72.7006 167.407 72.4426C167.509 72.1846 167.665 71.9808 167.875 71.8311C168.089 71.6782 168.361 71.6017 168.692 71.6017C169.023 71.6017 169.294 71.6782 169.504 71.8311C169.715 71.9808 169.869 72.1846 169.968 72.4426C170.07 72.7006 170.121 72.9905 170.121 73.3122V73.5702C170.121 73.7996 170.095 74.0178 170.044 74.2248C169.993 74.4287 169.911 74.6086 169.796 74.7647C169.684 74.9208 169.538 75.045 169.356 75.1374C169.175 75.2266 168.953 75.2712 168.692 75.2712ZM168.692 74.8507C169.023 74.8507 169.265 74.7392 169.418 74.5163C169.574 74.2901 169.653 73.9334 169.653 73.446C169.653 72.9364 169.573 72.5716 169.414 72.3519C169.258 72.1321 169.017 72.0222 168.692 72.0222C168.364 72.0222 168.12 72.1321 167.961 72.3519C167.805 72.5716 167.727 72.9332 167.727 73.4365C167.727 73.927 167.805 74.2853 167.961 74.5115C168.117 74.7376 168.361 74.8507 168.692 74.8507ZM171.44 75.1852V71.9266L171.65 72.0891H170.666V71.6973H171.899V75.1852H171.44Z" fill="white"/>
<path d="M157.409 63.7869V35.4605C157.409 32.4448 159.854 30 162.87 30H208.26C211.276 30 213.721 32.4448 213.721 35.4605V59.5887" stroke="#252525" stroke-width="0.341282" stroke-linecap="round" stroke-dasharray="1.71 1.71"/>
<path d="M157.409 66.005C158.257 66.005 158.945 65.3174 158.945 64.4692C158.945 63.621 158.257 62.9334 157.409 62.9334C156.561 62.9334 155.873 63.621 155.873 64.4692C155.873 65.3174 156.561 66.005 157.409 66.005Z" fill="white" stroke="#252525" stroke-width="1.02385"/>
<path d="M213.353 62.0869L211.752 59.511C211.589 59.2493 211.696 58.9234 211.934 58.793C212.072 58.7171 212.238 58.7625 212.387 58.816L213.027 59.0468C213.476 59.2086 213.967 59.2086 214.416 59.0468L215.056 58.816C215.205 58.7625 215.371 58.7172 215.509 58.7931C215.744 58.9215 215.851 59.2395 215.697 59.5007L214.181 62.0765C213.993 62.3947 213.548 62.4003 213.353 62.0869Z" fill="#252525"/>
<defs>
<linearGradient id="paint0_linear_6353_5517" x1="9.06279" y1="40.5821" x2="41.3579" y2="108.99" gradientUnits="userSpaceOnUse">
<stop stop-color="#662B64"/>
<stop offset="1" stop-color="#456F97"/>
</linearGradient>
<linearGradient id="paint1_linear_6353_5517" x1="183.458" y1="40.5821" x2="215.754" y2="108.99" gradientUnits="userSpaceOnUse">
<stop stop-color="#662B64"/>
<stop offset="1" stop-color="#456F97"/>
</linearGradient>
</defs>
</svg>
