<svg width="253" height="123" viewBox="0 0 253 123" fill="none" xmlns="http://www.w3.org/2000/svg">
<rect width="253" height="123" rx="10" fill="#F4F4F4"/>
<mask id="path-2-inside-1_6353_5566" fill="white">
<path d="M11 46.0405C11 45.2865 11.6112 44.6754 12.3651 44.6754H64.24C64.9939 44.6754 65.6051 45.2865 65.6051 46.0405V91.0897C65.6051 91.8437 64.9939 92.4548 64.24 92.4548H12.3651C11.6112 92.4548 11 91.8437 11 91.0897V46.0405Z"/>
</mask>
<path d="M11 46.0405C11 45.2865 11.6112 44.6754 12.3651 44.6754H64.24C64.9939 44.6754 65.6051 45.2865 65.6051 46.0405V91.0897C65.6051 91.8437 64.9939 92.4548 64.24 92.4548H12.3651C11.6112 92.4548 11 91.8437 11 91.0897V46.0405Z" fill="white"/>
<path d="M11 44.6754H65.6051H11ZM67.6528 91.0897C67.6528 92.9746 66.1248 94.5025 64.24 94.5025H12.3651C10.4803 94.5025 8.95231 92.9746 8.95231 91.0897L13.0477 90.4071H63.5574L67.6528 91.0897ZM12.3651 94.5025C10.4803 94.5025 8.95231 92.9746 8.95231 91.0897V48.0882C8.95231 46.2033 10.4803 44.6754 12.3651 44.6754H13.0477C13.0477 44.6754 13.0477 45.2865 13.0477 46.0405V90.4071L12.3651 94.5025ZM64.24 44.6754C66.1248 44.6754 67.6528 46.2033 67.6528 48.0882V91.0897C67.6528 92.9746 66.1248 94.5025 64.24 94.5025L63.5574 90.4071V46.0405C63.5574 45.2865 63.5574 44.6754 63.5574 44.6754H64.24Z" fill="url(#paint0_linear_6353_5566)" fill-opacity="0.3" mask="url(#path-2-inside-1_6353_5566)"/>
<rect x="16.1191" y="79.1456" width="44.3667" height="8.19077" rx="1.36513" fill="#1D267D"/>
<path d="M23.2062 84.741V81.2531H23.6744V84.741H23.2062ZM25.626 84.7696C25.4349 84.7696 25.2692 84.7426 25.1291 84.6884C24.9921 84.6343 24.8854 84.5419 24.809 84.4113C24.7357 84.2775 24.6991 84.0975 24.6991 83.8714V81.4155H25.1386V83.9287C25.1386 84.0657 25.1753 84.1724 25.2485 84.2488C25.325 84.3221 25.4317 84.3587 25.5687 84.3587H26.0178V84.7696H25.626ZM24.2595 82.5336V82.1895H26.0178V82.5336H24.2595ZM27.7325 84.827C27.5095 84.827 27.3168 84.7887 27.1543 84.7123C26.9919 84.6359 26.8597 84.5355 26.7578 84.4113C26.6558 84.2839 26.5794 84.1421 26.5284 83.9861C26.4807 83.83 26.4568 83.6707 26.4568 83.5083V83.4223C26.4568 83.2566 26.4807 83.0958 26.5284 82.9397C26.5794 82.7836 26.6558 82.6434 26.7578 82.5192C26.8597 82.3918 26.9887 82.2915 27.1448 82.2182C27.3041 82.1418 27.4904 82.1035 27.7038 82.1035C27.9809 82.1035 28.2087 82.1641 28.3871 82.2851C28.5686 82.403 28.7024 82.5559 28.7884 82.7438C28.8776 82.9317 28.9222 83.1324 28.9222 83.3458V83.5513H26.6574V83.2072H28.5877L28.4826 83.3936C28.4826 83.212 28.4539 83.0559 28.3966 82.9253C28.3393 82.7916 28.2533 82.688 28.1386 82.6148C28.0239 82.5415 27.879 82.5049 27.7038 82.5049C27.5222 82.5049 27.3709 82.5463 27.2499 82.6291C27.132 82.7119 27.0429 82.825 26.9823 82.9683C26.925 83.1117 26.8963 83.2773 26.8963 83.4653C26.8963 83.6468 26.925 83.8109 26.9823 83.9574C27.0429 84.1007 27.1352 84.2154 27.2595 84.3014C27.3837 84.3842 27.5414 84.4256 27.7325 84.4256C27.9331 84.4256 28.0956 84.381 28.2198 84.2918C28.3472 84.2027 28.4237 84.0991 28.4492 83.9813H28.8792C28.8441 84.1565 28.7741 84.3078 28.669 84.4352C28.5638 84.5626 28.4316 84.6597 28.2724 84.7266C28.1131 84.7935 27.9331 84.827 27.7325 84.827ZM29.5734 84.741V82.1895H29.9366V83.2837H29.8792C29.8792 83.0352 29.9111 82.825 29.9748 82.653C30.0417 82.4778 30.1404 82.344 30.271 82.2517C30.4016 82.1593 30.5673 82.1131 30.7679 82.1131H30.787C30.9877 82.1131 31.1533 82.1593 31.2839 82.2517C31.4177 82.344 31.5165 82.4778 31.5802 82.653C31.6439 82.825 31.6757 83.0352 31.6757 83.2837H31.542C31.542 83.0352 31.5754 82.825 31.6423 82.653C31.7092 82.4778 31.8079 82.344 31.9385 82.2517C32.0723 82.1593 32.2395 82.1131 32.4402 82.1131H32.4593C32.66 82.1131 32.8272 82.1593 32.961 82.2517C33.0948 82.344 33.1935 82.4778 33.2572 82.653C33.3241 82.825 33.3576 83.0352 33.3576 83.2837V84.741H32.8989V83.1834C32.8989 82.9763 32.8479 82.817 32.746 82.7056C32.6441 82.5909 32.5023 82.5336 32.3208 82.5336C32.1328 82.5336 31.9815 82.5941 31.8669 82.7151C31.7522 82.833 31.6948 82.9986 31.6948 83.212V84.741H31.2362V83.1834C31.2362 82.9763 31.1852 82.817 31.0833 82.7056C30.9813 82.5909 30.8396 82.5336 30.658 82.5336C30.4701 82.5336 30.3188 82.5941 30.2041 82.7151C30.0895 82.833 30.0321 82.9986 30.0321 83.212V84.741H29.5734ZM34.0732 83.6086V83.2168H35.8506V83.6086H34.0732ZM37.1402 84.741V81.4824L37.3504 81.6449H36.3662V81.2531H37.5989V84.741H37.1402ZM39.947 85.6966V81.2531H40.3579V85.6966H39.947ZM43.9106 84.827C43.6494 84.827 43.4265 84.7824 43.2417 84.6932C43.0602 84.6008 42.9121 84.4766 42.7974 84.3205C42.6859 84.1644 42.6047 83.9845 42.5537 83.7806C42.5027 83.5736 42.4773 83.3554 42.4773 83.126V82.868C42.4773 82.5463 42.5266 82.2564 42.6254 81.9984C42.7273 81.7404 42.8834 81.5366 43.0936 81.3868C43.307 81.234 43.5794 81.1575 43.9106 81.1575C44.2419 81.1575 44.5127 81.234 44.7229 81.3868C44.9331 81.5366 45.0876 81.7404 45.1864 81.9984C45.2883 82.2564 45.3393 82.5463 45.3393 82.868V83.126C45.3393 83.3554 45.3138 83.5736 45.2628 83.7806C45.2118 83.9845 45.129 84.1644 45.0144 84.3205C44.9029 84.4766 44.7563 84.6008 44.5748 84.6932C44.3932 84.7824 44.1718 84.827 43.9106 84.827ZM43.9106 84.4065C44.2419 84.4065 44.484 84.295 44.6369 84.0721C44.793 83.8459 44.871 83.4891 44.871 83.0018C44.871 82.4921 44.7914 82.1274 44.6321 81.9076C44.476 81.6879 44.2355 81.578 43.9106 81.578C43.5826 81.578 43.3389 81.6879 43.1796 81.9076C43.0235 82.1274 42.9455 82.489 42.9455 82.9922C42.9455 83.4828 43.0235 83.8411 43.1796 84.0673C43.3357 84.2934 43.5794 84.4065 43.9106 84.4065ZM45.8178 84.741L46.7304 83.3984L46.7161 83.4939L45.8608 82.1895H46.3673L46.9836 83.1499H47.0505L47.6335 82.1895H48.1065L47.299 83.4605L47.3133 83.3745L48.2689 84.741H47.7625L47.0458 83.7042H46.9789L46.2908 84.741H45.8178ZM50.135 84.827C49.8738 84.827 49.6509 84.7824 49.4661 84.6932C49.2846 84.6008 49.1365 84.4766 49.0218 84.3205C48.9103 84.1644 48.8291 83.9845 48.7781 83.7806C48.7271 83.5736 48.7017 83.3554 48.7017 83.126V82.868C48.7017 82.5463 48.751 82.2564 48.8498 81.9984C48.9517 81.7404 49.1078 81.5366 49.318 81.3868C49.5314 81.234 49.8038 81.1575 50.135 81.1575C50.4663 81.1575 50.7371 81.234 50.9473 81.3868C51.1575 81.5366 51.312 81.7404 51.4108 81.9984C51.5127 82.2564 51.5636 82.5463 51.5636 82.868V83.126C51.5636 83.3554 51.5382 83.5736 51.4872 83.7806C51.4362 83.9845 51.3534 84.1644 51.2387 84.3205C51.1273 84.4766 50.9807 84.6008 50.7992 84.6932C50.6176 84.7824 50.3962 84.827 50.135 84.827ZM50.135 84.4065C50.4663 84.4065 50.7084 84.295 50.8613 84.0721C51.0174 83.8459 51.0954 83.4891 51.0954 83.0018C51.0954 82.4921 51.0158 82.1274 50.8565 81.9076C50.7004 81.6879 50.4599 81.578 50.135 81.578C49.807 81.578 49.5633 81.6879 49.404 81.9076C49.2479 82.1274 49.1699 82.489 49.1699 82.9922C49.1699 83.4828 49.2479 83.8411 49.404 84.0673C49.5601 84.2934 49.8038 84.4065 50.135 84.4065ZM52.8831 84.741V81.4824L53.0934 81.6449H52.1091V81.2531H53.3418V84.741H52.8831Z" fill="white"/>
<rect x="72.4302" y="65.0339" width="44.3667" height="8.19077" rx="1.36513" fill="#1D267D"/>
<path d="M79.5172 70.6293V67.1414H79.9855V70.6293H79.5172ZM81.937 70.658C81.7459 70.658 81.5803 70.6309 81.4401 70.5768C81.3032 70.5226 81.1964 70.4303 81.12 70.2997C81.0467 70.1659 81.0101 69.9859 81.0101 69.7597V67.3039H81.4497V69.8171C81.4497 69.9541 81.4863 70.0608 81.5596 70.1372C81.636 70.2105 81.7427 70.2471 81.8797 70.2471H82.3288V70.658H81.937ZM80.5705 68.4219V68.0779H82.3288V68.4219H80.5705ZM84.0435 70.7153C83.8205 70.7153 83.6278 70.6771 83.4654 70.6007C83.3029 70.5242 83.1707 70.4239 83.0688 70.2997C82.9669 70.1722 82.8904 70.0305 82.8395 69.8744C82.7917 69.7183 82.7678 69.5591 82.7678 69.3966V69.3106C82.7678 69.145 82.7917 68.9841 82.8395 68.828C82.8904 68.672 82.9669 68.5318 83.0688 68.4076C83.1707 68.2802 83.2997 68.1798 83.4558 68.1066C83.6151 68.0301 83.8014 67.9919 84.0148 67.9919C84.292 67.9919 84.5197 68.0524 84.6981 68.1735C84.8796 68.2913 85.0134 68.4442 85.0994 68.6322C85.1886 68.8201 85.2332 69.0208 85.2332 69.2342V69.4396H82.9685V69.0956H84.8988L84.7936 69.282C84.7936 69.1004 84.765 68.9443 84.7076 68.8137C84.6503 68.6799 84.5643 68.5764 84.4496 68.5031C84.335 68.4299 84.19 68.3933 84.0148 68.3933C83.8333 68.3933 83.682 68.4347 83.5609 68.5175C83.4431 68.6003 83.3539 68.7134 83.2934 68.8567C83.236 69.0001 83.2074 69.1657 83.2074 69.3536C83.2074 69.5352 83.236 69.6992 83.2934 69.8457C83.3539 69.9891 83.4463 70.1038 83.5705 70.1898C83.6947 70.2726 83.8524 70.314 84.0435 70.314C84.2442 70.314 84.4066 70.2694 84.5309 70.1802C84.6583 70.091 84.7347 69.9875 84.7602 69.8696H85.1902C85.1552 70.0448 85.0851 70.1961 84.98 70.3235C84.8749 70.451 84.7427 70.5481 84.5834 70.615C84.4242 70.6819 84.2442 70.7153 84.0435 70.7153ZM85.8845 70.6293V68.0779H86.2476V69.1721H86.1903C86.1903 68.9236 86.2221 68.7134 86.2858 68.5414C86.3527 68.3662 86.4515 68.2324 86.5821 68.14C86.7127 68.0476 86.8783 68.0015 87.079 68.0015H87.0981C87.2987 68.0015 87.4644 68.0476 87.595 68.14C87.7288 68.2324 87.8275 68.3662 87.8912 68.5414C87.9549 68.7134 87.9868 68.9236 87.9868 69.1721H87.853C87.853 68.9236 87.8864 68.7134 87.9533 68.5414C88.0202 68.3662 88.119 68.2324 88.2496 68.14C88.3833 68.0476 88.5506 68.0015 88.7512 68.0015H88.7704C88.971 68.0015 89.1383 68.0476 89.272 68.14C89.4058 68.2324 89.5046 68.3662 89.5683 68.5414C89.6352 68.7134 89.6686 68.9236 89.6686 69.1721V70.6293H89.2099V69.0717C89.2099 68.8647 89.159 68.7054 89.057 68.5939C88.9551 68.4793 88.8134 68.4219 88.6318 68.4219C88.4439 68.4219 88.2926 68.4824 88.1779 68.6035C88.0632 68.7213 88.0059 68.887 88.0059 69.1004V70.6293H87.5472V69.0717C87.5472 68.8647 87.4962 68.7054 87.3943 68.5939C87.2924 68.4793 87.1506 68.4219 86.9691 68.4219C86.7811 68.4219 86.6298 68.4824 86.5152 68.6035C86.4005 68.7213 86.3432 68.887 86.3432 69.1004V70.6293H85.8845ZM90.3842 69.497V69.1052H92.1616V69.497H90.3842ZM93.4512 70.6293V67.3708L93.6614 67.5332H92.6772V67.1414H93.9099V70.6293H93.4512ZM96.2581 71.5849V67.1414H96.669V71.5849H96.2581ZM100.222 70.7153C99.9605 70.7153 99.7375 70.6707 99.5528 70.5816C99.3712 70.4892 99.2231 70.365 99.1084 70.2089C98.9969 70.0528 98.9157 69.8728 98.8647 69.669C98.8138 69.4619 98.7883 69.2437 98.7883 69.0144V68.7564C98.7883 68.4347 98.8377 68.1448 98.9364 67.8868C99.0383 67.6288 99.1944 67.4249 99.4047 67.2752C99.6181 67.1223 99.8904 67.0459 100.222 67.0459C100.553 67.0459 100.824 67.1223 101.034 67.2752C101.244 67.4249 101.399 67.6288 101.497 67.8868C101.599 68.1448 101.65 68.4347 101.65 68.7564V69.0144C101.65 69.2437 101.625 69.4619 101.574 69.669C101.523 69.8728 101.44 70.0528 101.325 70.2089C101.214 70.365 101.067 70.4892 100.886 70.5816C100.704 70.6707 100.483 70.7153 100.222 70.7153ZM100.222 70.2949C100.553 70.2949 100.795 70.1834 100.948 69.9604C101.104 69.7343 101.182 69.3775 101.182 68.8902C101.182 68.3805 101.102 68.0158 100.943 67.796C100.787 67.5762 100.547 67.4663 100.222 67.4663C99.8936 67.4663 99.6499 67.5762 99.4907 67.796C99.3346 68.0158 99.2565 68.3773 99.2565 68.8806C99.2565 69.3711 99.3346 69.7295 99.4907 69.9556C99.6467 70.1818 99.8904 70.2949 100.222 70.2949ZM102.129 70.6293L103.041 69.2867L103.027 69.3823L102.172 68.0779H102.678L103.295 69.0383H103.362L103.944 68.0779H104.418L103.61 69.3488L103.624 69.2628L104.58 70.6293H104.073L103.357 69.5925H103.29L102.602 70.6293H102.129ZM106.446 70.7153C106.185 70.7153 105.962 70.6707 105.777 70.5816C105.596 70.4892 105.447 70.365 105.333 70.2089C105.221 70.0528 105.14 69.8728 105.089 69.669C105.038 69.4619 105.013 69.2437 105.013 69.0144V68.7564C105.013 68.4347 105.062 68.1448 105.161 67.8868C105.263 67.6288 105.419 67.4249 105.629 67.2752C105.842 67.1223 106.115 67.0459 106.446 67.0459C106.777 67.0459 107.048 67.1223 107.258 67.2752C107.469 67.4249 107.623 67.6288 107.722 67.8868C107.824 68.1448 107.875 68.4347 107.875 68.7564V69.0144C107.875 69.2437 107.849 69.4619 107.798 69.669C107.747 69.8728 107.664 70.0528 107.55 70.2089C107.438 70.365 107.292 70.4892 107.11 70.5816C106.929 70.6707 106.707 70.7153 106.446 70.7153ZM106.446 70.2949C106.777 70.2949 107.019 70.1834 107.172 69.9604C107.328 69.7343 107.406 69.3775 107.406 68.8902C107.406 68.3805 107.327 68.0158 107.168 67.796C107.011 67.5762 106.771 67.4663 106.446 67.4663C106.118 67.4663 105.874 67.5762 105.715 67.796C105.559 68.0158 105.481 68.3773 105.481 68.8806C105.481 69.3711 105.559 69.7295 105.715 69.9556C105.871 70.1818 106.115 70.2949 106.446 70.2949ZM109.194 70.6293V67.3708L109.404 67.5332H108.42V67.1414H109.653V70.6293H109.194Z" fill="white"/>
<rect x="72.4302" y="74.5898" width="44.3667" height="8.19077" rx="1.36513" fill="#0C134F"/>
<path d="M82.7298 80.2712C82.5069 80.2712 82.311 80.233 82.1421 80.1566C81.9733 80.0801 81.83 79.9798 81.7121 79.8556C81.5975 79.7282 81.5099 79.5864 81.4493 79.4303C81.392 79.2742 81.3633 79.115 81.3633 78.9525V78.8665C81.3633 78.7041 81.3936 78.5448 81.4541 78.3887C81.5146 78.2295 81.6038 78.0877 81.7217 77.9635C81.8395 77.8361 81.9829 77.7357 82.1517 77.6625C82.3205 77.586 82.5132 77.5478 82.7298 77.5478C82.9464 77.5478 83.1391 77.586 83.308 77.6625C83.4768 77.7357 83.6201 77.8361 83.738 77.9635C83.8558 78.0877 83.945 78.2295 84.0055 78.3887C84.0661 78.5448 84.0963 78.7041 84.0963 78.8665V78.9525C84.0963 79.115 84.0661 79.2742 84.0055 79.4303C83.9482 79.5864 83.8606 79.7282 83.7428 79.8556C83.6281 79.9798 83.4863 80.0801 83.3175 80.1566C83.1487 80.233 82.9528 80.2712 82.7298 80.2712ZM82.7298 79.8603C82.921 79.8603 83.0834 79.8189 83.2172 79.7361C83.3542 79.6501 83.4577 79.5354 83.5278 79.3921C83.601 79.2488 83.6376 79.0879 83.6376 78.9095C83.6376 78.728 83.601 78.5655 83.5278 78.4222C83.4545 78.2788 83.3494 78.1658 83.2124 78.0829C83.0786 78.0001 82.9178 77.9587 82.7298 77.9587C82.5451 77.9587 82.3842 78.0001 82.2473 78.0829C82.1103 78.1658 82.0052 78.2788 81.9319 78.4222C81.8587 78.5655 81.822 78.728 81.822 78.9095C81.822 79.0879 81.8571 79.2488 81.9271 79.3921C82.0004 79.5354 82.1039 79.6501 82.2377 79.7361C82.3747 79.8189 82.5387 79.8603 82.7298 79.8603ZM84.7833 81.1408V77.6338H85.1464V78.7375L85.0604 78.728C85.0764 78.454 85.1337 78.2311 85.2324 78.0591C85.3344 77.8839 85.4666 77.7549 85.629 77.672C85.7915 77.5892 85.9682 77.5478 86.1594 77.5478C86.3441 77.5478 86.5113 77.5829 86.661 77.6529C86.8139 77.723 86.9445 77.8186 87.0528 77.9396C87.1611 78.0606 87.244 78.2008 87.3013 78.3601C87.3586 78.5193 87.3873 78.6882 87.3873 78.8665V78.9525C87.3873 79.1309 87.357 79.2997 87.2965 79.459C87.236 79.6183 87.15 79.7584 87.0385 79.8795C86.9302 80.0005 86.7996 80.0961 86.6467 80.1661C86.497 80.2362 86.3314 80.2712 86.1498 80.2712C85.9682 80.2712 85.7946 80.2314 85.629 80.1518C85.4634 80.0722 85.3264 79.9432 85.2181 79.7648C85.1098 79.5864 85.0477 79.3523 85.0318 79.0624L85.242 79.4447V81.1408H84.7833ZM86.0781 79.8699C86.2501 79.8699 86.3998 79.8301 86.5273 79.7504C86.6547 79.6676 86.7534 79.5546 86.8235 79.4112C86.8936 79.2647 86.9286 79.0975 86.9286 78.9095C86.9286 78.7184 86.8936 78.5512 86.8235 78.4078C86.7534 78.2645 86.6547 78.153 86.5273 78.0734C86.3998 77.9906 86.2501 77.9492 86.0781 77.9492C85.9252 77.9492 85.7835 77.9842 85.6529 78.0543C85.5223 78.1212 85.4172 78.2199 85.3375 78.3505C85.2611 78.4779 85.2229 78.6324 85.2229 78.814V79.0338C85.2229 79.2089 85.2627 79.3587 85.3423 79.4829C85.422 79.6071 85.5271 79.7027 85.6577 79.7696C85.7883 79.8365 85.9284 79.8699 86.0781 79.8699ZM87.9533 79.0529V78.6611H89.7306V79.0529H87.9533ZM91.6605 80.2712C91.4375 80.2712 91.2416 80.233 91.0728 80.1566C90.904 80.0801 90.7606 79.9798 90.6428 79.8556C90.5281 79.7282 90.4405 79.5864 90.38 79.4303C90.3227 79.2742 90.294 79.115 90.294 78.9525V78.8665C90.294 78.7041 90.3243 78.5448 90.3848 78.3887C90.4453 78.2295 90.5345 78.0877 90.6523 77.9635C90.7702 77.8361 90.9135 77.7357 91.0824 77.6625C91.2512 77.586 91.4439 77.5478 91.6605 77.5478C91.8771 77.5478 92.0698 77.586 92.2386 77.6625C92.4074 77.7357 92.5508 77.8361 92.6686 77.9635C92.7865 78.0877 92.8757 78.2295 92.9362 78.3887C92.9967 78.5448 93.027 78.7041 93.027 78.8665V78.9525C93.027 79.115 92.9967 79.2742 92.9362 79.4303C92.8789 79.5864 92.7913 79.7282 92.6734 79.8556C92.5587 79.9798 92.417 80.0801 92.2482 80.1566C92.0794 80.233 91.8835 80.2712 91.6605 80.2712ZM91.6605 79.8603C91.8516 79.8603 92.0141 79.8189 92.1478 79.7361C92.2848 79.6501 92.3883 79.5354 92.4584 79.3921C92.5317 79.2488 92.5683 79.0879 92.5683 78.9095C92.5683 78.728 92.5317 78.5655 92.4584 78.4222C92.3851 78.2788 92.28 78.1658 92.1431 78.0829C92.0093 78.0001 91.8484 77.9587 91.6605 77.9587C91.4757 77.9587 91.3149 78.0001 91.1779 78.0829C91.041 78.1658 90.9358 78.2788 90.8626 78.4222C90.7893 78.5655 90.7527 78.728 90.7527 78.9095C90.7527 79.0879 90.7877 79.2488 90.8578 79.3921C90.9311 79.5354 91.0346 79.6501 91.1684 79.7361C91.3053 79.8189 91.4694 79.8603 91.6605 79.8603ZM93.714 80.1852V77.6338H94.0771V78.728H94.0198C94.0198 78.4763 94.0532 78.2645 94.1201 78.0925C94.1902 77.9173 94.2953 77.7851 94.4354 77.6959C94.5756 77.6036 94.7524 77.5574 94.9658 77.5574H94.9849C95.3066 77.5574 95.5439 77.6577 95.6968 77.8584C95.8529 78.0591 95.9309 78.3489 95.9309 78.728V80.1852H95.4723V78.6324C95.4723 78.4349 95.4165 78.2772 95.305 78.1594C95.1935 78.0384 95.0406 77.9778 94.8463 77.9778C94.6457 77.9778 94.4832 78.0399 94.359 78.1642C94.2348 78.2884 94.1726 78.454 94.1726 78.6611V80.1852H93.714ZM97.8548 80.2712C97.6318 80.2712 97.4391 80.233 97.2766 80.1566C97.1142 80.0801 96.982 79.9798 96.8801 79.8556C96.7781 79.7282 96.7017 79.5864 96.6507 79.4303C96.6029 79.2742 96.5791 79.115 96.5791 78.9525V78.8665C96.5791 78.7009 96.6029 78.54 96.6507 78.384C96.7017 78.2279 96.7781 78.0877 96.8801 77.9635C96.982 77.8361 97.111 77.7357 97.2671 77.6625C97.4263 77.586 97.6127 77.5478 97.8261 77.5478C98.1032 77.5478 98.331 77.6083 98.5093 77.7294C98.6909 77.8472 98.8247 78.0001 98.9107 78.1881C98.9999 78.376 99.0445 78.5767 99.0445 78.7901V78.9955H96.7797V78.6515H98.71L98.6049 78.8379C98.6049 78.6563 98.5762 78.5002 98.5189 78.3696C98.4616 78.2358 98.3756 78.1323 98.2609 78.0591C98.1462 77.9858 98.0013 77.9492 97.8261 77.9492C97.6445 77.9492 97.4932 77.9906 97.3722 78.0734C97.2543 78.1562 97.1651 78.2693 97.1046 78.4126C97.0473 78.556 97.0186 78.7216 97.0186 78.9095C97.0186 79.0911 97.0473 79.2551 97.1046 79.4017C97.1651 79.545 97.2575 79.6597 97.3817 79.7457C97.506 79.8285 97.6636 79.8699 97.8548 79.8699C98.0554 79.8699 98.2179 79.8253 98.3421 79.7361C98.4695 79.6469 98.546 79.5434 98.5715 79.4255H99.0015C98.9664 79.6007 98.8964 79.752 98.7912 79.8795C98.6861 80.0069 98.5539 80.104 98.3947 80.1709C98.2354 80.2378 98.0554 80.2712 97.8548 80.2712ZM100.532 80.2617C100.197 80.2617 99.9378 80.19 99.7531 80.0467C99.5715 79.9033 99.4775 79.7074 99.4712 79.459H99.9012C99.9076 79.5577 99.9569 79.6517 100.049 79.7409C100.145 79.8269 100.306 79.8699 100.532 79.8699C100.736 79.8699 100.892 79.8301 101 79.7504C101.108 79.6676 101.163 79.5673 101.163 79.4494C101.163 79.3443 101.123 79.2631 101.043 79.2058C100.963 79.1452 100.834 79.1054 100.656 79.0863L100.379 79.0576C100.137 79.0322 99.9394 78.9605 99.7865 78.8426C99.6336 78.7216 99.5572 78.5528 99.5572 78.3362C99.5572 78.1737 99.5986 78.0352 99.6814 77.9205C99.7642 77.8026 99.8789 77.7134 100.025 77.6529C100.172 77.5892 100.341 77.5574 100.532 77.5574C100.819 77.5574 101.051 77.6211 101.229 77.7485C101.408 77.8759 101.5 78.0654 101.507 78.3171H101.077C101.073 78.2151 101.026 78.1291 100.933 78.0591C100.844 77.9858 100.71 77.9492 100.532 77.9492C100.353 77.9492 100.218 77.9858 100.126 78.0591C100.033 78.1323 99.9872 78.2247 99.9872 78.3362C99.9872 78.4317 100.019 78.5082 100.083 78.5655C100.15 78.6229 100.258 78.6595 100.408 78.6754L100.685 78.7041C100.959 78.7327 101.178 78.8092 101.344 78.9334C101.51 79.0545 101.593 79.2265 101.593 79.4494C101.593 79.6087 101.546 79.7504 101.454 79.8747C101.365 79.9957 101.241 80.0913 101.081 80.1614C100.922 80.2282 100.739 80.2617 100.532 80.2617ZM103.141 80.2617C102.839 80.2617 102.606 80.1629 102.444 79.9655C102.281 79.768 102.2 79.4829 102.2 79.1102V77.629H102.659V79.201C102.659 79.4017 102.713 79.5593 102.821 79.674C102.929 79.7855 103.076 79.8412 103.261 79.8412C103.452 79.8412 103.608 79.7807 103.729 79.6597C103.85 79.5354 103.911 79.3666 103.911 79.1532V77.629H104.369V80.1852H104.006V79.0911H104.063C104.063 79.3427 104.03 79.5561 103.963 79.7313C103.896 79.9033 103.796 80.0355 103.662 80.1279C103.531 80.2171 103.364 80.2617 103.16 80.2617H103.141ZM106.605 80.2712C106.395 80.2712 106.207 80.2251 106.041 80.1327C105.879 80.0403 105.75 79.9065 105.654 79.7313C105.559 79.553 105.506 79.3395 105.496 79.0911H105.621V80.1852H105.258V76.6973H105.716V78.3935L105.554 78.7423C105.567 78.4652 105.622 78.239 105.721 78.0638C105.82 77.8886 105.949 77.7596 106.108 77.6768C106.27 77.5908 106.449 77.5478 106.643 77.5478C106.825 77.5478 106.99 77.5829 107.14 77.6529C107.29 77.7198 107.419 77.8138 107.527 77.9348C107.635 78.0527 107.718 78.1912 107.776 78.3505C107.833 78.5066 107.862 78.6754 107.862 78.857V78.943C107.862 79.1245 107.831 79.295 107.771 79.4542C107.713 79.6135 107.629 79.7552 107.518 79.8795C107.406 80.0005 107.272 80.0961 107.116 80.1661C106.963 80.2362 106.793 80.2712 106.605 80.2712ZM106.552 79.8699C106.724 79.8699 106.874 79.8285 107.002 79.7457C107.129 79.6629 107.228 79.5498 107.298 79.4064C107.368 79.2599 107.403 79.0911 107.403 78.9C107.403 78.7089 107.366 78.5416 107.293 78.3983C107.223 78.255 107.124 78.1451 106.997 78.0686C106.869 77.989 106.721 77.9492 106.552 77.9492C106.399 77.9492 106.258 77.9842 106.127 78.0543C105.997 78.1212 105.891 78.2199 105.812 78.3505C105.735 78.4779 105.697 78.6324 105.697 78.814V79.0338C105.697 79.2089 105.737 79.3587 105.817 79.4829C105.896 79.6071 106.001 79.7027 106.132 79.7696C106.263 79.8365 106.403 79.8699 106.552 79.8699Z" fill="white"/>
<path d="M124.217 72.6144V72.1475H127.03V72.6144H124.217ZM124.217 73.7079V73.241H127.03V73.7079H124.217Z" fill="#0C134F"/>
<path d="M38.302 73.787V35.4606C38.302 32.4448 40.7468 30.0001 43.7625 30.0001H89.153C92.1688 30.0001 94.6135 32.4448 94.6135 35.4606V61.1834" stroke="#252525" stroke-width="0.341282" stroke-linecap="round" stroke-dasharray="1.71 1.71"/>
<path d="M38.3017 75.0061C39.1499 75.0061 39.8375 74.3185 39.8375 73.4703C39.8375 72.6221 39.1499 71.9345 38.3017 71.9345C37.4535 71.9345 36.766 72.6221 36.766 73.4703C36.766 74.3185 37.4535 75.0061 38.3017 75.0061Z" fill="white" stroke="#252525" stroke-width="1.02385"/>
<path d="M94.2459 62.0235L92.6448 59.4476C92.4821 59.1859 92.5884 58.86 92.8264 58.7296C92.9648 58.6537 93.1312 58.6991 93.2797 58.7526L93.9199 58.9834C94.3687 59.1452 94.86 59.1452 95.3088 58.9834L95.949 58.7526C96.0975 58.6991 96.2639 58.6538 96.4023 58.7296C96.6366 58.8581 96.744 59.1761 96.5902 59.4372L95.0733 62.0131C94.886 62.3313 94.4407 62.3368 94.2459 62.0235Z" fill="#252525"/>
<mask id="path-14-inside-2_6353_5566" fill="white">
<path d="M185.396 46.0405C185.396 45.2865 186.007 44.6754 186.761 44.6754H238.636C239.39 44.6754 240.001 45.2865 240.001 46.0405V91.0897C240.001 91.8437 239.39 92.4548 238.636 92.4548H186.761C186.007 92.4548 185.396 91.8437 185.396 91.0897V46.0405Z"/>
</mask>
<path d="M185.396 46.0405C185.396 45.2865 186.007 44.6754 186.761 44.6754H238.636C239.39 44.6754 240.001 45.2865 240.001 46.0405V91.0897C240.001 91.8437 239.39 92.4548 238.636 92.4548H186.761C186.007 92.4548 185.396 91.8437 185.396 91.0897V46.0405Z" fill="white"/>
<path d="M185.396 44.6754H240.001H185.396ZM242.048 91.0897C242.048 92.9746 240.52 94.5025 238.636 94.5025H186.761C184.876 94.5025 183.348 92.9746 183.348 91.0897L187.443 90.4071H237.953L242.048 91.0897ZM186.761 94.5025C184.876 94.5025 183.348 92.9746 183.348 91.0897V48.0882C183.348 46.2033 184.876 44.6754 186.761 44.6754H187.443C187.443 44.6754 187.443 45.2865 187.443 46.0405V90.4071L186.761 94.5025ZM238.636 44.6754C240.52 44.6754 242.048 46.2033 242.048 48.0882V91.0897C242.048 92.9746 240.52 94.5025 238.636 94.5025L237.953 90.4071V46.0405C237.953 45.2865 237.953 44.6754 237.953 44.6754H238.636Z" fill="url(#paint1_linear_6353_5566)" fill-opacity="0.3" mask="url(#path-14-inside-2_6353_5566)"/>
<rect x="190.515" y="79.1456" width="44.3667" height="8.19077" rx="1.36513" fill="#1D267D"/>
<path d="M196.356 84.741V81.2531H196.824V84.741H196.356ZM198.776 84.7696C198.585 84.7696 198.419 84.7426 198.279 84.6884C198.142 84.6343 198.035 84.5419 197.959 84.4113C197.886 84.2775 197.849 84.0975 197.849 83.8714V81.4155H198.288V83.9287C198.288 84.0657 198.325 84.1724 198.398 84.2488C198.475 84.3221 198.582 84.3587 198.718 84.3587H199.168V84.7696H198.776ZM197.409 82.5336V82.1895H199.168V82.5336H197.409ZM200.882 84.827C200.659 84.827 200.467 84.7887 200.304 84.7123C200.142 84.6359 200.01 84.5355 199.908 84.4113C199.806 84.2839 199.729 84.1421 199.678 83.9861C199.63 83.83 199.607 83.6707 199.607 83.5083V83.4223C199.607 83.2566 199.63 83.0958 199.678 82.9397C199.729 82.7836 199.806 82.6434 199.908 82.5192C200.01 82.3918 200.139 82.2915 200.295 82.2182C200.454 82.1418 200.64 82.1035 200.854 82.1035C201.131 82.1035 201.358 82.1641 201.537 82.2851C201.718 82.403 201.852 82.5559 201.938 82.7438C202.027 82.9317 202.072 83.1324 202.072 83.3458V83.5513H199.807V83.2072H201.738L201.632 83.3936C201.632 83.212 201.604 83.0559 201.546 82.9253C201.489 82.7916 201.403 82.688 201.288 82.6148C201.174 82.5415 201.029 82.5049 200.854 82.5049C200.672 82.5049 200.521 82.5463 200.4 82.6291C200.282 82.7119 200.193 82.825 200.132 82.9683C200.075 83.1117 200.046 83.2773 200.046 83.4653C200.046 83.6468 200.075 83.8109 200.132 83.9574C200.193 84.1007 200.285 84.2154 200.409 84.3014C200.534 84.3842 200.691 84.4256 200.882 84.4256C201.083 84.4256 201.245 84.381 201.37 84.2918C201.497 84.2027 201.574 84.0991 201.599 83.9813H202.029C201.994 84.1565 201.924 84.3078 201.819 84.4352C201.714 84.5626 201.581 84.6597 201.422 84.7266C201.263 84.7935 201.083 84.827 200.882 84.827ZM202.723 84.741V82.1895H203.086V83.2837H203.029C203.029 83.0352 203.061 82.825 203.125 82.653C203.191 82.4778 203.29 82.344 203.421 82.2517C203.551 82.1593 203.717 82.1131 203.918 82.1131H203.937C204.138 82.1131 204.303 82.1593 204.434 82.2517C204.568 82.344 204.666 82.4778 204.73 82.653C204.794 82.825 204.826 83.0352 204.826 83.2837H204.692C204.692 83.0352 204.725 82.825 204.792 82.653C204.859 82.4778 204.958 82.344 205.088 82.2517C205.222 82.1593 205.389 82.1131 205.59 82.1131H205.609C205.81 82.1131 205.977 82.1593 206.111 82.2517C206.245 82.344 206.343 82.4778 206.407 82.653C206.474 82.825 206.507 83.0352 206.507 83.2837V84.741H206.049V83.1834C206.049 82.9763 205.998 82.817 205.896 82.7056C205.794 82.5909 205.652 82.5336 205.471 82.5336C205.283 82.5336 205.131 82.5941 205.017 82.7151C204.902 82.833 204.845 82.9986 204.845 83.212V84.741H204.386V83.1834C204.386 82.9763 204.335 82.817 204.233 82.7056C204.131 82.5909 203.989 82.5336 203.808 82.5336C203.62 82.5336 203.469 82.5941 203.354 82.7151C203.239 82.833 203.182 82.9986 203.182 83.212V84.741H202.723ZM207.223 83.6086V83.2168H209V83.6086H207.223ZM209.678 84.741V84.1676C209.678 84.0275 209.698 83.908 209.736 83.8093C209.777 83.7105 209.847 83.6213 209.946 83.5417C210.045 83.4589 210.179 83.3793 210.347 83.3028L211.002 83.0018C211.161 82.9285 211.287 82.8346 211.379 82.7199C211.472 82.602 211.518 82.4507 211.518 82.266C211.518 82.043 211.456 81.8694 211.332 81.7452C211.207 81.621 211.032 81.5589 210.806 81.5589C210.583 81.5589 210.408 81.621 210.28 81.7452C210.153 81.8694 210.089 82.043 210.089 82.266H209.64C209.64 82.0653 209.682 81.8806 209.764 81.7117C209.85 81.5429 209.979 81.4091 210.151 81.3104C210.323 81.2085 210.542 81.1575 210.806 81.1575C211.07 81.1575 211.287 81.2085 211.456 81.3104C211.628 81.4091 211.755 81.5397 211.838 81.7022C211.924 81.8646 211.967 82.0414 211.967 82.2325V82.2994C211.967 82.5511 211.894 82.7629 211.747 82.9349C211.604 83.1069 211.41 83.2487 211.164 83.3601L210.51 83.6612C210.363 83.728 210.265 83.7949 210.214 83.8618C210.163 83.9287 210.137 84.0179 210.137 84.1294V84.569L210.013 84.3492H212.01V84.741H209.678ZM214.044 85.6966V81.2531H214.455V85.6966H214.044ZM218.008 84.827C217.746 84.827 217.523 84.7824 217.339 84.6932C217.157 84.6008 217.009 84.4766 216.894 84.3205C216.783 84.1644 216.702 83.9845 216.651 83.7806C216.6 83.5736 216.574 83.3554 216.574 83.126V82.868C216.574 82.5463 216.624 82.2564 216.722 81.9984C216.824 81.7404 216.98 81.5366 217.191 81.3868C217.404 81.234 217.676 81.1575 218.008 81.1575C218.339 81.1575 218.61 81.234 218.82 81.3868C219.03 81.5366 219.185 81.7404 219.283 81.9984C219.385 82.2564 219.436 82.5463 219.436 82.868V83.126C219.436 83.3554 219.411 83.5736 219.36 83.7806C219.309 83.9845 219.226 84.1644 219.111 84.3205C219 84.4766 218.853 84.6008 218.672 84.6932C218.49 84.7824 218.269 84.827 218.008 84.827ZM218.008 84.4065C218.339 84.4065 218.581 84.295 218.734 84.0721C218.89 83.8459 218.968 83.4891 218.968 83.0018C218.968 82.4921 218.888 82.1274 218.729 81.9076C218.573 81.6879 218.333 81.578 218.008 81.578C217.68 81.578 217.436 81.6879 217.277 81.9076C217.121 82.1274 217.043 82.489 217.043 82.9922C217.043 83.4828 217.121 83.8411 217.277 84.0673C217.433 84.2934 217.676 84.4065 218.008 84.4065ZM219.915 84.741L220.827 83.3984L220.813 83.4939L219.958 82.1895H220.464L221.081 83.1499H221.148L221.73 82.1895H222.203L221.396 83.4605L221.41 83.3745L222.366 84.741H221.859L221.143 83.7042H221.076L220.388 84.741H219.915ZM224.232 84.827C223.971 84.827 223.748 84.7824 223.563 84.6932C223.382 84.6008 223.233 84.4766 223.119 84.3205C223.007 84.1644 222.926 83.9845 222.875 83.7806C222.824 83.5736 222.799 83.3554 222.799 83.126V82.868C222.799 82.5463 222.848 82.2564 222.947 81.9984C223.049 81.7404 223.205 81.5366 223.415 81.3868C223.628 81.234 223.901 81.1575 224.232 81.1575C224.563 81.1575 224.834 81.234 225.044 81.3868C225.255 81.5366 225.409 81.7404 225.508 81.9984C225.61 82.2564 225.661 82.5463 225.661 82.868V83.126C225.661 83.3554 225.635 83.5736 225.584 83.7806C225.533 83.9845 225.45 84.1644 225.336 84.3205C225.224 84.4766 225.078 84.6008 224.896 84.6932C224.715 84.7824 224.493 84.827 224.232 84.827ZM224.232 84.4065C224.563 84.4065 224.805 84.295 224.958 84.0721C225.114 83.8459 225.192 83.4891 225.192 83.0018C225.192 82.4921 225.113 82.1274 224.954 81.9076C224.797 81.6879 224.557 81.578 224.232 81.578C223.904 81.578 223.66 81.6879 223.501 81.9076C223.345 82.1274 223.267 82.489 223.267 82.9922C223.267 83.4828 223.345 83.8411 223.501 84.0673C223.657 84.2934 223.901 84.4065 224.232 84.4065ZM227.783 84.827C227.522 84.827 227.299 84.7824 227.114 84.6932C226.932 84.6008 226.784 84.4766 226.67 84.3205C226.558 84.1644 226.477 83.9845 226.426 83.7806C226.375 83.5736 226.349 83.3554 226.349 83.126V82.868C226.349 82.5463 226.399 82.2564 226.498 81.9984C226.6 81.7404 226.756 81.5366 226.966 81.3868C227.179 81.234 227.452 81.1575 227.783 81.1575C228.114 81.1575 228.385 81.234 228.595 81.3868C228.805 81.5366 228.96 81.7404 229.059 81.9984C229.16 82.2564 229.211 82.5463 229.211 82.868V83.126C229.211 83.3554 229.186 83.5736 229.135 83.7806C229.084 83.9845 229.001 84.1644 228.887 84.3205C228.775 84.4766 228.629 84.6008 228.447 84.6932C228.265 84.7824 228.044 84.827 227.783 84.827ZM227.783 84.4065C228.114 84.4065 228.356 84.295 228.509 84.0721C228.665 83.8459 228.743 83.4891 228.743 83.0018C228.743 82.4921 228.664 82.1274 228.504 81.9076C228.348 81.6879 228.108 81.578 227.783 81.578C227.455 81.578 227.211 81.6879 227.052 81.9076C226.896 82.1274 226.818 82.489 226.818 82.9922C226.818 83.4828 226.896 83.8411 227.052 84.0673C227.208 84.2934 227.452 84.4065 227.783 84.4065Z" fill="white"/>
<rect x="134.373" y="69.7604" width="44.0254" height="7.84949" rx="1.19449" fill="#1D267D"/>
<rect x="134.373" y="69.7604" width="44.0254" height="7.84949" rx="1.19449" stroke="#0C134F" stroke-width="0.341282"/>
<path d="M140.044 75.1852V71.6973H140.512V75.1852H140.044ZM142.464 75.2138C142.273 75.2138 142.107 75.1868 141.967 75.1326C141.83 75.0785 141.723 74.9861 141.647 74.8555C141.573 74.7217 141.537 74.5418 141.537 74.3156V71.8597H141.976V74.3729C141.976 74.5099 142.013 74.6166 142.086 74.6931C142.163 74.7663 142.269 74.8029 142.406 74.8029H142.855V75.2138H142.464ZM141.097 72.9778V72.6338H142.855V72.9778H141.097ZM144.57 75.2712C144.347 75.2712 144.154 75.233 143.992 75.1565C143.83 75.0801 143.697 74.9797 143.595 74.8555C143.494 74.7281 143.417 74.5863 143.366 74.4303C143.318 74.2742 143.294 74.1149 143.294 73.9525V73.8665C143.294 73.7008 143.318 73.54 143.366 73.3839C143.417 73.2278 143.494 73.0877 143.595 72.9634C143.697 72.836 143.826 72.7357 143.982 72.6624C144.142 72.586 144.328 72.5478 144.541 72.5478C144.819 72.5478 145.046 72.6083 145.225 72.7293C145.406 72.8472 145.54 73.0001 145.626 73.188C145.715 73.3759 145.76 73.5766 145.76 73.79V73.9955H143.495V73.6515H145.425L145.32 73.8378C145.32 73.6562 145.292 73.5002 145.234 73.3696C145.177 73.2358 145.091 73.1323 144.976 73.059C144.862 72.9857 144.717 72.9491 144.541 72.9491C144.36 72.9491 144.209 72.9905 144.088 73.0733C143.97 73.1561 143.881 73.2692 143.82 73.4126C143.763 73.5559 143.734 73.7215 143.734 73.9095C143.734 74.091 143.763 74.2551 143.82 74.4016C143.881 74.5449 143.973 74.6596 144.097 74.7456C144.221 74.8284 144.379 74.8698 144.57 74.8698C144.771 74.8698 144.933 74.8252 145.058 74.7361C145.185 74.6469 145.261 74.5433 145.287 74.4255H145.717C145.682 74.6007 145.612 74.752 145.507 74.8794C145.402 75.0068 145.269 75.104 145.11 75.1708C144.951 75.2377 144.771 75.2712 144.57 75.2712ZM146.411 75.1852V72.6338H146.774V73.7279H146.717C146.717 73.4795 146.749 73.2692 146.812 73.0972C146.879 72.922 146.978 72.7882 147.109 72.6959C147.239 72.6035 147.405 72.5573 147.606 72.5573H147.625C147.825 72.5573 147.991 72.6035 148.122 72.6959C148.255 72.7882 148.354 72.922 148.418 73.0972C148.482 73.2692 148.513 73.4795 148.513 73.7279H148.38C148.38 73.4795 148.413 73.2692 148.48 73.0972C148.547 72.922 148.646 72.7882 148.776 72.6959C148.91 72.6035 149.077 72.5573 149.278 72.5573H149.297C149.498 72.5573 149.665 72.6035 149.799 72.6959C149.932 72.7882 150.031 72.922 150.095 73.0972C150.162 73.2692 150.195 73.4795 150.195 73.7279V75.1852H149.737V73.6276C149.737 73.4205 149.686 73.2613 149.584 73.1498C149.482 73.0351 149.34 72.9778 149.158 72.9778C148.971 72.9778 148.819 73.0383 148.705 73.1593C148.59 73.2772 148.533 73.4428 148.533 73.6562V75.1852H148.074V73.6276C148.074 73.4205 148.023 73.2613 147.921 73.1498C147.819 73.0351 147.677 72.9778 147.496 72.9778C147.308 72.9778 147.156 73.0383 147.042 73.1593C146.927 73.2772 146.87 73.4428 146.87 73.6562V75.1852H146.411ZM150.911 74.0528V73.661H152.688V74.0528H150.911ZM153.366 75.1852V74.6118C153.366 74.4717 153.385 74.3522 153.424 74.2535C153.465 74.1547 153.535 74.0655 153.634 73.9859C153.733 73.9031 153.866 73.8235 154.035 73.747L154.69 73.446C154.849 73.3727 154.975 73.2788 155.067 73.1641C155.16 73.0463 155.206 72.895 155.206 72.7102C155.206 72.4872 155.144 72.3136 155.019 72.1894C154.895 72.0652 154.72 72.0031 154.494 72.0031C154.271 72.0031 154.096 72.0652 153.968 72.1894C153.841 72.3136 153.777 72.4872 153.777 72.7102H153.328C153.328 72.5095 153.369 72.3248 153.452 72.156C153.538 71.9871 153.667 71.8534 153.839 71.7546C154.011 71.6527 154.23 71.6017 154.494 71.6017C154.758 71.6017 154.975 71.6527 155.144 71.7546C155.316 71.8534 155.443 71.984 155.526 72.1464C155.612 72.3089 155.655 72.4856 155.655 72.6768V72.7436C155.655 72.9953 155.582 73.2071 155.435 73.3791C155.292 73.5511 155.097 73.6929 154.852 73.8044L154.198 74.1054C154.051 74.1723 153.952 74.2391 153.901 74.306C153.85 74.3729 153.825 74.4621 153.825 74.5736V75.0132L153.701 74.7934H155.698V75.1852H153.366ZM157.732 76.1408V71.6973H158.143V76.1408H157.732ZM161.696 75.2712C161.434 75.2712 161.211 75.2266 161.027 75.1374C160.845 75.045 160.697 74.9208 160.582 74.7647C160.471 74.6086 160.39 74.4287 160.339 74.2248C160.288 74.0178 160.262 73.7996 160.262 73.5702V73.3122C160.262 72.9905 160.312 72.7006 160.41 72.4426C160.512 72.1846 160.668 71.9808 160.878 71.8311C161.092 71.6782 161.364 71.6017 161.696 71.6017C162.027 71.6017 162.298 71.6782 162.508 71.8311C162.718 71.9808 162.872 72.1846 162.971 72.4426C163.073 72.7006 163.124 72.9905 163.124 73.3122V73.5702C163.124 73.7996 163.099 74.0178 163.048 74.2248C162.997 74.4287 162.914 74.6086 162.799 74.7647C162.688 74.9208 162.541 75.045 162.36 75.1374C162.178 75.2266 161.957 75.2712 161.696 75.2712ZM161.696 74.8507C162.027 74.8507 162.269 74.7392 162.422 74.5163C162.578 74.2901 162.656 73.9334 162.656 73.446C162.656 72.9364 162.576 72.5716 162.417 72.3519C162.261 72.1321 162.02 72.0222 161.696 72.0222C161.367 72.0222 161.124 72.1321 160.964 72.3519C160.808 72.5716 160.73 72.9332 160.73 73.4365C160.73 73.927 160.808 74.2853 160.964 74.5115C161.121 74.7376 161.364 74.8507 161.696 74.8507ZM163.603 75.1852L164.515 73.8426L164.501 73.9381L163.646 72.6338H164.152L164.769 73.5941H164.835L165.418 72.6338H165.891L165.084 73.9047L165.098 73.8187L166.054 75.1852H165.547L164.831 74.1484H164.764L164.076 75.1852H163.603ZM167.92 75.2712C167.659 75.2712 167.436 75.2266 167.251 75.1374C167.069 75.045 166.921 74.9208 166.807 74.7647C166.695 74.6086 166.614 74.4287 166.563 74.2248C166.512 74.0178 166.487 73.7996 166.487 73.5702V73.3122C166.487 72.9905 166.536 72.7006 166.635 72.4426C166.737 72.1846 166.893 71.9808 167.103 71.8311C167.316 71.6782 167.589 71.6017 167.92 71.6017C168.251 71.6017 168.522 71.6782 168.732 71.8311C168.942 71.9808 169.097 72.1846 169.196 72.4426C169.298 72.7006 169.349 72.9905 169.349 73.3122V73.5702C169.349 73.7996 169.323 74.0178 169.272 74.2248C169.221 74.4287 169.138 74.6086 169.024 74.7647C168.912 74.9208 168.766 75.045 168.584 75.1374C168.402 75.2266 168.181 75.2712 167.92 75.2712ZM167.92 74.8507C168.251 74.8507 168.493 74.7392 168.646 74.5163C168.802 74.2901 168.88 73.9334 168.88 73.446C168.88 72.9364 168.801 72.5716 168.641 72.3519C168.485 72.1321 168.245 72.0222 167.92 72.0222C167.592 72.0222 167.348 72.1321 167.189 72.3519C167.033 72.5716 166.955 72.9332 166.955 73.4365C166.955 73.927 167.033 74.2853 167.189 74.5115C167.345 74.7376 167.589 74.8507 167.92 74.8507ZM171.471 75.2712C171.21 75.2712 170.987 75.2266 170.802 75.1374C170.62 75.045 170.472 74.9208 170.357 74.7647C170.246 74.6086 170.165 74.4287 170.114 74.2248C170.063 74.0178 170.037 73.7996 170.037 73.5702V73.3122C170.037 72.9905 170.087 72.7006 170.185 72.4426C170.287 72.1846 170.443 71.9808 170.654 71.8311C170.867 71.6782 171.139 71.6017 171.471 71.6017C171.802 71.6017 172.073 71.6782 172.283 71.8311C172.493 71.9808 172.648 72.1846 172.746 72.4426C172.848 72.7006 172.899 72.9905 172.899 73.3122V73.5702C172.899 73.7996 172.874 74.0178 172.823 74.2248C172.772 74.4287 172.689 74.6086 172.574 74.7647C172.463 74.9208 172.316 75.045 172.135 75.1374C171.953 75.2266 171.732 75.2712 171.471 75.2712ZM171.471 74.8507C171.802 74.8507 172.044 74.7392 172.197 74.5163C172.353 74.2901 172.431 73.9334 172.431 73.446C172.431 72.9364 172.351 72.5716 172.192 72.3519C172.036 72.1321 171.796 72.0222 171.471 72.0222C171.143 72.0222 170.899 72.1321 170.74 72.3519C170.584 72.5716 170.506 72.9332 170.506 73.4365C170.506 73.927 170.584 74.2853 170.74 74.5115C170.896 74.7376 171.139 74.8507 171.471 74.8507Z" fill="white"/>
<path d="M157.409 63.7869V35.4605C157.409 32.4448 159.854 30 162.87 30H208.26C211.276 30 213.721 32.4448 213.721 35.4605V59.5887" stroke="#252525" stroke-width="0.341282" stroke-linecap="round" stroke-dasharray="1.71 1.71"/>
<path d="M157.409 66.005C158.257 66.005 158.945 65.3174 158.945 64.4692C158.945 63.621 158.257 62.9334 157.409 62.9334C156.561 62.9334 155.873 63.621 155.873 64.4692C155.873 65.3174 156.561 66.005 157.409 66.005Z" fill="white" stroke="#252525" stroke-width="1.02385"/>
<path d="M213.353 62.0869L211.752 59.511C211.589 59.2493 211.696 58.9234 211.934 58.793C212.072 58.7171 212.238 58.7625 212.387 58.816L213.027 59.0468C213.476 59.2086 213.967 59.2086 214.416 59.0468L215.056 58.816C215.205 58.7625 215.371 58.7172 215.509 58.7931C215.744 58.9215 215.851 59.2395 215.697 59.5007L214.181 62.0765C213.993 62.3947 213.548 62.4003 213.353 62.0869Z" fill="#252525"/>
<defs>
<linearGradient id="paint0_linear_6353_5566" x1="9.06279" y1="40.5821" x2="41.3579" y2="108.99" gradientUnits="userSpaceOnUse">
<stop stop-color="#662B64"/>
<stop offset="1" stop-color="#456F97"/>
</linearGradient>
<linearGradient id="paint1_linear_6353_5566" x1="183.458" y1="40.5821" x2="215.754" y2="108.99" gradientUnits="userSpaceOnUse">
<stop stop-color="#662B64"/>
<stop offset="1" stop-color="#456F97"/>
</linearGradient>
</defs>
</svg>
