<svg width="234" height="123" viewBox="0 0 234 123" fill="none" xmlns="http://www.w3.org/2000/svg">
<rect width="234" height="123" rx="10" fill="#F4F4F4"/>
<circle cx="34" cy="62" r="15" fill="#6C5E70"/>
<path d="M29.7497 68L33.7177 56.48H35.2777L39.2457 68H38.0217L34.2537 57.136H34.7177L30.9737 68H29.7497ZM31.5177 65.208V64.104H37.4697V65.208H31.5177Z" fill="#F4F4F4"/>
<circle cx="200" cy="62" r="15" fill="#6C5E70"/>
<path d="M196.214 68V56.48H200.662C201.307 56.48 201.87 56.6133 202.35 56.88C202.83 57.1467 203.203 57.5067 203.47 57.96C203.736 58.408 203.87 58.904 203.87 59.448C203.87 60.0667 203.704 60.6187 203.374 61.104C203.043 61.584 202.6 61.9173 202.046 62.104L202.03 61.712C202.776 61.9253 203.363 62.2987 203.79 62.832C204.216 63.3653 204.43 64.0107 204.43 64.768C204.43 65.4347 204.288 66.0107 204.006 66.496C203.723 66.976 203.326 67.3467 202.814 67.608C202.302 67.8693 201.707 68 201.03 68H196.214ZM197.398 66.872H200.742C201.211 66.872 201.632 66.7893 202.006 66.624C202.379 66.4533 202.672 66.2133 202.886 65.904C203.104 65.5947 203.214 65.2213 203.214 64.784C203.214 64.3573 203.115 63.9733 202.918 63.632C202.72 63.2907 202.451 63.0187 202.11 62.816C201.774 62.608 201.39 62.504 200.958 62.504H197.398V66.872ZM197.398 61.392H200.654C201.022 61.392 201.358 61.3093 201.662 61.144C201.966 60.9733 202.206 60.7413 202.382 60.448C202.563 60.1547 202.654 59.816 202.654 59.432C202.654 58.888 202.464 58.4453 202.086 58.104C201.712 57.7627 201.235 57.592 200.654 57.592H197.398V61.392Z" fill="#F4F4F4"/>
<path d="M49 62H185.475" stroke="#6C5E70" stroke-width="0.827124" stroke-linecap="round" stroke-dasharray="4.14 4.14"/>
<path d="M121.123 62.8559L114.881 66.7365C114.246 67.1308 113.456 66.873 113.14 66.2962C112.956 65.9607 113.066 65.5574 113.196 65.1976L113.755 63.6461C114.148 62.5583 114.148 61.3677 113.755 60.2799L113.196 58.7284C113.066 58.3685 112.957 57.9653 113.14 57.6298C113.452 57.0619 114.223 56.8016 114.855 57.1743L121.098 60.8506C121.869 61.3047 121.883 62.3839 121.123 62.8559Z" fill="#6C5E70"/>
</svg>
