<svg width="234" height="123" viewBox="0 0 234 123" fill="none" xmlns="http://www.w3.org/2000/svg">
<rect width="234" height="123" rx="10" fill="#F4F4F4"/>
<circle cx="34" cy="62" r="15" fill="#6C5E70"/>
<path d="M29.7497 68L33.7177 56.48H35.2777L39.2457 68H38.0217L34.2537 57.136H34.7177L30.9737 68H29.7497ZM31.5177 65.208V64.104H37.4697V65.208H31.5177Z" fill="#F4F4F4"/>
<circle cx="200" cy="62" r="15" fill="#6C5E70"/>
<path d="M196.214 68V56.48H200.662C201.307 56.48 201.87 56.6133 202.35 56.88C202.83 57.1467 203.203 57.5067 203.47 57.96C203.736 58.408 203.87 58.904 203.87 59.448C203.87 60.0667 203.704 60.6187 203.374 61.104C203.043 61.584 202.6 61.9173 202.046 62.104L202.03 61.712C202.776 61.9253 203.363 62.2987 203.79 62.832C204.216 63.3653 204.43 64.0107 204.43 64.768C204.43 65.4347 204.288 66.0107 204.006 66.496C203.723 66.976 203.326 67.3467 202.814 67.608C202.302 67.8693 201.707 68 201.03 68H196.214ZM197.398 66.872H200.742C201.211 66.872 201.632 66.7893 202.006 66.624C202.379 66.4533 202.672 66.2133 202.886 65.904C203.104 65.5947 203.214 65.2213 203.214 64.784C203.214 64.3573 203.115 63.9733 202.918 63.632C202.72 63.2907 202.451 63.0187 202.11 62.816C201.774 62.608 201.39 62.504 200.958 62.504H197.398V66.872ZM197.398 61.392H200.654C201.022 61.392 201.358 61.3093 201.662 61.144C201.966 60.9733 202.206 60.7413 202.382 60.448C202.563 60.1547 202.654 59.816 202.654 59.432C202.654 58.888 202.464 58.4453 202.086 58.104C201.712 57.7627 201.235 57.592 200.654 57.592H197.398V61.392Z" fill="#F4F4F4"/>
<path d="M49 62H185.475" stroke="#6C5E70" stroke-width="0.827124" stroke-linecap="round" stroke-dasharray="4.14 4.14"/>
<path d="M81.1234 62.8559L74.8805 66.7365C74.2462 67.1308 73.4564 66.873 73.1403 66.2962C72.9564 65.9607 73.0663 65.5574 73.1961 65.1976L73.7554 63.6461C74.1476 62.5583 74.1476 61.3677 73.7554 60.2799L73.1961 58.7284C73.0663 58.3685 72.9565 57.9653 73.1404 57.6298C73.4518 57.0619 74.2225 56.8016 74.8554 57.1743L81.0982 60.8506C81.8692 61.3047 81.8828 62.3839 81.1234 62.8559Z" fill="#6C5E70"/>
<path d="M159.123 62.8559L152.881 66.7365C152.246 67.1308 151.456 66.873 151.14 66.2962C150.956 65.9607 151.066 65.5574 151.196 65.1976L151.755 63.6461C152.148 62.5583 152.148 61.3677 151.755 60.2799L151.196 58.7284C151.066 58.3685 150.957 57.9653 151.14 57.6298C151.452 57.0619 152.223 56.8016 152.855 57.1743L159.098 60.8506C159.869 61.3047 159.883 62.3839 159.123 62.8559Z" fill="#6C5E70"/>
<circle cx="114" cy="62" r="12" fill="#6C5E70"/>
<mask id="path-10-inside-1_4627_12584" fill="white">
<path d="M114 66.6666H109.917C109.762 66.6666 109.614 66.6052 109.504 66.4958C109.395 66.3864 109.333 66.238 109.333 66.0833V57.9166C109.333 57.7619 109.395 57.6135 109.504 57.5041C109.614 57.3948 109.762 57.3333 109.917 57.3333H112.833V59.0833C112.833 59.5474 113.018 59.9925 113.346 60.3207C113.674 60.6489 114.119 60.8333 114.583 60.8333H116.333V61.4166C116.333 61.5713 116.395 61.7197 116.504 61.8291C116.614 61.9385 116.762 62 116.917 62C117.071 62 117.22 61.9385 117.329 61.8291C117.439 61.7197 117.5 61.5713 117.5 61.4166V60.25C117.5 60.25 117.5 60.25 117.5 60.215C117.494 60.1614 117.482 60.1086 117.465 60.0575V60.005C117.437 59.945 117.4 59.8898 117.354 59.8416L113.854 56.3416C113.806 56.2963 113.751 56.2588 113.691 56.2308C113.674 56.2283 113.656 56.2283 113.638 56.2308C113.579 56.1968 113.514 56.175 113.446 56.1666H109.917C109.453 56.1666 109.007 56.351 108.679 56.6792C108.351 57.0074 108.167 57.4525 108.167 57.9166V66.0833C108.167 66.5474 108.351 66.9925 108.679 67.3207C109.007 67.6489 109.453 67.8333 109.917 67.8333H114C114.155 67.8333 114.303 67.7718 114.413 67.6624C114.522 67.553 114.583 67.4047 114.583 67.25C114.583 67.0952 114.522 66.9469 114.413 66.8375C114.303 66.7281 114.155 66.6666 114 66.6666ZM114 58.1558L115.511 59.6666H114.583C114.429 59.6666 114.28 59.6052 114.171 59.4958C114.062 59.3864 114 59.238 114 59.0833V58.1558ZM111.083 59.6666C110.929 59.6666 110.78 59.7281 110.671 59.8375C110.562 59.9469 110.5 60.0952 110.5 60.25C110.5 60.4047 110.562 60.553 110.671 60.6624C110.78 60.7718 110.929 60.8333 111.083 60.8333H111.667C111.821 60.8333 111.97 60.7718 112.079 60.6624C112.189 60.553 112.25 60.4047 112.25 60.25C112.25 60.0952 112.189 59.9469 112.079 59.8375C111.97 59.7281 111.821 59.6666 111.667 59.6666H111.083ZM119.664 66.8358L118.982 66.1591C119.2 65.7784 119.287 65.3366 119.23 64.9014C119.173 64.4663 118.975 64.0618 118.667 63.75C118.383 63.4558 118.017 63.2539 117.616 63.1708C117.216 63.0876 116.8 63.127 116.422 63.2838C116.044 63.4405 115.722 63.7074 115.499 64.0496C115.275 64.3919 115.159 64.7936 115.167 65.2025C115.165 65.5543 115.255 65.9006 115.428 66.2069C115.601 66.5133 115.851 66.769 116.154 66.9488C116.456 67.1287 116.8 67.2263 117.152 67.232C117.504 67.2378 117.851 67.1515 118.159 66.9816L118.836 67.6641C118.89 67.7188 118.955 67.7622 119.026 67.7918C119.097 67.8214 119.173 67.8367 119.25 67.8367C119.327 67.8367 119.403 67.8214 119.474 67.7918C119.546 67.7622 119.61 67.7188 119.664 67.6641C119.719 67.6099 119.762 67.5454 119.792 67.4743C119.822 67.4032 119.837 67.327 119.837 67.25C119.837 67.173 119.822 67.0967 119.792 67.0256C119.762 66.9545 119.719 66.89 119.664 66.8358ZM117.815 65.815C117.648 65.9716 117.428 66.0589 117.2 66.0589C116.971 66.0589 116.751 65.9716 116.584 65.815C116.424 65.6515 116.334 65.4316 116.333 65.2025C116.332 65.0874 116.354 64.9733 116.398 64.867C116.443 64.7607 116.508 64.6645 116.59 64.5841C116.746 64.4294 116.954 64.3398 117.173 64.3333C117.291 64.326 117.41 64.3432 117.52 64.3838C117.631 64.4244 117.733 64.4875 117.818 64.5691C117.904 64.6507 117.971 64.7491 118.017 64.8581C118.063 64.9671 118.085 65.0843 118.083 65.2025C118.079 65.4341 117.982 65.6544 117.815 65.815ZM114.583 62H111.083C110.929 62 110.78 62.0614 110.671 62.1708C110.562 62.2802 110.5 62.4286 110.5 62.5833C110.5 62.738 110.562 62.8864 110.671 62.9958C110.78 63.1052 110.929 63.1666 111.083 63.1666H114.583C114.738 63.1666 114.886 63.1052 114.996 62.9958C115.105 62.8864 115.167 62.738 115.167 62.5833C115.167 62.4286 115.105 62.2802 114.996 62.1708C114.886 62.0614 114.738 62 114.583 62ZM113.417 65.5C113.571 65.5 113.72 65.4385 113.829 65.3291C113.939 65.2197 114 65.0713 114 64.9166C114 64.7619 113.939 64.6135 113.829 64.5041C113.72 64.3947 113.571 64.3333 113.417 64.3333H111.083C110.929 64.3333 110.78 64.3947 110.671 64.5041C110.562 64.6135 110.5 64.7619 110.5 64.9166C110.5 65.0713 110.562 65.2197 110.671 65.3291C110.78 65.4385 110.929 65.5 111.083 65.5H113.417Z"/>
</mask>
<path d="M114 66.6666H109.917C109.762 66.6666 109.614 66.6052 109.504 66.4958C109.395 66.3864 109.333 66.238 109.333 66.0833V57.9166C109.333 57.7619 109.395 57.6135 109.504 57.5041C109.614 57.3948 109.762 57.3333 109.917 57.3333H112.833V59.0833C112.833 59.5474 113.018 59.9925 113.346 60.3207C113.674 60.6489 114.119 60.8333 114.583 60.8333H116.333V61.4166C116.333 61.5713 116.395 61.7197 116.504 61.8291C116.614 61.9385 116.762 62 116.917 62C117.071 62 117.22 61.9385 117.329 61.8291C117.439 61.7197 117.5 61.5713 117.5 61.4166V60.25C117.5 60.25 117.5 60.25 117.5 60.215C117.494 60.1614 117.482 60.1086 117.465 60.0575V60.005C117.437 59.945 117.4 59.8898 117.354 59.8416L113.854 56.3416C113.806 56.2963 113.751 56.2588 113.691 56.2308C113.674 56.2283 113.656 56.2283 113.638 56.2308C113.579 56.1968 113.514 56.175 113.446 56.1666H109.917C109.453 56.1666 109.007 56.351 108.679 56.6792C108.351 57.0074 108.167 57.4525 108.167 57.9166V66.0833C108.167 66.5474 108.351 66.9925 108.679 67.3207C109.007 67.6489 109.453 67.8333 109.917 67.8333H114C114.155 67.8333 114.303 67.7718 114.413 67.6624C114.522 67.553 114.583 67.4047 114.583 67.25C114.583 67.0952 114.522 66.9469 114.413 66.8375C114.303 66.7281 114.155 66.6666 114 66.6666ZM114 58.1558L115.511 59.6666H114.583C114.429 59.6666 114.28 59.6052 114.171 59.4958C114.062 59.3864 114 59.238 114 59.0833V58.1558ZM111.083 59.6666C110.929 59.6666 110.78 59.7281 110.671 59.8375C110.562 59.9469 110.5 60.0952 110.5 60.25C110.5 60.4047 110.562 60.553 110.671 60.6624C110.78 60.7718 110.929 60.8333 111.083 60.8333H111.667C111.821 60.8333 111.97 60.7718 112.079 60.6624C112.189 60.553 112.25 60.4047 112.25 60.25C112.25 60.0952 112.189 59.9469 112.079 59.8375C111.97 59.7281 111.821 59.6666 111.667 59.6666H111.083ZM119.664 66.8358L118.982 66.1591C119.2 65.7784 119.287 65.3366 119.23 64.9014C119.173 64.4663 118.975 64.0618 118.667 63.75C118.383 63.4558 118.017 63.2539 117.616 63.1708C117.216 63.0876 116.8 63.127 116.422 63.2838C116.044 63.4405 115.722 63.7074 115.499 64.0496C115.275 64.3919 115.159 64.7936 115.167 65.2025C115.165 65.5543 115.255 65.9006 115.428 66.2069C115.601 66.5133 115.851 66.769 116.154 66.9488C116.456 67.1287 116.8 67.2263 117.152 67.232C117.504 67.2378 117.851 67.1515 118.159 66.9816L118.836 67.6641C118.89 67.7188 118.955 67.7622 119.026 67.7918C119.097 67.8214 119.173 67.8367 119.25 67.8367C119.327 67.8367 119.403 67.8214 119.474 67.7918C119.546 67.7622 119.61 67.7188 119.664 67.6641C119.719 67.6099 119.762 67.5454 119.792 67.4743C119.822 67.4032 119.837 67.327 119.837 67.25C119.837 67.173 119.822 67.0967 119.792 67.0256C119.762 66.9545 119.719 66.89 119.664 66.8358ZM117.815 65.815C117.648 65.9716 117.428 66.0589 117.2 66.0589C116.971 66.0589 116.751 65.9716 116.584 65.815C116.424 65.6515 116.334 65.4316 116.333 65.2025C116.332 65.0874 116.354 64.9733 116.398 64.867C116.443 64.7607 116.508 64.6645 116.59 64.5841C116.746 64.4294 116.954 64.3398 117.173 64.3333C117.291 64.326 117.41 64.3432 117.52 64.3838C117.631 64.4244 117.733 64.4875 117.818 64.5691C117.904 64.6507 117.971 64.7491 118.017 64.8581C118.063 64.9671 118.085 65.0843 118.083 65.2025C118.079 65.4341 117.982 65.6544 117.815 65.815ZM114.583 62H111.083C110.929 62 110.78 62.0614 110.671 62.1708C110.562 62.2802 110.5 62.4286 110.5 62.5833C110.5 62.738 110.562 62.8864 110.671 62.9958C110.78 63.1052 110.929 63.1666 111.083 63.1666H114.583C114.738 63.1666 114.886 63.1052 114.996 62.9958C115.105 62.8864 115.167 62.738 115.167 62.5833C115.167 62.4286 115.105 62.2802 114.996 62.1708C114.886 62.0614 114.738 62 114.583 62ZM113.417 65.5C113.571 65.5 113.72 65.4385 113.829 65.3291C113.939 65.2197 114 65.0713 114 64.9166C114 64.7619 113.939 64.6135 113.829 64.5041C113.72 64.3947 113.571 64.3333 113.417 64.3333H111.083C110.929 64.3333 110.78 64.3947 110.671 64.5041C110.562 64.6135 110.5 64.7619 110.5 64.9166C110.5 65.0713 110.562 65.2197 110.671 65.3291C110.78 65.4385 110.929 65.5 111.083 65.5H113.417Z" fill="#6C5E70" stroke="white" stroke-width="2" mask="url(#path-10-inside-1_4627_12584)"/>
<path d="M115.951 62.6725H119.855V67.9898H115.951L114.47 64.759L115.951 62.6725Z" fill="#6C5E70"/>
<path d="M117.12 63.515V64.131L115.272 64.683V64.095L117.12 63.515ZM115.272 64.427L117.12 64.979V65.611L115.272 65.031V64.427ZM115.792 64.407V64.735H115.672V64.407H115.792ZM117.455 66.115L118.287 62.755H119.039L118.207 66.115H117.455ZM119.374 65.611V64.995L121.222 64.443V65.031L119.374 65.611ZM121.222 64.699L119.374 64.147V63.515L121.222 64.095V64.699ZM120.702 64.719V64.391H120.822V64.719H120.702Z" fill="white"/>
</svg>
