<svg width="253" height="123" viewBox="0 0 253 123" fill="none" xmlns="http://www.w3.org/2000/svg">
<rect width="253" height="123" rx="10" fill="#F4F4F4"/>
<mask id="path-2-inside-1_1787_7923" fill="white">
<path d="M11 46.0405C11 45.2865 11.6112 44.6754 12.3651 44.6754H64.24C64.9939 44.6754 65.6051 45.2865 65.6051 46.0405V91.0897C65.6051 91.8437 64.9939 92.4548 64.24 92.4548H12.3651C11.6112 92.4548 11 91.8437 11 91.0897V46.0405Z"/>
</mask>
<path d="M11 46.0405C11 45.2865 11.6112 44.6754 12.3651 44.6754H64.24C64.9939 44.6754 65.6051 45.2865 65.6051 46.0405V91.0897C65.6051 91.8437 64.9939 92.4548 64.24 92.4548H12.3651C11.6112 92.4548 11 91.8437 11 91.0897V46.0405Z" fill="white"/>
<path d="M11 44.6754H65.6051H11ZM67.6528 91.0897C67.6528 92.9746 66.1248 94.5025 64.24 94.5025H12.3651C10.4803 94.5025 8.95231 92.9746 8.95231 91.0897L13.0477 90.4071H63.5574L67.6528 91.0897ZM12.3651 94.5025C10.4803 94.5025 8.95231 92.9746 8.95231 91.0897V48.0882C8.95231 46.2033 10.4803 44.6754 12.3651 44.6754H13.0477C13.0477 44.6754 13.0477 45.2865 13.0477 46.0405V90.4071L12.3651 94.5025ZM64.24 44.6754C66.1248 44.6754 67.6528 46.2033 67.6528 48.0882V91.0897C67.6528 92.9746 66.1248 94.5025 64.24 94.5025L63.5574 90.4071V46.0405C63.5574 45.2865 63.5574 44.6754 63.5574 44.6754H64.24Z" fill="url(#paint0_linear_1787_7923)" fill-opacity="0.3" mask="url(#path-2-inside-1_1787_7923)"/>
<mask id="path-4-inside-2_1787_7923" fill="white">
<path d="M185.396 46.0405C185.396 45.2865 186.007 44.6754 186.761 44.6754H238.636C239.389 44.6754 240.001 45.2865 240.001 46.0405V91.0897C240.001 91.8437 239.389 92.4548 238.636 92.4548H186.761C186.007 92.4548 185.396 91.8437 185.396 91.0897V46.0405Z"/>
</mask>
<path d="M185.396 46.0405C185.396 45.2865 186.007 44.6754 186.761 44.6754H238.636C239.389 44.6754 240.001 45.2865 240.001 46.0405V91.0897C240.001 91.8437 239.389 92.4548 238.636 92.4548H186.761C186.007 92.4548 185.396 91.8437 185.396 91.0897V46.0405Z" fill="white"/>
<path d="M185.396 44.6754H240.001H185.396ZM242.048 91.0897C242.048 92.9746 240.52 94.5025 238.636 94.5025H186.761C184.876 94.5025 183.348 92.9746 183.348 91.0897L187.443 90.4071H237.953L242.048 91.0897ZM186.761 94.5025C184.876 94.5025 183.348 92.9746 183.348 91.0897V48.0882C183.348 46.2033 184.876 44.6754 186.761 44.6754H187.443C187.443 44.6754 187.443 45.2865 187.443 46.0405V90.4071L186.761 94.5025ZM238.636 44.6754C240.52 44.6754 242.048 46.2033 242.048 48.0882V91.0897C242.048 92.9746 240.52 94.5025 238.636 94.5025L237.953 90.4071V46.0405C237.953 45.2865 237.953 44.6754 237.953 44.6754H238.636Z" fill="url(#paint1_linear_1787_7923)" fill-opacity="0.3" mask="url(#path-4-inside-2_1787_7923)"/>
<rect x="16.1191" y="79.1456" width="44.3667" height="8.19077" rx="1.36513" fill="#1D267D"/>
<path d="M31.0777 84.741V81.2531H31.5459V84.741H31.0777ZM33.4975 84.7696C33.3064 84.7696 33.1407 84.7426 33.0006 84.6884C32.8636 84.6343 32.7569 84.5419 32.6805 84.4113C32.6072 84.2775 32.5706 84.0975 32.5706 83.8714V81.4155H33.0101V83.9287C33.0101 84.0657 33.0468 84.1724 33.12 84.2488C33.1965 84.3221 33.3032 84.3587 33.4401 84.3587H33.8893V84.7696H33.4975ZM32.131 82.5336V82.1895H33.8893V82.5336H32.131ZM35.604 84.827C35.381 84.827 35.1883 84.7887 35.0258 84.7123C34.8634 84.6359 34.7312 84.5355 34.6293 84.4113C34.5273 84.2839 34.4509 84.1421 34.3999 83.9861C34.3521 83.83 34.3282 83.6707 34.3282 83.5083V83.4223C34.3282 83.2566 34.3521 83.0958 34.3999 82.9397C34.4509 82.7836 34.5273 82.6434 34.6293 82.5192C34.7312 82.3918 34.8602 82.2915 35.0163 82.2182C35.1755 82.1418 35.3619 82.1035 35.5753 82.1035C35.8524 82.1035 36.0802 82.1641 36.2585 82.2851C36.4401 82.403 36.5739 82.5559 36.6599 82.7438C36.7491 82.9317 36.7937 83.1324 36.7937 83.3458V83.5513H34.5289V83.2072H36.4592L36.3541 83.3936C36.3541 83.212 36.3254 83.0559 36.2681 82.9253C36.2108 82.7916 36.1248 82.688 36.0101 82.6148C35.8954 82.5415 35.7505 82.5049 35.5753 82.5049C35.3937 82.5049 35.2424 82.5463 35.1214 82.6291C35.0035 82.7119 34.9143 82.825 34.8538 82.9683C34.7965 83.1117 34.7678 83.2773 34.7678 83.4653C34.7678 83.6468 34.7965 83.8109 34.8538 83.9574C34.9143 84.1007 35.0067 84.2154 35.1309 84.3014C35.2552 84.3842 35.4128 84.4256 35.604 84.4256C35.8046 84.4256 35.9671 84.381 36.0913 84.2918C36.2187 84.2027 36.2952 84.0991 36.3206 83.9813H36.7507C36.7156 84.1565 36.6456 84.3078 36.5404 84.4352C36.4353 84.5626 36.3031 84.6597 36.1439 84.7266C35.9846 84.7935 35.8046 84.827 35.604 84.827ZM37.4449 84.741V82.1895H37.808V83.2837H37.7507C37.7507 83.0352 37.7826 82.825 37.8463 82.653C37.9132 82.4778 38.0119 82.344 38.1425 82.2517C38.2731 82.1593 38.4387 82.1131 38.6394 82.1131H38.6585C38.8592 82.1131 39.0248 82.1593 39.1554 82.2517C39.2892 82.344 39.388 82.4778 39.4517 82.653C39.5154 82.825 39.5472 83.0352 39.5472 83.2837H39.4134C39.4134 83.0352 39.4469 82.825 39.5138 82.653C39.5807 82.4778 39.6794 82.344 39.81 82.2517C39.9438 82.1593 40.111 82.1131 40.3117 82.1131H40.3308C40.5315 82.1131 40.6987 82.1593 40.8325 82.2517C40.9663 82.344 41.065 82.4778 41.1287 82.653C41.1956 82.825 41.2291 83.0352 41.2291 83.2837V84.741H40.7704V83.1834C40.7704 82.9763 40.7194 82.817 40.6175 82.7056C40.5156 82.5909 40.3738 82.5336 40.1922 82.5336C40.0043 82.5336 39.853 82.5941 39.7383 82.7151C39.6237 82.833 39.5663 82.9986 39.5663 83.212V84.741H39.1076V83.1834C39.1076 82.9763 39.0567 82.817 38.9548 82.7056C38.8528 82.5909 38.7111 82.5336 38.5295 82.5336C38.3416 82.5336 38.1903 82.5941 38.0756 82.7151C37.9609 82.833 37.9036 82.9986 37.9036 83.212V84.741H37.4449ZM41.9447 83.6086V83.2168H43.7221V83.6086H41.9447ZM45.0117 84.741V81.4824L45.2219 81.6449H44.2376V81.2531H45.4703V84.741H45.0117Z" fill="white"/>
<rect x="190.515" y="79.1456" width="44.3667" height="8.19077" rx="1.36513" fill="#1D267D"/>
<path d="M199.01 81.1575C199.265 81.1575 199.477 81.2021 199.646 81.2913C199.818 81.3805 199.953 81.5031 200.052 81.6592C200.154 81.8121 200.226 81.9889 200.267 82.1895C200.312 82.3902 200.334 82.6004 200.334 82.8202V83.0496C200.334 83.6006 200.197 84.0259 199.923 84.3253C199.649 84.6215 199.252 84.7696 198.733 84.7696C198.609 84.7696 198.504 84.7664 198.418 84.7601C198.332 84.7537 198.238 84.7442 198.136 84.7314V84.3396C198.241 84.3524 198.338 84.3619 198.427 84.3683C198.517 84.3747 198.625 84.3778 198.752 84.3778C199.042 84.3778 199.272 84.3237 199.44 84.2154C199.609 84.1071 199.73 83.9526 199.803 83.7519C199.877 83.5481 199.913 83.3028 199.913 83.0161V82.8011L200.028 82.3759C200.025 82.6275 199.975 82.8362 199.88 83.0018C199.788 83.1674 199.659 83.2917 199.493 83.3745C199.33 83.4573 199.143 83.4987 198.929 83.4987C198.681 83.4987 198.47 83.4493 198.298 83.3506C198.126 83.2487 197.996 83.1101 197.907 82.9349C197.821 82.7597 197.778 82.5606 197.778 82.3377C197.778 82.1115 197.824 81.9092 197.916 81.7309C198.009 81.5525 198.146 81.4123 198.327 81.3104C198.512 81.2085 198.74 81.1575 199.01 81.1575ZM199.01 81.5589C198.835 81.5589 198.689 81.5923 198.571 81.6592C198.453 81.7261 198.364 81.8185 198.303 81.9363C198.246 82.051 198.217 82.1848 198.217 82.3377C198.217 82.4906 198.246 82.6259 198.303 82.7438C198.361 82.8616 198.445 82.954 198.556 83.0209C198.671 83.0846 198.811 83.1165 198.977 83.1165C199.139 83.1165 199.284 83.0862 199.412 83.0257C199.542 82.9652 199.644 82.8776 199.717 82.7629C199.791 82.645 199.827 82.5017 199.827 82.3329C199.827 82.1927 199.799 82.0637 199.741 81.9459C199.684 81.828 199.595 81.734 199.474 81.664C199.353 81.5939 199.198 81.5589 199.01 81.5589ZM200.908 83.9144V83.3506L202.356 81.1671L202.676 81.4203L201.324 83.4653L201.367 83.5513H203.622V83.9144H200.908ZM202.728 84.741V82.2708H203.158V84.741H202.728ZM203.821 84.741L205.12 82.8776V82.9636L203.935 81.2531H204.466L205.378 82.5909H205.455L206.382 81.2531H206.888L205.67 82.9827L205.665 82.8967L206.984 84.741H206.453L205.412 83.2741H205.335L204.327 84.741H203.821ZM207.196 84.741L208.452 81.2531H209.245L210.54 84.741H210.058L208.887 81.5589L209.116 81.6735H208.552L208.796 81.5589L207.664 84.741H207.196ZM207.946 83.6994L208.103 83.2789H209.608L209.766 83.6994H207.946ZM211.022 84.741V84.1581H211.576V84.741H211.022ZM212.272 84.741V84.1581H212.827V84.741H212.272ZM213.523 84.741V84.1581H214.077V84.741H213.523ZM215.304 84.7601V84.3492H216.278C216.466 84.3492 216.611 84.2966 216.713 84.1915C216.818 84.0832 216.871 83.9399 216.871 83.7615C216.871 83.5799 216.82 83.4382 216.718 83.3362C216.616 83.2311 216.47 83.1786 216.278 83.1786H215.304V82.8728H216.212C216.435 82.8728 216.63 82.8999 216.799 82.954C216.971 83.0082 217.105 83.0989 217.201 83.2264C217.299 83.3506 217.349 83.521 217.349 83.7376V83.8045C217.349 84.0083 217.307 84.1819 217.225 84.3253C217.142 84.4654 217.016 84.5737 216.847 84.6502C216.678 84.7234 216.466 84.7601 216.212 84.7601H215.304ZM214.931 84.7601V81.234H215.399V84.7601H214.931ZM215.304 83.0926V82.7868H216.149C216.347 82.7868 216.492 82.7342 216.584 82.6291C216.68 82.5208 216.728 82.3838 216.728 82.2182C216.728 82.0494 216.68 81.9124 216.584 81.8073C216.492 81.699 216.347 81.6449 216.149 81.6449H215.304V81.234H216.068C216.45 81.234 216.736 81.3152 216.924 81.4776C217.111 81.6369 217.205 81.8678 217.205 82.1704V82.2373C217.205 82.4507 217.158 82.6212 217.062 82.7486C216.967 82.8728 216.833 82.962 216.661 83.0161C216.492 83.0671 216.294 83.0926 216.068 83.0926H215.304ZM218.179 84.741V81.2531H218.647V84.741H218.179ZM218.551 84.741V84.3205H220.243V84.741H218.551ZM218.551 83.1786V82.7581H220.095V83.1786H218.551ZM218.551 81.6735V81.2531H220.195V81.6735H218.551ZM221.966 84.827C221.704 84.827 221.483 84.776 221.302 84.6741C221.12 84.5721 220.981 84.4368 220.886 84.2679C220.793 84.0991 220.747 83.916 220.747 83.7185H221.196C221.196 83.9351 221.265 84.1071 221.402 84.2345C221.542 84.3619 221.73 84.4256 221.966 84.4256C222.122 84.4256 222.257 84.397 222.372 84.3396C222.486 84.2823 222.576 84.2011 222.639 84.0959C222.703 83.9876 222.735 83.8618 222.735 83.7185C222.735 83.5019 222.665 83.3267 222.525 83.1929C222.388 83.0591 222.203 82.9922 221.97 82.9922C221.872 82.9922 221.786 83.005 221.712 83.0305C221.642 83.0528 221.58 83.0814 221.526 83.1165L221.297 82.7056L222.63 81.7309L222.582 81.6449H220.886V81.2531H223.012V81.8885L221.908 82.6912L221.574 82.7056C221.628 82.6864 221.687 82.6705 221.751 82.6578C221.818 82.645 221.896 82.6387 221.985 82.6387C222.24 82.6387 222.456 82.6864 222.635 82.782C222.813 82.8776 222.948 83.005 223.041 83.1642C223.136 83.3235 223.184 83.4971 223.184 83.685V83.7519C223.184 83.9367 223.136 84.1119 223.041 84.2775C222.948 84.44 222.811 84.5721 222.63 84.6741C222.451 84.776 222.23 84.827 221.966 84.827ZM223.978 84.741V81.2531H224.6L225.632 83.5799H225.708L226.735 81.2531H227.361V84.741H226.893V81.7643L226.926 81.7739L225.937 84.0195H225.364L224.37 81.7739L224.408 81.7643V84.741H223.978Z" fill="white"/>
<rect x="72.4302" y="65.034" width="44.3667" height="8.19077" rx="1.36513" fill="#1D267D"/>
<path d="M87.3887 70.6294V67.1415H87.8569V70.6294H87.3887ZM89.8085 70.658C89.6174 70.658 89.4518 70.631 89.3116 70.5768C89.1746 70.5227 89.0679 70.4303 88.9915 70.2997C88.9182 70.1659 88.8816 69.9859 88.8816 69.7598V67.3039H89.3212V69.8171C89.3212 69.9541 89.3578 70.0608 89.4311 70.1372C89.5075 70.2105 89.6142 70.2471 89.7512 70.2471H90.2003V70.658H89.8085ZM88.442 68.422V68.0779H90.2003V68.422H88.442ZM91.915 70.7154C91.692 70.7154 91.4993 70.6771 91.3369 70.6007C91.1744 70.5242 91.0422 70.4239 90.9403 70.2997C90.8384 70.1723 90.7619 70.0305 90.7109 69.8744C90.6632 69.7184 90.6393 69.5591 90.6393 69.3967V69.3107C90.6393 69.145 90.6632 68.9842 90.7109 68.8281C90.7619 68.672 90.8384 68.5318 90.9403 68.4076C91.0422 68.2802 91.1712 68.1799 91.3273 68.1066C91.4866 68.0302 91.6729 67.9919 91.8863 67.9919C92.1634 67.9919 92.3912 68.0525 92.5696 68.1735C92.7511 68.2914 92.8849 68.4442 92.9709 68.6322C93.0601 68.8201 93.1047 69.0208 93.1047 69.2342V69.4397H90.84V69.0956H92.7702L92.6651 69.282C92.6651 69.1004 92.6365 68.9443 92.5791 68.8137C92.5218 68.68 92.4358 68.5764 92.3211 68.5032C92.2064 68.4299 92.0615 68.3933 91.8863 68.3933C91.7048 68.3933 91.5535 68.4347 91.4324 68.5175C91.3146 68.6003 91.2254 68.7134 91.1649 68.8567C91.1075 69.0001 91.0789 69.1657 91.0789 69.3537C91.0789 69.5352 91.1075 69.6993 91.1649 69.8458C91.2254 69.9891 91.3177 70.1038 91.442 70.1898C91.5662 70.2726 91.7239 70.314 91.915 70.314C92.1157 70.314 92.2781 70.2694 92.4023 70.1802C92.5298 70.091 92.6062 69.9875 92.6317 69.8697H93.0617C93.0267 70.0449 92.9566 70.1962 92.8515 70.3236C92.7464 70.451 92.6142 70.5481 92.4549 70.615C92.2956 70.6819 92.1157 70.7154 91.915 70.7154ZM93.756 70.6294V68.0779H94.1191V69.1721H94.0617C94.0617 68.9236 94.0936 68.7134 94.1573 68.5414C94.2242 68.3662 94.3229 68.2324 94.4535 68.1401C94.5841 68.0477 94.7498 68.0015 94.9504 68.0015H94.9696C95.1702 68.0015 95.3359 68.0477 95.4665 68.1401C95.6002 68.2324 95.699 68.3662 95.7627 68.5414C95.8264 68.7134 95.8583 68.9236 95.8583 69.1721H95.7245C95.7245 68.9236 95.7579 68.7134 95.8248 68.5414C95.8917 68.3662 95.9904 68.2324 96.121 68.1401C96.2548 68.0477 96.4221 68.0015 96.6227 68.0015H96.6418C96.8425 68.0015 97.0097 68.0477 97.1435 68.1401C97.2773 68.2324 97.3761 68.3662 97.4398 68.5414C97.5066 68.7134 97.5401 68.9236 97.5401 69.1721V70.6294H97.0814V69.0718C97.0814 68.8647 97.0304 68.7054 96.9285 68.594C96.8266 68.4793 96.6848 68.422 96.5033 68.422C96.3153 68.422 96.164 68.4825 96.0494 68.6035C95.9347 68.7214 95.8774 68.887 95.8774 69.1004V70.6294H95.4187V69.0718C95.4187 68.8647 95.3677 68.7054 95.2658 68.594C95.1639 68.4793 95.0221 68.422 94.8406 68.422C94.6526 68.422 94.5013 68.4825 94.3866 68.6035C94.272 68.7214 94.2146 68.887 94.2146 69.1004V70.6294H93.756ZM98.2557 69.497V69.1052H100.033V69.497H98.2557ZM101.323 70.6294V67.3708L101.533 67.5333H100.549V67.1415H101.781V70.6294H101.323Z" fill="white"/>
<rect x="72.4302" y="74.5899" width="44.3667" height="8.19077" rx="1.36513" fill="#0C134F"/>
<path d="M78.6261 80.2713C78.4031 80.2713 78.2073 80.2331 78.0384 80.1566C77.8696 80.0802 77.7263 79.9798 77.6084 79.8556C77.4937 79.7282 77.4061 79.5864 77.3456 79.4304C77.2883 79.2743 77.2596 79.115 77.2596 78.9526V78.8666C77.2596 78.7041 77.2899 78.5448 77.3504 78.3888C77.4109 78.2295 77.5001 78.0878 77.618 77.9635C77.7358 77.8361 77.8792 77.7358 78.048 77.6625C78.2168 77.5861 78.4095 77.5478 78.6261 77.5478C78.8427 77.5478 79.0354 77.5861 79.2042 77.6625C79.3731 77.7358 79.5164 77.8361 79.6343 77.9635C79.7521 78.0878 79.8413 78.2295 79.9018 78.3888C79.9624 78.5448 79.9926 78.7041 79.9926 78.8666V78.9526C79.9926 79.115 79.9624 79.2743 79.9018 79.4304C79.8445 79.5864 79.7569 79.7282 79.639 79.8556C79.5244 79.9798 79.3826 80.0802 79.2138 80.1566C79.045 80.2331 78.8491 80.2713 78.6261 80.2713ZM78.6261 79.8604C78.8172 79.8604 78.9797 79.819 79.1135 79.7361C79.2504 79.6501 79.354 79.5355 79.424 79.3921C79.4973 79.2488 79.5339 79.0879 79.5339 78.9096C79.5339 78.728 79.4973 78.5655 79.424 78.4222C79.3508 78.2789 79.2457 78.1658 79.1087 78.083C78.9749 78.0002 78.8141 77.9587 78.6261 77.9587C78.4414 77.9587 78.2805 78.0002 78.1435 78.083C78.0066 78.1658 77.9015 78.2789 77.8282 78.4222C77.7549 78.5655 77.7183 78.728 77.7183 78.9096C77.7183 79.0879 77.7533 79.2488 77.8234 79.3921C77.8967 79.5355 78.0002 79.6501 78.134 79.7361C78.271 79.819 78.435 79.8604 78.6261 79.8604ZM80.6796 81.1409V77.6338H81.0427V78.7376L80.9567 78.728C80.9726 78.4541 81.03 78.2311 81.1287 78.0591C81.2306 77.8839 81.3628 77.7549 81.5253 77.6721C81.6877 77.5893 81.8645 77.5478 82.0556 77.5478C82.2404 77.5478 82.4076 77.5829 82.5573 77.653C82.7102 77.723 82.8408 77.8186 82.9491 77.9396C83.0574 78.0607 83.1402 78.2008 83.1976 78.3601C83.2549 78.5194 83.2836 78.6882 83.2836 78.8666V78.9526C83.2836 79.1309 83.2533 79.2998 83.1928 79.459C83.1323 79.6183 83.0463 79.7584 82.9348 79.8795C82.8265 80.0005 82.6959 80.0961 82.543 80.1662C82.3933 80.2362 82.2276 80.2713 82.0461 80.2713C81.8645 80.2713 81.6909 80.2315 81.5253 80.1518C81.3597 80.0722 81.2227 79.9432 81.1144 79.7648C81.0061 79.5864 80.944 79.3523 80.928 79.0625L81.1383 79.4447V81.1409H80.6796ZM81.9744 79.8699C82.1464 79.8699 82.2961 79.8301 82.4235 79.7505C82.551 79.6677 82.6497 79.5546 82.7198 79.4112C82.7899 79.2647 82.8249 79.0975 82.8249 78.9096C82.8249 78.7184 82.7899 78.5512 82.7198 78.4079C82.6497 78.2645 82.551 78.1531 82.4235 78.0734C82.2961 77.9906 82.1464 77.9492 81.9744 77.9492C81.8215 77.9492 81.6798 77.9842 81.5492 78.0543C81.4186 78.1212 81.3135 78.2199 81.2338 78.3505C81.1574 78.478 81.1192 78.6324 81.1192 78.814V79.0338C81.1192 79.209 81.159 79.3587 81.2386 79.4829C81.3182 79.6071 81.4234 79.7027 81.554 79.7696C81.6846 79.8365 81.8247 79.8699 81.9744 79.8699ZM83.8495 79.0529V78.6611H85.6269V79.0529H83.8495ZM86.3814 80.1853V77.6338H86.7445V78.685H86.7254C86.7254 78.3123 86.8066 78.04 86.9691 77.868C87.1347 77.6928 87.3816 77.6052 87.7097 77.6052H87.7957V78.0161H87.6332C87.3784 78.0161 87.1825 78.0846 87.0455 78.2215C86.9086 78.3553 86.8401 78.5496 86.8401 78.8044V80.1853H86.3814ZM88.4653 80.1853V77.6338H88.924V80.1853H88.4653ZM88.0735 77.997V77.6338H88.924V77.997H88.0735ZM88.5943 77.2229C88.4924 77.2229 88.416 77.1959 88.365 77.1417C88.3172 77.0876 88.2933 77.0191 88.2933 76.9363C88.2933 76.8534 88.3172 76.785 88.365 76.7308C88.416 76.6767 88.4924 76.6496 88.5943 76.6496C88.6963 76.6496 88.7711 76.6767 88.8189 76.7308C88.8699 76.785 88.8953 76.8534 88.8953 76.9363C88.8953 77.0191 88.8699 77.0876 88.8189 77.1417C88.7711 77.1959 88.6963 77.2229 88.5943 77.2229ZM89.8109 81.1409V77.6338H90.174V78.7376L90.088 78.728C90.1039 78.4541 90.1613 78.2311 90.26 78.0591C90.3619 77.8839 90.4941 77.7549 90.6566 77.6721C90.819 77.5893 90.9958 77.5478 91.1869 77.5478C91.3717 77.5478 91.5389 77.5829 91.6886 77.653C91.8415 77.723 91.9721 77.8186 92.0804 77.9396C92.1887 78.0607 92.2715 78.2008 92.3289 78.3601C92.3862 78.5194 92.4149 78.6882 92.4149 78.8666V78.9526C92.4149 79.1309 92.3846 79.2998 92.3241 79.459C92.2636 79.6183 92.1776 79.7584 92.0661 79.8795C91.9578 80.0005 91.8272 80.0961 91.6743 80.1662C91.5246 80.2362 91.3589 80.2713 91.1774 80.2713C90.9958 80.2713 90.8222 80.2315 90.6566 80.1518C90.4909 80.0722 90.354 79.9432 90.2457 79.7648C90.1374 79.5864 90.0753 79.3523 90.0593 79.0625L90.2696 79.4447V81.1409H89.8109ZM91.1057 79.8699C91.2777 79.8699 91.4274 79.8301 91.5548 79.7505C91.6822 79.6677 91.781 79.5546 91.8511 79.4112C91.9211 79.2647 91.9562 79.0975 91.9562 78.9096C91.9562 78.7184 91.9211 78.5512 91.8511 78.4079C91.781 78.2645 91.6822 78.1531 91.5548 78.0734C91.4274 77.9906 91.2777 77.9492 91.1057 77.9492C90.9528 77.9492 90.8111 77.9842 90.6805 78.0543C90.5499 78.1212 90.4448 78.2199 90.3651 78.3505C90.2887 78.478 90.2505 78.6324 90.2505 78.814V79.0338C90.2505 79.209 90.2903 79.3587 90.3699 79.4829C90.4495 79.6071 90.5547 79.7027 90.6852 79.7696C90.8158 79.8365 90.956 79.8699 91.1057 79.8699ZM94.1897 80.2713C93.9667 80.2713 93.774 80.2331 93.6115 80.1566C93.4491 80.0802 93.3169 79.9798 93.2149 79.8556C93.113 79.7282 93.0366 79.5864 92.9856 79.4304C92.9378 79.2743 92.9139 79.115 92.9139 78.9526V78.8666C92.9139 78.7009 92.9378 78.5401 92.9856 78.384C93.0366 78.2279 93.113 78.0878 93.2149 77.9635C93.3169 77.8361 93.4459 77.7358 93.602 77.6625C93.7612 77.5861 93.9476 77.5478 94.161 77.5478C94.4381 77.5478 94.6659 77.6084 94.8442 77.7294C95.0258 77.8473 95.1596 78.0002 95.2456 78.1881C95.3348 78.376 95.3794 78.5767 95.3794 78.7901V78.9956H93.1146V78.6516H95.0449L94.9398 78.8379C94.9398 78.6563 94.9111 78.5002 94.8538 78.3697C94.7965 78.2359 94.7104 78.1323 94.5958 78.0591C94.4811 77.9858 94.3362 77.9492 94.161 77.9492C93.9794 77.9492 93.8281 77.9906 93.7071 78.0734C93.5892 78.1562 93.5 78.2693 93.4395 78.4127C93.3822 78.556 93.3535 78.7216 93.3535 78.9096C93.3535 79.0911 93.3822 79.2552 93.4395 79.4017C93.5 79.545 93.5924 79.6597 93.7166 79.7457C93.8409 79.8285 93.9985 79.8699 94.1897 79.8699C94.3903 79.8699 94.5528 79.8253 94.677 79.7361C94.8044 79.647 94.8809 79.5434 94.9063 79.4256H95.3364C95.3013 79.6008 95.2312 79.7521 95.1261 79.8795C95.021 80.0069 94.8888 80.104 94.7296 80.1709C94.5703 80.2378 94.3903 80.2713 94.1897 80.2713ZM96.0306 80.1853V77.6338H96.3937V78.728H96.3364C96.3364 78.4795 96.3683 78.2693 96.432 78.0973C96.4989 77.9221 96.5976 77.7883 96.7282 77.696C96.8588 77.6036 97.0244 77.5574 97.2251 77.5574H97.2442C97.4449 77.5574 97.6105 77.6036 97.7411 77.696C97.8749 77.7883 97.9736 77.9221 98.0374 78.0973C98.1011 78.2693 98.1329 78.4795 98.1329 78.728H97.9991C97.9991 78.4795 98.0326 78.2693 98.0995 78.0973C98.1664 77.9221 98.2651 77.7883 98.3957 77.696C98.5295 77.6036 98.6967 77.5574 98.8974 77.5574H98.9165C99.1172 77.5574 99.2844 77.6036 99.4182 77.696C99.552 77.7883 99.6507 77.9221 99.7144 78.0973C99.7813 78.2693 99.8148 78.4795 99.8148 78.728V80.1853H99.3561V78.6277C99.3561 78.4206 99.3051 78.2614 99.2032 78.1499C99.1012 78.0352 98.9595 77.9779 98.7779 77.9779C98.59 77.9779 98.4387 78.0384 98.324 78.1594C98.2094 78.2773 98.152 78.4429 98.152 78.6563V80.1853H97.6933V78.6277C97.6933 78.4206 97.6424 78.2614 97.5404 78.1499C97.4385 78.0352 97.2968 77.9779 97.1152 77.9779C96.9273 77.9779 96.776 78.0384 96.6613 78.1594C96.5466 78.2773 96.4893 78.4429 96.4893 78.6563V80.1853H96.0306ZM101.72 80.2713C101.539 80.2713 101.371 80.2378 101.218 80.1709C101.065 80.104 100.932 80.0101 100.817 79.889C100.706 79.768 100.618 79.6278 100.554 79.4686C100.494 79.3093 100.463 79.1373 100.463 78.9526V78.8666C100.463 78.685 100.494 78.5146 100.554 78.3553C100.615 78.1961 100.699 78.0559 100.807 77.9349C100.919 77.8138 101.05 77.7199 101.199 77.653C101.352 77.5829 101.521 77.5478 101.706 77.5478C101.9 77.5478 102.077 77.5893 102.236 77.6721C102.395 77.7517 102.526 77.8775 102.628 78.0495C102.73 78.2215 102.787 78.4445 102.8 78.7184L102.609 78.4127V76.6974H103.067V80.1853H102.704V79.0529H102.838C102.825 79.3428 102.765 79.5785 102.657 79.76C102.548 79.9384 102.411 80.069 102.246 80.1518C102.083 80.2315 101.908 80.2713 101.72 80.2713ZM101.782 79.8699C101.938 79.8699 102.08 79.8349 102.207 79.7648C102.335 79.6947 102.437 79.5944 102.513 79.4638C102.59 79.33 102.628 79.1739 102.628 78.9956V78.7758C102.628 78.6006 102.588 78.4525 102.508 78.3314C102.432 78.2072 102.328 78.1132 102.198 78.0495C102.07 77.9826 101.93 77.9492 101.777 77.9492C101.609 77.9492 101.459 77.989 101.328 78.0686C101.201 78.1483 101.101 78.2598 101.027 78.4031C100.957 78.5464 100.922 78.7153 100.922 78.9096C100.922 79.1039 100.959 79.2743 101.032 79.4208C101.105 79.5641 101.207 79.6756 101.338 79.7553C101.468 79.8317 101.617 79.8699 101.782 79.8699ZM104.484 80.1853V76.9267L104.694 77.0892H103.71V76.6974H104.943V80.1853H104.484ZM107.183 80.2808C106.928 80.2808 106.715 80.2362 106.543 80.147C106.374 80.0579 106.239 79.9368 106.137 79.7839C106.038 79.6278 105.966 79.4495 105.922 79.2488C105.88 79.0481 105.86 78.8379 105.86 78.6181V78.3888C105.86 77.8377 105.997 77.4141 106.27 77.1178C106.544 76.8184 106.941 76.6687 107.46 76.6687C107.584 76.6687 107.69 76.6719 107.776 76.6783C107.862 76.6846 107.955 76.6942 108.057 76.7069V77.0987C107.952 77.086 107.855 77.0764 107.766 77.07C107.677 77.0637 107.568 77.0605 107.441 77.0605C107.151 77.0605 106.922 77.1146 106.753 77.2229C106.584 77.3312 106.463 77.4873 106.39 77.6912C106.317 77.8919 106.28 78.1355 106.28 78.4222V78.6372L106.165 79.0625C106.169 78.8108 106.216 78.6022 106.309 78.4365C106.404 78.2709 106.533 78.1467 106.696 78.0639C106.861 77.981 107.051 77.9396 107.264 77.9396C107.513 77.9396 107.723 77.9906 107.895 78.0925C108.067 78.1913 108.196 78.3282 108.282 78.5034C108.371 78.6786 108.416 78.8777 108.416 79.1007C108.416 79.3268 108.37 79.5291 108.277 79.7075C108.185 79.8859 108.046 80.026 107.862 80.1279C107.68 80.2299 107.454 80.2808 107.183 80.2808ZM107.183 79.8795C107.358 79.8795 107.505 79.846 107.623 79.7791C107.74 79.7123 107.828 79.6215 107.885 79.5068C107.946 79.3889 107.976 79.2536 107.976 79.1007C107.976 78.9478 107.948 78.8124 107.89 78.6946C107.833 78.5767 107.747 78.4859 107.632 78.4222C107.521 78.3553 107.382 78.3219 107.217 78.3219C107.054 78.3219 106.908 78.3521 106.777 78.4127C106.65 78.4732 106.549 78.5624 106.476 78.6802C106.403 78.7949 106.366 78.9366 106.366 79.1055C106.366 79.2456 106.395 79.3746 106.452 79.4925C106.509 79.6103 106.599 79.7043 106.72 79.7744C106.841 79.8444 106.995 79.8795 107.183 79.8795ZM110.442 80.2713C110.181 80.2713 109.958 80.2267 109.774 80.1375C109.592 80.0451 109.444 79.9209 109.329 79.7648C109.218 79.6087 109.137 79.4288 109.086 79.2249C109.035 79.0179 109.009 78.7997 109.009 78.5703V78.3123C109.009 77.9906 109.058 77.7007 109.157 77.4427C109.259 77.1847 109.415 76.9809 109.625 76.8312C109.839 76.6783 110.111 76.6018 110.442 76.6018C110.774 76.6018 111.044 76.6783 111.255 76.8312C111.465 76.9809 111.619 77.1847 111.718 77.4427C111.82 77.7007 111.871 77.9906 111.871 78.3123V78.5703C111.871 78.7997 111.846 79.0179 111.795 79.2249C111.744 79.4288 111.661 79.6087 111.546 79.7648C111.435 79.9209 111.288 80.0451 111.107 80.1375C110.925 80.2267 110.704 80.2713 110.442 80.2713ZM110.442 79.8508C110.774 79.8508 111.016 79.7393 111.169 79.5164C111.325 79.2902 111.403 78.9334 111.403 78.4461C111.403 77.9365 111.323 77.5717 111.164 77.3519C111.008 77.1322 110.767 77.0223 110.442 77.0223C110.114 77.0223 109.871 77.1322 109.711 77.3519C109.555 77.5717 109.477 77.9333 109.477 78.4365C109.477 78.9271 109.555 79.2854 109.711 79.5116C109.868 79.7377 110.111 79.8508 110.442 79.8508Z" fill="white"/>
<path d="M124.217 72.6144V72.1475H127.03V72.6144H124.217ZM124.217 73.7079V73.241H127.03V73.7079H124.217Z" fill="#0C134F"/>
<rect x="134.373" y="69.7604" width="44.0254" height="7.84949" rx="1.19449" fill="#1D267D"/>
<path d="M142.698 71.6017C142.953 71.6017 143.165 71.6463 143.334 71.7355C143.506 71.8247 143.641 71.9473 143.74 72.1034C143.842 72.2563 143.913 72.4331 143.955 72.6338C143.999 72.8344 144.022 73.0447 144.022 73.2644V73.4938C144.022 74.0448 143.885 74.4701 143.611 74.7695C143.337 75.0657 142.94 75.2138 142.421 75.2138C142.297 75.2138 142.192 75.2107 142.106 75.2043C142.02 75.1979 141.926 75.1884 141.824 75.1756V74.7838C141.929 74.7966 142.026 74.8061 142.115 74.8125C142.204 74.8189 142.313 74.8221 142.44 74.8221C142.73 74.8221 142.959 74.7679 143.128 74.6596C143.297 74.5513 143.418 74.3968 143.491 74.1961C143.564 73.9923 143.601 73.747 143.601 73.4603V73.2453L143.716 72.8201C143.713 73.0717 143.663 73.2804 143.568 73.446C143.475 73.6116 143.346 73.7359 143.181 73.8187C143.018 73.9015 142.83 73.9429 142.617 73.9429C142.368 73.9429 142.158 73.8935 141.986 73.7948C141.814 73.6929 141.684 73.5543 141.594 73.3791C141.508 73.2039 141.465 73.0048 141.465 72.7819C141.465 72.5557 141.512 72.3534 141.604 72.1751C141.696 71.9967 141.833 71.8565 142.015 71.7546C142.2 71.6527 142.427 71.6017 142.698 71.6017ZM142.698 72.0031C142.523 72.0031 142.376 72.0365 142.259 72.1034C142.141 72.1703 142.051 72.2627 141.991 72.3805C141.934 72.4952 141.905 72.629 141.905 72.7819C141.905 72.9348 141.934 73.0701 141.991 73.188C142.048 73.3059 142.133 73.3982 142.244 73.4651C142.359 73.5288 142.499 73.5607 142.665 73.5607C142.827 73.5607 142.972 73.5304 143.099 73.4699C143.23 73.4094 143.332 73.3218 143.405 73.2071C143.478 73.0893 143.515 72.9459 143.515 72.7771C143.515 72.6369 143.486 72.5079 143.429 72.3901C143.372 72.2722 143.283 72.1783 143.162 72.1082C143.041 72.0381 142.886 72.0031 142.698 72.0031ZM144.596 74.3586V73.7948L146.044 71.6113L146.364 71.8645L145.011 73.9095L145.054 73.9955H147.31V74.3586H144.596ZM146.416 75.1852V72.715H146.846V75.1852H146.416ZM147.508 75.1852L148.808 73.3218V73.4078L147.623 71.6973H148.153L149.066 73.0351H149.143L150.069 71.6973H150.576L149.358 73.4269L149.353 73.3409L150.671 75.1852H150.141L149.1 73.7184H149.023L148.015 75.1852H147.508ZM150.883 75.1852L152.14 71.6973H152.933L154.228 75.1852H153.745L152.575 72.0031L152.804 72.1177H152.24L152.484 72.0031L151.352 75.1852H150.883ZM151.633 74.1436L151.791 73.7231H153.296L153.454 74.1436H151.633ZM154.71 75.1852V74.6023H155.264V75.1852H154.71ZM155.96 75.1852V74.6023H156.514V75.1852H155.96ZM157.211 75.1852V74.6023H157.765V75.1852H157.211ZM158.992 75.2043V74.7934H159.966C160.154 74.7934 160.299 74.7408 160.401 74.6357C160.506 74.5274 160.559 74.3841 160.559 74.2057C160.559 74.0241 160.508 73.8824 160.406 73.7805C160.304 73.6753 160.157 73.6228 159.966 73.6228H158.992V73.317H159.899C160.122 73.317 160.318 73.3441 160.487 73.3982C160.659 73.4524 160.793 73.5432 160.888 73.6706C160.987 73.7948 161.036 73.9652 161.036 74.1818V74.2487C161.036 74.4526 160.995 74.6262 160.912 74.7695C160.829 74.9097 160.704 75.018 160.535 75.0944C160.366 75.1677 160.154 75.2043 159.899 75.2043H158.992ZM158.619 75.2043V71.6782H159.087V75.2043H158.619ZM158.992 73.5368V73.231H159.837C160.035 73.231 160.18 73.1784 160.272 73.0733C160.368 72.965 160.415 72.8281 160.415 72.6624C160.415 72.4936 160.368 72.3566 160.272 72.2515C160.18 72.1432 160.035 72.0891 159.837 72.0891H158.992V71.6782H159.756C160.138 71.6782 160.423 71.7594 160.611 71.9218C160.799 72.0811 160.893 72.312 160.893 72.6146V72.6815C160.893 72.895 160.845 73.0654 160.75 73.1928C160.654 73.317 160.52 73.4062 160.348 73.4603C160.18 73.5113 159.982 73.5368 159.756 73.5368H158.992ZM161.866 75.1852V71.6973H162.335V75.1852H161.866ZM162.239 75.1852V74.7647H163.93V75.1852H162.239ZM162.239 73.6228V73.2023H163.782V73.6228H162.239ZM162.239 72.1177V71.6973H163.883V72.1177H162.239ZM165.653 75.2712C165.392 75.2712 165.171 75.2202 164.989 75.1183C164.808 75.0164 164.669 74.881 164.574 74.7122C164.481 74.5433 164.435 74.3602 164.435 74.1627H164.884C164.884 74.3793 164.953 74.5513 165.09 74.6787C165.23 74.8061 165.418 74.8698 165.653 74.8698C165.809 74.8698 165.945 74.8412 166.06 74.7838C166.174 74.7265 166.263 74.6453 166.327 74.5402C166.391 74.4319 166.423 74.306 166.423 74.1627C166.423 73.9461 166.353 73.7709 166.212 73.6371C166.075 73.5033 165.891 73.4365 165.658 73.4365C165.559 73.4365 165.473 73.4492 165.4 73.4747C165.33 73.497 165.268 73.5256 165.214 73.5607L164.985 73.1498L166.318 72.1751L166.27 72.0891H164.574V71.6973H166.7V72.3327L165.596 73.1354L165.262 73.1498C165.316 73.1307 165.375 73.1147 165.438 73.102C165.505 73.0893 165.583 73.0829 165.673 73.0829C165.927 73.0829 166.144 73.1307 166.322 73.2262C166.501 73.3218 166.636 73.4492 166.728 73.6085C166.824 73.7677 166.872 73.9413 166.872 74.1293V74.1961C166.872 74.3809 166.824 74.5561 166.728 74.7217C166.636 74.8842 166.499 75.0164 166.318 75.1183C166.139 75.2202 165.918 75.2712 165.653 75.2712ZM167.666 75.1852V71.6973H168.287L169.319 74.0241H169.396L170.423 71.6973H171.049V75.1852H170.581V72.2085L170.614 72.2181L169.625 74.4637H169.052L168.058 72.2181L168.096 72.2085V75.1852H167.666Z" fill="white"/>
<rect x="134.373" y="69.7604" width="44.0254" height="7.84949" rx="1.19449" stroke="#0C134F" stroke-width="0.341282"/>
<path d="M38.302 73.787V35.4606C38.302 32.4448 40.7468 30.0001 43.7625 30.0001H89.153C92.1688 30.0001 94.6135 32.4448 94.6135 35.4606V61.1834" stroke="#252525" stroke-width="0.341282" stroke-linecap="round" stroke-dasharray="1.71 1.71"/>
<path d="M38.3018 75.0061C39.15 75.0061 39.8376 74.3185 39.8376 73.4703C39.8376 72.6221 39.15 71.9345 38.3018 71.9345C37.4537 71.9345 36.7661 72.6221 36.7661 73.4703C36.7661 74.3185 37.4537 75.0061 38.3018 75.0061Z" fill="white" stroke="#252525" stroke-width="1.02385"/>
<path d="M94.2459 62.0235L92.6448 59.4476C92.4821 59.1859 92.5884 58.86 92.8264 58.7296C92.9648 58.6537 93.1312 58.6991 93.2797 58.7526L93.9199 58.9834C94.3687 59.1452 94.86 59.1452 95.3088 58.9834L95.949 58.7526C96.0975 58.6991 96.2639 58.6538 96.4023 58.7296C96.6366 58.8581 96.744 59.1761 96.5902 59.4372L95.0733 62.0131C94.886 62.3313 94.4407 62.3368 94.2459 62.0235Z" fill="#252525"/>
<path d="M157.409 63.7869V35.4605C157.409 32.4448 159.854 30 162.87 30H208.26C211.276 30 213.721 32.4448 213.721 35.4605V59.5887" stroke="#252525" stroke-width="0.341282" stroke-linecap="round" stroke-dasharray="1.71 1.71"/>
<path d="M157.409 66.0049C158.257 66.0049 158.945 65.3173 158.945 64.4691C158.945 63.621 158.257 62.9334 157.409 62.9334C156.561 62.9334 155.873 63.621 155.873 64.4691C155.873 65.3173 156.561 66.0049 157.409 66.0049Z" fill="white" stroke="#252525" stroke-width="1.02385"/>
<path d="M213.353 62.0869L211.752 59.511C211.589 59.2493 211.696 58.9234 211.934 58.793C212.072 58.7171 212.238 58.7625 212.387 58.816L213.027 59.0468C213.476 59.2086 213.967 59.2086 214.416 59.0468L215.056 58.816C215.205 58.7625 215.371 58.7172 215.509 58.7931C215.744 58.9215 215.851 59.2395 215.697 59.5007L214.181 62.0765C213.993 62.3947 213.548 62.4003 213.353 62.0869Z" fill="#252525"/>
<defs>
<linearGradient id="paint0_linear_1787_7923" x1="9.06279" y1="40.5821" x2="41.3579" y2="108.99" gradientUnits="userSpaceOnUse">
<stop stop-color="#662B64"/>
<stop offset="1" stop-color="#456F97"/>
</linearGradient>
<linearGradient id="paint1_linear_1787_7923" x1="183.458" y1="40.5821" x2="215.753" y2="108.99" gradientUnits="userSpaceOnUse">
<stop stop-color="#662B64"/>
<stop offset="1" stop-color="#456F97"/>
</linearGradient>
</defs>
</svg>
