<svg width="229" height="64" viewBox="0 0 229 64" fill="none" xmlns="http://www.w3.org/2000/svg">
<mask id="path-1-inside-1_4585_221" fill="white">
<path d="M0 17.0405C0 16.2865 0.611189 15.6754 1.36513 15.6754H53.24C53.9939 15.6754 54.6051 16.2865 54.6051 17.0405V62.0897C54.6051 62.8437 53.9939 63.4548 53.24 63.4548H1.36513C0.611187 63.4548 0 62.8437 0 62.0897V17.0405Z"/>
</mask>
<path d="M0 17.0405C0 16.2865 0.611189 15.6754 1.36513 15.6754H53.24C53.9939 15.6754 54.6051 16.2865 54.6051 17.0405V62.0897C54.6051 62.8437 53.9939 63.4548 53.24 63.4548H1.36513C0.611187 63.4548 0 62.8437 0 62.0897V17.0405Z" fill="white"/>
<path d="M0 15.6754H54.6051H0ZM56.6528 62.0897C56.6528 63.9746 55.1248 65.5025 53.24 65.5025H1.36513C-0.51972 65.5025 -2.04769 63.9746 -2.04769 62.0897L2.04769 61.4071H52.5574L56.6528 62.0897ZM1.36513 65.5025C-0.51972 65.5025 -2.04769 63.9746 -2.04769 62.0897V19.0882C-2.04769 17.2033 -0.51972 15.6754 1.36513 15.6754H2.04769C2.04769 15.6754 2.04769 16.2865 2.04769 17.0405V61.4071L1.36513 65.5025ZM53.24 15.6754C55.1248 15.6754 56.6528 17.2033 56.6528 19.0882V62.0897C56.6528 63.9746 55.1248 65.5025 53.24 65.5025L52.5574 61.4071V17.0405C52.5574 16.2865 52.5574 15.6754 52.5574 15.6754H53.24Z" fill="url(#paint0_linear_4585_221)" fill-opacity="0.3" mask="url(#path-1-inside-1_4585_221)"/>
<rect x="5.11914" y="50.1456" width="44.3667" height="8.19077" rx="1.36513" fill="#1D267D"/>
<path d="M20.0777 55.741V52.2531H20.5459V55.741H20.0777ZM22.4975 55.7696C22.3064 55.7696 22.1407 55.7426 22.0006 55.6884C21.8636 55.6343 21.7569 55.5419 21.6805 55.4113C21.6072 55.2775 21.5706 55.0975 21.5706 54.8714V52.4155H22.0101V54.9287C22.0101 55.0657 22.0468 55.1724 22.12 55.2488C22.1965 55.3221 22.3032 55.3587 22.4401 55.3587H22.8893V55.7696H22.4975ZM21.131 53.5336V53.1895H22.8893V53.5336H21.131ZM24.604 55.827C24.381 55.827 24.1883 55.7887 24.0258 55.7123C23.8634 55.6359 23.7312 55.5355 23.6293 55.4113C23.5273 55.2839 23.4509 55.1421 23.3999 54.9861C23.3521 54.83 23.3282 54.6707 23.3282 54.5083V54.4223C23.3282 54.2566 23.3521 54.0958 23.3999 53.9397C23.4509 53.7836 23.5273 53.6434 23.6293 53.5192C23.7312 53.3918 23.8602 53.2915 24.0163 53.2182C24.1755 53.1418 24.3619 53.1035 24.5753 53.1035C24.8524 53.1035 25.0802 53.1641 25.2585 53.2851C25.4401 53.403 25.5739 53.5559 25.6599 53.7438C25.7491 53.9317 25.7937 54.1324 25.7937 54.3458V54.5513H23.5289V54.2072H25.4592L25.3541 54.3936C25.3541 54.212 25.3254 54.0559 25.2681 53.9253C25.2108 53.7916 25.1248 53.688 25.0101 53.6148C24.8954 53.5415 24.7505 53.5049 24.5753 53.5049C24.3937 53.5049 24.2424 53.5463 24.1214 53.6291C24.0035 53.7119 23.9143 53.825 23.8538 53.9683C23.7965 54.1117 23.7678 54.2773 23.7678 54.4653C23.7678 54.6468 23.7965 54.8109 23.8538 54.9574C23.9143 55.1007 24.0067 55.2154 24.1309 55.3014C24.2552 55.3842 24.4128 55.4256 24.604 55.4256C24.8046 55.4256 24.9671 55.381 25.0913 55.2918C25.2187 55.2027 25.2952 55.0991 25.3206 54.9813H25.7507C25.7156 55.1565 25.6456 55.3078 25.5404 55.4352C25.4353 55.5626 25.3031 55.6597 25.1439 55.7266C24.9846 55.7935 24.8046 55.827 24.604 55.827ZM26.4449 55.741V53.1895H26.808V54.2837H26.7507C26.7507 54.0352 26.7826 53.825 26.8463 53.653C26.9132 53.4778 27.0119 53.344 27.1425 53.2517C27.2731 53.1593 27.4387 53.1131 27.6394 53.1131H27.6585C27.8592 53.1131 28.0248 53.1593 28.1554 53.2517C28.2892 53.344 28.388 53.4778 28.4517 53.653C28.5154 53.825 28.5472 54.0352 28.5472 54.2837H28.4134C28.4134 54.0352 28.4469 53.825 28.5138 53.653C28.5807 53.4778 28.6794 53.344 28.81 53.2517C28.9438 53.1593 29.111 53.1131 29.3117 53.1131H29.3308C29.5315 53.1131 29.6987 53.1593 29.8325 53.2517C29.9663 53.344 30.065 53.4778 30.1287 53.653C30.1956 53.825 30.2291 54.0352 30.2291 54.2837V55.741H29.7704V54.1834C29.7704 53.9763 29.7194 53.817 29.6175 53.7056C29.5156 53.5909 29.3738 53.5336 29.1922 53.5336C29.0043 53.5336 28.853 53.5941 28.7383 53.7151C28.6237 53.833 28.5663 53.9986 28.5663 54.212V55.741H28.1076V54.1834C28.1076 53.9763 28.0567 53.817 27.9548 53.7056C27.8528 53.5909 27.7111 53.5336 27.5295 53.5336C27.3416 53.5336 27.1903 53.5941 27.0756 53.7151C26.9609 53.833 26.9036 53.9986 26.9036 54.212V55.741H26.4449ZM30.9447 54.6086V54.2168H32.7221V54.6086H30.9447ZM34.0117 55.741V52.4824L34.2219 52.6449H33.2376V52.2531H34.4703V55.741H34.0117Z" fill="white"/>
<rect x="61.4302" y="36.0339" width="44.3667" height="8.19077" rx="1.36513" fill="#1D267D"/>
<path d="M76.3887 41.6293V38.1414H76.8569V41.6293H76.3887ZM78.8085 41.658C78.6174 41.658 78.4518 41.6309 78.3116 41.5768C78.1746 41.5226 78.0679 41.4303 77.9915 41.2997C77.9182 41.1659 77.8816 40.9859 77.8816 40.7597V38.3039H78.3212V40.8171C78.3212 40.9541 78.3578 41.0608 78.4311 41.1372C78.5075 41.2105 78.6142 41.2471 78.7512 41.2471H79.2003V41.658H78.8085ZM77.442 39.4219V39.0779H79.2003V39.4219H77.442ZM80.915 41.7153C80.692 41.7153 80.4993 41.6771 80.3369 41.6007C80.1744 41.5242 80.0422 41.4239 79.9403 41.2997C79.8384 41.1722 79.7619 41.0305 79.7109 40.8744C79.6632 40.7183 79.6393 40.5591 79.6393 40.3966V40.3106C79.6393 40.145 79.6632 39.9841 79.7109 39.828C79.7619 39.672 79.8384 39.5318 79.9403 39.4076C80.0422 39.2802 80.1712 39.1798 80.3273 39.1066C80.4866 39.0301 80.6729 38.9919 80.8863 38.9919C81.1634 38.9919 81.3912 39.0524 81.5696 39.1735C81.7511 39.2913 81.8849 39.4442 81.9709 39.6322C82.0601 39.8201 82.1047 40.0208 82.1047 40.2342V40.4396H79.84V40.0956H81.7702L81.6651 40.282C81.6651 40.1004 81.6365 39.9443 81.5791 39.8137C81.5218 39.6799 81.4358 39.5764 81.3211 39.5031C81.2064 39.4299 81.0615 39.3933 80.8863 39.3933C80.7048 39.3933 80.5535 39.4347 80.4324 39.5175C80.3146 39.6003 80.2254 39.7134 80.1649 39.8567C80.1075 40.0001 80.0789 40.1657 80.0789 40.3536C80.0789 40.5352 80.1075 40.6992 80.1649 40.8457C80.2254 40.9891 80.3177 41.1038 80.442 41.1898C80.5662 41.2726 80.7239 41.314 80.915 41.314C81.1157 41.314 81.2781 41.2694 81.4023 41.1802C81.5298 41.091 81.6062 40.9875 81.6317 40.8696H82.0617C82.0267 41.0448 81.9566 41.1961 81.8515 41.3235C81.7464 41.451 81.6142 41.5481 81.4549 41.615C81.2956 41.6819 81.1157 41.7153 80.915 41.7153ZM82.756 41.6293V39.0779H83.1191V40.1721H83.0617C83.0617 39.9236 83.0936 39.7134 83.1573 39.5414C83.2242 39.3662 83.3229 39.2324 83.4535 39.14C83.5841 39.0476 83.7498 39.0015 83.9504 39.0015H83.9696C84.1702 39.0015 84.3359 39.0476 84.4665 39.14C84.6002 39.2324 84.699 39.3662 84.7627 39.5414C84.8264 39.7134 84.8583 39.9236 84.8583 40.1721H84.7245C84.7245 39.9236 84.7579 39.7134 84.8248 39.5414C84.8917 39.3662 84.9904 39.2324 85.121 39.14C85.2548 39.0476 85.4221 39.0015 85.6227 39.0015H85.6418C85.8425 39.0015 86.0097 39.0476 86.1435 39.14C86.2773 39.2324 86.3761 39.3662 86.4398 39.5414C86.5066 39.7134 86.5401 39.9236 86.5401 40.1721V41.6293H86.0814V40.0717C86.0814 39.8647 86.0304 39.7054 85.9285 39.5939C85.8266 39.4793 85.6848 39.4219 85.5033 39.4219C85.3153 39.4219 85.164 39.4824 85.0494 39.6035C84.9347 39.7213 84.8774 39.887 84.8774 40.1004V41.6293H84.4187V40.0717C84.4187 39.8647 84.3677 39.7054 84.2658 39.5939C84.1639 39.4793 84.0221 39.4219 83.8406 39.4219C83.6526 39.4219 83.5013 39.4824 83.3866 39.6035C83.272 39.7213 83.2146 39.887 83.2146 40.1004V41.6293H82.756ZM87.2557 40.497V40.1052H89.0331V40.497H87.2557ZM90.3227 41.6293V38.3708L90.5329 38.5332H89.5487V38.1414H90.7814V41.6293H90.3227Z" fill="white"/>
<rect x="61.4302" y="45.5898" width="44.3667" height="8.19077" rx="1.36513" fill="#0C134F"/>
<path d="M75.5769 51.2712C75.354 51.2712 75.1581 51.233 74.9892 51.1566C74.8204 51.0801 74.6771 50.9798 74.5592 50.8556C74.4445 50.7282 74.357 50.5864 74.2964 50.4303C74.2391 50.2742 74.2104 50.115 74.2104 49.9525V49.8665C74.2104 49.7041 74.2407 49.5448 74.3012 49.3887C74.3617 49.2295 74.4509 49.0877 74.5688 48.9635C74.6866 48.8361 74.83 48.7357 74.9988 48.6625C75.1676 48.586 75.3603 48.5478 75.5769 48.5478C75.7935 48.5478 75.9862 48.586 76.1551 48.6625C76.3239 48.7357 76.4672 48.8361 76.5851 48.9635C76.7029 49.0877 76.7921 49.2295 76.8526 49.3887C76.9132 49.5448 76.9434 49.7041 76.9434 49.8665V49.9525C76.9434 50.115 76.9132 50.2742 76.8526 50.4303C76.7953 50.5864 76.7077 50.7282 76.5898 50.8556C76.4752 50.9798 76.3334 51.0801 76.1646 51.1566C75.9958 51.233 75.7999 51.2712 75.5769 51.2712ZM75.5769 50.8603C75.768 50.8603 75.9305 50.8189 76.0643 50.7361C76.2012 50.6501 76.3048 50.5354 76.3748 50.3921C76.4481 50.2488 76.4847 50.0879 76.4847 49.9095C76.4847 49.728 76.4481 49.5655 76.3748 49.4222C76.3016 49.2788 76.1965 49.1658 76.0595 49.0829C75.9257 49.0001 75.7649 48.9587 75.5769 48.9587C75.3922 48.9587 75.2313 49.0001 75.0943 49.0829C74.9574 49.1658 74.8523 49.2788 74.779 49.4222C74.7057 49.5655 74.6691 49.728 74.6691 49.9095C74.6691 50.0879 74.7042 50.2488 74.7742 50.3921C74.8475 50.5354 74.951 50.6501 75.0848 50.7361C75.2218 50.8189 75.3858 50.8603 75.5769 50.8603ZM77.6304 52.1408V48.6338H77.9935V49.7375L77.9075 49.728C77.9234 49.454 77.9808 49.2311 78.0795 49.0591C78.1815 48.8839 78.3136 48.7549 78.4761 48.672C78.6385 48.5892 78.8153 48.5478 79.0064 48.5478C79.1912 48.5478 79.3584 48.5829 79.5081 48.6529C79.661 48.723 79.7916 48.8186 79.8999 48.9396C80.0082 49.0606 80.091 49.2008 80.1484 49.3601C80.2057 49.5193 80.2344 49.6882 80.2344 49.8665V49.9525C80.2344 50.1309 80.2041 50.2997 80.1436 50.459C80.0831 50.6183 79.9971 50.7584 79.8856 50.8795C79.7773 51.0005 79.6467 51.0961 79.4938 51.1661C79.3441 51.2362 79.1785 51.2712 78.9969 51.2712C78.8153 51.2712 78.6417 51.2314 78.4761 51.1518C78.3105 51.0722 78.1735 50.9432 78.0652 50.7648C77.9569 50.5864 77.8948 50.3523 77.8788 50.0624L78.0891 50.4447V52.1408H77.6304ZM78.9252 50.8699C79.0972 50.8699 79.2469 50.8301 79.3743 50.7504C79.5018 50.6676 79.6005 50.5546 79.6706 50.4112C79.7407 50.2647 79.7757 50.0975 79.7757 49.9095C79.7757 49.7184 79.7407 49.5512 79.6706 49.4078C79.6005 49.2645 79.5018 49.153 79.3743 49.0734C79.2469 48.9906 79.0972 48.9492 78.9252 48.9492C78.7723 48.9492 78.6306 48.9842 78.5 49.0543C78.3694 49.1212 78.2643 49.2199 78.1846 49.3505C78.1082 49.4779 78.07 49.6324 78.07 49.814V50.0338C78.07 50.2089 78.1098 50.3587 78.1894 50.4829C78.269 50.6071 78.3742 50.7027 78.5048 50.7696C78.6354 50.8365 78.7755 50.8699 78.9252 50.8699ZM80.8003 50.0529V49.6611H82.5777V50.0529H80.8003ZM84.1683 51.2617C83.8339 51.2617 83.5743 51.19 83.3895 51.0467C83.208 50.9033 83.114 50.7074 83.1076 50.459H83.5377C83.544 50.5577 83.5934 50.6517 83.6858 50.7409C83.7813 50.8269 83.9422 50.8699 84.1683 50.8699C84.3722 50.8699 84.5283 50.8301 84.6366 50.7504C84.7449 50.6676 84.799 50.5673 84.799 50.4494C84.799 50.3443 84.7592 50.2631 84.6796 50.2058C84.6 50.1452 84.4709 50.1054 84.2926 50.0863L84.0155 50.0576C83.7734 50.0322 83.5759 49.9605 83.423 49.8426C83.2701 49.7216 83.1936 49.5528 83.1936 49.3362C83.1936 49.1737 83.2351 49.0352 83.3179 48.9205C83.4007 48.8026 83.5154 48.7134 83.6619 48.6529C83.8084 48.5892 83.9772 48.5574 84.1683 48.5574C84.455 48.5574 84.6875 48.6211 84.8659 48.7485C85.0443 48.8759 85.1367 49.0654 85.143 49.3171H84.713C84.7098 49.2151 84.6621 49.1291 84.5697 49.0591C84.4805 48.9858 84.3467 48.9492 84.1683 48.9492C83.99 48.9492 83.8546 48.9858 83.7622 49.0591C83.6698 49.1323 83.6237 49.2247 83.6237 49.3362C83.6237 49.4317 83.6555 49.5082 83.7192 49.5655C83.7861 49.6229 83.8944 49.6595 84.0441 49.6754L84.3212 49.7041C84.5952 49.7327 84.815 49.8092 84.9806 49.9334C85.1462 50.0545 85.2291 50.2265 85.2291 50.4494C85.2291 50.6087 85.1829 50.7504 85.0905 50.8747C85.0013 50.9957 84.8771 51.0913 84.7178 51.1614C84.5585 51.2282 84.3754 51.2617 84.1683 51.2617ZM85.8938 51.1852V47.6973H86.3525V49.7805H86.2378C86.2378 49.5289 86.2697 49.3123 86.3334 49.1307C86.4003 48.946 86.5022 48.8042 86.6392 48.7055C86.7761 48.6067 86.9513 48.5574 87.1648 48.5574H87.1839C87.4897 48.5574 87.7206 48.6593 87.8767 48.8632C88.0327 49.0638 88.1108 49.3521 88.1108 49.728V51.1852H87.6521V49.6324C87.6521 49.4254 87.5932 49.2645 87.4753 49.1498C87.3606 49.0352 87.2109 48.9778 87.0262 48.9778C86.8223 48.9778 86.6583 49.0463 86.5341 49.1833C86.413 49.3171 86.3525 49.4938 86.3525 49.7136V51.1852H85.8938ZM90.4933 51.1852V50.4208H90.4169V49.5368C90.4169 49.3617 90.3707 49.2295 90.2783 49.1403C90.1891 49.0511 90.0569 49.0065 89.8817 49.0065C89.783 49.0065 89.6811 49.0081 89.5759 49.0113C89.4708 49.0145 89.3705 49.0176 89.2749 49.0208C89.1794 49.024 89.0966 49.0288 89.0265 49.0352V48.6338C89.0966 48.6274 89.1698 48.6227 89.2463 48.6195C89.3259 48.6131 89.4071 48.6099 89.4899 48.6099C89.5728 48.6067 89.6524 48.6051 89.7288 48.6051C89.99 48.6051 90.2034 48.637 90.3691 48.7007C90.5347 48.7612 90.6573 48.8616 90.737 49.0017C90.8166 49.1419 90.8564 49.3314 90.8564 49.5703V51.1852H90.4933ZM89.6572 51.2521C89.466 51.2521 89.3004 51.2203 89.1603 51.1566C89.0233 51.0897 88.9166 50.9941 88.8401 50.8699C88.7669 50.7457 88.7302 50.596 88.7302 50.4208C88.7302 50.2392 88.7701 50.0879 88.8497 49.9669C88.9325 49.8458 89.052 49.755 89.208 49.6945C89.3641 49.6308 89.552 49.599 89.7718 49.599H90.4646V49.943H89.7527C89.568 49.943 89.4262 49.9876 89.3275 50.0768C89.2287 50.1659 89.1794 50.2806 89.1794 50.4208C89.1794 50.5609 89.2287 50.674 89.3275 50.76C89.4262 50.846 89.568 50.889 89.7527 50.889C89.861 50.889 89.9645 50.8699 90.0633 50.8317C90.162 50.7903 90.2433 50.7234 90.307 50.631C90.3739 50.5354 90.4105 50.4048 90.4169 50.2392L90.5411 50.4208C90.5252 50.6023 90.4806 50.7552 90.4073 50.8795C90.3372 51.0005 90.2385 51.0929 90.1111 51.1566C89.9868 51.2203 89.8355 51.2521 89.6572 51.2521ZM92.2334 51.1852V47.9267L92.4436 48.0891H91.4594V47.6973H92.6921V51.1852H92.2334Z" fill="white"/>
<path d="M113.217 43.6144V43.1475H116.03V43.6144H113.217ZM113.217 44.7079V44.241H116.03V44.7079H113.217Z" fill="#0C134F"/>
<path d="M27.302 44.787V6.46059C27.302 3.44483 29.7468 1.00007 32.7625 1.00007H78.153C81.1688 1.00007 83.6135 3.44482 83.6135 6.46058V32.1834" stroke="#252525" stroke-width="0.341282" stroke-linecap="round" stroke-dasharray="1.71 1.71"/>
<path d="M27.3018 46.0061C28.15 46.0061 28.8376 45.3185 28.8376 44.4703C28.8376 43.6221 28.15 42.9345 27.3018 42.9345C26.4537 42.9345 25.7661 43.6221 25.7661 44.4703C25.7661 45.3185 26.4537 46.0061 27.3018 46.0061Z" fill="white" stroke="#252525" stroke-width="1.02385"/>
<path d="M83.2459 33.0235L81.6448 30.4476C81.4821 30.1859 81.5884 29.86 81.8264 29.7296C81.9648 29.6537 82.1312 29.6991 82.2797 29.7526L82.9199 29.9834C83.3687 30.1452 83.86 30.1452 84.3088 29.9834L84.949 29.7526C85.0975 29.6991 85.2639 29.6538 85.4023 29.7296C85.6366 29.8581 85.744 30.1761 85.5902 30.4372L84.0733 33.0131C83.886 33.3313 83.4407 33.3368 83.2459 33.0235Z" fill="#252525"/>
<mask id="path-13-inside-2_4585_221" fill="white">
<path d="M174.396 17.0405C174.396 16.2865 175.007 15.6754 175.761 15.6754H227.636C228.389 15.6754 229.001 16.2865 229.001 17.0405V62.0897C229.001 62.8437 228.389 63.4548 227.636 63.4548H175.761C175.007 63.4548 174.396 62.8437 174.396 62.0897V17.0405Z"/>
</mask>
<path d="M174.396 17.0405C174.396 16.2865 175.007 15.6754 175.761 15.6754H227.636C228.389 15.6754 229.001 16.2865 229.001 17.0405V62.0897C229.001 62.8437 228.389 63.4548 227.636 63.4548H175.761C175.007 63.4548 174.396 62.8437 174.396 62.0897V17.0405Z" fill="white"/>
<path d="M174.396 15.6754H229.001H174.396ZM231.048 62.0897C231.048 63.9746 229.52 65.5025 227.636 65.5025H175.761C173.876 65.5025 172.348 63.9746 172.348 62.0897L176.443 61.4071H226.953L231.048 62.0897ZM175.761 65.5025C173.876 65.5025 172.348 63.9746 172.348 62.0897V19.0882C172.348 17.2033 173.876 15.6754 175.761 15.6754H176.443C176.443 15.6754 176.443 16.2865 176.443 17.0405V61.4071L175.761 65.5025ZM227.636 15.6754C229.52 15.6754 231.048 17.2033 231.048 19.0882V62.0897C231.048 63.9746 229.52 65.5025 227.636 65.5025L226.953 61.4071V17.0405C226.953 16.2865 226.953 15.6754 226.953 15.6754H227.636Z" fill="url(#paint1_linear_4585_221)" fill-opacity="0.3" mask="url(#path-13-inside-2_4585_221)"/>
<rect x="179.515" y="50.1456" width="44.3667" height="8.19077" rx="1.36513" fill="#1D267D"/>
<path d="M188.036 55.7601V55.3301H188.905C189.115 55.3301 189.302 55.2966 189.464 55.2297C189.63 55.1596 189.77 55.0641 189.885 54.943C190.003 54.822 190.092 54.6803 190.152 54.5178C190.213 54.3554 190.243 54.1802 190.243 53.9922C190.243 53.7947 190.213 53.6164 190.152 53.4571C190.092 53.2947 190.003 53.1545 189.885 53.0366C189.77 52.9156 189.63 52.8232 189.464 52.7595C189.302 52.6958 189.115 52.664 188.905 52.664H188.036V52.234H188.857C189.173 52.234 189.447 52.2833 189.679 52.3821C189.912 52.4776 190.105 52.6082 190.257 52.7739C190.413 52.9363 190.53 53.1195 190.606 53.3233C190.683 53.524 190.721 53.7295 190.721 53.9397V54.0448C190.721 54.2487 190.683 54.4525 190.606 54.6564C190.53 54.8602 190.413 55.045 190.257 55.2106C190.105 55.3763 189.912 55.51 189.679 55.612C189.447 55.7107 189.173 55.7601 188.857 55.7601H188.036ZM187.663 55.7601V52.234H188.131V55.7601H187.663ZM192.446 55.827C192.178 55.827 191.952 55.7728 191.767 55.6645C191.583 55.553 191.442 55.4081 191.347 55.2297C191.251 55.0513 191.204 54.8618 191.204 54.6612H191.653C191.653 54.8077 191.684 54.9383 191.748 55.0529C191.815 55.1676 191.907 55.2584 192.025 55.3253C192.143 55.3922 192.283 55.4256 192.446 55.4256C192.605 55.4256 192.744 55.3938 192.861 55.3301C192.983 55.2632 193.076 55.1724 193.143 55.0577C193.21 54.9399 193.244 54.8077 193.244 54.6612C193.244 54.5146 193.21 54.3824 193.143 54.2646C193.08 54.1467 192.987 54.0528 192.866 53.9827C192.748 53.9126 192.608 53.8776 192.446 53.8776C192.328 53.8776 192.208 53.8983 192.087 53.9397C191.966 53.9779 191.869 54.0336 191.796 54.1069H191.376L191.552 52.2531H193.382V52.6449H191.82L191.935 52.4872L191.801 53.8393L191.677 53.7963C191.769 53.704 191.88 53.6307 192.011 53.5766C192.145 53.5224 192.296 53.4953 192.465 53.4953C192.732 53.4953 192.957 53.5511 193.139 53.6626C193.32 53.7709 193.457 53.9126 193.549 54.0878C193.645 54.2598 193.693 54.4398 193.693 54.6277V54.6946C193.693 54.8825 193.645 55.0641 193.549 55.2393C193.454 55.4113 193.312 55.553 193.124 55.6645C192.94 55.7728 192.713 55.827 192.446 55.827ZM194.419 55.741V52.2531H194.888V55.741H194.419ZM194.792 55.741V55.3205H196.388V55.741H194.792ZM198.022 55.827C197.754 55.827 197.528 55.7728 197.343 55.6645C197.158 55.553 197.018 55.4081 196.923 55.2297C196.827 55.0513 196.779 54.8618 196.779 54.6612H197.228C197.228 54.8077 197.26 54.9383 197.324 55.0529C197.391 55.1676 197.483 55.2584 197.601 55.3253C197.719 55.3922 197.859 55.4256 198.022 55.4256C198.181 55.4256 198.319 55.3938 198.437 55.3301C198.558 55.2632 198.652 55.1724 198.719 55.0577C198.786 54.9399 198.82 54.8077 198.82 54.6612C198.82 54.5146 198.786 54.3824 198.719 54.2646C198.655 54.1467 198.563 54.0528 198.442 53.9827C198.324 53.9126 198.184 53.8776 198.022 53.8776C197.904 53.8776 197.784 53.8983 197.663 53.9397C197.542 53.9779 197.445 54.0336 197.372 54.1069H196.951L197.128 52.2531H198.958V52.6449H197.396L197.51 52.4872L197.377 53.8393L197.252 53.7963C197.345 53.704 197.456 53.6307 197.587 53.5766C197.721 53.5224 197.872 53.4953 198.041 53.4953C198.308 53.4953 198.533 53.5511 198.714 53.6626C198.896 53.7709 199.033 53.9126 199.125 54.0878C199.221 54.2598 199.269 54.4398 199.269 54.6277V54.6946C199.269 54.8825 199.221 55.0641 199.125 55.2393C199.03 55.4113 198.888 55.553 198.7 55.6645C198.515 55.7728 198.289 55.827 198.022 55.827ZM199.837 55.741V55.1581H200.392V55.741H199.837ZM201.088 55.741V55.1581H201.642V55.741H201.088ZM202.338 55.741V55.1581H202.893V55.741H202.338ZM204.042 54.384L202.934 52.2531H203.421L204.358 54.0782L204.176 54.0257H204.74L204.549 54.0782L205.428 52.2531H205.887L204.845 54.384H204.042ZM204.214 55.741V54.2885H204.673V55.741H204.214ZM208.572 56.7491C208.4 56.7491 208.25 56.7236 208.122 56.6727C207.995 56.6249 207.896 56.5405 207.826 56.4194C207.756 56.2984 207.721 56.1328 207.721 55.9225V55.5021H208.151V55.9942C208.151 56.0993 208.181 56.1821 208.242 56.2427C208.306 56.3032 208.388 56.3334 208.49 56.3334H209.083V56.7491H208.572ZM207.927 55.827C207.614 55.827 207.345 55.7712 207.119 55.6597C206.893 55.5483 206.707 55.4017 206.56 55.2202C206.414 55.0386 206.304 54.8443 206.23 54.6373C206.16 54.4302 206.125 54.2311 206.125 54.04V53.9349C206.125 53.7279 206.162 53.5192 206.235 53.309C206.308 53.0988 206.42 52.9076 206.57 52.7356C206.719 52.5604 206.906 52.4203 207.129 52.3152C207.355 52.2101 207.621 52.1575 207.927 52.1575C208.232 52.1575 208.497 52.2101 208.72 52.3152C208.946 52.4203 209.134 52.5604 209.283 52.7356C209.433 52.9076 209.545 53.0988 209.618 53.309C209.691 53.5192 209.728 53.7279 209.728 53.9349V54.04C209.728 54.2311 209.691 54.4302 209.618 54.6373C209.548 54.8443 209.44 55.0386 209.293 55.2202C209.147 55.4017 208.96 55.5483 208.734 55.6597C208.508 55.7712 208.239 55.827 207.927 55.827ZM207.927 55.397C208.13 55.397 208.314 55.3587 208.476 55.2823C208.642 55.2058 208.782 55.1023 208.896 54.9717C209.011 54.8379 209.099 54.6882 209.159 54.5226C209.22 54.3538 209.25 54.177 209.25 53.9922C209.25 53.7979 209.22 53.6164 209.159 53.4476C209.099 53.2787 209.011 53.1306 208.896 53.0032C208.782 52.8726 208.642 52.7707 208.476 52.6974C208.314 52.6242 208.13 52.5875 207.927 52.5875C207.723 52.5875 207.538 52.6242 207.372 52.6974C207.21 52.7707 207.071 52.8726 206.957 53.0032C206.842 53.1306 206.754 53.2787 206.694 53.4476C206.633 53.6164 206.603 53.7979 206.603 53.9922C206.603 54.177 206.633 54.3538 206.694 54.5226C206.754 54.6882 206.842 54.8379 206.957 54.9717C207.071 55.1023 207.21 55.2058 207.372 55.2823C207.538 55.3587 207.723 55.397 207.927 55.397ZM211.631 55.827C211.341 55.827 211.094 55.7792 210.89 55.6836C210.686 55.5881 210.53 55.4559 210.422 55.2871C210.313 55.1182 210.259 54.9271 210.259 54.7137H210.728C210.728 54.8188 210.755 54.9239 210.809 55.0291C210.866 55.1342 210.96 55.2218 211.091 55.2918C211.224 55.3619 211.404 55.397 211.631 55.397C211.841 55.397 212.013 55.3667 212.147 55.3062C212.28 55.2425 212.379 55.1612 212.443 55.0625C212.507 54.9606 212.538 54.8507 212.538 54.7328C212.538 54.5895 212.476 54.4716 212.352 54.3793C212.228 54.2837 212.046 54.2248 211.807 54.2025L211.42 54.169C211.111 54.1435 210.865 54.048 210.68 53.8823C210.495 53.7167 210.403 53.4985 210.403 53.2278C210.403 53.0144 210.454 52.828 210.556 52.6687C210.661 52.5095 210.806 52.3853 210.99 52.2961C211.175 52.2037 211.39 52.1575 211.635 52.1575C211.877 52.1575 212.091 52.2021 212.276 52.2913C212.46 52.3805 212.604 52.5063 212.706 52.6687C212.811 52.828 212.863 53.0191 212.863 53.2421H212.395C212.395 53.1306 212.368 53.0255 212.314 52.9268C212.263 52.828 212.182 52.7468 212.07 52.6831C211.959 52.6194 211.814 52.5875 211.635 52.5875C211.463 52.5875 211.32 52.6178 211.205 52.6783C211.094 52.7388 211.009 52.8185 210.952 52.9172C210.898 53.0128 210.871 53.1163 210.871 53.2278C210.871 53.3552 210.92 53.4683 211.019 53.567C211.118 53.6657 211.264 53.7231 211.459 53.739L211.846 53.7725C212.084 53.7916 212.29 53.8425 212.462 53.9253C212.637 54.005 212.771 54.1133 212.863 54.2502C212.959 54.384 213.007 54.5449 213.007 54.7328C213.007 54.9462 212.949 55.1358 212.835 55.3014C212.72 55.467 212.559 55.596 212.352 55.6884C212.145 55.7808 211.905 55.827 211.631 55.827ZM213.649 55.741V55.1676C213.649 55.0275 213.668 54.908 213.706 54.8093C213.748 54.7105 213.818 54.6213 213.917 54.5417C214.015 54.4589 214.149 54.3793 214.318 54.3028L214.973 54.0018C215.132 53.9285 215.258 53.8346 215.35 53.7199C215.442 53.602 215.489 53.4507 215.489 53.266C215.489 53.043 215.426 52.8694 215.302 52.7452C215.178 52.621 215.003 52.5589 214.777 52.5589C214.554 52.5589 214.378 52.621 214.251 52.7452C214.124 52.8694 214.06 53.043 214.06 53.266H213.611C213.611 53.0653 213.652 52.8806 213.735 52.7117C213.821 52.5429 213.95 52.4091 214.122 52.3104C214.294 52.2085 214.512 52.1575 214.777 52.1575C215.041 52.1575 215.258 52.2085 215.426 52.3104C215.598 52.4091 215.726 52.5397 215.809 52.7022C215.895 52.8646 215.938 53.0414 215.938 53.2325V53.2994C215.938 53.5511 215.864 53.7629 215.718 53.9349C215.575 54.1069 215.38 54.2487 215.135 54.3601L214.48 54.6612C214.334 54.728 214.235 54.7949 214.184 54.8618C214.133 54.9287 214.108 55.0179 214.108 55.1294V55.569L213.984 55.3492H215.981V55.741H213.649Z" fill="white"/>
<rect x="123.373" y="40.7604" width="44.0254" height="7.84949" rx="1.19449" fill="#1D267D"/>
<rect x="123.373" y="40.7604" width="44.0254" height="7.84949" rx="1.19449" stroke="#0C134F" stroke-width="0.341282"/>
<path d="M131.724 46.2043V45.7743H132.593C132.803 45.7743 132.99 45.7408 133.152 45.6739C133.318 45.6039 133.458 45.5083 133.573 45.3873C133.691 45.2662 133.78 45.1245 133.84 44.962C133.901 44.7996 133.931 44.6244 133.931 44.4365C133.931 44.239 133.901 44.0606 133.84 43.9013C133.78 43.7389 133.691 43.5987 133.573 43.4809C133.458 43.3598 133.318 43.2674 133.152 43.2037C132.99 43.14 132.803 43.1082 132.593 43.1082H131.724V42.6782H132.545C132.861 42.6782 133.135 42.7275 133.367 42.8263C133.6 42.9218 133.793 43.0524 133.945 43.2181C134.101 43.3805 134.218 43.5637 134.294 43.7675C134.371 43.9682 134.409 44.1737 134.409 44.3839V44.489C134.409 44.6929 134.371 44.8967 134.294 45.1006C134.218 45.3044 134.101 45.4892 133.945 45.6548C133.793 45.8205 133.6 45.9542 133.367 46.0562C133.135 46.1549 132.861 46.2043 132.545 46.2043H131.724ZM131.351 46.2043V42.6782H131.819V46.2043H131.351ZM136.134 46.2712C135.866 46.2712 135.64 46.217 135.455 46.1087C135.271 45.9972 135.13 45.8523 135.035 45.6739C134.939 45.4956 134.892 45.306 134.892 45.1054H135.341C135.341 45.2519 135.372 45.3825 135.436 45.4972C135.503 45.6118 135.595 45.7026 135.713 45.7695C135.831 45.8364 135.971 45.8698 136.134 45.8698C136.293 45.8698 136.432 45.838 136.549 45.7743C136.67 45.7074 136.764 45.6166 136.831 45.5019C136.898 45.3841 136.932 45.2519 136.932 45.1054C136.932 44.9588 136.898 44.8267 136.831 44.7088C136.768 44.5909 136.675 44.497 136.554 44.4269C136.436 44.3568 136.296 44.3218 136.134 44.3218C136.016 44.3218 135.896 44.3425 135.775 44.3839C135.654 44.4221 135.557 44.4779 135.484 44.5511H135.064L135.24 42.6973H137.07V43.0891H135.508L135.623 42.9314L135.489 44.2836L135.365 44.2406C135.457 44.1482 135.568 44.0749 135.699 44.0208C135.833 43.9666 135.984 43.9395 136.153 43.9395C136.42 43.9395 136.645 43.9953 136.827 44.1068C137.008 44.2151 137.145 44.3568 137.237 44.532C137.333 44.704 137.381 44.884 137.381 45.0719V45.1388C137.381 45.3267 137.333 45.5083 137.237 45.6835C137.142 45.8555 137 45.9972 136.812 46.1087C136.627 46.217 136.401 46.2712 136.134 46.2712ZM138.107 46.1852V42.6973H138.576V46.1852H138.107ZM138.48 46.1852V45.7647H140.076V46.1852H138.48ZM141.71 46.2712C141.442 46.2712 141.216 46.217 141.031 46.1087C140.846 45.9972 140.706 45.8523 140.611 45.6739C140.515 45.4956 140.467 45.306 140.467 45.1054H140.916C140.916 45.2519 140.948 45.3825 141.012 45.4972C141.079 45.6118 141.171 45.7026 141.289 45.7695C141.407 45.8364 141.547 45.8698 141.71 45.8698C141.869 45.8698 142.007 45.838 142.125 45.7743C142.246 45.7074 142.34 45.6166 142.407 45.5019C142.474 45.3841 142.508 45.2519 142.508 45.1054C142.508 44.9588 142.474 44.8267 142.407 44.7088C142.343 44.5909 142.251 44.497 142.13 44.4269C142.012 44.3568 141.872 44.3218 141.71 44.3218C141.592 44.3218 141.472 44.3425 141.351 44.3839C141.23 44.4221 141.133 44.4779 141.06 44.5511H140.639L140.816 42.6973H142.646V43.0891H141.084L141.198 42.9314L141.065 44.2836L140.94 44.2406C141.033 44.1482 141.144 44.0749 141.275 44.0208C141.409 43.9666 141.56 43.9395 141.729 43.9395C141.996 43.9395 142.221 43.9953 142.402 44.1068C142.584 44.2151 142.721 44.3568 142.813 44.532C142.909 44.704 142.957 44.884 142.957 45.0719V45.1388C142.957 45.3267 142.909 45.5083 142.813 45.6835C142.718 45.8555 142.576 45.9972 142.388 46.1087C142.203 46.217 141.977 46.2712 141.71 46.2712ZM143.525 46.1852V45.6023H144.08V46.1852H143.525ZM144.776 46.1852V45.6023H145.33V46.1852H144.776ZM146.026 46.1852V45.6023H146.581V46.1852H146.026ZM147.73 44.8282L146.622 42.6973H147.109L148.046 44.5225L147.864 44.4699H148.428L148.237 44.5225L149.116 42.6973H149.575L148.533 44.8282H147.73ZM147.902 46.1852V44.7327H148.361V46.1852H147.902ZM152.26 47.1933C152.088 47.1933 151.938 47.1678 151.81 47.1169C151.683 47.0691 151.584 46.9847 151.514 46.8636C151.444 46.7426 151.409 46.577 151.409 46.3667V45.9463H151.839V46.4384C151.839 46.5435 151.869 46.6263 151.93 46.6869C151.994 46.7474 152.076 46.7776 152.178 46.7776H152.771V47.1933H152.26ZM151.615 46.2712C151.302 46.2712 151.033 46.2154 150.807 46.104C150.581 45.9925 150.395 45.8459 150.248 45.6644C150.102 45.4828 149.992 45.2885 149.918 45.0815C149.848 44.8744 149.813 44.6753 149.813 44.4842V44.3791C149.813 44.1721 149.85 43.9634 149.923 43.7532C149.996 43.543 150.108 43.3519 150.258 43.1799C150.407 43.0047 150.594 42.8645 150.817 42.7594C151.043 42.6543 151.309 42.6017 151.615 42.6017C151.92 42.6017 152.185 42.6543 152.408 42.7594C152.634 42.8645 152.822 43.0047 152.971 43.1799C153.121 43.3519 153.233 43.543 153.306 43.7532C153.379 43.9634 153.416 44.1721 153.416 44.3791V44.4842C153.416 44.6753 153.379 44.8744 153.306 45.0815C153.236 45.2885 153.128 45.4828 152.981 45.6644C152.835 45.8459 152.648 45.9925 152.422 46.104C152.196 46.2154 151.927 46.2712 151.615 46.2712ZM151.615 45.8412C151.818 45.8412 152.002 45.8029 152.164 45.7265C152.33 45.6501 152.47 45.5465 152.584 45.4159C152.699 45.2821 152.787 45.1324 152.847 44.9668C152.908 44.798 152.938 44.6212 152.938 44.4365C152.938 44.2421 152.908 44.0606 152.847 43.8918C152.787 43.7229 152.699 43.5748 152.584 43.4474C152.47 43.3168 152.33 43.2149 152.164 43.1416C152.002 43.0684 151.818 43.0317 151.615 43.0317C151.411 43.0317 151.226 43.0684 151.06 43.1416C150.898 43.2149 150.759 43.3168 150.645 43.4474C150.53 43.5748 150.442 43.7229 150.382 43.8918C150.321 44.0606 150.291 44.2421 150.291 44.4365C150.291 44.6212 150.321 44.798 150.382 44.9668C150.442 45.1324 150.53 45.2821 150.645 45.4159C150.759 45.5465 150.898 45.6501 151.06 45.7265C151.226 45.8029 151.411 45.8412 151.615 45.8412ZM155.319 46.2712C155.029 46.2712 154.782 46.2234 154.578 46.1278C154.374 46.0323 154.218 45.9001 154.11 45.7313C154.001 45.5625 153.947 45.3713 153.947 45.1579H154.416C154.416 45.263 154.443 45.3682 154.497 45.4733C154.554 45.5784 154.648 45.666 154.779 45.7361C154.912 45.8061 155.092 45.8412 155.319 45.8412C155.529 45.8412 155.701 45.8109 155.835 45.7504C155.968 45.6867 156.067 45.6055 156.131 45.5067C156.195 45.4048 156.226 45.2949 156.226 45.177C156.226 45.0337 156.164 44.9158 156.04 44.8235C155.916 44.7279 155.734 44.669 155.495 44.6467L155.108 44.6132C154.799 44.5878 154.553 44.4922 154.368 44.3266C154.183 44.1609 154.091 43.9427 154.091 43.672C154.091 43.4586 154.142 43.2722 154.244 43.113C154.349 42.9537 154.494 42.8295 154.678 42.7403C154.863 42.6479 155.078 42.6017 155.323 42.6017C155.565 42.6017 155.779 42.6463 155.964 42.7355C156.148 42.8247 156.292 42.9505 156.394 43.113C156.499 43.2722 156.551 43.4633 156.551 43.6863H156.083C156.083 43.5748 156.056 43.4697 156.002 43.371C155.951 43.2722 155.87 43.191 155.758 43.1273C155.647 43.0636 155.502 43.0317 155.323 43.0317C155.151 43.0317 155.008 43.062 154.893 43.1225C154.782 43.183 154.697 43.2627 154.64 43.3614C154.586 43.457 154.559 43.5605 154.559 43.672C154.559 43.7994 154.608 43.9125 154.707 44.0112C154.806 44.11 154.952 44.1673 155.147 44.1832L155.534 44.2167C155.772 44.2358 155.978 44.2867 156.15 44.3696C156.325 44.4492 156.459 44.5575 156.551 44.6945C156.647 44.8282 156.695 44.9891 156.695 45.177C156.695 45.3904 156.637 45.58 156.523 45.7456C156.408 45.9112 156.247 46.0402 156.04 46.1326C155.833 46.225 155.593 46.2712 155.319 46.2712ZM157.337 46.1852V45.6118C157.337 45.4717 157.356 45.3522 157.394 45.2535C157.436 45.1547 157.506 45.0655 157.605 44.9859C157.703 44.9031 157.837 44.8235 158.006 44.747L158.661 44.446C158.82 44.3727 158.946 44.2788 159.038 44.1641C159.13 44.0463 159.177 43.895 159.177 43.7102C159.177 43.4872 159.114 43.3136 158.99 43.1894C158.866 43.0652 158.691 43.0031 158.465 43.0031C158.242 43.0031 158.066 43.0652 157.939 43.1894C157.812 43.3136 157.748 43.4872 157.748 43.7102H157.299C157.299 43.5095 157.34 43.3248 157.423 43.156C157.509 42.9871 157.638 42.8534 157.81 42.7546C157.982 42.6527 158.2 42.6017 158.465 42.6017C158.729 42.6017 158.946 42.6527 159.114 42.7546C159.286 42.8534 159.414 42.984 159.497 43.1464C159.583 43.3089 159.626 43.4856 159.626 43.6768V43.7436C159.626 43.9953 159.552 44.2071 159.406 44.3791C159.263 44.5511 159.068 44.6929 158.823 44.8044L158.168 45.1054C158.022 45.1723 157.923 45.2391 157.872 45.306C157.821 45.3729 157.796 45.4621 157.796 45.5736V46.0132L157.671 45.7934H159.669V46.1852H157.337Z" fill="white"/>
<path d="M146.409 34.7869V6.46052C146.409 3.44476 148.854 1.00001 151.87 1.00001H197.26C200.276 1.00001 202.721 3.44476 202.721 6.46052V30.5887" stroke="#252525" stroke-width="0.341282" stroke-linecap="round" stroke-dasharray="1.71 1.71"/>
<path d="M146.409 37.005C147.257 37.005 147.945 36.3174 147.945 35.4692C147.945 34.621 147.257 33.9334 146.409 33.9334C145.561 33.9334 144.873 34.621 144.873 35.4692C144.873 36.3174 145.561 37.005 146.409 37.005Z" fill="white" stroke="#252525" stroke-width="1.02385"/>
<path d="M202.353 33.0869L200.752 30.511C200.589 30.2493 200.696 29.9234 200.934 29.793C201.072 29.7171 201.238 29.7625 201.387 29.816L202.027 30.0468C202.476 30.2086 202.967 30.2086 203.416 30.0468L204.056 29.816C204.205 29.7625 204.371 29.7172 204.509 29.7931C204.744 29.9215 204.851 30.2395 204.697 30.5007L203.181 33.0765C202.993 33.3947 202.548 33.4003 202.353 33.0869Z" fill="#252525"/>
<defs>
<linearGradient id="paint0_linear_4585_221" x1="-1.93721" y1="11.5821" x2="30.3579" y2="79.9902" gradientUnits="userSpaceOnUse">
<stop stop-color="#662B64"/>
<stop offset="1" stop-color="#456F97"/>
</linearGradient>
<linearGradient id="paint1_linear_4585_221" x1="172.458" y1="11.5821" x2="204.753" y2="79.9902" gradientUnits="userSpaceOnUse">
<stop stop-color="#662B64"/>
<stop offset="1" stop-color="#456F97"/>
</linearGradient>
</defs>
</svg>
