<svg width="253" height="123" viewBox="0 0 253 123" fill="none" xmlns="http://www.w3.org/2000/svg">
<rect width="253" height="123" rx="10" fill="#F4F4F4"/>
<mask id="path-2-inside-1_1787_7974" fill="white">
<path d="M11 46.0405C11 45.2865 11.6112 44.6754 12.3651 44.6754H64.24C64.9939 44.6754 65.6051 45.2865 65.6051 46.0405V91.0897C65.6051 91.8437 64.9939 92.4548 64.24 92.4548H12.3651C11.6112 92.4548 11 91.8437 11 91.0897V46.0405Z"/>
</mask>
<path d="M11 46.0405C11 45.2865 11.6112 44.6754 12.3651 44.6754H64.24C64.9939 44.6754 65.6051 45.2865 65.6051 46.0405V91.0897C65.6051 91.8437 64.9939 92.4548 64.24 92.4548H12.3651C11.6112 92.4548 11 91.8437 11 91.0897V46.0405Z" fill="white"/>
<path d="M11 44.6754H65.6051H11ZM67.6528 91.0897C67.6528 92.9746 66.1248 94.5025 64.24 94.5025H12.3651C10.4803 94.5025 8.95231 92.9746 8.95231 91.0897L13.0477 90.4071H63.5574L67.6528 91.0897ZM12.3651 94.5025C10.4803 94.5025 8.95231 92.9746 8.95231 91.0897V48.0882C8.95231 46.2033 10.4803 44.6754 12.3651 44.6754H13.0477C13.0477 44.6754 13.0477 45.2865 13.0477 46.0405V90.4071L12.3651 94.5025ZM64.24 44.6754C66.1248 44.6754 67.6528 46.2033 67.6528 48.0882V91.0897C67.6528 92.9746 66.1248 94.5025 64.24 94.5025L63.5574 90.4071V46.0405C63.5574 45.2865 63.5574 44.6754 63.5574 44.6754H64.24Z" fill="url(#paint0_linear_1787_7974)" fill-opacity="0.3" mask="url(#path-2-inside-1_1787_7974)"/>
<rect x="16.1191" y="79.1456" width="44.3667" height="8.19077" rx="1.36513" fill="#1D267D"/>
<path d="M31.0777 84.741V81.2531H31.5459V84.741H31.0777ZM33.4975 84.7696C33.3064 84.7696 33.1407 84.7426 33.0006 84.6884C32.8636 84.6343 32.7569 84.5419 32.6805 84.4113C32.6072 84.2775 32.5706 84.0975 32.5706 83.8714V81.4155H33.0101V83.9287C33.0101 84.0657 33.0468 84.1724 33.12 84.2488C33.1965 84.3221 33.3032 84.3587 33.4401 84.3587H33.8893V84.7696H33.4975ZM32.131 82.5336V82.1895H33.8893V82.5336H32.131ZM35.604 84.827C35.381 84.827 35.1883 84.7887 35.0258 84.7123C34.8634 84.6359 34.7312 84.5355 34.6293 84.4113C34.5273 84.2839 34.4509 84.1421 34.3999 83.9861C34.3521 83.83 34.3282 83.6707 34.3282 83.5083V83.4223C34.3282 83.2566 34.3521 83.0958 34.3999 82.9397C34.4509 82.7836 34.5273 82.6434 34.6293 82.5192C34.7312 82.3918 34.8602 82.2915 35.0163 82.2182C35.1755 82.1418 35.3619 82.1035 35.5753 82.1035C35.8524 82.1035 36.0802 82.1641 36.2585 82.2851C36.4401 82.403 36.5739 82.5559 36.6599 82.7438C36.7491 82.9317 36.7937 83.1324 36.7937 83.3458V83.5513H34.5289V83.2072H36.4592L36.3541 83.3936C36.3541 83.212 36.3254 83.0559 36.2681 82.9253C36.2108 82.7916 36.1248 82.688 36.0101 82.6148C35.8954 82.5415 35.7505 82.5049 35.5753 82.5049C35.3937 82.5049 35.2424 82.5463 35.1214 82.6291C35.0035 82.7119 34.9143 82.825 34.8538 82.9683C34.7965 83.1117 34.7678 83.2773 34.7678 83.4653C34.7678 83.6468 34.7965 83.8109 34.8538 83.9574C34.9143 84.1007 35.0067 84.2154 35.1309 84.3014C35.2552 84.3842 35.4128 84.4256 35.604 84.4256C35.8046 84.4256 35.9671 84.381 36.0913 84.2918C36.2187 84.2027 36.2952 84.0991 36.3206 83.9813H36.7507C36.7156 84.1565 36.6456 84.3078 36.5404 84.4352C36.4353 84.5626 36.3031 84.6597 36.1439 84.7266C35.9846 84.7935 35.8046 84.827 35.604 84.827ZM37.4449 84.741V82.1895H37.808V83.2837H37.7507C37.7507 83.0352 37.7826 82.825 37.8463 82.653C37.9132 82.4778 38.0119 82.344 38.1425 82.2517C38.2731 82.1593 38.4387 82.1131 38.6394 82.1131H38.6585C38.8592 82.1131 39.0248 82.1593 39.1554 82.2517C39.2892 82.344 39.388 82.4778 39.4517 82.653C39.5154 82.825 39.5472 83.0352 39.5472 83.2837H39.4134C39.4134 83.0352 39.4469 82.825 39.5138 82.653C39.5807 82.4778 39.6794 82.344 39.81 82.2517C39.9438 82.1593 40.111 82.1131 40.3117 82.1131H40.3308C40.5315 82.1131 40.6987 82.1593 40.8325 82.2517C40.9663 82.344 41.065 82.4778 41.1287 82.653C41.1956 82.825 41.2291 83.0352 41.2291 83.2837V84.741H40.7704V83.1834C40.7704 82.9763 40.7194 82.817 40.6175 82.7056C40.5156 82.5909 40.3738 82.5336 40.1922 82.5336C40.0043 82.5336 39.853 82.5941 39.7383 82.7151C39.6237 82.833 39.5663 82.9986 39.5663 83.212V84.741H39.1076V83.1834C39.1076 82.9763 39.0567 82.817 38.9548 82.7056C38.8528 82.5909 38.7111 82.5336 38.5295 82.5336C38.3416 82.5336 38.1903 82.5941 38.0756 82.7151C37.9609 82.833 37.9036 82.9986 37.9036 83.212V84.741H37.4449ZM41.9447 83.6086V83.2168H43.7221V83.6086H41.9447ZM45.0117 84.741V81.4824L45.2219 81.6449H44.2376V81.2531H45.4703V84.741H45.0117Z" fill="white"/>
<rect x="72.4302" y="65.034" width="44.3667" height="8.19077" rx="1.36513" fill="#1D267D"/>
<path d="M87.3887 70.6294V67.1415H87.8569V70.6294H87.3887ZM89.8085 70.658C89.6174 70.658 89.4518 70.631 89.3116 70.5768C89.1746 70.5227 89.0679 70.4303 88.9915 70.2997C88.9182 70.1659 88.8816 69.9859 88.8816 69.7598V67.3039H89.3212V69.8171C89.3212 69.9541 89.3578 70.0608 89.4311 70.1372C89.5075 70.2105 89.6142 70.2471 89.7512 70.2471H90.2003V70.658H89.8085ZM88.442 68.422V68.0779H90.2003V68.422H88.442ZM91.915 70.7154C91.692 70.7154 91.4993 70.6771 91.3369 70.6007C91.1744 70.5242 91.0422 70.4239 90.9403 70.2997C90.8384 70.1723 90.7619 70.0305 90.7109 69.8744C90.6632 69.7184 90.6393 69.5591 90.6393 69.3967V69.3107C90.6393 69.145 90.6632 68.9842 90.7109 68.8281C90.7619 68.672 90.8384 68.5318 90.9403 68.4076C91.0422 68.2802 91.1712 68.1799 91.3273 68.1066C91.4866 68.0302 91.6729 67.9919 91.8863 67.9919C92.1634 67.9919 92.3912 68.0525 92.5696 68.1735C92.7511 68.2914 92.8849 68.4442 92.9709 68.6322C93.0601 68.8201 93.1047 69.0208 93.1047 69.2342V69.4397H90.84V69.0956H92.7702L92.6651 69.282C92.6651 69.1004 92.6365 68.9443 92.5791 68.8137C92.5218 68.68 92.4358 68.5764 92.3211 68.5032C92.2064 68.4299 92.0615 68.3933 91.8863 68.3933C91.7048 68.3933 91.5535 68.4347 91.4324 68.5175C91.3146 68.6003 91.2254 68.7134 91.1649 68.8567C91.1075 69.0001 91.0789 69.1657 91.0789 69.3537C91.0789 69.5352 91.1075 69.6993 91.1649 69.8458C91.2254 69.9891 91.3177 70.1038 91.442 70.1898C91.5662 70.2726 91.7239 70.314 91.915 70.314C92.1157 70.314 92.2781 70.2694 92.4023 70.1802C92.5298 70.091 92.6062 69.9875 92.6317 69.8697H93.0617C93.0267 70.0449 92.9566 70.1962 92.8515 70.3236C92.7464 70.451 92.6142 70.5481 92.4549 70.615C92.2956 70.6819 92.1157 70.7154 91.915 70.7154ZM93.756 70.6294V68.0779H94.1191V69.1721H94.0617C94.0617 68.9236 94.0936 68.7134 94.1573 68.5414C94.2242 68.3662 94.3229 68.2324 94.4535 68.1401C94.5841 68.0477 94.7498 68.0015 94.9504 68.0015H94.9696C95.1702 68.0015 95.3359 68.0477 95.4665 68.1401C95.6002 68.2324 95.699 68.3662 95.7627 68.5414C95.8264 68.7134 95.8583 68.9236 95.8583 69.1721H95.7245C95.7245 68.9236 95.7579 68.7134 95.8248 68.5414C95.8917 68.3662 95.9904 68.2324 96.121 68.1401C96.2548 68.0477 96.4221 68.0015 96.6227 68.0015H96.6418C96.8425 68.0015 97.0097 68.0477 97.1435 68.1401C97.2773 68.2324 97.3761 68.3662 97.4398 68.5414C97.5066 68.7134 97.5401 68.9236 97.5401 69.1721V70.6294H97.0814V69.0718C97.0814 68.8647 97.0304 68.7054 96.9285 68.594C96.8266 68.4793 96.6848 68.422 96.5033 68.422C96.3153 68.422 96.164 68.4825 96.0494 68.6035C95.9347 68.7214 95.8774 68.887 95.8774 69.1004V70.6294H95.4187V69.0718C95.4187 68.8647 95.3677 68.7054 95.2658 68.594C95.1639 68.4793 95.0221 68.422 94.8406 68.422C94.6526 68.422 94.5013 68.4825 94.3866 68.6035C94.272 68.7214 94.2146 68.887 94.2146 69.1004V70.6294H93.756ZM98.2557 69.497V69.1052H100.033V69.497H98.2557ZM101.323 70.6294V67.3708L101.533 67.5333H100.549V67.1415H101.781V70.6294H101.323Z" fill="white"/>
<rect x="72.4302" y="74.5899" width="44.3667" height="8.19077" rx="1.36513" fill="#0C134F"/>
<path d="M83.0401 80.2713C82.8172 80.2713 82.6213 80.2331 82.4524 80.1566C82.2836 80.0802 82.1403 79.9798 82.0224 79.8556C81.9077 79.7282 81.8202 79.5864 81.7596 79.4304C81.7023 79.2743 81.6736 79.115 81.6736 78.9526V78.8666C81.6736 78.7041 81.7039 78.5448 81.7644 78.3888C81.8249 78.2295 81.9141 78.0878 82.032 77.9635C82.1498 77.8361 82.2932 77.7358 82.462 77.6625C82.6308 77.5861 82.8235 77.5478 83.0401 77.5478C83.2567 77.5478 83.4494 77.5861 83.6183 77.6625C83.7871 77.7358 83.9304 77.8361 84.0483 77.9635C84.1661 78.0878 84.2553 78.2295 84.3158 78.3888C84.3764 78.5448 84.4066 78.7041 84.4066 78.8666V78.9526C84.4066 79.115 84.3764 79.2743 84.3158 79.4304C84.2585 79.5864 84.1709 79.7282 84.053 79.8556C83.9384 79.9798 83.7966 80.0802 83.6278 80.1566C83.459 80.2331 83.2631 80.2713 83.0401 80.2713ZM83.0401 79.8604C83.2312 79.8604 83.3937 79.819 83.5275 79.7361C83.6644 79.6501 83.768 79.5355 83.838 79.3921C83.9113 79.2488 83.9479 79.0879 83.9479 78.9096C83.9479 78.728 83.9113 78.5655 83.838 78.4222C83.7648 78.2789 83.6597 78.1658 83.5227 78.083C83.3889 78.0002 83.2281 77.9587 83.0401 77.9587C82.8554 77.9587 82.6945 78.0002 82.5575 78.083C82.4206 78.1658 82.3155 78.2789 82.2422 78.4222C82.1689 78.5655 82.1323 78.728 82.1323 78.9096C82.1323 79.0879 82.1673 79.2488 82.2374 79.3921C82.3107 79.5355 82.4142 79.6501 82.548 79.7361C82.685 79.819 82.849 79.8604 83.0401 79.8604ZM85.0936 81.1409V77.6338H85.4567V78.7376L85.3707 78.728C85.3866 78.4541 85.444 78.2311 85.5427 78.0591C85.6447 77.8839 85.7768 77.7549 85.9393 77.6721C86.1017 77.5893 86.2785 77.5478 86.4696 77.5478C86.6544 77.5478 86.8216 77.5829 86.9713 77.653C87.1242 77.723 87.2548 77.8186 87.3631 77.9396C87.4714 78.0607 87.5542 78.2008 87.6116 78.3601C87.6689 78.5194 87.6976 78.6882 87.6976 78.8666V78.9526C87.6976 79.1309 87.6673 79.2998 87.6068 79.459C87.5463 79.6183 87.4603 79.7584 87.3488 79.8795C87.2405 80.0005 87.1099 80.0961 86.957 80.1662C86.8073 80.2362 86.6416 80.2713 86.4601 80.2713C86.2785 80.2713 86.1049 80.2315 85.9393 80.1518C85.7737 80.0722 85.6367 79.9432 85.5284 79.7648C85.4201 79.5864 85.358 79.3523 85.342 79.0625L85.5523 79.4447V81.1409H85.0936ZM86.3884 79.8699C86.5604 79.8699 86.7101 79.8301 86.8375 79.7505C86.965 79.6677 87.0637 79.5546 87.1338 79.4112C87.2039 79.2647 87.2389 79.0975 87.2389 78.9096C87.2389 78.7184 87.2039 78.5512 87.1338 78.4079C87.0637 78.2645 86.965 78.1531 86.8375 78.0734C86.7101 77.9906 86.5604 77.9492 86.3884 77.9492C86.2355 77.9492 86.0938 77.9842 85.9632 78.0543C85.8326 78.1212 85.7275 78.2199 85.6478 78.3505C85.5714 78.478 85.5332 78.6324 85.5332 78.814V79.0338C85.5332 79.209 85.573 79.3587 85.6526 79.4829C85.7322 79.6071 85.8374 79.7027 85.968 79.7696C86.0986 79.8365 86.2387 79.8699 86.3884 79.8699ZM88.2635 79.0529V78.6611H90.0409V79.0529H88.2635ZM91.6315 80.2617C91.2971 80.2617 91.0375 80.1901 90.8527 80.0467C90.6712 79.9034 90.5772 79.7075 90.5708 79.459H91.0009C91.0072 79.5578 91.0566 79.6517 91.149 79.7409C91.2445 79.8269 91.4054 79.8699 91.6315 79.8699C91.8354 79.8699 91.9915 79.8301 92.0998 79.7505C92.2081 79.6677 92.2622 79.5673 92.2622 79.4495C92.2622 79.3444 92.2224 79.2631 92.1428 79.2058C92.0632 79.1453 91.9341 79.1055 91.7558 79.0863L91.4787 79.0577C91.2366 79.0322 91.0391 78.9605 90.8862 78.8427C90.7333 78.7216 90.6568 78.5528 90.6568 78.3362C90.6568 78.1738 90.6983 78.0352 90.7811 77.9205C90.8639 77.8027 90.9786 77.7135 91.1251 77.653C91.2716 77.5893 91.4404 77.5574 91.6315 77.5574C91.9182 77.5574 92.1507 77.6211 92.3291 77.7485C92.5075 77.8759 92.5999 78.0655 92.6062 78.3171H92.1762C92.173 78.2152 92.1253 78.1292 92.0329 78.0591C91.9437 77.9858 91.8099 77.9492 91.6315 77.9492C91.4532 77.9492 91.3178 77.9858 91.2254 78.0591C91.133 78.1323 91.0869 78.2247 91.0869 78.3362C91.0869 78.4318 91.1187 78.5082 91.1824 78.5655C91.2493 78.6229 91.3576 78.6595 91.5073 78.6754L91.7844 78.7041C92.0584 78.7328 92.2782 78.8092 92.4438 78.9334C92.6094 79.0545 92.6922 79.2265 92.6922 79.4495C92.6922 79.6087 92.6461 79.7505 92.5537 79.8747C92.4645 79.9957 92.3403 80.0913 92.181 80.1614C92.0217 80.2283 91.8386 80.2617 91.6315 80.2617ZM93.357 80.1853V76.6974H93.8157V78.7806H93.701C93.701 78.5289 93.7329 78.3123 93.7966 78.1308C93.8635 77.946 93.9654 77.8043 94.1024 77.7055C94.2393 77.6068 94.4145 77.5574 94.628 77.5574H94.6471C94.9529 77.5574 95.1838 77.6593 95.3399 77.8632C95.4959 78.0639 95.574 78.3521 95.574 78.728V80.1853H95.1153V78.6324C95.1153 78.4254 95.0564 78.2645 94.9385 78.1499C94.8238 78.0352 94.6741 77.9779 94.4894 77.9779C94.2855 77.9779 94.1215 78.0463 93.9973 78.1833C93.8762 78.3171 93.8157 78.4939 93.8157 78.7137V80.1853H93.357ZM97.9565 80.1853V79.4208H97.8801V78.5369C97.8801 78.3617 97.8339 78.2295 97.7415 78.1403C97.6523 78.0511 97.5201 78.0065 97.3449 78.0065C97.2462 78.0065 97.1443 78.0081 97.0391 78.0113C96.934 78.0145 96.8337 78.0177 96.7381 78.0209C96.6426 78.024 96.5597 78.0288 96.4897 78.0352V77.6338C96.5597 77.6275 96.633 77.6227 96.7095 77.6195C96.7891 77.6131 96.8703 77.61 96.9531 77.61C97.036 77.6068 97.1156 77.6052 97.192 77.6052C97.4532 77.6052 97.6666 77.637 97.8323 77.7007C97.9979 77.7613 98.1205 77.8616 98.2002 78.0017C98.2798 78.1419 98.3196 78.3314 98.3196 78.5703V80.1853H97.9565ZM97.1204 80.2522C96.9292 80.2522 96.7636 80.2203 96.6235 80.1566C96.4865 80.0897 96.3798 79.9942 96.3033 79.8699C96.2301 79.7457 96.1934 79.596 96.1934 79.4208C96.1934 79.2392 96.2333 79.0879 96.3129 78.9669C96.3957 78.8459 96.5152 78.7551 96.6712 78.6946C96.8273 78.6308 97.0152 78.599 97.235 78.599H97.9278V78.943H97.2159C97.0312 78.943 96.8894 78.9876 96.7907 79.0768C96.6919 79.166 96.6426 79.2806 96.6426 79.4208C96.6426 79.561 96.6919 79.674 96.7907 79.76C96.8894 79.846 97.0312 79.889 97.2159 79.889C97.3242 79.889 97.4277 79.8699 97.5265 79.8317C97.6252 79.7903 97.7065 79.7234 97.7702 79.631C97.8371 79.5355 97.8737 79.4049 97.8801 79.2392L98.0043 79.4208C97.9884 79.6024 97.9438 79.7553 97.8705 79.8795C97.8004 80.0005 97.7017 80.0929 97.5743 80.1566C97.45 80.2203 97.2987 80.2522 97.1204 80.2522ZM99.085 80.1853V79.6119C99.085 79.4718 99.1041 79.3523 99.1424 79.2536C99.1838 79.1548 99.2539 79.0656 99.3526 78.986C99.4513 78.9032 99.5851 78.8236 99.7539 78.7471L100.409 78.4461C100.568 78.3728 100.694 78.2789 100.786 78.1642C100.878 78.0463 100.925 77.895 100.925 77.7103C100.925 77.4873 100.862 77.3137 100.738 77.1895C100.614 77.0653 100.439 77.0032 100.213 77.0032C99.9897 77.0032 99.8145 77.0653 99.6871 77.1895C99.5596 77.3137 99.4959 77.4873 99.4959 77.7103H99.0468C99.0468 77.5096 99.0882 77.3249 99.171 77.1561C99.257 76.9872 99.386 76.8534 99.558 76.7547C99.7301 76.6528 99.9482 76.6018 100.213 76.6018C100.477 76.6018 100.694 76.6528 100.862 76.7547C101.034 76.8534 101.162 76.984 101.245 77.1465C101.331 77.3089 101.374 77.4857 101.374 77.6768V77.7437C101.374 77.9954 101.3 78.2072 101.154 78.3792C101.011 78.5512 100.816 78.693 100.571 78.8044L99.9164 79.1055C99.7699 79.1723 99.6711 79.2392 99.6202 79.3061C99.5692 79.373 99.5437 79.4622 99.5437 79.5737V80.0133L99.4195 79.7935H101.417V80.1853H99.085ZM103.185 80.2713C102.918 80.2713 102.692 80.2171 102.507 80.1088C102.322 79.9973 102.182 79.8524 102.086 79.674C101.991 79.4957 101.943 79.3061 101.943 79.1055H102.392C102.392 79.252 102.424 79.3826 102.488 79.4972C102.555 79.6119 102.647 79.7027 102.765 79.7696C102.883 79.8365 103.023 79.8699 103.185 79.8699C103.345 79.8699 103.483 79.8381 103.601 79.7744C103.722 79.7075 103.816 79.6167 103.883 79.502C103.95 79.3842 103.983 79.252 103.983 79.1055C103.983 78.9589 103.95 78.8267 103.883 78.7089C103.819 78.591 103.727 78.4971 103.606 78.427C103.488 78.3569 103.348 78.3219 103.185 78.3219C103.067 78.3219 102.948 78.3426 102.827 78.384C102.706 78.4222 102.609 78.478 102.535 78.5512H102.115L102.292 76.6974H104.122V77.0892H102.559L102.674 76.9315L102.54 78.2836L102.416 78.2406C102.508 78.1483 102.62 78.075 102.751 78.0209C102.884 77.9667 103.036 77.9396 103.204 77.9396C103.472 77.9396 103.697 77.9954 103.878 78.1069C104.06 78.2152 104.197 78.3569 104.289 78.5321C104.385 78.7041 104.432 78.8841 104.432 79.072V79.1389C104.432 79.3268 104.385 79.5084 104.289 79.6836C104.193 79.8556 104.052 79.9973 103.864 80.1088C103.679 80.2171 103.453 80.2713 103.185 80.2713ZM106.32 80.2808C106.065 80.2808 105.852 80.2362 105.68 80.147C105.511 80.0579 105.375 79.9368 105.273 79.7839C105.175 79.6278 105.103 79.4495 105.058 79.2488C105.017 79.0481 104.996 78.8379 104.996 78.6181V78.3888C104.996 77.8377 105.133 77.4141 105.407 77.1178C105.681 76.8184 106.078 76.6687 106.597 76.6687C106.721 76.6687 106.826 76.6719 106.912 76.6783C106.998 76.6846 107.092 76.6942 107.194 76.7069V77.0987C107.089 77.086 106.992 77.0764 106.903 77.07C106.814 77.0637 106.705 77.0605 106.578 77.0605C106.288 77.0605 106.059 77.1146 105.89 77.2229C105.721 77.3312 105.6 77.4873 105.527 77.6912C105.453 77.8919 105.417 78.1355 105.417 78.4222V78.6372L105.302 79.0625C105.305 78.8108 105.353 78.6022 105.445 78.4365C105.541 78.2709 105.67 78.1467 105.833 78.0639C105.998 77.981 106.188 77.9396 106.401 77.9396C106.65 77.9396 106.86 77.9906 107.032 78.0925C107.204 78.1913 107.333 78.3282 107.419 78.5034C107.508 78.6786 107.553 78.8777 107.553 79.1007C107.553 79.3268 107.506 79.5291 107.414 79.7075C107.322 79.8859 107.183 80.026 106.998 80.1279C106.817 80.2299 106.591 80.2808 106.32 80.2808ZM106.32 79.8795C106.495 79.8795 106.642 79.846 106.759 79.7791C106.877 79.7123 106.965 79.6215 107.022 79.5068C107.083 79.3889 107.113 79.2536 107.113 79.1007C107.113 78.9478 107.084 78.8124 107.027 78.6946C106.97 78.5767 106.884 78.4859 106.769 78.4222C106.657 78.3553 106.519 78.3219 106.353 78.3219C106.191 78.3219 106.044 78.3521 105.914 78.4127C105.786 78.4732 105.686 78.5624 105.613 78.6802C105.539 78.7949 105.503 78.9366 105.503 79.1055C105.503 79.2456 105.531 79.3746 105.589 79.4925C105.646 79.6103 105.735 79.7043 105.856 79.7744C105.977 79.8444 106.132 79.8795 106.32 79.8795Z" fill="white"/>
<path d="M124.217 72.6144V72.1475H127.03V72.6144H124.217ZM124.217 73.7079V73.241H127.03V73.7079H124.217Z" fill="#0C134F"/>
<path d="M38.302 73.787V35.4606C38.302 32.4448 40.7468 30.0001 43.7625 30.0001H89.153C92.1688 30.0001 94.6135 32.4448 94.6135 35.4606V61.1834" stroke="#252525" stroke-width="0.341282" stroke-linecap="round" stroke-dasharray="1.71 1.71"/>
<path d="M38.3018 75.0061C39.15 75.0061 39.8376 74.3185 39.8376 73.4703C39.8376 72.6221 39.15 71.9345 38.3018 71.9345C37.4537 71.9345 36.7661 72.6221 36.7661 73.4703C36.7661 74.3185 37.4537 75.0061 38.3018 75.0061Z" fill="white" stroke="#252525" stroke-width="1.02385"/>
<path d="M94.2459 62.0235L92.6448 59.4476C92.4821 59.1859 92.5884 58.86 92.8264 58.7296C92.9648 58.6537 93.1312 58.6991 93.2797 58.7526L93.9199 58.9834C94.3687 59.1452 94.86 59.1452 95.3088 58.9834L95.949 58.7526C96.0975 58.6991 96.2639 58.6538 96.4023 58.7296C96.6366 58.8581 96.744 59.1761 96.5902 59.4372L95.0733 62.0131C94.886 62.3313 94.4407 62.3368 94.2459 62.0235Z" fill="#252525"/>
<mask id="path-14-inside-2_1787_7974" fill="white">
<path d="M185.396 46.0405C185.396 45.2865 186.007 44.6754 186.761 44.6754H238.636C239.39 44.6754 240.001 45.2865 240.001 46.0405V91.0897C240.001 91.8437 239.39 92.4548 238.636 92.4548H186.761C186.007 92.4548 185.396 91.8437 185.396 91.0897V46.0405Z"/>
</mask>
<path d="M185.396 46.0405C185.396 45.2865 186.007 44.6754 186.761 44.6754H238.636C239.39 44.6754 240.001 45.2865 240.001 46.0405V91.0897C240.001 91.8437 239.39 92.4548 238.636 92.4548H186.761C186.007 92.4548 185.396 91.8437 185.396 91.0897V46.0405Z" fill="white"/>
<path d="M185.396 44.6754H240.001H185.396ZM242.048 91.0897C242.048 92.9746 240.52 94.5025 238.636 94.5025H186.761C184.876 94.5025 183.348 92.9746 183.348 91.0897L187.443 90.4071H237.953L242.048 91.0897ZM186.761 94.5025C184.876 94.5025 183.348 92.9746 183.348 91.0897V48.0882C183.348 46.2033 184.876 44.6754 186.761 44.6754H187.443C187.443 44.6754 187.443 45.2865 187.443 46.0405V90.4071L186.761 94.5025ZM238.636 44.6754C240.52 44.6754 242.048 46.2033 242.048 48.0882V91.0897C242.048 92.9746 240.52 94.5025 238.636 94.5025L237.953 90.4071V46.0405C237.953 45.2865 237.953 44.6754 237.953 44.6754H238.636Z" fill="url(#paint1_linear_1787_7974)" fill-opacity="0.3" mask="url(#path-14-inside-2_1787_7974)"/>
<rect x="190.515" y="79.1456" width="44.3667" height="8.19077" rx="1.36513" fill="#1D267D"/>
<path d="M199.036 84.7601V84.3301H199.905C200.116 84.3301 200.302 84.2966 200.464 84.2297C200.63 84.1596 200.77 84.0641 200.885 83.943C201.003 83.822 201.092 83.6803 201.152 83.5178C201.213 83.3554 201.243 83.1802 201.243 82.9922C201.243 82.7947 201.213 82.6164 201.152 82.4571C201.092 82.2947 201.003 82.1545 200.885 82.0366C200.77 81.9156 200.63 81.8232 200.464 81.7595C200.302 81.6958 200.116 81.664 199.905 81.664H199.036V81.234H199.858C200.173 81.234 200.447 81.2833 200.679 81.3821C200.912 81.4776 201.105 81.6082 201.258 81.7739C201.414 81.9363 201.53 82.1195 201.606 82.3233C201.683 82.524 201.721 82.7295 201.721 82.9397V83.0448C201.721 83.2487 201.683 83.4525 201.606 83.6564C201.53 83.8602 201.414 84.045 201.258 84.2106C201.105 84.3763 200.912 84.51 200.679 84.612C200.447 84.7107 200.173 84.7601 199.858 84.7601H199.036ZM198.663 84.7601V81.234H199.131V84.7601H198.663ZM203.446 84.827C203.178 84.827 202.952 84.7728 202.767 84.6645C202.583 84.553 202.443 84.4081 202.347 84.2297C202.251 84.0513 202.204 83.8618 202.204 83.6612H202.653C202.653 83.8077 202.685 83.9383 202.748 84.0529C202.815 84.1676 202.908 84.2584 203.025 84.3253C203.143 84.3922 203.283 84.4256 203.446 84.4256C203.605 84.4256 203.744 84.3938 203.862 84.3301C203.983 84.2632 204.077 84.1724 204.143 84.0577C204.21 83.9399 204.244 83.8077 204.244 83.6612C204.244 83.5146 204.21 83.3824 204.143 83.2646C204.08 83.1467 203.987 83.0528 203.866 82.9827C203.749 82.9126 203.608 82.8776 203.446 82.8776C203.328 82.8776 203.209 82.8983 203.088 82.9397C202.967 82.9779 202.869 83.0336 202.796 83.1069H202.376L202.552 81.2531H204.382V81.6449H202.82L202.935 81.4872L202.801 82.8393L202.677 82.7963C202.769 82.704 202.881 82.6307 203.011 82.5766C203.145 82.5224 203.296 82.4953 203.465 82.4953C203.733 82.4953 203.957 82.5511 204.139 82.6626C204.32 82.7709 204.457 82.9126 204.55 83.0878C204.645 83.2598 204.693 83.4398 204.693 83.6277V83.6946C204.693 83.8825 204.645 84.0641 204.55 84.2393C204.454 84.4113 204.312 84.553 204.124 84.6645C203.94 84.7728 203.713 84.827 203.446 84.827ZM205.419 84.741V81.2531H205.888V84.741H205.419ZM205.792 84.741V84.3205H207.388V84.741H205.792ZM209.022 84.827C208.754 84.827 208.528 84.7728 208.343 84.6645C208.159 84.553 208.018 84.4081 207.923 84.2297C207.827 84.0513 207.779 83.8618 207.779 83.6612H208.229C208.229 83.8077 208.26 83.9383 208.324 84.0529C208.391 84.1676 208.483 84.2584 208.601 84.3253C208.719 84.3922 208.859 84.4256 209.022 84.4256C209.181 84.4256 209.32 84.3938 209.437 84.3301C209.558 84.2632 209.652 84.1724 209.719 84.0577C209.786 83.9399 209.82 83.8077 209.82 83.6612C209.82 83.5146 209.786 83.3824 209.719 83.2646C209.656 83.1467 209.563 83.0528 209.442 82.9827C209.324 82.9126 209.184 82.8776 209.022 82.8776C208.904 82.8776 208.784 82.8983 208.663 82.9397C208.542 82.9779 208.445 83.0336 208.372 83.1069H207.951L208.128 81.2531H209.958V81.6449H208.396L208.51 81.4872L208.377 82.8393L208.252 82.7963C208.345 82.704 208.456 82.6307 208.587 82.5766C208.721 82.5224 208.872 82.4953 209.041 82.4953C209.308 82.4953 209.533 82.5511 209.715 82.6626C209.896 82.7709 210.033 82.9126 210.125 83.0878C210.221 83.2598 210.269 83.4398 210.269 83.6277V83.6946C210.269 83.8825 210.221 84.0641 210.125 84.2393C210.03 84.4113 209.888 84.553 209.7 84.6645C209.515 84.7728 209.289 84.827 209.022 84.827ZM210.838 84.741V84.1581H211.392V84.741H210.838ZM212.088 84.741V84.1581H212.642V84.741H212.088ZM213.339 84.741V84.1581H213.893V84.741H213.339ZM215.043 83.384L213.934 81.2531H214.421L215.358 83.0782L215.176 83.0257H215.74L215.549 83.0782L216.428 81.2531H216.887L215.845 83.384H215.043ZM215.215 84.741V83.2885H215.673V84.741H215.215ZM219.572 85.7491C219.4 85.7491 219.25 85.7236 219.123 85.6727C218.995 85.6249 218.896 85.5405 218.826 85.4194C218.756 85.2984 218.721 85.1328 218.721 84.9225V84.5021H219.151V84.9942C219.151 85.0993 219.182 85.1821 219.242 85.2427C219.306 85.3032 219.389 85.3334 219.49 85.3334H220.083V85.7491H219.572ZM218.927 84.827C218.615 84.827 218.345 84.7712 218.119 84.6597C217.893 84.5483 217.707 84.4017 217.56 84.2202C217.414 84.0386 217.304 83.8443 217.231 83.6373C217.16 83.4302 217.125 83.2311 217.125 83.04V82.9349C217.125 82.7279 217.162 82.5192 217.235 82.309C217.309 82.0988 217.42 81.9076 217.57 81.7356C217.719 81.5604 217.906 81.4203 218.129 81.3152C218.355 81.2101 218.621 81.1575 218.927 81.1575C219.232 81.1575 219.497 81.2101 219.72 81.3152C219.946 81.4203 220.134 81.5604 220.284 81.7356C220.433 81.9076 220.545 82.0988 220.618 82.309C220.691 82.5192 220.728 82.7279 220.728 82.9349V83.04C220.728 83.2311 220.691 83.4302 220.618 83.6373C220.548 83.8443 220.44 84.0386 220.293 84.2202C220.147 84.4017 219.96 84.5483 219.734 84.6597C219.508 84.7712 219.239 84.827 218.927 84.827ZM218.927 84.397C219.131 84.397 219.314 84.3587 219.476 84.2823C219.642 84.2058 219.782 84.1023 219.897 83.9717C220.011 83.8379 220.099 83.6882 220.159 83.5226C220.22 83.3538 220.25 83.177 220.25 82.9922C220.25 82.7979 220.22 82.6164 220.159 82.4476C220.099 82.2787 220.011 82.1306 219.897 82.0032C219.782 81.8726 219.642 81.7707 219.476 81.6974C219.314 81.6242 219.131 81.5875 218.927 81.5875C218.723 81.5875 218.538 81.6242 218.372 81.6974C218.21 81.7707 218.071 81.8726 217.957 82.0032C217.842 82.1306 217.754 82.2787 217.694 82.4476C217.633 82.6164 217.603 82.7979 217.603 82.9922C217.603 83.177 217.633 83.3538 217.694 83.5226C217.754 83.6882 217.842 83.8379 217.957 83.9717C218.071 84.1023 218.21 84.2058 218.372 84.2823C218.538 84.3587 218.723 84.397 218.927 84.397ZM222.631 84.827C222.341 84.827 222.094 84.7792 221.89 84.6836C221.686 84.5881 221.53 84.4559 221.422 84.2871C221.314 84.1182 221.259 83.9271 221.259 83.7137H221.728C221.728 83.8188 221.755 83.9239 221.809 84.0291C221.866 84.1342 221.96 84.2218 222.091 84.2918C222.225 84.3619 222.405 84.397 222.631 84.397C222.841 84.397 223.013 84.3667 223.147 84.3062C223.281 84.2425 223.379 84.1612 223.443 84.0625C223.507 83.9606 223.539 83.8507 223.539 83.7328C223.539 83.5895 223.476 83.4716 223.352 83.3793C223.228 83.2837 223.046 83.2248 222.807 83.2025L222.42 83.169C222.112 83.1435 221.865 83.048 221.68 82.8823C221.495 82.7167 221.403 82.4985 221.403 82.2278C221.403 82.0144 221.454 81.828 221.556 81.6687C221.661 81.5095 221.806 81.3853 221.99 81.2961C222.175 81.2037 222.39 81.1575 222.635 81.1575C222.878 81.1575 223.091 81.2021 223.276 81.2913C223.46 81.3805 223.604 81.5063 223.706 81.6687C223.811 81.828 223.863 82.0191 223.863 82.2421H223.395C223.395 82.1306 223.368 82.0255 223.314 81.9268C223.263 81.828 223.182 81.7468 223.07 81.6831C222.959 81.6194 222.814 81.5875 222.635 81.5875C222.463 81.5875 222.32 81.6178 222.205 81.6783C222.094 81.7388 222.01 81.8185 221.952 81.9172C221.898 82.0128 221.871 82.1163 221.871 82.2278C221.871 82.3552 221.92 82.4683 222.019 82.567C222.118 82.6657 222.264 82.7231 222.459 82.739L222.846 82.7725C223.085 82.7916 223.29 82.8425 223.462 82.9253C223.637 83.005 223.771 83.1133 223.863 83.2502C223.959 83.384 224.007 83.5449 224.007 83.7328C224.007 83.9462 223.949 84.1358 223.835 84.3014C223.72 84.467 223.559 84.596 223.352 84.6884C223.145 84.7808 222.905 84.827 222.631 84.827ZM224.649 84.741V84.1676C224.649 84.0275 224.668 83.908 224.707 83.8093C224.748 83.7105 224.818 83.6213 224.917 83.5417C225.015 83.4589 225.149 83.3793 225.318 83.3028L225.973 83.0018C226.132 82.9285 226.258 82.8346 226.35 82.7199C226.442 82.602 226.489 82.4507 226.489 82.266C226.489 82.043 226.427 81.8694 226.302 81.7452C226.178 81.621 226.003 81.5589 225.777 81.5589C225.554 81.5589 225.379 81.621 225.251 81.7452C225.124 81.8694 225.06 82.043 225.06 82.266H224.611C224.611 82.0653 224.652 81.8806 224.735 81.7117C224.821 81.5429 224.95 81.4091 225.122 81.3104C225.294 81.2085 225.512 81.1575 225.777 81.1575C226.041 81.1575 226.258 81.2085 226.427 81.3104C226.599 81.4091 226.726 81.5397 226.809 81.7022C226.895 81.8646 226.938 82.0414 226.938 82.2325V82.2994C226.938 82.5511 226.865 82.7629 226.718 82.9349C226.575 83.1069 226.38 83.2487 226.135 83.3601L225.481 83.6612C225.334 83.728 225.235 83.7949 225.184 83.8618C225.133 83.9287 225.108 84.0179 225.108 84.1294V84.569L224.984 84.3492H226.981V84.741H224.649Z" fill="white"/>
<rect x="134.373" y="69.7604" width="44.0254" height="7.84949" rx="1.19449" fill="#1D267D"/>
<path d="M142.724 75.2043V74.7743H143.593C143.803 74.7743 143.99 74.7408 144.152 74.6739C144.318 74.6039 144.458 74.5083 144.573 74.3873C144.691 74.2662 144.78 74.1245 144.84 73.962C144.901 73.7996 144.931 73.6244 144.931 73.4365C144.931 73.239 144.901 73.0606 144.84 72.9013C144.78 72.7389 144.691 72.5987 144.573 72.4809C144.458 72.3598 144.318 72.2674 144.152 72.2037C143.99 72.14 143.803 72.1082 143.593 72.1082H142.724V71.6782H143.545C143.861 71.6782 144.135 71.7275 144.367 71.8263C144.6 71.9218 144.793 72.0524 144.945 72.2181C145.101 72.3805 145.218 72.5637 145.294 72.7675C145.371 72.9682 145.409 73.1737 145.409 73.3839V73.489C145.409 73.6929 145.371 73.8967 145.294 74.1006C145.218 74.3044 145.101 74.4892 144.945 74.6548C144.793 74.8205 144.6 74.9542 144.367 75.0562C144.135 75.1549 143.861 75.2043 143.545 75.2043H142.724ZM142.351 75.2043V71.6782H142.819V75.2043H142.351ZM147.134 75.2712C146.866 75.2712 146.64 75.217 146.455 75.1087C146.271 74.9972 146.13 74.8523 146.035 74.6739C145.939 74.4956 145.892 74.306 145.892 74.1054H146.341C146.341 74.2519 146.372 74.3825 146.436 74.4972C146.503 74.6118 146.595 74.7026 146.713 74.7695C146.831 74.8364 146.971 74.8698 147.134 74.8698C147.293 74.8698 147.432 74.838 147.549 74.7743C147.67 74.7074 147.764 74.6166 147.831 74.5019C147.898 74.3841 147.932 74.2519 147.932 74.1054C147.932 73.9588 147.898 73.8267 147.831 73.7088C147.768 73.5909 147.675 73.497 147.554 73.4269C147.436 73.3568 147.296 73.3218 147.134 73.3218C147.016 73.3218 146.896 73.3425 146.775 73.3839C146.654 73.4221 146.557 73.4779 146.484 73.5511H146.064L146.24 71.6973H148.07V72.0891H146.508L146.623 71.9314L146.489 73.2836L146.365 73.2406C146.457 73.1482 146.568 73.0749 146.699 73.0208C146.833 72.9666 146.984 72.9395 147.153 72.9395C147.42 72.9395 147.645 72.9953 147.827 73.1068C148.008 73.2151 148.145 73.3568 148.237 73.532C148.333 73.704 148.381 73.884 148.381 74.0719V74.1388C148.381 74.3267 148.333 74.5083 148.237 74.6835C148.142 74.8555 148 74.9972 147.812 75.1087C147.627 75.217 147.401 75.2712 147.134 75.2712ZM149.107 75.1852V71.6973H149.576V75.1852H149.107ZM149.48 75.1852V74.7647H151.076V75.1852H149.48ZM152.71 75.2712C152.442 75.2712 152.216 75.217 152.031 75.1087C151.846 74.9972 151.706 74.8523 151.611 74.6739C151.515 74.4956 151.467 74.306 151.467 74.1054H151.916C151.916 74.2519 151.948 74.3825 152.012 74.4972C152.079 74.6118 152.171 74.7026 152.289 74.7695C152.407 74.8364 152.547 74.8698 152.71 74.8698C152.869 74.8698 153.007 74.838 153.125 74.7743C153.246 74.7074 153.34 74.6166 153.407 74.5019C153.474 74.3841 153.508 74.2519 153.508 74.1054C153.508 73.9588 153.474 73.8267 153.407 73.7088C153.343 73.5909 153.251 73.497 153.13 73.4269C153.012 73.3568 152.872 73.3218 152.71 73.3218C152.592 73.3218 152.472 73.3425 152.351 73.3839C152.23 73.4221 152.133 73.4779 152.06 73.5511H151.639L151.816 71.6973H153.646V72.0891H152.084L152.198 71.9314L152.065 73.2836L151.94 73.2406C152.033 73.1482 152.144 73.0749 152.275 73.0208C152.409 72.9666 152.56 72.9395 152.729 72.9395C152.996 72.9395 153.221 72.9953 153.402 73.1068C153.584 73.2151 153.721 73.3568 153.813 73.532C153.909 73.704 153.957 73.884 153.957 74.0719V74.1388C153.957 74.3267 153.909 74.5083 153.813 74.6835C153.718 74.8555 153.576 74.9972 153.388 75.1087C153.203 75.217 152.977 75.2712 152.71 75.2712ZM154.525 75.1852V74.6023H155.08V75.1852H154.525ZM155.776 75.1852V74.6023H156.33V75.1852H155.776ZM157.026 75.1852V74.6023H157.581V75.1852H157.026ZM158.73 73.8282L157.622 71.6973H158.109L159.046 73.5225L158.864 73.4699H159.428L159.237 73.5225L160.116 71.6973H160.575L159.533 73.8282H158.73ZM158.902 75.1852V73.7327H159.361V75.1852H158.902ZM163.26 76.1933C163.088 76.1933 162.938 76.1678 162.81 76.1169C162.683 76.0691 162.584 75.9847 162.514 75.8636C162.444 75.7426 162.409 75.577 162.409 75.3667V74.9463H162.839V75.4384C162.839 75.5435 162.869 75.6263 162.93 75.6869C162.994 75.7474 163.076 75.7776 163.178 75.7776H163.771V76.1933H163.26ZM162.615 75.2712C162.302 75.2712 162.033 75.2154 161.807 75.104C161.581 74.9925 161.395 74.8459 161.248 74.6644C161.102 74.4828 160.992 74.2885 160.918 74.0815C160.848 73.8744 160.813 73.6753 160.813 73.4842V73.3791C160.813 73.1721 160.85 72.9634 160.923 72.7532C160.996 72.543 161.108 72.3519 161.258 72.1799C161.407 72.0047 161.594 71.8645 161.817 71.7594C162.043 71.6543 162.309 71.6017 162.615 71.6017C162.92 71.6017 163.185 71.6543 163.408 71.7594C163.634 71.8645 163.822 72.0047 163.971 72.1799C164.121 72.3519 164.233 72.543 164.306 72.7532C164.379 72.9634 164.416 73.1721 164.416 73.3791V73.4842C164.416 73.6753 164.379 73.8744 164.306 74.0815C164.236 74.2885 164.128 74.4828 163.981 74.6644C163.835 74.8459 163.648 74.9925 163.422 75.104C163.196 75.2154 162.927 75.2712 162.615 75.2712ZM162.615 74.8412C162.818 74.8412 163.002 74.8029 163.164 74.7265C163.33 74.6501 163.47 74.5465 163.584 74.4159C163.699 74.2821 163.787 74.1324 163.847 73.9668C163.908 73.798 163.938 73.6212 163.938 73.4365C163.938 73.2421 163.908 73.0606 163.847 72.8918C163.787 72.7229 163.699 72.5748 163.584 72.4474C163.47 72.3168 163.33 72.2149 163.164 72.1416C163.002 72.0684 162.818 72.0317 162.615 72.0317C162.411 72.0317 162.226 72.0684 162.06 72.1416C161.898 72.2149 161.759 72.3168 161.645 72.4474C161.53 72.5748 161.442 72.7229 161.382 72.8918C161.321 73.0606 161.291 73.2421 161.291 73.4365C161.291 73.6212 161.321 73.798 161.382 73.9668C161.442 74.1324 161.53 74.2821 161.645 74.4159C161.759 74.5465 161.898 74.6501 162.06 74.7265C162.226 74.8029 162.411 74.8412 162.615 74.8412ZM166.319 75.2712C166.029 75.2712 165.782 75.2234 165.578 75.1278C165.374 75.0323 165.218 74.9001 165.11 74.7313C165.001 74.5625 164.947 74.3713 164.947 74.1579H165.416C165.416 74.263 165.443 74.3682 165.497 74.4733C165.554 74.5784 165.648 74.666 165.779 74.7361C165.912 74.8061 166.092 74.8412 166.319 74.8412C166.529 74.8412 166.701 74.8109 166.835 74.7504C166.968 74.6867 167.067 74.6055 167.131 74.5067C167.195 74.4048 167.226 74.2949 167.226 74.177C167.226 74.0337 167.164 73.9158 167.04 73.8235C166.916 73.7279 166.734 73.669 166.495 73.6467L166.108 73.6132C165.799 73.5878 165.553 73.4922 165.368 73.3266C165.183 73.1609 165.091 72.9427 165.091 72.672C165.091 72.4586 165.142 72.2722 165.244 72.113C165.349 71.9537 165.494 71.8295 165.678 71.7403C165.863 71.6479 166.078 71.6017 166.323 71.6017C166.565 71.6017 166.779 71.6463 166.964 71.7355C167.148 71.8247 167.292 71.9505 167.394 72.113C167.499 72.2722 167.551 72.4633 167.551 72.6863H167.083C167.083 72.5748 167.056 72.4697 167.002 72.371C166.951 72.2722 166.87 72.191 166.758 72.1273C166.647 72.0636 166.502 72.0317 166.323 72.0317C166.151 72.0317 166.008 72.062 165.893 72.1225C165.782 72.183 165.697 72.2627 165.64 72.3614C165.586 72.457 165.559 72.5605 165.559 72.672C165.559 72.7994 165.608 72.9125 165.707 73.0112C165.806 73.11 165.952 73.1673 166.147 73.1832L166.534 73.2167C166.772 73.2358 166.978 73.2867 167.15 73.3696C167.325 73.4492 167.459 73.5575 167.551 73.6945C167.647 73.8282 167.695 73.9891 167.695 74.177C167.695 74.3904 167.637 74.58 167.523 74.7456C167.408 74.9112 167.247 75.0402 167.04 75.1326C166.833 75.225 166.593 75.2712 166.319 75.2712ZM168.337 75.1852V74.6118C168.337 74.4717 168.356 74.3522 168.394 74.2535C168.436 74.1547 168.506 74.0655 168.605 73.9859C168.703 73.9031 168.837 73.8235 169.006 73.747L169.661 73.446C169.82 73.3727 169.946 73.2788 170.038 73.1641C170.13 73.0463 170.177 72.895 170.177 72.7102C170.177 72.4872 170.114 72.3136 169.99 72.1894C169.866 72.0652 169.691 72.0031 169.465 72.0031C169.242 72.0031 169.066 72.0652 168.939 72.1894C168.812 72.3136 168.748 72.4872 168.748 72.7102H168.299C168.299 72.5095 168.34 72.3248 168.423 72.156C168.509 71.9871 168.638 71.8534 168.81 71.7546C168.982 71.6527 169.2 71.6017 169.465 71.6017C169.729 71.6017 169.946 71.6527 170.114 71.7546C170.286 71.8534 170.414 71.984 170.497 72.1464C170.583 72.3089 170.626 72.4856 170.626 72.6768V72.7436C170.626 72.9953 170.552 73.2071 170.406 73.3791C170.263 73.5511 170.068 73.6929 169.823 73.8044L169.168 74.1054C169.022 74.1723 168.923 74.2391 168.872 74.306C168.821 74.3729 168.796 74.4621 168.796 74.5736V75.0132L168.671 74.7934H170.669V75.1852H168.337Z" fill="white"/>
<rect x="134.373" y="69.7604" width="44.0254" height="7.84949" rx="1.19449" stroke="#0C134F" stroke-width="0.341282"/>
<path d="M157.409 63.7869V35.4605C157.409 32.4448 159.854 30 162.87 30H208.26C211.276 30 213.721 32.4448 213.721 35.4605V59.5887" stroke="#252525" stroke-width="0.341282" stroke-linecap="round" stroke-dasharray="1.71 1.71"/>
<path d="M157.409 66.0049C158.257 66.0049 158.945 65.3173 158.945 64.4691C158.945 63.621 158.257 62.9334 157.409 62.9334C156.561 62.9334 155.873 63.621 155.873 64.4691C155.873 65.3173 156.561 66.0049 157.409 66.0049Z" fill="white" stroke="#252525" stroke-width="1.02385"/>
<path d="M213.353 62.0869L211.752 59.511C211.589 59.2493 211.696 58.9234 211.934 58.793C212.072 58.7171 212.238 58.7625 212.387 58.816L213.027 59.0468C213.476 59.2086 213.967 59.2086 214.416 59.0468L215.056 58.816C215.205 58.7625 215.371 58.7172 215.509 58.7931C215.744 58.9215 215.851 59.2395 215.697 59.5007L214.181 62.0765C213.993 62.3947 213.548 62.4003 213.353 62.0869Z" fill="#252525"/>
<defs>
<linearGradient id="paint0_linear_1787_7974" x1="9.06279" y1="40.5821" x2="41.3579" y2="108.99" gradientUnits="userSpaceOnUse">
<stop stop-color="#662B64"/>
<stop offset="1" stop-color="#456F97"/>
</linearGradient>
<linearGradient id="paint1_linear_1787_7974" x1="183.458" y1="40.5821" x2="215.754" y2="108.99" gradientUnits="userSpaceOnUse">
<stop stop-color="#662B64"/>
<stop offset="1" stop-color="#456F97"/>
</linearGradient>
</defs>
</svg>
