<svg width="24" height="16" viewBox="0 0 24 16" fill="none" xmlns="http://www.w3.org/2000/svg">
<path d="M19.9719 8.9372C19.6197 8.58932 19.0492 8.58932 18.6971 8.9372C18.345 9.28507 18.345 9.849 18.6971 10.1969L19.9627 11.4474H19.1208C18.3019 11.4474 17.5033 11.1633 16.8721 10.6475L13.6327 7.99996L16.872 5.35245C17.5033 4.83663 18.3019 4.55249 19.1208 4.55249H19.9627L18.6971 5.80315C18.345 6.15103 18.345 6.71495 18.6971 7.06283C18.8731 7.23672 19.1038 7.32371 19.3344 7.32371C19.5651 7.32371 19.7957 7.23672 19.9718 7.06283L22.776 4.2917C23.128 3.94383 23.128 3.37991 22.776 3.03203L19.9718 0.260906C19.6196 -0.0869688 19.0491 -0.0869688 18.697 0.260906C18.3449 0.608781 18.3449 1.1727 18.697 1.52058L19.9626 2.77115H19.1207C17.8834 2.77115 16.6767 3.20038 15.723 3.97966L12.2183 6.84411L8.26881 3.61624C7.60201 3.07122 6.75814 2.77105 5.89284 2.77105H0.901353C0.403505 2.77105 0 3.16979 0 3.66177C0 4.15374 0.403505 4.55249 0.901353 4.55249H5.89294C6.33981 4.55249 6.77557 4.70747 7.11998 4.98904L10.8041 7.99996L7.12008 11.0109C6.77567 11.2924 6.33981 11.4474 5.89294 11.4474H0.901353C0.403505 11.4474 0 11.8462 0 12.3382C0 12.8301 0.403505 13.2289 0.901353 13.2289H5.89294C6.75824 13.2289 7.60201 12.9287 8.26901 12.3837L12.2183 9.15592L15.7232 12.0204C16.6767 12.7997 17.8834 13.2289 19.1208 13.2289H19.9627L18.6971 14.4794C18.345 14.8273 18.345 15.3912 18.6971 15.7391C18.8731 15.913 19.1038 16 19.3344 16C19.5651 16 19.7957 15.913 19.9718 15.7391L22.776 12.968C23.128 12.6201 23.128 12.0562 22.776 11.7083L19.9719 8.9372Z" fill="#0C071D"/>
</svg>
