<svg width="37" height="40" viewBox="0 0 37 40" fill="none" xmlns="http://www.w3.org/2000/svg">
<path d="M35.42 29.42L30.58 24.58C30.3941 24.3925 30.1729 24.2438 29.9292 24.1422C29.6854 24.0407 29.424 23.9884 29.16 23.9884C28.896 23.9884 28.6346 24.0407 28.3908 24.1422C28.1471 24.2438 27.9259 24.3925 27.74 24.58L20.58 31.74C20.3946 31.9269 20.248 32.1485 20.1485 32.3922C20.0489 32.6359 19.9985 32.8968 20 33.16V38C20 38.5304 20.2107 39.0391 20.5858 39.4142C20.9609 39.7893 21.4696 40 22 40H26.84C27.1032 40.0015 27.3641 39.9511 27.6078 39.8515C27.8515 39.752 28.0731 39.6054 28.26 39.42L35.42 32.26C35.6075 32.0741 35.7562 31.8529 35.8578 31.6092C35.9593 31.3654 36.0116 31.104 36.0116 30.84C36.0116 30.576 35.9593 30.3146 35.8578 30.0708C35.7562 29.8271 35.6075 29.6059 35.42 29.42ZM26 36H24V34L29.16 28.84L31.16 30.84L26 36ZM14 36H6C5.46957 36 4.96086 35.7893 4.58579 35.4142C4.21071 35.0391 4 34.5304 4 34V6C4 5.46957 4.21071 4.96086 4.58579 4.58579C4.96086 4.21071 5.46957 4 6 4H16V10C16 11.5913 16.6321 13.1174 17.7574 14.2426C18.8826 15.3679 20.4087 16 22 16H28V18C28 18.5304 28.2107 19.0391 28.5858 19.4142C28.9609 19.7893 29.4696 20 30 20C30.5304 20 31.0391 19.7893 31.4142 19.4142C31.7893 19.0391 32 18.5304 32 18V14C32 14 32 14 32 13.88C31.9792 13.6963 31.9389 13.5153 31.88 13.34V13.16C31.7838 12.9544 31.6556 12.7653 31.5 12.6L19.5 0.6C19.3347 0.444432 19.1456 0.316162 18.94 0.22C18.8803 0.21152 18.8197 0.21152 18.76 0.22L18.12 0H6C4.4087 0 2.88258 0.632141 1.75736 1.75736C0.632141 2.88258 0 4.4087 0 6V34C0 35.5913 0.632141 37.1174 1.75736 38.2426C2.88258 39.3679 4.4087 40 6 40H14C14.5304 40 15.0391 39.7893 15.4142 39.4142C15.7893 39.0391 16 38.5304 16 38C16 37.4696 15.7893 36.9609 15.4142 36.5858C15.0391 36.2107 14.5304 36 14 36ZM20 6.82L25.18 12H22C21.4696 12 20.9609 11.7893 20.5858 11.4142C20.2107 11.0391 20 10.5304 20 10V6.82ZM10 24H22C22.5304 24 23.0391 23.7893 23.4142 23.4142C23.7893 23.0391 24 22.5304 24 22C24 21.4696 23.7893 20.9609 23.4142 20.5858C23.0391 20.2107 22.5304 20 22 20H10C9.46957 20 8.96086 20.2107 8.58579 20.5858C8.21071 20.9609 8 21.4696 8 22C8 22.5304 8.21071 23.0391 8.58579 23.4142C8.96086 23.7893 9.46957 24 10 24ZM10 16H12C12.5304 16 13.0391 15.7893 13.4142 15.4142C13.7893 15.0391 14 14.5304 14 14C14 13.4696 13.7893 12.9609 13.4142 12.5858C13.0391 12.2107 12.5304 12 12 12H10C9.46957 12 8.96086 12.2107 8.58579 12.5858C8.21071 12.9609 8 13.4696 8 14C8 14.5304 8.21071 15.0391 8.58579 15.4142C8.96086 15.7893 9.46957 16 10 16ZM14 28H10C9.46957 28 8.96086 28.2107 8.58579 28.5858C8.21071 28.9609 8 29.4696 8 30C8 30.5304 8.21071 31.0391 8.58579 31.4142C8.96086 31.7893 9.46957 32 10 32H14C14.5304 32 15.0391 31.7893 15.4142 31.4142C15.7893 31.0391 16 30.5304 16 30C16 29.4696 15.7893 28.9609 15.4142 28.5858C15.0391 28.2107 14.5304 28 14 28Z" fill="#F79327"/>
</svg>
