<svg width="253" height="123" viewBox="0 0 253 123" fill="none" xmlns="http://www.w3.org/2000/svg">
<rect width="253" height="123" rx="10" fill="#F4F4F4"/>
<mask id="path-2-inside-1_6353_5468" fill="white">
<path d="M11 46.0405C11 45.2865 11.6112 44.6754 12.3651 44.6754H64.24C64.9939 44.6754 65.6051 45.2865 65.6051 46.0405V91.0897C65.6051 91.8437 64.9939 92.4548 64.24 92.4548H12.3651C11.6112 92.4548 11 91.8437 11 91.0897V46.0405Z"/>
</mask>
<path d="M11 46.0405C11 45.2865 11.6112 44.6754 12.3651 44.6754H64.24C64.9939 44.6754 65.6051 45.2865 65.6051 46.0405V91.0897C65.6051 91.8437 64.9939 92.4548 64.24 92.4548H12.3651C11.6112 92.4548 11 91.8437 11 91.0897V46.0405Z" fill="white"/>
<path d="M11 44.6754H65.6051H11ZM67.6528 91.0897C67.6528 92.9746 66.1248 94.5025 64.24 94.5025H12.3651C10.4803 94.5025 8.95231 92.9746 8.95231 91.0897L13.0477 90.4071H63.5574L67.6528 91.0897ZM12.3651 94.5025C10.4803 94.5025 8.95231 92.9746 8.95231 91.0897V48.0882C8.95231 46.2033 10.4803 44.6754 12.3651 44.6754H13.0477C13.0477 44.6754 13.0477 45.2865 13.0477 46.0405V90.4071L12.3651 94.5025ZM64.24 44.6754C66.1248 44.6754 67.6528 46.2033 67.6528 48.0882V91.0897C67.6528 92.9746 66.1248 94.5025 64.24 94.5025L63.5574 90.4071V46.0405C63.5574 45.2865 63.5574 44.6754 63.5574 44.6754H64.24Z" fill="url(#paint0_linear_6353_5468)" fill-opacity="0.3" mask="url(#path-2-inside-1_6353_5468)"/>
<rect x="16.1191" y="79.1456" width="44.3667" height="8.19077" rx="1.36513" fill="#1D267D"/>
<path d="M22.434 84.741V81.2531H22.9022V84.741H22.434ZM24.8538 84.7696C24.6627 84.7696 24.497 84.7426 24.3569 84.6884C24.2199 84.6343 24.1132 84.5419 24.0367 84.4113C23.9635 84.2775 23.9269 84.0975 23.9269 83.8714V81.4155H24.3664V83.9287C24.3664 84.0657 24.4031 84.1724 24.4763 84.2488C24.5528 84.3221 24.6595 84.3587 24.7964 84.3587H25.2456V84.7696H24.8538ZM23.4873 82.5336V82.1895H25.2456V82.5336H23.4873ZM26.9603 84.827C26.7373 84.827 26.5446 84.7887 26.3821 84.7123C26.2197 84.6359 26.0875 84.5355 25.9856 84.4113C25.8836 84.2839 25.8072 84.1421 25.7562 83.9861C25.7084 83.83 25.6845 83.6707 25.6845 83.5083V83.4223C25.6845 83.2566 25.7084 83.0958 25.7562 82.9397C25.8072 82.7836 25.8836 82.6434 25.9856 82.5192C26.0875 82.3918 26.2165 82.2915 26.3726 82.2182C26.5318 82.1418 26.7182 82.1035 26.9316 82.1035C27.2087 82.1035 27.4365 82.1641 27.6148 82.2851C27.7964 82.403 27.9302 82.5559 28.0162 82.7438C28.1054 82.9317 28.15 83.1324 28.15 83.3458V83.5513H25.8852V83.2072H27.8155L27.7104 83.3936C27.7104 83.212 27.6817 83.0559 27.6244 82.9253C27.5671 82.7916 27.4811 82.688 27.3664 82.6148C27.2517 82.5415 27.1068 82.5049 26.9316 82.5049C26.75 82.5049 26.5987 82.5463 26.4777 82.6291C26.3598 82.7119 26.2706 82.825 26.2101 82.9683C26.1528 83.1117 26.1241 83.2773 26.1241 83.4653C26.1241 83.6468 26.1528 83.8109 26.2101 83.9574C26.2706 84.1007 26.363 84.2154 26.4872 84.3014C26.6115 84.3842 26.7691 84.4256 26.9603 84.4256C27.1609 84.4256 27.3234 84.381 27.4476 84.2918C27.575 84.2027 27.6515 84.0991 27.6769 83.9813H28.107C28.0719 84.1565 28.0018 84.3078 27.8967 84.4352C27.7916 84.5626 27.6594 84.6597 27.5002 84.7266C27.3409 84.7935 27.1609 84.827 26.9603 84.827ZM28.8012 84.741V82.1895H29.1643V83.2837H29.107C29.107 83.0352 29.1389 82.825 29.2026 82.653C29.2695 82.4778 29.3682 82.344 29.4988 82.2517C29.6294 82.1593 29.795 82.1131 29.9957 82.1131H30.0148C30.2155 82.1131 30.3811 82.1593 30.5117 82.2517C30.6455 82.344 30.7443 82.4778 30.808 82.653C30.8717 82.825 30.9035 83.0352 30.9035 83.2837H30.7697C30.7697 83.0352 30.8032 82.825 30.8701 82.653C30.937 82.4778 31.0357 82.344 31.1663 82.2517C31.3001 82.1593 31.4673 82.1131 31.668 82.1131H31.6871C31.8878 82.1131 32.055 82.1593 32.1888 82.2517C32.3226 82.344 32.4213 82.4778 32.485 82.653C32.5519 82.825 32.5854 83.0352 32.5854 83.2837V84.741H32.1267V83.1834C32.1267 82.9763 32.0757 82.817 31.9738 82.7056C31.8719 82.5909 31.7301 82.5336 31.5485 82.5336C31.3606 82.5336 31.2093 82.5941 31.0946 82.7151C30.98 82.833 30.9226 82.9986 30.9226 83.212V84.741H30.4639V83.1834C30.4639 82.9763 30.413 82.817 30.3111 82.7056C30.2091 82.5909 30.0674 82.5336 29.8858 82.5336C29.6979 82.5336 29.5466 82.5941 29.4319 82.7151C29.3172 82.833 29.2599 82.9986 29.2599 83.212V84.741H28.8012ZM33.301 83.6086V83.2168H35.0784V83.6086H33.301ZM36.368 84.741V81.4824L36.5782 81.6449H35.5939V81.2531H36.8266V84.741H36.368ZM39.1748 85.6966V81.2531H39.5857V85.6966H39.1748ZM43.1384 84.827C42.8772 84.827 42.6543 84.7824 42.4695 84.6932C42.288 84.6008 42.1398 84.4766 42.0252 84.3205C41.9137 84.1644 41.8325 83.9845 41.7815 83.7806C41.7305 83.5736 41.705 83.3554 41.705 83.126V82.868C41.705 82.5463 41.7544 82.2564 41.8532 81.9984C41.9551 81.7404 42.1112 81.5366 42.3214 81.3868C42.5348 81.234 42.8072 81.1575 43.1384 81.1575C43.4697 81.1575 43.7404 81.234 43.9507 81.3868C44.1609 81.5366 44.3154 81.7404 44.4141 81.9984C44.5161 82.2564 44.567 82.5463 44.567 82.868V83.126C44.567 83.3554 44.5416 83.5736 44.4906 83.7806C44.4396 83.9845 44.3568 84.1644 44.2421 84.3205C44.1306 84.4766 43.9841 84.6008 43.8026 84.6932C43.621 84.7824 43.3996 84.827 43.1384 84.827ZM43.1384 84.4065C43.4697 84.4065 43.7118 84.295 43.8647 84.0721C44.0208 83.8459 44.0988 83.4891 44.0988 83.0018C44.0988 82.4921 44.0192 82.1274 43.8599 81.9076C43.7038 81.6879 43.4633 81.578 43.1384 81.578C42.8103 81.578 42.5667 81.6879 42.4074 81.9076C42.2513 82.1274 42.1733 82.489 42.1733 82.9922C42.1733 83.4828 42.2513 83.8411 42.4074 84.0673C42.5635 84.2934 42.8072 84.4065 43.1384 84.4065ZM45.0456 84.741L45.9582 83.3984L45.9439 83.4939L45.0886 82.1895H45.5951L46.2114 83.1499H46.2783L46.8612 82.1895H47.3343L46.5268 83.4605L46.5411 83.3745L47.4967 84.741H46.9902L46.2735 83.7042H46.2067L45.5186 84.741H45.0456ZM49.3628 84.827C49.1016 84.827 48.8787 84.7824 48.6939 84.6932C48.5124 84.6008 48.3642 84.4766 48.2496 84.3205C48.1381 84.1644 48.0569 83.9845 48.0059 83.7806C47.9549 83.5736 47.9294 83.3554 47.9294 83.126V82.868C47.9294 82.5463 47.9788 82.2564 48.0776 81.9984C48.1795 81.7404 48.3356 81.5366 48.5458 81.3868C48.7592 81.234 49.0316 81.1575 49.3628 81.1575C49.6941 81.1575 49.9648 81.234 50.1751 81.3868C50.3853 81.5366 50.5398 81.7404 50.6385 81.9984C50.7405 82.2564 50.7914 82.5463 50.7914 82.868V83.126C50.7914 83.3554 50.7659 83.5736 50.715 83.7806C50.664 83.9845 50.5812 84.1644 50.4665 84.3205C50.355 84.4766 50.2085 84.6008 50.027 84.6932C49.8454 84.7824 49.624 84.827 49.3628 84.827ZM49.3628 84.4065C49.6941 84.4065 49.9362 84.295 50.0891 84.0721C50.2452 83.8459 50.3232 83.4891 50.3232 83.0018C50.3232 82.4921 50.2436 82.1274 50.0843 81.9076C49.9282 81.6879 49.6877 81.578 49.3628 81.578C49.0347 81.578 48.7911 81.6879 48.6318 81.9076C48.4757 82.1274 48.3977 82.489 48.3977 82.9922C48.3977 83.4828 48.4757 83.8411 48.6318 84.0673C48.7879 84.2934 49.0316 84.4065 49.3628 84.4065ZM52.9136 84.827C52.6524 84.827 52.4295 84.7824 52.2447 84.6932C52.0632 84.6008 51.915 84.4766 51.8004 84.3205C51.6889 84.1644 51.6077 83.9845 51.5567 83.7806C51.5057 83.5736 51.4802 83.3554 51.4802 83.126V82.868C51.4802 82.5463 51.5296 82.2564 51.6284 81.9984C51.7303 81.7404 51.8864 81.5366 52.0966 81.3868C52.31 81.234 52.5824 81.1575 52.9136 81.1575C53.2449 81.1575 53.5156 81.234 53.7259 81.3868C53.9361 81.5366 54.0906 81.7404 54.1893 81.9984C54.2913 82.2564 54.3422 82.5463 54.3422 82.868V83.126C54.3422 83.3554 54.3167 83.5736 54.2658 83.7806C54.2148 83.9845 54.132 84.1644 54.0173 84.3205C53.9058 84.4766 53.7593 84.6008 53.5778 84.6932C53.3962 84.7824 53.1748 84.827 52.9136 84.827ZM52.9136 84.4065C53.2449 84.4065 53.487 84.295 53.6399 84.0721C53.796 83.8459 53.874 83.4891 53.874 83.0018C53.874 82.4921 53.7944 82.1274 53.6351 81.9076C53.479 81.6879 53.2385 81.578 52.9136 81.578C52.5855 81.578 52.3419 81.6879 52.1826 81.9076C52.0265 82.1274 51.9485 82.489 51.9485 82.9922C51.9485 83.4828 52.0265 83.8411 52.1826 84.0673C52.3387 84.2934 52.5824 84.4065 52.9136 84.4065Z" fill="white"/>
<rect x="72.4302" y="65.0339" width="44.3667" height="8.19077" rx="1.36513" fill="#1D267D"/>
<path d="M78.745 70.6293V67.1414H79.2132V70.6293H78.745ZM81.1648 70.658C80.9737 70.658 80.8081 70.6309 80.6679 70.5768C80.5309 70.5226 80.4242 70.4303 80.3478 70.2997C80.2745 70.1659 80.2379 69.9859 80.2379 69.7597V67.3039H80.6775V69.8171C80.6775 69.9541 80.7141 70.0608 80.7874 70.1372C80.8638 70.2105 80.9705 70.2471 81.1075 70.2471H81.5566V70.658H81.1648ZM79.7983 68.4219V68.0779H81.5566V68.4219H79.7983ZM83.2713 70.7153C83.0483 70.7153 82.8556 70.6771 82.6932 70.6007C82.5307 70.5242 82.3985 70.4239 82.2966 70.2997C82.1947 70.1722 82.1182 70.0305 82.0672 69.8744C82.0195 69.7183 81.9956 69.5591 81.9956 69.3966V69.3106C81.9956 69.145 82.0195 68.9841 82.0672 68.828C82.1182 68.672 82.1947 68.5318 82.2966 68.4076C82.3985 68.2802 82.5275 68.1798 82.6836 68.1066C82.8429 68.0301 83.0292 67.9919 83.2426 67.9919C83.5197 67.9919 83.7475 68.0524 83.9259 68.1735C84.1074 68.2913 84.2412 68.4442 84.3272 68.6322C84.4164 68.8201 84.461 69.0208 84.461 69.2342V69.4396H82.1963V69.0956H84.1265L84.0214 69.282C84.0214 69.1004 83.9928 68.9443 83.9354 68.8137C83.8781 68.6799 83.7921 68.5764 83.6774 68.5031C83.5627 68.4299 83.4178 68.3933 83.2426 68.3933C83.0611 68.3933 82.9098 68.4347 82.7887 68.5175C82.6709 68.6003 82.5817 68.7134 82.5212 68.8567C82.4638 69.0001 82.4352 69.1657 82.4352 69.3536C82.4352 69.5352 82.4638 69.6992 82.5212 69.8457C82.5817 69.9891 82.674 70.1038 82.7983 70.1898C82.9225 70.2726 83.0802 70.314 83.2713 70.314C83.472 70.314 83.6344 70.2694 83.7586 70.1802C83.8861 70.091 83.9625 69.9875 83.988 69.8696H84.418C84.383 70.0448 84.3129 70.1961 84.2078 70.3235C84.1027 70.451 83.9705 70.5481 83.8112 70.615C83.6519 70.6819 83.472 70.7153 83.2713 70.7153ZM85.1123 70.6293V68.0779H85.4754V69.1721H85.418C85.418 68.9236 85.4499 68.7134 85.5136 68.5414C85.5805 68.3662 85.6792 68.2324 85.8098 68.14C85.9404 68.0476 86.1061 68.0015 86.3067 68.0015H86.3259C86.5265 68.0015 86.6922 68.0476 86.8228 68.14C86.9565 68.2324 87.0553 68.3662 87.119 68.5414C87.1827 68.7134 87.2146 68.9236 87.2146 69.1721H87.0808C87.0808 68.9236 87.1142 68.7134 87.1811 68.5414C87.248 68.3662 87.3467 68.2324 87.4773 68.14C87.6111 68.0476 87.7784 68.0015 87.979 68.0015H87.9981C88.1988 68.0015 88.366 68.0476 88.4998 68.14C88.6336 68.2324 88.7324 68.3662 88.7961 68.5414C88.8629 68.7134 88.8964 68.9236 88.8964 69.1721V70.6293H88.4377V69.0717C88.4377 68.8647 88.3867 68.7054 88.2848 68.5939C88.1829 68.4793 88.0411 68.4219 87.8596 68.4219C87.6716 68.4219 87.5203 68.4824 87.4057 68.6035C87.291 68.7213 87.2337 68.887 87.2337 69.1004V70.6293H86.775V69.0717C86.775 68.8647 86.724 68.7054 86.6221 68.5939C86.5202 68.4793 86.3784 68.4219 86.1969 68.4219C86.0089 68.4219 85.8576 68.4824 85.7429 68.6035C85.6283 68.7213 85.5709 68.887 85.5709 69.1004V70.6293H85.1123ZM89.612 69.497V69.1052H91.3894V69.497H89.612ZM92.679 70.6293V67.3708L92.8892 67.5332H91.905V67.1414H93.1377V70.6293H92.679ZM95.4859 71.5849V67.1414H95.8968V71.5849H95.4859ZM99.4495 70.7153C99.1883 70.7153 98.9653 70.6707 98.7805 70.5816C98.599 70.4892 98.4509 70.365 98.3362 70.2089C98.2247 70.0528 98.1435 69.8728 98.0925 69.669C98.0416 69.4619 98.0161 69.2437 98.0161 69.0144V68.7564C98.0161 68.4347 98.0655 68.1448 98.1642 67.8868C98.2661 67.6288 98.4222 67.4249 98.6324 67.2752C98.8458 67.1223 99.1182 67.0459 99.4495 67.0459C99.7807 67.0459 100.051 67.1223 100.262 67.2752C100.472 67.4249 100.626 67.6288 100.725 67.8868C100.827 68.1448 100.878 68.4347 100.878 68.7564V69.0144C100.878 69.2437 100.853 69.4619 100.802 69.669C100.751 69.8728 100.668 70.0528 100.553 70.2089C100.442 70.365 100.295 70.4892 100.114 70.5816C99.932 70.6707 99.7107 70.7153 99.4495 70.7153ZM99.4495 70.2949C99.7807 70.2949 100.023 70.1834 100.176 69.9604C100.332 69.7343 100.41 69.3775 100.41 68.8902C100.41 68.3805 100.33 68.0158 100.171 67.796C100.015 67.5762 99.7744 67.4663 99.4495 67.4663C99.1214 67.4663 98.8777 67.5762 98.7184 67.796C98.5624 68.0158 98.4843 68.3773 98.4843 68.8806C98.4843 69.3711 98.5624 69.7295 98.7184 69.9556C98.8745 70.1818 99.1182 70.2949 99.4495 70.2949ZM101.357 70.6293L102.269 69.2867L102.255 69.3823L101.4 68.0779H101.906L102.522 69.0383H102.589L103.172 68.0779H103.645L102.838 69.3488L102.852 69.2628L103.808 70.6293H103.301L102.585 69.5925H102.518L101.83 70.6293H101.357ZM105.674 70.7153C105.413 70.7153 105.19 70.6707 105.005 70.5816C104.823 70.4892 104.675 70.365 104.561 70.2089C104.449 70.0528 104.368 69.8728 104.317 69.669C104.266 69.4619 104.24 69.2437 104.24 69.0144V68.7564C104.24 68.4347 104.29 68.1448 104.389 67.8868C104.491 67.6288 104.647 67.4249 104.857 67.2752C105.07 67.1223 105.343 67.0459 105.674 67.0459C106.005 67.0459 106.276 67.1223 106.486 67.2752C106.696 67.4249 106.851 67.6288 106.95 67.8868C107.052 68.1448 107.102 68.4347 107.102 68.7564V69.0144C107.102 69.2437 107.077 69.4619 107.026 69.669C106.975 69.8728 106.892 70.0528 106.778 70.2089C106.666 70.365 106.52 70.4892 106.338 70.5816C106.156 70.6707 105.935 70.7153 105.674 70.7153ZM105.674 70.2949C106.005 70.2949 106.247 70.1834 106.4 69.9604C106.556 69.7343 106.634 69.3775 106.634 68.8902C106.634 68.3805 106.555 68.0158 106.395 67.796C106.239 67.5762 105.999 67.4663 105.674 67.4663C105.346 67.4663 105.102 67.5762 104.943 67.796C104.787 68.0158 104.709 68.3773 104.709 68.8806C104.709 69.3711 104.787 69.7295 104.943 69.9556C105.099 70.1818 105.343 70.2949 105.674 70.2949ZM109.225 70.7153C108.963 70.7153 108.74 70.6707 108.556 70.5816C108.374 70.4892 108.226 70.365 108.111 70.2089C108 70.0528 107.919 69.8728 107.868 69.669C107.817 69.4619 107.791 69.2437 107.791 69.0144V68.7564C107.791 68.4347 107.841 68.1448 107.939 67.8868C108.041 67.6288 108.197 67.4249 108.408 67.2752C108.621 67.1223 108.893 67.0459 109.225 67.0459C109.556 67.0459 109.827 67.1223 110.037 67.2752C110.247 67.4249 110.402 67.6288 110.5 67.8868C110.602 68.1448 110.653 68.4347 110.653 68.7564V69.0144C110.653 69.2437 110.628 69.4619 110.577 69.669C110.526 69.8728 110.443 70.0528 110.328 70.2089C110.217 70.365 110.07 70.4892 109.889 70.5816C109.707 70.6707 109.486 70.7153 109.225 70.7153ZM109.225 70.2949C109.556 70.2949 109.798 70.1834 109.951 69.9604C110.107 69.7343 110.185 69.3775 110.185 68.8902C110.185 68.3805 110.105 68.0158 109.946 67.796C109.79 67.5762 109.55 67.4663 109.225 67.4663C108.897 67.4663 108.653 67.5762 108.494 67.796C108.338 68.0158 108.26 68.3773 108.26 68.8806C108.26 69.3711 108.338 69.7295 108.494 69.9556C108.65 70.1818 108.893 70.2949 109.225 70.2949Z" fill="white"/>
<rect x="72.4302" y="74.5898" width="44.3667" height="8.19077" rx="1.36513" fill="#0C134F"/>
<path d="M79.095 80.2712C78.8721 80.2712 78.6762 80.233 78.5074 80.1566C78.3385 80.0801 78.1952 79.9798 78.0773 79.8556C77.9627 79.7282 77.8751 79.5864 77.8146 79.4303C77.7572 79.2742 77.7286 79.115 77.7286 78.9525V78.8665C77.7286 78.7041 77.7588 78.5448 77.8193 78.3887C77.8799 78.2295 77.969 78.0877 78.0869 77.9635C78.2048 77.8361 78.3481 77.7357 78.5169 77.6625C78.6857 77.586 78.8784 77.5478 79.095 77.5478C79.3116 77.5478 79.5044 77.586 79.6732 77.6625C79.842 77.7357 79.9853 77.8361 80.1032 77.9635C80.2211 78.0877 80.3102 78.2295 80.3708 78.3887C80.4313 78.5448 80.4615 78.7041 80.4615 78.8665V78.9525C80.4615 79.115 80.4313 79.2742 80.3708 79.4303C80.3134 79.5864 80.2258 79.7282 80.108 79.8556C79.9933 79.9798 79.8516 80.0801 79.6827 80.1566C79.5139 80.233 79.318 80.2712 79.095 80.2712ZM79.095 79.8603C79.2862 79.8603 79.4486 79.8189 79.5824 79.7361C79.7194 79.6501 79.8229 79.5354 79.893 79.3921C79.9662 79.2488 80.0029 79.0879 80.0029 78.9095C80.0029 78.728 79.9662 78.5655 79.893 78.4222C79.8197 78.2788 79.7146 78.1658 79.5776 78.0829C79.4438 78.0001 79.283 77.9587 79.095 77.9587C78.9103 77.9587 78.7494 78.0001 78.6125 78.0829C78.4755 78.1658 78.3704 78.2788 78.2971 78.4222C78.2239 78.5655 78.1872 78.728 78.1872 78.9095C78.1872 79.0879 78.2223 79.2488 78.2924 79.3921C78.3656 79.5354 78.4691 79.6501 78.6029 79.7361C78.7399 79.8189 78.9039 79.8603 79.095 79.8603ZM81.1485 81.1408V77.6338H81.5116V78.7375L81.4256 78.728C81.4416 78.454 81.4989 78.2311 81.5976 78.0591C81.6996 77.8839 81.8318 77.7549 81.9942 77.672C82.1567 77.5892 82.3335 77.5478 82.5246 77.5478C82.7093 77.5478 82.8765 77.5829 83.0263 77.6529C83.1791 77.723 83.3097 77.8186 83.418 77.9396C83.5263 78.0606 83.6092 78.2008 83.6665 78.3601C83.7238 78.5193 83.7525 78.6882 83.7525 78.8665V78.9525C83.7525 79.1309 83.7222 79.2997 83.6617 79.459C83.6012 79.6183 83.5152 79.7584 83.4037 79.8795C83.2954 80.0005 83.1648 80.0961 83.0119 80.1661C82.8622 80.2362 82.6966 80.2712 82.515 80.2712C82.3335 80.2712 82.1599 80.2314 81.9942 80.1518C81.8286 80.0722 81.6916 79.9432 81.5833 79.7648C81.475 79.5864 81.4129 79.3523 81.397 79.0624L81.6072 79.4447V81.1408H81.1485ZM82.4433 79.8699C82.6154 79.8699 82.7651 79.8301 82.8925 79.7504C83.0199 79.6676 83.1186 79.5546 83.1887 79.4112C83.2588 79.2647 83.2938 79.0975 83.2938 78.9095C83.2938 78.7184 83.2588 78.5512 83.1887 78.4078C83.1186 78.2645 83.0199 78.153 82.8925 78.0734C82.7651 77.9906 82.6154 77.9492 82.4433 77.9492C82.2904 77.9492 82.1487 77.9842 82.0181 78.0543C81.8875 78.1212 81.7824 78.2199 81.7028 78.3505C81.6263 78.4779 81.5881 78.6324 81.5881 78.814V79.0338C81.5881 79.2089 81.6279 79.3587 81.7075 79.4829C81.7872 79.6071 81.8923 79.7027 82.0229 79.7696C82.1535 79.8365 82.2936 79.8699 82.4433 79.8699ZM84.3185 79.0529V78.6611H86.0959V79.0529H84.3185ZM86.6879 80.1852V79.674L88.0783 78.0065V78.0829L88.0018 77.9683L88.0639 77.9969H86.6688V77.6338H88.4844V78.1451L87.094 79.8126V79.7457L87.18 79.8651L87.1131 79.8221H88.5608V80.1852H86.6879ZM90.2446 80.2712C90.0216 80.2712 89.8289 80.233 89.6664 80.1566C89.504 80.0801 89.3718 79.9798 89.2699 79.8556C89.1679 79.7282 89.0915 79.5864 89.0405 79.4303C88.9928 79.2742 88.9689 79.115 88.9689 78.9525V78.8665C88.9689 78.7009 88.9928 78.54 89.0405 78.384C89.0915 78.2279 89.1679 78.0877 89.2699 77.9635C89.3718 77.8361 89.5008 77.7357 89.6569 77.6625C89.8162 77.586 90.0025 77.5478 90.2159 77.5478C90.493 77.5478 90.7208 77.6083 90.8992 77.7294C91.0807 77.8472 91.2145 78.0001 91.3005 78.1881C91.3897 78.376 91.4343 78.5767 91.4343 78.7901V78.9955H89.1695V78.6515H91.0998L90.9947 78.8379C90.9947 78.6563 90.966 78.5002 90.9087 78.3696C90.8514 78.2358 90.7654 78.1323 90.6507 78.0591C90.536 77.9858 90.3911 77.9492 90.2159 77.9492C90.0343 77.9492 89.883 77.9906 89.762 78.0734C89.6441 78.1562 89.555 78.2693 89.4944 78.4126C89.4371 78.556 89.4084 78.7216 89.4084 78.9095C89.4084 79.0911 89.4371 79.2551 89.4944 79.4017C89.555 79.545 89.6473 79.6597 89.7716 79.7457C89.8958 79.8285 90.0535 79.8699 90.2446 79.8699C90.4453 79.8699 90.6077 79.8253 90.7319 79.7361C90.8593 79.6469 90.9358 79.5434 90.9613 79.4255H91.3913C91.3562 79.6007 91.2862 79.752 91.1811 79.8795C91.0759 80.0069 90.9438 80.104 90.7845 80.1709C90.6252 80.2378 90.4453 80.2712 90.2446 80.2712ZM92.0855 80.1852V77.6338H92.4487V78.685H92.4296C92.4296 78.3123 92.5108 78.0399 92.6732 77.8679C92.8389 77.6927 93.0857 77.6051 93.4138 77.6051H93.4998V78.0161H93.3374C93.0825 78.0161 92.8866 78.0845 92.7497 78.2215C92.6127 78.3553 92.5442 78.5496 92.5442 78.8044V80.1852H92.0855ZM95.1926 80.2712C94.9697 80.2712 94.7738 80.233 94.6049 80.1566C94.4361 80.0801 94.2928 79.9798 94.1749 79.8556C94.0603 79.7282 93.9727 79.5864 93.9121 79.4303C93.8548 79.2742 93.8261 79.115 93.8261 78.9525V78.8665C93.8261 78.7041 93.8564 78.5448 93.9169 78.3887C93.9774 78.2295 94.0666 78.0877 94.1845 77.9635C94.3023 77.8361 94.4457 77.7357 94.6145 77.6625C94.7833 77.586 94.976 77.5478 95.1926 77.5478C95.4092 77.5478 95.6019 77.586 95.7708 77.6625C95.9396 77.7357 96.0829 77.8361 96.2008 77.9635C96.3186 78.0877 96.4078 78.2295 96.4683 78.3887C96.5289 78.5448 96.5591 78.7041 96.5591 78.8665V78.9525C96.5591 79.115 96.5289 79.2742 96.4683 79.4303C96.411 79.5864 96.3234 79.7282 96.2056 79.8556C96.0909 79.9798 95.9491 80.0801 95.7803 80.1566C95.6115 80.233 95.4156 80.2712 95.1926 80.2712ZM95.1926 79.8603C95.3837 79.8603 95.5462 79.8189 95.68 79.7361C95.8169 79.6501 95.9205 79.5354 95.9905 79.3921C96.0638 79.2488 96.1004 79.0879 96.1004 78.9095C96.1004 78.728 96.0638 78.5655 95.9905 78.4222C95.9173 78.2788 95.8122 78.1658 95.6752 78.0829C95.5414 78.0001 95.3806 77.9587 95.1926 77.9587C95.0079 77.9587 94.847 78.0001 94.7101 78.0829C94.5731 78.1658 94.468 78.2788 94.3947 78.4222C94.3214 78.5655 94.2848 78.728 94.2848 78.9095C94.2848 79.0879 94.3199 79.2488 94.3899 79.3921C94.4632 79.5354 94.5667 79.6501 94.7005 79.7361C94.8375 79.8189 95.0015 79.8603 95.1926 79.8603ZM97.2461 80.1852V77.6338H97.6092V78.728H97.5519C97.5519 78.4763 97.5853 78.2645 97.6522 78.0925C97.7223 77.9173 97.8274 77.7851 97.9676 77.6959C98.1077 77.6036 98.2845 77.5574 98.4979 77.5574H98.517C98.8387 77.5574 99.0761 77.6577 99.2289 77.8584C99.385 78.0591 99.4631 78.3489 99.4631 78.728V80.1852H99.0044V78.6324C99.0044 78.4349 98.9486 78.2772 98.8372 78.1594C98.7257 78.0384 98.5728 77.9778 98.3785 77.9778C98.1778 77.9778 98.0153 78.0399 97.8911 78.1642C97.7669 78.2884 97.7048 78.454 97.7048 78.6611V80.1852H97.2461ZM101.478 80.2712C101.255 80.2712 101.059 80.233 100.89 80.1566C100.721 80.0801 100.578 79.9798 100.46 79.8556C100.345 79.7282 100.258 79.5864 100.197 79.4303C100.14 79.2742 100.111 79.115 100.111 78.9525V78.8665C100.111 78.7041 100.141 78.5448 100.202 78.3887C100.262 78.2295 100.352 78.0877 100.47 77.9635C100.587 77.8361 100.731 77.7357 100.9 77.6625C101.068 77.586 101.261 77.5478 101.478 77.5478C101.694 77.5478 101.887 77.586 102.056 77.6625C102.225 77.7357 102.368 77.8361 102.486 77.9635C102.604 78.0877 102.693 78.2295 102.753 78.3887C102.814 78.5448 102.844 78.7041 102.844 78.8665V78.9525C102.844 79.115 102.814 79.2742 102.753 79.4303C102.696 79.5864 102.608 79.7282 102.491 79.8556C102.376 79.9798 102.234 80.0801 102.065 80.1566C101.897 80.233 101.701 80.2712 101.478 80.2712ZM101.478 79.8603C101.669 79.8603 101.831 79.8189 101.965 79.7361C102.102 79.6501 102.206 79.5354 102.276 79.3921C102.349 79.2488 102.385 79.0879 102.385 78.9095C102.385 78.728 102.349 78.5655 102.276 78.4222C102.202 78.2788 102.097 78.1658 101.96 78.0829C101.826 78.0001 101.666 77.9587 101.478 77.9587C101.293 77.9587 101.132 78.0001 100.995 78.0829C100.858 78.1658 100.753 78.2788 100.68 78.4222C100.607 78.5655 100.57 78.728 100.57 78.9095C100.57 79.0879 100.605 79.2488 100.675 79.3921C100.748 79.5354 100.852 79.6501 100.986 79.7361C101.123 79.8189 101.287 79.8603 101.478 79.8603ZM104.525 80.2139C104.334 80.2139 104.168 80.1868 104.028 80.1327C103.891 80.0785 103.784 79.9862 103.708 79.8556C103.635 79.7218 103.598 79.5418 103.598 79.3157V76.8598H104.038V79.373C104.038 79.51 104.074 79.6167 104.148 79.6931C104.224 79.7664 104.331 79.803 104.468 79.803H104.917V80.2139H104.525ZM103.158 77.9778V77.6338H104.917V77.9778H103.158ZM106.631 80.2712C106.408 80.2712 106.216 80.233 106.053 80.1566C105.891 80.0801 105.759 79.9798 105.657 79.8556C105.555 79.7282 105.478 79.5864 105.427 79.4303C105.38 79.2742 105.356 79.115 105.356 78.9525V78.8665C105.356 78.7009 105.38 78.54 105.427 78.384C105.478 78.2279 105.555 78.0877 105.657 77.9635C105.759 77.8361 105.888 77.7357 106.044 77.6625C106.203 77.586 106.389 77.5478 106.603 77.5478C106.88 77.5478 107.108 77.6083 107.286 77.7294C107.468 77.8472 107.601 78.0001 107.687 78.1881C107.777 78.376 107.821 78.5767 107.821 78.7901V78.9955H105.556V78.6515H107.487L107.382 78.8379C107.382 78.6563 107.353 78.5002 107.296 78.3696C107.238 78.2358 107.152 78.1323 107.038 78.0591C106.923 77.9858 106.778 77.9492 106.603 77.9492C106.421 77.9492 106.27 77.9906 106.149 78.0734C106.031 78.1562 105.942 78.2693 105.881 78.4126C105.824 78.556 105.795 78.7216 105.795 78.9095C105.795 79.0911 105.824 79.2551 105.881 79.4017C105.942 79.545 106.034 79.6597 106.158 79.7457C106.283 79.8285 106.44 79.8699 106.631 79.8699C106.832 79.8699 106.995 79.8253 107.119 79.7361C107.246 79.6469 107.323 79.5434 107.348 79.4255H107.778C107.743 79.6007 107.673 79.752 107.568 79.8795C107.463 80.0069 107.331 80.104 107.171 80.1709C107.012 80.2378 106.832 80.2712 106.631 80.2712ZM108.344 80.1852V79.6023H108.899V80.1852H108.344ZM109.595 80.1852V79.6023H110.149V80.1852H109.595ZM110.845 80.1852V79.6023H111.399V80.1852H110.845Z" fill="white"/>
<path d="M124.217 72.6144V72.1475H127.03V72.6144H124.217ZM124.217 73.7079V73.241H127.03V73.7079H124.217Z" fill="#0C134F"/>
<path d="M38.302 73.787V35.4606C38.302 32.4448 40.7468 30.0001 43.7625 30.0001H89.153C92.1688 30.0001 94.6135 32.4448 94.6135 35.4606V61.1834" stroke="#252525" stroke-width="0.341282" stroke-linecap="round" stroke-dasharray="1.71 1.71"/>
<path d="M38.3018 75.0061C39.15 75.0061 39.8376 74.3185 39.8376 73.4703C39.8376 72.6221 39.15 71.9345 38.3018 71.9345C37.4537 71.9345 36.7661 72.6221 36.7661 73.4703C36.7661 74.3185 37.4537 75.0061 38.3018 75.0061Z" fill="white" stroke="#252525" stroke-width="1.02385"/>
<path d="M94.2459 62.0235L92.6448 59.4476C92.4821 59.1859 92.5884 58.86 92.8264 58.7296C92.9648 58.6537 93.1312 58.6991 93.2797 58.7526L93.9199 58.9834C94.3687 59.1452 94.86 59.1452 95.3088 58.9834L95.949 58.7526C96.0975 58.6991 96.2639 58.6538 96.4023 58.7296C96.6366 58.8581 96.744 59.1761 96.5902 59.4372L95.0733 62.0131C94.886 62.3313 94.4407 62.3368 94.2459 62.0235Z" fill="#252525"/>
<mask id="path-14-inside-2_6353_5468" fill="white">
<path d="M185.396 46.0405C185.396 45.2865 186.007 44.6754 186.761 44.6754H238.636C239.39 44.6754 240.001 45.2865 240.001 46.0405V91.0897C240.001 91.8437 239.39 92.4548 238.636 92.4548H186.761C186.007 92.4548 185.396 91.8437 185.396 91.0897V46.0405Z"/>
</mask>
<path d="M185.396 46.0405C185.396 45.2865 186.007 44.6754 186.761 44.6754H238.636C239.39 44.6754 240.001 45.2865 240.001 46.0405V91.0897C240.001 91.8437 239.39 92.4548 238.636 92.4548H186.761C186.007 92.4548 185.396 91.8437 185.396 91.0897V46.0405Z" fill="white"/>
<path d="M185.396 44.6754H240.001H185.396ZM242.048 91.0897C242.048 92.9746 240.52 94.5025 238.636 94.5025H186.761C184.876 94.5025 183.348 92.9746 183.348 91.0897L187.443 90.4071H237.953L242.048 91.0897ZM186.761 94.5025C184.876 94.5025 183.348 92.9746 183.348 91.0897V48.0882C183.348 46.2033 184.876 44.6754 186.761 44.6754H187.443C187.443 44.6754 187.443 45.2865 187.443 46.0405V90.4071L186.761 94.5025ZM238.636 44.6754C240.52 44.6754 242.048 46.2033 242.048 48.0882V91.0897C242.048 92.9746 240.52 94.5025 238.636 94.5025L237.953 90.4071V46.0405C237.953 45.2865 237.953 44.6754 237.953 44.6754H238.636Z" fill="url(#paint1_linear_6353_5468)" fill-opacity="0.3" mask="url(#path-14-inside-2_6353_5468)"/>
<rect x="190.515" y="79.1456" width="44.3667" height="8.19077" rx="1.36513" fill="#1D267D"/>
<path d="M201.315 84.827C201.054 84.827 200.831 84.7824 200.646 84.6932C200.465 84.6008 200.317 84.4766 200.202 84.3205C200.09 84.1644 200.009 83.9845 199.958 83.7806C199.907 83.5736 199.882 83.3554 199.882 83.126V82.868C199.882 82.5463 199.931 82.2564 200.03 81.9984C200.132 81.7404 200.288 81.5366 200.498 81.3868C200.712 81.234 200.984 81.1575 201.315 81.1575C201.646 81.1575 201.917 81.234 202.127 81.3868C202.338 81.5366 202.492 81.7404 202.591 81.9984C202.693 82.2564 202.744 82.5463 202.744 82.868V83.126C202.744 83.3554 202.718 83.5736 202.667 83.7806C202.616 83.9845 202.534 84.1644 202.419 84.3205C202.307 84.4766 202.161 84.6008 201.979 84.6932C201.798 84.7824 201.576 84.827 201.315 84.827ZM201.315 84.4065C201.646 84.4065 201.889 84.295 202.041 84.0721C202.197 83.8459 202.276 83.4891 202.276 83.0018C202.276 82.4921 202.196 82.1274 202.037 81.9076C201.881 81.6879 201.64 81.578 201.315 81.578C200.987 81.578 200.743 81.6879 200.584 81.9076C200.428 82.1274 200.35 82.489 200.35 82.9922C200.35 83.4828 200.428 83.8411 200.584 84.0673C200.74 84.2934 200.984 84.4065 201.315 84.4065ZM203.222 84.741L204.135 83.3984L204.121 83.4939L203.265 82.1895H203.772L204.388 83.1499H204.455L205.038 82.1895H205.511L204.704 83.4605L204.718 83.3745L205.673 84.741H205.167L204.45 83.7042H204.383L203.695 84.741H203.222ZM207.54 84.827C207.278 84.827 207.055 84.7824 206.871 84.6932C206.689 84.6008 206.541 84.4766 206.426 84.3205C206.315 84.1644 206.234 83.9845 206.183 83.7806C206.132 83.5736 206.106 83.3554 206.106 83.126V82.868C206.106 82.5463 206.156 82.2564 206.254 81.9984C206.356 81.7404 206.512 81.5366 206.723 81.3868C206.936 81.234 207.208 81.1575 207.54 81.1575C207.871 81.1575 208.142 81.234 208.352 81.3868C208.562 81.5366 208.717 81.7404 208.815 81.9984C208.917 82.2564 208.968 82.5463 208.968 82.868V83.126C208.968 83.3554 208.943 83.5736 208.892 83.7806C208.841 83.9845 208.758 84.1644 208.643 84.3205C208.532 84.4766 208.385 84.6008 208.204 84.6932C208.022 84.7824 207.801 84.827 207.54 84.827ZM207.54 84.4065C207.871 84.4065 208.113 84.295 208.266 84.0721C208.422 83.8459 208.5 83.4891 208.5 83.0018C208.5 82.4921 208.42 82.1274 208.261 81.9076C208.105 81.6879 207.864 81.578 207.54 81.578C207.211 81.578 206.968 81.6879 206.809 81.9076C206.652 82.1274 206.574 82.489 206.574 82.9922C206.574 83.4828 206.652 83.8411 206.809 84.0673C206.965 84.2934 207.208 84.4065 207.54 84.4065ZM210.288 84.741V81.4824L210.498 81.6449H209.514V81.2531H210.746V84.741H210.288ZM213.095 85.6966V81.2531H213.505V85.6966H213.095ZM216.466 84.741V81.578H216.934V84.741H216.466ZM215.405 81.6735V81.2531H217.995V81.6735H215.405ZM218.413 84.741V82.1895H218.776V83.2407H218.757C218.757 82.868 218.838 82.5957 219 82.4237C219.166 82.2485 219.413 82.1609 219.741 82.1609H219.827V82.5718H219.664C219.41 82.5718 219.214 82.6403 219.077 82.7772C218.94 82.911 218.871 83.1053 218.871 83.3601V84.741H218.413ZM221.256 84.8174C220.954 84.8174 220.721 84.7187 220.559 84.5212C220.396 84.3237 220.315 84.0386 220.315 83.6659V82.1848H220.774V83.7567C220.774 83.9574 220.828 84.1151 220.936 84.2297C221.044 84.3412 221.191 84.397 221.376 84.397C221.567 84.397 221.723 84.3364 221.844 84.2154C221.965 84.0912 222.025 83.9223 222.025 83.7089V82.1848H222.484V84.741H222.121V83.6468H222.178C222.178 83.8985 222.145 84.1119 222.078 84.2871C222.011 84.4591 221.911 84.5913 221.777 84.6836C221.646 84.7728 221.479 84.8174 221.275 84.8174H221.256ZM224.457 84.827C224.234 84.827 224.041 84.7887 223.879 84.7123C223.716 84.6359 223.584 84.5355 223.482 84.4113C223.38 84.2839 223.304 84.1421 223.253 83.9861C223.205 83.83 223.181 83.6707 223.181 83.5083V83.4223C223.181 83.2566 223.205 83.0958 223.253 82.9397C223.304 82.7836 223.38 82.6434 223.482 82.5192C223.584 82.3918 223.713 82.2915 223.869 82.2182C224.029 82.1418 224.215 82.1035 224.428 82.1035C224.706 82.1035 224.933 82.1641 225.112 82.2851C225.293 82.403 225.427 82.5559 225.513 82.7438C225.602 82.9317 225.647 83.1324 225.647 83.3458V83.5513H223.382V83.2072H225.312L225.207 83.3936C225.207 83.212 225.179 83.0559 225.121 82.9253C225.064 82.7916 224.978 82.688 224.863 82.6148C224.749 82.5415 224.604 82.5049 224.428 82.5049C224.247 82.5049 224.096 82.5463 223.975 82.6291C223.857 82.7119 223.767 82.825 223.707 82.9683C223.65 83.1117 223.621 83.2773 223.621 83.4653C223.621 83.6468 223.65 83.8109 223.707 83.9574C223.767 84.1007 223.86 84.2154 223.984 84.3014C224.108 84.3842 224.266 84.4256 224.457 84.4256C224.658 84.4256 224.82 84.381 224.944 84.2918C225.072 84.2027 225.148 84.0991 225.174 83.9813H225.604C225.569 84.1565 225.499 84.3078 225.394 84.4352C225.288 84.5626 225.156 84.6597 224.997 84.7266C224.838 84.7935 224.658 84.827 224.457 84.827Z" fill="white"/>
<rect x="134.373" y="69.7604" width="44.0254" height="7.84949" rx="1.19449" fill="#1D267D"/>
<rect x="134.373" y="69.7604" width="44.0254" height="7.84949" rx="1.19449" stroke="#0C134F" stroke-width="0.341282"/>
<path d="M145.003 75.2712C144.742 75.2712 144.519 75.2266 144.334 75.1374C144.153 75.045 144.004 74.9208 143.89 74.7647C143.778 74.6086 143.697 74.4287 143.646 74.2248C143.595 74.0178 143.57 73.7996 143.57 73.5702V73.3122C143.57 72.9905 143.619 72.7006 143.718 72.4426C143.82 72.1846 143.976 71.9808 144.186 71.8311C144.399 71.6782 144.672 71.6017 145.003 71.6017C145.334 71.6017 145.605 71.6782 145.815 71.8311C146.026 71.9808 146.18 72.1846 146.279 72.4426C146.381 72.7006 146.432 72.9905 146.432 73.3122V73.5702C146.432 73.7996 146.406 74.0178 146.355 74.2248C146.304 74.4287 146.221 74.6086 146.107 74.7647C145.995 74.9208 145.849 75.045 145.667 75.1374C145.486 75.2266 145.264 75.2712 145.003 75.2712ZM145.003 74.8507C145.334 74.8507 145.576 74.7392 145.729 74.5163C145.885 74.2901 145.963 73.9334 145.963 73.446C145.963 72.9364 145.884 72.5716 145.724 72.3519C145.568 72.1321 145.328 72.0222 145.003 72.0222C144.675 72.0222 144.431 72.1321 144.272 72.3519C144.116 72.5716 144.038 72.9332 144.038 73.4365C144.038 73.927 144.116 74.2853 144.272 74.5115C144.428 74.7376 144.672 74.8507 145.003 74.8507ZM146.91 75.1852L147.823 73.8426L147.808 73.9381L146.953 72.6338H147.46L148.076 73.5941H148.143L148.726 72.6338H149.199L148.391 73.9047L148.406 73.8187L149.361 75.1852H148.855L148.138 74.1484H148.071L147.383 75.1852H146.91ZM151.227 75.2712C150.966 75.2712 150.743 75.2266 150.559 75.1374C150.377 75.045 150.229 74.9208 150.114 74.7647C150.003 74.6086 149.921 74.4287 149.87 74.2248C149.82 74.0178 149.794 73.7996 149.794 73.5702V73.3122C149.794 72.9905 149.843 72.7006 149.942 72.4426C150.044 72.1846 150.2 71.9808 150.41 71.8311C150.624 71.6782 150.896 71.6017 151.227 71.6017C151.559 71.6017 151.829 71.6782 152.04 71.8311C152.25 71.9808 152.404 72.1846 152.503 72.4426C152.605 72.7006 152.656 72.9905 152.656 73.3122V73.5702C152.656 73.7996 152.631 74.0178 152.58 74.2248C152.529 74.4287 152.446 74.6086 152.331 74.7647C152.22 74.9208 152.073 75.045 151.892 75.1374C151.71 75.2266 151.489 75.2712 151.227 75.2712ZM151.227 74.8507C151.559 74.8507 151.801 74.7392 151.954 74.5163C152.11 74.2901 152.188 73.9334 152.188 73.446C152.188 72.9364 152.108 72.5716 151.949 72.3519C151.793 72.1321 151.552 72.0222 151.227 72.0222C150.899 72.0222 150.656 72.1321 150.496 72.3519C150.34 72.5716 150.262 72.9332 150.262 73.4365C150.262 73.927 150.34 74.2853 150.496 74.5115C150.652 74.7376 150.896 74.8507 151.227 74.8507ZM153.976 75.1852V71.9266L154.186 72.0891H153.202V71.6973H154.434V75.1852H153.976ZM156.782 76.1408V71.6973H157.193V76.1408H156.782ZM160.154 75.1852V72.0222H160.622V75.1852H160.154ZM159.093 72.1177V71.6973H161.682V72.1177H159.093ZM162.1 75.1852V72.6338H162.464V73.6849H162.444C162.444 73.3122 162.526 73.0399 162.688 72.8679C162.854 72.6927 163.101 72.6051 163.429 72.6051H163.515V73.016H163.352C163.097 73.016 162.902 73.0845 162.765 73.2214C162.628 73.3552 162.559 73.5495 162.559 73.8044V75.1852H162.1ZM164.944 75.2616C164.641 75.2616 164.409 75.1629 164.246 74.9654C164.084 74.7679 164.003 74.4828 164.003 74.1101V72.629H164.461V74.2009C164.461 74.4016 164.516 74.5593 164.624 74.6739C164.732 74.7854 164.879 74.8412 165.064 74.8412C165.255 74.8412 165.411 74.7806 165.532 74.6596C165.653 74.5354 165.713 74.3666 165.713 74.1531V72.629H166.172V75.1852H165.809V74.091H165.866C165.866 74.3427 165.833 74.5561 165.766 74.7313C165.699 74.9033 165.599 75.0355 165.465 75.1278C165.334 75.217 165.167 75.2616 164.963 75.2616H164.944ZM168.145 75.2712C167.922 75.2712 167.729 75.233 167.567 75.1565C167.404 75.0801 167.272 74.9797 167.17 74.8555C167.068 74.7281 166.992 74.5863 166.941 74.4303C166.893 74.2742 166.869 74.1149 166.869 73.9525V73.8665C166.869 73.7008 166.893 73.54 166.941 73.3839C166.992 73.2278 167.068 73.0877 167.17 72.9634C167.272 72.836 167.401 72.7357 167.557 72.6624C167.717 72.586 167.903 72.5478 168.116 72.5478C168.393 72.5478 168.621 72.6083 168.8 72.7293C168.981 72.8472 169.115 73.0001 169.201 73.188C169.29 73.3759 169.335 73.5766 169.335 73.79V73.9955H167.07V73.6515H169L168.895 73.8378C168.895 73.6562 168.866 73.5002 168.809 73.3696C168.752 73.2358 168.666 73.1323 168.551 73.059C168.436 72.9857 168.291 72.9491 168.116 72.9491C167.935 72.9491 167.783 72.9905 167.662 73.0733C167.545 73.1561 167.455 73.2692 167.395 73.4126C167.337 73.5559 167.309 73.7215 167.309 73.9095C167.309 74.091 167.337 74.2551 167.395 74.4016C167.455 74.5449 167.548 74.6596 167.672 74.7456C167.796 74.8284 167.954 74.8698 168.145 74.8698C168.346 74.8698 168.508 74.8252 168.632 74.7361C168.76 74.6469 168.836 74.5433 168.862 74.4255H169.292C169.257 74.6007 169.187 74.752 169.081 74.8794C168.976 75.0068 168.844 75.104 168.685 75.1708C168.526 75.2377 168.346 75.2712 168.145 75.2712Z" fill="white"/>
<path d="M157.409 63.7869V35.4605C157.409 32.4448 159.854 30 162.87 30H208.26C211.276 30 213.721 32.4448 213.721 35.4605V59.5887" stroke="#252525" stroke-width="0.341282" stroke-linecap="round" stroke-dasharray="1.71 1.71"/>
<path d="M157.409 66.005C158.257 66.005 158.945 65.3174 158.945 64.4692C158.945 63.621 158.257 62.9334 157.409 62.9334C156.561 62.9334 155.873 63.621 155.873 64.4692C155.873 65.3174 156.561 66.005 157.409 66.005Z" fill="white" stroke="#252525" stroke-width="1.02385"/>
<path d="M213.353 62.0869L211.752 59.511C211.589 59.2493 211.696 58.9234 211.934 58.793C212.072 58.7171 212.238 58.7625 212.387 58.816L213.027 59.0468C213.476 59.2086 213.967 59.2086 214.416 59.0468L215.056 58.816C215.205 58.7625 215.371 58.7172 215.509 58.7931C215.744 58.9215 215.851 59.2395 215.697 59.5007L214.181 62.0765C213.993 62.3947 213.548 62.4003 213.353 62.0869Z" fill="#252525"/>
<defs>
<linearGradient id="paint0_linear_6353_5468" x1="9.06279" y1="40.5821" x2="41.3579" y2="108.99" gradientUnits="userSpaceOnUse">
<stop stop-color="#662B64"/>
<stop offset="1" stop-color="#456F97"/>
</linearGradient>
<linearGradient id="paint1_linear_6353_5468" x1="183.458" y1="40.5821" x2="215.754" y2="108.99" gradientUnits="userSpaceOnUse">
<stop stop-color="#662B64"/>
<stop offset="1" stop-color="#456F97"/>
</linearGradient>
</defs>
</svg>
