<svg width="24" height="30" viewBox="0 0 24 30" fill="none" xmlns="http://www.w3.org/2000/svg">
<path d="M23.2835 8.07729C23.2835 8.07729 23.2835 8.07729 23.2835 7.957L23.2033 7.73146C23.1753 7.68361 23.144 7.63835 23.1096 7.59614C23.0738 7.53249 23.0335 7.47215 22.9892 7.41571L22.8687 7.31046L22.6546 7.19017L12.6185 0.228549C12.4059 0.0791938 12.1601 0 11.9093 0C11.6585 0 11.4128 0.0791938 11.2001 0.228549L1.24434 7.19017L1.12391 7.31046L1.00347 7.41571C0.959116 7.47215 0.918844 7.53249 0.883041 7.59614C0.84864 7.63835 0.817316 7.68361 0.789372 7.73146L0.709083 7.957C0.709083 7.957 0.709083 7.957 0.709083 8.07729C0.695931 8.20718 0.695931 8.33833 0.709083 8.46822V21.6096C0.708628 21.8651 0.766136 22.1166 0.876178 22.3402C0.986221 22.5638 1.14517 22.7522 1.33801 22.8877L11.3741 29.8493C11.4358 29.8921 11.5038 29.9227 11.5748 29.9395C11.5748 29.9395 11.6417 29.9395 11.6818 29.9395C11.9082 30.0202 12.1513 30.0202 12.3777 29.9395C12.3777 29.9395 12.4446 29.9395 12.4847 29.9395C12.5558 29.9227 12.6237 29.8921 12.6855 29.8493L22.6546 22.8877C22.8475 22.7522 23.0064 22.5638 23.1164 22.3402C23.2265 22.1166 23.284 21.8651 23.2835 21.6096V8.46822C23.2967 8.33833 23.2967 8.20718 23.2835 8.07729ZM10.6113 25.8798L3.25155 20.7676V11.1747L10.6113 16.2719V25.8798ZM11.9495 13.6706L4.45588 8.46822L11.9495 3.28084L19.4431 8.46822L11.9495 13.6706ZM20.6474 20.7676L13.2876 25.8798V16.2719L20.6474 11.1747V20.7676Z" fill="black"/>
</svg>
