<svg width="33" height="50" viewBox="0 0 33 50" fill="none" xmlns="http://www.w3.org/2000/svg">
<circle cx="16.5" cy="8" r="8" fill="#F79327"/>
<line x1="16.5" y1="5" x2="16.5" y2="37" stroke="#F79327" stroke-width="5"/>
<path d="M24.7718 28.9398C25.3575 28.3542 26.3068 28.3539 26.8928 28.939C27.1876 29.232 27.3334 29.6176 27.3334 30.0001C27.3334 30.3829 27.1874 30.7682 26.8918 31.0622C26.8916 31.0624 26.8913 31.0626 26.8911 31.0628L17.559 40.395C16.9731 40.9809 16.0231 40.9809 15.4372 40.395L6.10384 31.0616C5.51791 30.4757 5.51791 29.5257 6.10384 28.9398C6.68977 28.3539 7.63973 28.3539 8.22566 28.9398L16.4987 37.2129L24.7718 28.9398Z" fill="#F79327" stroke="#F79327"/>
</svg>
