<svg width="9" height="12" viewBox="0 0 9 12" fill="none" xmlns="http://www.w3.org/2000/svg">
<path d="M7.422 5.745C7.76 5.308 7.96899 4.76604 7.96899 4.17004C7.96899 2.92004 7.08297 1.87599 5.90997 1.64099V1C5.90997 0.586 5.57397 0.25 5.15997 0.25C4.74597 0.25 4.40997 0.586 4.40997 1V1.58997H3.81897V1C3.81897 0.586 3.48297 0.25 3.06897 0.25C2.65497 0.25 2.31897 0.586 2.31897 1V1.58997H1.26501C0.851015 1.58997 0.515015 1.92597 0.515015 2.33997C0.515015 2.75397 0.851015 3.08997 1.26501 3.08997H1.79602V8.91003H1.26501C0.851015 8.91003 0.515015 9.24603 0.515015 9.66003C0.515015 10.074 0.851015 10.41 1.26501 10.41H2.31897V11C2.31897 11.414 2.65497 11.75 3.06897 11.75C3.48297 11.75 3.81897 11.414 3.81897 11V10.41H4.40997V11C4.40997 11.414 4.74597 11.75 5.15997 11.75C5.57397 11.75 5.90997 11.414 5.90997 11V10.41H5.927C7.338 10.41 8.48499 9.25296 8.48499 7.82996C8.48499 6.97096 8.063 6.21499 7.422 5.745ZM6.46899 4.17004C6.46899 4.76604 5.99401 5.25 5.41101 5.25H3.29602V3.08997H5.41101C5.99401 3.08997 6.46899 3.57404 6.46899 4.17004ZM5.927 8.91003H3.29602V6.75H5.41101H5.92798C6.51098 6.75 6.98602 7.23396 6.98602 7.82996C6.98602 8.42596 6.511 8.91003 5.927 8.91003Z" fill="#25314C"/>
</svg>
