<svg width="38" height="38" viewBox="0 0 38 38" fill="none" xmlns="http://www.w3.org/2000/svg">
<path d="M18.5432 37.086C18.7248 37.086 18.9064 37.0181 19.0451 36.8793L20.4727 35.4518C20.7487 35.1772 20.7487 34.7269 20.4727 34.4509L19.0451 33.0233C18.9078 32.8846 18.7263 32.8167 18.5462 32.8167C18.3646 32.8167 18.183 32.886 18.0457 33.0233L16.6182 34.4509C16.3421 34.7269 16.3421 35.1772 16.6182 35.4518L18.0457 36.8793C18.1845 37.0166 18.3646 37.086 18.5462 37.086H18.5432Z" fill="white"/>
<path d="M26.3844 12.5372C26.563 12.7144 26.7963 12.8029 27.028 12.8029C27.2613 12.8029 27.4945 12.7144 27.6717 12.5372L29.5067 10.7022C29.8595 10.3479 29.861 9.77073 29.5067 9.41644L27.6717 7.58146C27.4945 7.40431 27.2628 7.31573 27.0295 7.31573C26.7963 7.31573 26.5645 7.40431 26.3859 7.58146L24.5509 9.41644C24.1966 9.77073 24.1966 10.3479 24.5509 10.7022L26.3859 12.5372H26.3844Z" fill="white"/>
<path d="M18.0428 4.06263C18.1815 4.19992 18.3616 4.26931 18.5432 4.26931C18.7248 4.26931 18.9064 4.2014 19.0451 4.06263L20.4727 2.6351C20.7487 2.36052 20.7487 1.91026 20.4727 1.63421L19.0451 0.206675C18.9078 0.0693836 18.7263 0 18.5462 0C18.3661 0 18.183 0.0693836 18.0457 0.206675L16.6182 1.63421C16.3421 1.91026 16.3421 2.36052 16.6182 2.6351L18.0457 4.06263H18.0428Z" fill="white"/>
<path d="M35.4532 16.6175C35.1772 16.3414 34.7269 16.3414 34.4523 16.6175L33.0248 18.045C32.886 18.1838 32.8181 18.3639 32.8181 18.5455C32.8181 18.7271 32.886 18.9086 33.0248 19.0474L34.4523 20.4749C34.7284 20.7495 35.1772 20.751 35.4532 20.4749L36.8808 19.0474C37.0195 18.9101 37.0874 18.7285 37.0874 18.547C37.0874 18.3654 37.0195 18.1853 36.8808 18.0465L35.4532 16.619V16.6175Z" fill="white"/>
<path d="M10.703 29.5073L12.538 27.6724C12.8923 27.3195 12.8923 26.7408 12.538 26.3865L10.703 24.5516C10.5259 24.3744 10.2941 24.2844 10.0594 24.2858C9.82764 24.2858 9.59438 24.3744 9.41723 24.5516L7.58079 26.3865C7.22649 26.7408 7.22649 27.3195 7.58079 27.6724L9.41575 29.5073C9.59438 29.6845 9.82764 29.7716 10.0594 29.7731C10.2927 29.7731 10.5259 29.6845 10.703 29.5073Z" fill="white"/>
<path d="M2.63512 20.4713L4.06264 19.0438C4.2014 18.9065 4.26933 18.7249 4.26933 18.5433C4.26933 18.3618 4.19993 18.1817 4.06264 18.0429L2.63512 16.6154C2.35906 16.3393 1.9088 16.3393 1.63422 16.6154L0.206696 18.0429C0.067929 18.1817 0 18.3618 0 18.5433C0 18.7249 0.067929 18.9065 0.206696 19.0453L1.63422 20.4728C1.91027 20.7474 2.35906 20.7489 2.63512 20.4728V20.4713Z" fill="white"/>
<path d="M7.57857 19.187L9.41353 21.022C9.59216 21.1992 9.82542 21.2877 10.0587 21.2877C10.2919 21.2877 10.5251 21.1992 10.7023 21.022L12.465 19.2594H16.1378L17.8281 20.9497V24.6226L16.0655 26.3852C15.7112 26.7395 15.7112 27.3167 16.0655 27.671L17.9005 29.506C18.2548 29.8603 18.832 29.8603 19.1863 29.506L20.9489 27.7434H24.6218L26.3845 29.506C26.7388 29.8603 27.3175 29.8603 27.6718 29.506L29.5068 27.671C29.8611 27.3167 29.8611 26.7395 29.5068 26.3852L27.7441 24.6226V20.9512L29.5082 19.187C29.8611 18.8327 29.8625 18.2555 29.5082 17.9012L27.6733 16.0648C27.4961 15.8876 27.2643 15.7991 27.0311 15.8005C26.7978 15.8005 26.566 15.8876 26.3874 16.0648L24.5525 17.9012C24.1982 18.2555 24.1982 18.8327 24.5525 19.187L26.3151 20.9497V24.6211L24.6248 26.3129H20.9519L19.2616 24.6211V20.9482L21.0242 19.187C21.38 18.8327 21.38 18.2541 21.0242 17.8998L19.1893 16.0648C18.835 15.7105 18.2577 15.7105 17.902 16.0648L16.1393 17.8274H12.4664L10.7038 16.0648L10.7776 16.1371V12.4642L12.4664 10.7739H16.1393L17.902 12.5366C18.0806 12.7137 18.3138 12.8023 18.5456 12.8023C18.7774 12.8023 19.0121 12.7137 19.1893 12.5366L21.0242 10.7016C21.3785 10.3473 21.3785 9.77006 21.0242 9.41576L19.1893 7.58079C19.0121 7.40364 18.7803 7.31506 18.5471 7.31506C18.3138 7.31506 18.0806 7.40364 17.9034 7.58079L16.1408 9.3449H12.4679L10.7038 7.58079C10.3495 7.22649 9.77226 7.22649 9.41649 7.58079L7.58152 9.41576C7.22722 9.77006 7.2287 10.3473 7.58152 10.7016L9.34415 12.4642V16.1371L9.41796 16.0648L7.58152 17.9012C7.22722 18.2555 7.22722 18.8327 7.58152 19.187H7.57857Z" fill="#F79327"/>
</svg>
