<svg width="96" height="96" viewBox="0 0 96 96" fill="none" xmlns="http://www.w3.org/2000/svg">
<path d="M72.7582 37.1324L72.7582 37.1324L72.755 37.14C72.5299 37.6879 72.1478 38.1568 71.6566 38.4879C71.1661 38.8184 70.5889 38.9966 69.9975 39H54C51.0826 39 48.2847 37.8411 46.2218 35.7782C44.1589 33.7153 43 30.9174 43 28V16V15H42H22C20.6739 15 19.4021 15.5268 18.4645 16.4645C17.5268 17.4021 17 18.6739 17 20V76C17 77.3261 17.5268 78.5979 18.4645 79.5355C19.4022 80.4732 20.6739 81 22 81H46C46.7957 81 47.5587 81.3161 48.1213 81.8787C48.6839 82.4413 49 83.2043 49 84C49 84.7957 48.6839 85.5587 48.1213 86.1213C47.5587 86.6839 46.7957 87 46 87H22C19.0826 87 16.2847 85.8411 14.2218 83.7782C12.1589 81.7153 11 78.9174 11 76V20C11 17.0826 12.1589 14.2847 14.2218 12.2218C16.2847 10.1589 19.0826 9 22 9H46.0668L47.0237 9.34174L47.2562 9.42478L47.4715 9.3942C47.7151 9.52643 47.9413 9.68913 48.1443 9.87856L72.1282 33.8624C72.1289 33.8631 72.1297 33.8639 72.1304 33.8646C72.5455 34.2862 72.8266 34.821 72.9386 35.4019C73.0507 35.9839 72.9879 36.586 72.7582 37.1324ZM50.7071 20.9329L49 19.2258V21.64V28C49 29.3261 49.5268 30.5979 50.4645 31.5355C51.4021 32.4732 52.6739 33 54 33H60.36H62.7742L61.0671 31.2929L50.7071 20.9329ZM72.545 81.2816L71.9959 80.9246L71.4492 81.2854L63.5768 86.4804C63.5756 86.4812 63.5745 86.4819 63.5733 86.4827C63.1314 86.7677 62.6222 86.9317 62.0969 86.9579C61.5726 86.9841 61.0507 86.8723 60.5832 86.6337C60.1072 86.3786 59.7088 85.9998 59.4301 85.5371C59.1503 85.0726 59.0017 84.5409 59 83.9986C59 83.9982 59 83.9978 59 83.9973L59 52C59 51.2043 59.3161 50.4413 59.8787 49.8787C60.4413 49.3161 61.2043 49 62 49H82C82.7957 49 83.5587 49.3161 84.1213 49.8787C84.6839 50.4413 85 51.2043 85 52V83.9808C84.9789 84.4924 84.8273 84.9902 84.5593 85.4268C84.2884 85.868 83.908 86.2317 83.455 86.4823C83.002 86.733 82.4919 86.8621 81.9741 86.8572C81.4645 86.8524 80.9646 86.7178 80.5216 86.4664L72.545 81.2816ZM77.4433 77.3107L79 78.354V76.48V56V55H78H66H65V56V76.48V78.354L66.5567 77.3107L70.3167 74.7907L70.32 74.7885C70.8161 74.4532 71.4012 74.274 72 74.274C72.5988 74.274 73.1839 74.4532 73.68 74.7885L73.6833 74.7907L77.4433 77.3107ZM34 39H30C29.2044 39 28.4413 38.6839 27.8787 38.1213C27.3161 37.5587 27 36.7956 27 36C27 35.2044 27.3161 34.4413 27.8787 33.8787C28.4413 33.3161 29.2044 33 30 33H34C34.7956 33 35.5587 33.3161 36.1213 33.8787C36.6839 34.4413 37 35.2044 37 36C37 36.7956 36.6839 37.5587 36.1213 38.1213C35.5587 38.6839 34.7956 39 34 39ZM27.8787 65.8787C28.4413 65.3161 29.2043 65 30 65H46C46.7957 65 47.5587 65.3161 48.1213 65.8787C48.6839 66.4413 49 67.2043 49 68C49 68.7957 48.6839 69.5587 48.1213 70.1213C47.5587 70.6839 46.7957 71 46 71H30C29.2043 71 28.4413 70.6839 27.8787 70.1213C27.3161 69.5587 27 68.7957 27 68C27 67.2043 27.3161 66.4413 27.8787 65.8787ZM30 49H46C46.7957 49 47.5587 49.3161 48.1213 49.8787C48.6839 50.4413 49 51.2043 49 52C49 52.7957 48.6839 53.5587 48.1213 54.1213C47.5587 54.6839 46.7957 55 46 55H30C29.2044 55 28.4413 54.6839 27.8787 54.1213C27.3161 53.5587 27 52.7957 27 52C27 51.2043 27.3161 50.4413 27.8787 49.8787C28.4413 49.3161 29.2044 49 30 49Z" fill="#FAFAFA" stroke="#0C071D" stroke-width="2"/>
</svg>
