<svg width="27" height="24" viewBox="0 0 27 24" fill="none" xmlns="http://www.w3.org/2000/svg">
<path d="M21.0837 14H23.2503C23.5376 14 23.8132 13.8946 24.0164 13.7071C24.2195 13.5196 24.3337 13.2652 24.3337 13C24.3337 12.7348 24.2195 12.4804 24.0164 12.2929C23.8132 12.1054 23.5376 12 23.2503 12H21.0837V11C21.0741 10.5393 20.9976 10.0819 20.8562 9.64C21.8745 9.27962 22.7512 8.64391 23.3717 7.81603C23.9921 6.98815 24.3274 6.00667 24.3337 5C24.3337 4.73478 24.2195 4.48043 24.0164 4.29289C23.8132 4.10536 23.5376 4 23.2503 4C22.963 4 22.6875 4.10536 22.4843 4.29289C22.2811 4.48043 22.167 4.73478 22.167 5C22.166 5.64484 21.94 6.27224 21.5224 6.7892C21.1048 7.30615 20.5179 7.68514 19.8487 7.87C19.3144 7.23797 18.6233 6.7338 17.8337 6.4C17.8449 6.26687 17.8449 6.13313 17.8337 6C17.8337 4.93913 17.3771 3.92172 16.5645 3.17157C15.7518 2.42143 14.6496 2 13.5003 2C12.3511 2 11.2489 2.42143 10.4362 3.17157C9.62354 3.92172 9.16699 4.93913 9.16699 6C9.15578 6.13313 9.15578 6.26687 9.16699 6.4C8.36166 6.72831 7.65516 7.23288 7.10866 7.87C6.44748 7.67807 5.87008 7.29604 5.4608 6.77971C5.05151 6.26338 4.83177 5.63979 4.83366 5C4.83366 4.73478 4.71952 4.48043 4.51636 4.29289C4.31319 4.10536 4.03764 4 3.75033 4C3.46301 4 3.18746 4.10536 2.98429 4.29289C2.78113 4.48043 2.66699 4.73478 2.66699 5C2.67324 6.00667 3.00853 6.98815 3.62899 7.81603C4.24946 8.64391 5.12619 9.27962 6.14449 9.64C6.00309 10.0819 5.92657 10.5393 5.91699 11V12H3.75033C3.46301 12 3.18746 12.1054 2.98429 12.2929C2.78113 12.4804 2.66699 12.7348 2.66699 13C2.66699 13.2652 2.78113 13.5196 2.98429 13.7071C3.18746 13.8946 3.46301 14 3.75033 14H5.91699V15C5.91793 15.4635 5.96873 15.9258 6.06866 16.38C5.06796 16.7502 4.2097 17.3876 3.6037 18.2106C2.99771 19.0336 2.67156 20.0049 2.66699 21C2.66699 21.2652 2.78113 21.5196 2.98429 21.7071C3.18746 21.8946 3.46301 22 3.75033 22C4.03764 22 4.31319 21.8946 4.51636 21.7071C4.71952 21.5196 4.83366 21.2652 4.83366 21C4.83659 20.4168 5.02362 19.847 5.37187 19.3604C5.72012 18.8737 6.21449 18.4913 6.79449 18.26C7.43876 19.3862 8.40368 20.3289 9.58534 20.9864C10.767 21.6439 12.1206 21.9914 13.5003 21.9914C14.8801 21.9914 16.2337 21.6439 17.4153 20.9864C18.597 20.3289 19.5619 19.3862 20.2062 18.26C20.7862 18.4913 21.2805 18.8737 21.6288 19.3604C21.977 19.847 22.1641 20.4168 22.167 21C22.167 21.2652 22.2811 21.5196 22.4843 21.7071C22.6875 21.8946 22.963 22 23.2503 22C23.5376 22 23.8132 21.8946 24.0164 21.7071C24.2195 21.5196 24.3337 21.2652 24.3337 21C24.3291 20.0049 24.0029 19.0336 23.3969 18.2106C22.791 17.3876 21.9327 16.7502 20.932 16.38C21.0319 15.9258 21.0827 15.4635 21.0837 15V14ZM12.417 19.9C11.1935 19.6695 10.0939 19.0558 9.30424 18.1629C8.51459 17.27 8.0834 16.1527 8.08366 15V11C8.08366 10.2044 8.42607 9.44129 9.03556 8.87868C9.64506 8.31607 10.4717 8 11.3337 8H12.417V19.9ZM11.3337 6C11.3337 5.46957 11.5619 4.96086 11.9683 4.58579C12.3746 4.21071 12.9257 4 13.5003 4C14.075 4 14.6261 4.21071 15.0324 4.58579C15.4387 4.96086 15.667 5.46957 15.667 6H11.3337ZM18.917 15C18.9172 16.1527 18.4861 17.27 17.6964 18.1629C16.9068 19.0558 15.8071 19.6695 14.5837 19.9V8H15.667C16.5289 8 17.3556 8.31607 17.9651 8.87868C18.5746 9.44129 18.917 10.2044 18.917 11V15Z" fill="#6C5E70"/>
</svg>
