<svg width="20" height="20" viewBox="0 0 20 20" fill="none" xmlns="http://www.w3.org/2000/svg">
<path d="M10.0008 1.875C5.52166 1.875 1.87746 5.51919 1.87746 9.99919C1.87746 11.1659 2.13671 12.34 2.62921 13.4016C2.72504 13.6041 2.73244 13.8608 2.65077 14.1167L1.95009 16.2008C1.77509 16.7275 1.91092 17.3 2.30592 17.6941C2.58592 17.9741 2.95577 18.1242 3.3366 18.1242C3.4916 18.1242 3.64754 18.0992 3.80088 18.0483L5.87506 17.3517C6.13922 17.2675 6.39672 17.2734 6.60422 17.3734C7.66006 17.8642 8.83418 18.1233 10 18.1233C14.48 18.1233 18.1242 14.4792 18.1242 9.99919C18.1242 5.51919 14.4808 1.875 10.0008 1.875ZM10.0008 16.8733C9.015 16.8733 8.0233 16.6542 7.13747 16.2425C6.64747 16.0084 6.06419 15.9791 5.48586 16.1641L3.40415 16.8634C3.29998 16.8984 3.22492 16.845 3.18992 16.81C3.15492 16.775 3.10161 16.7008 3.13661 16.5967L3.83994 14.5042C4.02077 13.935 3.99163 13.3525 3.7608 12.8683C3.34663 11.9767 3.12746 10.985 3.12746 9.99832C3.12746 6.20832 6.21083 3.12419 10.0008 3.12419C13.7917 3.12419 16.875 6.20749 16.875 9.99832C16.875 13.7892 13.7917 16.8733 10.0008 16.8733ZM9.19171 8.77502L7.96673 10L9.19171 11.225C9.43587 11.4691 9.43587 11.865 9.19171 12.1092C9.07004 12.2308 8.91002 12.2925 8.75002 12.2925C8.59002 12.2925 8.42999 12.2317 8.30832 12.1092L6.64166 10.4425C6.39749 10.1983 6.39749 9.80248 6.64166 9.55831L8.30832 7.89164C8.55249 7.64748 8.94835 7.64748 9.19252 7.89164C9.43585 8.13498 9.43587 8.53169 9.19171 8.77502ZM13.3584 9.55831C13.6025 9.80248 13.6025 10.1983 13.3584 10.4425L11.6917 12.1092C11.57 12.2308 11.41 12.2925 11.25 12.2925C11.09 12.2925 10.93 12.2317 10.8083 12.1092C10.5642 11.865 10.5642 11.4691 10.8083 11.225L12.0333 10L10.8083 8.77502C10.5642 8.53086 10.5642 8.13499 10.8083 7.89083C11.0525 7.64666 11.4484 7.64666 11.6925 7.89083L13.3584 9.55831Z" fill="#6C5E70"/>
</svg>
