<svg width="7" height="12" viewBox="0 0 7 12" fill="none" xmlns="http://www.w3.org/2000/svg">
<path d="M6.47198 8.01697C6.47198 6.81497 5.65699 5.76902 4.48599 5.47302L2.87799 5.07397C2.62999 5.01197 2.41901 4.87304 2.26001 4.67004C2.11001 4.48004 2.02701 4.23599 2.02701 3.98499C2.02701 3.36599 2.52999 2.86304 3.14899 2.86304H3.849C4.421 2.86304 4.9 3.29304 4.965 3.86304C5.011 4.27504 5.37801 4.57302 5.79401 4.52502C6.20601 4.47902 6.50199 4.10804 6.45599 3.69604C6.32099 2.49404 5.39099 1.56695 4.22699 1.39795V1C4.22699 0.586 3.89099 0.25 3.47699 0.25C3.06299 0.25 2.72699 0.586 2.72699 1V1.40405C1.48199 1.60805 0.527008 2.68203 0.527008 3.98303C0.527008 4.57003 0.72401 5.14404 1.07901 5.59204C1.43501 6.05104 1.943 6.38298 2.513 6.52698L4.121 6.92603C4.622 7.05303 4.97198 7.50101 4.97198 8.01501C4.97198 8.31301 4.855 8.59401 4.642 8.80701C4.429 9.02001 4.14801 9.13696 3.85001 9.13696H3.14999C2.57799 9.13696 2.099 8.70696 2.034 8.13696C1.988 7.72496 1.61199 7.42498 1.20499 7.47498C0.792987 7.52098 0.496999 7.89195 0.542999 8.30396C0.675999 9.49096 1.58399 10.412 2.72699 10.597V11C2.72699 11.414 3.06299 11.75 3.47699 11.75C3.89099 11.75 4.22699 11.414 4.22699 11V10.6021C4.78199 10.5211 5.297 10.275 5.702 9.87C6.199 9.373 6.47198 8.71497 6.47198 8.01697Z" fill="white"/>
</svg>
