<svg width="81" height="81" viewBox="0 0 81 81" fill="none" xmlns="http://www.w3.org/2000/svg">
<mask id="path-1-inside-1_5894_2107" fill="white">
<path d="M40 72H12C10.9391 72 9.92172 71.5786 9.17157 70.8284C8.42143 70.0783 8 69.0609 8 68V12C8 10.9391 8.42143 9.92172 9.17157 9.17157C9.92172 8.42143 10.9391 8 12 8H32V20C32 23.1826 33.2643 26.2348 35.5147 28.4853C37.7652 30.7357 40.8174 32 44 32H56V36C56 37.0609 56.4214 38.0783 57.1716 38.8284C57.9217 39.5786 58.9391 40 60 40C61.0609 40 62.0783 39.5786 62.8284 38.8284C63.5786 38.0783 64 37.0609 64 36V28C64 28 64 28 64 27.76C63.9583 27.3925 63.8779 27.0305 63.76 26.68V26.32C63.5677 25.9087 63.3111 25.5307 63 25.2L39 1.2C38.6693 0.888865 38.2913 0.632324 37.88 0.44C37.7606 0.42304 37.6394 0.42304 37.52 0.44C37.1137 0.206965 36.6649 0.0573768 36.2 0H12C8.8174 0 5.76516 1.26428 3.51472 3.51472C1.26428 5.76516 0 8.8174 0 12V68C0 71.1826 1.26428 74.2348 3.51472 76.4853C5.76516 78.7357 8.8174 80 12 80H40C41.0609 80 42.0783 79.5786 42.8284 78.8284C43.5786 78.0783 44 77.0609 44 76C44 74.9391 43.5786 73.9217 42.8284 73.1716C42.0783 72.4214 41.0609 72 40 72ZM40 13.64L50.36 24H44C42.9391 24 41.9217 23.5786 41.1716 22.8284C40.4214 22.0783 40 21.0609 40 20V13.64ZM20 24C18.9391 24 17.9217 24.4214 17.1716 25.1716C16.4214 25.9217 16 26.9391 16 28C16 29.0609 16.4214 30.0783 17.1716 30.8284C17.9217 31.5786 18.9391 32 20 32H24C25.0609 32 26.0783 31.5786 26.8284 30.8284C27.5786 30.0783 28 29.0609 28 28C28 26.9391 27.5786 25.9217 26.8284 25.1716C26.0783 24.4214 25.0609 24 24 24H20ZM78.84 73.16L74.16 68.52C75.6558 65.909 76.2545 62.8797 75.8644 59.8959C75.4743 56.9122 74.1169 54.1386 72 52C70.0521 49.9827 67.5418 48.5988 64.7961 48.0286C62.0504 47.4583 59.1967 47.7283 56.6066 48.8031C54.0165 49.878 51.8102 51.708 50.2751 54.0548C48.7399 56.4015 47.9472 59.1562 48 61.96C47.9862 64.3727 48.6035 66.7472 49.7905 68.8478C50.9775 70.9484 52.693 72.7022 54.767 73.9352C56.8409 75.1682 59.2011 75.8377 61.6136 75.8771C64.026 75.9165 66.4069 75.3246 68.52 74.16L73.16 78.84C73.5319 79.2149 73.9743 79.5125 74.4617 79.7156C74.9491 79.9186 75.472 80.0232 76 80.0232C76.528 80.0232 77.0509 79.9186 77.5383 79.7156C78.0257 79.5125 78.4681 79.2149 78.84 78.84C79.2149 78.4681 79.5125 78.0257 79.7156 77.5383C79.9186 77.0509 80.0232 76.528 80.0232 76C80.0232 75.472 79.9186 74.9491 79.7156 74.4617C79.5125 73.9743 79.2149 73.5319 78.84 73.16ZM66.16 66.16C65.0175 67.2344 63.5083 67.8326 61.94 67.8326C60.3717 67.8326 58.8625 67.2344 57.72 66.16C56.6189 65.0392 56.0013 63.5312 56 61.96C55.9917 61.171 56.1434 60.3885 56.4459 59.6598C56.7484 58.9311 57.1954 58.2712 57.76 57.72C58.8264 56.6594 60.2566 56.0444 61.76 56C62.5687 55.9503 63.3789 56.0683 64.1399 56.3465C64.9008 56.6247 65.5961 57.0572 66.182 57.6168C66.7679 58.1765 67.2318 58.8511 67.5447 59.5985C67.8575 60.3459 68.0126 61.1499 68 61.96C67.9669 63.5484 67.3052 65.0588 66.16 66.16ZM44 40H20C18.9391 40 17.9217 40.4214 17.1716 41.1716C16.4214 41.9217 16 42.9391 16 44C16 45.0609 16.4214 46.0783 17.1716 46.8284C17.9217 47.5786 18.9391 48 20 48H44C45.0609 48 46.0783 47.5786 46.8284 46.8284C47.5786 46.0783 48 45.0609 48 44C48 42.9391 47.5786 41.9217 46.8284 41.1716C46.0783 40.4214 45.0609 40 44 40ZM36 64C37.0609 64 38.0783 63.5786 38.8284 62.8284C39.5786 62.0783 40 61.0609 40 60C40 58.9391 39.5786 57.9217 38.8284 57.1716C38.0783 56.4214 37.0609 56 36 56H20C18.9391 56 17.9217 56.4214 17.1716 57.1716C16.4214 57.9217 16 58.9391 16 60C16 61.0609 16.4214 62.0783 17.1716 62.8284C17.9217 63.5786 18.9391 64 20 64H36Z"/>
</mask>
<path d="M40 72H12C10.9391 72 9.92172 71.5786 9.17157 70.8284C8.42143 70.0783 8 69.0609 8 68V12C8 10.9391 8.42143 9.92172 9.17157 9.17157C9.92172 8.42143 10.9391 8 12 8H32V20C32 23.1826 33.2643 26.2348 35.5147 28.4853C37.7652 30.7357 40.8174 32 44 32H56V36C56 37.0609 56.4214 38.0783 57.1716 38.8284C57.9217 39.5786 58.9391 40 60 40C61.0609 40 62.0783 39.5786 62.8284 38.8284C63.5786 38.0783 64 37.0609 64 36V28C64 28 64 28 64 27.76C63.9583 27.3925 63.8779 27.0305 63.76 26.68V26.32C63.5677 25.9087 63.3111 25.5307 63 25.2L39 1.2C38.6693 0.888865 38.2913 0.632324 37.88 0.44C37.7606 0.42304 37.6394 0.42304 37.52 0.44C37.1137 0.206965 36.6649 0.0573768 36.2 0H12C8.8174 0 5.76516 1.26428 3.51472 3.51472C1.26428 5.76516 0 8.8174 0 12V68C0 71.1826 1.26428 74.2348 3.51472 76.4853C5.76516 78.7357 8.8174 80 12 80H40C41.0609 80 42.0783 79.5786 42.8284 78.8284C43.5786 78.0783 44 77.0609 44 76C44 74.9391 43.5786 73.9217 42.8284 73.1716C42.0783 72.4214 41.0609 72 40 72ZM40 13.64L50.36 24H44C42.9391 24 41.9217 23.5786 41.1716 22.8284C40.4214 22.0783 40 21.0609 40 20V13.64ZM20 24C18.9391 24 17.9217 24.4214 17.1716 25.1716C16.4214 25.9217 16 26.9391 16 28C16 29.0609 16.4214 30.0783 17.1716 30.8284C17.9217 31.5786 18.9391 32 20 32H24C25.0609 32 26.0783 31.5786 26.8284 30.8284C27.5786 30.0783 28 29.0609 28 28C28 26.9391 27.5786 25.9217 26.8284 25.1716C26.0783 24.4214 25.0609 24 24 24H20ZM78.84 73.16L74.16 68.52C75.6558 65.909 76.2545 62.8797 75.8644 59.8959C75.4743 56.9122 74.1169 54.1386 72 52C70.0521 49.9827 67.5418 48.5988 64.7961 48.0286C62.0504 47.4583 59.1967 47.7283 56.6066 48.8031C54.0165 49.878 51.8102 51.708 50.2751 54.0548C48.7399 56.4015 47.9472 59.1562 48 61.96C47.9862 64.3727 48.6035 66.7472 49.7905 68.8478C50.9775 70.9484 52.693 72.7022 54.767 73.9352C56.8409 75.1682 59.2011 75.8377 61.6136 75.8771C64.026 75.9165 66.4069 75.3246 68.52 74.16L73.16 78.84C73.5319 79.2149 73.9743 79.5125 74.4617 79.7156C74.9491 79.9186 75.472 80.0232 76 80.0232C76.528 80.0232 77.0509 79.9186 77.5383 79.7156C78.0257 79.5125 78.4681 79.2149 78.84 78.84C79.2149 78.4681 79.5125 78.0257 79.7156 77.5383C79.9186 77.0509 80.0232 76.528 80.0232 76C80.0232 75.472 79.9186 74.9491 79.7156 74.4617C79.5125 73.9743 79.2149 73.5319 78.84 73.16ZM66.16 66.16C65.0175 67.2344 63.5083 67.8326 61.94 67.8326C60.3717 67.8326 58.8625 67.2344 57.72 66.16C56.6189 65.0392 56.0013 63.5312 56 61.96C55.9917 61.171 56.1434 60.3885 56.4459 59.6598C56.7484 58.9311 57.1954 58.2712 57.76 57.72C58.8264 56.6594 60.2566 56.0444 61.76 56C62.5687 55.9503 63.3789 56.0683 64.1399 56.3465C64.9008 56.6247 65.5961 57.0572 66.182 57.6168C66.7679 58.1765 67.2318 58.8511 67.5447 59.5985C67.8575 60.3459 68.0126 61.1499 68 61.96C67.9669 63.5484 67.3052 65.0588 66.16 66.16ZM44 40H20C18.9391 40 17.9217 40.4214 17.1716 41.1716C16.4214 41.9217 16 42.9391 16 44C16 45.0609 16.4214 46.0783 17.1716 46.8284C17.9217 47.5786 18.9391 48 20 48H44C45.0609 48 46.0783 47.5786 46.8284 46.8284C47.5786 46.0783 48 45.0609 48 44C48 42.9391 47.5786 41.9217 46.8284 41.1716C46.0783 40.4214 45.0609 40 44 40ZM36 64C37.0609 64 38.0783 63.5786 38.8284 62.8284C39.5786 62.0783 40 61.0609 40 60C40 58.9391 39.5786 57.9217 38.8284 57.1716C38.0783 56.4214 37.0609 56 36 56H20C18.9391 56 17.9217 56.4214 17.1716 57.1716C16.4214 57.9217 16 58.9391 16 60C16 61.0609 16.4214 62.0783 17.1716 62.8284C17.9217 63.5786 18.9391 64 20 64H36Z" fill="#FAFAFA" stroke="#0C071D" stroke-width="4" mask="url(#path-1-inside-1_5894_2107)"/>
</svg>
