<svg width="20" height="20" viewBox="0 0 20 20" fill="none" xmlns="http://www.w3.org/2000/svg">
<path d="M9.66667 3.33332V2.83332H9.16667H5C4.64638 2.83332 4.30724 2.9738 4.05719 3.22385C3.80714 3.4739 3.66667 3.81303 3.66667 4.16666V15.8333C3.66667 16.1869 3.80714 16.5261 4.05719 16.7761C4.30724 17.0262 4.64638 17.1667 5 17.1667H10.8333C10.9217 17.1667 11.0065 17.2018 11.069 17.2643C11.1315 17.3268 11.1667 17.4116 11.1667 17.5C11.1667 17.5884 11.1315 17.6732 11.069 17.7357C11.0065 17.7982 10.9217 17.8333 10.8333 17.8333H5C4.46957 17.8333 3.96086 17.6226 3.58579 17.2475C3.21071 16.8725 3 16.3638 3 15.8333V4.16666C3 3.63622 3.21071 3.12752 3.58579 2.75244C3.96086 2.37737 4.46957 2.16666 5 2.16666H9.99269C10.0203 2.17472 10.0471 2.18563 10.0726 2.19924L10.2246 2.28057L10.2728 2.27214C10.2745 2.27364 10.2762 2.27515 10.2779 2.27668L15.265 7.26374C15.2714 7.27074 15.2775 7.27796 15.2833 7.28539V7.30682L15.3094 7.38437C15.3202 7.41637 15.3282 7.44922 15.3333 7.48256V7.48261V7.48275V7.4829V7.48304V7.48318V7.48332V7.48346V7.4836V7.48374V7.48388V7.48402V7.48415V7.48429V7.48442V7.48456V7.48469V7.48482V7.48496V7.48509V7.48522V7.48535V7.48548V7.4856V7.48573V7.48586V7.48598V7.48611V7.48623V7.48636V7.48648V7.4866V7.48672V7.48684V7.48696V7.48708V7.4872V7.48732V7.48744V7.48755V7.48767V7.48778V7.4879V7.48801V7.48812V7.48823V7.48835V7.48846V7.48857V7.48868V7.48878V7.48889V7.489V7.4891V7.48921V7.48932V7.48942V7.48952V7.48963V7.48973V7.48983V7.48993V7.49003V7.49013V7.49023V7.49033V7.49043V7.49052V7.49062V7.49071V7.49081V7.4909V7.491V7.49109V7.49118V7.49127V7.49137V7.49146V7.49155V7.49164V7.49172V7.49181V7.4919V7.49199V7.49207V7.49216V7.49224V7.49233V7.49241V7.49249V7.49258V7.49266V7.49274V7.49282V7.4929V7.49298V7.49306V7.49313V7.49321V7.49329V7.49337V7.49344V7.49352V7.49359V7.49367V7.49374V7.49381V7.49389V7.49396V7.49403V7.4941V7.49417V7.49424V7.49431V7.49438V7.49444V7.49451V7.49458V7.49464V7.49471V7.49477V7.49484V7.4949V7.49497V7.49503V7.49509V7.49515V7.49522V7.49528V7.49534V7.4954V7.49546V7.49552V7.49557V7.49563V7.49569V7.49575V7.4958V7.49586V7.49591V7.49597V7.49602V7.49608V7.49613V7.49618V7.49624V7.49629V7.49634V7.49639V7.49644V7.49649V7.49654V7.49659V7.49664V7.49669V7.49673V7.49678V7.49683V7.49687V7.49692V7.49696V7.49701V7.49705V7.4971V7.49714V7.49718V7.49723V7.49727V7.49731V7.49735V7.49739V7.49743V7.49747V7.49751V7.49755V7.49759V7.49763V7.49767V7.49771V7.49774V7.49778V7.49782V7.49785V7.49789V7.49792V7.49796V7.49799V7.49803V7.49806V7.49809V7.49813V7.49816V7.49819V7.49822V7.49825V7.49829V7.49832V7.49835V7.49838V7.49841V7.49844V7.49846V7.49849V7.49852V7.49855V7.49858V7.4986V7.49863V7.49866V7.49868V7.49871V7.49873V7.49876V7.49878V7.49881V7.49883V7.49885V7.49888V7.4989V7.49892V7.49895V7.49897V7.49899V7.49901V7.49903V7.49905V7.49907V7.49909V7.49911V7.49913V7.49915V7.49917V7.49919V7.49921V7.49923V7.49924V7.49926V7.49928V7.4993V7.49931V7.49933V7.49935V7.49936V7.49938V7.49939V7.49941V7.49942V7.49944V7.49945V7.49947V7.49948V7.49949V7.49951V7.49952V7.49953V7.49955V7.49956V7.49957V7.49958V7.49959V7.49961V7.49962V7.49963V7.49964V7.49965V7.49966V7.49967V7.49968V7.49969V7.4997V7.49971V7.49972V7.49973V7.49974V7.49974V7.49975V7.49976V7.49977V7.49978V7.49978V7.49979V7.49981V7.49982V7.49983V7.49984V7.49986V7.49987V7.49988V7.49989V7.4999V7.49991V7.49991V7.49992V7.49993V7.49994V7.49995V7.49996V7.49997V7.49998V7.49999V9.99999C15.3333 10.0884 15.2982 10.1732 15.2357 10.2357C15.1732 10.2982 15.0884 10.3333 15 10.3333C14.9116 10.3333 14.8268 10.2982 14.7643 10.2357C14.7018 10.1732 14.6667 10.0884 14.6667 9.99999V8.33332V7.83332H14.1667H11.6667C11.1362 7.83332 10.6275 7.62261 10.2525 7.24754C9.87738 6.87246 9.66667 6.36376 9.66667 5.83332V3.33332ZM11.1869 4.15477L10.3333 3.30122V4.50832V5.83332C10.3333 6.18695 10.4738 6.52608 10.7239 6.77613C10.9739 7.02618 11.313 7.16666 11.6667 7.16666H12.9917H14.1988L13.3452 6.3131L11.1869 4.15477ZM16.9033 15.5938L16.9062 15.5967C16.9375 15.6276 16.9623 15.6645 16.9792 15.7051C16.9961 15.7457 17.0048 15.7893 17.0048 15.8333C17.0048 15.8773 16.9961 15.9209 16.9792 15.9615C16.9623 16.0021 16.9375 16.039 16.9062 16.07L16.9048 16.0714L15.2428 17.7334C15.2118 17.7623 15.1755 17.7851 15.1359 17.8005L15.1251 17.8047L15.1145 17.8093C15.0785 17.8253 15.0394 17.8335 15 17.8335C14.9606 17.8335 14.9215 17.8253 14.8855 17.8093L14.8749 17.8047L14.8641 17.8005C14.8245 17.7851 14.7882 17.7624 14.7572 17.7334L13.0952 16.0714C13.0321 16.0083 12.9966 15.9226 12.9966 15.8333C12.9966 15.744 13.0321 15.6584 13.0952 15.5952L12.7417 15.2417L13.0952 15.5952C13.1584 15.5321 13.244 15.4966 13.3333 15.4966C13.4215 15.4966 13.5062 15.5312 13.5691 15.5929L13.8072 15.8392L14.6667 16.7283V15.4917V13.3333C14.6667 13.2449 14.7018 13.1601 14.7643 13.0976C14.8268 13.0351 14.9116 13 15 13C15.0884 13 15.1732 13.0351 15.2357 13.0976C15.2982 13.1601 15.3333 13.2449 15.3333 13.3333V15.4917V16.7283L16.1928 15.8392L16.4317 15.592C16.4624 15.5616 16.4986 15.5374 16.5385 15.5208C16.5791 15.5039 16.6227 15.4952 16.6667 15.4952C16.7107 15.4952 16.7542 15.5039 16.7949 15.5208C16.8355 15.5377 16.8723 15.5625 16.9033 15.5938ZM6.43096 7.26429C6.49348 7.20178 6.57826 7.16666 6.66667 7.16666H7.5C7.5884 7.16666 7.67319 7.20178 7.7357 7.26429C7.79821 7.3268 7.83333 7.41158 7.83333 7.49999C7.83333 7.5884 7.79821 7.67318 7.7357 7.73569C7.67319 7.7982 7.5884 7.83332 7.5 7.83332H6.66667C6.57826 7.83332 6.49348 7.7982 6.43096 7.73569C6.36845 7.67318 6.33333 7.58839 6.33333 7.49999C6.33333 7.41158 6.36845 7.3268 6.43096 7.26429ZM10.2357 13.931L10.5185 13.6481L10.2357 13.931C10.2982 13.9935 10.3333 14.0782 10.3333 14.1667C10.3333 14.2551 10.2982 14.3398 10.2357 14.4024C10.1732 14.4649 10.0884 14.5 10 14.5H6.66667C6.57826 14.5 6.49348 14.4649 6.43096 14.4024C6.36845 14.3398 6.33333 14.2551 6.33333 14.1667C6.33333 14.0782 6.36845 13.9935 6.43096 13.931C6.49348 13.8684 6.57826 13.8333 6.66667 13.8333H10C10.0884 13.8333 10.1732 13.8684 10.2357 13.931ZM6.66667 10.5H11.6667C11.7551 10.5 11.8399 10.5351 11.9024 10.5976C11.9649 10.6601 12 10.7449 12 10.8333C12 10.9217 11.9649 11.0065 11.9024 11.069C11.8399 11.1315 11.7551 11.1667 11.6667 11.1667H6.66667C6.57826 11.1667 6.49348 11.1315 6.43096 11.069C6.36845 11.0065 6.33333 10.9217 6.33333 10.8333C6.33333 10.7449 6.36845 10.6601 6.43096 10.5976C6.49348 10.5351 6.57826 10.5 6.66667 10.5Z" stroke="#0C071D"/>
</svg>
