<svg width="96" height="96" viewBox="0 0 96 96" fill="none" xmlns="http://www.w3.org/2000/svg">
<path d="M45 16V15H44H24C22.6739 15 21.4021 15.5268 20.4645 16.4645C19.5268 17.4021 19 18.6739 19 20V76C19 77.3261 19.5268 78.5979 20.4645 79.5355C21.4022 80.4732 22.6739 81 24 81H52C52.7957 81 53.5587 81.3161 54.1213 81.8787C54.6839 82.4413 55 83.2043 55 84C55 84.7957 54.6839 85.5587 54.1213 86.1213C53.5587 86.6839 52.7957 87 52 87H24C21.0826 87 18.2847 85.8411 16.2218 83.7782C14.1589 81.7153 13 78.9174 13 76V20C13 17.0826 14.1589 14.2847 16.2218 12.2218C18.2847 10.1589 21.0826 9 24 9H48.138C48.4414 9.06696 48.7343 9.17521 49.0084 9.32183L49.3126 9.4845L49.6238 9.43003C49.8704 9.563 50.0991 9.72714 50.3043 9.91856L74.2814 33.8956C74.4681 34.0958 74.6288 34.3183 74.76 34.5579V34.68V34.8437L74.8122 34.9988C74.9019 35.2655 74.9648 35.5404 75 35.8195V35.8202V35.8214V35.8225V35.8237V35.8248V35.8259V35.8271V35.8282V35.8293V35.8304V35.8316V35.8327V35.8338V35.8349V35.836V35.8371V35.8381V35.8392V35.8403V35.8414V35.8424V35.8435V35.8445V35.8456V35.8466V35.8477V35.8487V35.8497V35.8508V35.8518V35.8528V35.8538V35.8548V35.8558V35.8568V35.8578V35.8588V35.8598V35.8608V35.8618V35.8627V35.8637V35.8647V35.8656V35.8666V35.8675V35.8685V35.8694V35.8703V35.8713V35.8722V35.8731V35.874V35.8749V35.8759V35.8768V35.8777V35.8786V35.8794V35.8803V35.8812V35.8821V35.883V35.8838V35.8847V35.8856V35.8864V35.8873V35.8881V35.889V35.8898V35.8906V35.8915V35.8923V35.8931V35.8939V35.8947V35.8956V35.8964V35.8972V35.898V35.8987V35.8995V35.9003V35.9011V35.9019V35.9027V35.9034V35.9042V35.9049V35.9057V35.9065V35.9072V35.9079V35.9087V35.9094V35.9102V35.9109V35.9116V35.9123V35.913V35.9138V35.9145V35.9152V35.9159V35.9166V35.9173V35.918V35.9186V35.9193V35.92V35.9207V35.9213V35.922V35.9227V35.9233V35.924V35.9246V35.9253V35.9259V35.9266V35.9272V35.9278V35.9285V35.9291V35.9297V35.9303V35.931V35.9316V35.9322V35.9328V35.9334V35.934V35.9346V35.9352V35.9357V35.9363V35.9369V35.9375V35.938V35.9386V35.9392V35.9397V35.9403V35.9409V35.9414V35.942V35.9425V35.943V35.9436V35.9441V35.9446V35.9452V35.9457V35.9462V35.9467V35.9472V35.9478V35.9483V35.9488V35.9493V35.9498V35.9503V35.9507V35.9512V35.9517V35.9522V35.9527V35.9532V35.9536V35.9541V35.9546V35.955V35.9555V35.9559V35.9564V35.9568V35.9573V35.9577V35.9582V35.9586V35.959V35.9595V35.9599V35.9603V35.9607V35.9612V35.9616V35.962V35.9624V35.9628V35.9632V35.9636V35.964V35.9644V35.9648V35.9652V35.9656V35.966V35.9663V35.9667V35.9671V35.9675V35.9678V35.9682V35.9686V35.9689V35.9693V35.9696V35.97V35.9703V35.9707V35.971V35.9714V35.9717V35.9721V35.9724V35.9727V35.9731V35.9734V35.9737V35.974V35.9743V35.9747V35.975V35.9753V35.9756V35.9759V35.9762V35.9765V35.9768V35.9771V35.9774V35.9777V35.978V35.9782V35.9785V35.9788V35.9791V35.9794V35.9796V35.9799V35.9802V35.9804V35.9807V35.981V35.9812V35.9815V35.9817V35.982V35.9822V35.9825V35.9827V35.983V35.9832V35.9834V35.9837V35.9839V35.9841V35.9844V35.9846V35.9848V35.985V35.9853V35.9855V35.9857V35.9859V35.9861V35.9863V35.9865V35.9867V35.9869V35.9871V35.9873V35.9875V35.9877V35.9879V35.9881V35.9883V35.9885V35.9887V35.9889V35.989V35.9892V35.9894V35.9896V35.9897V35.9899V35.9901V35.9903V35.9904V35.9906V35.9907V35.9909V35.9911V35.9912V35.9914V35.9915V35.9917V35.9918V35.992V35.9921V35.9923V35.9924V35.9925V35.9927V35.9928V35.9929V35.9931V35.9932V35.9933V35.9935V35.9936V35.9937V35.9938V35.994V35.9941V35.9942V35.9943V35.9944V35.9945V35.9947V35.9948V35.9949V35.995V35.9951V35.9952V35.9953V35.9954V35.9955V35.9956V35.9957V35.9958V35.9959V35.996V35.9961V35.9962V35.9963V35.9963V35.9964V35.9965V35.9966V35.9967V35.9968V35.9968V35.9969V35.997V35.9971V35.9971V35.9972V35.9973V35.9974V35.9974V35.9975V35.9976V35.9976V35.9977V35.9977V35.9978V35.9979V35.9979V35.998V35.998V35.9981V35.9982V35.9982V35.9983V35.9983V35.9984V35.9984V35.9985V35.9985V35.9986V35.9986V35.9987V35.9987V35.9987V35.9988V35.9988V35.9989V35.9989V35.9989V35.999V35.999V35.9991V35.9991V35.9991V35.9992V35.9992V35.9992V35.9992V35.9993V35.9993V35.9993V35.9994V35.9994V35.9995V35.9995V35.9996V35.9996V35.9997V35.9997V35.9997V35.9997V35.9998V35.9998V35.9998V35.9999V35.9999V35.9999V36V36V48C75 48.7957 74.6839 49.5587 74.1213 50.1213C73.5587 50.6839 72.7957 51 72 51C71.2043 51 70.4413 50.6839 69.8787 50.1213C69.3161 49.5587 69 48.7957 69 48V40V39H68H56C53.0826 39 50.2847 37.8411 48.2218 35.7782C46.1589 33.7153 45 30.9174 45 28V16ZM52.7071 20.9329L51 19.2258V21.64V28C51 29.3261 51.5268 30.5979 52.4645 31.5355C53.4021 32.4732 54.6739 33 56 33H62.36H64.7742L63.0671 31.2929L52.7071 20.9329ZM82.13 73.8642L82.1358 73.87C82.417 74.1489 82.6402 74.4807 82.7925 74.8463C82.9448 75.2118 83.0232 75.604 83.0232 76C83.0232 76.396 82.9448 76.7882 82.7925 77.1537C82.6402 77.5193 82.417 77.8511 82.1358 78.13L82.1329 78.1329L74.1412 86.1246C73.8574 86.3944 73.5236 86.6061 73.1585 86.7476L73.1369 86.756L73.1157 86.7654C72.7643 86.9207 72.3843 87.0009 72 87.0009C71.6157 87.0009 71.2357 86.9207 70.8843 86.7654L70.8631 86.756L70.8415 86.7476C70.4764 86.6061 70.1426 86.3944 69.8588 86.1246L61.8671 78.1329C61.3014 77.5672 60.9836 76.8 60.9836 76C60.9836 75.2 61.3014 74.4328 61.8671 73.8671C62.4328 73.3014 63.2 72.9836 64 72.9836C64.7974 72.9836 65.5622 73.2993 66.1273 73.8615L67.281 75.055L69 76.8333V74.36V64C69 63.2043 69.3161 62.4413 69.8787 61.8787C70.4413 61.3161 71.2043 61 72 61C72.7957 61 73.5587 61.3161 74.1213 61.8787C74.6839 62.4413 75 63.2043 75 64V74.36V76.8333L76.719 75.055L77.87 73.8642C77.8714 73.8628 77.8728 73.8614 77.8742 73.86C78.1522 73.5808 78.4825 73.3591 78.8463 73.2075C79.2118 73.0552 79.604 72.9768 80 72.9768C80.396 72.9768 80.7882 73.0552 81.1537 73.2075C81.5193 73.3598 81.8511 73.583 82.13 73.8642ZM29.8787 33.8787C30.4413 33.3161 31.2044 33 32 33H36C36.7956 33 37.5587 33.3161 38.1213 33.8787C38.6839 34.4413 39 35.2044 39 36C39 36.7956 38.6839 37.5587 38.1213 38.1213C37.5587 38.6839 36.7956 39 36 39H32C31.2044 39 30.4413 38.6839 29.8787 38.1213C29.3161 37.5587 29 36.7956 29 36C29 35.2044 29.3161 34.4413 29.8787 33.8787ZM29.8787 49.8787C30.4413 49.3161 31.2044 49 32 49H56C56.7957 49 57.5587 49.3161 58.1213 49.8787C58.6839 50.4413 59 51.2043 59 52C59 52.7957 58.6839 53.5587 58.1213 54.1213C57.5587 54.6839 56.7957 55 56 55H32C31.2044 55 30.4413 54.6839 29.8787 54.1213C29.3161 53.5587 29 52.7957 29 52C29 51.2043 29.3161 50.4413 29.8787 49.8787ZM50.1213 70.1213C49.5587 70.6839 48.7957 71 48 71H32C31.2043 71 30.4413 70.6839 29.8787 70.1213C29.3161 69.5587 29 68.7957 29 68C29 67.2043 29.3161 66.4413 29.8787 65.8787C30.4413 65.3161 31.2043 65 32 65H48C48.7957 65 49.5587 65.3161 50.1213 65.8787C50.6839 66.4413 51 67.2043 51 68C51 68.7957 50.6839 69.5587 50.1213 70.1213Z" fill="#FAFAFA" stroke="#0C071D" stroke-width="2"/>
</svg>
