<svg width="512" height="512" viewBox="0 0 512 512" fill="none" xmlns="http://www.w3.org/2000/svg">
<rect width="512" height="512" rx="70" fill="#0C071D"/>
<path d="M255.545 397.084C256.931 397.084 258.317 396.565 259.376 395.506L270.273 384.609C272.38 382.514 272.38 379.077 270.273 376.969L259.376 366.073C258.328 365.013 256.942 364.495 255.567 364.495C254.181 364.495 252.795 365.025 251.747 366.073L240.85 376.969C238.743 379.077 238.743 382.514 240.85 384.609L251.747 395.506C252.807 396.554 254.181 397.084 255.567 397.084H255.545Z" fill="white"/>
<path d="M315.399 209.698C316.762 211.05 318.542 211.726 320.311 211.726C322.092 211.726 323.872 211.05 325.225 209.698L339.231 195.691C341.925 192.986 341.936 188.58 339.231 185.876L325.225 171.869C323.872 170.517 322.103 169.841 320.323 169.841C318.542 169.841 316.773 170.517 315.41 171.869L301.403 185.876C298.698 188.58 298.698 192.986 301.403 195.691L315.41 209.698H315.399Z" fill="white"/>
<path d="M251.725 145.011C252.784 146.059 254.159 146.589 255.545 146.589C256.931 146.589 258.317 146.07 259.376 145.011L270.273 134.114C272.38 132.018 272.38 128.581 270.273 126.474L259.376 115.578C258.328 114.53 256.942 114 255.567 114C254.192 114 252.795 114.53 251.747 115.578L240.85 126.474C238.743 128.581 238.743 132.018 240.85 134.114L251.747 145.011H251.725Z" fill="white"/>
<path d="M384.621 240.843C382.514 238.736 379.077 238.736 376.981 240.843L366.084 251.74C365.025 252.799 364.506 254.174 364.506 255.56C364.506 256.946 365.025 258.332 366.084 259.391L376.981 270.288C379.088 272.384 382.514 272.395 384.621 270.288L395.517 259.391C396.577 258.343 397.095 256.957 397.095 255.571C397.095 254.185 396.577 252.81 395.517 251.751L384.621 240.854V240.843Z" fill="white"/>
<path d="M195.698 339.239L209.705 325.232C212.41 322.539 212.41 318.122 209.705 315.417L195.698 301.41C194.346 300.058 192.577 299.371 190.785 299.382C189.016 299.382 187.235 300.058 185.883 301.41L171.865 315.417C169.161 318.122 169.161 322.539 171.865 325.232L185.872 339.239C187.235 340.591 189.016 341.256 190.785 341.267C192.566 341.267 194.346 340.591 195.698 339.239Z" fill="white"/>
<path d="M134.114 270.262L145.011 259.365C146.07 258.317 146.589 256.931 146.589 255.545C146.589 254.159 146.059 252.784 145.011 251.725L134.114 240.828C132.007 238.721 128.57 238.721 126.474 240.828L115.578 251.725C114.519 252.784 114 254.159 114 255.545C114 256.931 114.519 258.317 115.578 259.376L126.474 270.273C128.582 272.369 132.007 272.38 134.114 270.273V270.262Z" fill="white"/>
<path d="M171.85 260.462L185.857 274.469C187.22 275.821 189.001 276.498 190.781 276.498C192.562 276.498 194.342 275.821 195.694 274.469L209.149 261.015H237.185L250.087 273.917V301.953L236.633 315.408C233.928 318.112 233.928 322.518 236.633 325.223L250.64 339.23C253.344 341.934 257.75 341.934 260.455 339.23L273.909 325.775H301.945L315.4 339.23C318.105 341.934 322.522 341.934 325.226 339.23L339.233 325.223C341.937 322.518 341.937 318.112 339.233 315.408L325.778 301.953V273.928L339.244 260.462C341.937 257.758 341.949 253.352 339.244 250.648L325.238 236.629C323.885 235.277 322.116 234.601 320.336 234.612C318.555 234.612 316.786 235.277 315.422 236.629L301.416 250.648C298.711 253.352 298.711 257.758 301.416 260.462L314.87 273.917V301.942L301.968 314.856H273.932L261.029 301.942V273.906L274.484 260.462C277.2 257.758 277.2 253.341 274.484 250.636L260.477 236.629C257.773 233.925 253.367 233.925 250.651 236.629L237.196 250.084H209.16L195.705 236.629L196.269 237.182V209.145L209.16 196.243H237.196L250.651 209.698C252.014 211.05 253.795 211.726 255.564 211.726C257.333 211.726 259.125 211.05 260.477 209.698L274.484 195.691C277.188 192.986 277.188 188.58 274.484 185.876L260.477 171.869C259.125 170.517 257.356 169.841 255.575 169.841C253.795 169.841 252.014 170.517 250.662 171.869L237.208 185.335H209.172L195.705 171.869C193.001 169.165 188.595 169.165 185.879 171.869L171.873 185.876C169.168 188.58 169.179 192.986 171.873 195.691L185.327 209.145V237.182L185.891 236.629L171.873 250.648C169.168 253.352 169.168 257.758 171.873 260.462H171.85Z" fill="#F79327"/>
</svg>
