<svg width="16" height="20" viewBox="0 0 16 20" fill="none" xmlns="http://www.w3.org/2000/svg">
<path d="M14.0447 18.9743C13.8935 18.9743 13.7403 18.9292 13.6065 18.8358C13.2592 18.5927 13.1754 18.1128 13.4175 17.7651C14.0283 16.8881 14.3001 15.7577 14.3001 14.1033V7.94912C14.3001 6.60341 13.8946 5.32534 13.1274 4.25452C12.8802 3.90989 12.9578 3.42897 13.301 3.18075C13.6463 2.93253 14.1245 3.0114 14.3707 3.35604C15.3278 4.69046 15.8333 6.27929 15.8333 7.94912V14.1033C15.8333 16.0931 15.4748 17.4952 14.6729 18.647C14.5248 18.8593 14.2868 18.9743 14.0447 18.9743ZM1.53226 14.1023V7.94811C1.53226 4.41358 4.39656 1.53754 7.91667 1.53754C8.1414 1.53754 8.36502 1.54565 8.59077 1.57335C9.00755 1.61643 9.39162 1.3243 9.44269 0.902739C9.49377 0.480154 9.19466 0.0973606 8.77482 0.046076C8.48982 0.0112025 8.20269 0 7.91667 0C3.55177 0 0 3.56633 0 7.94912V14.1033C0 14.5279 0.343226 14.8725 0.766129 14.8725C1.18903 14.8725 1.53226 14.5269 1.53226 14.1023ZM8.34263 19.8708C10.6339 18.3333 11.7473 16.242 11.7473 13.4777V7.94811C11.7473 6.92242 11.3478 5.95737 10.6236 5.22913C9.93302 4.53781 8.97994 4.12638 8.00645 4.10177C7.59682 4.09254 7.23235 4.42789 7.22112 4.8515C7.2109 5.27614 7.54489 5.62902 7.96779 5.64031C8.55107 5.65467 9.125 5.90177 9.53871 6.31717C9.97387 6.75412 10.2131 7.3327 10.2131 7.94811V13.4765C10.2131 15.7186 9.34683 17.3434 7.48871 18.5907C7.13731 18.8266 7.04228 19.3046 7.27723 19.6584C7.42637 19.88 7.66847 20 7.91567 20C8.06379 20 8.21187 19.958 8.34263 19.8708ZM4.40674 15.5659C5.18819 14.5443 5.61828 13.2704 5.61828 11.979V7.94811C5.61828 7.7081 5.64999 7.48239 5.7123 7.29879C5.84612 6.8957 5.62846 6.45978 5.22599 6.32644C4.82454 6.19002 4.39142 6.41065 4.2576 6.81374C4.14422 7.15735 4.08602 7.53986 4.08602 7.94912V11.98C4.08602 12.9339 3.76833 13.8755 3.1922 14.6294C2.93376 14.9668 2.99806 15.4489 3.33311 15.7084C3.47306 15.8151 3.63655 15.8674 3.79897 15.8674C4.02881 15.8664 4.25658 15.7629 4.40674 15.5659ZM8.6828 13.0766V8.97381C8.6828 8.54917 8.33957 8.20454 7.91667 8.20454C7.49376 8.20454 7.15054 8.54917 7.15054 8.97381V13.0766C7.15054 13.5012 7.49376 13.8458 7.91667 13.8458C8.33957 13.8458 8.6828 13.5012 8.6828 13.0766Z" />
<path d="M14.0447 18.9743C13.8935 18.9743 13.7403 18.9292 13.6065 18.8358C13.2592 18.5927 13.1754 18.1128 13.4175 17.7651C14.0283 16.8881 14.3001 15.7577 14.3001 14.1033V7.94912C14.3001 6.60341 13.8946 5.32534 13.1274 4.25452C12.8802 3.90989 12.9578 3.42897 13.301 3.18075C13.6463 2.93253 14.1245 3.0114 14.3707 3.35604C15.3278 4.69046 15.8333 6.27929 15.8333 7.94912V14.1033C15.8333 16.0931 15.4748 17.4952 14.6729 18.647C14.5248 18.8593 14.2868 18.9743 14.0447 18.9743ZM1.53226 14.1023V7.94811C1.53226 4.41358 4.39656 1.53754 7.91667 1.53754C8.1414 1.53754 8.36502 1.54565 8.59077 1.57335C9.00755 1.61643 9.39162 1.3243 9.44269 0.902739C9.49377 0.480154 9.19466 0.0973606 8.77482 0.046076C8.48982 0.0112025 8.20269 0 7.91667 0C3.55177 0 0 3.56633 0 7.94912V14.1033C0 14.5279 0.343226 14.8725 0.766129 14.8725C1.18903 14.8725 1.53226 14.5269 1.53226 14.1023ZM8.34263 19.8708C10.6339 18.3333 11.7473 16.242 11.7473 13.4777V7.94811C11.7473 6.92242 11.3478 5.95737 10.6236 5.22913C9.93302 4.53781 8.97994 4.12638 8.00645 4.10177C7.59682 4.09254 7.23235 4.42789 7.22112 4.8515C7.2109 5.27614 7.54489 5.62902 7.96779 5.64031C8.55107 5.65467 9.125 5.90177 9.53871 6.31717C9.97387 6.75412 10.2131 7.3327 10.2131 7.94811V13.4765C10.2131 15.7186 9.34683 17.3434 7.48871 18.5907C7.13731 18.8266 7.04228 19.3046 7.27723 19.6584C7.42637 19.88 7.66847 20 7.91567 20C8.06379 20 8.21187 19.958 8.34263 19.8708ZM4.40674 15.5659C5.18819 14.5443 5.61828 13.2704 5.61828 11.979V7.94811C5.61828 7.7081 5.64999 7.48239 5.7123 7.29879C5.84612 6.8957 5.62846 6.45978 5.22599 6.32644C4.82454 6.19002 4.39142 6.41065 4.2576 6.81374C4.14422 7.15735 4.08602 7.53986 4.08602 7.94912V11.98C4.08602 12.9339 3.76833 13.8755 3.1922 14.6294C2.93376 14.9668 2.99806 15.4489 3.33311 15.7084C3.47306 15.8151 3.63655 15.8674 3.79897 15.8674C4.02881 15.8664 4.25658 15.7629 4.40674 15.5659ZM8.6828 13.0766V8.97381C8.6828 8.54917 8.33957 8.20454 7.91667 8.20454C7.49376 8.20454 7.15054 8.54917 7.15054 8.97381V13.0766C7.15054 13.5012 7.49376 13.8458 7.91667 13.8458C8.33957 13.8458 8.6828 13.5012 8.6828 13.0766Z" stroke="white"/>
</svg>
