<svg width="68" height="24" viewBox="0 0 68 24" fill="none" xmlns="http://www.w3.org/2000/svg">
<path d="M17.625 2.25H6.375C3.715 2.25 2.25 3.715 2.25 6.375V17.625C2.25 20.285 3.715 21.75 6.375 21.75H17.625C20.285 21.75 21.75 20.285 21.75 17.625V6.375C21.75 3.715 20.285 2.25 17.625 2.25ZM20.25 6.375V8.25H15.75V3.75H17.625C19.465 3.75 20.25 4.535 20.25 6.375ZM9.75 8.25V3.75H14.25V8.25H9.75ZM6.375 3.75H8.25V8.25H3.75V6.375C3.75 4.535 4.535 3.75 6.375 3.75ZM17.625 20.25H6.375C4.535 20.25 3.75 19.465 3.75 17.625V9.75H20.25V17.625C20.25 19.465 19.465 20.25 17.625 20.25ZM14.973 13.115L11.825 11.188C11.303 10.868 10.647 10.856 10.114 11.155C9.57301 11.458 9.25098 12.008 9.25098 12.627V16.373C9.25098 16.992 9.57301 17.542 10.114 17.845C10.371 17.989 10.656 18.061 10.941 18.061C11.248 18.061 11.554 17.978 11.825 17.812L14.972 15.886C15.459 15.588 15.75 15.07 15.75 14.5C15.75 13.93 15.459 13.412 14.973 13.115ZM14.189 14.606L11.041 16.533C10.959 16.582 10.891 16.5611 10.847 16.5371C10.803 16.5121 10.75 16.464 10.75 16.373V12.627C10.75 12.537 10.803 12.4879 10.847 12.4629C10.871 12.4489 10.904 12.437 10.942 12.437C10.972 12.437 11.006 12.445 11.042 12.467L14.1899 14.394C14.1899 14.394 14.19 14.394 14.191 14.394C14.23 14.418 14.251 14.454 14.251 14.499C14.251 14.544 14.229 14.582 14.189 14.606Z" fill="#6C5E70"/>
<path d="M36.784 17L34.06 8.36H35.548L37.828 15.596L40.138 8.36H41.626L38.902 17H36.784ZM42.6131 9.536V8.21H44.0591V9.536H42.6131ZM42.6131 17V10.52H44.0591V17H42.6131ZM48.6544 17.18C48.0584 17.18 47.5384 17.03 47.0944 16.73C46.6504 16.43 46.3064 16.022 46.0624 15.506C45.8184 14.99 45.6964 14.408 45.6964 13.76C45.6964 13.104 45.8184 12.52 46.0624 12.008C46.3104 11.492 46.6604 11.086 47.1124 10.79C47.5644 10.49 48.0964 10.34 48.7084 10.34C49.3244 10.34 49.8404 10.49 50.2564 10.79C50.6764 11.086 50.9944 11.492 51.2104 12.008C51.4264 12.524 51.5344 13.108 51.5344 13.76C51.5344 14.404 51.4264 14.986 51.2104 15.506C50.9944 16.022 50.6724 16.43 50.2444 16.73C49.8164 17.03 49.2864 17.18 48.6544 17.18ZM48.8764 15.884C49.2644 15.884 49.5764 15.796 49.8124 15.62C50.0524 15.44 50.2264 15.19 50.3344 14.87C50.4464 14.55 50.5024 14.18 50.5024 13.76C50.5024 13.336 50.4464 12.966 50.3344 12.65C50.2264 12.33 50.0564 12.082 49.8244 11.906C49.5924 11.726 49.2924 11.636 48.9244 11.636C48.5364 11.636 48.2164 11.732 47.9644 11.924C47.7124 12.112 47.5264 12.368 47.4064 12.692C47.2864 13.012 47.2264 13.368 47.2264 13.76C47.2264 14.156 47.2844 14.516 47.4004 14.84C47.5204 15.16 47.7024 15.414 47.9464 15.602C48.1904 15.79 48.5004 15.884 48.8764 15.884ZM50.5024 17V12.452H50.3224V8.36H51.7804V17H50.5024ZM56.6087 17.18C55.9527 17.18 55.3767 17.038 54.8807 16.754C54.3847 16.47 53.9967 16.076 53.7167 15.572C53.4407 15.068 53.3027 14.488 53.3027 13.832C53.3027 13.124 53.4387 12.51 53.7107 11.99C53.9827 11.466 54.3607 11.06 54.8447 10.772C55.3287 10.484 55.8887 10.34 56.5247 10.34C57.1967 10.34 57.7667 10.498 58.2347 10.814C58.7067 11.126 59.0567 11.568 59.2847 12.14C59.5127 12.712 59.5987 13.386 59.5427 14.162H58.1087V13.634C58.1047 12.93 57.9807 12.416 57.7367 12.092C57.4927 11.768 57.1087 11.606 56.5847 11.606C55.9927 11.606 55.5527 11.79 55.2647 12.158C54.9767 12.522 54.8327 13.056 54.8327 13.76C54.8327 14.416 54.9767 14.924 55.2647 15.284C55.5527 15.644 55.9727 15.824 56.5247 15.824C56.8807 15.824 57.1867 15.746 57.4427 15.59C57.7027 15.43 57.9027 15.2 58.0427 14.9L59.4707 15.332C59.2227 15.916 58.8387 16.37 58.3187 16.694C57.8027 17.018 57.2327 17.18 56.6087 17.18ZM54.3767 14.162V13.07H58.8347V14.162H54.3767ZM63.9434 17.18C63.2954 17.18 62.7294 17.034 62.2454 16.742C61.7614 16.45 61.3854 16.048 61.1174 15.536C60.8534 15.02 60.7214 14.428 60.7214 13.76C60.7214 13.08 60.8574 12.484 61.1294 11.972C61.4014 11.46 61.7794 11.06 62.2634 10.772C62.7474 10.484 63.3074 10.34 63.9434 10.34C64.5954 10.34 65.1634 10.486 65.6474 10.778C66.1314 11.07 66.5074 11.474 66.7754 11.99C67.0434 12.502 67.1774 13.092 67.1774 13.76C67.1774 14.432 67.0414 15.026 66.7694 15.542C66.5014 16.054 66.1254 16.456 65.6414 16.748C65.1574 17.036 64.5914 17.18 63.9434 17.18ZM63.9434 15.824C64.5194 15.824 64.9474 15.632 65.2274 15.248C65.5074 14.864 65.6474 14.368 65.6474 13.76C65.6474 13.132 65.5054 12.632 65.2214 12.26C64.9374 11.884 64.5114 11.696 63.9434 11.696C63.5554 11.696 63.2354 11.784 62.9834 11.96C62.7354 12.132 62.5514 12.374 62.4314 12.686C62.3114 12.994 62.2514 13.352 62.2514 13.76C62.2514 14.388 62.3934 14.89 62.6774 15.266C62.9654 15.638 63.3874 15.824 63.9434 15.824Z" fill="#6C5E70"/>
</svg>
