<svg width="39" height="36" viewBox="0 0 39 36" fill="none" xmlns="http://www.w3.org/2000/svg">
<path d="M19.3 0.000659943C16.0108 0.049324 13.1993 2.57883 12.9068 5.89215C12.7522 7.64264 13.3274 9.30156 14.3821 10.5653L10.3083 15.3803C9.79658 15.1327 9.23321 14.9702 8.63476 14.9184C8.47038 14.9042 8.30831 14.8978 8.14664 14.9002C5.72124 14.936 3.6463 16.803 3.43058 19.246C3.2643 21.1294 4.24792 22.8627 5.79779 23.7664L3.81595 29.156C3.21283 29.0931 2.58533 29.1871 1.99926 29.4578C0.273722 30.2552 -0.482607 32.312 0.322037 34.0219C1.12668 35.7317 3.20244 36.4776 4.92797 35.6802C6.65353 34.8829 7.40985 32.8297 6.60521 31.1198C6.33185 30.5389 5.91174 30.0666 5.40876 29.7306L7.38693 24.3483C7.5221 24.3718 7.65888 24.3908 7.79798 24.4028C8.22425 24.4398 8.64233 24.4193 9.04581 24.3483L11.0203 29.7306C10.5173 30.0666 10.1009 30.5389 9.8275 31.1198C9.02287 32.8297 9.77552 34.8829 11.5011 35.6802C13.2266 36.4776 15.3024 35.7317 16.107 34.0219C16.9116 32.312 16.1553 30.2552 14.4298 29.4578C13.8426 29.1865 13.2173 29.096 12.6132 29.1596L10.6312 23.7664C11.9316 23.0109 12.8617 21.6661 13.0021 20.0752C13.1064 18.8949 12.7577 17.7743 12.1029 16.8785L16.1804 12.0636C16.9705 12.5118 17.8687 12.8057 18.8302 12.8891C20.1935 13.0073 21.4987 12.693 22.6104 12.0636L26.8934 17.1222C26.3994 17.7961 26.076 18.6049 25.9979 19.4896C25.8342 21.3432 26.7842 23.0548 28.2917 23.9701L26.3869 29.1596C25.7827 29.096 25.1574 29.1865 24.5702 29.4578C22.8447 30.2552 22.0884 32.312 22.893 34.0219C23.6976 35.7317 25.7734 36.4776 27.499 35.6802C29.2245 34.8829 29.9771 32.8297 29.1725 31.1198C28.8999 30.5404 28.481 30.0701 27.9797 29.7342L29.8699 24.5774C30.0323 24.6087 30.197 24.632 30.3653 24.6465C30.8204 24.686 31.269 24.6606 31.6975 24.5774L33.5913 29.7306C33.0883 30.0666 32.6681 30.5389 32.3948 31.1198C31.5902 32.8297 32.3465 34.8829 34.0721 35.6802C35.7976 36.4776 37.8733 35.7317 38.678 34.0219C39.4826 32.312 38.7263 30.2552 37.0008 29.4578C36.4146 29.1871 35.7872 29.0931 35.1841 29.156L33.2756 23.9664C34.5371 23.2034 35.4317 21.8793 35.5694 20.3188C35.7996 17.7129 33.8319 15.39 31.202 15.1621C30.3078 15.0845 29.4481 15.2613 28.6917 15.6275L24.4088 10.5653C25.2276 9.58965 25.7685 8.3705 25.8878 7.01947C26.1998 3.48537 23.5308 0.335285 19.9643 0.0261459C19.7414 0.00678635 19.5193 -0.00253677 19.3 0.000659943Z" fill="white"/>
</svg>
