<svg width="20" height="20" viewBox="0 0 20 20" fill="none" xmlns="http://www.w3.org/2000/svg">
<path d="M17.5 6.45876H14.4467L15.19 3.48543C15.2742 3.15043 15.07 2.81127 14.7358 2.72793C14.3983 2.64377 14.0608 2.84792 13.9775 3.18292L13.1583 6.4596H8.61333L9.35666 3.48627C9.44083 3.15127 9.23667 2.81208 8.9025 2.72875C8.56333 2.64458 8.2275 2.84876 8.14416 3.18376L7.32499 6.46044H4.16667C3.82167 6.46044 3.54167 6.74044 3.54167 7.08544C3.54167 7.43044 3.82167 7.71044 4.16667 7.71044H7.01167L5.86583 12.2938H2.5C2.155 12.2938 1.875 12.5738 1.875 12.9188C1.875 13.2638 2.155 13.5438 2.5 13.5438H5.55333L4.81 16.5171C4.72584 16.8521 4.93 17.1913 5.26417 17.2746C5.31583 17.2871 5.36667 17.2938 5.41667 17.2938C5.69667 17.2938 5.95166 17.1038 6.0225 16.8204L6.84167 13.5438H11.3867L10.6433 16.5171C10.5592 16.8521 10.7633 17.1913 11.0975 17.2746C11.1492 17.2871 11.2 17.2938 11.25 17.2938C11.53 17.2938 11.785 17.1038 11.8558 16.8204L12.675 13.5438H15.8333C16.1783 13.5438 16.4583 13.2638 16.4583 12.9188C16.4583 12.5738 16.1783 12.2938 15.8333 12.2938H12.9883L14.1342 7.71044H17.5C17.845 7.71044 18.125 7.43044 18.125 7.08544C18.125 6.74044 17.845 6.45876 17.5 6.45876ZM11.6992 12.2921H7.15417L8.30001 7.70876H12.845L11.6992 12.2921Z" fill="#6C5E70"/>
</svg>
