<svg width="20" height="20" viewBox="0 0 20 20" fill="none" xmlns="http://www.w3.org/2000/svg">
<path d="M9.40817 12.7417C9.37234 12.7813 9.33894 12.8231 9.30817 12.8667C9.27664 12.9132 9.25141 12.9636 9.23317 13.0167C9.20915 13.064 9.1923 13.1145 9.18317 13.1667C9.17908 13.2222 9.17908 13.2779 9.18317 13.3334C9.18036 13.4427 9.20319 13.5512 9.24984 13.6501C9.28727 13.7535 9.34698 13.8474 9.42475 13.9252C9.50251 14.0029 9.59643 14.0627 9.69984 14.1001C9.79959 14.1442 9.90745 14.1669 10.0165 14.1669C10.1256 14.1669 10.2334 14.1442 10.3332 14.1001C10.4366 14.0627 10.5305 14.0029 10.6083 13.9252C10.686 13.8474 10.7457 13.7535 10.7832 13.6501C10.8202 13.5488 10.8372 13.4412 10.8332 13.3334C10.8338 13.2237 10.8128 13.115 10.7713 13.0135C10.7298 12.912 10.6687 12.8196 10.5915 12.7417C10.514 12.6636 10.4219 12.6016 10.3203 12.5593C10.2188 12.517 10.1099 12.4952 9.99984 12.4952C9.88983 12.4952 9.78091 12.517 9.67936 12.5593C9.57781 12.6016 9.48564 12.6636 9.40817 12.7417ZM9.99984 1.66675C8.35166 1.66675 6.7405 2.15549 5.37009 3.07117C3.99968 3.98685 2.93158 5.28834 2.30084 6.81105C1.67011 8.33377 1.50509 10.0093 1.82663 11.6258C2.14817 13.2423 2.94185 14.7272 4.10728 15.8926C5.27272 17.0581 6.75758 17.8517 8.37409 18.1733C9.9906 18.4948 11.6662 18.3298 13.1889 17.6991C14.7116 17.0683 16.0131 16.0002 16.9288 14.6298C17.8444 13.2594 18.3332 11.6483 18.3332 10.0001C18.3332 8.90573 18.1176 7.8221 17.6988 6.81105C17.28 5.80001 16.6662 4.88135 15.8924 4.10752C15.1186 3.3337 14.1999 2.71987 13.1889 2.30109C12.1778 1.8823 11.0942 1.66675 9.99984 1.66675ZM9.99984 16.6667C8.6813 16.6667 7.39237 16.2758 6.29604 15.5432C5.19971 14.8107 4.34523 13.7695 3.84064 12.5513C3.33606 11.3331 3.20404 9.99269 3.46127 8.69948C3.71851 7.40627 4.35345 6.21839 5.2858 5.28604C6.21815 4.35369 7.40603 3.71875 8.69924 3.46151C9.99245 3.20428 11.3329 3.3363 12.5511 3.84088C13.7692 4.34547 14.8104 5.19995 15.543 6.29628C16.2755 7.39261 16.6665 8.68154 16.6665 10.0001C16.6665 11.7682 15.9641 13.4639 14.7139 14.7141C13.4636 15.9644 11.768 16.6667 9.99984 16.6667ZM9.99984 5.83342C9.56073 5.83313 9.12929 5.94852 8.74893 6.16795C8.36858 6.38739 8.05273 6.70313 7.83317 7.08342C7.77288 7.17826 7.73239 7.28433 7.71415 7.39523C7.69591 7.50613 7.70029 7.61957 7.72703 7.72874C7.75377 7.8379 7.80231 7.94053 7.86974 8.03044C7.93717 8.12036 8.0221 8.19571 8.1194 8.25195C8.2167 8.3082 8.32438 8.34418 8.43595 8.35773C8.54752 8.37128 8.66068 8.36213 8.76862 8.33081C8.87656 8.2995 8.97705 8.24667 9.06405 8.17551C9.15104 8.10436 9.22275 8.01634 9.27484 7.91675C9.34826 7.78958 9.45398 7.68407 9.5813 7.6109C9.70861 7.53773 9.853 7.4995 9.99984 7.50008C10.2209 7.50008 10.4328 7.58788 10.5891 7.74416C10.7454 7.90044 10.8332 8.1124 10.8332 8.33342C10.8332 8.55443 10.7454 8.76639 10.5891 8.92267C10.4328 9.07895 10.2209 9.16675 9.99984 9.16675C9.77883 9.16675 9.56687 9.25455 9.41059 9.41083C9.25431 9.56711 9.16651 9.77907 9.16651 10.0001V10.8334C9.16651 11.0544 9.25431 11.2664 9.41059 11.4227C9.56687 11.579 9.77883 11.6667 9.99984 11.6667C10.2209 11.6667 10.4328 11.579 10.5891 11.4227C10.7454 11.2664 10.8332 11.0544 10.8332 10.8334V10.6834C11.3843 10.4834 11.8476 10.0961 12.1421 9.58914C12.4367 9.08217 12.5436 8.48782 12.4443 7.90999C12.3451 7.33216 12.0458 6.8076 11.599 6.42801C11.1522 6.04843 10.5861 5.83796 9.99984 5.83342Z" fill="#6C5E70"/>
</svg>
