<svg width="96" height="96" viewBox="0 0 96 96" fill="none" xmlns="http://www.w3.org/2000/svg">
<path d="M68 13.2C52.4 4.4 33.2 7.2 20.4 19.2V12C20.4 9.6 18.8 8 16.4 8C14 8 12.4 9.6 12.4 12V30C12.4 32.4 14 34 16.4 34H34.4C36.8 34 38.4 32.4 38.4 30C38.4 27.6 36.8 26 34.4 26H24.8C30.8 19.6 39.2 16 48 16C65.6 16 80 30.4 80 48C80 65.6 65.6 80 48 80C30.4 80 16 65.6 16 48C16 45.6 14.4 44 12 44C9.6 44 8 45.6 8 48C8 70 26 88 48 88C62.4 88 75.6 80.4 82.8 68C93.6 48.8 87.2 24.4 68 13.2ZM48 32C45.6 32 44 33.6 44 36V48C44 50.4 45.6 52 48 52H56C58.4 52 60 50.4 60 48C60 45.6 58.4 44 56 44H52V36C52 33.6 50.4 32 48 32Z" fill="#F79327"/>
</svg>
