<svg width="20" height="20" viewBox="0 0 20 20" fill="none" xmlns="http://www.w3.org/2000/svg">
<path d="M15 18.1251H11.4583V13.7501C11.4583 12.9459 10.8042 12.2917 10 12.2917C9.19583 12.2917 8.54167 12.9459 8.54167 13.7501V18.1251H5C2.985 18.1251 1.875 17.0151 1.875 15.0001V9.70841C1.875 7.93924 2.36333 7.44505 3.15999 6.78422L8.25999 2.5084C9.26749 1.66257 10.7325 1.66257 11.74 2.5084L16.84 6.78422C17.6367 7.44505 18.125 7.94008 18.125 9.70841V15.0001C18.125 17.0151 17.015 18.1251 15 18.1251ZM12.7083 16.8751H15C16.3142 16.8751 16.875 16.3142 16.875 15.0001V9.70841C16.875 8.43674 16.665 8.26259 16.0425 7.74593L10.9375 3.46594C10.3942 3.01094 9.60583 3.01094 9.0625 3.46594L3.95752 7.74593C3.33502 8.26259 3.125 8.43674 3.125 9.70841V15.0001C3.125 16.3142 3.68583 16.8751 5 16.8751H7.29167V13.7501C7.29167 12.2567 8.50667 11.0417 10 11.0417C11.4933 11.0417 12.7083 12.2567 12.7083 13.7501V16.8751Z" fill="#6C5E70"/>
</svg>
