<svg width="20" height="20" viewBox="0 0 20 20" fill="none" xmlns="http://www.w3.org/2000/svg">
<path d="M17.5 12.7085H17.2917V5.8335C17.2917 3.8185 16.1817 2.7085 14.1667 2.7085H5.83333C3.81833 2.7085 2.70833 3.8185 2.70833 5.8335V12.7085H2.5C2.155 12.7085 1.875 12.9885 1.875 13.3335V14.1668C1.875 15.6235 2.71 16.4585 4.16667 16.4585H15.8333C17.29 16.4585 18.125 15.6235 18.125 14.1668V13.3335C18.125 12.9885 17.845 12.7085 17.5 12.7085ZM3.95833 5.8335C3.95833 4.51933 4.51917 3.9585 5.83333 3.9585H14.1667C15.4808 3.9585 16.0417 4.51933 16.0417 5.8335V12.7085H3.95833V5.8335ZM16.875 14.1668C16.875 14.936 16.6025 15.2085 15.8333 15.2085H4.16667C3.3975 15.2085 3.125 14.936 3.125 14.1668V13.9585H16.875V14.1668ZM8.77502 7.10852L7.55005 8.3335L8.77502 9.55847C9.01919 9.80264 9.01919 10.1985 8.77502 10.4427C8.65336 10.5643 8.49333 10.626 8.33333 10.626C8.17333 10.626 8.01331 10.5652 7.89164 10.4427L6.22498 8.776C5.98081 8.53183 5.98081 8.13597 6.22498 7.8918L7.89164 6.22514C8.13581 5.98097 8.53167 5.98097 8.77584 6.22514C9.02 6.46931 9.01919 6.86435 8.77502 7.10852ZM13.775 7.8918C14.0192 8.13597 14.0192 8.53183 13.775 8.776L12.1084 10.4427C11.9867 10.5643 11.8267 10.626 11.6667 10.626C11.5067 10.626 11.3466 10.5652 11.225 10.4427C10.9808 10.1985 10.9808 9.80264 11.225 9.55847L12.45 8.3335L11.225 7.10852C10.9808 6.86435 10.9808 6.46849 11.225 6.22432C11.4691 5.98016 11.865 5.98016 12.1092 6.22432L13.775 7.8918Z" fill="#F79327"/>
</svg>
