<svg width="22" height="22" viewBox="0 0 22 22" fill="none" xmlns="http://www.w3.org/2000/svg">
<path d="M20.4007 3.40358L20.93 2.88416L20.9312 2.8829C21.1665 2.64872 21.2988 2.33086 21.2988 1.99919C21.2988 1.66752 21.1665 1.34966 20.9312 1.11548C20.696 0.881338 20.3773 0.75 20.0451 0.75C19.713 0.75 19.3942 0.881339 19.159 1.11548L19.1584 1.11611L17.7595 2.5186L17.7589 2.51923L14.9308 5.33466L14.9306 5.3348L8.76419 11.4637C7.71397 10.8308 6.47191 10.5835 5.2543 10.7687C3.96934 10.9642 2.80276 11.6276 1.98074 12.6307C1.15869 13.6338 0.739814 14.9052 0.805539 16.1985C0.871264 17.4918 1.41688 18.7145 2.33636 19.6298C3.25582 20.5452 4.48362 21.0879 5.78182 21.1533C7.08001 21.2187 8.35652 20.8021 9.364 19.9839C10.3715 19.1656 11.0383 18.004 11.2348 16.724C11.4209 15.5117 11.1726 14.2752 10.5374 13.2297L15.8065 7.97496L17.7491 9.918L17.7502 9.91904C17.8667 10.0342 18.0049 10.1254 18.1567 10.1874C18.3085 10.2494 18.4711 10.281 18.6351 10.2804C18.7991 10.2798 18.9614 10.2471 19.1128 10.184C19.2642 10.121 19.4017 10.0288 19.5174 9.91281C19.6331 9.79678 19.7248 9.65914 19.7872 9.5077C19.8496 9.35626 19.8814 9.19404 19.8808 9.0303C19.8803 8.86655 19.8473 8.70456 19.7838 8.55356C19.7204 8.40277 19.6279 8.26593 19.5116 8.15081L19.5118 8.15099L19.3354 8.32817L19.5111 8.15037L20.4007 3.40358ZM20.4007 3.40358L20.9312 3.93168L20.9319 3.9323C21.0476 4.04833 21.1393 4.18598 21.2017 4.33741C21.2641 4.48885 21.2959 4.65108 21.2953 4.81482C21.2947 4.97856 21.2617 5.14056 21.1983 5.29155C21.1348 5.44254 21.0422 5.57953 20.9256 5.69474C20.8091 5.80995 20.6709 5.90112 20.5191 5.9631C20.3673 6.02507 20.2047 6.05666 20.0407 6.05609C19.8767 6.05551 19.7144 6.02278 19.563 5.95973L19.6591 5.72895M20.4007 3.40358L17.5712 6.21913M17.5712 6.21913L18.635 5.16753M17.5712 6.21913L17.394 6.04275M17.5712 6.21913L17.3934 6.39489L17.394 6.04275M18.635 5.16753L19.1584 5.68852L19.3354 5.51197M18.635 5.16753L18.4593 4.99256L18.6357 4.81539M18.635 5.16753L18.8114 4.99318L18.6357 4.81539M19.3354 5.51197L19.159 5.68915L19.1587 5.68887C19.2744 5.80474 19.4118 5.89675 19.563 5.95973L19.6591 5.72895M19.3354 5.51197L18.6357 4.81539M19.3354 5.51197C19.4279 5.60476 19.5379 5.67848 19.6591 5.72895M19.6591 5.72895L18.6357 4.81539M18.6357 4.81539L17.394 6.04275M18.6357 4.81539L17.394 6.04275M6.05044 18.6663C5.50652 18.6663 4.9749 18.5057 4.52282 18.205C4.07076 17.9043 3.71859 17.477 3.51067 16.9773C3.30276 16.4776 3.24838 15.9278 3.35436 15.3975C3.46034 14.8671 3.72195 14.3797 4.1063 13.9971C4.49067 13.6145 4.98051 13.3538 5.51395 13.2481C6.0474 13.1425 6.60032 13.1967 7.10275 13.4039C7.60517 13.6111 8.03441 13.9618 8.33632 14.4116C8.63823 14.8614 8.7993 15.3901 8.7993 15.9309C8.7993 16.656 8.50996 17.3516 7.99458 17.8647C7.47915 18.3778 6.77985 18.6663 6.05044 18.6663Z" fill="#FAFAFA" stroke="#FAFAFA" stroke-width="0.5"/>
</svg>
