<svg width="20" height="20" viewBox="0 0 20 20" fill="none" xmlns="http://www.w3.org/2000/svg">
<path d="M17.7668 4.20858L12.7668 2.54192H12.7084C12.6696 2.53802 12.6305 2.53802 12.5918 2.54192H12.4001H12.2918H12.2334L7.50008 4.16692L2.76675 2.54192C2.64143 2.50059 2.50809 2.48962 2.3777 2.5099C2.24731 2.53019 2.1236 2.58114 2.01675 2.65858C1.90905 2.73526 1.82114 2.83647 1.76028 2.95384C1.69942 3.07121 1.66736 3.20137 1.66675 3.33358V15.0002C1.6663 15.175 1.72077 15.3454 1.82245 15.4874C1.92414 15.6295 2.0679 15.736 2.23342 15.7919L7.23342 17.4586C7.40129 17.5133 7.58221 17.5133 7.75008 17.4586L12.5001 15.8752L17.2334 17.5002C17.3219 17.5123 17.4116 17.5123 17.5001 17.5002C17.6743 17.5027 17.8444 17.447 17.9834 17.3419C18.0911 17.2652 18.179 17.164 18.2399 17.0467C18.3007 16.9293 18.3328 16.7991 18.3334 16.6669V5.00025C18.3339 4.82555 18.2794 4.65512 18.1777 4.51306C18.076 4.371 17.9323 4.26449 17.7668 4.20858ZM6.66675 15.5086L3.33342 14.4002V4.49192L6.66675 5.60025V15.5086ZM11.6668 14.4002L8.33342 15.5086V5.60025L11.6668 4.49192V14.4002ZM16.6668 15.5086L13.3334 14.4002V4.49192L16.6668 5.60025V15.5086Z" fill="white"/>
</svg>
