<svg width="24" height="24" viewBox="0 0 24 24" fill="none" xmlns="http://www.w3.org/2000/svg">
<path d="M12.0197 5.5C11.1907 5.5 10.5146 4.829 10.5146 4C10.5146 3.171 11.1816 2.5 12.0096 2.5H12.0197C12.8487 2.5 13.5197 3.171 13.5197 4C13.5197 4.829 12.8487 5.5 12.0197 5.5ZM13.5197 12C13.5197 11.171 12.8487 10.5 12.0197 10.5H12.0096C11.1816 10.5 10.5146 11.171 10.5146 12C10.5146 12.829 11.1907 13.5 12.0197 13.5C12.8487 13.5 13.5197 12.829 13.5197 12ZM13.5197 20C13.5197 19.171 12.8487 18.5 12.0197 18.5H12.0096C11.1816 18.5 10.5146 19.171 10.5146 20C10.5146 20.829 11.1907 21.5 12.0197 21.5C12.8487 21.5 13.5197 20.829 13.5197 20Z" fill="#6C5E70"/>
</svg>
