<svg width="230" height="64" viewBox="0 0 230 64" fill="none" xmlns="http://www.w3.org/2000/svg">
<mask id="path-1-inside-1_913_1671" fill="white">
<path d="M0 16.9384C0 16.2411 0.565289 15.6758 1.26261 15.6758H53.3425C54.0398 15.6758 54.6051 16.2411 54.6051 16.9384V62.1927C54.6051 62.89 54.0398 63.4553 53.3425 63.4553H1.26261C0.56529 63.4553 0 62.89 0 62.1927V16.9384Z"/>
</mask>
<path d="M0 16.9384C0 16.2411 0.565289 15.6758 1.26261 15.6758H53.3425C54.0398 15.6758 54.6051 16.2411 54.6051 16.9384V62.1927C54.6051 62.89 54.0398 63.4553 53.3425 63.4553H1.26261C0.56529 63.4553 0 62.89 0 62.1927V16.9384Z" fill="white"/>
<path d="M0 15.6758H54.6051H0ZM56.499 62.1927C56.499 63.936 55.0858 65.3492 53.3425 65.3492H1.26261C-0.48069 65.3492 -1.89391 63.936 -1.89391 62.1927L1.89391 61.5613H52.7112L56.499 62.1927ZM1.26261 65.3492C-0.48069 65.3492 -1.89391 63.936 -1.89391 62.1927V18.8323C-1.89391 17.089 -0.48069 15.6758 1.26261 15.6758H1.89391C1.89391 15.6758 1.89391 16.2411 1.89391 16.9384V61.5613L1.26261 65.3492ZM53.3425 15.6758C55.0858 15.6758 56.499 17.089 56.499 18.8323V62.1927C56.499 63.936 55.0858 65.3492 53.3425 65.3492L52.7112 61.5613V16.9384C52.7112 16.2411 52.7112 15.6758 52.7112 15.6758H53.3425Z" fill="url(#paint0_linear_913_1671)" fill-opacity="0.3" mask="url(#path-1-inside-1_913_1671)"/>
<mask id="path-3-inside-2_913_1671" fill="white">
<path d="M174.396 16.9384C174.396 16.2411 174.962 15.6758 175.659 15.6758H227.739C228.436 15.6758 229.002 16.2411 229.002 16.9384V62.1927C229.002 62.89 228.436 63.4553 227.739 63.4553H175.659C174.962 63.4553 174.396 62.89 174.396 62.1927V16.9384Z"/>
</mask>
<path d="M174.396 16.9384C174.396 16.2411 174.962 15.6758 175.659 15.6758H227.739C228.436 15.6758 229.002 16.2411 229.002 16.9384V62.1927C229.002 62.89 228.436 63.4553 227.739 63.4553H175.659C174.962 63.4553 174.396 62.89 174.396 62.1927V16.9384Z" fill="white"/>
<path d="M174.396 15.6758H229.002H174.396ZM230.896 62.1927C230.896 63.936 229.482 65.3492 227.739 65.3492H175.659C173.916 65.3492 172.503 63.936 172.503 62.1927L176.29 61.5613H227.108L230.896 62.1927ZM175.659 65.3492C173.916 65.3492 172.503 63.936 172.503 62.1927V18.8323C172.503 17.089 173.916 15.6758 175.659 15.6758H176.29C176.29 15.6758 176.29 16.2411 176.29 16.9384V61.5613L175.659 65.3492ZM227.739 15.6758C229.482 15.6758 230.896 17.089 230.896 18.8323V62.1927C230.896 63.936 229.482 65.3492 227.739 65.3492L227.108 61.5613V16.9384C227.108 16.2411 227.108 15.6758 227.108 15.6758H227.739Z" fill="url(#paint1_linear_913_1671)" fill-opacity="0.3" mask="url(#path-3-inside-2_913_1671)"/>
<rect x="5.11914" y="50.1445" width="44.3667" height="8.19077" rx="1.26261" fill="#1D267D"/>
<path d="M17.8656 55.8198C17.5975 55.8198 17.3692 55.7756 17.1806 55.6872C16.9921 55.5988 16.8477 55.4766 16.7476 55.3204C16.6474 55.1643 16.5973 54.9875 16.5973 54.7901H17.0304C17.0304 54.8873 17.0554 54.9846 17.1055 55.0818C17.1586 55.179 17.2455 55.26 17.3663 55.3248C17.49 55.3897 17.6564 55.4221 17.8656 55.4221C18.0601 55.4221 18.2191 55.3941 18.3429 55.3381C18.4666 55.2792 18.5579 55.204 18.6169 55.1127C18.6758 55.0184 18.7052 54.9168 18.7052 54.8078C18.7052 54.6752 18.6478 54.5662 18.5329 54.4808C18.418 54.3924 18.2501 54.3379 18.0291 54.3173L17.6712 54.2863C17.3854 54.2628 17.1571 54.1744 16.9862 54.0212C16.8153 53.868 16.7299 53.6662 16.7299 53.4158C16.7299 53.2184 16.777 53.046 16.8713 52.8987C16.9685 52.7514 17.1026 52.6365 17.2734 52.554C17.4443 52.4686 17.6432 52.4259 17.87 52.4259C18.0939 52.4259 18.2913 52.4671 18.4622 52.5496C18.6331 52.6321 18.7656 52.7485 18.8599 52.8987C18.9571 53.046 19.0057 53.2228 19.0057 53.429H18.5727C18.5727 53.3259 18.5476 53.2287 18.4975 53.1374C18.4504 53.046 18.3753 52.9709 18.2722 52.912C18.1691 52.8531 18.035 52.8236 17.87 52.8236C17.7109 52.8236 17.5784 52.8516 17.4723 52.9076C17.3692 52.9635 17.2911 53.0372 17.2381 53.1285C17.188 53.2169 17.163 53.3127 17.163 53.4158C17.163 53.5336 17.2086 53.6382 17.3 53.7295C17.3913 53.8209 17.5268 53.8739 17.7065 53.8886L18.0645 53.9196C18.2854 53.9372 18.4755 53.9844 18.6345 54.061C18.7966 54.1346 18.9203 54.2348 19.0057 54.3615C19.0941 54.4852 19.1383 54.634 19.1383 54.8078C19.1383 55.0052 19.0853 55.1805 18.9792 55.3337C18.8732 55.4869 18.7244 55.6062 18.5329 55.6916C18.3414 55.7771 18.119 55.8198 17.8656 55.8198ZM19.9181 55.7402V53.3804H20.3423V55.7402H19.9181ZM19.5557 53.7163V53.3804H20.3423V53.7163H19.5557ZM20.0374 53.0004C19.9431 53.0004 19.8724 52.9753 19.8253 52.9252C19.7811 52.8752 19.759 52.8118 19.759 52.7352C19.759 52.6586 19.7811 52.5953 19.8253 52.5452C19.8724 52.4951 19.9431 52.4701 20.0374 52.4701C20.1317 52.4701 20.2009 52.4951 20.2451 52.5452C20.2922 52.5953 20.3158 52.6586 20.3158 52.7352C20.3158 52.8118 20.2922 52.8752 20.2451 52.9252C20.2009 52.9753 20.1317 53.0004 20.0374 53.0004ZM22.0553 56.6594C21.9463 56.6594 21.8358 56.655 21.7238 56.6462C21.6148 56.6373 21.5102 56.6255 21.4101 56.6108V56.2529C21.5161 56.2676 21.6266 56.2794 21.7415 56.2882C21.8593 56.3 21.9698 56.3059 22.0729 56.3059C22.288 56.3059 22.4589 56.2764 22.5856 56.2175C22.7152 56.1615 22.808 56.0717 22.864 55.9479C22.9229 55.8271 22.9523 55.671 22.9523 55.4795V55.0288L23.0938 54.6929C23.0849 54.9315 23.0348 55.1304 22.9435 55.2895C22.8522 55.4456 22.7329 55.5635 22.5856 55.643C22.4412 55.7196 22.2806 55.7579 22.1039 55.7579C21.9389 55.7579 21.7872 55.727 21.6487 55.6651C21.5132 55.6003 21.3953 55.5119 21.2952 55.4C21.1979 55.288 21.1213 55.1599 21.0654 55.0155C21.0123 54.8682 20.9858 54.7135 20.9858 54.5515V54.4719C20.9858 54.307 21.0138 54.1538 21.0698 54.0124C21.1258 53.868 21.2038 53.7428 21.304 53.6367C21.4042 53.5307 21.5235 53.4482 21.662 53.3893C21.8034 53.3303 21.958 53.3009 22.126 53.3009C22.3234 53.3009 22.4972 53.3436 22.6474 53.429C22.7977 53.5115 22.9155 53.6338 23.001 53.7958C23.0893 53.9549 23.1379 54.1508 23.1468 54.3836L23.023 54.388V53.3804H23.3589V55.4618C23.3589 55.7447 23.3147 55.973 23.2263 56.1468C23.1409 56.3236 23.0024 56.4532 22.8109 56.5357C22.6224 56.6182 22.3705 56.6594 22.0553 56.6594ZM22.1834 55.369C22.3248 55.369 22.453 55.3381 22.5679 55.2762C22.6857 55.2144 22.7785 55.126 22.8463 55.0111C22.917 54.8932 22.9523 54.7533 22.9523 54.5913V54.388C22.9523 54.2289 22.9155 54.0948 22.8419 53.9858C22.7712 53.8768 22.6784 53.7943 22.5635 53.7384C22.4486 53.6824 22.3234 53.6544 22.1878 53.6544C22.0346 53.6544 21.8991 53.6898 21.7813 53.7605C21.6634 53.8312 21.5721 53.9313 21.5073 54.061C21.4425 54.1876 21.4101 54.3379 21.4101 54.5117C21.4101 54.6855 21.4425 54.8373 21.5073 54.9669C21.575 55.0965 21.6664 55.1967 21.7813 55.2674C21.8991 55.3351 22.0332 55.369 22.1834 55.369ZM24.1446 55.7402V53.3804H24.4805V54.3924H24.4275C24.4275 54.1597 24.4584 53.9637 24.5203 53.8047C24.5851 53.6426 24.6823 53.5204 24.8119 53.4379C24.9416 53.3524 25.1051 53.3097 25.3025 53.3097H25.3201C25.6177 53.3097 25.8372 53.4025 25.9786 53.5881C26.1229 53.7737 26.1951 54.0418 26.1951 54.3924V55.7402H25.7709V54.304C25.7709 54.1214 25.7193 53.9755 25.6162 53.8665C25.5131 53.7546 25.3717 53.6986 25.192 53.6986C25.0064 53.6986 24.8561 53.756 24.7412 53.8709C24.6263 53.9858 24.5689 54.139 24.5689 54.3305V55.7402H24.1446ZM28.3987 55.7402V55.0332H28.328V54.2156C28.328 54.0536 28.2853 53.9313 28.1999 53.8488C28.1174 53.7664 27.9951 53.7251 27.8331 53.7251C27.7417 53.7251 27.6475 53.7266 27.5502 53.7295C27.453 53.7325 27.3602 53.7354 27.2718 53.7384C27.1835 53.7413 27.1069 53.7457 27.042 53.7516V53.3804C27.1069 53.3745 27.1746 53.3701 27.2453 53.3672C27.319 53.3613 27.3941 53.3583 27.4707 53.3583C27.5473 53.3554 27.6209 53.3539 27.6917 53.3539C27.9332 53.3539 28.1306 53.3834 28.2838 53.4423C28.437 53.4983 28.5504 53.5911 28.6241 53.7207C28.6977 53.8503 28.7346 54.0256 28.7346 54.2466V55.7402H28.3987ZM27.6254 55.8021C27.4486 55.8021 27.2954 55.7726 27.1658 55.7137C27.0391 55.6519 26.9404 55.5635 26.8697 55.4486C26.8019 55.3337 26.7681 55.1952 26.7681 55.0332C26.7681 54.8652 26.8049 54.7253 26.8785 54.6134C26.9551 54.5014 27.0656 54.4174 27.21 54.3615C27.3543 54.3025 27.5281 54.2731 27.7314 54.2731H28.3722V54.5913H27.7137C27.5429 54.5913 27.4118 54.6325 27.3204 54.715C27.2291 54.7975 27.1835 54.9035 27.1835 55.0332C27.1835 55.1628 27.2291 55.2674 27.3204 55.3469C27.4118 55.4265 27.5429 55.4662 27.7137 55.4662C27.8139 55.4662 27.9097 55.4486 28.001 55.4132C28.0923 55.3749 28.1674 55.3131 28.2264 55.2276C28.2882 55.1392 28.3221 55.0184 28.328 54.8652L28.4429 55.0332C28.4282 55.2011 28.3869 55.3425 28.3192 55.4574C28.2544 55.5694 28.163 55.6548 28.0452 55.7137C27.9303 55.7726 27.7903 55.8021 27.6254 55.8021ZM30.4324 55.7667C30.2556 55.7667 30.1024 55.7417 29.9728 55.6916C29.8461 55.6415 29.7474 55.5561 29.6767 55.4353C29.6089 55.3116 29.5751 55.1451 29.5751 54.936V52.6645H29.9816V54.989C29.9816 55.1157 30.0155 55.2144 30.0833 55.2851C30.154 55.3528 30.2527 55.3867 30.3793 55.3867H30.7947V55.7667H30.4324ZM29.1685 53.6986V53.3804H30.7947V53.6986H29.1685ZM32.2123 55.8109C31.9324 55.8109 31.7174 55.7196 31.5671 55.537C31.4169 55.3543 31.3417 55.0906 31.3417 54.7459V53.376H31.766V54.8299C31.766 55.0155 31.8161 55.1613 31.9162 55.2674C32.0164 55.3705 32.1519 55.4221 32.3228 55.4221C32.4996 55.4221 32.6439 55.3661 32.7559 55.2541C32.8678 55.1392 32.9238 54.9831 32.9238 54.7857V53.376H33.348V55.7402H33.0122V54.7283H33.0652C33.0652 54.961 33.0343 55.1584 32.9724 55.3204C32.9105 55.4795 32.8177 55.6018 32.694 55.6872C32.5732 55.7697 32.4185 55.8109 32.23 55.8109H32.2123ZM34.1697 55.7402V53.3804H34.5055V54.3526H34.4879C34.4879 54.0079 34.563 53.756 34.7132 53.597C34.8664 53.4349 35.0948 53.3539 35.3982 53.3539H35.4777V53.7339H35.3275C35.0918 53.7339 34.9106 53.7973 34.7839 53.924C34.6573 54.0477 34.5939 54.2274 34.5939 54.4631V55.7402H34.1697ZM36.9595 55.8198C36.7532 55.8198 36.575 55.7844 36.4248 55.7137C36.2745 55.643 36.1522 55.5502 36.058 55.4353C35.9637 55.3175 35.893 55.1864 35.8458 55.042C35.8017 54.8977 35.7796 54.7503 35.7796 54.6001V54.5206C35.7796 54.3674 35.8017 54.2186 35.8458 54.0742C35.893 53.9299 35.9637 53.8002 36.058 53.6853C36.1522 53.5675 36.2716 53.4747 36.4159 53.4069C36.5632 53.3362 36.7356 53.3009 36.933 53.3009C37.1893 53.3009 37.3999 53.3568 37.5649 53.4688C37.7328 53.5778 37.8565 53.7192 37.9361 53.893C38.0186 54.0669 38.0598 54.2525 38.0598 54.4498V54.6399H35.9652V54.3217H37.7505L37.6533 54.494C37.6533 54.3261 37.6268 54.1818 37.5737 54.061C37.5207 53.9372 37.4412 53.8415 37.3351 53.7737C37.229 53.706 37.095 53.6721 36.933 53.6721C36.765 53.6721 36.6251 53.7104 36.5131 53.787C36.4041 53.8636 36.3216 53.9682 36.2657 54.1007C36.2126 54.2333 36.1861 54.3865 36.1861 54.5603C36.1861 54.7283 36.2126 54.88 36.2657 55.0155C36.3216 55.1481 36.4071 55.2541 36.522 55.3337C36.6369 55.4103 36.7827 55.4486 36.9595 55.4486C37.1451 55.4486 37.2953 55.4073 37.4102 55.3248C37.5281 55.2423 37.5988 55.1466 37.6223 55.0376H38.0201C37.9876 55.1996 37.9228 55.3396 37.8256 55.4574C37.7284 55.5753 37.6061 55.6651 37.4588 55.727C37.3115 55.7888 37.1451 55.8198 36.9595 55.8198Z" fill="white"/>
<rect x="179.514" y="50.1445" width="44.3667" height="8.19077" rx="1.26261" fill="#1D267D"/>
<path d="M201.671 55.7402V52.7264L201.865 52.8766H200.955V52.5143H202.095V55.7402H201.671Z" fill="white"/>
<rect x="5.11914" y="40.5898" width="44.3667" height="8.19077" rx="1.26261" fill="#5C469C"/>
<path d="M15.7207 47.0694V43.8257H16.0565V44.8466L15.977 44.8377C15.9917 44.5843 16.0447 44.3781 16.1361 44.219C16.2304 44.057 16.3526 43.9377 16.5029 43.8611C16.6531 43.7845 16.8166 43.7462 16.9934 43.7462C17.1643 43.7462 17.3189 43.7786 17.4574 43.8434C17.5988 43.9082 17.7196 43.9966 17.8198 44.1086C17.9199 44.2205 17.9965 44.3501 18.0496 44.4974C18.1026 44.6447 18.1291 44.8009 18.1291 44.9659V45.0454C18.1291 45.2104 18.1011 45.3665 18.0451 45.5138C17.9892 45.6611 17.9096 45.7908 17.8065 45.9027C17.7063 46.0147 17.5856 46.1031 17.4441 46.1679C17.3057 46.2327 17.1525 46.2651 16.9845 46.2651C16.8166 46.2651 16.6561 46.2283 16.5029 46.1546C16.3497 46.081 16.223 45.9616 16.1228 45.7967C16.0227 45.6317 15.9652 45.4151 15.9505 45.1471L16.1449 45.5006V47.0694H15.7207ZM16.9183 45.8939C17.0774 45.8939 17.2158 45.8571 17.3337 45.7834C17.4515 45.7068 17.5428 45.6022 17.6076 45.4696C17.6725 45.3341 17.7049 45.1795 17.7049 45.0056C17.7049 44.8289 17.6725 44.6742 17.6076 44.5416C17.5428 44.4091 17.4515 44.3059 17.3337 44.2323C17.2158 44.1557 17.0774 44.1174 16.9183 44.1174C16.7768 44.1174 16.6457 44.1498 16.525 44.2146C16.4042 44.2765 16.3069 44.3678 16.2333 44.4886C16.1626 44.6064 16.1272 44.7493 16.1272 44.9173V45.1205C16.1272 45.2826 16.1641 45.421 16.2377 45.5359C16.3114 45.6508 16.4086 45.7392 16.5294 45.8011C16.6502 45.863 16.7798 45.8939 16.9183 45.8939ZM19.585 46.2563C19.3051 46.2563 19.0901 46.1649 18.9398 45.9823C18.7896 45.7996 18.7144 45.5359 18.7144 45.1912V43.8213H19.1387V45.2752C19.1387 45.4608 19.1888 45.6066 19.2889 45.7127C19.3891 45.8158 19.5246 45.8674 19.6955 45.8674C19.8722 45.8674 20.0166 45.8114 20.1286 45.6994C20.2405 45.5845 20.2965 45.4284 20.2965 45.231V43.8213H20.7207V46.1855H20.3849V45.1736H20.4379C20.4379 45.4063 20.407 45.6037 20.3451 45.7657C20.2832 45.9248 20.1904 46.0471 20.0667 46.1325C19.9459 46.215 19.7912 46.2563 19.6027 46.2563H19.585ZM22.7886 46.2651C22.5941 46.2651 22.4203 46.2224 22.2671 46.1369C22.1169 46.0515 21.9975 45.9278 21.9092 45.7657C21.8208 45.6007 21.7722 45.4034 21.7633 45.1736H21.8782V46.1855H21.5424V42.9596H21.9666V44.5284L21.8163 44.851C21.8281 44.5947 21.8797 44.3855 21.971 44.2235C22.0623 44.0614 22.1817 43.9421 22.329 43.8655C22.4792 43.786 22.6442 43.7462 22.8239 43.7462C22.9918 43.7462 23.145 43.7786 23.2835 43.8434C23.422 43.9053 23.5413 43.9922 23.6415 44.1041C23.7416 44.2131 23.8182 44.3413 23.8712 44.4886C23.9243 44.633 23.9508 44.7891 23.9508 44.957V45.0366C23.9508 45.2045 23.9228 45.3621 23.8668 45.5094C23.8138 45.6567 23.7357 45.7878 23.6326 45.9027C23.5295 46.0147 23.4058 46.1031 23.2614 46.1679C23.12 46.2327 22.9624 46.2651 22.7886 46.2651ZM22.7399 45.8939C22.899 45.8939 23.0375 45.8556 23.1553 45.779C23.2732 45.7024 23.3645 45.5978 23.4293 45.4652C23.4941 45.3297 23.5266 45.1736 23.5266 44.9968C23.5266 44.82 23.4927 44.6654 23.4249 44.5328C23.3601 44.4002 23.2688 44.2986 23.1509 44.2279C23.0331 44.1542 22.8961 44.1174 22.7399 44.1174C22.5985 44.1174 22.4674 44.1498 22.3466 44.2146C22.2259 44.2765 22.1286 44.3678 22.055 44.4886C21.9843 44.6064 21.9489 44.7493 21.9489 44.9173V45.1205C21.9489 45.2826 21.9857 45.421 22.0594 45.5359C22.1331 45.6508 22.2303 45.7392 22.3511 45.8011C22.4719 45.863 22.6015 45.8939 22.7399 45.8939ZM24.6157 46.1855V42.9596H25.0399V46.1855H24.6157ZM24.2886 43.2954V42.9596H25.0399V43.2954H24.2886ZM25.9685 46.1855V43.8257H26.3927V46.1855H25.9685ZM25.6061 44.1616V43.8257H26.3927V44.1616H25.6061ZM26.0878 43.4457C25.9935 43.4457 25.9228 43.4206 25.8757 43.3706C25.8315 43.3205 25.8094 43.2571 25.8094 43.1805C25.8094 43.1039 25.8315 43.0406 25.8757 42.9905C25.9228 42.9404 25.9935 42.9154 26.0878 42.9154C26.1821 42.9154 26.2513 42.9404 26.2955 42.9905C26.3427 43.0406 26.3662 43.1039 26.3662 43.1805C26.3662 43.2571 26.3427 43.3205 26.2955 43.3706C26.2513 43.4206 26.1821 43.4457 26.0878 43.4457ZM28.225 46.2651C28.0217 46.2651 27.8449 46.2297 27.6947 46.159C27.5474 46.0883 27.4251 45.9941 27.3279 45.8762C27.2307 45.7554 27.157 45.6228 27.1069 45.4785C27.0598 45.3341 27.0362 45.1898 27.0362 45.0454V44.9659C27.0362 44.8156 27.0598 44.6683 27.1069 44.524C27.157 44.3796 27.2307 44.25 27.3279 44.1351C27.4281 44.0172 27.5518 43.923 27.6991 43.8522C27.8464 43.7815 28.0188 43.7462 28.2161 43.7462C28.4135 43.7462 28.5903 43.783 28.7464 43.8567C28.9055 43.9303 29.0322 44.0349 29.1265 44.1704C29.2237 44.303 29.2782 44.4606 29.29 44.6433H28.8834C28.8628 44.496 28.7951 44.3737 28.6802 44.2765C28.5653 44.1763 28.4106 44.1262 28.2161 44.1262C28.0482 44.1262 27.9083 44.1645 27.7963 44.2411C27.6844 44.3177 27.6004 44.4223 27.5444 44.5549C27.4885 44.6875 27.4605 44.8377 27.4605 45.0056C27.4605 45.1677 27.4885 45.3165 27.5444 45.452C27.6004 45.5845 27.6844 45.6906 27.7963 45.7701C27.9112 45.8467 28.0541 45.885 28.225 45.885C28.3576 45.885 28.4725 45.8615 28.5697 45.8143C28.6669 45.7672 28.745 45.7039 28.8039 45.6243C28.8628 45.5448 28.8982 45.4549 28.91 45.3548H29.3165C29.3077 45.5404 29.2532 45.7009 29.153 45.8364C29.0558 45.972 28.9262 46.078 28.7641 46.1546C28.605 46.2283 28.4253 46.2651 28.225 46.2651ZM29.7694 45.1382V44.7758H31.4134V45.1382H29.7694ZM33.7374 46.1855L32.8492 45.0852H32.4603L33.543 43.8257H33.9893L33.0082 44.9614L33.0392 44.7361L34.2279 46.1855H33.7374ZM32.1112 46.1855V42.9596H32.5354V46.1855H32.1112ZM35.5958 46.2651C35.3895 46.2651 35.2113 46.2297 35.061 46.159C34.9108 46.0883 34.7885 45.9955 34.6942 45.8806C34.6 45.7628 34.5293 45.6317 34.4821 45.4873C34.4379 45.343 34.4158 45.1957 34.4158 45.0454V44.9659C34.4158 44.8127 34.4379 44.6639 34.4821 44.5195C34.5293 44.3752 34.6 44.2455 34.6942 44.1307C34.7885 44.0128 34.9078 43.92 35.0522 43.8522C35.1995 43.7815 35.3718 43.7462 35.5692 43.7462C35.8255 43.7462 36.0362 43.8022 36.2012 43.9141C36.3691 44.0231 36.4928 44.1645 36.5724 44.3384C36.6549 44.5122 36.6961 44.6978 36.6961 44.8952V45.0852H34.6014V44.767H36.3868L36.2896 44.9394C36.2896 44.7714 36.263 44.6271 36.21 44.5063C36.157 44.3825 36.0774 44.2868 35.9714 44.219C35.8653 44.1513 35.7313 44.1174 35.5692 44.1174C35.4013 44.1174 35.2614 44.1557 35.1494 44.2323C35.0404 44.3089 34.9579 44.4135 34.9019 44.546C34.8489 44.6786 34.8224 44.8318 34.8224 45.0056C34.8224 45.1736 34.8489 45.3253 34.9019 45.4608C34.9579 45.5934 35.0434 45.6994 35.1583 45.779C35.2732 45.8556 35.419 45.8939 35.5958 45.8939C35.7814 45.8939 35.9316 45.8526 36.0465 45.7701C36.1643 45.6877 36.2351 45.5919 36.2586 45.4829H36.6563C36.6239 45.6449 36.5591 45.7849 36.4619 45.9027C36.3647 46.0206 36.2424 46.1104 36.0951 46.1723C35.9478 46.2342 35.7814 46.2651 35.5958 46.2651ZM37.1221 47.1047V46.7247H37.4624C37.5626 46.7247 37.6465 46.7114 37.7143 46.6849C37.785 46.6613 37.8424 46.6201 37.8866 46.5612C37.9338 46.5023 37.9721 46.4242 38.0015 46.327L38.7439 43.8257H39.1593L38.3727 46.4374C38.3256 46.5936 38.2593 46.7203 38.1739 46.8175C38.0884 46.9176 37.9838 46.9898 37.8601 47.034C37.7393 47.0812 37.5979 47.1047 37.4359 47.1047H37.1221ZM37.8424 46.1325V45.779H38.355V46.1325H37.8424ZM37.7982 46.1325L36.9542 43.8257H37.3873L38.196 46.1325H37.7982Z" fill="white"/>
<rect x="61.4297" y="31.0332" width="41.0348" height="7.57565" rx="1.26261" fill="#5C469C"/>
<path d="M70.3652 37.2041V33.9605H70.7011V34.9813L70.6215 34.9725C70.6362 34.7191 70.6893 34.5129 70.7806 34.3538C70.8749 34.1918 70.9971 34.0724 71.1474 33.9958C71.2976 33.9193 71.4612 33.881 71.6379 33.881C71.8088 33.881 71.9635 33.9134 72.1019 33.9782C72.2433 34.043 72.3641 34.1314 72.4643 34.2433C72.5645 34.3553 72.6411 34.4849 72.6941 34.6322C72.7471 34.7795 72.7736 34.9357 72.7736 35.1006V35.1802C72.7736 35.3452 72.7456 35.5013 72.6897 35.6486C72.6337 35.7959 72.5542 35.9255 72.451 36.0375C72.3509 36.1494 72.2301 36.2378 72.0887 36.3026C71.9502 36.3674 71.797 36.3999 71.6291 36.3999C71.4612 36.3999 71.3006 36.363 71.1474 36.2894C70.9942 36.2157 70.8675 36.0964 70.7673 35.9314C70.6672 35.7664 70.6097 35.5499 70.595 35.2818L70.7894 35.6353V37.2041H70.3652ZM71.5628 36.0286C71.7219 36.0286 71.8603 35.9918 71.9782 35.9182C72.096 35.8416 72.1874 35.737 72.2522 35.6044C72.317 35.4689 72.3494 35.3142 72.3494 35.1404C72.3494 34.9636 72.317 34.809 72.2522 34.6764C72.1874 34.5438 72.096 34.4407 71.9782 34.3671C71.8603 34.2905 71.7219 34.2522 71.5628 34.2522C71.4214 34.2522 71.2903 34.2846 71.1695 34.3494C71.0487 34.4112 70.9515 34.5026 70.8778 34.6234C70.8071 34.7412 70.7718 34.8841 70.7718 35.052V35.2553C70.7718 35.4173 70.8086 35.5558 70.8822 35.6707C70.9559 35.7856 71.0531 35.874 71.1739 35.9358C71.2947 35.9977 71.4243 36.0286 71.5628 36.0286ZM74.2295 36.391C73.9497 36.391 73.7346 36.2997 73.5843 36.117C73.4341 35.9344 73.359 35.6707 73.359 35.326V33.9561H73.7832V35.41C73.7832 35.5956 73.8333 35.7414 73.9334 35.8475C74.0336 35.9506 74.1691 36.0021 74.34 36.0021C74.5168 36.0021 74.6611 35.9462 74.7731 35.8342C74.885 35.7193 74.941 35.5632 74.941 35.3658V33.9561H75.3652V36.3203H75.0294V35.3083H75.0824C75.0824 35.5411 75.0515 35.7385 74.9896 35.9005C74.9278 36.0596 74.835 36.1818 74.7112 36.2673C74.5904 36.3498 74.4358 36.391 74.2472 36.391H74.2295ZM77.4331 36.3999C77.2386 36.3999 77.0648 36.3571 76.9116 36.2717C76.7614 36.1863 76.6421 36.0625 76.5537 35.9005C76.4653 35.7355 76.4167 35.5381 76.4079 35.3083H76.5227V36.3203H76.1869V33.0943H76.6111V34.6631L76.4609 34.9857C76.4727 34.7294 76.5242 34.5203 76.6156 34.3582C76.7069 34.1962 76.8262 34.0769 76.9735 34.0003C77.1238 33.9207 77.2887 33.881 77.4684 33.881C77.6364 33.881 77.7896 33.9134 77.928 33.9782C78.0665 34.04 78.1858 34.127 78.286 34.2389C78.3861 34.3479 78.4627 34.4761 78.5158 34.6234C78.5688 34.7677 78.5953 34.9239 78.5953 35.0918V35.1713C78.5953 35.3393 78.5673 35.4969 78.5114 35.6442C78.4583 35.7915 78.3803 35.9226 78.2771 36.0375C78.174 36.1494 78.0503 36.2378 77.9059 36.3026C77.7645 36.3674 77.6069 36.3999 77.4331 36.3999ZM77.3845 36.0286C77.5436 36.0286 77.682 35.9904 77.7999 35.9138C77.9177 35.8372 78.009 35.7326 78.0739 35.6C78.1387 35.4645 78.1711 35.3083 78.1711 35.1316C78.1711 34.9548 78.1372 34.8001 78.0694 34.6676C78.0046 34.535 77.9133 34.4333 77.7955 34.3626C77.6776 34.289 77.5406 34.2522 77.3845 34.2522C77.2431 34.2522 77.112 34.2846 76.9912 34.3494C76.8704 34.4112 76.7732 34.5026 76.6995 34.6234C76.6288 34.7412 76.5935 34.8841 76.5935 35.052V35.2553C76.5935 35.4173 76.6303 35.5558 76.7039 35.6707C76.7776 35.7856 76.8748 35.874 76.9956 35.9358C77.1164 35.9977 77.246 36.0286 77.3845 36.0286ZM79.2602 36.3203V33.0943H79.6844V36.3203H79.2602ZM78.9332 33.4302V33.0943H79.6844V33.4302H78.9332ZM80.613 36.3203V33.9605H81.0373V36.3203H80.613ZM80.2507 34.2964V33.9605H81.0373V34.2964H80.2507ZM80.7324 33.5805C80.6381 33.5805 80.5674 33.5554 80.5202 33.5053C80.476 33.4552 80.4539 33.3919 80.4539 33.3153C80.4539 33.2387 80.476 33.1754 80.5202 33.1253C80.5674 33.0752 80.6381 33.0502 80.7324 33.0502C80.8266 33.0502 80.8959 33.0752 80.94 33.1253C80.9872 33.1754 81.0108 33.2387 81.0108 33.3153C81.0108 33.3919 80.9872 33.4552 80.94 33.5053C80.8959 33.5554 80.8266 33.5805 80.7324 33.5805ZM82.8695 36.3999C82.6662 36.3999 82.4895 36.3645 82.3392 36.2938C82.1919 36.2231 82.0697 36.1288 81.9724 36.011C81.8752 35.8902 81.8016 35.7576 81.7515 35.6133C81.7043 35.4689 81.6808 35.3245 81.6808 35.1802V35.1006C81.6808 34.9504 81.7043 34.8031 81.7515 34.6587C81.8016 34.5144 81.8752 34.3847 81.9724 34.2698C82.0726 34.152 82.1963 34.0577 82.3436 33.987C82.4909 33.9163 82.6633 33.881 82.8607 33.881C83.0581 33.881 83.2348 33.9178 83.391 33.9914C83.5501 34.0651 83.6767 34.1697 83.771 34.3052C83.8682 34.4378 83.9227 34.5954 83.9345 34.778H83.528C83.5073 34.6307 83.4396 34.5085 83.3247 34.4112C83.2098 34.3111 83.0551 34.261 82.8607 34.261C82.6928 34.261 82.5528 34.2993 82.4409 34.3759C82.3289 34.4525 82.2449 34.5571 82.189 34.6897C82.133 34.8222 82.105 34.9725 82.105 35.1404C82.105 35.3024 82.133 35.4512 82.189 35.5867C82.2449 35.7193 82.3289 35.8254 82.4409 35.9049C82.5558 35.9815 82.6986 36.0198 82.8695 36.0198C83.0021 36.0198 83.117 35.9962 83.2142 35.9491C83.3114 35.902 83.3895 35.8386 83.4484 35.7591C83.5073 35.6795 83.5427 35.5897 83.5545 35.4895H83.961C83.9522 35.6751 83.8977 35.8357 83.7975 35.9712C83.7003 36.1067 83.5707 36.2128 83.4087 36.2894C83.2496 36.363 83.0699 36.3999 82.8695 36.3999ZM84.414 35.273V34.9106H86.0579V35.273H84.414ZM88.3819 36.3203L87.4937 35.2199H87.1048L88.1875 33.9605H88.6338L87.6528 35.0962L87.6837 34.8708L88.8725 36.3203H88.3819ZM86.7557 36.3203V33.0943H87.1799V36.3203H86.7557ZM90.2403 36.3999C90.0341 36.3999 89.8558 36.3645 89.7056 36.2938C89.5553 36.2231 89.4331 36.1303 89.3388 36.0154C89.2445 35.8975 89.1738 35.7664 89.1267 35.6221C89.0825 35.4777 89.0604 35.3304 89.0604 35.1802V35.1006C89.0604 34.9474 89.0825 34.7987 89.1267 34.6543C89.1738 34.5099 89.2445 34.3803 89.3388 34.2654C89.4331 34.1476 89.5524 34.0548 89.6967 33.987C89.844 33.9163 90.0164 33.881 90.2138 33.881C90.4701 33.881 90.6807 33.9369 90.8457 34.0489C91.0136 34.1579 91.1374 34.2993 91.2169 34.4731C91.2994 34.6469 91.3406 34.8325 91.3406 35.0299V35.2199H89.246V34.9018H91.0313L90.9341 35.0741C90.9341 34.9062 90.9076 34.7618 90.8545 34.641C90.8015 34.5173 90.722 34.4216 90.6159 34.3538C90.5098 34.286 90.3758 34.2522 90.2138 34.2522C90.0458 34.2522 89.9059 34.2905 89.794 34.3671C89.6849 34.4437 89.6025 34.5482 89.5465 34.6808C89.4934 34.8134 89.4669 34.9666 89.4669 35.1404C89.4669 35.3083 89.4934 35.4601 89.5465 35.5956C89.6025 35.7281 89.6879 35.8342 89.8028 35.9138C89.9177 35.9904 90.0635 36.0286 90.2403 36.0286C90.4259 36.0286 90.5761 35.9874 90.691 35.9049C90.8089 35.8224 90.8796 35.7267 90.9032 35.6177H91.3009C91.2685 35.7797 91.2037 35.9196 91.1064 36.0375C91.0092 36.1553 90.8869 36.2452 90.7396 36.3071C90.5923 36.3689 90.4259 36.3999 90.2403 36.3999ZM91.7666 37.2395V36.8594H92.1069C92.2071 36.8594 92.291 36.8462 92.3588 36.8197C92.4295 36.7961 92.487 36.7549 92.5312 36.6959C92.5783 36.637 92.6166 36.5589 92.646 36.4617L93.3885 33.9605H93.8039L93.0173 36.5722C92.9701 36.7283 92.9038 36.855 92.8184 36.9522C92.733 37.0524 92.6284 37.1246 92.5046 37.1688C92.3838 37.2159 92.2424 37.2395 92.0804 37.2395H91.7666ZM92.487 36.2673V35.9138H92.9996V36.2673H92.487ZM92.4428 36.2673L91.5987 33.9605H92.0318L92.8405 36.2673H92.4428Z" fill="white"/>
<rect x="61.4297" y="39.8711" width="41.0348" height="7.57565" rx="1.26261" fill="#1D267D"/>
<path d="M72.5131 45.2289C72.2037 45.2289 71.9636 45.1626 71.7927 45.03C71.6248 44.8975 71.5379 44.7163 71.532 44.4865H71.9297C71.9356 44.5778 71.9813 44.6647 72.0667 44.7472C72.1551 44.8268 72.3039 44.8665 72.5131 44.8665C72.7016 44.8665 72.846 44.8297 72.9461 44.7561C73.0463 44.6795 73.0964 44.5867 73.0964 44.4777C73.0964 44.3804 73.0596 44.3053 72.9859 44.2523C72.9123 44.1963 72.7929 44.1595 72.628 44.1418L72.3716 44.1153C72.1477 44.0917 71.9651 44.0254 71.8237 43.9164C71.6823 43.8045 71.6116 43.6483 71.6116 43.448C71.6116 43.2977 71.6499 43.1696 71.7265 43.0635C71.8031 42.9545 71.9091 42.872 72.0446 42.8161C72.1802 42.7571 72.3363 42.7277 72.5131 42.7277C72.7782 42.7277 72.9933 42.7866 73.1583 42.9044C73.3232 43.0223 73.4087 43.1976 73.4146 43.4303H73.0168C73.0139 43.336 72.9697 43.2565 72.8843 43.1917C72.8018 43.1239 72.678 43.0901 72.5131 43.0901C72.3481 43.0901 72.2229 43.1239 72.1374 43.1917C72.052 43.2595 72.0093 43.3449 72.0093 43.448C72.0093 43.5364 72.0387 43.6071 72.0977 43.6601C72.1595 43.7131 72.2597 43.747 72.3982 43.7618L72.6545 43.7883C72.9078 43.8148 73.1111 43.8855 73.2643 44.0004C73.4175 44.1123 73.4941 44.2714 73.4941 44.4777C73.4941 44.625 73.4514 44.7561 73.366 44.871C73.2835 44.9829 73.1686 45.0713 73.0213 45.1361C72.874 45.198 72.7046 45.2289 72.5131 45.2289ZM74.2239 45.1582V42.7984H74.6481V45.1582H74.2239ZM73.8615 43.1342V42.7984H74.6481V43.1342H73.8615ZM74.3432 42.4183C74.2489 42.4183 74.1782 42.3933 74.1311 42.3432C74.0869 42.2931 74.0648 42.2298 74.0648 42.1532C74.0648 42.0766 74.0869 42.0133 74.1311 41.9632C74.1782 41.9131 74.2489 41.888 74.3432 41.888C74.4374 41.888 74.5067 41.9131 74.5509 41.9632C74.598 42.0133 74.6216 42.0766 74.6216 42.1532C74.6216 42.2298 74.598 42.2931 74.5509 42.3432C74.5067 42.3933 74.4374 42.4183 74.3432 42.4183ZM76.361 46.0774C76.252 46.0774 76.1415 46.073 76.0296 46.0641C75.9206 46.0553 75.816 46.0435 75.7158 46.0288V45.6708C75.8219 45.6856 75.9324 45.6973 76.0473 45.7062C76.1651 45.718 76.2756 45.7239 76.3787 45.7239C76.5938 45.7239 76.7646 45.6944 76.8913 45.6355C77.0209 45.5795 77.1137 45.4896 77.1697 45.3659C77.2286 45.2451 77.2581 45.089 77.2581 44.8975V44.4467L77.3995 44.1109C77.3907 44.3495 77.3406 44.5484 77.2493 44.7075C77.1579 44.8636 77.0386 44.9814 76.8913 45.061C76.747 45.1376 76.5864 45.1759 76.4096 45.1759C76.2446 45.1759 76.0929 45.1449 75.9545 45.0831C75.8189 45.0183 75.7011 44.9299 75.6009 44.8179C75.5037 44.706 75.4271 44.5778 75.3711 44.4335C75.3181 44.2862 75.2916 44.1315 75.2916 43.9695V43.8899C75.2916 43.7249 75.3196 43.5717 75.3756 43.4303C75.4315 43.286 75.5096 43.1608 75.6098 43.0547C75.7099 42.9486 75.8293 42.8661 75.9677 42.8072C76.1091 42.7483 76.2638 42.7188 76.4317 42.7188C76.6291 42.7188 76.8029 42.7616 76.9532 42.847C77.1034 42.9295 77.2213 43.0518 77.3067 43.2138C77.3951 43.3729 77.4437 43.5688 77.4525 43.8015L77.3288 43.8059V42.7984H77.6647V44.8798C77.6647 45.1626 77.6205 45.3909 77.5321 45.5648C77.4467 45.7415 77.3082 45.8712 77.1167 45.9536C76.9281 46.0361 76.6763 46.0774 76.361 46.0774ZM76.4892 44.787C76.6306 44.787 76.7587 44.7561 76.8736 44.6942C76.9915 44.6323 77.0843 44.5439 77.152 44.429C77.2227 44.3112 77.2581 44.1713 77.2581 44.0092V43.8059C77.2581 43.6469 77.2213 43.5128 77.1476 43.4038C77.0769 43.2948 76.9841 43.2123 76.8692 43.1563C76.7543 43.1004 76.6291 43.0724 76.4936 43.0724C76.3404 43.0724 76.2049 43.1077 76.087 43.1784C75.9692 43.2491 75.8779 43.3493 75.813 43.4789C75.7482 43.6056 75.7158 43.7559 75.7158 43.9297C75.7158 44.1035 75.7482 44.2552 75.813 44.3849C75.8808 44.5145 75.9721 44.6147 76.087 44.6854C76.2049 44.7531 76.3389 44.787 76.4892 44.787ZM78.4504 45.1582V42.7984H78.7863V43.8104H78.7332C78.7332 43.5776 78.7642 43.3817 78.826 43.2226C78.8908 43.0606 78.9881 42.9383 79.1177 42.8558C79.2473 42.7704 79.4108 42.7277 79.6082 42.7277H79.6259C79.9234 42.7277 80.1429 42.8205 80.2843 43.0061C80.4287 43.1917 80.5009 43.4598 80.5009 43.8104V45.1582H80.0766V43.722C80.0766 43.5393 80.0251 43.3935 79.922 43.2845C79.8189 43.1725 79.6774 43.1166 79.4977 43.1166C79.3121 43.1166 79.1619 43.174 79.047 43.2889C78.9321 43.4038 78.8746 43.557 78.8746 43.7485V45.1582H78.4504ZM82.7045 45.1582V44.4511H82.6338V43.6336C82.6338 43.4716 82.591 43.3493 82.5056 43.2668C82.4231 43.1843 82.3009 43.1431 82.1388 43.1431C82.0475 43.1431 81.9532 43.1446 81.856 43.1475C81.7588 43.1504 81.666 43.1534 81.5776 43.1563C81.4892 43.1593 81.4126 43.1637 81.3478 43.1696V42.7984C81.4126 42.7925 81.4804 42.7881 81.5511 42.7851C81.6247 42.7792 81.6999 42.7763 81.7765 42.7763C81.8531 42.7733 81.9267 42.7719 81.9974 42.7719C82.239 42.7719 82.4364 42.8013 82.5896 42.8603C82.7428 42.9162 82.8562 43.009 82.9298 43.1387C83.0035 43.2683 83.0403 43.4436 83.0403 43.6645V45.1582H82.7045ZM81.9311 45.2201C81.7544 45.2201 81.6012 45.1906 81.4715 45.1317C81.3449 45.0698 81.2462 44.9814 81.1755 44.8665C81.1077 44.7516 81.0738 44.6132 81.0738 44.4511C81.0738 44.2832 81.1106 44.1433 81.1843 44.0313C81.2609 43.9194 81.3714 43.8354 81.5157 43.7794C81.6601 43.7205 81.8339 43.6911 82.0372 43.6911H82.678V44.0092H82.0195C81.8486 44.0092 81.7175 44.0505 81.6262 44.133C81.5349 44.2155 81.4892 44.3215 81.4892 44.4511C81.4892 44.5808 81.5349 44.6854 81.6262 44.7649C81.7175 44.8444 81.8486 44.8842 82.0195 44.8842C82.1197 44.8842 82.2154 44.8665 82.3068 44.8312C82.3981 44.7929 82.4732 44.731 82.5321 44.6456C82.594 44.5572 82.6279 44.4364 82.6338 44.2832L82.7487 44.4511C82.7339 44.6191 82.6927 44.7605 82.6249 44.8754C82.5601 44.9873 82.4688 45.0728 82.3509 45.1317C82.236 45.1906 82.0961 45.2201 81.9311 45.2201ZM84.7381 45.1847C84.5614 45.1847 84.4082 45.1597 84.2785 45.1096C84.1519 45.0595 84.0532 44.9741 83.9825 44.8533C83.9147 44.7295 83.8808 44.5631 83.8808 44.3539V42.0825H84.2874V44.407C84.2874 44.5336 84.3213 44.6323 84.389 44.703C84.4597 44.7708 84.5584 44.8047 84.6851 44.8047H85.1005V45.1847H84.7381ZM83.4743 43.1166V42.7984H85.1005V43.1166H83.4743ZM86.5181 45.2289C86.2382 45.2289 86.0231 45.1376 85.8729 44.9549C85.7226 44.7723 85.6475 44.5086 85.6475 44.1639V42.794H86.0717V44.2479C86.0717 44.4335 86.1218 44.5793 86.222 44.6854C86.3222 44.7885 86.4577 44.84 86.6286 44.84C86.8053 44.84 86.9497 44.7841 87.0616 44.6721C87.1736 44.5572 87.2296 44.4011 87.2296 44.2037V42.794H87.6538V45.1582H87.3179V44.1462H87.371C87.371 44.379 87.34 44.5764 87.2782 44.7384C87.2163 44.8975 87.1235 45.0197 86.9998 45.1052C86.879 45.1877 86.7243 45.2289 86.5358 45.2289H86.5181ZM88.4754 45.1582V42.7984H88.8113V43.7706H88.7936C88.7936 43.4259 88.8687 43.174 89.019 43.0149C89.1722 42.8529 89.4005 42.7719 89.704 42.7719H89.7835V43.1519H89.6333C89.3976 43.1519 89.2164 43.2153 89.0897 43.3419C88.963 43.4657 88.8997 43.6454 88.8997 43.8811V45.1582H88.4754ZM91.2652 45.2377C91.059 45.2377 90.8808 45.2024 90.7305 45.1317C90.5803 45.061 90.458 44.9682 90.3637 44.8533C90.2694 44.7354 90.1987 44.6043 90.1516 44.46C90.1074 44.3156 90.0853 44.1683 90.0853 44.0181V43.9385C90.0853 43.7853 90.1074 43.6365 90.1516 43.4922C90.1987 43.3478 90.2694 43.2182 90.3637 43.1033C90.458 42.9855 90.5773 42.8927 90.7217 42.8249C90.869 42.7542 91.0413 42.7188 91.2387 42.7188C91.495 42.7188 91.7057 42.7748 91.8706 42.8868C92.0386 42.9958 92.1623 43.1372 92.2419 43.311C92.3243 43.4848 92.3656 43.6704 92.3656 43.8678V44.0578H90.2709V43.7397H92.0562L91.959 43.912C91.959 43.7441 91.9325 43.5997 91.8795 43.4789C91.8265 43.3552 91.7469 43.2595 91.6409 43.1917C91.5348 43.1239 91.4007 43.0901 91.2387 43.0901C91.0708 43.0901 90.9308 43.1283 90.8189 43.2049C90.7099 43.2815 90.6274 43.3861 90.5714 43.5187C90.5184 43.6513 90.4919 43.8045 90.4919 43.9783C90.4919 44.1462 90.5184 44.2979 90.5714 44.4335C90.6274 44.566 90.7128 44.6721 90.8277 44.7516C90.9426 44.8282 91.0885 44.8665 91.2652 44.8665C91.4508 44.8665 91.6011 44.8253 91.716 44.7428C91.8338 44.6603 91.9045 44.5646 91.9281 44.4556H92.3258C92.2934 44.6176 92.2286 44.7575 92.1314 44.8754C92.0342 44.9932 91.9119 45.0831 91.7646 45.1449C91.6173 45.2068 91.4508 45.2377 91.2652 45.2377Z" fill="white"/>
<rect x="61.4297" y="48.709" width="41.0348" height="7.57565" rx="1.26261" fill="#0C134F"/>
<path d="M69.26 54.0756C69.0538 54.0756 68.8726 54.0403 68.7165 53.9696C68.5603 53.8989 68.4277 53.8061 68.3187 53.6912C68.2127 53.5733 68.1317 53.4422 68.0757 53.2979C68.0227 53.1535 67.9961 53.0062 67.9961 52.856V52.7764C67.9961 52.6262 68.0241 52.4789 68.0801 52.3345C68.1361 52.1872 68.2186 52.0561 68.3276 51.9412C68.4366 51.8234 68.5692 51.7306 68.7253 51.6628C68.8814 51.5921 69.0597 51.5567 69.26 51.5567C69.4603 51.5567 69.6386 51.5921 69.7947 51.6628C69.9509 51.7306 70.0834 51.8234 70.1924 51.9412C70.3015 52.0561 70.3839 52.1872 70.4399 52.3345C70.4959 52.4789 70.5239 52.6262 70.5239 52.7764V52.856C70.5239 53.0062 70.4959 53.1535 70.4399 53.2979C70.3869 53.4422 70.3059 53.5733 70.1969 53.6912C70.0908 53.8061 69.9597 53.8989 69.8036 53.9696C69.6474 54.0403 69.4662 54.0756 69.26 54.0756ZM69.26 53.6956C69.4368 53.6956 69.587 53.6573 69.7108 53.5807C69.8374 53.5012 69.9332 53.3951 69.998 53.2625C70.0658 53.1299 70.0996 52.9812 70.0996 52.8162C70.0996 52.6483 70.0658 52.498 69.998 52.3654C69.9302 52.2329 69.833 52.1283 69.7063 52.0517C69.5826 51.9751 69.4338 51.9368 69.26 51.9368C69.0891 51.9368 68.9404 51.9751 68.8137 52.0517C68.687 52.1283 68.5898 52.2329 68.522 52.3654C68.4543 52.498 68.4204 52.6483 68.4204 52.8162C68.4204 52.9812 68.4528 53.1299 68.5176 53.2625C68.5854 53.3951 68.6811 53.5012 68.8048 53.5807C68.9315 53.6573 69.0832 53.6956 69.26 53.6956ZM71.1593 54.8799V51.6363H71.4951V52.6571L71.4156 52.6483C71.4303 52.3949 71.4833 52.1887 71.5747 52.0296C71.6689 51.8675 71.7912 51.7482 71.9415 51.6716C72.0917 51.595 72.2552 51.5567 72.432 51.5567C72.6029 51.5567 72.7575 51.5891 72.896 51.654C73.0374 51.7188 73.1582 51.8072 73.2584 51.9191C73.3585 52.0311 73.4351 52.1607 73.4882 52.308C73.5412 52.4553 73.5677 52.6114 73.5677 52.7764V52.856C73.5677 53.0209 73.5397 53.1771 73.4837 53.3244C73.4278 53.4717 73.3482 53.6013 73.2451 53.7133C73.1449 53.8252 73.0241 53.9136 72.8827 53.9784C72.7443 54.0432 72.5911 54.0756 72.4231 54.0756C72.2552 54.0756 72.0947 54.0388 71.9415 53.9652C71.7883 53.8915 71.6616 53.7722 71.5614 53.6072C71.4612 53.4422 71.4038 53.2257 71.3891 52.9576L71.5835 53.3111V54.8799H71.1593ZM72.3569 53.7044C72.5159 53.7044 72.6544 53.6676 72.7723 53.594C72.8901 53.5174 72.9814 53.4128 73.0462 53.2802C73.1111 53.1447 73.1435 52.99 73.1435 52.8162C73.1435 52.6394 73.1111 52.4848 73.0462 52.3522C72.9814 52.2196 72.8901 52.1165 72.7723 52.0428C72.6544 51.9662 72.5159 51.9279 72.3569 51.9279C72.2154 51.9279 72.0843 51.9603 71.9636 52.0252C71.8428 52.087 71.7455 52.1784 71.6719 52.2991C71.6012 52.417 71.5658 52.5599 71.5658 52.7278V52.9311C71.5658 53.0931 71.6027 53.2316 71.6763 53.3465C71.75 53.4614 71.8472 53.5498 71.968 53.6116C72.0888 53.6735 72.2184 53.7044 72.3569 53.7044ZM74.0912 52.9488V52.5864H75.7351V52.9488H74.0912ZM77.4449 54.0756C77.2416 54.0756 77.0648 54.0403 76.9146 53.9696C76.7673 53.8989 76.645 53.8046 76.5478 53.6868C76.4506 53.566 76.3769 53.4334 76.3268 53.289C76.2797 53.1447 76.2561 53.0003 76.2561 52.856V52.7764C76.2561 52.6262 76.2797 52.4789 76.3268 52.3345C76.3769 52.1901 76.4506 52.0605 76.5478 51.9456C76.6479 51.8278 76.7717 51.7335 76.919 51.6628C77.0663 51.5921 77.2386 51.5567 77.436 51.5567C77.6334 51.5567 77.8102 51.5936 77.9663 51.6672C78.1254 51.7409 78.2521 51.8455 78.3464 51.981C78.4436 52.1135 78.4981 52.2712 78.5099 52.4538H78.1033C78.0827 52.3065 78.0149 52.1843 77.9 52.087C77.7851 51.9869 77.6305 51.9368 77.436 51.9368C77.2681 51.9368 77.1282 51.9751 77.0162 52.0517C76.9043 52.1283 76.8203 52.2329 76.7643 52.3654C76.7083 52.498 76.6804 52.6483 76.6804 52.8162C76.6804 52.9782 76.7083 53.127 76.7643 53.2625C76.8203 53.3951 76.9043 53.5012 77.0162 53.5807C77.1311 53.6573 77.274 53.6956 77.4449 53.6956C77.5774 53.6956 77.6923 53.672 77.7896 53.6249C77.8868 53.5777 77.9648 53.5144 78.0238 53.4349C78.0827 53.3553 78.118 53.2655 78.1298 53.1653H78.5364C78.5275 53.3509 78.473 53.5115 78.3729 53.647C78.2757 53.7825 78.146 53.8886 77.984 53.9652C77.8249 54.0388 77.6452 54.0756 77.4449 54.0756ZM79.1128 53.9961V50.7701H79.5371V52.6969H79.431C79.431 52.4641 79.4605 52.2638 79.5194 52.0959C79.5813 51.925 79.6755 51.7939 79.8022 51.7026C79.9289 51.6112 80.0909 51.5656 80.2883 51.5656H80.306C80.5888 51.5656 80.8024 51.6598 80.9468 51.8484C81.0911 52.034 81.1633 52.3006 81.1633 52.6483V53.9961H80.7391V52.5599C80.7391 52.3684 80.6846 52.2196 80.5756 52.1135C80.4695 52.0075 80.331 51.9545 80.1602 51.9545C79.9716 51.9545 79.8199 52.0178 79.705 52.1445C79.5931 52.2682 79.5371 52.4317 79.5371 52.635V53.9961H79.1128ZM82.9427 54.0756C82.7364 54.0756 82.5582 54.0403 82.408 53.9696C82.2577 53.8989 82.1354 53.8061 82.0412 53.6912C81.9469 53.5733 81.8762 53.4422 81.8291 53.2979C81.7849 53.1535 81.7628 53.0062 81.7628 52.856V52.7764C81.7628 52.6232 81.7849 52.4744 81.8291 52.3301C81.8762 52.1857 81.9469 52.0561 82.0412 51.9412C82.1354 51.8234 82.2548 51.7306 82.3991 51.6628C82.5464 51.5921 82.7188 51.5567 82.9162 51.5567C83.1725 51.5567 83.3831 51.6127 83.5481 51.7247C83.716 51.8337 83.8398 51.9751 83.9193 52.1489C84.0018 52.3227 84.043 52.5083 84.043 52.7057V52.8957H81.9484V52.5776H83.7337L83.6365 52.7499C83.6365 52.582 83.61 52.4376 83.5569 52.3168C83.5039 52.1931 83.4244 52.0973 83.3183 52.0296C83.2122 51.9618 83.0782 51.9279 82.9162 51.9279C82.7482 51.9279 82.6083 51.9662 82.4963 52.0428C82.3873 52.1194 82.3048 52.224 82.2489 52.3566C82.1958 52.4892 82.1693 52.6424 82.1693 52.8162C82.1693 52.9841 82.1958 53.1358 82.2489 53.2714C82.3048 53.4039 82.3903 53.51 82.5052 53.5895C82.6201 53.6661 82.7659 53.7044 82.9427 53.7044C83.1283 53.7044 83.2785 53.6632 83.3934 53.5807C83.5113 53.4982 83.582 53.4025 83.6055 53.2935H84.0033C83.9709 53.4555 83.906 53.5954 83.8088 53.7133C83.7116 53.8311 83.5893 53.921 83.442 53.9828C83.2947 54.0447 83.1283 54.0756 82.9427 54.0756ZM85.6574 54.0756C85.4541 54.0756 85.2773 54.0403 85.1271 53.9696C84.9798 53.8989 84.8575 53.8046 84.7603 53.6868C84.6631 53.566 84.5894 53.4334 84.5393 53.289C84.4922 53.1447 84.4686 53.0003 84.4686 52.856V52.7764C84.4686 52.6262 84.4922 52.4789 84.5393 52.3345C84.5894 52.1901 84.6631 52.0605 84.7603 51.9456C84.8605 51.8278 84.9842 51.7335 85.1315 51.6628C85.2788 51.5921 85.4511 51.5567 85.6485 51.5567C85.8459 51.5567 86.0227 51.5936 86.1788 51.6672C86.3379 51.7409 86.4646 51.8455 86.5589 51.981C86.6561 52.1135 86.7106 52.2712 86.7224 52.4538H86.3158C86.2952 52.3065 86.2274 52.1843 86.1125 52.087C85.9976 51.9869 85.843 51.9368 85.6485 51.9368C85.4806 51.9368 85.3407 51.9751 85.2287 52.0517C85.1168 52.1283 85.0328 52.2329 84.9768 52.3654C84.9208 52.498 84.8929 52.6483 84.8929 52.8162C84.8929 52.9782 84.9208 53.127 84.9768 53.2625C85.0328 53.3951 85.1168 53.5012 85.2287 53.5807C85.3436 53.6573 85.4865 53.6956 85.6574 53.6956C85.7899 53.6956 85.9048 53.672 86.0021 53.6249C86.0993 53.5777 86.1774 53.5144 86.2363 53.4349C86.2952 53.3553 86.3305 53.2655 86.3423 53.1653H86.7489C86.7401 53.3509 86.6856 53.5115 86.5854 53.647C86.4882 53.7825 86.3585 53.8886 86.1965 53.9652C86.0374 54.0388 85.8577 54.0756 85.6574 54.0756ZM88.9516 53.9961L88.0633 52.8957H87.6745L88.7571 51.6363H89.2035L88.2224 52.772L88.2534 52.5466L89.4421 53.9961H88.9516ZM87.3253 53.9961V50.7701H87.7496V53.9961H87.3253ZM90.5974 54.0668C90.2881 54.0668 90.048 54.0005 89.8771 53.8679C89.7092 53.7354 89.6222 53.5542 89.6164 53.3244H90.0141C90.02 53.4157 90.0656 53.5026 90.1511 53.5851C90.2395 53.6647 90.3882 53.7044 90.5974 53.7044C90.786 53.7044 90.9303 53.6676 91.0305 53.594C91.1306 53.5174 91.1807 53.4246 91.1807 53.3155C91.1807 53.2183 91.1439 53.1432 91.0703 53.0902C90.9966 53.0342 90.8773 52.9974 90.7123 52.9797L90.456 52.9532C90.2321 52.9296 90.0494 52.8633 89.908 52.7543C89.7666 52.6424 89.6959 52.4862 89.6959 52.2859C89.6959 52.1356 89.7342 52.0075 89.8108 51.9014C89.8874 51.7924 89.9935 51.7099 90.129 51.654C90.2645 51.595 90.4206 51.5656 90.5974 51.5656C90.8626 51.5656 91.0776 51.6245 91.2426 51.7423C91.4076 51.8602 91.493 52.0355 91.4989 52.2682H91.1012C91.0982 52.1739 91.054 52.0944 90.9686 52.0296C90.8861 51.9618 90.7624 51.9279 90.5974 51.9279C90.4324 51.9279 90.3072 51.9618 90.2218 52.0296C90.1363 52.0973 90.0936 52.1828 90.0936 52.2859C90.0936 52.3743 90.1231 52.445 90.182 52.498C90.2439 52.551 90.344 52.5849 90.4825 52.5996L90.7388 52.6262C90.9922 52.6527 91.1955 52.7234 91.3487 52.8383C91.5019 52.9502 91.5785 53.1093 91.5785 53.3155C91.5785 53.4629 91.5357 53.594 91.4503 53.7089C91.3678 53.8208 91.2529 53.9092 91.1056 53.974C90.9583 54.0359 90.7889 54.0668 90.5974 54.0668ZM92.3082 53.9961V51.6363H92.7324V53.9961H92.3082ZM91.9458 51.9721V51.6363H92.7324V51.9721H91.9458ZM92.4275 51.2562C92.3332 51.2562 92.2625 51.2312 92.2154 51.1811C92.1712 51.131 92.1491 51.0677 92.1491 50.9911C92.1491 50.9145 92.1712 50.8511 92.2154 50.8011C92.2625 50.751 92.3332 50.7259 92.4275 50.7259C92.5218 50.7259 92.591 50.751 92.6352 50.8011C92.6823 50.8511 92.7059 50.9145 92.7059 50.9911C92.7059 51.0677 92.6823 51.131 92.6352 51.1811C92.591 51.2312 92.5218 51.2562 92.4275 51.2562ZM94.4454 54.9153C94.3364 54.9153 94.2259 54.9109 94.1139 54.902C94.0049 54.8932 93.9003 54.8814 93.8002 54.8667V54.5087C93.9062 54.5234 94.0167 54.5352 94.1316 54.5441C94.2494 54.5559 94.3599 54.5617 94.463 54.5617C94.6781 54.5617 94.849 54.5323 94.9757 54.4734C95.1053 54.4174 95.1981 54.3275 95.2541 54.2038C95.313 54.083 95.3424 53.9269 95.3424 53.7354V53.2846L95.4839 52.9488C95.475 53.1874 95.4249 53.3863 95.3336 53.5453C95.2423 53.7015 95.123 53.8193 94.9757 53.8989C94.8313 53.9755 94.6707 54.0138 94.494 54.0138C94.329 54.0138 94.1773 53.9828 94.0388 53.921C93.9033 53.8562 93.7854 53.7678 93.6853 53.6558C93.5881 53.5439 93.5115 53.4157 93.4555 53.2714C93.4024 53.1241 93.3759 52.9694 93.3759 52.8073V52.7278C93.3759 52.5628 93.4039 52.4096 93.4599 52.2682C93.5159 52.1239 93.5939 51.9986 93.6941 51.8926C93.7943 51.7865 93.9136 51.704 94.0521 51.6451C94.1935 51.5862 94.3481 51.5567 94.5161 51.5567C94.7135 51.5567 94.8873 51.5995 95.0375 51.6849C95.1878 51.7674 95.3056 51.8896 95.3911 52.0517C95.4794 52.2108 95.528 52.4067 95.5369 52.6394L95.4132 52.6438V51.6363H95.749V53.7177C95.749 54.0005 95.7048 54.2288 95.6164 54.4027C95.531 54.5794 95.3925 54.709 95.201 54.7915C95.0125 54.874 94.7606 54.9153 94.4454 54.9153ZM94.5735 53.6249C94.7149 53.6249 94.8431 53.594 94.958 53.5321C95.0758 53.4702 95.1686 53.3818 95.2364 53.2669C95.3071 53.1491 95.3424 53.0092 95.3424 52.8471V52.6438C95.3424 52.4848 95.3056 52.3507 95.232 52.2417C95.1613 52.1327 95.0685 52.0502 94.9536 51.9942C94.8387 51.9383 94.7135 51.9103 94.5779 51.9103C94.4247 51.9103 94.2892 51.9456 94.1714 52.0163C94.0535 52.087 93.9622 52.1872 93.8974 52.3168C93.8326 52.4435 93.8002 52.5938 93.8002 52.7676C93.8002 52.9414 93.8326 53.0931 93.8974 53.2227C93.9651 53.3524 94.0565 53.4525 94.1714 53.5232C94.2892 53.591 94.4233 53.6249 94.5735 53.6249Z" fill="white"/>
<path d="M113.485 43.7903V43.3585H116.087V43.7903H113.485ZM113.485 44.8017V44.3699H116.087V44.8017H113.485Z" fill="#0C134F"/>
<path d="M145.36 46.1855V43.1717L145.555 43.322H144.644V42.9596H145.785V46.1855H145.36Z" fill="#1D1F21"/>
<rect x="123.361" y="40.7477" width="44.051" height="7.87512" rx="1.10478" stroke="#0C134F" stroke-width="0.315652"/>
<path d="M27.3008 34.7871V6.05063C27.3008 3.26135 29.5619 1.00019 32.3512 1.00019H78.5619C81.3512 1.00019 83.6123 3.26135 83.6123 6.05062V23.1835" stroke="#252525" stroke-width="0.315652" stroke-linecap="round" stroke-dasharray="1.58 1.58"/>
<path d="M27.3016 37.0438C28.171 37.0438 28.8758 36.339 28.8758 35.4696C28.8758 34.6002 28.171 33.8954 27.3016 33.8954C26.4322 33.8954 25.7274 34.6002 25.7274 35.4696C25.7274 36.339 26.4322 37.0438 27.3016 37.0438Z" fill="white" stroke="#252525" stroke-width="0.946956"/>
<path d="M83.2457 26.0237L81.6445 23.4478C81.4783 23.1803 81.593 22.8459 81.842 22.7215C81.9726 22.6562 82.1253 22.6972 82.2626 22.7467L82.9718 23.0024C83.3869 23.152 83.8413 23.152 84.2564 23.0024L84.9656 22.7467C85.1029 22.6972 85.2556 22.6563 85.3862 22.7215C85.6315 22.8441 85.7472 23.1705 85.59 23.4374L84.0731 26.0133C83.8857 26.3314 83.4405 26.337 83.2457 26.0237Z" fill="#252525"/>
<path d="M146.408 34.7861V6.04961C146.408 3.26034 148.669 0.999177 151.459 0.999177H197.669C200.459 0.999177 202.72 3.26033 202.72 6.04961V40.5879" stroke="#252525" stroke-width="0.315652" stroke-linecap="round" stroke-dasharray="1.58 1.58"/>
<path d="M146.409 37.0438C147.278 37.0438 147.983 36.339 147.983 35.4696C147.983 34.6002 147.278 33.8954 146.409 33.8954C145.54 33.8954 144.835 34.6002 144.835 35.4696C144.835 36.339 145.54 37.0438 146.409 37.0438Z" fill="white" stroke="#252525" stroke-width="0.946956"/>
<path d="M202.353 43.0881L200.752 40.5123C200.586 40.2448 200.7 39.9103 200.949 39.7859C201.08 39.7207 201.233 39.7616 201.37 39.8112L202.079 40.0668C202.494 40.2165 202.949 40.2165 203.364 40.0668L204.073 39.8112C204.21 39.7616 204.363 39.7207 204.494 39.786C204.739 39.9085 204.855 40.2349 204.697 40.5019L203.181 43.0778C202.993 43.3959 202.548 43.4015 202.353 43.0881Z" fill="#252525"/>
<defs>
<linearGradient id="paint0_linear_913_1671" x1="-1.93721" y1="11.5825" x2="30.3579" y2="79.9906" gradientUnits="userSpaceOnUse">
<stop stop-color="#662B64"/>
<stop offset="1" stop-color="#456F97"/>
</linearGradient>
<linearGradient id="paint1_linear_913_1671" x1="172.459" y1="11.5825" x2="204.754" y2="79.9906" gradientUnits="userSpaceOnUse">
<stop stop-color="#662B64"/>
<stop offset="1" stop-color="#456F97"/>
</linearGradient>
</defs>
</svg>
