<svg width="18" height="18" viewBox="0 0 18 18" fill="none" xmlns="http://www.w3.org/2000/svg">
<mask id="path-1-inside-1_8665_91" fill="white">
<path d="M15.5402 6.00027L5.88021 0.46027C5.3575 0.15843 4.76421 0.000308135 4.16061 0.00196603C3.557 0.00362392 2.96459 0.165002 2.44354 0.469709C1.92249 0.774417 1.49137 1.2116 1.19396 1.73685C0.89655 2.2621 0.743452 2.8567 0.750215 3.46027V14.5803C0.750215 15.4873 1.11053 16.3572 1.75191 16.9986C2.39328 17.6399 3.26317 18.0003 4.17021 18.0003C4.77065 17.9993 5.3603 17.8406 5.88021 17.5403L15.5402 12.0003C16.0593 11.6999 16.4902 11.2682 16.7898 10.7487C17.0894 10.2292 17.2471 9.63999 17.2471 9.04027C17.2471 8.44055 17.0894 7.85137 16.7898 7.33183C16.4902 6.8123 16.0593 6.38068 15.5402 6.08027V6.00027ZM14.5402 10.1903L4.88021 15.8103C4.6637 15.933 4.41908 15.9975 4.17021 15.9975C3.92135 15.9975 3.67673 15.933 3.46021 15.8103C3.24431 15.6856 3.06503 15.5063 2.9404 15.2904C2.81576 15.0745 2.75017 14.8296 2.75021 14.5803V3.42027C2.75017 3.17097 2.81576 2.92605 2.9404 2.71013C3.06503 2.49422 3.24431 2.31492 3.46021 2.19027C3.67762 2.06943 3.92151 2.00416 4.17021 2.00027C4.41875 2.00537 4.66235 2.07056 4.88021 2.19027L14.5402 7.77027C14.7562 7.89487 14.9356 8.07414 15.0603 8.29006C15.185 8.50598 15.2506 8.75093 15.2506 9.00027C15.2506 9.24961 15.185 9.49456 15.0603 9.71048C14.9356 9.9264 14.7562 10.1057 14.5402 10.2303V10.1903Z"/>
</mask>
<path d="M15.5402 6.00027H20.5402V3.10387L18.0277 1.66293L15.5402 6.00027ZM5.88021 0.46027L3.3799 4.79022L3.38632 4.79392L3.39275 4.79761L5.88021 0.46027ZM0.750215 3.46027H5.75021V3.43226L5.7499 3.40425L0.750215 3.46027ZM0.750215 14.5803H5.75021H0.750215ZM4.17021 18.0003V23.0003L4.17869 23.0003L4.17021 18.0003ZM5.88021 17.5403L3.39275 13.2029L3.38588 13.2069L3.37902 13.2108L5.88021 17.5403ZM15.5402 12.0003L18.0277 16.3376L18.0362 16.3327L18.0448 16.3278L15.5402 12.0003ZM17.2471 9.04027H22.2471H17.2471ZM15.5402 6.08027H10.5402V8.9635L13.0356 10.4078L15.5402 6.08027ZM14.5402 10.1903H19.5402V1.49676L12.0259 5.86846L14.5402 10.1903ZM4.88021 15.8103L7.34549 20.1603L7.37011 20.1463L7.39456 20.1321L4.88021 15.8103ZM4.17021 15.9975V10.9975V15.9975ZM3.46021 15.8103L0.960215 20.1404L0.977536 20.1504L0.994937 20.1603L3.46021 15.8103ZM2.75021 14.5803L7.75021 14.5811V14.5803H2.75021ZM2.75021 3.42027H7.75022L7.75021 3.41941L2.75021 3.42027ZM3.46021 2.19027L1.03103 -2.17998L0.995461 -2.16021L0.960215 -2.13986L3.46021 2.19027ZM4.17021 2.00027L4.27282 -2.99868L4.18243 -3.00053L4.09203 -2.99912L4.17021 2.00027ZM4.88021 2.19027L7.38115 -2.13931L7.33487 -2.16605L7.28802 -2.19179L4.88021 2.19027ZM14.5402 7.77027L12.0393 12.0999L12.0417 12.1013L14.5402 7.77027ZM15.2506 9.00027H20.2506H15.2506ZM14.5402 10.2303H9.54022V18.8871L17.0387 14.5613L14.5402 10.2303ZM18.0277 1.66293L8.36768 -3.87707L3.39275 4.79761L13.0528 10.3376L18.0277 1.66293ZM8.38053 -3.86968C7.09361 -4.6128 5.63294 -5.0021 4.14687 -4.99801L4.17434 5.00195C3.89548 5.00271 3.62139 4.92966 3.3799 4.79022L8.38053 -3.86968ZM4.14687 -4.99801C2.66081 -4.99393 1.2023 -4.59662 -0.0805201 -3.84644L4.9676 4.78585C4.72688 4.92663 4.4532 5.00118 4.17434 5.00195L4.14687 -4.99801ZM-0.0805201 -3.84644C-1.36334 -3.09625 -2.42476 -2.01991 -3.15698 -0.726757L5.5449 4.20045C5.4075 4.44311 5.20832 4.64508 4.9676 4.78585L-0.0805201 -3.84644ZM-3.15698 -0.726757C-3.88919 0.5664 -4.26612 2.03031 -4.24947 3.51629L5.7499 3.40425C5.75303 3.68309 5.6823 3.95779 5.5449 4.20045L-3.15698 -0.726757ZM-4.24979 3.46027V14.5803H5.75021V3.46027H-4.24979ZM-4.24979 14.5803C-4.24979 16.8134 -3.36268 18.9551 -1.78362 20.5341L5.28744 13.463C5.58375 13.7593 5.75021 14.1612 5.75021 14.5803H-4.24979ZM-1.78362 20.5341C-0.20457 22.1132 1.93709 23.0003 4.17021 23.0003V13.0003C4.58926 13.0003 4.99114 13.1667 5.28744 13.463L-1.78362 20.5341ZM4.17869 23.0003C5.6544 22.9978 7.1036 22.6079 8.38141 21.8697L3.37902 13.2108C3.617 13.0733 3.8869 13.0007 4.16173 13.0003L4.17869 23.0003ZM8.36768 21.8776L18.0277 16.3376L13.0528 7.66293L3.39275 13.2029L8.36768 21.8776ZM18.0448 16.3278C19.3227 15.5881 20.3837 14.5255 21.1212 13.2464L12.4584 8.25099C12.5968 8.01097 12.7958 7.81157 13.0356 7.67278L18.0448 16.3278ZM21.1212 13.2464C21.8588 11.9673 22.2471 10.5168 22.2471 9.04027H12.2471C12.2471 8.76321 12.3199 8.49101 12.4584 8.25099L21.1212 13.2464ZM22.2471 9.04027C22.2471 7.56376 21.8588 6.11321 21.1212 4.83412L12.4584 9.82955C12.3199 9.58953 12.2471 9.31734 12.2471 9.04027H22.2471ZM21.1212 4.83412C20.3837 3.55504 19.3227 2.49239 18.0448 1.75278L13.0356 10.4078C12.7958 10.269 12.5968 10.0696 12.4584 9.82955L21.1212 4.83412ZM20.5402 6.08027V6.00027H10.5402V6.08027H20.5402ZM12.0259 5.86846L2.36587 11.4885L7.39456 20.1321L17.0546 14.5121L12.0259 5.86846ZM2.41494 11.4603C2.95019 11.1569 3.55494 10.9975 4.17021 10.9975V20.9975C5.28322 20.9975 6.37721 20.709 7.34549 20.1603L2.41494 11.4603ZM4.17021 10.9975C4.78549 10.9975 5.39024 11.1569 5.92549 11.4603L0.994937 20.1603C1.96322 20.709 3.05721 20.9975 4.17021 20.9975V10.9975ZM5.96021 11.4801C6.50453 11.7944 6.95652 12.2464 7.27074 12.7908L-1.38994 17.79C-0.82646 18.7662 -0.0159079 19.5768 0.960215 20.1404L5.96021 11.4801ZM7.27074 12.7908C7.58495 13.3351 7.75032 13.9526 7.75021 14.5811L-2.24979 14.5794C-2.24998 15.7065 -1.95342 16.8139 -1.38994 17.79L7.27074 12.7908ZM7.75021 14.5803V3.42027H-2.24979V14.5803H7.75021ZM7.75021 3.41941C7.75032 4.04794 7.58495 4.66542 7.27074 5.20976L-1.38994 0.210504C-1.95342 1.18667 -2.24998 2.29399 -2.24979 3.42113L7.75021 3.41941ZM7.27074 5.20976C6.95652 5.7541 6.50454 6.20613 5.96021 6.5204L0.960215 -2.13986C-0.015912 -1.57629 -0.826462 -0.765668 -1.38994 0.210504L7.27074 5.20976ZM5.8894 6.56052C5.38692 6.83982 4.82322 6.99067 4.2484 6.99966L4.09203 -2.99912C3.0198 -2.98235 1.96833 -2.70097 1.03103 -2.17998L5.8894 6.56052ZM4.06761 6.99922C3.50921 6.98776 2.96189 6.84129 2.47241 6.57233L7.28802 -2.19179C6.36281 -2.70017 5.32828 -2.97701 4.27282 -2.99868L4.06761 6.99922ZM2.37927 6.51985L12.0393 12.0999L17.0412 3.44069L7.38115 -2.13931L2.37927 6.51985ZM12.0417 12.1013C11.4972 11.7871 11.045 11.3352 10.7306 10.7908L19.39 5.78931C18.8261 4.81312 18.0152 4.00261 17.0387 3.43928L12.0417 12.1013ZM10.7306 10.7908C10.4162 10.2465 10.2506 9.62891 10.2506 9.00027H20.2506C20.2506 7.87294 19.9538 6.7655 19.39 5.78931L10.7306 10.7908ZM10.2506 9.00027C10.2506 8.37163 10.4162 7.75409 10.7306 7.20974L19.39 12.2112C19.9538 11.235 20.2506 10.1276 20.2506 9.00027H10.2506ZM10.7306 7.20974C11.045 6.66538 11.4972 6.21341 12.0417 5.89928L17.0387 14.5613C18.0152 13.9979 18.8261 13.1874 19.39 12.2112L10.7306 7.20974ZM19.5402 10.2303V10.1903H9.54022V10.2303H19.5402Z" fill="white" mask="url(#path-1-inside-1_8665_91)"/>
</svg>
