<svg width="20" height="20" viewBox="0 0 20 20" fill="none" xmlns="http://www.w3.org/2000/svg">
<path d="M14.6875 18.125H5.3125C3.09583 18.125 1.875 16.9042 1.875 14.6875V5.3125C1.875 3.09583 3.09583 1.875 5.3125 1.875H14.6875C16.9042 1.875 18.125 3.09583 18.125 5.3125V14.6875C18.125 16.9042 16.9042 18.125 14.6875 18.125ZM5.3125 3.125C3.77917 3.125 3.125 3.77917 3.125 5.3125V14.6875C3.125 16.2208 3.77917 16.875 5.3125 16.875H14.6875C16.2208 16.875 16.875 16.2208 16.875 14.6875V5.3125C16.875 3.77917 16.2208 3.125 14.6875 3.125H5.3125ZM8.56913 13.96C8.27747 13.96 7.98584 13.885 7.71667 13.7341C7.16084 13.4225 6.82912 12.8567 6.82912 12.2201V7.77995C6.82912 7.14328 7.16084 6.57754 7.71667 6.26587C8.27584 5.95337 8.93254 5.96588 9.47754 6.30005L13.21 8.58337C13.7075 8.88837 14.005 9.41748 14.005 10.0008C14.005 10.5841 13.7075 11.1133 13.21 11.4183L9.47754 13.7016C9.19504 13.8732 8.88247 13.96 8.56913 13.96ZM8.57086 7.29167C8.46086 7.29167 8.37253 7.33073 8.32753 7.35657C8.25253 7.39823 8.07831 7.52411 8.07831 7.77995V12.2201C8.07831 12.4767 8.25253 12.6018 8.32753 12.6434C8.40337 12.6859 8.60247 12.7707 8.82497 12.6341L12.5575 10.3507C12.7358 10.2416 12.755 10.0692 12.755 10C12.755 9.93083 12.7358 9.7584 12.5575 9.65006L8.82497 7.36674C8.73414 7.31007 8.64753 7.29167 8.57086 7.29167Z" fill="#6C5E70"/>
</svg>
