<svg width="18" height="18" viewBox="0 0 18 18" fill="none" xmlns="http://www.w3.org/2000/svg">
<path d="M10.4958 7.95636C9.94286 7.9568 9.49453 7.50847 9.49497 6.95557L9.49963 1.09536C9.49963 0.890104 9.41809 0.693252 9.27295 0.548113C9.12781 0.402973 8.93096 0.321435 8.7257 0.321435C8.52044 0.321435 8.32359 0.402973 8.17845 0.548113C8.03331 0.693252 7.95177 0.890103 7.95177 1.09536L7.95643 6.95557C7.95687 7.50847 7.50854 7.9568 6.95563 7.95636L1.09543 7.9517C0.890171 7.9517 0.693319 8.03324 0.54818 8.17838C0.40304 8.32352 0.321501 8.52037 0.321501 8.72563C0.321501 8.93089 0.40304 9.12774 0.54818 9.27288C0.693319 9.41802 0.89017 9.49956 1.09543 9.49956L6.95563 9.4949C7.50854 9.49447 7.95686 9.94279 7.95643 10.4957L7.95177 16.3559C7.95135 16.4577 7.97109 16.5585 8.00983 16.6526C8.04858 16.7466 8.10557 16.8321 8.17752 16.9041C8.24947 16.976 8.33495 17.033 8.42904 17.0718C8.52312 17.1105 8.62395 17.1302 8.7257 17.1298C8.82745 17.1302 8.92827 17.1105 9.02236 17.0718C9.11645 17.033 9.20193 16.976 9.27388 16.9041C9.34583 16.8321 9.40282 16.7466 9.44156 16.6526C9.48031 16.5585 9.50004 16.4577 9.49962 16.3559L9.49497 10.4957C9.49453 9.94279 9.94286 9.49446 10.4958 9.4949L16.356 9.49956C16.4577 9.49997 16.5585 9.48024 16.6526 9.4415C16.7467 9.40275 16.8322 9.34576 16.9041 9.27381C16.9761 9.20186 17.0331 9.11638 17.0718 9.02229C17.1106 8.92821 17.1303 8.82738 17.1299 8.72563C17.1303 8.62388 17.1106 8.52305 17.0718 8.42897C17.0331 8.33488 16.9761 8.2494 16.9041 8.17745C16.8322 8.1055 16.7467 8.04851 16.6526 8.00976C16.5585 7.97102 16.4577 7.95129 16.356 7.9517L10.4958 7.95636Z" fill="#6C5E70"/>
</svg>
