<svg width="20" height="20" viewBox="0 0 20 20" fill="none" xmlns="http://www.w3.org/2000/svg">
<path d="M15.8327 18.125H12.916C12.3418 18.125 11.8743 17.6575 11.8743 17.0833V15.8333C11.8743 15.2592 11.4068 14.7917 10.8327 14.7917C10.2585 14.7917 9.79102 15.2592 9.79102 15.8333V17.0833C9.79102 17.6575 9.32352 18.125 8.74935 18.125H6.66602C5.40185 18.125 4.37435 17.0967 4.37435 15.8333V13.9583H3.33268C2.06852 13.9583 1.04102 12.93 1.04102 11.6667C1.04102 10.4033 2.06852 9.375 3.33268 9.375H4.37435V7.5C4.37435 6.23667 5.40185 5.20833 6.66602 5.20833H8.54102V4.16667C8.54102 2.90333 9.56852 1.875 10.8327 1.875C12.0968 1.875 13.1243 2.90333 13.1243 4.16667V5.20833H15.8327C17.0968 5.20833 18.1243 6.23667 18.1243 7.5V9.58333C18.1243 10.1575 17.6568 10.625 17.0827 10.625H15.8327C15.2585 10.625 14.791 11.0925 14.791 11.6667C14.791 12.2408 15.2585 12.7083 15.8327 12.7083H17.0827C17.6568 12.7083 18.1243 13.1758 18.1243 13.75V15.8333C18.1243 17.0967 17.0968 18.125 15.8327 18.125ZM13.1243 16.875H15.8327C16.4068 16.875 16.8743 16.4075 16.8743 15.8333V13.9583H15.8327C14.5685 13.9583 13.541 12.93 13.541 11.6667C13.541 10.4033 14.5685 9.375 15.8327 9.375H16.8743V7.5C16.8743 6.92583 16.4068 6.45833 15.8327 6.45833H12.916C12.3418 6.45833 11.8743 5.99083 11.8743 5.41667V4.16667C11.8743 3.5925 11.4068 3.125 10.8327 3.125C10.2585 3.125 9.79102 3.5925 9.79102 4.16667V5.41667C9.79102 5.99083 9.32352 6.45833 8.74935 6.45833H6.66602C6.09185 6.45833 5.62435 6.92583 5.62435 7.5V9.58333C5.62435 10.1575 5.15685 10.625 4.58268 10.625H3.33268C2.75852 10.625 2.29102 11.0925 2.29102 11.6667C2.29102 12.2408 2.75852 12.7083 3.33268 12.7083H4.58268C5.15685 12.7083 5.62435 13.1758 5.62435 13.75V15.8333C5.62435 16.4075 6.09185 16.875 6.66602 16.875H8.54102V15.8333C8.54102 14.57 9.56852 13.5417 10.8327 13.5417C12.0968 13.5417 13.1243 14.57 13.1243 15.8333V16.875Z" fill="#6C5E70"/>
</svg>
