<svg width="23" height="20" viewBox="0 0 23 20" fill="none" xmlns="http://www.w3.org/2000/svg">
<path d="M16.8783 3.11892L16.8784 3.11873C17.0352 2.84259 17.0764 2.51564 16.993 2.20922C16.9097 1.90281 16.7085 1.6418 16.4334 1.48314L16.4325 1.48263C14.9345 0.635269 13.2427 0.189941 11.5216 0.189941C9.80053 0.189941 8.10873 0.635269 6.6107 1.48263L6.6107 1.48262L6.60979 1.48315C6.33471 1.6418 6.13354 1.90281 6.05018 2.20922C5.96682 2.51564 6.00803 2.84259 6.16482 3.11873L6.16493 3.11892C6.2435 3.25673 6.34855 3.37763 6.47404 3.47467C6.59953 3.5717 6.74298 3.64295 6.89613 3.68431C7.04927 3.72567 7.20908 3.73632 7.36636 3.71566C7.52343 3.69502 7.67487 3.64356 7.81198 3.56422C8.94331 2.92334 10.2214 2.58649 11.5216 2.58649C12.8218 2.58649 14.0999 2.92334 15.2312 3.56421C15.3683 3.64355 15.5198 3.69502 15.6769 3.71566C15.8341 3.73632 15.9939 3.72567 16.1471 3.68431C16.3002 3.64295 16.4437 3.5717 16.5692 3.47467C16.6947 3.37763 16.7997 3.25673 16.8783 3.11892ZM6.13343 12.1415C6.13126 11.1988 6.3805 10.2725 6.85544 9.45817L5.05579 13.2191C5.3416 13.2191 5.6157 13.1056 5.81779 12.9035C6.01989 12.7014 6.13343 12.4273 6.13343 12.1415ZM18.1595 8.30585L18.1588 8.30471C18.0763 8.16927 17.9678 8.0515 17.8395 7.95818C17.7113 7.86485 17.5658 7.79782 17.4116 7.76093C17.2573 7.72404 17.0973 7.71803 16.9407 7.74325C16.7841 7.76846 16.6341 7.82439 16.4992 7.90784C16.229 8.07448 16.0357 8.34117 15.9614 8.64977C15.8871 8.95801 15.9376 9.28308 16.1018 9.55427C16.2639 9.8338 16.3974 10.129 16.5002 10.4352C16.569 10.6419 16.6926 10.826 16.8578 10.9679C17.0229 11.1097 17.2235 11.2041 17.4381 11.2409C18.159 11.3653 18.8129 11.7399 19.2848 12.2989C19.7566 12.858 20.0162 13.5655 20.0177 14.297C20.0176 15.1212 19.6902 15.9116 19.1074 16.4944C18.5246 17.0772 17.7341 17.4047 16.9098 17.4047H4.69909C4.28849 17.3395 3.90769 17.1499 3.60825 16.8613C3.30655 16.5705 3.10221 16.1934 3.02328 15.7819L3.02329 15.7819L3.02299 15.7804C2.96201 15.482 2.96895 15.1737 3.04329 14.8784C3.11764 14.583 3.25748 14.3082 3.45246 14.0742C3.64743 13.8402 3.89255 13.6531 4.16966 13.5267C4.44677 13.4004 4.74876 13.3379 5.05326 13.3441L5.05326 13.3441H5.05579C5.37475 13.3441 5.68064 13.2174 5.90618 12.9919C6.13172 12.7663 6.25843 12.4604 6.25843 12.1415L6.25843 12.1412C6.25631 11.2207 6.49967 10.3163 6.96342 9.52115L6.9636 9.52083C7.04312 9.38357 7.0947 9.23193 7.11536 9.07465C7.13603 8.91738 7.12537 8.75756 7.08401 8.60442C7.04265 8.45127 6.97141 8.30783 6.87437 8.18233C6.77734 8.05684 6.65644 7.95179 6.51863 7.87322L6.51844 7.87311C6.24229 7.71632 5.91534 7.67511 5.60893 7.75847C5.30268 7.84179 5.04179 8.04279 4.88311 8.31763C4.38439 9.16678 4.06033 10.1067 3.92963 11.0822C3.03842 11.3176 2.24194 11.8252 1.65179 12.5352C1.13444 13.1429 0.790653 13.879 0.656683 14.6658C0.522672 15.4529 0.603577 16.2615 0.890865 17.0064C1.17815 17.7513 1.66117 18.4049 2.28896 18.8981C2.91675 19.3914 3.66603 19.706 4.45776 19.8089L4.46578 19.8099H4.47387H4.61396H16.9098H16.9101C18.2326 19.8063 19.5097 19.3274 20.5085 18.4606C21.5073 17.5938 22.1612 16.3969 22.351 15.0882C22.5409 13.7794 22.2539 12.446 21.5426 11.3312C20.8417 10.2328 19.7749 9.41872 18.5319 9.03224C18.4232 8.78256 18.2988 8.53995 18.1595 8.30585ZM14.7249 6.81182L14.7394 6.78437V6.75331V6.7533V6.75329V6.75328V6.75327V6.75326V6.75326V6.75325V6.75324V6.75323V6.75322V6.75321V6.7532V6.75319V6.75318V6.75317V6.75315V6.75314V6.75313V6.75313V6.75312V6.75311V6.7531V6.75309V6.75309V6.75308V6.75307V6.75306V6.75305V6.75304V6.75303V6.75302V6.75301V6.753V6.75299V6.75298V6.75297V6.75295V6.75294V6.75293V6.75292V6.75291V6.75289V6.75288V6.75287V6.75285V6.75284V6.75282V6.75281V6.75279V6.75278V6.75276V6.75275V6.75273V6.75272V6.7527V6.75268V6.75266V6.75265V6.75263V6.75261V6.75259V6.75257V6.75255V6.75253V6.75251V6.75249V6.75247V6.75245V6.75243V6.75241V6.75239V6.75236V6.75234V6.75232V6.7523V6.75227V6.75225V6.75222V6.7522V6.75217V6.75215V6.75212V6.75209V6.75207V6.75204V6.75201V6.75198V6.75196V6.75193V6.7519V6.75187V6.75184V6.75181V6.75178V6.75174V6.75171V6.75168V6.75165V6.75161V6.75158V6.75155V6.75151V6.75148V6.75144V6.75141V6.75137V6.75133V6.7513V6.75126V6.75122V6.75118V6.75114V6.7511V6.75106V6.75102V6.75098V6.75094V6.7509V6.75085V6.75081V6.75077V6.75072V6.75068V6.75063V6.75059V6.75054V6.7505V6.75045V6.7504V6.75035V6.7503V6.75026V6.75021V6.75015V6.7501V6.75005V6.75V6.74995V6.7499V6.74984V6.74979V6.74973V6.74968V6.74962V6.74957V6.74951V6.74945V6.74939V6.74933V6.74928V6.74922V6.74916V6.74909V6.74903V6.74897V6.74891V6.74884V6.74878V6.74872V6.74865V6.74858V6.74852V6.74845V6.74838V6.74831V6.74825V6.74818V6.74811V6.74803V6.74796V6.74789V6.74782V6.74774V6.74767V6.7476V6.74752V6.74744V6.74737V6.74729V6.74721V6.74713V6.74705V6.74697V6.74689V6.74681V6.74673V6.74665V6.74656V6.74648V6.74639V6.74631V6.74622V6.74613V6.74605V6.74596V6.74587V6.74578V6.74569V6.7456V6.7455V6.74541V6.74532V6.74522V6.74513V6.74503V6.74494V6.74484V6.74474V6.74464V6.74454V6.74444V6.74434V6.74424V6.74414V6.74403V6.74393V6.74382V6.74372V6.74361V6.7435V6.7434V6.74329V6.74318V6.74307V6.74296V6.74284V6.74273V6.74262V6.7425V6.74239V6.74227V6.74215V6.74204V6.74192V6.7418V6.74168V6.74156V6.74143V6.74131V6.74119V6.74106V6.74094V6.74081V6.74068V6.74056V6.74043V6.7403V6.74017V6.74004V6.7399V6.73977V6.73964V6.7395V6.73937V6.73923V6.73909V6.73895V6.73881V6.73867V6.73853V6.73839V6.73825V6.7381V6.73796V6.73781V6.73767V6.73752V6.73737V6.73722V6.73707V6.73692V6.73677V6.73661V6.73646V6.73631V6.73615V6.73599V6.73584V6.73568V6.73552V6.73536V6.73519V6.73503V6.73487V6.7347V6.73454V6.73437V6.7342V6.73403V6.73387V6.73369V6.73352V6.73335V6.73319C14.7894 6.66937 14.8322 6.60026 14.8673 6.52708L14.8676 6.52725L14.8712 6.51792C14.9851 6.22123 14.977 5.8915 14.8485 5.6008C14.7201 5.3101 14.4818 5.08207 14.1857 4.96652L14.1857 4.96651L14.1838 4.96578C13.5701 4.73793 12.9273 4.59757 12.2745 4.54881L12.2745 4.54847H12.2652H12.2645H12.2639H12.2633H12.2627H12.262H12.2614H12.2608H12.2601H12.2595H12.2589H12.2582H12.2576H12.257H12.2563H12.2557H12.2551H12.2544H12.2538H12.2532H12.2526H12.2519H12.2513H12.2507H12.25H12.2494H12.2488H12.2481H12.2475H12.2469H12.2462H12.2456H12.245H12.2443H12.2437H12.2431H12.2424H12.2418H12.2412H12.2406H12.2399H12.2393H12.2387H12.238H12.2374H12.2368H12.2361H12.2355H12.2349H12.2342H12.2336H12.233H12.2323H12.2317H12.2311H12.2305H12.2298H12.2292H12.2286H12.2279H12.2273H12.2267H12.226H12.2254H12.2248H12.2241H12.2235H12.2229H12.2222H12.2216H12.221H12.2203H12.2197H12.2191H12.2185H12.2178H12.2172H12.2166H12.2159H12.2153H12.2147H12.214H12.2134H12.2128H12.2121H12.2115H12.2109H12.2102H12.2096H12.209H12.2084H12.2077H12.2071H12.2065H12.2058H12.2052H12.2046H12.2039H12.2033H12.2027H12.202H12.2014H12.2008H12.2001H12.1995H12.1989H12.1982H12.1976H12.197H12.1964H12.1957H12.1951H12.1945H12.1938H12.1932H12.1926H12.1919H12.1913H12.1907H12.19H12.1894H12.1888H12.1881H12.1875H12.1869H12.1863H12.1856H12.185H12.1844H12.1837H12.1831H12.1825H12.1818H12.1812H12.1806H12.1799H12.1793H12.1787H12.178H12.1774H12.1768H12.1761H12.1755H12.1749H12.1743H12.1736H12.173H12.1724H12.1717H12.1711H12.1705H12.1698H12.1692H12.1686H12.1679H12.1673H12.1667H12.166H12.1654H12.1648H12.1642H12.1635H12.1629H12.1623H12.1616H12.161H12.1604H12.1597H12.1591H12.1585H12.1578H12.1572H12.1566H12.1559H12.1553H12.1547H12.154H12.1534H12.1528H12.1522H12.1515H12.1509H12.1503H12.1496H12.149H12.1484H12.1477H12.1471H12.1465H12.1458H12.1452H12.1446H12.1439H12.1433H12.1427H12.1421H12.1414H12.1408H12.1402H12.1395H12.1389H12.1383H12.1376H12.137H12.1364H12.1357H12.1351H12.1345H12.1338H12.1332H12.1326H12.1319H12.1313H12.1307H12.1301H12.1294H12.1288H12.1282H12.1275H12.1269H12.1263H12.1256H12.125H12.1244H12.1237H12.1231H12.1225H12.1218H12.1212H12.1206H12.12H12.1193H12.1187H12.1181H12.1174H12.1168H12.1162H12.1155H12.1149H12.1143H12.1136H12.113H12.1124H12.1117H12.1111H12.1105H12.1098H12.1092H12.1086H12.108H12.1073H12.1067H12.1061H12.1054H12.1048H12.1042H12.1035H12.1029H12.1023H12.1016H12.101H12.1004H12.0997H12.0991H12.0985H12.0979H12.0972H12.0966H12.096H12.0953H12.0947H12.0941H12.0934H12.0928H12.0922H12.0915H12.0909H12.0903H12.0896H12.089H12.0884H12.0877H12.0871H12.0865H12.0859H12.0852H12.0846H12.084H12.0833H12.0827H12.0821H12.0814H12.0808H12.0802H12.0795H12.0789H12.0783H12.0776H12.077H12.0764H12.0758H12.0751H12.0745H12.0739H12.0732H12.0726H12.072H12.0713H12.0707H12.0701H12.0694H12.0688H12.0682H12.0675H12.0669H12.0663H12.0656H12.065H12.0644H12.0638H12.0631H12.0625H12.0619H12.0612H12.0606H12.06H12.0593H12.0587H12.0581H12.0574H12.0568H12.0562H12.0555H12.0549H12.0543H12.0537H12.053H12.0524H12.0518H12.0511H12.0505H12.0499H12.0492H12.0486H12.048H12.0473H12.0467H12.0461H12.0454H12.0448H12.0442H12.0435H12.0429H12.0423H12.0417H12.041H12.0404H12.0398H12.0391H12.0385H12.0379H12.0372H12.0366H12.036H12.0353H12.0347H12.0341H12.0334H12.0328H12.0322H12.0316H12.0309H12.0303H12.0297H12.029H12.0284H12.0278H12.0271H12.0265H12.0259H12.0252H12.0246H12.024H12.0233H12.0227H12.0221H12.0214H12.0208H12.0202H12.0196H12.0189H12.0183H12.0177H12.017H12.0164H12.0158H12.0151H12.0145H12.0139H12.0132H12.0126H12.012H12.0113H12.0107H12.0101H12.0095H12.0088H12.0082H12.0076H12.0069H12.0063H12.0057H12.005H12.0044H12.0038H12.0031H12.0025H12.0019H12.0012H12.0006H12H11.9993H11.9987H11.9981H11.9975H11.9968H11.9962H11.9956H11.9949H11.9943H11.9937H11.993H11.9924H11.9918H11.9911H11.9905H11.9899H11.9892H11.9886H11.988H11.9874H11.9867H11.9861H11.9855H11.9848H11.9842H11.9836H11.9829H11.9823H11.9817H11.981H11.9804H11.9798H11.9791H11.9785H11.9779H11.9772H11.9766H11.976H11.9754H11.9747H11.9741H11.9735H11.9728H11.9722H11.9716H11.9709H11.9703H11.9697H11.969H11.9684H11.9678H11.9671H11.9665H11.9659H11.9653H11.9646H11.964H11.9634H11.9627H11.9621H11.9615H11.9608H11.9602H11.9596H11.9589H11.9583H11.9577H11.957H11.9564H11.9558H11.9551H11.9545H11.9539H11.9533H11.9526H11.952H11.9514H11.9507H11.9501H11.9495H11.9488H11.9482H11.9476H11.9469H11.9465C11.6539 4.52697 11.3602 4.5269 11.0676 4.54824C10.9546 4.54266 10.8414 4.54279 10.7285 4.54863L10.7285 4.5486L10.7256 4.54881C10.0728 4.59757 9.43006 4.73793 8.81634 4.96578L8.81628 4.96561L8.8101 4.9683C8.52274 5.09296 8.29536 5.32481 8.17633 5.61455C8.05729 5.90428 8.05599 6.22902 8.1727 6.5197L8.17224 6.51988L8.17732 6.52985C8.21034 6.59469 8.24822 6.65691 8.29063 6.71598C8.2898 6.74657 8.29076 6.77718 8.29353 6.80768L8.29603 6.83529L8.30996 6.85926C8.38953 6.99606 8.49532 7.11581 8.62127 7.21165C8.74721 7.30749 8.89083 7.37753 9.0439 7.41775C9.19696 7.45797 9.35646 7.46759 9.51325 7.44604C9.66958 7.42456 9.82015 7.37253 9.95638 7.29291C10.4317 7.02813 10.9667 6.88914 11.5108 6.88914C12.0551 6.88914 12.5904 7.02824 13.0658 7.29322C13.2056 7.37303 13.36 7.42397 13.5198 7.44302C13.6799 7.46209 13.8422 7.4488 13.997 7.40393C14.1518 7.35905 14.296 7.28351 14.4211 7.18179C14.5461 7.08008 14.6494 6.95426 14.7249 6.81182ZM10.319 9.98621C10.319 10.2241 10.3895 10.4566 10.5217 10.6544C10.6538 10.8521 10.8416 11.0063 11.0614 11.0973C11.2811 11.1883 11.5229 11.2121 11.7562 11.1657C11.9895 11.1193 12.2038 11.0048 12.372 10.8366C12.5402 10.6684 12.6547 10.4541 12.7011 10.2208C12.7475 9.98755 12.7237 9.74574 12.6327 9.52598C12.5417 9.30623 12.3875 9.11841 12.1898 8.98626C11.992 8.85411 11.7595 8.78358 11.5216 8.78358C11.2027 8.78358 10.8968 8.91028 10.6712 9.13582C10.4457 9.36136 10.319 9.66725 10.319 9.98621Z" fill="url(#paint0_linear_9941_6790)" stroke="#0C071D" stroke-width="0.25"/>
<defs>
<linearGradient id="paint0_linear_9941_6790" x1="-3.3199" y1="3.27977" x2="22.8307" y2="3.12485" gradientUnits="userSpaceOnUse">
<stop stop-color="#F79327"/>
<stop offset="0.494792" stop-color="white"/>
<stop offset="1" stop-color="#75F7FF"/>
</linearGradient>
</defs>
</svg>
