<svg width="12" height="16" viewBox="0 0 12 16" fill="none" xmlns="http://www.w3.org/2000/svg">
<path d="M8.79826 0H2.39953C1.76314 0 1.15281 0.252806 0.70281 0.702804C0.252813 1.1528 6.30508e-06 1.76313 6.30508e-06 2.39952V15.197C-0.000553238 15.3379 0.0361389 15.4765 0.106368 15.5987C0.176596 15.7209 0.277868 15.8224 0.399927 15.8928C0.521518 15.963 0.659446 16 0.799847 16C0.940249 16 1.07818 15.963 1.19977 15.8928L5.59889 13.3493L9.99802 15.8928C10.1199 15.9619 10.2578 15.9978 10.3979 15.9968C10.5381 15.9978 10.676 15.9619 10.7979 15.8928C10.9199 15.8224 11.0212 15.7209 11.0914 15.5987C11.1616 15.4765 11.1983 15.3379 11.1978 15.197V2.39952C11.1978 1.76313 10.945 1.1528 10.495 0.702804C10.045 0.252806 9.43465 0 8.79826 0ZM9.5981 13.8133L5.99881 11.7337C5.87722 11.6635 5.7393 11.6265 5.59889 11.6265C5.45849 11.6265 5.32056 11.6635 5.19897 11.7337L1.59969 13.8133V2.39952C1.59969 2.18739 1.68396 1.98395 1.83396 1.83395C1.98396 1.68395 2.1874 1.59968 2.39953 1.59968H8.79826C9.01039 1.59968 9.21383 1.68395 9.36383 1.83395C9.51383 1.98395 9.5981 2.18739 9.5981 2.39952V13.8133Z" fill="#6C5E70"/>
</svg>
