<svg width="20" height="19" viewBox="0 0 20 19" fill="none" xmlns="http://www.w3.org/2000/svg">
<path d="M8 17.046H3C2.73478 17.046 2.48043 16.9462 2.29289 16.7686C2.10536 16.591 2 16.3502 2 16.099V2.841C2 2.58984 2.10536 2.34897 2.29289 2.17137C2.48043 1.99377 2.73478 1.894 3 1.894H8V4.735C8 5.48848 8.31607 6.2111 8.87868 6.74389C9.44129 7.27668 10.2044 7.576 11 7.576H15C15.1974 7.57507 15.3901 7.51881 15.5539 7.41433C15.7176 7.30984 15.845 7.1618 15.92 6.98886C15.9966 6.8164 16.0175 6.62633 15.9801 6.44262C15.9428 6.25891 15.8488 6.0898 15.71 5.95663L9.71 0.27463C9.62734 0.200969 9.53282 0.140233 9.43 0.0946999C9.40015 0.0906848 9.36985 0.0906848 9.34 0.0946999L9.06 0H3C2.20435 0 1.44129 0.299319 0.87868 0.83211C0.316071 1.3649 0 2.08752 0 2.841V16.099C0 16.8525 0.316071 17.5751 0.87868 18.1079C1.44129 18.6407 2.20435 18.94 3 18.94H8C8.26522 18.94 8.51957 18.8402 8.70711 18.6626C8.89464 18.485 9 18.2442 9 17.993C9 17.7418 8.89464 17.501 8.70711 17.3234C8.51957 17.1458 8.26522 17.046 8 17.046ZM10 3.22927L12.59 5.682H11C10.7348 5.682 10.4804 5.58223 10.2929 5.40463C10.1054 5.22703 10 4.98616 10 4.735V3.22927ZM11 10.417C11 10.1658 10.8946 9.92497 10.7071 9.74737C10.5196 9.56977 10.2652 9.47 10 9.47H5C4.73478 9.47 4.48043 9.56977 4.29289 9.74737C4.10536 9.92497 4 10.1658 4 10.417C4 10.6682 4.10536 10.909 4.29289 11.0866C4.48043 11.2642 4.73478 11.364 5 11.364H10C10.2652 11.364 10.5196 11.2642 10.7071 11.0866C10.8946 10.909 11 10.6682 11 10.417ZM5 7.576H6C6.26522 7.576 6.51957 7.47623 6.70711 7.29863C6.89464 7.12103 7 6.88016 7 6.629C7 6.37784 6.89464 6.13697 6.70711 5.95937C6.51957 5.78177 6.26522 5.682 6 5.682H5C4.73478 5.682 4.48043 5.78177 4.29289 5.95937C4.10536 6.13697 4 6.37784 4 6.629C4 6.88016 4.10536 7.12103 4.29289 7.29863C4.48043 7.47623 4.73478 7.576 5 7.576ZM5 13.258C4.73478 13.258 4.48043 13.3578 4.29289 13.5354C4.10536 13.713 4 13.9538 4 14.205C4 14.4562 4.10536 14.697 4.29289 14.8746C4.48043 15.0522 4.73478 15.152 5 15.152H7C7.26522 15.152 7.51957 15.0522 7.70711 14.8746C7.89464 14.697 8 14.4562 8 14.205C8 13.9538 7.89464 13.713 7.70711 13.5354C7.51957 13.3578 7.26522 13.258 7 13.258H5ZM18 12.4815V12.311C18 11.5575 17.6839 10.8349 17.1213 10.3021C16.5587 9.76932 15.7956 9.47 15 9.47C14.2044 9.47 13.4413 9.76932 12.8787 10.3021C12.3161 10.8349 12 11.5575 12 12.311V12.4815C11.4165 12.6768 10.911 13.0384 10.5529 13.5165C10.1949 13.9946 10.0017 14.5659 10 15.152V16.099C10 16.8525 10.3161 17.5751 10.8787 18.1079C11.4413 18.6407 12.2044 18.94 13 18.94H17C17.7956 18.94 18.5587 18.6407 19.1213 18.1079C19.6839 17.5751 20 16.8525 20 16.099V15.152C19.9983 14.5659 19.8051 13.9946 19.4471 13.5165C19.089 13.0384 18.5835 12.6768 18 12.4815ZM15 11.364C15.2652 11.364 15.5196 11.4638 15.7071 11.6414C15.8946 11.819 16 12.0598 16 12.311H14C14 12.0598 14.1054 11.819 14.2929 11.6414C14.4804 11.4638 14.7348 11.364 15 11.364ZM18 16.099C18 16.3502 17.8946 16.591 17.7071 16.7686C17.5196 16.9462 17.2652 17.046 17 17.046H13C12.7348 17.046 12.4804 16.9462 12.2929 16.7686C12.1054 16.591 12 16.3502 12 16.099V15.152C12 14.9008 12.1054 14.66 12.2929 14.4824C12.4804 14.3048 12.7348 14.205 13 14.205H17C17.2652 14.205 17.5196 14.3048 17.7071 14.4824C17.8946 14.66 18 14.9008 18 15.152V16.099Z" fill="#FAFAFA"/>
</svg>
