<svg width="96" height="96" viewBox="0 0 96 96" fill="none" xmlns="http://www.w3.org/2000/svg">
<mask id="path-1-inside-1_5237_23634" fill="white">
<path d="M48 80H20C18.9391 80 17.9217 79.5786 17.1716 78.8284C16.4214 78.0783 16 77.0609 16 76V20C16 18.9391 16.4214 17.9217 17.1716 17.1716C17.9217 16.4214 18.9391 16 20 16H40V28C40 31.1826 41.2643 34.2348 43.5147 36.4853C45.7652 38.7357 48.8174 40 52 40H64V44C64 45.0609 64.4214 46.0783 65.1716 46.8284C65.9217 47.5786 66.9391 48 68 48C69.0609 48 70.0783 47.5786 70.8284 46.8284C71.5786 46.0783 72 45.0609 72 44V36C72 36 72 36 72 35.76C71.9583 35.3925 71.8779 35.0305 71.76 34.68V34.32C71.5677 33.9087 71.3111 33.5307 71 33.2L47 9.2C46.6693 8.88886 46.2913 8.63232 45.88 8.44C45.7606 8.42304 45.6394 8.42304 45.52 8.44C45.1137 8.20696 44.6649 8.05738 44.2 8H20C16.8174 8 13.7652 9.26428 11.5147 11.5147C9.26428 13.7652 8 16.8174 8 20V76C8 79.1826 9.26428 82.2348 11.5147 84.4853C13.7652 86.7357 16.8174 88 20 88H48C49.0609 88 50.0783 87.5786 50.8284 86.8284C51.5786 86.0783 52 85.0609 52 84C52 82.9391 51.5786 81.9217 50.8284 81.1716C50.0783 80.4214 49.0609 80 48 80ZM48 21.64L58.36 32H52C50.9391 32 49.9217 31.5786 49.1716 30.8284C48.4214 30.0783 48 29.0609 48 28V21.64ZM28 32C26.9391 32 25.9217 32.4214 25.1716 33.1716C24.4214 33.9217 24 34.9391 24 36C24 37.0609 24.4214 38.0783 25.1716 38.8284C25.9217 39.5786 26.9391 40 28 40H32C33.0609 40 34.0783 39.5786 34.8284 38.8284C35.5786 38.0783 36 37.0609 36 36C36 34.9391 35.5786 33.9217 34.8284 33.1716C34.0783 32.4214 33.0609 32 32 32H28ZM86.84 81.16L82.16 76.52C83.6558 73.909 84.2545 70.8797 83.8644 67.8959C83.4743 64.9122 82.1169 62.1386 80 60C78.0521 57.9827 75.5418 56.5988 72.7961 56.0286C70.0504 55.4583 67.1967 55.7283 64.6066 56.8031C62.0165 57.878 59.8102 59.708 58.2751 62.0548C56.7399 64.4015 55.9472 67.1562 56 69.96C55.9862 72.3727 56.6035 74.7472 57.7905 76.8478C58.9775 78.9484 60.693 80.7022 62.767 81.9352C64.8409 83.1682 67.2011 83.8377 69.6136 83.8771C72.026 83.9165 74.4069 83.3246 76.52 82.16L81.16 86.84C81.5319 87.2149 81.9743 87.5125 82.4617 87.7156C82.9491 87.9186 83.472 88.0232 84 88.0232C84.528 88.0232 85.0509 87.9186 85.5383 87.7156C86.0257 87.5125 86.4681 87.2149 86.84 86.84C87.2149 86.4681 87.5125 86.0257 87.7156 85.5383C87.9186 85.0509 88.0232 84.528 88.0232 84C88.0232 83.472 87.9186 82.9491 87.7156 82.4617C87.5125 81.9743 87.2149 81.5319 86.84 81.16ZM74.16 74.16C73.0175 75.2344 71.5083 75.8326 69.94 75.8326C68.3717 75.8326 66.8625 75.2344 65.72 74.16C64.6189 73.0392 64.0013 71.5312 64 69.96C63.9917 69.171 64.1434 68.3885 64.4459 67.6598C64.7484 66.9311 65.1954 66.2712 65.76 65.72C66.8264 64.6594 68.2566 64.0444 69.76 64C70.5687 63.9503 71.3789 64.0683 72.1399 64.3465C72.9008 64.6247 73.5961 65.0572 74.182 65.6168C74.7679 66.1765 75.2318 66.8511 75.5447 67.5985C75.8575 68.3459 76.0126 69.1499 76 69.96C75.9669 71.5484 75.3052 73.0588 74.16 74.16ZM52 48H28C26.9391 48 25.9217 48.4214 25.1716 49.1716C24.4214 49.9217 24 50.9391 24 52C24 53.0609 24.4214 54.0783 25.1716 54.8284C25.9217 55.5786 26.9391 56 28 56H52C53.0609 56 54.0783 55.5786 54.8284 54.8284C55.5786 54.0783 56 53.0609 56 52C56 50.9391 55.5786 49.9217 54.8284 49.1716C54.0783 48.4214 53.0609 48 52 48ZM44 72C45.0609 72 46.0783 71.5786 46.8284 70.8284C47.5786 70.0783 48 69.0609 48 68C48 66.9391 47.5786 65.9217 46.8284 65.1716C46.0783 64.4214 45.0609 64 44 64H28C26.9391 64 25.9217 64.4214 25.1716 65.1716C24.4214 65.9217 24 66.9391 24 68C24 69.0609 24.4214 70.0783 25.1716 70.8284C25.9217 71.5786 26.9391 72 28 72H44Z"/>
</mask>
<path d="M48 80H20C18.9391 80 17.9217 79.5786 17.1716 78.8284C16.4214 78.0783 16 77.0609 16 76V20C16 18.9391 16.4214 17.9217 17.1716 17.1716C17.9217 16.4214 18.9391 16 20 16H40V28C40 31.1826 41.2643 34.2348 43.5147 36.4853C45.7652 38.7357 48.8174 40 52 40H64V44C64 45.0609 64.4214 46.0783 65.1716 46.8284C65.9217 47.5786 66.9391 48 68 48C69.0609 48 70.0783 47.5786 70.8284 46.8284C71.5786 46.0783 72 45.0609 72 44V36C72 36 72 36 72 35.76C71.9583 35.3925 71.8779 35.0305 71.76 34.68V34.32C71.5677 33.9087 71.3111 33.5307 71 33.2L47 9.2C46.6693 8.88886 46.2913 8.63232 45.88 8.44C45.7606 8.42304 45.6394 8.42304 45.52 8.44C45.1137 8.20696 44.6649 8.05738 44.2 8H20C16.8174 8 13.7652 9.26428 11.5147 11.5147C9.26428 13.7652 8 16.8174 8 20V76C8 79.1826 9.26428 82.2348 11.5147 84.4853C13.7652 86.7357 16.8174 88 20 88H48C49.0609 88 50.0783 87.5786 50.8284 86.8284C51.5786 86.0783 52 85.0609 52 84C52 82.9391 51.5786 81.9217 50.8284 81.1716C50.0783 80.4214 49.0609 80 48 80ZM48 21.64L58.36 32H52C50.9391 32 49.9217 31.5786 49.1716 30.8284C48.4214 30.0783 48 29.0609 48 28V21.64ZM28 32C26.9391 32 25.9217 32.4214 25.1716 33.1716C24.4214 33.9217 24 34.9391 24 36C24 37.0609 24.4214 38.0783 25.1716 38.8284C25.9217 39.5786 26.9391 40 28 40H32C33.0609 40 34.0783 39.5786 34.8284 38.8284C35.5786 38.0783 36 37.0609 36 36C36 34.9391 35.5786 33.9217 34.8284 33.1716C34.0783 32.4214 33.0609 32 32 32H28ZM86.84 81.16L82.16 76.52C83.6558 73.909 84.2545 70.8797 83.8644 67.8959C83.4743 64.9122 82.1169 62.1386 80 60C78.0521 57.9827 75.5418 56.5988 72.7961 56.0286C70.0504 55.4583 67.1967 55.7283 64.6066 56.8031C62.0165 57.878 59.8102 59.708 58.2751 62.0548C56.7399 64.4015 55.9472 67.1562 56 69.96C55.9862 72.3727 56.6035 74.7472 57.7905 76.8478C58.9775 78.9484 60.693 80.7022 62.767 81.9352C64.8409 83.1682 67.2011 83.8377 69.6136 83.8771C72.026 83.9165 74.4069 83.3246 76.52 82.16L81.16 86.84C81.5319 87.2149 81.9743 87.5125 82.4617 87.7156C82.9491 87.9186 83.472 88.0232 84 88.0232C84.528 88.0232 85.0509 87.9186 85.5383 87.7156C86.0257 87.5125 86.4681 87.2149 86.84 86.84C87.2149 86.4681 87.5125 86.0257 87.7156 85.5383C87.9186 85.0509 88.0232 84.528 88.0232 84C88.0232 83.472 87.9186 82.9491 87.7156 82.4617C87.5125 81.9743 87.2149 81.5319 86.84 81.16ZM74.16 74.16C73.0175 75.2344 71.5083 75.8326 69.94 75.8326C68.3717 75.8326 66.8625 75.2344 65.72 74.16C64.6189 73.0392 64.0013 71.5312 64 69.96C63.9917 69.171 64.1434 68.3885 64.4459 67.6598C64.7484 66.9311 65.1954 66.2712 65.76 65.72C66.8264 64.6594 68.2566 64.0444 69.76 64C70.5687 63.9503 71.3789 64.0683 72.1399 64.3465C72.9008 64.6247 73.5961 65.0572 74.182 65.6168C74.7679 66.1765 75.2318 66.8511 75.5447 67.5985C75.8575 68.3459 76.0126 69.1499 76 69.96C75.9669 71.5484 75.3052 73.0588 74.16 74.16ZM52 48H28C26.9391 48 25.9217 48.4214 25.1716 49.1716C24.4214 49.9217 24 50.9391 24 52C24 53.0609 24.4214 54.0783 25.1716 54.8284C25.9217 55.5786 26.9391 56 28 56H52C53.0609 56 54.0783 55.5786 54.8284 54.8284C55.5786 54.0783 56 53.0609 56 52C56 50.9391 55.5786 49.9217 54.8284 49.1716C54.0783 48.4214 53.0609 48 52 48ZM44 72C45.0609 72 46.0783 71.5786 46.8284 70.8284C47.5786 70.0783 48 69.0609 48 68C48 66.9391 47.5786 65.9217 46.8284 65.1716C46.0783 64.4214 45.0609 64 44 64H28C26.9391 64 25.9217 64.4214 25.1716 65.1716C24.4214 65.9217 24 66.9391 24 68C24 69.0609 24.4214 70.0783 25.1716 70.8284C25.9217 71.5786 26.9391 72 28 72H44Z" fill="#FAFAFA" stroke="#0C071D" stroke-width="4" mask="url(#path-1-inside-1_5237_23634)"/>
</svg>
