<svg width="25" height="28" viewBox="0 0 25 28" fill="none" xmlns="http://www.w3.org/2000/svg">
<path d="M9.98071 24.6602H3.94784C3.62784 24.6602 3.32094 24.5197 3.09467 24.2696C2.86839 24.0196 2.74127 23.6804 2.74127 23.3268V4.66016C2.74127 4.30653 2.86839 3.9674 3.09467 3.71735C3.32094 3.4673 3.62784 3.32682 3.94784 3.32682H9.98071V7.32682C9.98071 8.38769 10.3621 9.4051 11.0409 10.1552C11.7197 10.9054 12.6404 11.3268 13.6004 11.3268H18.4267C18.6649 11.3255 18.8975 11.2463 19.095 11.0992C19.2925 10.9521 19.4463 10.7436 19.5368 10.5002C19.6292 10.2573 19.6544 9.98972 19.6093 9.73107C19.5642 9.47242 19.4508 9.23432 19.2834 9.04682L12.0439 1.04682C11.9442 0.943111 11.8302 0.857598 11.7061 0.793489C11.6701 0.787836 11.6335 0.787836 11.5975 0.793489L11.2597 0.660156H3.94784C2.98783 0.660156 2.06715 1.08158 1.38832 1.83173C0.709487 2.58187 0.328125 3.59929 0.328125 4.66016V23.3268C0.328125 24.3877 0.709487 25.4051 1.38832 26.1552C2.06715 26.9054 2.98783 27.3268 3.94784 27.3268H9.98071C10.3007 27.3268 10.6076 27.1863 10.8339 26.9363C11.0602 26.6862 11.1873 26.3471 11.1873 25.9935C11.1873 25.6399 11.0602 25.3007 10.8339 25.0507C10.6076 24.8006 10.3007 24.6602 9.98071 24.6602ZM12.3939 5.20682L15.5189 8.66016H13.6004C13.2804 8.66016 12.9735 8.51968 12.7473 8.26963C12.521 8.01958 12.3939 7.68044 12.3939 7.32682V5.20682ZM13.6004 15.3268C13.6004 14.9732 13.4733 14.6341 13.247 14.384C13.0208 14.134 12.7139 13.9935 12.3939 13.9935H6.36099C6.04099 13.9935 5.73409 14.134 5.50781 14.384C5.28154 14.6341 5.15442 14.9732 5.15442 15.3268C5.15442 15.6804 5.28154 16.0196 5.50781 16.2696C5.73409 16.5197 6.04099 16.6602 6.36099 16.6602H12.3939C12.7139 16.6602 13.0208 16.5197 13.247 16.2696C13.4733 16.0196 13.6004 15.6804 13.6004 15.3268ZM6.36099 11.3268H7.56756C7.88757 11.3268 8.19446 11.1863 8.42074 10.9363C8.64702 10.6862 8.77414 10.3471 8.77414 9.99349C8.77414 9.63987 8.64702 9.30073 8.42074 9.05068C8.19446 8.80063 7.88757 8.66016 7.56756 8.66016H6.36099C6.04099 8.66016 5.73409 8.80063 5.50781 9.05068C5.28154 9.30073 5.15442 9.63987 5.15442 9.99349C5.15442 10.3471 5.28154 10.6862 5.50781 10.9363C5.73409 11.1863 6.04099 11.3268 6.36099 11.3268ZM6.36099 19.3268C6.04099 19.3268 5.73409 19.4673 5.50781 19.7173C5.28154 19.9674 5.15442 20.3065 5.15442 20.6602C5.15442 21.0138 5.28154 21.3529 5.50781 21.603C5.73409 21.853 6.04099 21.9935 6.36099 21.9935H8.77414C9.09414 21.9935 9.40104 21.853 9.62731 21.603C9.85359 21.3529 9.98071 21.0138 9.98071 20.6602C9.98071 20.3065 9.85359 19.9674 9.62731 19.7173C9.40104 19.4673 9.09414 19.3268 8.77414 19.3268H6.36099ZM22.0464 18.2335V17.9935C22.0464 16.9326 21.6651 15.9152 20.9862 15.1651C20.3074 14.4149 19.3867 13.9935 18.4267 13.9935C17.4667 13.9935 16.546 14.4149 15.8672 15.1651C15.1884 15.9152 14.807 16.9326 14.807 17.9935V18.2335C14.1029 18.5086 13.493 19.0176 13.061 19.6907C12.629 20.3639 12.396 21.1682 12.3939 21.9935V23.3268C12.3939 24.3877 12.7752 25.4051 13.454 26.1552C14.1329 26.9054 15.0536 27.3268 16.0136 27.3268H20.8399C21.7999 27.3268 22.7206 26.9054 23.3994 26.1552C24.0782 25.4051 24.4596 24.3877 24.4596 23.3268V21.9935C24.4575 21.1682 24.2244 20.3639 23.7924 19.6907C23.3604 19.0176 22.7505 18.5086 22.0464 18.2335ZM18.4267 16.6602C18.7467 16.6602 19.0536 16.8006 19.2799 17.0507C19.5062 17.3007 19.6333 17.6399 19.6333 17.9935H17.2201C17.2201 17.6399 17.3473 17.3007 17.5735 17.0507C17.7998 16.8006 18.1067 16.6602 18.4267 16.6602ZM22.0464 23.3268C22.0464 23.6804 21.9193 24.0196 21.693 24.2696C21.4668 24.5197 21.1599 24.6602 20.8399 24.6602H16.0136C15.6936 24.6602 15.3867 24.5197 15.1604 24.2696C14.9341 24.0196 14.807 23.6804 14.807 23.3268V21.9935C14.807 21.6399 14.9341 21.3007 15.1604 21.0507C15.3867 20.8006 15.6936 20.6602 16.0136 20.6602H20.8399C21.1599 20.6602 21.4668 20.8006 21.693 21.0507C21.9193 21.3007 22.0464 21.6399 22.0464 21.9935V23.3268Z" fill="white"/>
</svg>
