<svg width="35" height="32" viewBox="0 0 35 32" fill="none" xmlns="http://www.w3.org/2000/svg">
<path d="M17.1556 0.000547409C14.2318 0.0438061 11.7327 2.29226 11.4727 5.23744C11.3353 6.79342 11.8466 8.26802 12.7841 9.39134L9.16297 13.6713C8.70808 13.4513 8.20731 13.3069 7.67535 13.2607C7.52923 13.2481 7.38518 13.2424 7.24147 13.2446C5.08556 13.2765 3.24116 14.9359 3.04941 17.1076C2.9016 18.7817 3.77593 20.3224 5.1536 21.1257L3.39196 25.9164C2.85585 25.8605 2.29808 25.9441 1.77712 26.1847C0.243308 26.8935 -0.428984 28.7218 0.286256 30.2417C1.00149 31.7616 2.84662 32.4245 4.38043 31.7158C5.91425 31.007 6.58654 29.1819 5.87131 27.662C5.62832 27.1457 5.25488 26.7259 4.80779 26.4272L6.56617 21.6429C6.68632 21.6638 6.8079 21.6807 6.93154 21.6914C7.31045 21.7242 7.68208 21.706 8.04073 21.6429L9.79583 26.4272C9.34875 26.7259 8.97854 27.1457 8.73557 27.662C8.02034 29.1819 8.68936 31.007 10.2232 31.7158C11.757 32.4245 13.6021 31.7616 14.3174 30.2417C15.0326 28.7218 14.3603 26.8935 12.8265 26.1847C12.3046 25.9436 11.7487 25.8631 11.2117 25.9197L9.45 21.1257C10.6059 20.4541 11.4326 19.2587 11.5575 17.8446C11.6501 16.7955 11.3402 15.7994 10.7582 15.0031L14.3826 10.7231C15.0849 11.1216 15.8833 11.3828 16.738 11.457C17.9498 11.562 19.11 11.2827 20.0982 10.7231L23.9053 15.2197C23.4662 15.8187 23.1787 16.5377 23.1093 17.3241C22.9638 18.9718 23.8082 20.4932 25.1482 21.3067L23.4551 25.9197C22.918 25.8631 22.3622 25.9436 21.8402 26.1847C20.3064 26.8935 19.6341 28.7218 20.3493 30.2417C21.0646 31.7616 22.9097 32.4245 24.4436 31.7158C25.9773 31.007 26.6464 29.1819 25.9311 27.662C25.6888 27.147 25.3164 26.729 24.8709 26.4304L26.551 21.8466C26.6954 21.8744 26.8418 21.8951 26.9914 21.908C27.3959 21.9431 27.7947 21.9205 28.1756 21.8466L29.8589 26.4272C29.4118 26.7259 29.0384 27.1457 28.7954 27.662C28.0802 29.1819 28.7525 31.007 30.2863 31.7158C31.8201 32.4245 33.6652 31.7616 34.3805 30.2417C35.0957 28.7218 34.4234 26.8935 32.8896 26.1847C32.3686 25.9441 31.8109 25.8605 31.2748 25.9164L29.5784 21.3035C30.6996 20.6252 31.4948 19.4482 31.6173 18.0612C31.8219 15.7448 30.0728 13.68 27.7351 13.4774C26.9403 13.4084 26.1761 13.5656 25.5037 13.8911L21.6967 9.39134C22.4245 8.52411 22.9054 7.44041 23.0114 6.2395C23.2887 3.09808 20.9163 0.297993 17.7461 0.0232029C17.5479 0.0059948 17.3505 -0.00229263 17.1556 0.000547409Z" fill="white"/>
</svg>
