<svg width="26" height="28" viewBox="0 0 26 28" fill="none" xmlns="http://www.w3.org/2000/svg">
<path d="M16.3966 12.6H13.9047V7C13.9047 6.6287 13.7734 6.2726 13.5397 6.01005C13.3061 5.7475 12.9892 5.6 12.6587 5.6C12.3283 5.6 12.0114 5.7475 11.7777 6.01005C11.544 6.2726 11.4128 6.6287 11.4128 7V14C11.4128 14.3713 11.544 14.7274 11.7777 14.9899C12.0114 15.2525 12.3283 15.4 12.6587 15.4H16.3966C16.727 15.4 17.0439 15.2525 17.2776 14.9899C17.5113 14.7274 17.6425 14.3713 17.6425 14C17.6425 13.6287 17.5113 13.2726 17.2776 13.01C17.0439 12.7475 16.727 12.6 16.3966 12.6ZM12.6587 0C10.1945 0 7.78555 0.821086 5.7366 2.35942C3.68764 3.89776 2.09068 6.08426 1.14765 8.64243C0.204617 11.2006 -0.0421225 14.0155 0.43863 16.7313C0.919383 19.447 2.10604 21.9416 3.84853 23.8995C5.59102 25.8574 7.81109 27.1908 10.228 27.731C12.6449 28.2712 15.1501 27.9939 17.4268 26.9343C19.7035 25.8747 21.6494 24.0803 23.0184 21.778C24.3875 19.4757 25.1182 16.7689 25.1182 14C25.1182 12.1615 24.796 10.341 24.1698 8.64243C23.5437 6.94387 22.6259 5.40052 21.4689 4.1005C20.312 2.80048 18.9384 1.76925 17.4268 1.06569C15.9151 0.362121 14.2949 0 12.6587 0ZM12.6587 25.2C10.6873 25.2 8.76019 24.5431 7.12102 23.3125C5.48186 22.0818 4.20429 20.3326 3.44986 18.286C2.69544 16.2395 2.49805 13.9876 2.88265 11.815C3.26725 9.6424 4.21657 7.64675 5.61057 6.0804C7.00456 4.51405 8.78062 3.44736 10.7141 3.0152C12.6477 2.58305 14.6518 2.80485 16.4732 3.65255C18.2945 4.50025 19.8512 5.93578 20.9465 7.77761C22.0417 9.61944 22.6263 11.7848 22.6263 14C22.6263 16.9704 21.5762 19.8192 19.7069 21.9196C17.8376 24.02 15.3023 25.2 12.6587 25.2Z" fill="black"/>
</svg>
