<svg width="29" height="32" viewBox="0 0 29 32" fill="none" xmlns="http://www.w3.org/2000/svg">
<path d="M11.5831 28.8H4.34366C3.95966 28.8 3.59138 28.6314 3.31985 28.3314C3.04832 28.0313 2.89578 27.6243 2.89578 27.2V4.8C2.89578 4.37565 3.04832 3.96869 3.31985 3.66863C3.59138 3.36857 3.95966 3.2 4.34366 3.2H11.5831V8C11.5831 9.27304 12.0407 10.4939 12.8553 11.3941C13.6699 12.2943 14.7748 12.8 15.9268 12.8H21.7183C22.0042 12.7984 22.2832 12.7034 22.5202 12.5268C22.7573 12.3503 22.9418 12.1002 23.0504 11.808C23.1612 11.5166 23.1915 11.1955 23.1374 10.8851C23.0833 10.5747 22.9472 10.289 22.7463 10.064L14.059 0.464C13.9393 0.339546 13.8025 0.23693 13.6536 0.16C13.6104 0.153216 13.5665 0.153216 13.5233 0.16L13.1179 0H4.34366C3.19165 0 2.08682 0.505713 1.27223 1.40589C0.457635 2.30606 0 3.52696 0 4.8V27.2C0 28.473 0.457635 29.6939 1.27223 30.5941C2.08682 31.4943 3.19165 32 4.34366 32H11.5831C11.9671 32 12.3354 31.8314 12.6069 31.5314C12.8784 31.2313 13.031 30.8243 13.031 30.4C13.031 29.9757 12.8784 29.5687 12.6069 29.2686C12.3354 28.9686 11.9671 28.8 11.5831 28.8ZM14.4789 5.456L18.2289 9.6H15.9268C15.5428 9.6 15.1745 9.43143 14.903 9.13137C14.6314 8.83131 14.4789 8.42435 14.4789 8V5.456ZM15.9268 17.6C15.9268 17.1757 15.7742 16.7687 15.5027 16.4686C15.2312 16.1686 14.8629 16 14.4789 16H7.23944C6.85543 16 6.48716 16.1686 6.21563 16.4686C5.9441 16.7687 5.79155 17.1757 5.79155 17.6C5.79155 18.0243 5.9441 18.4313 6.21563 18.7314C6.48716 19.0314 6.85543 19.2 7.23944 19.2H14.4789C14.8629 19.2 15.2312 19.0314 15.5027 18.7314C15.7742 18.4313 15.9268 18.0243 15.9268 17.6ZM7.23944 12.8H8.68733C9.07133 12.8 9.43961 12.6314 9.71114 12.3314C9.98267 12.0313 10.1352 11.6243 10.1352 11.2C10.1352 10.7757 9.98267 10.3687 9.71114 10.0686C9.43961 9.76857 9.07133 9.6 8.68733 9.6H7.23944C6.85543 9.6 6.48716 9.76857 6.21563 10.0686C5.9441 10.3687 5.79155 10.7757 5.79155 11.2C5.79155 11.6243 5.9441 12.0313 6.21563 12.3314C6.48716 12.6314 6.85543 12.8 7.23944 12.8ZM7.23944 22.4C6.85543 22.4 6.48716 22.5686 6.21563 22.8686C5.9441 23.1687 5.79155 23.5757 5.79155 24C5.79155 24.4243 5.9441 24.8313 6.21563 25.1314C6.48716 25.4314 6.85543 25.6 7.23944 25.6H10.1352C10.5192 25.6 10.8875 25.4314 11.159 25.1314C11.4306 24.8313 11.5831 24.4243 11.5831 24C11.5831 23.5757 11.4306 23.1687 11.159 22.8686C10.8875 22.5686 10.5192 22.4 10.1352 22.4H7.23944ZM26.062 21.088V20.8C26.062 19.527 25.6043 18.3061 24.7897 17.4059C23.9752 16.5057 22.8703 16 21.7183 16C20.5663 16 19.4615 16.5057 18.6469 17.4059C17.8323 18.3061 17.3747 19.527 17.3747 20.8V21.088C16.5297 21.4181 15.7979 22.0289 15.2795 22.8367C14.761 23.6445 14.4814 24.6097 14.4789 25.6V27.2C14.4789 28.473 14.9365 29.6939 15.7511 30.5941C16.5657 31.4943 17.6705 32 18.8225 32H24.6141C25.7661 32 26.8709 31.4943 27.6855 30.5941C28.5001 29.6939 28.9578 28.473 28.9578 27.2V25.6C28.9552 24.6097 28.6756 23.6445 28.1572 22.8367C27.6387 22.0289 26.9069 21.4181 26.062 21.088ZM21.7183 19.2C22.1023 19.2 22.4706 19.3686 22.7421 19.6686C23.0137 19.9687 23.1662 20.3757 23.1662 20.8H20.2704C20.2704 20.3757 20.423 19.9687 20.6945 19.6686C20.966 19.3686 21.3343 19.2 21.7183 19.2ZM26.062 27.2C26.062 27.6243 25.9094 28.0313 25.6379 28.3314C25.3664 28.6314 24.9981 28.8 24.6141 28.8H18.8225C18.4385 28.8 18.0703 28.6314 17.7987 28.3314C17.5272 28.0313 17.3747 27.6243 17.3747 27.2V25.6C17.3747 25.1757 17.5272 24.7687 17.7987 24.4686C18.0703 24.1686 18.4385 24 18.8225 24H24.6141C24.9981 24 25.3664 24.1686 25.6379 24.4686C25.9094 24.7687 26.062 25.1757 26.062 25.6V27.2Z" fill="white"/>
</svg>
